<svg xmlns="http://www.w3.org/2000/svg" width="51.52" height="17.23" viewBox="0 0 51.52 17.23"><path d="M4.83 16.23q-.65 0-1.03-.42a9.5 9.5 0 0 1-2.67-6.84q0-4.06 2.67-6.86.38-.42 1.03-.42.15 0 .23.15.08.16-.04.28a9.5 9.5 0 0 0-2.66 6.83q0 4.05 2.66 6.85.1.12.03.28-.07.15-.22.15m1.33-6.71a.4.4 0 0 1-.36-.2q-.1-.18 0-.4l3.02-5.9q.15-.33.45-.52a1.25 1.25 0 0 1 1.78.52l3 5.9q.13.22 0 .4a.4.4 0 0 1-.34.2q-.31 0-.58-.16-.26-.15-.39-.44L9.93 3.16v-.02.02L7.12 8.92a1 1 0 0 1-.4.44q-.26.15-.56.16m18.9.4a.5.5 0 0 1-.36-.15.5.5 0 0 1-.14-.36q0-.2.14-.35t.36-.15h3.9q.21 0 .35.15.15.14.14.35t-.14.36-.34.15Zm5.75 6.31q-.18 0-.24-.15t.07-.28a9.6 9.6 0 0 0 2.65-6.85q0-4.02-2.65-6.82a.3.3 0 0 1-.05-.29q.06-.15.22-.15.62 0 1.05.42 1.29 1.35 1.98 3.1.69 1.76.69 3.74 0 2-.69 3.75a10 10 0 0 1-1.98 3.11q-.44.42-1.05.42m18.12-9.7q.02 0 .02-.05-.03-.03-.05-.03h-3.08q-.39 0-.72-.23a1.4 1.4 0 0 1-.47-.64l-.93-2.9q-.03-.04-.05-.04l-.05.03-.94 2.9q-.14.4-.46.65-.34.24-.72.23H38.4l-.05.03q-.01.04.02.05l2.5 1.81q.3.24.43.63.15.37 0 .76l-.93 2.93v.06q.03.01.06-.02l2.48-1.8q.32-.25.74-.24.42 0 .73.23l2.49 1.81q.03.04.04.02.03-.03.02-.06l-.94-2.93q-.15-.38-.01-.76.14-.39.45-.63Zm1.33-.76q.2 0 .26.2.07.19-.09.31l-3.81 2.78q-.12.09-.07.2l1.47 4.49q.05.2-.1.31-.18.12-.35 0l-3.81-2.76q-.12-.08-.22 0l-3.81 2.76q-.17.12-.35 0-.17-.1-.1-.31l1.46-4.48q.05-.13-.06-.2l-3.81-2.79q-.18-.13-.11-.31.07-.2.28-.2h4.7q.12 0 .17-.14l1.46-4.47q.06-.22.28-.22t.28.22l1.45 4.47q.05.14.17.14ZM0-3.2"/></svg>