<svg xmlns="http://www.w3.org/2000/svg" width="59.84" height="17.23" viewBox="0 0 59.84 17.23"><path d="M4.83 16.23q-.65 0-1.03-.42a9.5 9.5 0 0 1-2.67-6.84q0-4.06 2.67-6.86.38-.42 1.03-.42.15 0 .23.15.08.16-.04.28a9.5 9.5 0 0 0-2.66 6.83q0 4.05 2.66 6.85.1.12.03.28-.07.15-.22.15m11.43-7.62v7.62h-.73V8.61h-3.44v7.62h-.73V8.61H5.8v-.73h16v.73Zm9.35 5.55q-1.24 0-2.08-1.1a4.8 4.8 0 0 1-.85-2.98q0-2.1.9-3.85.28-.54.93-.54.2 0 .3.17.11.18.01.34a7.6 7.6 0 0 0-.96 3.8q0 1.5.54 2.34.57.84 1.33.83 1.72 0 1.72-4.08V7.23q0-.24.17-.42a.6.6 0 0 1 .42-.17.6.6 0 0 1 .6.6v1.85q0 4.08 1.73 4.08.76 0 1.31-.83a4 4 0 0 0 .57-2.34q0-2.07-.97-3.8a.3.3 0 0 1 0-.34q.09-.17.31-.17.66 0 .94.54.87 1.74.87 3.85 0 1.9-.84 2.98a2.5 2.5 0 0 1-2.06 1.1q-1.96 0-2.44-2.38l-.02-.01-.01.01q-.48 2.38-2.42 2.38M44.74 8.6v7.62h-.73V8.61h-3.44v7.62h-.73V8.61h-5.55v-.73h16v.73Zm7.66-3.98-1.7-2.88a.5.5 0 0 1 0-.47q.14-.23.39-.23.37 0 .68.2.32.19.47.53l1.3 2.83q.07.15-.03.33-.1.15-.3.15a.9.9 0 0 1-.81-.46m2.73 11.6q-.18 0-.24-.15t.06-.28a9.6 9.6 0 0 0 2.66-6.85q0-4.02-2.66-6.82a.3.3 0 0 1-.04-.29q.06-.15.22-.15.61 0 1.04.42 1.3 1.35 1.99 3.1.68 1.76.68 3.74 0 2-.68 3.75a10 10 0 0 1-1.99 3.11q-.42.42-1.05.42M0-3.2"/></svg>