<svg xmlns="http://www.w3.org/2000/svg" width="93.58" height="17.23" viewBox="0 0 93.58 17.23"><path d="M4.83 16.23q-.65 0-1.03-.42a9.5 9.5 0 0 1-2.67-6.84q0-4.06 2.67-6.86.38-.42 1.03-.42.15 0 .23.15.08.16-.04.28a9.5 9.5 0 0 0-2.66 6.83q0 4.05 2.66 6.85.1.12.03.28-.07.15-.22.15m4.53-8.98a.5.5 0 0 1-.43-.06.5.5 0 0 1-.25-.35q-.04-.23.08-.43.14-.21.36-.27 3.45-.83 5.17-.83 4.85 0 4.85 4.05 0 2.34-1.93 3.6-1.9 1.25-5.71 1.32a.6.6 0 0 1-.41-.15.5.5 0 0 1-.19-.38.5.5 0 0 1 .14-.4q.15-.16.38-.16 3.33-.06 4.9-1a3 3 0 0 0 1.58-2.72q0-1.52-.9-2.27t-2.8-.75q-1.61 0-4.84.8M23 5.02a.5.5 0 0 1-.3-.25.6.6 0 0 1-.04-.4.5.5 0 0 1 .26-.3.5.5 0 0 1 .4-.02l2 .67q.04.01.07-.02.05-.03.05-.08l-.03-2.1q0-.24.15-.38.16-.15.36-.14.22 0 .36.14.16.15.16.38l-.03 2.1q0 .05.03.08a.1.1 0 0 0 .1.02l2-.67a.5.5 0 0 1 .4.01q.2.1.25.32.06.2-.03.39a.5.5 0 0 1-.3.25l-2.05.6-.04.08v.1l1.28 1.68q.14.18.1.38a.5.5 0 0 1-.21.33.5.5 0 0 1-.38.1.6.6 0 0 1-.34-.21l-1.22-1.72q-.02-.05-.08-.05-.04 0-.07.05l-1.22 1.72a.5.5 0 0 1-.72.1.6.6 0 0 1-.2-.32.5.5 0 0 1 .09-.38l1.28-1.68q.03-.03.02-.1-.03-.05-.07-.08ZM33.06 4.1q.38-.47.8-1.16a13 13 0 0 0 .69-1.2h1.58v.17q-.35.5-1.04 1.25-.68.74-1.17 1.14h-.86ZM42.55 6.75q-.05 0-.08.05-.03.03-.02.08l2.05 5.95.03.01.02-.01 2.04-5.95q.01-.05-.01-.08-.04-.05-.08-.05Zm1.03 6.58L39.8 2.93a.5.5 0 0 1 .04-.41q.15-.2.38-.2.3 0 .55.18.24.17.34.44l.9 2.65q.06.14.18.14h4.65q.16 0 .2-.14l.9-2.62a1 1 0 0 1 .34-.47 1 1 0 0 1 .56-.19q.26 0 .4.2.13.21.06.44l-3.8 10.38q-.11.3-.37.48a1 1 0 0 1-1.18 0q-.24-.18-.37-.48M59 4.31h-1q-1.2-1.06-2.13-2.43v-.13h1.75q.63 1.38 1.38 2.31ZM66.95 5.02a.5.5 0 0 1-.3-.25.6.6 0 0 1-.04-.4.5.5 0 0 1 .26-.3.5.5 0 0 1 .4-.02l2 .67q.03.01.07-.02t.05-.08l-.03-2.1q0-.24.15-.38t.36-.14q.22 0 .36.14.16.15.16.38l-.03 2.1q0 .05.03.08a.1.1 0 0 0 .09.02l2-.67a.5.5 0 0 1 .4.01q.21.1.26.32.06.2-.03.39a.5.5 0 0 1-.3.25l-2.05.6q-.03.03-.05.08v.1L72 7.48q.14.18.09.38a.5.5 0 0 1-.2.33.5.5 0 0 1-.38.1.6.6 0 0 1-.34-.21l-1.22-1.72q-.02-.05-.08-.05t-.08.05l-1.22 1.72a.5.5 0 0 1-.71.1.6.6 0 0 1-.2-.32.5.5 0 0 1 .09-.38l1.28-1.68q.03-.03.01-.1 0-.05-.06-.08Zm7.52 11.21q-.18 0-.23-.15-.07-.15.06-.28a9.6 9.6 0 0 0 2.66-6.85q0-4.02-2.66-6.82a.3.3 0 0 1-.05-.29q.07-.15.22-.15.63 0 1.05.42 1.29 1.35 1.98 3.1.7 1.76.7 3.74 0 2-.7 3.75a10 10 0 0 1-1.98 3.11q-.42.42-1.05.42m8.33-8.98a.5.5 0 0 1-.42-.06.5.5 0 0 1-.25-.35q-.06-.23.07-.43.14-.21.36-.27 3.45-.83 5.17-.83 4.85 0 4.85 4.05 0 2.34-1.92 3.6-1.92 1.25-5.72 1.32a.6.6 0 0 1-.4-.15.5.5 0 0 1-.2-.38.5.5 0 0 1 .14-.4q.15-.16.38-.16 3.33-.06 4.9-1a3 3 0 0 0 1.58-2.72q0-1.52-.9-2.27t-2.8-.75q-1.61 0-4.84.8M65.75-3.2"/></svg>