<svg xmlns="http://www.w3.org/2000/svg" width="48.21" height="17.23" viewBox="0 0 48.21 17.23"><path d="M4.83 16.23q-.65 0-1.03-.42a9.5 9.5 0 0 1-2.67-6.84q0-4.06 2.67-6.86.38-.42 1.03-.42.15 0 .23.15.08.16-.04.28a9.5 9.5 0 0 0-2.66 6.83q0 4.05 2.66 6.85.1.12.03.28-.07.15-.22.15M8.89 4.1q.37-.47.8-1.16a13 13 0 0 0 .68-1.2h1.58v.17q-.34.5-1.03 1.25-.68.74-1.17 1.14h-.86ZM23.54 4.48a3.3 3.3 0 0 0-2.8-1.25 3.3 3.3 0 0 0-2.78 1.25Q17 5.74 17 8.18q0 2.4.96 3.66a3.3 3.3 0 0 0 2.79 1.25q1.81 0 2.8-1.25.96-1.24.96-3.67t-.97-3.69m.92 8.11a4.7 4.7 0 0 1-3.71 1.57 4.7 4.7 0 0 1-3.72-1.57q-1.35-1.57-1.35-4.42t1.35-4.44a4.7 4.7 0 0 1 3.72-1.57q2.37 0 3.71 1.57 1.36 1.59 1.36 4.44t-1.36 4.42M35.71 4.31h-1q-1.19-1.06-2.12-2.43v-.13h1.75q.62 1.38 1.37 2.31ZM43.5 16.23q-.18 0-.24-.15t.06-.28a9.6 9.6 0 0 0 2.66-6.85q0-4.02-2.66-6.82a.3.3 0 0 1-.04-.29q.06-.15.22-.15.62 0 1.04.42 1.3 1.35 1.99 3.1.68 1.76.68 3.74 0 2-.68 3.75a10 10 0 0 1-1.99 3.11q-.42.42-1.04.42M42.46-3.2"/></svg>