<svg xmlns="http://www.w3.org/2000/svg" width="28.02" height="17.44" viewBox="0 0 28.02 17.44"><path d="M3.78 3.72a12.78 12.78 0 0 0-.84 1.25 10 10 0 0 0-1.2 4.92q-.04 1.83.34 3.23a7 7 0 0 0 1.6 2.76q.09.09.09.2a.5.5 0 0 1-.52.36.6.6 0 0 1-.31-.1 7 7 0 0 1-1.97-2.93 9.74 9.74 0 0 1 1.86-9.9q.23-.17.5-.15.38 0 .45.36m3.06-.56q.39.11.57.46l1.75 3.83.01.11q-.18.47-.75.33a.6.6 0 0 1-.5-.31L6.77 4.86 5.59 7.58q-.32.45-.92.31-.3-.03-.33-.33l.02-.06L6.2 3.47a.6.6 0 0 1 .64-.31m10.3 0q.38.11.56.46l1.75 3.83.01.11q-.18.47-.75.33a.6.6 0 0 1-.5-.31l-1.16-2.72-1.17 2.72q-.33.45-.92.31-.3-.03-.33-.33l.02-.06 1.84-4.03a.6.6 0 0 1 .64-.31m4.01 4.2q.03-.84.88-.88.82.06.87.88-.07.79-.87.81-.82 0-.88-.81m1.75 5.84a2.5 2.5 0 0 1-.6 1.4q-.54.73-1.23.8-.13 0-.18-.12.04-.15.4-.55.38-.38.42-.75-.03-.1-.3-.28-.29-.17-.3-.65.12-.7.85-.74.9 0 .94.9m2.37-5.84q.02-.84.87-.88.82.06.88.88-.09.79-.88.81-.82 0-.87-.81m1.75 5.84a2.5 2.5 0 0 1-.6 1.4q-.55.73-1.23.8-.15 0-.19-.12.04-.15.4-.55.39-.38.43-.75-.04-.1-.31-.28-.27-.17-.3-.65.12-.7.86-.74.89 0 .94.9M0 .4"/></svg>