<svg xmlns="http://www.w3.org/2000/svg" width="54.57" height="17.23" viewBox="0 0 54.57 17.23"><path d="M4.83 16.23q-.65 0-1.03-.42a9.5 9.5 0 0 1-2.67-6.84q0-4.06 2.67-6.86.38-.42 1.03-.42.15 0 .23.15.08.16-.04.28a9.5 9.5 0 0 0-2.66 6.83q0 4.05 2.66 6.85.1.12.03.28-.07.15-.22.15m5.46-4.48a1.4 1.4 0 0 0-1.04-.44q-.63 0-1.07.44-.43.42-.43 1.05 0 .62.43 1.06.45.44 1.07.44t1.04-.44q.45-.44.44-1.06 0-.63-.44-1.05m.69 2.8q-.7.71-1.73.72-1.02 0-1.75-.72a2.4 2.4 0 0 1-.72-1.74q0-1.03.72-1.73a2.4 2.4 0 0 1 1.75-.72q1.02 0 1.73.72.72.7.72 1.73 0 1.02-.72 1.74m4.19-10.46-1.35-1.57q-.15-.18-.04-.4.09-.23.33-.23.82 0 1.28.67l1.03 1.5q.09.16 0 .33t-.28.17q-.6 0-.97-.47m.31 2.22a.6.6 0 0 1 .19-.43.6.6 0 0 1 .45-.2q.27 0 .45.2a.6.6 0 0 1 .2.43v7.05a.65.65 0 0 1-.65.64.65.65 0 0 1-.64-.64Zm7.79 9.92a.5.5 0 0 1-.36-.14.5.5 0 0 1-.12-.34q0-.2.12-.34a.5.5 0 0 1 .36-.13h8.1a.5.5 0 0 1 .34.13q.15.13.14.34t-.14.34q-.15.15-.35.14ZM39.35 2.56q.47-.66 1.28-.67.23 0 .33.24.1.21-.05.39l-1.34 1.57q-.38.48-.97.47-.21 0-.3-.17a.3.3 0 0 1 .02-.33Zm-.28 11.25a.6.6 0 0 1-.47.19.6.6 0 0 1-.46-.19.7.7 0 0 1-.17-.45V6.3q0-.25.17-.43a.6.6 0 0 1 .46-.2q.28 0 .47.2a.6.6 0 0 1 .18.43v7.05q0 .25-.18.45m6.23-2.06a1.4 1.4 0 0 0-1.05-.44q-.62 0-1.06.44-.45.42-.44 1.05 0 .62.44 1.06t1.06.44 1.05-.44q.44-.44.44-1.06t-.44-1.05m.69 2.8q-.7.71-1.74.72-1.02 0-1.75-.72a2.4 2.4 0 0 1-.71-1.74q0-1.03.71-1.73a2.4 2.4 0 0 1 1.75-.72q1.04 0 1.74.72.71.7.72 1.73 0 1.02-.72 1.74m3.86 1.68q-.18 0-.24-.15t.07-.28a9.6 9.6 0 0 0 2.65-6.85q0-4.02-2.65-6.82a.3.3 0 0 1-.05-.29q.06-.15.22-.15.62 0 1.04.42 1.3 1.35 1.99 3.1.69 1.76.69 3.74 0 2-.7 3.75a10 10 0 0 1-1.98 3.11q-.42.42-1.04.42M0-3.2"/></svg>