<svg xmlns="http://www.w3.org/2000/svg" width="89.88" height="17.56" viewBox="0 0 89.88 17.56"><path d="M4.48 11.75a1.4 1.4 0 0 0-1.04-.44q-.64 0-1.06.44-.44.42-.44 1.05 0 .62.44 1.06.42.44 1.06.44.62 0 1.04-.44.44-.44.44-1.06t-.44-1.05m.7 2.8q-.71.71-1.74.72-1.02 0-1.75-.72a2.4 2.4 0 0 1-.72-1.74q0-1.03.72-1.73a2.4 2.4 0 0 1 1.75-.72q1.03 0 1.73.72.72.7.72 1.73 0 1.02-.72 1.74m6-12.9a1.2 1.2 0 0 0-1.77 0q-.37.37-.36.88 0 .52.36.9.38.37.87.37.52 0 .9-.38.37-.37.37-.89 0-.51-.38-.87m.68 2.44q-.66.66-1.58.66-.9 0-1.56-.66a2.2 2.2 0 0 1-.64-1.56q-.01-.91.64-1.56Q9.38.3 10.28.3q.92 0 1.58.66.66.65.66 1.56 0 .9-.66 1.56m8.97 12.14q-.65 0-1.03-.42a9.5 9.5 0 0 1-2.68-6.84q0-4.06 2.68-6.86.38-.42 1.03-.42.15 0 .23.15.08.16-.04.28a9.5 9.5 0 0 0-2.66 6.83q0 4.05 2.66 6.85.1.12.03.28-.07.15-.22.15m4.15-14.57a1.2 1.2 0 0 0-1.77 0q-.36.36-.35.87 0 .52.35.9.37.37.88.37t.89-.38.38-.89q0-.51-.38-.87m.69 2.43q-.66.66-1.58.66-.9 0-1.56-.66a2.2 2.2 0 0 1-.64-1.56q-.01-.91.64-1.56.64-.66 1.56-.66t1.58.66.65 1.56q0 .9-.65 1.56m5.17.47a.3.3 0 0 1-.28-.17.3.3 0 0 1 .03-.33l1.03-1.5q.45-.66 1.25-.67.25 0 .34.24.1.21-.04.39l-1.33 1.57q-.4.48-1 .47m5.74 8.25q-.04.04-.02.08.03.03.08.03h5.08q.15 0 .14-.12V3.52q0-.13-.14-.13h-3.88q-.15 0-.15.13 0 3.78-.06 5.21-.08 1.45-.27 2.29-.21.83-.78 1.8m-1.47 3.56a.53.53 0 0 1-.81 0 .6.6 0 0 1-.18-.4v-2.24q0-.32.24-.56a.7.7 0 0 1 .55-.25q.12 0 .18-.08.69-.98.93-1.78t.34-2.33q.1-1.53.1-5.34v-.16a1 1 0 0 1 .24-.64q.27-.28.64-.28h4.88q.37 0 .64.28.28.27.28.64v9.57q0 .12.14.12h.28q.37 0 .64.28t.27.64v2.13q0 .23-.17.4a.6.6 0 0 1-.42.2.5.5 0 0 1-.41-.2.6.6 0 0 1-.17-.4v-1.85q0-.12-.13-.12h-7.73q-.15 0-.14.13v1.84q0 .23-.2.4M53.5 4.54l-1.73-2.75a.4.4 0 0 1-.02-.48q.15-.25.4-.25.88 0 1.24.78l1.25 2.67q.08.15-.03.33a.3.3 0 0 1-.28.15.9.9 0 0 1-.83-.45m10.85-2.87a1.2 1.2 0 0 0-1.77 0q-.36.36-.36.87 0 .52.36.9.38.37.87.37.53 0 .9-.38.37-.37.37-.89 0-.51-.37-.87m.68 2.43q-.65.66-1.58.66-.9 0-1.56-.66a2.2 2.2 0 0 1-.64-1.56q0-.91.64-1.56.66-.66 1.56-.66.93 0 1.58.66.66.65.66 1.56 0 .9-.66 1.56m5.17 12.14q-.17 0-.23-.15t.06-.28a9.6 9.6 0 0 0 2.66-6.85q0-4.02-2.66-6.82a.3.3 0 0 1-.04-.29q.05-.15.21-.15.63 0 1.05.42 1.3 1.35 1.99 3.1.68 1.76.68 3.74 0 2-.68 3.75a10 10 0 0 1-1.99 3.11q-.42.42-1.05.42m7.95-14.57a1.2 1.2 0 0 0-1.76 0q-.36.36-.36.87 0 .52.36.9.38.37.87.37.52 0 .9-.38.36-.37.37-.89 0-.51-.38-.87m.7 2.43q-.67.66-1.59.66-.9 0-1.56-.66a2.2 2.2 0 0 1-.64-1.56q0-.91.64-1.56.66-.66 1.56-.66.93 0 1.58.66.66.65.66 1.56 0 .9-.66 1.56m8.62 7.66a1.4 1.4 0 0 0-1.05-.44q-.63 0-1.06.44-.44.42-.44 1.05 0 .62.44 1.06.43.44 1.06.44.62 0 1.05-.44t.43-1.06q0-.63-.43-1.05m.68 2.8q-.7.71-1.73.72-1.02 0-1.75-.72a2.4 2.4 0 0 1-.72-1.74q0-1.03.72-1.73a2.4 2.4 0 0 1 1.75-.72q1.04 0 1.73.72.72.7.72 1.73 0 1.02-.72 1.74M0-3.2"/></svg>