<svg xmlns="http://www.w3.org/2000/svg" width="36.41" height="17.23" viewBox="0 0 36.41 17.23"><path d="M4.83 16.23q-.65 0-1.03-.42a9.5 9.5 0 0 1-2.67-6.84q0-4.06 2.67-6.86.38-.42 1.03-.42.15 0 .23.15.08.16-.04.28a9.5 9.5 0 0 0-2.66 6.83q0 4.05 2.66 6.85.1.12.03.28-.07.15-.22.15M6.84 4.56a.3.3 0 0 1-.28-.17.3.3 0 0 1 .03-.33l1.03-1.5q.45-.66 1.25-.67.25 0 .34.24.1.21-.04.39L7.84 4.09q-.4.48-1 .47m5.46 8.36q-.08.13.04.13h4.14q.13 0 .13-.14V6.78q0-.14-.13-.14h-3.17q-.14 0-.14.14 0 3.58-.12 4.42a4 4 0 0 1-.75 1.72m-1.25 2.81a.6.6 0 0 1-.43.2.5.5 0 0 1-.4-.2.6.6 0 0 1-.17-.4v-1.61a.6.6 0 0 1 .2-.47q.2-.2.47-.2.1 0 .15-.08.33-.39.47-.58.15-.19.32-.6.17-.43.2-.65.04-.24.1-1.03A24 24 0 0 0 12 8.7V6.6q0-.37.27-.64a1 1 0 0 1 .64-.26h3.97q.37 0 .64.26.27.28.28.64v6.32q0 .14.12.14H18q.36 0 .63.26.27.28.28.64v1.38q0 .23-.18.4a.6.6 0 0 1-.42.2.6.6 0 0 1-.42-.2.6.6 0 0 1-.17-.4v-1.2q0-.14-.13-.13h-6.23q-.13 0-.13.13v1.2q0 .23-.18.4m13.49-1.93a4.4 4.4 0 0 1-3.13-1.13 3.7 3.7 0 0 1-1.22-2.83q0-1.71 1.22-2.82a4.4 4.4 0 0 1 3.13-1.13H29q.21 0 .36.16.18.15.18.37a.5.5 0 0 1-.53.5h-4.32q-1.51 0-2.44.83-.9.81-.9 2.1 0 1.28.9 2.09.93.81 2.44.81H29q.24 0 .38.16.16.15.16.36 0 .22-.18.37a.5.5 0 0 1-.36.16Zm7.15 2.43q-.18 0-.24-.15t.07-.28a9.6 9.6 0 0 0 2.65-6.85q0-4.02-2.65-6.82a.3.3 0 0 1-.05-.29q.06-.15.22-.15.62 0 1.04.42 1.3 1.35 1.99 3.1.69 1.76.69 3.74 0 2-.7 3.75a10 10 0 0 1-1.98 3.11q-.42.42-1.04.42M0-3.2"/></svg>