<svg xmlns="http://www.w3.org/2000/svg" width="211.43" height="55.03" viewBox="0 0 55.94 14.56"><g><path d="M4.83 2.24q-.64 0-1.04-.43Q1.12-1 1.12-5.04t2.67-6.85q.4-.43 1.04-.43.16 0 .23.16.08.16-.05.29-2.66 2.8-2.66 6.83t2.66 6.83q.11.13.05.29-.07.16-.23.16ZM7.31-1.74l2.11-2.79q.08-.11 0-.22l-2.1-2.79q-.12-.16-.04-.33.1-.18.29-.18.64 0 1.02.51l1.63 2.18q.24.32.24.72 0 .4-.24.72L8.6-1.74q-.38.5-1.02.5-.2 0-.29-.17-.08-.17.03-.33z" transform="translate(-1.12 12.32)"/><path d="M14.5-9.9q.37-.47.8-1.16.44-.69.69-1.2h1.57v.17q-.34.5-1.02 1.25-.68.74-1.18 1.14h-.87z" transform="translate(-1.12 12.32)"/><path d="M24.45.16q-1.23 0-2.08-1.09-.83-1.1-.83-2.99 0-2.11.88-3.84.29-.56.94-.56.21 0 .3.18.1.17 0 .35-.95 1.71-.95 3.79 0 1.5.54 2.34.56.83 1.33.83 1.73 0 1.73-4.08v-1.86q0-.24.17-.41.18-.18.42-.18t.41.18q.18.17.18.41v1.86q0 4.08 1.73 4.08.77 0 1.31-.83.56-.84.56-2.34 0-2.08-.96-3.8-.1-.17 0-.34.1-.18.3-.18.66 0 .95.56.88 1.73.88 3.84 0 1.89-.85 3Q30.58.15 29.35.15q-1.96 0-2.44-2.38l-.01-.02q-.02 0-.02.02Q26.4.16 24.45.16z" transform="translate(-1.12 12.32)"/><path d="M39.28-9.7h-.86q-.5-.4-1.2-1.15-.7-.75-1.01-1.24v-.17h1.58q.25.54.7 1.25.45.7.79 1.12z" transform="translate(-1.12 12.32)"/><path d="m45.28-1.74-1.63-2.18q-.24-.32-.24-.72 0-.4.24-.72l1.63-2.18q.39-.5 1.03-.5.2 0 .27.17.1.17-.02.33l-2.1 2.79q-.09.11 0 .22l2.1 2.79q.12.16.02.33-.08.18-.27.18-.64 0-1.03-.51zM53.35 2.24q-.18 0-.24-.16-.07-.16.06-.29 2.66-2.8 2.66-6.83t-2.66-6.83q-.1-.13-.05-.29.07-.16.23-.16.62 0 1.04.43 1.3 1.36 1.98 3.12.7 1.75.7 3.73t-.7 3.74Q55.68.45 54.4 1.8q-.42.44-1.04.44z" transform="translate(-1.12 12.32)"/></g></svg>