<svg xmlns="http://www.w3.org/2000/svg" width="140.78" height="39.31" viewBox="0 0 37.25 10.4"><path d="M1.95.6q-.2 0-.37-.17Q1.44.3 1.44.08q0-.2.14-.35.16-.16.37-.16h8.16q.21 0 .35.16.16.14.16.35 0 .2-.16.35-.14.16-.35.16zm7.8-6.4h.01q0-.04-.02-.04L1.95-8.7q-.51-.2-.51-.74 0-.2.16-.3.18-.12.35-.04L10-6.7q.27.1.45.35.17.24.17.54 0 .64-.62.88L1.95-1.84q-.17.06-.35-.05-.16-.11-.16-.3 0-.53.51-.72zm18.31 3.86q-.37 0-1.18.94-.82.87-1.5.87-.63 0-1.44-.87-.81-.94-1.19-.94-.37 0-1.25.94-.81.87-1.44.87-.62 0-1.43-.87-.82-.94-1.25-.94-.32 0-1.2.94-.8.87-1.43.87-.62 0-1.5-.87-.81-.94-1.19-.94v-.62q.63 0 1.44.93.88.88 1.25.88.38 0 1.19-.88.81-.93 1.44-.93.68 0 1.5.93.8.88 1.18.88.38 0 1.2-.88.8-.93 1.5-.93.62 0 1.43.93.87.88 1.19.88.37 0 1.18-.88.88-.93 1.5-.93zM30.02.6q-.21 0-.37-.16Q29.5.3 29.5.08q0-.2.15-.35.16-.16.37-.16h8.16q.2 0 .35.16.16.14.16.35 0 .2-.16.35-.15.16-.35.16zm.1-5.52q-.62-.24-.62-.88 0-.3.18-.54.18-.24.45-.35l8.05-3.08q.17-.08.33.04.18.1.18.3 0 .54-.51.74l-7.8 2.86-.01.03.01.02 7.8 2.88q.5.19.5.72 0 .19-.17.3-.16.11-.33.05z" transform="translate(-1.44 9.8)"/></svg>