<svg xmlns="http://www.w3.org/2000/svg" width="528.77" height="58.05" viewBox="0 0 139.9 15.36"><g><path d="M8.1-1.22q2.75-3.1 3.63-4.6.88-1.5.88-2.82 0-1.12-.55-1.78-.54-.67-1.48-.67-.87 0-1.43.61-.56.6-.73 1.78-.04.16-.15.27-.11.11-.27.11-.16 0-.27-.11-.11-.11-.15-.27-.17-1.19-.73-1.78-.56-.6-1.43-.6-.94 0-1.48.66-.55.66-.55 1.78 0 1.31.88 2.82.88 1.5 3.63 4.6.1.1.2 0zm2.48-10.62q1.24 0 2.01.9.77.88.77 2.3 0 1-.35 1.92-.34.91-1.38 2.35-1.02 1.44-3.02 3.7Q8.37-.4 8-.4t-.6-.27q-2-2.26-3.05-3.7Q3.33-5.8 2.98-6.72q-.34-.91-.34-1.92 0-1.42.77-2.3.77-.9 2.01-.9.8 0 1.5.45.68.45 1.06 1.39 0 .02.02.02t.02-.02q.38-.94 1.07-1.4.69-.44 1.49-.44z" transform="translate(-2.64 12.91)"/><path d="M19.78-10.29q-.04.1-.13.18-.39.51-.7 1.09-1.25 2.3-1.22 4.9-.03 1.83.35 3.24.38 1.4 1.6 2.75.08.1.08.21-.11.35-.51.35-.18 0-.3-.1-1.35-1.18-1.99-2.92-.62-1.76-.62-3.52.06-3.12 1.88-5.63.28-.42.61-.76.23-.16.5-.14.38 0 .45.35zM22.93-9.38l.59-.28q.45-.21.6-.32l.12-.02q.56.14.53.77-.07.45-.67.57-.6.12-.96.16l.6.76q.44.52.48.72-.14.5-.68.62-.4-.06-.68-.66-.25-.59-.36-.9-.12.33-.39.92-.27.58-.7.64-.15-.02-.26-.11h.02q-.35-.13-.43-.5.04-.22.46-.73l.62-.77h.04l-1.38-.29q-.26-.16-.27-.45 0-.56.48-.78.13.01.4.17l.4.23h-.02q.29.11.56.29-.1-.79-.14-1.54.16-.46.69-.38.44 0 .5.4zM25.9-9.04q-.17-.03-.16-.26.02-.22.2-.43l.64-.78.35-.45.13-.2q.1-.12.3-.15.2-.05.58.06.38.13.38.4 0 .13-.08.26-.06.11-.18.19l-.54.53-.8.7q-.13.1-.32.16-.2.05-.5-.03z" transform="translate(-2.64 12.91)"/><path d="M32.42-7.25q-.05 0-.08.05-.04.03-.02.08l2.05 5.95q0 .02.03.02.02 0 .02-.02l2.04-5.95q.02-.05-.01-.08-.03-.05-.08-.05zm1.04 6.58-3.8-10.39q-.08-.22.05-.41.15-.21.39-.21.28 0 .52.18.26.17.36.44l.9 2.66q.06.13.18.13h4.66q.14 0 .2-.13l.89-2.62q.1-.3.33-.47.26-.19.58-.19.26 0 .38.2.15.2.07.44L35.37-.67q-.1.3-.38.5-.25.17-.57.17-.32 0-.6-.18-.25-.19-.36-.5z" transform="translate(-2.64 12.91)"/><path d="M48.46-8.38q-.22 0-.4-.15l-.72-.77q-.56-.6-.68-.8h-.05q-.24-.22-.27-.54.1-.54.64-.6.28 0 .46.22.3.38.85 1.15.56.77.62 1.1-.05.39-.45.39zM58.54-9.38l.6-.28q.44-.21.59-.32.06-.02.13-.02.56.14.52.77-.06.45-.67.57-.59.12-.96.16l.61.76q.43.52.48.72-.14.5-.69.62-.4-.06-.67-.66-.26-.59-.37-.9-.11.33-.38.92-.27.58-.7.64-.15-.02-.26-.11h.01q-.35-.13-.43-.5.05-.22.47-.73l.62-.77h.03L56.1-8.8q-.26-.16-.28-.45 0-.56.48-.78.13.01.4.17l.4.23h-.01q.29.11.56.29-.1-.79-.15-1.54.16-.46.7-.38.44 0 .5.4zM60.96-10.54q.14-.1.3-.1.28-.02.5.14.34.34.6.76 1.83 2.5 1.88 5.63.02 1.76-.6 3.52-.63 1.74-2 2.93-.12.1-.31.1-.42 0-.51-.38.01-.1.08-.19.38-.37.7-.78 1.4-2.39 1.26-5.2.05-2.61-1.23-4.91-.32-.58-.7-1.1-.1-.07-.13-.17-.02-.16.14-.25z" transform="translate(-2.64 12.91)"/><path d="M72.2-12.72q.18-.2.44-.2t.45.2q.19.18.19.45v1.23q0 3.55 1.62 6.4 1.61 2.85 4.5 4.43.22.13.26.35.07.23-.06.42-.14.22-.4.27-.24.07-.46-.05-2.1-1.13-3.68-3.15-1.59-2.03-2.34-4.54-.03-.07-.06-.02-.77 2.51-2.37 4.55-1.6 2.03-3.73 3.16-.22.13-.48.05-.26-.06-.4-.27-.13-.2-.08-.42.06-.22.27-.35 2.9-1.58 4.51-4.43Q72-7.49 72-11.04v-1.23q0-.27.2-.45z" transform="translate(-2.64 12.91)"/><path d="M84.37-10.29q-.03.1-.13.18-.38.51-.7 1.09-1.25 2.3-1.22 4.9-.03 1.83.35 3.24.39 1.4 1.6 2.75.08.1.08.21-.11.35-.51.35-.18 0-.3-.1-1.35-1.18-1.99-2.92-.62-1.76-.62-3.52.06-3.12 1.89-5.63.27-.42.6-.76.23-.16.5-.14.38 0 .45.35zM87.52-9.38l.6-.28q.44-.21.58-.32l.13-.02q.56.14.53.77-.06.45-.67.57-.6.12-.96.16l.6.76q.44.52.49.72-.15.5-.7.62-.4-.06-.66-.66-.26-.59-.37-.9-.11.33-.39.92-.27.58-.7.64-.14-.02-.26-.11h.02q-.35-.13-.43-.5.05-.22.46-.73l.63-.77h.03l-1.38-.29q-.25-.16-.27-.45 0-.56.48-.78.13.01.4.17l.4.23h-.02q.3.11.56.29-.1-.79-.14-1.54.16-.46.69-.38.45 0 .51.4zM90.5-9.04q-.18-.03-.16-.26.01-.22.19-.43l.64-.78.35-.45.13-.2q.11-.12.3-.15.21-.05.58.06.38.13.38.4 0 .13-.08.26-.06.11-.17.19l-.55.53-.8.7q-.13.1-.32.16-.19.05-.5-.03z" transform="translate(-2.64 12.91)"/><path d="M97-7.25q-.04 0-.07.05-.03.03-.02.08l2.05 5.95q0 .02.03.02.02 0 .02-.02l2.05-5.95q.01-.05-.02-.08-.03-.05-.08-.05zm1.05 6.58-3.8-10.39q-.07-.22.05-.41.15-.21.39-.21.29 0 .53.18.25.17.35.44l.91 2.66q.05.13.18.13h4.65q.15 0 .2-.13l.89-2.62q.1-.3.34-.47.25-.19.57-.19.26 0 .39.2.14.2.06.44L99.96-.67q-.1.3-.38.5-.25.17-.57.17-.32 0-.6-.18-.25-.19-.36-.5z" transform="translate(-2.64 12.91)"/><path d="M113.06-8.38q-.23 0-.4-.15l-.72-.77q-.56-.6-.7-.8h-.04q-.24-.22-.27-.54.1-.54.64-.6.29 0 .46.22.3.38.85 1.15.56.77.62 1.1-.04.39-.44.39zM123.14-9.38l.59-.28q.45-.21.59-.32.06-.02.13-.02.56.14.53.77-.07.45-.68.57-.59.12-.96.16l.61.76q.43.52.48.72-.14.5-.69.62-.4-.06-.67-.66l-.37-.9q-.1.33-.38.92-.27.58-.7.64-.15-.02-.26-.11h.02q-.36-.13-.44-.5.05-.22.47-.73l.62-.77h.03l-1.37-.29q-.26-.16-.27-.45 0-.56.48-.78.12.01.4.17l.4.23h-.02q.29.11.56.29-.1-.79-.14-1.54.16-.46.68-.38.45 0 .52.4zM125.55-10.54q.15-.1.3-.1.28-.02.5.14.34.34.61.76 1.82 2.5 1.87 5.63.02 1.76-.6 3.52-.63 1.74-1.99 2.93-.13.1-.32.1-.42 0-.51-.38.01-.1.08-.19.38-.37.7-.78 1.41-2.39 1.27-5.2.04-2.61-1.24-4.91-.32-.58-.7-1.1-.1-.07-.13-.17-.01-.16.15-.25z" transform="translate(-2.64 12.91)"/><path d="M137.28-1.22q2.75-3.1 3.63-4.6.88-1.5.88-2.82 0-1.12-.54-1.78-.55-.67-1.49-.67-.86 0-1.42.61-.56.6-.74 1.78-.03.16-.14.27-.12.11-.28.11-.16 0-.27-.11-.11-.11-.14-.27-.18-1.19-.74-1.78-.56-.6-1.42-.6-.95 0-1.49.66t-.54 1.78q0 1.31.88 2.82.88 1.5 3.63 4.6.1.1.19 0zm2.48-10.62q1.25 0 2.02.9.76.88.76 2.3 0 1-.35 1.92-.33.91-1.37 2.35-1.03 1.44-3.03 3.7-.24.27-.6.27-.37 0-.61-.27-2-2.26-3.04-3.7-1.03-1.44-1.38-2.35-.34-.91-.34-1.92 0-1.42.77-2.3.77-.9 2.02-.9.8 0 1.49.45.68.45 1.07 1.39l.01.02q.02 0 .02-.02.38-.94 1.07-1.4.69-.44 1.49-.44z" transform="translate(-2.64 12.91)"/></g></svg>