<svg xmlns="http://www.w3.org/2000/svg" width="238.68" height="59.14" viewBox="0 0 63.15 15.65"><g><path d="M4.83 2.24q-.64 0-1.04-.43Q1.12-1 1.12-5.04t2.67-6.85q.4-.43 1.04-.43.16 0 .23.16.08.16-.05.29-2.66 2.8-2.66 6.83t2.66 6.83q.11.13.05.29-.07.16-.23.16ZM10.57-1.74q-.53-.1-.85-.51-.31-.41-.31-.95 0-.61.43-1.04.43-.43 1.04-.43.64 0 1.08.45.46.45.46 1.12 0 1.42-.77 2.33-.76.9-1.97.9-1.2 0-2.04-1.01Q6.8-1.9 6.8-3.4q0-1.66 1.18-2.74 1.19-1.09 2.88-1.09 1.7 0 2.89 1.09 1.18 1.08 1.18 2.75 0 1.72-.75 3.38h-1.62v-.08q.44-.62.7-1.52.27-.9.27-1.77 0-1.16-.75-1.86-.75-.7-1.92-.7-1.16 0-1.93.7-.75.7-.75 1.84 0 .94.44 1.6.45.64 1.06.64.71 0 .9-.6zm.34-.87q.24 0 .41-.16.18-.18.18-.42 0-.25-.17-.42-.17-.18-.42-.18-.24 0-.41.18-.18.17-.18.42 0 .24.18.42.17.16.41.16zM17.95-1.63l6.78-3 .02-.01q0-.02-.02-.02l-6.78-2.99q-.51-.22-.51-.8 0-.2.16-.3.17-.11.35-.03l7 3.21q.6.27.6.93t-.6.93l-7 3.21q-.18.08-.35-.01-.16-.11-.16-.32 0-.58.5-.8zM38.2 3.33h-7.4q-1.1 0-1.93-.18-1.12-.24-1.39-.88-.34-.82-.34-1.39 0-1.2 1.55-1.86.44-.16.96-.16.5.02.68.5.24.55.25 1.27v1.34h7.61zm-8.13-2.17q0-.23-.04-.48-.16-.48-.65-.55-.58 0-1.22.7-.29.37-.3.6.04.28 1.1.4.5.06.9.08.2-.44.21-.75zM40.39-3.71q-.61-.27-.61-.93t.6-.93l7-3.21q.17-.08.33.03.18.1.18.3 0 .58-.51.8l-6.79 3-.01.01.01.02 6.79 2.99q.51.22.51.8 0 .2-.18.32-.16.1-.33.01zM54.18-1.74q-.54-.1-.86-.51-.3-.41-.3-.95 0-.61.42-1.04.43-.43 1.04-.43.64 0 1.09.45.45.45.45 1.12 0 1.42-.77 2.33-.75.9-1.97.9-1.2 0-2.04-1.01-.84-1.01-.84-2.51 0-1.66 1.18-2.74 1.19-1.09 2.88-1.09 1.7 0 2.89 1.09 1.18 1.08 1.18 2.75 0 1.72-.75 3.38h-1.62v-.08q.44-.62.7-1.52.28-.9.28-1.77 0-1.16-.75-1.86-.75-.7-1.93-.7-1.16 0-1.93.7-.75.7-.75 1.84 0 .94.44 1.6.45.64 1.06.64.72 0 .9-.6zm.33-.87q.24 0 .42-.16.18-.18.18-.42 0-.25-.18-.42-.17-.18-.42-.18-.24 0-.41.18-.17.17-.17.42 0 .24.17.42.17.16.41.16zM60.56 2.24q-.18 0-.24-.16t.06-.29q2.66-2.8 2.66-6.83t-2.66-6.83q-.1-.13-.04-.29.06-.16.22-.16.62 0 1.04.43 1.3 1.36 1.98 3.12.7 1.75.7 3.73t-.7 3.74Q62.9.45 61.6 1.8q-.42.44-1.04.44z" transform="translate(-1.12 12.32)"/></g></svg>