<svg xmlns="http://www.w3.org/2000/svg" width="223.67" height="55.03" viewBox="0 0 59.18 14.56"><g><path d="M4.83 2.24q-.64 0-1.04-.43Q1.12-1 1.12-5.04t2.67-6.85q.4-.43 1.04-.43.16 0 .23.16.08.16-.05.29-2.66 2.8-2.66 6.83t2.66 6.83q.11.13.05.29-.07.16-.23.16ZM6.05.64q-.23 0-.34-.18Q5.6.3 5.68.08l5-11.2q.14-.26.36-.4.24-.16.51-.16.23 0 .34.18.11.17.03.38l-5 11.2q-.14.26-.38.4-.22.16-.5.16zM14.58 1.23q-.2 0-.34-.14-.13-.13-.13-.32 0-.2.13-.34.14-.14.34-.14h8.24q.19 0 .33.14.15.15.15.34 0 .19-.15.32-.14.14-.33.14zm0-2.62q-.2 0-.34-.13-.13-.14-.13-.34 0-.19.13-.32.14-.14.34-.14h8.24q.19 0 .33.14.15.13.15.32 0 .2-.15.34-.14.13-.33.13zm7.84-5.57.01-.03-.01-.02-7.81-2.7q-.23-.08-.37-.27-.13-.2-.13-.44 0-.19.16-.28.16-.12.34-.05l8.1 2.93q.59.2.59.83 0 .29-.16.53-.16.22-.44.32l-8.1 2.92q-.17.07-.33-.04-.16-.12-.16-.3 0-.54.5-.7z" transform="translate(-1.12 12.32)"/><path d="M35.4-9.83c0-.5-.37-.8-.95-.8l-7.86-.01c-.58 0-.96.3-.96.8 0 .28.11.5.25.78l3.74 7.67c.29.6.55.77.9.77s.6-.18.9-.77l3.73-7.67c.14-.28.26-.5.26-.77zm-1.34.37-.01.05-3.5 7.24c0 .01 0 .03-.03.03-.02 0-.03-.02-.04-.03l-3.5-7.24-.01-.06c0-.02.02-.04.05-.04l7 .01c.03 0 .04.02.04.04z" transform="translate(-1.12 12.32)"/><path d="M38.2 1.23q-.19 0-.33-.14-.13-.13-.13-.32 0-.2.13-.34Q38 .3 38.2.3h8.26q.19 0 .32.14.14.15.14.34 0 .19-.14.32-.13.14-.32.14zm0-2.62q-.19 0-.33-.13-.13-.14-.13-.34 0-.19.13-.32.14-.14.33-.14h8.26q.19 0 .32.14.14.13.14.32 0 .2-.14.34-.13.13-.32.13zm.13-4.75q-.27-.1-.43-.32-.16-.24-.16-.53 0-.63.59-.83l8.1-2.93q.17-.07.33.05.16.1.16.28 0 .24-.14.44-.13.19-.35.27l-7.81 2.7q-.02 0-.02.02 0 .03.02.03l7.8 2.7q.5.16.5.7 0 .18-.16.3-.16.1-.33.04zM49.4.64q-.22 0-.33-.18-.12-.17-.04-.38l5.01-11.2q.13-.26.35-.4.24-.16.52-.16.22 0 .33.18.11.17.03.38l-5 11.2q-.13.26-.37.4-.23.16-.5.16zM56.59 2.24q-.18 0-.24-.16-.07-.16.06-.29 2.66-2.8 2.66-6.83t-2.66-6.83q-.11-.13-.05-.29.07-.16.23-.16.62 0 1.04.43 1.3 1.36 1.98 3.12.69 1.75.69 3.73T59.6-1.3q-.69 1.75-1.98 3.1-.42.44-1.04.44z" transform="translate(-1.12 12.32)"/></g></svg>