<svg xmlns="http://www.w3.org/2000/svg" width="275.27" height="61.38" viewBox="0 0 72.83 16.24"><g><path d="M4.83 2.24q-.64 0-1.04-.43Q1.12-1 1.12-5.04t2.67-6.85q.4-.43 1.04-.43.16 0 .23.16.08.16-.05.29-2.66 2.8-2.66 6.83t2.66 6.83q.11.13.05.29-.07.16-.23.16ZM11.8-11.89q.26.03.42.21.16.18.15.43-.26 4.74-1.3 7.4-1.04 2.63-3.1 4.04-.21.15-.45.05-.24-.08-.32-.3-.1-.28-.02-.52.1-.25.34-.43 1.73-1.26 2.6-3.63.86-2.37 1.08-6.72.02-.24.2-.38.17-.16.4-.15zM14.85 2.24q-.18 0-.24-.16-.07-.16.06-.29 2.66-2.8 2.66-6.83t-2.66-6.83q-.11-.13-.05-.29.07-.16.23-.16.62 0 1.04.43 1.3 1.36 1.98 3.12.69 1.75.69 3.73t-.69 3.74Q17.18.45 15.9 1.8q-.42.44-1.04.44zM22.78-12.35q-.36-.37-.88-.37-.5 0-.88.37-.36.37-.36.88t.36.9q.37.36.88.36.52 0 .88-.37.39-.38.39-.9 0-.5-.39-.87zm.7 2.45q-.66.65-1.58.65-.9 0-1.56-.65-.64-.66-.64-1.57t.64-1.55q.65-.66 1.56-.66.92 0 1.57.66.66.64.66 1.55t-.66 1.57zM30.78-1.18q-.03.03-.01.08.03.03.08.03h5.09q.12 0 .12-.13v-9.28q0-.13-.12-.13h-3.9q-.14 0-.14.13 0 3.78-.06 5.22T31.57-3q-.21.83-.79 1.8zm-1.45 3.56q-.18.18-.42.18t-.41-.18q-.16-.17-.16-.41V-.27q0-.32.22-.56.24-.24.56-.24.13 0 .18-.08.68-1 .92-1.8.26-.8.34-2.31.1-1.54.1-5.35v-.16q0-.37.25-.64.27-.27.64-.27h4.88q.37 0 .64.27t.27.64v9.57q0 .13.15.13h.29q.36 0 .62.27.27.27.27.64v2.13q0 .24-.17.41-.16.18-.4.18-.24 0-.42-.18-.18-.17-.18-.41V.13q0-.13-.12-.13h-7.73q-.15 0-.15.13v1.84q0 .24-.17.41zM42.56-12.35q-.37-.37-.88-.37t-.88.37q-.37.37-.37.88t.37.9q.37.36.88.36t.88-.37q.38-.38.38-.9 0-.5-.38-.87zm.69 2.45q-.66.65-1.57.65t-1.57-.65q-.64-.66-.64-1.57t.64-1.55q.66-.66 1.57-.66t1.57.66q.65.64.65 1.55t-.65 1.57zM52.22 2.24q-.64 0-1.04-.43-2.67-2.8-2.67-6.85t2.67-6.85q.4-.43 1.04-.43.16 0 .23.16.08.16-.05.29-2.66 2.8-2.66 6.83t2.66 6.83q.11.13.05.29-.07.16-.23.16zM63.54-1.78Q60.9-6.34 57.9-9.26q-.17-.18-.16-.42.02-.26.21-.42.21-.17.48-.16.29.02.5.21Q62.05-7 64.67-2.46q.13.24.07.5-.07.26-.3.4-.23.15-.5.09-.28-.07-.4-.3zM70.24 2.24q-.18 0-.24-.16t.06-.29q2.66-2.8 2.66-6.83t-2.66-6.83q-.1-.13-.04-.29.06-.16.22-.16.62 0 1.04.43 1.3 1.36 1.98 3.12.7 1.75.7 3.73t-.7 3.74q-.68 1.75-1.98 3.1-.42.44-1.04.44z" transform="translate(-1.12 13.68)"/></g></svg>