<svg xmlns="http://www.w3.org/2000/svg" width="322.14" height="55.03" viewBox="0 0 85.23 14.56"><g><path d="M4.83 2.24q-.64 0-1.04-.43Q1.12-1 1.12-5.04t2.67-6.85q.4-.43 1.04-.43.16 0 .23.16.08.16-.05.29-2.66 2.8-2.66 6.83t2.66 6.83q.11.13.05.29-.07.16-.23.16ZM6.05.64q-.23 0-.34-.18Q5.6.3 5.68.08l5-11.2q.14-.26.36-.4.24-.16.51-.16.23 0 .34.18.11.17.03.38l-5 11.2q-.14.26-.38.4-.22.16-.5.16zM12.7-4.48q-.22 0-.35-.2-.11-.18 0-.4l3.01-5.91q.16-.32.46-.5.3-.19.66-.19.35 0 .66.2.3.17.46.49l3 5.92q.12.2 0 .4-.12.19-.34.19-.3 0-.58-.16-.26-.16-.38-.43l-2.82-5.78v-.01.01l-2.82 5.78q-.12.27-.4.43-.25.16-.56.16zM23.12-4.08q-.2 0-.35-.14-.15-.16-.15-.37t.15-.35q.14-.15.35-.15h3.9q.21 0 .36.15.14.14.14.35 0 .2-.14.37-.15.14-.36.14zM30.11-4.48q-.22 0-.35-.2-.11-.18 0-.4l3-5.91q.17-.32.47-.5.3-.19.66-.19.35 0 .65.2.3.17.47.49l3 5.92q.12.2-.01.4-.11.19-.34.19-.3 0-.57-.16-.26-.16-.39-.43l-2.81-5.78v-.01.01l-2.82 5.78q-.13.27-.4.43-.25.16-.56.16zM43.42 2.24q-.64 0-1.04-.43-2.67-2.8-2.67-6.85t2.67-6.85q.4-.43 1.04-.43.16 0 .23.16.08.16-.05.29-2.66 2.8-2.66 6.83t2.66 6.83q.11.13.05.29-.07.16-.23.16zM44.75-4.48q-.22 0-.35-.2-.11-.18 0-.4l3-5.91q.17-.32.47-.5.3-.19.66-.19.35 0 .65.2.3.17.47.49l3 5.92q.12.2-.01.4-.11.19-.34.19-.3 0-.57-.16-.26-.16-.39-.43l-2.81-5.78v-.01.01L45.7-5.07q-.13.27-.4.43-.25.16-.56.16zM58.7-4.48q-.22 0-.35-.2-.11-.18 0-.4l3.01-5.91q.16-.32.46-.5.3-.19.66-.19.35 0 .66.2.3.17.46.49l3 5.92q.12.2 0 .4-.12.19-.34.19-.3 0-.58-.16-.26-.16-.38-.43l-2.82-5.78v-.01.01l-2.82 5.78q-.12.27-.4.43-.25.16-.56.16zM67.58-9q-.19-.06-.28-.23-.1-.2-.05-.4.06-.21.25-.3.21-.1.4-.02l2 .67q.05.02.08-.02.05-.03.05-.08l-.03-2.1q0-.23.14-.38.16-.14.37-.14.23 0 .37.14.14.15.14.37L71-9.38q0 .05.03.08.05.04.1.02l2-.67q.2-.08.4.01.2.1.26.3.06.22-.04.4-.1.18-.3.25l-2.03.62q-.03.02-.05.08-.02.05 0 .08l1.28 1.7q.13.17.1.38-.04.2-.21.32-.16.13-.39.1-.2-.05-.33-.21l-1.22-1.73q-.01-.03-.08-.03-.05 0-.08.03l-1.21 1.73q-.12.16-.34.2-.2.04-.38-.09-.16-.13-.21-.32-.03-.2.1-.38l1.27-1.7q.04-.03.02-.08-.02-.06-.06-.08zM75.12 2.24q-.18 0-.24-.16t.06-.29Q77.6-1 77.6-5.04t-2.66-6.83q-.1-.13-.04-.29.06-.16.22-.16.62 0 1.04.43 1.3 1.36 1.98 3.12.7 1.75.7 3.73t-.7 3.74q-.68 1.75-1.98 3.1-.42.44-1.04.44zM80.45.64q-.23 0-.34-.18Q80 .3 80.08.08l5-11.2q.14-.26.36-.4.24-.16.51-.16.23 0 .34.18.11.17.03.38l-5 11.2q-.14.26-.38.4-.22.16-.5.16z" transform="translate(-1.12 12.32)"/></g></svg>