<svg xmlns="http://www.w3.org/2000/svg" width="218.18" height="57.45" viewBox="0 0 57.73 15.2"><g><path d="M4.83 2.24q-.64 0-1.04-.43Q1.12-1 1.12-5.04t2.67-6.85q.4-.43 1.04-.43.16 0 .23.16.08.16-.05.29-2.66 2.8-2.66 6.83t2.66 6.83q.11.13.05.29-.07.16-.23.16ZM16.26-5.4v7.64h-.74v-7.63H12.1v7.63h-.74v-7.63H5.81v-.74h16v.74zM25.6.16q-1.23 0-2.08-1.09-.83-1.1-.83-2.99 0-2.11.88-3.84.29-.56.94-.56.21 0 .3.18.1.17 0 .35-.95 1.71-.95 3.79 0 1.5.54 2.34.56.83 1.33.83 1.73 0 1.73-4.08v-1.86q0-.24.17-.41.18-.18.42-.18t.41.18q.18.17.18.41v1.86q0 4.08 1.73 4.08.77 0 1.31-.83.56-.84.56-2.34 0-2.08-.96-3.8-.1-.17 0-.34.1-.18.3-.18.66 0 .95.56.88 1.73.88 3.84 0 1.89-.85 3Q31.73.15 30.5.15q-1.96 0-2.44-2.38l-.01-.02q-.02 0-.02.02Q27.55.16 25.6.16zM44.74-5.4v7.64H44v-7.63h-3.42v7.63h-.74v-7.63h-5.55v-.74h16v.74zM52.4-9.38l-1.7-2.88q-.12-.22 0-.46.13-.24.39-.24.37 0 .67.2.32.2.48.54l1.3 2.83q.08.16-.04.32-.1.16-.28.16-.53 0-.82-.47zM55.14 2.24q-.18 0-.24-.16-.07-.16.06-.29 2.66-2.8 2.66-6.83t-2.66-6.83q-.11-.13-.05-.29.07-.16.23-.16.62 0 1.04.43 1.3 1.36 1.98 3.12.69 1.75.69 3.73t-.69 3.74q-.69 1.75-1.98 3.1-.42.44-1.04.44z" transform="translate(-1.12 12.96)"/></g></svg>