<svg xmlns="http://www.w3.org/2000/svg" width="32.4" height="17.82" viewBox="0 0 32.4 17.82"><path d="M1.1 9.7q0-1.18.52-2.26.54-1.08 1.47-1.99A11.25 11.25 0 0 1 7.76 2.8a10 10 0 0 1 2.66-.37v1.2q-1.14 0-2.26.32A9.3 9.3 0 0 0 4.22 6.1q-.78.75-1.24 1.67-.43.9-.43 1.9 0 1.5.8 2.38t2.3.88q1.05 0 1.76-.4.7-.4 1.07-1.12t.38-1.7q0-1-.44-1.78a4 4 0 0 0-1.4-1.42 10 10 0 0 0-2.63-1.08q-.99-.26-1.64-.53a4 4 0 0 1-1.05-.6 2 2 0 0 1-.56-.73 3 3 0 0 1-.19-1H2.4q0 .33.13.58.11.25.37.45.28.21.77.39.49.2 1.28.4 1.45.38 2.47.93 1.02.53 1.67 1.2a4.4 4.4 0 0 1 1.23 3.19q0 1.3-.56 2.33a4 4 0 0 1-1.6 1.56 5 5 0 0 1-2.5.55 5 5 0 0 1-2.48-.55q-1.03-.57-1.54-1.56a5 5 0 0 1-.54-2.35M14.15 16.82l-.83-.6 2.32-2.71h1.07l2.3 2.72-.81.59-2.03-2.6ZM22.07 9.7q0-1.18.53-2.26t1.47-1.99a11.25 11.25 0 0 1 4.67-2.66 10 10 0 0 1 2.66-.37v1.2q-1.14 0-2.27.32A9.3 9.3 0 0 0 25.2 6.1q-.8.75-1.24 1.67-.45.9-.44 1.9 0 1.5.8 2.38.81.88 2.31.88 1.05 0 1.75-.4.72-.4 1.08-1.12.38-.73.38-1.7 0-1-.44-1.78A4 4 0 0 0 28 6.52a10 10 0 0 0-2.63-1.08q-.98-.26-1.64-.53a4 4 0 0 1-1.05-.6 2 2 0 0 1-.56-.73 3 3 0 0 1-.19-1h1.44q0 .33.12.58.1.25.38.45.27.21.76.39.5.2 1.28.4 1.46.38 2.47.93 1.04.53 1.67 1.2a4.4 4.4 0 0 1 1.24 3.19q0 1.3-.56 2.33a4 4 0 0 1-1.61 1.56 5 5 0 0 1-2.49.55 5 5 0 0 1-2.48-.55q-1.02-.57-1.55-1.56a5 5 0 0 1-.53-2.35m-1.1-12.79"/></svg>