<svg xmlns="http://www.w3.org/2000/svg" width="174.23" height="55.03" viewBox="0 0 46.1 14.56"><g><path d="M4.83 2.24q-.64 0-1.04-.43Q1.12-1 1.12-5.04t2.67-6.85q.4-.43 1.04-.43.16 0 .23.16.08.16-.05.29-2.66 2.8-2.66 6.83t2.66 6.83q.11.13.05.29-.07.16-.23.16Z" transform="translate(-1.12 12.32)"/><path d="M8.88-9.9q.37-.47.8-1.16.44-.69.69-1.2h1.58v.17q-.35.5-1.02 1.25-.68.74-1.18 1.14h-.87Z" transform="translate(-1.12 12.32)"/><path d="M23.54-9.52q-.96-1.25-2.79-1.25-1.82 0-2.8 1.25Q17-8.27 17-5.84t.96 3.68q.98 1.25 2.8 1.25 1.83 0 2.79-1.25.97-1.25.97-3.68t-.97-3.68zm.93 8.11Q23.12.16 20.75.16q-2.36 0-3.72-1.57-1.35-1.58-1.35-4.43 0-2.85 1.35-4.42 1.36-1.58 3.72-1.58 2.37 0 3.72 1.58 1.36 1.57 1.36 4.42 0 2.85-1.36 4.43z" transform="translate(-1.12 12.32)"/><path d="M35.91-9.45h-1.15l-1.73-2.2h1.84z" transform="translate(-1.12 12.32)"/><path d="M43.5 2.24q-.17 0-.23-.16-.07-.16.06-.29 2.66-2.8 2.66-6.83t-2.66-6.83q-.11-.13-.05-.29.07-.16.23-.16.62 0 1.04.43 1.3 1.36 1.98 3.12.69 1.75.69 3.73t-.69 3.74q-.69 1.75-1.98 3.1-.42.44-1.04.44z" transform="translate(-1.12 12.32)"/></g></svg>