<svg xmlns="http://www.w3.org/2000/svg" width="252.31" height="81.73" viewBox="0 0 66.76 21.63"><g><path d="M2.37-.36Q1.75.83 1.57 1.4q-.28.86-.28 1.98 0 1.13.32 2.07.2.58.76 1.66h-.46q-.57-.89-.71-1.14-.14-.24-.3-.66-.22-.58-.3-1.24-.05-.33-.05-.65 0-1.15.36-2.05.24-.58.96-1.72ZM11.21-1.85h-1.4L7.32-7.87 4.85-1.85h-1.4l3.2-7.59h1.32zM13.2-5.65q0-.51.24-.78t.68-.27q.45 0 .7.27.26.27.26.78 0 .5-.26.78t-.7.28q-.4 0-.67-.25-.25-.25-.25-.8zM17.5 3.18h-.8V.58h.8zm-1.63 0h-.8V.58h.8zM23.88-10.67l-2.5 2.29 2.28 2.6-.2.24-2.52-2.43L18.8-6l-.4-.27 2.22-1.99q-1-.97-2.39-2.1l1.22-.45q.82 1.11 1.67 2.1l2.47-2.22zM27.05-5.65q0-.51.25-.78.24-.27.68-.27.45 0 .7.27.26.27.26.78 0 .5-.26.78t-.7.28q-.4 0-.67-.25-.26-.25-.26-.8zM31.37 3.18h-.8V.58h.8zm-1.64 0h-.8V.58h.8zM38.67-1.85h-1.4l-2.49-6.02-2.47 6.02h-1.4l3.2-7.59h1.32zM44.6-12.16l-.33 3.09 3.1-.87.2 1.42-2.97.25 1.94 2.54-1.34.74-1.38-2.83-1.25 2.83-1.37-.74 1.89-2.54-2.95-.25.23-1.42 3.05.87-.33-3.09zM48.57 7.1q.63-1.2.8-1.76.28-.84.28-1.97t-.32-2.07q-.2-.57-.77-1.66h.47l.73 1.18q.13.23.28.63.19.48.26.96.08.47.08.92 0 1.15-.36 2.06-.23.58-.96 1.71zM55.76-2.56v-.59q1.17 0 2-.83.85-.85.85-2.02h.6q0 1.42-1.02 2.43-1.01 1-2.43 1ZM67.31-9.41h-.96q-.2-1.06-1.39-1.06-1.08 0-1.3 1.06h-.96q.24-2.03 2.3-2.03 2.07 0 2.31 2.03zM67.31-12.5h-.96q-.2-1.05-1.39-1.05-1.08 0-1.3 1.05h-.96q.24-2.02 2.3-2.02 2.07 0 2.31 2.02z" transform="translate(-.55 14.52)"/></g></svg>