<svg xmlns="http://www.w3.org/2000/svg" width="104.77" height="16.52" viewBox="0 0 104.77 16.52"><path d="M12.47 15.13q-3-2.82-3-6.9 0-4.06 3-6.87.4-.4 1.06-.4.17 0 .22.15.06.16-.05.26a9 9 0 0 0-3.01 6.86q0 4.04 3.01 6.88.1.09.05.25t-.22.16q-.67 0-1.06-.4M19.08 4.1q.37-.47.8-1.16a13 13 0 0 0 .68-1.2h1.58v.17q-.34.5-1.03 1.25-.67.74-1.17 1.14h-.86Zm6.81 6.2V9.1h3.84v1.2Zm10.63-6h-.86a12 12 0 0 1-2.2-2.4v-.17h1.58q.25.56.69 1.25.45.7.8 1.13ZM41.96 15.1q3.01-2.84 3.02-6.87 0-4.03-3.02-6.85-.1-.1-.05-.25.06-.18.22-.18.66 0 1.07.4 3 2.82 3 6.88 0 4.08-3 6.9-.42.38-1.07.39-.17 0-.23-.16a.2.2 0 0 1 .06-.25M56.8 13.17q0-.53.24-.8a1 1 0 0 1 .69-.26q.45 0 .7.27.27.26.27.8 0 .5-.27.77a1 1 0 0 1-.7.28 1 1 0 0 1-.66-.25q-.27-.24-.27-.8M64.36 10.95a1.4 1.4 0 0 0-1.05-.44q-.63 0-1.06.44-.44.42-.44 1.05 0 .62.44 1.06.43.44 1.06.44t1.05-.44q.44-.44.44-1.06t-.44-1.05m.69 2.8q-.7.7-1.74.71-1.02 0-1.75-.71a2.4 2.4 0 0 1-.72-1.74q0-1.03.72-1.73a2.4 2.4 0 0 1 1.75-.72q1.03 0 1.74.72.71.7.72 1.73 0 1.02-.72 1.74M76.64 9.7q0 2.1-1.06 3.28a3.7 3.7 0 0 1-2.9 1.18q-1.16 0-2.04-.54a3.6 3.6 0 0 1-1.37-1.54 5.4 5.4 0 0 1-.49-2.38q0-2.09 1.05-3.25a3.7 3.7 0 0 1 2.9-1.17q1.8 0 2.85 1.2 1.06 1.2 1.06 3.22m-6.51 0q0 1.65.65 2.5.66.87 1.92.86 1.28 0 1.94-.84.66-.86.66-2.52 0-1.62-.66-2.47t-1.95-.86q-1.27 0-1.92.85-.64.83-.64 2.48m18.9-1.43q0 2.75-1.4 4.32a4.9 4.9 0 0 1-3.84 1.57q-2.54 0-3.9-1.55-1.37-1.54-1.37-4.36 0-2.78 1.38-4.31 1.37-1.55 3.9-1.55 2.45 0 3.83 1.56 1.4 1.57 1.4 4.32m-9.1 0q0 2.33.98 3.53.99 1.18 2.88 1.18t2.86-1.18.97-3.53q0-2.3-.97-3.49-.96-1.2-2.85-1.2t-2.89 1.2q-.98 1.2-.98 3.49M102.47 15.13q-3-2.82-3-6.9 0-4.06 3-6.87.4-.4 1.06-.4.17 0 .22.15.06.16-.05.26a9 9 0 0 0-3.01 6.86q0 4.04 3.01 6.88.1.09.05.25t-.22.16q-.66 0-1.06-.4M90-3.2"/></svg>