<svg xmlns="http://www.w3.org/2000/svg" width="62.76" height="17.23" viewBox="0 0 62.76 17.23"><path d="M4.83 16.23q-.65 0-1.03-.42a9.5 9.5 0 0 1-2.67-6.84q0-4.06 2.67-6.86.38-.42 1.03-.42.15 0 .23.15.08.16-.04.28a9.5 9.5 0 0 0-2.66 6.83q0 4.05 2.66 6.85.1.12.03.28-.07.15-.22.15m5.46-4.48a1.4 1.4 0 0 0-1.04-.44q-.63 0-1.07.44-.43.42-.43 1.05 0 .62.43 1.06.45.44 1.07.44t1.04-.44q.45-.44.44-1.06 0-.63-.44-1.05m.69 2.8q-.7.71-1.73.72-1.02 0-1.75-.72a2.4 2.4 0 0 1-.72-1.74q0-1.03.72-1.73a2.4 2.4 0 0 1 1.75-.72q1.02 0 1.73.72.72.7.72 1.73 0 1.02-.72 1.74M18.6 11.42q-.36 0-.76-.06a2.3 2.3 0 0 1-1.34-.69 2.34 2.34 0 0 1-.69-1.34 5 5 0 0 1 0-1.53 2.4 2.4 0 0 1 2.03-2.03 5 5 0 0 1 1.53 0q.39.06.74.23t.6.45a2.3 2.3 0 0 1 .7 1.35 5 5 0 0 1 0 1.53q-.08.39-.24.73-.18.35-.46.61-.26.27-.6.46-.35.17-.74.23-.37.06-.76.06m-.2-6.69-.76-.67 2.11-2.31.94.83ZM24.4 15.1l7-4.47 7 4.48.44-1.02-7.43-4.76-7.46 4.76ZM44.2 11.42q-.37 0-.76-.06a2.3 2.3 0 0 1-1.35-.69 2.34 2.34 0 0 1-.69-1.34 5 5 0 0 1 0-1.53 2.4 2.4 0 0 1 2.04-2.03 5 5 0 0 1 1.53 0q.39.06.73.23t.61.45A2.3 2.3 0 0 1 47 7.8a5 5 0 0 1 0 1.53q-.06.39-.23.73-.18.35-.46.61-.27.27-.6.46-.35.17-.74.23-.37.06-.77.06m.23-6.69-2.3-2.15.94-.83 2.13 2.31ZM53.5 11.75a1.4 1.4 0 0 0-1.05-.44q-.63 0-1.07.44-.43.42-.43 1.05 0 .62.43 1.06.44.44 1.07.44.61 0 1.04-.44t.44-1.06-.44-1.05m.68 2.8q-.7.71-1.73.72-1.02 0-1.75-.72a2.4 2.4 0 0 1-.72-1.74q0-1.03.72-1.73a2.4 2.4 0 0 1 1.75-.72q1.02 0 1.73.72.72.7.72 1.73 0 1.02-.72 1.74m3.86 1.68q-.18 0-.24-.15t.07-.28a9.6 9.6 0 0 0 2.65-6.85q0-4.02-2.65-6.82a.3.3 0 0 1-.05-.29q.06-.15.22-.15.61 0 1.05.42 1.29 1.35 1.98 3.1.69 1.76.69 3.74 0 2-.69 3.75a10 10 0 0 1-1.98 3.11q-.44.42-1.05.42M49-3.2"/></svg>