<svg xmlns="http://www.w3.org/2000/svg" width="249.39" height="55.03" viewBox="0 0 65.98 14.56"><g><path d="M4.83 2.24q-.64 0-1.04-.43Q1.12-1 1.12-5.04t2.67-6.85q.4-.43 1.04-.43.16 0 .23.16.08.16-.05.29-2.66 2.8-2.66 6.83t2.66 6.83q.11.13.05.29-.07.16-.23.16ZM9.12.4q-.2 0-.3-.2-.1-.2.03-.36l8.7-11.2q.43-.56 1.14-.56.2 0 .3.2.1.2-.03.36l-8.7 11.2Q9.82.4 9.12.4ZM23.71 1.23q-.19 0-.33-.14-.13-.13-.13-.32 0-.2.13-.34.14-.14.33-.14h8.24q.2 0 .34.14.14.15.14.34 0 .19-.14.32-.15.14-.34.14zm0-2.62q-.19 0-.33-.13-.13-.14-.13-.34 0-.19.13-.32.14-.14.33-.14h8.24q.2 0 .34.14.14.13.14.32 0 .2-.14.34-.15.13-.34.13zm7.84-5.57q.02 0 .02-.03 0-.02-.02-.02l-7.8-2.7q-.23-.08-.37-.27-.13-.2-.13-.44 0-.19.16-.28.16-.12.33-.05l8.1 2.93q.6.2.6.83 0 .29-.17.53-.16.22-.43.32l-8.1 2.92q-.17.07-.33-.04-.16-.12-.16-.3 0-.54.5-.7zM37.66.16q-1.23 0-2.08-1.09-.83-1.1-.83-2.99 0-2.11.88-3.84.29-.56.95-.56.2 0 .3.18.1.17 0 .35-.96 1.71-.96 3.79 0 1.5.54 2.34.56.83 1.33.83 1.73 0 1.73-4.08v-1.86q0-.24.18-.41.17-.18.41-.18.24 0 .42.18.17.17.17.41v1.86q0 4.08 1.73 4.08.77 0 1.31-.83.56-.84.56-2.34 0-2.08-.96-3.8-.1-.17 0-.34.1-.18.3-.18.66 0 .95.56.88 1.73.88 3.84 0 1.89-.85 3Q43.8.15 42.56.15q-1.95 0-2.43-2.38 0-.02-.02-.02l-.01.02Q39.62.16 37.66.16zM59.23.4q-.7 0-1.13-.56l-8.7-11.2q-.14-.16-.04-.35.1-.21.3-.21.7 0 1.14.56l8.7 11.2q.13.16.04.35-.1.21-.3.21zM63.4 2.24q-.18 0-.25-.16-.06-.16.07-.29 2.65-2.8 2.65-6.83t-2.65-6.83q-.12-.13-.05-.29.06-.16.22-.16.63 0 1.04.43 1.3 1.36 1.99 3.12.68 1.75.68 3.73t-.68 3.74q-.7 1.75-1.99 3.1-.41.44-1.04.44z" transform="translate(-1.12 12.32)"/></g></svg>