<svg xmlns="http://www.w3.org/2000/svg" width="256.03" height="68.58" viewBox="0 0 67.74 18.15"><g><path d="M4.83 2.24q-.64 0-1.04-.43Q1.12-1 1.12-5.04t2.67-6.85q.4-.43 1.04-.43.16 0 .23.16.08.16-.05.29-2.66 2.8-2.66 6.83t2.66 6.83q.11.13.05.29-.07.16-.23.16ZM10.57-1.74q-.53-.1-.85-.51-.31-.41-.31-.95 0-.61.43-1.04.43-.43 1.04-.43.64 0 1.08.45.46.45.46 1.12 0 1.42-.77 2.33-.76.9-1.97.9-1.2 0-2.04-1.01Q6.8-1.9 6.8-3.4q0-1.66 1.18-2.74 1.19-1.09 2.88-1.09 1.7 0 2.89 1.09 1.18 1.08 1.18 2.75 0 1.72-.75 3.38h-1.62v-.08q.44-.62.7-1.52.27-.9.27-1.77 0-1.16-.75-1.86-.75-.7-1.92-.7-1.16 0-1.93.7-.75.7-.75 1.84 0 .94.44 1.6.45.64 1.06.64.71 0 .9-.6zm.34-.87q.24 0 .41-.16.18-.18.18-.42 0-.25-.17-.42-.17-.18-.42-.18-.24 0-.41.18-.18.17-.18.42 0 .24.18.42.17.16.41.16zM20.57-9.52q-.2-.13-.25-.38-.03-.26.14-.45.2-.21.47-.24.27-.05.5.11Q24.48-8.5 26-6.85q1.54 1.65 1.54 2.66 0 .86-.86 1.68-.87.81-2.56 1.45-.26.1-.52 0-.25-.1-.38-.33-.13-.21-.05-.43.1-.23.32-.3 2.72-1 2.72-2.07 0-.72-1.42-2.11-1.43-1.41-4.23-3.22zM35.7.16q-1.22 0-2.07-1.09-.83-1.1-.83-2.99 0-2.11.88-3.84.29-.56.94-.56.2 0 .3.18.1.17 0 .35-.95 1.71-.95 3.79 0 1.5.54 2.34.56.83 1.33.83 1.73 0 1.73-4.08v-1.86q0-.24.17-.41.18-.18.42-.18t.41.18q.18.17.18.41v1.86q0 4.08 1.73 4.08.77 0 1.3-.83.57-.84.57-2.34 0-2.08-.96-3.8-.1-.17 0-.34.1-.18.3-.18.66 0 .95.56.88 1.73.88 3.84 0 1.89-.85 3Q41.84.15 40.6.15q-1.96 0-2.44-2.38l-.01-.02q-.02 0-.02.02Q37.66.16 35.71.16zM50.58-6.9h-2.75v-9h2.75zM58.76-1.74q-.53-.1-.85-.51-.31-.41-.31-.95 0-.61.43-1.04.43-.43 1.04-.43.64 0 1.09.45.45.45.45 1.12 0 1.42-.77 2.33-.76.9-1.97.9-1.2 0-2.04-1.01-.84-1.01-.84-2.51 0-1.66 1.18-2.74 1.19-1.09 2.88-1.09 1.7 0 2.89 1.09 1.18 1.08 1.18 2.75 0 1.72-.75 3.38h-1.62v-.08q.44-.62.7-1.52.28-.9.28-1.77 0-1.16-.75-1.86-.75-.7-1.93-.7-1.16 0-1.93.7-.75.7-.75 1.84 0 .94.44 1.6.45.64 1.06.64.71 0 .9-.6zm.34-.87q.24 0 .41-.16.18-.18.18-.42 0-.25-.17-.42-.17-.18-.42-.18-.24 0-.41.18-.18.17-.18.42 0 .24.18.42.17.16.41.16zM65.15 2.24q-.18 0-.24-.16-.07-.16.06-.29 2.66-2.8 2.66-6.83t-2.66-6.83q-.11-.13-.05-.29.07-.16.23-.16.62 0 1.04.43 1.3 1.36 1.98 3.12.69 1.75.69 3.73t-.69 3.74Q67.48.45 66.2 1.8q-.42.44-1.04.44z" transform="translate(-1.12 15.9)"/></g></svg>