<svg xmlns="http://www.w3.org/2000/svg" width="61.73" height="17.23" viewBox="0 0 61.73 17.23"><path d="M4.83 16.23q-.65 0-1.03-.42a9.5 9.5 0 0 1-2.67-6.84q0-4.06 2.67-6.86.38-.42 1.03-.42.15 0 .23.15.08.16-.04.28a9.5 9.5 0 0 0-2.66 6.83q0 4.05 2.66 6.85.1.12.03.28-.07.15-.22.15m1.2-1.59a.4.4 0 0 1-.32-.19.4.4 0 0 1-.03-.37l5-11.2q.14-.25.36-.41.24-.16.51-.16.22 0 .33.19.1.18.03.38l-5 11.2a1 1 0 0 1-.36.4 1 1 0 0 1-.51.16m8.55.6a.5.5 0 0 1-.33-.15.5.5 0 0 1-.14-.32.5.5 0 0 1 .14-.35q.14-.14.33-.14h8.23q.2 0 .35.14t.14.35q0 .18-.14.32t-.35.14Zm0-2.63a.5.5 0 0 1-.33-.13.5.5 0 0 1-.14-.32q0-.21.14-.33.14-.14.33-.14h8.23q.2 0 .35.14.14.13.14.33 0 .18-.14.32a.5.5 0 0 1-.35.13Zm7.84-5.56q.02 0 .02-.03l-.02-.04-7.81-2.7a.7.7 0 0 1-.5-.7.3.3 0 0 1 .16-.28.4.4 0 0 1 .34-.05l8.1 2.92q.59.22.59.85 0 .28-.18.51a1 1 0 0 1-.42.33l-8.1 2.92a.4.4 0 0 1-.33-.05.3.3 0 0 1-.16-.3q0-.51.5-.68ZM30.7 13.8l-4.72-9.85V3.9h9.5v.06l-4.71 9.85Zm.03-2.08 3.25-6.94h-6.5ZM38.64 15.23a.5.5 0 0 1-.33-.14.5.5 0 0 1-.14-.32.5.5 0 0 1 .14-.35q.14-.14.33-.14h8.25q.2 0 .33.14.15.15.14.35 0 .18-.14.32t-.33.14Zm0-2.62a.5.5 0 0 1-.33-.13.5.5 0 0 1-.14-.32q0-.21.14-.33.14-.14.33-.14h8.25q.2 0 .33.14.15.13.14.33 0 .18-.14.32a.4.4 0 0 1-.33.13Zm.13-4.75a1 1 0 0 1-.44-.33 1 1 0 0 1-.16-.51q0-.63.6-.85l8.09-2.92a.4.4 0 0 1 .33.05.3.3 0 0 1 .17.28.7.7 0 0 1-.14.44.7.7 0 0 1-.36.26l-7.81 2.7-.02.04q0 .03.02.03l7.8 2.7q.5.16.5.69 0 .18-.16.3a.3.3 0 0 1-.33.04Zm11.06 6.78a.4.4 0 0 1-.33-.19.4.4 0 0 1-.03-.37l5-11.2q.14-.25.36-.41.23-.16.51-.16.22 0 .33.19.1.18.03.38l-5 11.2a1 1 0 0 1-.36.4 1 1 0 0 1-.51.16m7.19 1.6q-.18 0-.24-.16-.06-.15.06-.28a9.6 9.6 0 0 0 2.66-6.85q0-4.02-2.66-6.82a.3.3 0 0 1-.04-.29q.06-.15.22-.15.62 0 1.04.42 1.3 1.35 1.99 3.1.68 1.76.68 3.74 0 2-.68 3.75a10 10 0 0 1-1.99 3.11q-.42.42-1.04.42M36.73-3.2"/></svg>