<svg xmlns="http://www.w3.org/2000/svg" width="186.62" height="55.03" viewBox="0 0 49.38 14.56"><g><path d="M4.83 2.24q-.64 0-1.04-.43Q1.12-1 1.12-5.04t2.67-6.85q.4-.43 1.04-.43.16 0 .23.16.08.16-.05.29-2.66 2.8-2.66 6.83t2.66 6.83q.11.13.05.29-.07.16-.23.16ZM6.53-9q-.2-.06-.29-.23-.1-.2-.05-.4.07-.21.26-.3.2-.1.4-.02l2 .67q.05.02.08-.02.05-.03.05-.08l-.04-2.1q0-.23.15-.38.16-.14.37-.14.22 0 .36.14.15.15.15.37l-.03 2.11q0 .05.03.08.05.04.1.02l2-.67q.2-.08.4.01.2.1.25.3.06.22-.03.4-.1.18-.3.25l-2.04.62q-.03.02-.05.08v.08l1.28 1.7q.13.17.1.38-.03.2-.2.32-.17.13-.4.1-.2-.05-.33-.21L9.54-7.65q-.02-.03-.08-.03-.05 0-.08.03L8.16-5.92q-.11.16-.34.2-.2.04-.38-.09-.16-.13-.2-.32-.04-.2.09-.38l1.28-1.7q.03-.03.01-.08-.01-.06-.06-.08zM14.94-10.29q-.2 0-.35-.13-.13-.14-.13-.35 0-.2.13-.33.15-.15.35-.15h4.58q.2 0 .34.15.14.12.14.33 0 .21-.14.35-.13.13-.34.13zM26.72-10.29q-.2 0-.35-.13-.13-.14-.13-.35 0-.2.13-.33.14-.15.35-.15h4.58q.2 0 .33.15.15.12.15.33 0 .21-.15.35-.13.13-.33.13zM33.94-9q-.2-.06-.3-.23-.09-.2-.04-.4.06-.21.26-.3.2-.1.4-.02l2 .67q.04.02.08-.02.04-.03.04-.08l-.03-2.1q0-.23.15-.38.16-.14.36-.14.23 0 .37.14.15.15.15.37l-.04 2.11q0 .05.04.08.04.04.1.02l2-.67q.2-.08.4.01.2.1.25.3.06.22-.03.4-.1.18-.3.25l-2.04.62q-.03.02-.05.08v.08L39-6.5q.13.17.1.38-.03.2-.21.32-.16.13-.38.1-.21-.05-.34-.21l-1.22-1.73q-.01-.03-.08-.03-.04 0-.08.03l-1.21 1.73q-.11.16-.34.2-.2.04-.38-.09-.16-.13-.21-.32-.03-.2.1-.38l1.28-1.7q.03-.03.01-.08-.01-.06-.06-.08zM42.37 1.76q-.21 0-.35-.18-.13-.17-.07-.38l.77-2.62q.1-.34.38-.55.3-.22.66-.22.29 0 .45.24.16.24.05.51l-1.08 2.66q-.1.25-.32.4-.22.14-.5.14zm.72-9.97q.22-.22.53-.22.32 0 .52.22.23.21.23.53v.69q0 .3-.23.53-.2.22-.52.22-.3 0-.53-.22-.23-.23-.23-.53v-.69q0-.32.23-.53zM46.78 2.24q-.17 0-.24-.16-.06-.16.07-.29 2.65-2.8 2.65-6.83t-2.65-6.83q-.11-.13-.05-.29.06-.16.22-.16.63 0 1.04.43 1.3 1.36 1.99 3.12.69 1.75.69 3.73t-.7 3.74q-.68 1.75-1.98 3.1-.41.44-1.04.44z" transform="translate(-1.12 12.32)"/></g></svg>