<svg xmlns="http://www.w3.org/2000/svg" width="68.18" height="17.23" viewBox="0 0 68.18 17.23"><path d="M4.83 16.23q-.65 0-1.03-.42a9.5 9.5 0 0 1-2.67-6.84q0-4.06 2.67-6.86.38-.42 1.03-.42.15 0 .23.15.08.16-.04.28a9.5 9.5 0 0 0-2.66 6.83q0 4.05 2.66 6.85.1.12.03.28-.07.15-.22.15m1.7-11.21a.5.5 0 0 1-.3-.25.6.6 0 0 1-.04-.4.5.5 0 0 1 .26-.3.5.5 0 0 1 .4-.02l2 .67q.04.01.07-.02.05-.03.05-.08l-.03-2.1q0-.24.15-.38.16-.15.36-.14.23 0 .36.14.15.15.16.38l-.03 2.1q0 .05.03.08a.1.1 0 0 0 .1.02l2-.67a.5.5 0 0 1 .4.01q.2.1.25.32.06.2-.03.39a.5.5 0 0 1-.3.25l-2.05.6q-.04.03-.04.08v.1l1.28 1.68q.14.18.1.38a.5.5 0 0 1-.21.33.5.5 0 0 1-.38.1.6.6 0 0 1-.34-.21L9.53 6.36q-.02-.05-.08-.05t-.07.05L8.15 8.08a.5.5 0 0 1-.72.1.6.6 0 0 1-.2-.32.5.5 0 0 1 .09-.38L8.6 5.8q.02-.03.02-.1-.03-.05-.07-.08ZM16.58 4.1q.38-.47.8-1.16a13 13 0 0 0 .69-1.2h1.57v.17q-.34.5-1.03 1.25-.67.74-1.17 1.14h-.86ZM35.54 12.25v3.13h2.64V9.77h-10.6v2.48Zm2.1-1.97v4.56h-1.59v-3.1h-7.94v-1.46ZM47.99 4.31h-1q-1.2-1.06-2.13-2.43v-.13h1.75q.63 1.38 1.38 2.31ZM55.94 5.02a.5.5 0 0 1-.3-.25.6.6 0 0 1-.04-.4.5.5 0 0 1 .26-.3.5.5 0 0 1 .4-.02l2 .67q.04.01.07-.02.05-.03.05-.08l-.03-2.1q0-.24.15-.38.16-.15.36-.14.22 0 .36.14.16.15.16.38l-.03 2.1q0 .05.03.08a.1.1 0 0 0 .1.02l2-.67a.5.5 0 0 1 .4.01q.2.1.25.32.06.2-.03.39a.5.5 0 0 1-.3.25l-2.05.6q-.04.03-.04.08v.1l1.28 1.68q.14.18.1.38a.5.5 0 0 1-.21.33.5.5 0 0 1-.38.1.6.6 0 0 1-.34-.21l-1.22-1.72q-.02-.05-.08-.05t-.07.05l-1.22 1.72a.5.5 0 0 1-.72.1.6.6 0 0 1-.2-.32.5.5 0 0 1 .09-.38l1.28-1.68q.02-.03.02-.1-.03-.05-.07-.08Zm7.52 11.21q-.17 0-.23-.15t.06-.28a9.6 9.6 0 0 0 2.66-6.85q0-4.02-2.66-6.82a.3.3 0 0 1-.04-.29q.05-.15.21-.15.63 0 1.05.42 1.3 1.35 1.99 3.1.68 1.76.68 3.74 0 2-.68 3.75a10 10 0 0 1-1.99 3.11q-.42.42-1.05.42M54.74-3.2"/></svg>