<svg xmlns="http://www.w3.org/2000/svg" width="51.49" height="17.23" viewBox="0 0 51.49 17.23"><path d="M4.83 16.23q-.65 0-1.03-.42a9.5 9.5 0 0 1-2.67-6.84q0-4.06 2.67-6.86.38-.42 1.03-.42.15 0 .23.15.08.16-.04.28a9.5 9.5 0 0 0-2.66 6.83q0 4.05 2.66 6.85.1.12.03.28-.07.15-.22.15m1.7-11.21a.5.5 0 0 1-.3-.25.6.6 0 0 1-.04-.4.5.5 0 0 1 .26-.3.5.5 0 0 1 .4-.02l2 .67q.04.01.07-.02.05-.03.05-.08l-.03-2.1q0-.24.15-.38.16-.15.36-.14.23 0 .36.14.15.15.16.38l-.03 2.1q0 .05.03.08a.1.1 0 0 0 .1.02l2-.67a.5.5 0 0 1 .4.01q.2.1.25.32.06.2-.03.39a.5.5 0 0 1-.3.25l-2.05.6q-.04.03-.04.08v.1l1.28 1.68q.14.18.1.38a.5.5 0 0 1-.21.33.5.5 0 0 1-.38.1.6.6 0 0 1-.34-.21L9.53 6.36q-.02-.05-.08-.05t-.07.05L8.15 8.08a.5.5 0 0 1-.72.1.6.6 0 0 1-.2-.32.5.5 0 0 1 .09-.38L8.6 5.8q.02-.03.02-.1-.03-.05-.07-.08Zm8.41-1.3a.5.5 0 0 1-.34-.14.5.5 0 0 1-.14-.35q0-.2.14-.34t.34-.14h4.58q.2 0 .34.14t.14.34-.14.35-.34.14Zm11.78 0a.5.5 0 0 1-.34-.14.5.5 0 0 1-.15-.35q0-.2.14-.34t.35-.14h4.58q.2 0 .34.14t.14.34-.14.35q-.15.15-.34.14Zm7.22 1.3a.5.5 0 0 1-.3-.25.6.6 0 0 1-.05-.4.5.5 0 0 1 .27-.3.5.5 0 0 1 .39-.02l2 .67q.04.01.08-.02.05-.03.05-.08l-.04-2.1q0-.24.16-.38.15-.15.36-.14.22 0 .36.14.16.15.16.38l-.04 2.1q0 .05.03.08a.1.1 0 0 0 .1.02l2-.67a.5.5 0 0 1 .4.01q.2.1.26.32.05.2-.04.39a.5.5 0 0 1-.3.25l-2.04.6q-.03.03-.05.08v.1l1.28 1.68q.15.18.1.38a.5.5 0 0 1-.2.33.5.5 0 0 1-.38.1.6.6 0 0 1-.34-.21l-1.22-1.72q-.02-.05-.08-.05t-.08.05l-1.22 1.72a.5.5 0 0 1-.72.1.6.6 0 0 1-.2-.32.5.5 0 0 1 .1-.38l1.28-1.68q.03-.03.01-.1-.02-.05-.06-.08Zm8.43 10.75a.4.4 0 0 1-.36-.2.4.4 0 0 1-.06-.37l.76-2.62q.1-.34.4-.55t.65-.22a.5.5 0 0 1 .44.24q.17.23.05.51l-1.07 2.66a.8.8 0 0 1-.32.39q-.22.16-.49.16m.7-9.99a.8.8 0 0 1 1.08 0q.22.23.22.53v.7q0 .3-.22.54a.7.7 0 0 1-.53.22.74.74 0 0 1-.77-.75v-.7q0-.31.22-.54m3.7 10.45q-.18 0-.23-.15t.06-.28a9.6 9.6 0 0 0 2.66-6.85q0-4.02-2.66-6.82a.3.3 0 0 1-.05-.29q.06-.15.22-.15.63 0 1.05.42 1.29 1.35 1.98 3.1.7 1.76.7 3.74 0 2-.7 3.75a10 10 0 0 1-1.98 3.11q-.42.42-1.05.42M0-3.2"/></svg>