<svg xmlns="http://www.w3.org/2000/svg" width="26.67" height="16.77" viewBox="0 0 26.67 16.77"><path d="M1.78 15.77a.4.4 0 0 1-.36-.2.4.4 0 0 1-.06-.37l.76-2.62q.1-.34.4-.55t.65-.22a.5.5 0 0 1 .44.24q.17.23.05.51l-1.07 2.66a.8.8 0 0 1-.32.39q-.22.16-.49.16m.7-9.99a.8.8 0 0 1 1.08 0q.22.23.22.53v.7q0 .3-.22.54a.7.7 0 0 1-.53.22.74.74 0 0 1-.77-.75v-.7q0-.31.22-.54m9.41 4.14a.5.5 0 0 1-.35-.15.5.5 0 0 1-.15-.36q0-.2.15-.35.13-.15.35-.15h3.91q.2 0 .34.15t.15.35q0 .2-.15.36-.13.15-.34.15Zm11.78 5.85a.4.4 0 0 1-.36-.2.4.4 0 0 1-.06-.37l.77-2.62q.09-.34.39-.55t.65-.22a.5.5 0 0 1 .44.24q.17.23.05.51l-1.07 2.66a.8.8 0 0 1-.32.39q-.22.16-.49.16m.7-9.99a.8.8 0 0 1 1.08 0q.22.23.22.53v.7q0 .3-.22.54a.7.7 0 0 1-.53.22.74.74 0 0 1-.77-.75v-.7q0-.31.23-.54M0-3.2"/></svg>