<svg xmlns="http://www.w3.org/2000/svg" width="305.99" height="63.01" viewBox="0 0 80.96 16.67"><g><path d="M9.94.93q0 1.15-.87 1.93-.86.8-2.05.8-1.68 0-2.72-.84l.61-1.04q.69.67 2.02.67 1.61 0 1.61-1.59 0-1.42-1.7-1.42H5.38V-1.7h1.43q1.72 0 1.72-1.07t-1.7-1.07h-1.2v-1.14h1.18q1.72 0 1.72-1.28 0-1.47-2.22-1.47-1.78 0-2.78 1.14-.9 1.07-.93 2.81 0 1.64.93 3.64L2.37.2q-.95-2.03-.95-3.97v-.1q0-2.25 1.28-3.66 1.28-1.4 3.6-1.4 1.35 0 2.4.62 1.24.75 1.24 2 0 1.4-1 1.84 1 .38 1 1.7 0 1.26-1 1.62 1 .53 1 2.07zM13.09 0h-1.23v-10.48q0-1.3-1.25-1.31-.53 0-.91.4-.39.38-.39.91t.18.96H8.2q-.1-.53-.1-.98 0-1.1.69-1.8t1.8-.7q1.1 0 1.78.65.7.64.7 1.71zm5.07 2.24q-.64 0-1.04-.43-2.67-2.8-2.67-6.85t2.67-6.85q.4-.43 1.04-.43.16 0 .22.16.08.16-.04.29-2.66 2.8-2.66 6.83t2.66 6.83q.1.13.04.29-.06.16-.22.16zm3.1-8.3-1.39-1.68q-.14-.16-.05-.37.1-.21.32-.21.77 0 1.19.62L22.4-6.1q.1.14.02.3-.08.16-.26.16-.54 0-.9-.41zM23-8.32q.77 0 1.19.62l1.08 1.59q.1.14.02.3-.08.16-.26.16-.54 0-.9-.41l-1.4-1.68q-.14-.16-.05-.37.11-.21.32-.21z" transform="translate(-1.42 13)"/><path d="M33.5-3.55c1.22 0 2.05-.87 2.05-2.05 0-1.18-.83-2.05-2.05-2.05-1.21 0-2.04.87-2.04 2.05 0 1.18.83 2.05 2.04 2.05zm5.67-5.41.59-.46-1.66-2.5-1.01.82z" transform="translate(-1.42 13)"/><path d="M49.23-4.3q0 1.32-.48 2.32-.46.99-1.39 1.55-.91.54-2.26.54-1.39 0-2.32-.54-.9-.56-1.36-1.55-.44-1.01-.44-2.32h1.48q0 1.52.64 2.4.64.88 2 .88 1.38 0 2-.88.64-.88.64-2.4zm7.04.22q-.2 0-.35-.14-.14-.16-.14-.37t.14-.35q.14-.15.35-.15h3.9q.21 0 .36.15.14.14.14.35 0 .2-.14.37-.15.14-.35.14zM68.4-6.06 67-7.74q-.14-.16-.04-.37t.32-.21q.77 0 1.18.62l1.08 1.59q.1.14.01.3-.08.16-.25.16-.55 0-.9-.41zm1.73-2.26q.77 0 1.18.62L72.4-6.1q.1.14.02.3-.08.16-.26.16-.54 0-.9-.41l-1.4-1.68q-.15-.16-.05-.37.11-.21.32-.21zm8.54 10.56q-.17 0-.24-.16-.06-.16.07-.29 2.65-2.8 2.65-6.83t-2.65-6.83q-.12-.13-.05-.29.06-.16.22-.16.63 0 1.04.43 1.3 1.36 1.99 3.12.68 1.75.68 3.73T81.7-1.3Q81 .45 79.7 1.8q-.41.44-1.04.44z" transform="translate(-1.42 13)"/></g></svg>