<svg xmlns="http://www.w3.org/2000/svg" width="70.89" height="17.23" viewBox="0 0 70.89 17.23"><path d="M4.83 16.23q-.65 0-1.03-.42a9.5 9.5 0 0 1-2.67-6.84q0-4.06 2.67-6.86.38-.42 1.03-.42.15 0 .23.15.08.16-.04.28a9.5 9.5 0 0 0-2.66 6.83q0 4.05 2.66 6.85.1.12.03.28-.07.15-.22.15M10.26 10.72q0 .27.17.42.18.16.44.16.27 0 .42-.16.17-.15.17-.42a.6.6 0 0 0-.17-.44.6.6 0 0 0-.42-.17.6.6 0 0 0-.44.17q-.17.15-.17.44m5.14.14q0 .58-.1 1.06a4 4 0 0 1-.76 1.56q-.24.3-.53.57l-.8-.85a3 3 0 0 0 .88-1.6q.08-.33.08-.7 0-.72-.25-1.3-.26-.58-.67-1-.42-.4-.97-.62a3.35 3.35 0 0 0-2.31-.02 2.7 2.7 0 0 0-1.63 1.5q-.23.56-.23 1.26 0 .6.15 1.08.18.46.44.76.29.3.62.47.36.16.72.16t.66-.11q.3-.13.5-.33a1.6 1.6 0 0 0 .42-1.12q-.15.16-.39.3-.25.12-.53.12-.25 0-.49-.08a1 1 0 0 1-.4-.25 1 1 0 0 1-.28-.42q-.1-.25-.1-.58t.11-.58.3-.4q.18-.17.44-.26.25-.09.58-.09.43 0 .78.16.35.15.59.43.24.3.38.68t.14.86q0 .53-.18 1.01a2.4 2.4 0 0 1-1.37 1.4q-.5.21-1.16.21-.7 0-1.3-.23a3 3 0 0 1-1-.7q-.42-.45-.67-1.09a4.3 4.3 0 0 1 .07-3.03q.3-.71.86-1.23.56-.53 1.34-.83a5 5 0 0 1 3.52.02q.8.3 1.35.84.57.55.88 1.31.3.75.31 1.66M21.09 4.48a.5.5 0 0 1-.25-.37.6.6 0 0 1 .14-.47.7.7 0 0 1 .45-.23q.3-.06.5.1a24 24 0 0 1 4.6 3.65q1.53 1.64 1.53 2.65 0 .87-.86 1.67a8 8 0 0 1-2.56 1.46.6.6 0 0 1-.52 0 .7.7 0 0 1-.37-.33.5.5 0 0 1-.05-.42.5.5 0 0 1 .31-.31q2.72-1 2.72-2.07 0-.71-1.42-2.12-1.43-1.4-4.22-3.2m15.14 9.68q-1.23 0-2.08-1.1a4.8 4.8 0 0 1-.84-2.98q0-2.1.89-3.85.28-.54.94-.54.2 0 .3.17t0 .34a7.6 7.6 0 0 0-.96 3.8q0 1.5.55 2.34t1.33.83q1.71 0 1.71-4.08V7.23q0-.24.18-.42a.6.6 0 0 1 .42-.17.6.6 0 0 1 .6.6v1.85q0 4.08 1.73 4.08.75 0 1.3-.83a4 4 0 0 0 .57-2.34q0-2.07-.97-3.8a.3.3 0 0 1 0-.34q.1-.17.31-.17.66 0 .94.54.88 1.74.88 3.85 0 1.9-.85 2.98a2.5 2.5 0 0 1-2.06 1.1q-1.95 0-2.44-2.38l-.01-.01-.02.01q-.47 2.38-2.42 2.38M50.85 7.56h-2.28v-9.22h2.28ZM58.96 10.72q0 .27.18.42.16.16.43.16t.43-.16q.16-.15.17-.42a.6.6 0 0 0-.17-.44.6.6 0 0 0-.43-.17.6.6 0 0 0-.43.17q-.18.15-.18.44m5.15.14q0 .58-.11 1.06a4 4 0 0 1-.75 1.56q-.26.3-.54.57l-.8-.85a3 3 0 0 0 .88-1.6q.08-.33.08-.7 0-.72-.25-1.3t-.67-1q-.41-.4-.97-.62a3.35 3.35 0 0 0-2.31-.02 2.7 2.7 0 0 0-1.63 1.5q-.23.56-.23 1.26 0 .6.15 1.08.17.46.44.76.28.3.63.47t.72.16q.35 0 .65-.11.3-.13.5-.33a1.6 1.6 0 0 0 .42-1.12q-.14.16-.39.3-.24.12-.53.12-.26 0-.48-.08a1 1 0 0 1-.4-.25 1 1 0 0 1-.29-.42q-.1-.25-.1-.58t.12-.58.3-.4q.18-.17.43-.26.27-.09.58-.09.44 0 .78.16.36.15.6.43.24.3.37.68.14.38.14.86 0 .53-.17 1.01a2.4 2.4 0 0 1-1.38 1.4q-.5.21-1.15.21-.7 0-1.3-.23a3 3 0 0 1-1-.7q-.42-.45-.67-1.09a4.3 4.3 0 0 1 .06-3.03q.31-.71.86-1.23.56-.53 1.34-.83a5 5 0 0 1 3.52.02q.8.3 1.36.84.55.55.87 1.31.32.75.32 1.66M66.17 16.23q-.18 0-.24-.15t.07-.28a9.6 9.6 0 0 0 2.65-6.85q0-4.02-2.65-6.82a.3.3 0 0 1-.05-.29q.06-.15.22-.15.62 0 1.04.42 1.3 1.35 1.99 3.1.69 1.76.69 3.74 0 2-.7 3.75a10 10 0 0 1-1.98 3.11q-.42.42-1.04.42M65.14-3.2"/></svg>