<svg xmlns="http://www.w3.org/2000/svg" width="108.97" height="56.95" viewBox="0 0 28.83 15.07"><g><path d="M1.09-4.3q0-1.28.62-2.44.64-1.16 1.7-2.1-.93-.33-1.46-.66-.51-.36-.75-.8-.22-.47-.24-1.12h1.42q.02.41.2.7.17.29.62.53.46.22 1.31.48 1.3-.87 2.83-1.36 1.54-.51 3.08-.51v1.21q-1.12 0-2.24.3-1.1.3-2.08.82 2.24.8 3.23 2.07.99 1.26.99 2.9 0 1.3-.58 2.31Q9.18-.96 8.14-.4T5.66.16Q4.21.16 3.18-.4 2.16-.96 1.62-1.95q-.53-1.01-.53-2.35Zm1.45-.02q0 1.5.8 2.38.82.88 2.32.88 1.56 0 2.37-.88.83-.88.83-2.35 0-1.4-.9-2.43-.9-1.02-3.11-1.71-1.04.81-1.68 1.87-.63 1.06-.63 2.24z" transform="translate(-.96 11.58)"/><path d="M13.56 3.48c.2 0 .3-.07.49-.28l1.3-1.38h.05l1.3 1.38c.2.2.3.28.5.28.26 0 .47-.2.47-.43 0-.16-.05-.25-.17-.37l-1.44-1.52c-.23-.25-.43-.34-.68-.34-.26 0-.45.1-.68.34l-1.44 1.51c-.12.13-.17.21-.17.37 0 .23.2.44.47.44z" transform="translate(-.96 11.58)"/><path d="M20.46-4.3q0-1.28.63-2.44.64-1.16 1.7-2.1-.93-.33-1.46-.66-.51-.36-.75-.8-.23-.47-.24-1.12h1.42q.02.41.2.7.17.29.62.53.46.22 1.3.48 1.3-.87 2.84-1.36 1.54-.51 3.07-.51v1.21q-1.12 0-2.24.3-1.1.3-2.08.82 2.24.8 3.23 2.07 1 1.26 1 2.9 0 1.3-.58 2.31-.56 1.01-1.6 1.57t-2.48.56q-1.46 0-2.48-.56t-1.57-1.55q-.53-1.01-.53-2.35zm1.46-.02q0 1.5.8 2.38.82.88 2.32.88 1.55 0 2.37-.88.83-.88.83-2.35 0-1.4-.91-2.43-.9-1.02-3.1-1.71-1.05.81-1.69 1.87-.62 1.06-.62 2.24z" transform="translate(-.96 11.58)"/></g></svg>