<svg xmlns="http://www.w3.org/2000/svg" width="84.69" height="17.23" viewBox="0 0 84.69 17.23"><path d="M6.56 14.08a24 24 0 0 1-.51-2.78q-.16-1.4-.27-2.66a5 5 0 0 1-1.51.22q-1.25.02-2.07-.64a2.3 2.3 0 0 1-.8-1.9A3.3 3.3 0 0 1 2.74 3.6q.64-.47 1.48-.47t1.33.4q.5.37.77 1.04.28.66.4 1.5.15.84.22 1.78.1.97.17 2.03.1 1.06.24 2.1.15 1.02.4 1.88ZM2.61 6.13q0 .75.52 1.12.52.36 1.35.36.57 0 1.18-.16-.15-1.43-.49-2.23t-1.1-.8q-.44 0-.77.27-.33.25-.52.65-.17.42-.17.79M13.98 16.23q-.64 0-1.03-.42a9.5 9.5 0 0 1-2.67-6.84q0-4.06 2.67-6.86.39-.42 1.03-.42.15 0 .23.15.08.16-.04.28a9.5 9.5 0 0 0-2.66 6.83q0 4.05 2.66 6.85.1.12.03.28-.06.15-.22.15M19.41 10.72q0 .27.18.42.16.16.43.16t.43-.16q.16-.15.17-.42a.6.6 0 0 0-.17-.44.6.6 0 0 0-.43-.17.6.6 0 0 0-.43.17q-.18.15-.18.44m5.14.14q0 .58-.1 1.06a4 4 0 0 1-.75 1.56q-.26.3-.54.57l-.8-.85a3 3 0 0 0 .88-1.6q.08-.33.08-.7 0-.72-.25-1.3t-.67-1q-.41-.4-.97-.62a3.35 3.35 0 0 0-2.31-.02 2.7 2.7 0 0 0-1.63 1.5q-.23.56-.23 1.26 0 .6.15 1.08.18.46.44.76.29.3.63.47t.72.16q.35 0 .65-.11.3-.13.5-.33a1.6 1.6 0 0 0 .42-1.12q-.13.16-.39.3-.25.12-.53.12-.25 0-.48-.08a1 1 0 0 1-.4-.25 1 1 0 0 1-.29-.42q-.1-.25-.1-.58t.12-.58.3-.4q.18-.17.43-.26.27-.09.58-.09.44 0 .78.16.36.15.6.43.24.3.37.68.15.38.14.86 0 .53-.17 1.01a2.4 2.4 0 0 1-1.38 1.4q-.5.21-1.15.21-.7 0-1.3-.23a3 3 0 0 1-1-.7q-.42-.45-.67-1.09a4.3 4.3 0 0 1 .06-3.03q.31-.71.86-1.23.56-.53 1.34-.83a5 5 0 0 1 3.52.02q.8.3 1.36.84.55.55.87 1.31.3.75.31 1.66M27.62 12.38l6.78-3 .01-.02-.01-.02-6.78-2.98a.8.8 0 0 1-.52-.81q0-.21.17-.3a.4.4 0 0 1 .35-.03l7 3.22q.6.27.6.92 0 .66-.6.92l-7 3.22a.4.4 0 0 1-.35-.02.3.3 0 0 1-.17-.3.8.8 0 0 1 .52-.8M42.57 13.13q1.9 0 3.4-1.49 1.5-1.48 1.5-3.39h.96q0 2.4-1.72 4.08A5.7 5.7 0 0 1 42.55 14a5.5 5.5 0 0 1-3.98-1.69 5.6 5.6 0 0 1-1.69-4.06h.96q0 1.95 1.42 3.4a4.5 4.5 0 0 0 3.31 1.47M50.7 10.28a.9.9 0 0 1-.6-.92q0-.65.6-.92l7-3.22q.16-.08.34.03.17.09.17.3 0 .57-.51.8l-6.79 3h-.01l.01.03 6.79 3a.8.8 0 0 1 .51.8q0 .2-.17.3a.4.4 0 0 1-.34.02ZM64.18 10.72q0 .27.17.42.17.16.44.16.26 0 .42-.16.17-.15.17-.42a.6.6 0 0 0-.17-.44.6.6 0 0 0-.42-.17.6.6 0 0 0-.44.17q-.17.15-.17.44m5.14.14q0 .58-.1 1.06a4 4 0 0 1-.76 1.56q-.25.3-.53.57l-.8-.85a3 3 0 0 0 .88-1.6q.08-.33.08-.7 0-.72-.25-1.3-.26-.58-.68-1-.4-.4-.96-.62a3.35 3.35 0 0 0-2.31-.02 2.7 2.7 0 0 0-1.63 1.5q-.24.56-.24 1.26 0 .6.16 1.08.17.46.44.76.28.3.62.47.36.16.72.16t.66-.11q.3-.13.5-.33a1.6 1.6 0 0 0 .42-1.12q-.15.16-.4.3-.25.12-.52.12-.25 0-.49-.08a1 1 0 0 1-.4-.25 1 1 0 0 1-.28-.42q-.1-.25-.1-.58t.11-.58.3-.4q.18-.17.44-.26.25-.09.57-.09.44 0 .78.16.36.15.6.43.25.3.37.68.15.38.14.86 0 .53-.17 1.01a2.4 2.4 0 0 1-1.37 1.4q-.5.21-1.16.21-.7 0-1.3-.23a3 3 0 0 1-1-.7q-.42-.45-.67-1.09a4.3 4.3 0 0 1 .06-3.03q.32-.71.86-1.23.56-.53 1.35-.83a5 5 0 0 1 3.51.02q.8.3 1.36.84.57.55.88 1.31.3.75.31 1.66M71.38 16.23q-.17 0-.23-.15-.07-.15.06-.28a9.6 9.6 0 0 0 2.66-6.85q0-4.02-2.66-6.82a.3.3 0 0 1-.05-.29q.06-.15.22-.15.63 0 1.05.42 1.29 1.35 1.98 3.1.7 1.76.7 3.74 0 2-.7 3.75a10 10 0 0 1-1.98 3.11q-.42.42-1.05.42M78.94 14.03l-1.17-.47q.66-1.45 1.36-2.6.72-1.13 1.58-2.02a5 5 0 0 1-1.13-.64q-.51-.4-.84-1t-.33-1.36q0-.8.36-1.42.38-.63 1.05-.99.68-.37 1.59-.37a5 5 0 0 1 1.5.25l-.2 1.2a5 5 0 0 0-1.3-.2q-.68 0-1.03.26-.37.27-.52.63-.14.36-.14.67 0 .5.27.92a3 3 0 0 0 .7.72q.44.31.9.48.69-.57 1.5-1.03l.6 1.02q-1.13.77-2.03 1.75t-1.56 2.06a18 18 0 0 0-1.16 2.14M76.16-3.1"/></svg>