<svg xmlns="http://www.w3.org/2000/svg" width="200" height="60" viewBox="0 0 200 60"><path d="M1.95 18.6a.5.5 0 0 1-.36-.16.5.5 0 0 1-.15-.36.5.5 0 0 1 .15-.36.5.5 0 0 1 .36-.16h8.16q.2 0 .36.16t.15.36-.15.36-.36.15Zm7.8-6.4.02-.01q0-.03-.02-.03L1.95 9.3a.7.7 0 0 1-.51-.74q0-.18.17-.3t.34-.04L10 11.3q.27.11.44.36.19.23.19.53 0 .64-.63.89l-8.05 3.08a.4.4 0 0 1-.34-.05.3.3 0 0 1-.17-.3q0-.53.51-.72ZM12.06 17.55v.92c.4 0 .74.14 1.19.37.34.2.9.54 1.48.54s.99-.24 1.54-.54c.21-.12.56-.37 1.12-.37s.92.25 1.14.37c.52.3.94.54 1.53.54s1.13-.32 1.49-.54c.45-.23.8-.37 1.17-.37s.72.14 1.17.37c.36.2.9.54 1.48.54.6 0 1-.24 1.54-.54.21-.12.59-.37 1.15-.37v-.92c-.68 0-1.1.32-1.48.53-.45.23-.81.39-1.2.39-.4 0-.94-.27-1.18-.4-.39-.23-.9-.52-1.48-.52s-1.1.3-1.49.53c-.23.12-.78.39-1.17.39s-.75-.16-1.2-.4c-.38-.2-.77-.52-1.47-.52-.69 0-1.1.32-1.45.53-.46.23-.81.39-1.2.39-.41 0-.94-.27-1.18-.4-.4-.23-.92-.52-1.5-.52M30.02 18.6a.5.5 0 0 1-.36-.16.5.5 0 0 1-.16-.36.5.5 0 0 1 .16-.36.5.5 0 0 1 .36-.16h8.15q.2 0 .36.16t.16.36-.16.36-.36.15Zm.1-5.52q-.62-.25-.62-.9 0-.29.17-.52.2-.25.45-.36l8.05-3.08q.17-.08.35.05.16.1.17.3 0 .54-.52.73l-7.8 2.86-.01.03.02.01 7.8 2.9q.5.18.5.71 0 .2-.16.3-.17.1-.35.05ZM28.07.8"/></svg>