<svg xmlns="http://www.w3.org/2000/svg" width="262.33" height="57.45" viewBox="0 0 69.41 15.2"><g><path d="M4.83 2.24q-.64 0-1.04-.43Q1.12-1 1.12-5.04t2.67-6.85q.4-.43 1.04-.43.16 0 .23.16.08.16-.05.29-2.66 2.8-2.66 6.83t2.66 6.83q.11.13.05.29-.07.16-.23.16ZM6.85-9.44q-.2 0-.29-.16-.08-.18.03-.34l1.03-1.5q.46-.67 1.26-.67.24 0 .34.22.1.23-.05.4L7.84-9.9q-.4.46-1 .46zM13.9-2.26q-.43-.43-1.05-.43-.63 0-1.07.43-.44.44-.44 1.06 0 .62.44 1.07.44.43 1.07.43.62 0 1.05-.43.44-.45.44-1.07 0-.62-.44-1.06zm.68 2.8q-.7.72-1.73.72T11.1.54q-.72-.72-.72-1.74t.72-1.73q.72-.72 1.75-.72 1.02 0 1.73.72.72.7.72 1.73 0 1.02-.72 1.74zM22-4.88q-.24.24-.6.24-.34 0-.6-.24-.24-.26-.24-.6v-.55q0-.35.24-.6.26-.25.6-.25.36 0 .6.26.26.24.26.59v.54q0 .35-.26.61zM28.54-.78 26.06-7.7q-.08-.22.05-.41.15-.21.39-.21.3 0 .54.18.24.17.34.46l2.27 6.94.01.02q.04 0 .04-.02l2.27-6.97q.08-.27.32-.43.24-.18.53-.18.24 0 .36.2.15.18.07.4l-2.5 6.94q-.13.35-.43.57-.3.21-.67.21-.37 0-.69-.2-.3-.23-.42-.58zM38.37-4.88q-.24.24-.6.24-.35 0-.6-.24-.24-.26-.24-.6v-.55q0-.35.24-.6.25-.25.6-.25.36 0 .6.26.25.24.25.59v.54q0 .35-.25.61zM46.27-2.26q-.43-.43-1.05-.43-.63 0-1.08.43-.43.44-.43 1.06 0 .62.43 1.07.45.43 1.08.43.62 0 1.05-.43.43-.45.43-1.07 0-.62-.43-1.06zm.67 2.8q-.7.72-1.72.72-1.03 0-1.75-.72t-.72-1.74q0-1.02.72-1.73.72-.72 1.75-.72 1.02 0 1.72.72.72.7.72 1.73 0 1.02-.72 1.74zM58.11-9.47l-1.74-2.75q-.15-.24-.02-.48.15-.26.42-.26.86 0 1.23.78l1.25 2.68q.08.16-.03.33-.1.16-.3.16-.52 0-.8-.46zM66.82 2.24q-.18 0-.24-.16-.07-.16.06-.29Q69.3-1 69.3-5.04t-2.66-6.83q-.11-.13-.05-.29.07-.16.23-.16.62 0 1.04.43 1.3 1.36 1.98 3.12.69 1.75.69 3.73t-.69 3.74q-.69 1.75-1.98 3.1-.42.44-1.04.44z" transform="translate(-1.12 12.96)"/></g></svg>