<svg xmlns="http://www.w3.org/2000/svg" width="318.21" height="55.03" viewBox="0 0 84.19 14.56"><g><path d="M4.5-2.26q-.44-.43-1.06-.43-.62 0-1.07.43-.43.44-.43 1.06 0 .62.43 1.07.45.43 1.07.43.62 0 1.06-.43.43-.45.43-1.07 0-.62-.43-1.06zm.67 2.8q-.7.72-1.73.72-1.02 0-1.74-.72T.98-1.2q0-1.02.72-1.73.72-.72 1.74-.72t1.73.72q.72.7.72 1.73 0 1.02-.72 1.74zM12.22-10.45q-.43-.43-1.05-.43-.63 0-1.06.43-.43.43-.43 1.06 0 .62.43 1.07.43.43 1.06.43.62 0 1.05-.43.44-.45.44-1.07 0-.63-.44-1.06zm.68 2.8q-.7.72-1.73.72t-1.75-.72q-.7-.72-.7-1.74 0-1.03.7-1.73.72-.72 1.75-.72 1.02 0 1.73.72.72.7.72 1.73 0 1.02-.72 1.74zM19.17 2.24q-.64 0-1.04-.43-2.67-2.8-2.67-6.85t2.67-6.85q.4-.43 1.04-.43.16 0 .22.16.08.16-.05.29-2.65 2.8-2.65 6.83t2.65 6.83q.12.13.05.29-.06.16-.22.16zM24.37-10.45q-.43-.43-1.06-.43-.62 0-1.05.43-.44.43-.44 1.06 0 .62.44 1.07.43.43 1.05.43.63 0 1.06-.43.43-.45.43-1.07 0-.63-.43-1.06zm.67 2.8q-.7.72-1.73.72-1.02 0-1.74-.72-.7-.72-.7-1.74 0-1.03.7-1.73.72-.72 1.74-.72 1.03 0 1.73.72.72.7.72 1.73 0 1.02-.72 1.74z" transform="translate(-.98 12.32)"/><path d="M28.96-10.74h4.74v-1.02h-4.74zM38.52-10.74 36.4-9.6h-2.68v-1.15h2.46l1.84-1z" transform="translate(-.98 12.32)"/><path d="M46.27-6.5q0 1.29-.66 2.08-.7.84-1.97.84t-1.97-.83Q41-5.2 41-6.51H42q0 .9.37 1.47.43.67 1.28.67.85 0 1.29-.68.36-.57.36-1.46z" transform="translate(-.98 12.32)"/><path d="M53.59-10.74h4.73v-1.02H53.6zM63.25-9.59h-2.67l-2.12-1.15.5-1 1.84 1h2.45z" transform="translate(-.98 12.32)"/><path d="M65.03-10.45q-.44-.43-1.06-.43-.62 0-1.06.43-.43.43-.43 1.06 0 .62.43 1.07.44.43 1.06.43.62 0 1.06-.43.43-.45.43-1.07 0-.63-.43-1.06zm.67 2.8q-.7.72-1.73.72-1.02 0-1.74-.72-.7-.72-.7-1.74 0-1.03.7-1.73.72-.72 1.74-.72t1.73.72q.72.7.72 1.73 0 1.02-.72 1.74zM68.18 2.24q-.18 0-.24-.16-.07-.16.06-.29 2.66-2.8 2.66-6.83T68-11.87q-.11-.13-.05-.29.07-.16.23-.16.62 0 1.04.43 1.3 1.36 1.98 3.12.69 1.75.69 3.73T71.2-1.3q-.69 1.75-1.98 3.1-.42.44-1.04.44zM77.17-10.45q-.43-.43-1.06-.43-.62 0-1.05.43-.43.43-.43 1.06 0 .62.43 1.07.43.43 1.05.43.63 0 1.06-.43.43-.45.43-1.07 0-.63-.43-1.06zm.67 2.8q-.7.72-1.73.72-1.02 0-1.74-.72-.7-.72-.7-1.74 0-1.03.7-1.73.72-.72 1.74-.72 1.03 0 1.73.72.72.7.72 1.73 0 1.02-.72 1.74zM83.78-2.26q-.43-.43-1.06-.43-.62 0-1.07.43-.43.44-.43 1.06 0 .62.43 1.07.45.43 1.07.43.63 0 1.06-.43.43-.45.43-1.07 0-.62-.43-1.06zm.67 2.8q-.7.72-1.73.72-1.02 0-1.74-.72t-.72-1.74q0-1.02.72-1.73.72-.72 1.74-.72 1.03 0 1.73.72.72.7.72 1.73 0 1.02-.72 1.74z" transform="translate(-.98 12.32)"/></g></svg>