<svg xmlns="http://www.w3.org/2000/svg" width="64.41" height="17.56" viewBox="0 0 64.41 17.56"><path d="M7.56 11.6q.1.26.05.56a1 1 0 0 1-.25.46.4.4 0 0 1-.4.11.4.4 0 0 1-.32-.25 375 375 0 0 1-2.26-5.4q-.76-1.8-.86-1.8-.07 0-.58 1.52l-1.4 4.14a.5.5 0 0 1-.29.3.4.4 0 0 1-.4-.05.8.8 0 0 1-.32-.4.7.7 0 0 1 .02-.5q.73-1.91 1.3-3.6.57-1.81.82-2.27.27-.45.77-.45.42 0 .65.2.25.2.54.72.27.51.8 1.78.77 1.95 2.13 4.92m5.27 4.63q-.65 0-1.03-.42a9.5 9.5 0 0 1-2.68-6.84q0-4.06 2.68-6.86.38-.42 1.03-.42.15 0 .23.15.08.16-.04.28a9.5 9.5 0 0 0-2.66 6.83q0 4.05 2.66 6.85.1.12.03.28-.07.15-.22.15m2.44-.46a.4.4 0 0 1-.36-.2.4.4 0 0 1-.06-.37l.76-2.62q.1-.34.4-.55.28-.22.65-.22a.5.5 0 0 1 .44.24q.17.23.04.51l-1.06 2.66a.8.8 0 0 1-.33.39q-.21.16-.48.16m.7-9.99a.8.8 0 0 1 1.08 0q.22.23.22.53v.7q0 .3-.22.54a.7.7 0 0 1-.53.22.74.74 0 0 1-.77-.75v-.7q0-.31.22-.54m4.34-1.22a.3.3 0 0 1-.28-.17.3.3 0 0 1 .03-.33l1.03-1.5q.45-.66 1.25-.67.26 0 .35.24.09.21-.05.39l-1.33 1.57q-.4.48-1 .47m5.74 8.25q-.04.04-.01.08.02.03.07.03h5.08q.15 0 .14-.12V3.52q0-.13-.14-.13h-3.87q-.16 0-.16.13 0 3.78-.06 5.21-.08 1.45-.27 2.29-.2.83-.78 1.8m-1.47 3.56a.53.53 0 0 1-.81 0 .6.6 0 0 1-.17-.4v-2.24q0-.32.23-.56a.7.7 0 0 1 .55-.25q.12 0 .19-.08.68-.98.92-1.78.25-.8.34-2.33t.1-5.34v-.16a1 1 0 0 1 .25-.64q.26-.28.64-.28h4.87q.37 0 .64.28.28.27.28.64v9.57q0 .12.14.12h.29q.37 0 .64.28.26.28.26.64v2.13q0 .23-.17.4a.6.6 0 0 1-.42.2.5.5 0 0 1-.4-.2.6.6 0 0 1-.18-.4v-1.85q0-.12-.13-.12h-7.73q-.15 0-.14.13v1.84q0 .23-.19.4m18.4-11.84-1.73-2.75a.4.4 0 0 1-.02-.48q.15-.25.41-.25.88 0 1.23.78l1.26 2.67q.07.15-.04.33a.3.3 0 0 1-.28.15.9.9 0 0 1-.83-.45m15.24 7.06q.1.27.05.57a1 1 0 0 1-.25.46.4.4 0 0 1-.41.11.4.4 0 0 1-.31-.25 375 375 0 0 1-2.27-5.4q-.75-1.8-.86-1.8-.06 0-.58 1.52l-1.39 4.14a.5.5 0 0 1-.3.3.4.4 0 0 1-.4-.05.8.8 0 0 1-.31-.4.7.7 0 0 1 .01-.5q.74-1.91 1.3-3.6.57-1.81.83-2.27t.76-.45q.42 0 .66.2t.53.72q.28.51.8 1.78.78 1.95 2.14 4.92m1.47 4.64q-.18 0-.24-.15t.07-.28a9.6 9.6 0 0 0 2.65-6.85q0-4.02-2.65-6.82a.3.3 0 0 1-.05-.29q.06-.15.22-.15.62 0 1.04.42 1.3 1.35 1.99 3.1.69 1.76.69 3.74 0 2-.7 3.75a10 10 0 0 1-1.98 3.11q-.42.42-1.04.42M0-3.2"/></svg>