<svg xmlns="http://www.w3.org/2000/svg" width="66.68" height="18.16" viewBox="0 0 66.68 18.16"><path d="m3.83 17.16.89-.43a15 15 0 0 1-2.05-7.68c0-2.74.67-5.44 2.05-7.7L3.82.9a15 15 0 0 0-2.37 8.14c0 3.14.9 5.7 2.38 8.1M9.86 10.72q0 .27.17.42.17.16.44.16.26 0 .42-.16.17-.15.17-.42a.6.6 0 0 0-.17-.44.6.6 0 0 0-.42-.17.6.6 0 0 0-.44.17q-.17.15-.17.44m5.14.14q0 .58-.1 1.06a4 4 0 0 1-.76 1.56q-.25.3-.53.57l-.8-.85a3 3 0 0 0 .88-1.6q.08-.33.08-.7 0-.72-.25-1.3-.26-.58-.68-1-.4-.4-.96-.62a3.35 3.35 0 0 0-2.31-.02 2.7 2.7 0 0 0-1.63 1.5q-.24.56-.24 1.26 0 .6.16 1.08.17.46.44.76.28.3.62.47.36.16.72.16t.66-.11q.3-.13.5-.33a1.6 1.6 0 0 0 .42-1.12q-.15.16-.4.3-.25.12-.52.12-.25 0-.49-.08a1 1 0 0 1-.4-.25 1 1 0 0 1-.29-.42q-.09-.25-.09-.58t.11-.58q.1-.25.3-.4.18-.17.44-.26.25-.09.57-.09.44 0 .78.16.36.15.6.43.25.3.37.68.14.38.14.86 0 .53-.17 1.01a2.4 2.4 0 0 1-1.37 1.4q-.5.21-1.16.21-.7 0-1.3-.23a3 3 0 0 1-1-.7q-.42-.45-.67-1.09a4.3 4.3 0 0 1 .06-3.03q.32-.71.86-1.23.56-.53 1.35-.83a5 5 0 0 1 3.51.02q.8.3 1.36.84.57.55.88 1.31.3.75.31 1.66M16.63 11.66l7.67-3V7.48l-7.68-3v1.27l3.8 1.4 2.4.9v.06l-2.4.87-3.8 1.43ZM28.16 15.86a6 6 0 0 1-1.21-.13 3 3 0 0 1-.99-.42 2 2 0 0 1-.55-.6q-.18-.36-.18-.79 0-.56.28-.98.3-.44.78-.69t1.05-.25q.51 0 .89.22.38.2.59.58a1.7 1.7 0 0 1-.1 1.76q-.3.42-.6.75l-.77-.48q.17-.16.36-.42.2-.27.19-.6 0-.35-.22-.51a1 1 0 0 0-.5-.16q-.33 0-.6.17a.5.5 0 0 0-.24.47q0 .43.43.64.45.2 1.28.2l14.2.02-.23 1.22ZM50.5 11.66V10.4l-3.76-1.43-2.4-.87v-.06l2.4-.9 3.77-1.4V4.48l-7.67 3v1.18ZM55.57 10.72q0 .27.18.42.16.16.43.16t.43-.16q.16-.15.17-.42a.6.6 0 0 0-.17-.44.6.6 0 0 0-.43-.17.6.6 0 0 0-.43.17q-.18.15-.18.44m5.14.14q0 .58-.1 1.06a4 4 0 0 1-.75 1.56q-.26.3-.54.57l-.8-.85a3 3 0 0 0 .88-1.6q.08-.33.08-.7 0-.72-.25-1.3t-.67-1q-.41-.4-.97-.62a3.35 3.35 0 0 0-2.31-.02 2.7 2.7 0 0 0-1.63 1.5q-.23.56-.23 1.26 0 .6.15 1.08.17.46.44.76.28.3.63.47t.72.16q.35 0 .65-.11.3-.13.5-.33a1.6 1.6 0 0 0 .42-1.12q-.14.16-.39.3-.24.12-.53.12-.26 0-.48-.08a1 1 0 0 1-.4-.25 1 1 0 0 1-.29-.42q-.1-.25-.1-.58t.12-.58.3-.4q.18-.17.43-.26.27-.09.58-.09.44 0 .78.16.36.15.6.43.24.3.37.68.14.38.14.86 0 .53-.17 1.01a2.4 2.4 0 0 1-1.38 1.4q-.5.21-1.15.21-.7 0-1.3-.23a3 3 0 0 1-1-.7q-.42-.45-.67-1.09a4.3 4.3 0 0 1 .06-3.03q.31-.71.86-1.23.56-.53 1.34-.83a5 5 0 0 1 3.52.02q.8.3 1.36.84.55.55.87 1.31.3.75.31 1.66M63.32 17.16a15 15 0 0 0 2.36-8.11c0-3.14-.87-5.74-2.36-8.14l-.9.43a15 15 0 0 1 2.04 7.7c0 2.73-.67 5.43-2.04 7.7ZM61.75-4.56"/></svg>