<svg xmlns="http://www.w3.org/2000/svg" width="88.26" height="18.69" viewBox="0 0 88.26 18.69"><path d="M8 14.13a10 10 0 0 0-2.14-3.43 9 9 0 0 0-3.42-2.14q.95-.34 1.83-.87A9 9 0 0 0 8 2.99q.34.96.88 1.84a9 9 0 0 0 2.85 2.86q.88.53 1.83.87a9 9 0 0 0-4.69 3.74q-.53.88-.87 1.82m0-2.05a5 5 0 0 1 1.34-2.16 6 6 0 0 1 2.18-1.36A5 5 0 0 1 9.34 7.2 5.3 5.3 0 0 1 8 5.05 5.26 5.26 0 0 1 6.64 7.2q-.45.45-1 .8t-1.16.55A5.6 5.6 0 0 1 8 12.08M22.56 14.08a24 24 0 0 1-.51-2.78q-.16-1.4-.27-2.66a5 5 0 0 1-1.51.22q-1.24.02-2.07-.64a2.3 2.3 0 0 1-.8-1.9 3.3 3.3 0 0 1 1.35-2.71q.64-.47 1.48-.47t1.33.4q.5.37.77 1.04.28.66.4 1.5.15.84.22 1.78.1.97.18 2.03.1 1.06.23 2.1.16 1.02.4 1.88Zm-3.95-7.95q0 .75.52 1.12.53.36 1.35.36.57 0 1.18-.16-.16-1.43-.49-2.23t-1.1-.8q-.45 0-.77.27-.33.25-.52.65-.18.42-.17.79M29.98 16.23q-.64 0-1.03-.42a9.5 9.5 0 0 1-2.67-6.84q0-4.06 2.67-6.86.39-.42 1.03-.42.15 0 .23.15.09.16-.04.28a9.5 9.5 0 0 0-2.66 6.83q0 4.05 2.66 6.85.1.12.03.28-.07.15-.22.15m2.5-11.67a.3.3 0 0 1-.28-.17.3.3 0 0 1 .03-.33l1.01-1.5q.47-.66 1.27-.67.24 0 .34.24.1.21-.05.39l-1.32 1.57q-.41.48-1 .47m6.84 9.6q-1.24 0-2.08-1.1a4.8 4.8 0 0 1-.85-2.98q0-2.1.9-3.85.28-.54.93-.54.21 0 .3.17.1.18.02.34a7.6 7.6 0 0 0-.97 3.8q0 1.5.54 2.34.57.84 1.33.83 1.72 0 1.72-4.08V7.23q0-.24.17-.42a.6.6 0 0 1 .42-.17.6.6 0 0 1 .6.6v1.85q0 4.08 1.73 4.08.77 0 1.31-.83a4 4 0 0 0 .57-2.34q0-2.07-.97-3.8a.3.3 0 0 1 0-.34q.09-.17.31-.17.66 0 .94.54.87 1.74.87 3.85 0 1.9-.84 2.98a2.5 2.5 0 0 1-2.06 1.1q-1.95 0-2.44-2.38l-.02-.01-.01.01q-.47 2.38-2.42 2.38M50.23 4.09l-1.32-1.57q-.16-.18-.07-.4.11-.23.36-.23.8 0 1.27.67l1.01 1.5q.1.16.02.33a.3.3 0 0 1-.27.17q-.6 0-1-.47m3.53.93a.5.5 0 0 1-.3-.25.6.6 0 0 1-.04-.4.5.5 0 0 1 .26-.3.5.5 0 0 1 .4-.02l2 .67q.04.01.07-.02.05-.03.05-.08l-.03-2.1q0-.24.15-.38.16-.15.36-.14.22 0 .36.14.16.15.16.38l-.03 2.1q0 .05.03.08a.1.1 0 0 0 .1.02l2-.67a.5.5 0 0 1 .4.01q.2.1.25.32.06.2-.03.39a.5.5 0 0 1-.3.25l-2.05.6-.04.08v.1l1.28 1.68q.14.18.1.38a.5.5 0 0 1-.21.33.5.5 0 0 1-.38.1.6.6 0 0 1-.34-.21l-1.22-1.72q-.02-.05-.08-.05-.04 0-.07.05l-1.22 1.72a.5.5 0 0 1-.72.1.6.6 0 0 1-.2-.32.5.5 0 0 1 .09-.38l1.28-1.68q.02-.03.02-.1-.03-.05-.07-.08Zm8 11.21q-.17 0-.23-.15t.06-.28a9.6 9.6 0 0 0 2.66-6.85q0-4.02-2.66-6.82a.3.3 0 0 1-.04-.29q.06-.15.22-.15.62 0 1.04.42 1.3 1.35 1.99 3.1.68 1.76.68 3.74 0 2-.68 3.75a10 10 0 0 1-1.99 3.11q-.42.42-1.04.42M67.46 17.69l-.28-1.32q1.02-.13 1.85-.39a4 4 0 0 0 1.43-.73q.6-.48.88-1.28-.29.07-.61.1-.32.05-.62.05-1.2 0-1.88-.5-.66-.5-.66-1.53a4 4 0 0 1 .72-2.34q.36-.51.86-.83.5-.3 1.11-.31.86 0 1.42.56.58.57.85 1.47.28.9.28 1.9 0 2.24-1.36 3.54-1.35 1.3-3.99 1.6m1.36-5.9q0 .48.32.77.33.3 1.12.3.7 0 1.31-.19v-.22q0-.66-.18-1.25-.18-.57-.5-.92a1 1 0 0 0-.77-.36q-.36 0-.66.28-.3.3-.46.72-.18.42-.18.86M81.7 14.13a10 10 0 0 0-2.15-3.43 9 9 0 0 0-3.42-2.14q.96-.34 1.83-.87a9 9 0 0 0 3.74-4.7q.33.96.87 1.84a9 9 0 0 0 2.86 2.86q.88.53 1.83.87a9 9 0 0 0-4.69 3.74q-.54.88-.87 1.82m0-2.05a5 5 0 0 1 1.34-2.16 6 6 0 0 1 2.17-1.36 5 5 0 0 1-2.17-1.36 5.3 5.3 0 0 1-1.34-2.15 5.26 5.26 0 0 1-1.36 2.16q-.45.45-1 .8t-1.16.55a5.6 5.6 0 0 1 3.52 3.52m-8-14.32"/></svg>