<svg xmlns="http://www.w3.org/2000/svg" width="249.7" height="55.03" viewBox="0 0 66.07 14.56"><g><path d="M4.83 2.24q-.64 0-1.04-.43Q1.12-1 1.12-5.04t2.67-6.85q.4-.43 1.04-.43.16 0 .23.16.08.16-.05.29-2.66 2.8-2.66 6.83t2.66 6.83q.11.13.05.29-.07.16-.23.16ZM6.53-9q-.2-.06-.29-.23-.1-.2-.05-.4.07-.21.26-.3.2-.1.4-.02l2 .67q.05.02.08-.02.05-.03.05-.08l-.04-2.1q0-.23.15-.38.16-.14.37-.14.22 0 .36.14.15.15.15.37l-.03 2.11q0 .05.03.08.05.04.1.02l2-.67q.2-.08.4.01.2.1.25.3.06.22-.03.4-.1.18-.3.25l-2.04.62q-.03.02-.05.08v.08l1.28 1.7q.13.17.1.38-.03.2-.2.32-.17.13-.4.1-.2-.05-.33-.21L9.54-7.65q-.02-.03-.08-.03-.05 0-.08.03L8.16-5.92q-.11.16-.34.2-.2.04-.38-.09-.16-.13-.2-.32-.04-.2.09-.38l1.28-1.7q.03-.03.01-.08-.01-.06-.06-.08z" transform="translate(-1.12 12.32)"/><path d="M16.57-9.9q.38-.47.8-1.16.45-.69.7-1.2h1.57v.17q-.34.5-1.02 1.25-.68.74-1.18 1.14h-.87Z" transform="translate(-1.12 12.32)"/><path d="M35.54 1.38h2.65v-5.62H27.6v2.5h7.95zm2.13-.53h-1.6v-3.12H28.1v-1.44h9.56z" transform="translate(-1.12 12.32)"/><path d="M48.18-9.45h-1.15l-1.73-2.2h1.84z" transform="translate(-1.12 12.32)"/><path d="M55.94-9q-.2-.06-.29-.23-.1-.2-.05-.4.07-.21.26-.3.2-.1.4-.02l2 .67q.05.02.08-.02.05-.03.05-.08l-.04-2.1q0-.23.15-.38.16-.14.37-.14.22 0 .36.14.15.15.15.37l-.03 2.11q0 .05.03.08.05.04.1.02l2-.67q.2-.08.4.01.2.1.25.3.06.22-.03.4-.1.18-.3.25l-2.04.62q-.03.02-.05.08v.08L61-6.5q.13.17.1.38-.03.2-.2.32-.17.13-.4.1-.2-.05-.33-.21l-1.21-1.73q-.02-.03-.08-.03-.05 0-.08.03l-1.22 1.73q-.11.16-.34.2-.2.04-.38-.09-.16-.13-.2-.32-.04-.2.09-.38l1.28-1.7q.03-.03.01-.08-.01-.06-.06-.08zM63.47 2.24q-.17 0-.24-.16-.06-.16.07-.29 2.65-2.8 2.65-6.83t-2.65-6.83q-.11-.13-.05-.29.06-.16.22-.16.63 0 1.04.43 1.3 1.36 1.99 3.12.69 1.75.69 3.73t-.7 3.74q-.68 1.75-1.98 3.1-.41.44-1.04.44z" transform="translate(-1.12 12.32)"/></g></svg>