<svg xmlns="http://www.w3.org/2000/svg" width="209" height="57.96" viewBox="0 0 55.3 15.34"><g><path d="M3.12 2.63h-.8Q1.41 1.52.95.4.52-.72.52-1.87t.44-2.26q.45-1.12 1.34-2.2h.82Q2.26-5 1.94-3.99q-.32 1.02-.32 2.1 0 1.14.37 2.26.38 1.13 1.13 2.25zm4.82-9.75h-.8L5.91-9.55 4.7-7.12h-.8l1.69-3.31h.67zm1.72 1.47q0-.51.25-.78.24-.27.68-.27.45 0 .7.27.26.27.26.78 0 .5-.26.78t-.7.28q-.4 0-.67-.25-.26-.25-.26-.8zm4.32 8.83h-.8V.58h.8zm-1.64 0h-.8V.58h.8zm8.01-13.85-2.5 2.29 2.27 2.6-.18.24-2.53-2.43L15.27-6l-.4-.27 2.22-1.99q-1-.97-2.39-2.1l1.22-.45q.82 1.11 1.67 2.1l2.47-2.22zm3.17 5.02q0-.51.25-.78.24-.27.68-.27.45 0 .7.27.26.27.26.78 0 .5-.26.78t-.7.28q-.4 0-.67-.25-.26-.25-.26-.8zm4.32 8.83h-.8V.58h.8zm-1.64 0h-.8V.58h.8zm4.97-10.3h-.8l-1.21-2.43-1.22 2.43h-.8l1.68-3.31h.67zm5.67-5.04-.33 3.09 3.1-.87.21 1.42-2.98.25 1.94 2.54-1.34.74-1.38-2.83-1.25 2.83-1.37-.74 1.89-2.54-2.95-.25.23-1.42 3.05.87-.33-3.09zm3.95 14.79Q41.54 1.5 41.9.38q.38-1.12.38-2.25 0-1.1-.32-2.1-.32-1.03-1.18-2.37h.81q.9 1.09 1.34 2.2.45 1.12.45 2.26 0 1.16-.45 2.28-.45 1.12-1.35 2.23zm7.91-5.19v-.59q1.17 0 2-.83.85-.85.85-2.02h.6q0 1.42-1.02 2.43-1.01 1-2.43 1Zm7.11-6.96h-.96q-.1-.53-.45-.8-.35-.26-.94-.26-.55 0-.88.27-.33.26-.43.79h-.96q.12-1.08.79-1.56.66-.47 1.53-.47.89 0 1.54.51.66.5.76 1.52z" transform="translate(-.52 12.16)"/><path d="M55.81-9.52h-.96q-.1-.53-.45-.8-.35-.26-.94-.26-.55 0-.88.27-.33.26-.43.79h-.96q.12-1.08.79-1.56.66-.47 1.53-.47.89 0 1.54.51.66.5.76 1.52z" transform="translate(-.52 12.16)"/></g></svg>
