<svg xmlns="http://www.w3.org/2000/svg" width="71.52" height="17.23" viewBox="0 0 71.52 17.23"><path d="M4.83 16.23q-.65 0-1.03-.42a9.5 9.5 0 0 1-2.67-6.84q0-4.06 2.67-6.86.38-.42 1.03-.42.15 0 .23.15.08.16-.04.28a9.5 9.5 0 0 0-2.66 6.83q0 4.05 2.66 6.85.1.12.03.28-.07.15-.22.15M6.84 4.56a.3.3 0 0 1-.28-.17.3.3 0 0 1 .03-.33l1.03-1.5q.45-.66 1.25-.67.25 0 .34.24.1.21-.04.39L7.84 4.09q-.4.48-1 .47m7.05 7.19a1.4 1.4 0 0 0-1.05-.44q-.62 0-1.06.44-.45.42-.44 1.05 0 .62.44 1.06t1.06.44 1.05-.44q.44-.44.44-1.06t-.44-1.05m.69 2.8q-.7.71-1.74.72-1.02 0-1.75-.72a2.4 2.4 0 0 1-.71-1.74q0-1.03.71-1.73a2.4 2.4 0 0 1 1.75-.72q1.04 0 1.74.72.71.7.72 1.73 0 1.02-.72 1.74M22 9.1a.8.8 0 0 1-.6.25.83.83 0 0 1-.84-.84v-.55a.83.83 0 0 1 .84-.84q.36 0 .6.25.25.23.25.59v.55q0 .35-.25.59m6.55 4.1L26.06 6.3a.4.4 0 0 1 .05-.4q.14-.21.39-.21.3 0 .53.17a1 1 0 0 1 .34.45l2.27 6.96.02.01.03-.01 2.28-6.99a.8.8 0 0 1 .31-.42 1 1 0 0 1 .53-.17q.23 0 .38.18.14.2.06.41l-2.5 6.94q-.13.35-.44.56-.3.22-.67.22-.36 0-.67-.22a1 1 0 0 1-.42-.56m9.82-4.1a.8.8 0 0 1-.6.25.83.83 0 0 1-.84-.84v-.55a.83.83 0 0 1 .84-.84q.36 0 .6.25.24.23.25.59v.55q0 .35-.25.59m7.89 2.64a1.4 1.4 0 0 0-1.05-.44q-.63 0-1.06.44-.44.42-.44 1.05 0 .62.44 1.06.43.44 1.06.44.62 0 1.05-.44t.44-1.06q0-.63-.44-1.05m.69 2.8q-.7.71-1.74.72-1.02 0-1.75-.72a2.4 2.4 0 0 1-.72-1.74q0-1.03.72-1.73a2.4 2.4 0 0 1 1.75-.72q1.03 0 1.74.72.7.7.71 1.73 0 1.02-.71 1.74M58.1 4.53l-1.73-2.75a.4.4 0 0 1-.02-.48q.15-.25.4-.25.88 0 1.24.78l1.25 2.67q.07.15-.03.33a.3.3 0 0 1-.28.15.9.9 0 0 1-.83-.45m8.7 11.7q-.17 0-.23-.15t.06-.28a9.6 9.6 0 0 0 2.66-6.85q0-4.02-2.66-6.82a.3.3 0 0 1-.04-.29q.04-.15.21-.15.63 0 1.05.42 1.3 1.35 1.99 3.1.68 1.76.68 3.74 0 2-.68 3.75a10 10 0 0 1-1.99 3.11q-.42.42-1.05.42M0-3.2"/></svg>