<svg xmlns="http://www.w3.org/2000/svg" width="198.23" height="55.03" viewBox="0 0 52.45 14.56"><g><path d="M4.83 2.24q-.64 0-1.04-.43Q1.12-1 1.12-5.04t2.67-6.85q.4-.43 1.04-.43.16 0 .23.16.08.16-.05.29-2.66 2.8-2.66 6.83t2.66 6.83q.11.13.05.29-.07.16-.23.16ZM10.3-2.26q-.43-.43-1.05-.43-.63 0-1.07.43-.44.44-.44 1.06 0 .62.44 1.07.44.43 1.07.43.62 0 1.05-.43.44-.45.44-1.07 0-.62-.44-1.06zm.68 2.8q-.7.72-1.73.72T7.5.54q-.72-.72-.72-1.74t.72-1.73q.72-.72 1.75-.72 1.02 0 1.73.72.72.7.72 1.73 0 1.02-.72 1.74zM15.17-9.9l-1.35-1.59q-.16-.17-.04-.4.1-.22.33-.22.82 0 1.28.67l1.03 1.5q.1.16 0 .34-.08.16-.28.16-.59 0-.97-.46zm.32 2.22q0-.26.17-.45.2-.19.45-.19.27 0 .47.2.19.18.19.44v7.04q0 .26-.2.45-.19.19-.46.19-.25 0-.45-.2-.17-.18-.17-.44zM23.26 2.24q-.2 0-.35-.14-.13-.13-.13-.34 0-.2.13-.35.15-.13.35-.13h8.1q.2 0 .34.13.14.14.14.35 0 .2-.14.34-.13.14-.34.14zM39.34-11.44q.47-.67 1.28-.67.24 0 .34.22.11.23-.05.4L39.57-9.9q-.39.46-.98.46-.19 0-.29-.16-.1-.18.02-.34zM39.06-.19q-.18.19-.45.19t-.47-.2q-.17-.18-.17-.44v-7.04q0-.26.17-.45.2-.19.47-.19.27 0 .45.2.19.18.19.44v7.04q0 .26-.2.45zM45.31-2.26q-.43-.43-1.05-.43-.63 0-1.08.43-.43.44-.43 1.06 0 .62.43 1.07.45.43 1.08.43.62 0 1.05-.43.43-.45.43-1.07 0-.62-.43-1.06zm.67 2.8q-.7.72-1.72.72-1.03 0-1.75-.72T41.8-1.2q0-1.02.72-1.73.72-.72 1.75-.72 1.02 0 1.72.72.72.7.72 1.73 0 1.02-.72 1.74zM49.86 2.24q-.18 0-.24-.16-.07-.16.06-.29 2.66-2.8 2.66-6.83t-2.66-6.83q-.11-.13-.05-.29.07-.16.23-.16.62 0 1.04.43 1.3 1.36 1.98 3.12.69 1.75.69 3.73t-.69 3.74Q52.19.45 50.9 1.8q-.42.44-1.04.44z" transform="translate(-1.12 12.32)"/></g></svg>