<svg xmlns="http://www.w3.org/2000/svg" width="222.59" height="57.95" viewBox="0 0 58.89 15.33"><g><path d="M4.83 2.24q-.64 0-1.04-.43Q1.12-1 1.12-5.04t2.67-6.85q.4-.43 1.04-.43.16 0 .23.16.08.16-.05.29-2.66 2.8-2.66 6.83t2.66 6.83q.11.13.05.29-.07.16-.23.16ZM10.3-2.26q-.43-.43-1.05-.43-.63 0-1.07.43-.44.44-.44 1.06 0 .62.44 1.07.44.43 1.07.43.62 0 1.05-.43.44-.45.44-1.07 0-.62-.44-1.06zm.68 2.8q-.7.72-1.73.72T7.5.54q-.72-.72-.72-1.74t.72-1.73q.72-.72 1.75-.72 1.02 0 1.73.72.72.7.72 1.73 0 1.02-.72 1.74z" transform="translate(-1.12 13.1)"/><path d="M21.09-5.17q0 1.2-.86 2.06-.86.85-2.06.85-1.2 0-2.07-.85-.85-.86-.85-2.06 0-1.2.85-2.06.86-.86 2.07-.86 1.2 0 2.06.86.86.86.86 2.06zM19.9-13.1l-2.13 2.93H16.6L18-13.1z" transform="translate(-1.12 13.1)"/><path d="m37.78.03-7.25-4.08L23.28.03v-1.18l7.25-4.05 7.25 4.07z" transform="translate(-1.12 13.1)"/><path d="M45.82-5.17q0 1.2-.86 2.06-.86.85-2.07.85-1.2 0-2.06-.85-.85-.86-.85-2.06 0-1.2.85-2.06.86-.86 2.06-.86 1.2 0 2.07.86.86.86.86 2.06zM43.53-10.17h-1.17l-2.13-2.92h1.9z" transform="translate(-1.12 13.1)"/><path d="M51.76-2.26q-.43-.43-1.06-.43-.62 0-1.07.43-.43.44-.43 1.06 0 .62.43 1.07.45.43 1.07.43.63 0 1.06-.43.43-.45.43-1.07 0-.62-.43-1.06zm.67 2.8q-.7.72-1.73.72-1.02 0-1.74-.72t-.72-1.74q0-1.02.72-1.73.72-.72 1.74-.72 1.03 0 1.73.72.72.7.72 1.73 0 1.02-.72 1.74zM56.3 2.24q-.17 0-.24-.16-.06-.16.07-.29 2.65-2.8 2.65-6.83t-2.65-6.83q-.12-.13-.05-.29.06-.16.22-.16.63 0 1.04.43 1.3 1.36 1.99 3.12.68 1.75.68 3.73t-.68 3.74q-.7 1.75-1.99 3.1-.41.44-1.04.44z" transform="translate(-1.12 13.1)"/></g></svg>