<svg xmlns="http://www.w3.org/2000/svg" width="74.95" height="17.56" viewBox="0 0 74.95 17.56"><path d="M4.83 16.23q-.65 0-1.03-.42a9.5 9.5 0 0 1-2.67-6.84q0-4.06 2.67-6.86.38-.42 1.03-.42.15 0 .23.15.08.16-.04.28a9.5 9.5 0 0 0-2.66 6.83q0 4.05 2.66 6.85.1.12.03.28-.07.15-.22.15M11.8 2.11q.25.04.4.22.18.18.16.42-.27 4.74-1.31 7.4a8.5 8.5 0 0 1-3.1 4.04.5.5 0 0 1-.45.06.5.5 0 0 1-.31-.31.8.8 0 0 1-.02-.52q.1-.24.33-.44a7.4 7.4 0 0 0 2.6-3.62q.87-2.37 1.09-6.72 0-.23.19-.39a.6.6 0 0 1 .42-.14m3.03 14.12q-.18 0-.23-.15-.08-.15.06-.28a9.6 9.6 0 0 0 2.65-6.85q0-4.02-2.65-6.82a.3.3 0 0 1-.05-.29q.06-.15.22-.15.62 0 1.05.42 1.29 1.35 1.98 3.1.69 1.76.69 3.74 0 2-.69 3.75a10 10 0 0 1-1.98 3.11q-.43.42-1.05.42m7.95-14.57a1.2 1.2 0 0 0-1.77 0q-.36.36-.36.87 0 .52.36.9.37.37.88.37t.89-.38q.37-.37.37-.89 0-.51-.37-.87m.69 2.43q-.66.66-1.58.66-.9 0-1.56-.66a2.2 2.2 0 0 1-.64-1.56q-.01-.91.64-1.56Q20.98.3 21.9.3t1.58.66.65 1.56q0 .9-.65 1.56m7.3 8.72q-.02.04 0 .08.02.03.07.03h5.08q.15 0 .14-.12V3.52q0-.13-.14-.13h-3.88q-.15 0-.15.13 0 3.78-.06 5.21-.08 1.45-.27 2.29-.21.83-.78 1.8m-1.46 3.56a.53.53 0 0 1-.81 0 .6.6 0 0 1-.17-.4v-2.24q0-.32.23-.56a.7.7 0 0 1 .55-.25q.12 0 .18-.08.69-.98.93-1.78t.34-2.33q.1-1.53.1-5.34v-.16a1 1 0 0 1 .24-.64q.27-.28.64-.28h4.88q.37 0 .64.28.28.27.28.64v9.57q0 .12.14.12h.28q.37 0 .64.28t.27.64v2.13q0 .23-.17.4a.6.6 0 0 1-.42.2.5.5 0 0 1-.41-.2.6.6 0 0 1-.17-.4v-1.85q0-.12-.13-.12h-7.73q-.15 0-.14.13v1.84q0 .23-.19.4M42.56 1.66a1.2 1.2 0 0 0-1.76 0q-.37.36-.36.87 0 .52.36.9.38.37.87.37.52 0 .9-.38.36-.37.37-.89 0-.51-.38-.87m.69 2.43q-.66.66-1.58.66-.9 0-1.56-.66a2.2 2.2 0 0 1-.64-1.56q0-.91.64-1.56.66-.66 1.56-.66.92 0 1.58.66.66.65.66 1.56 0 .9-.66 1.56m8.97 12.14q-.64 0-1.03-.42a9.5 9.5 0 0 1-2.67-6.84q0-4.06 2.67-6.86.39-.42 1.03-.42.15 0 .23.15.08.16-.04.28a9.5 9.5 0 0 0-2.66 6.83q0 4.05 2.66 6.85.1.12.03.28-.07.15-.22.15m11.3-4.01a34 34 0 0 0-5.62-7.49.5.5 0 0 1-.15-.42q0-.24.2-.4.2-.18.48-.16.3.02.5.2a35 35 0 0 1 5.74 7.58q.12.25.06.52a.7.7 0 0 1-.3.4.6.6 0 0 1-.5.08.6.6 0 0 1-.4-.31m6.71 4.01q-.18 0-.23-.15-.08-.15.06-.28a9.6 9.6 0 0 0 2.65-6.85q0-4.02-2.65-6.82a.3.3 0 0 1-.05-.29q.06-.15.22-.15.62 0 1.05.42 1.29 1.35 1.98 3.1.69 1.76.69 3.74 0 2-.69 3.75a10 10 0 0 1-1.98 3.11q-.43.42-1.05.42M0-3.2"/></svg>