<svg xmlns="http://www.w3.org/2000/svg" width="86.16" height="17.23" viewBox="0 0 86.16 17.23"><path d="M4.48 11.75a1.4 1.4 0 0 0-1.04-.44q-.64 0-1.06.44-.44.42-.44 1.05 0 .62.44 1.06.42.44 1.06.44.62 0 1.04-.44.44-.44.44-1.06t-.44-1.05m.7 2.8q-.71.71-1.74.72-1.02 0-1.75-.72a2.4 2.4 0 0 1-.72-1.74q0-1.03.72-1.73a2.4 2.4 0 0 1 1.75-.72q1.03 0 1.73.72.72.7.72 1.73 0 1.02-.72 1.74m7.04-10.99a1.4 1.4 0 0 0-1.05-.44q-.63 0-1.06.44-.42.43-.42 1.05a1.47 1.47 0 0 0 1.48 1.5q.63 0 1.05-.44.44-.43.44-1.06 0-.62-.44-1.05m.67 2.8q-.7.72-1.73.72-1.02 0-1.74-.72a2.4 2.4 0 0 1-.7-1.75q0-1.04.7-1.74a2.4 2.4 0 0 1 1.74-.71q1.02 0 1.73.71.72.7.72 1.74 0 1.02-.72 1.75m6.27 9.87q-.64 0-1.03-.42a9.5 9.5 0 0 1-2.67-6.84q0-4.06 2.67-6.86.39-.42 1.03-.42.15 0 .24.15.07.16-.05.28a9.5 9.5 0 0 0-2.65 6.83q0 4.05 2.65 6.85.1.12.03.28-.06.15-.22.15m5.2-12.67a1.4 1.4 0 0 0-1.04-.44q-.63 0-1.07.44-.42.43-.42 1.05a1.47 1.47 0 0 0 1.49 1.5q.62 0 1.04-.44.45-.43.44-1.06 0-.62-.44-1.05m.68 2.8q-.7.72-1.74.72-1.02 0-1.73-.72a2.4 2.4 0 0 1-.7-1.75q0-1.04.7-1.74a2.4 2.4 0 0 1 1.73-.71q1.04 0 1.74.71.7.7.71 1.74 0 1.02-.71 1.75M28.96 3.27h4.72V2.23h-4.72Zm.3 1.14v-.97h2.21l1.64-1.81.8.6-1.75 2.18ZM46.32 7.33q0 1.2-.69 1.92t-2 .72q-1.35 0-2.03-.72a2.8 2.8 0 0 1-.65-1.92h.96q0 .93.43 1.45.41.52 1.3.52t1.29-.52.42-1.45ZM53.57 3.27h4.72V2.23h-4.72ZM55.2 4.4l-.26-.32-1.49-1.86.78-.6 1.66 1.8h2.22v.98ZM65 3.56a1.4 1.4 0 0 0-1.04-.44q-.63 0-1.07.44-.42.43-.42 1.05a1.47 1.47 0 0 0 1.49 1.5q.62 0 1.04-.44.44-.43.44-1.06 0-.62-.44-1.05m.68 2.8q-.7.72-1.74.72-1.02 0-1.73-.72a2.4 2.4 0 0 1-.7-1.75q0-1.04.7-1.74a2.4 2.4 0 0 1 1.73-.71q1.03 0 1.74.71.7.7.71 1.74 0 1.02-.71 1.75m2.47 9.87q-.18 0-.23-.15-.08-.15.06-.28a9.6 9.6 0 0 0 2.66-6.85q0-4.02-2.66-6.82a.3.3 0 0 1-.05-.29q.07-.15.22-.15.63 0 1.05.42 1.29 1.35 1.98 3.1.7 1.76.7 3.74 0 2-.7 3.75a10 10 0 0 1-1.98 3.11q-.42.42-1.05.42m9-12.67a1.4 1.4 0 0 0-1.05-.44q-.63 0-1.06.44-.42.43-.42 1.05a1.47 1.47 0 0 0 1.48 1.5q.63 0 1.05-.44.44-.43.44-1.06 0-.62-.44-1.05m.67 2.8q-.7.72-1.73.72-1.02 0-1.74-.72a2.4 2.4 0 0 1-.7-1.75q0-1.04.7-1.74a2.4 2.4 0 0 1 1.74-.71q1.02 0 1.73.71.72.7.72 1.74 0 1.02-.72 1.75m5.93 5.39a1.4 1.4 0 0 0-1.05-.44q-.62 0-1.06.44-.44.42-.44 1.05 0 .62.44 1.06t1.06.44 1.05-.44q.44-.44.44-1.06t-.44-1.05m.69 2.8q-.7.71-1.74.72-1.02 0-1.75-.72a2.4 2.4 0 0 1-.72-1.74q0-1.03.72-1.73a2.4 2.4 0 0 1 1.75-.72q1.04 0 1.74.72.71.7.72 1.73 0 1.02-.72 1.74M60.79-3.2"/></svg>