<svg xmlns="http://www.w3.org/2000/svg" width="345.67" height="55.03" viewBox="0 0 91.46 14.56"><g><path d="M4.83 2.24q-.64 0-1.04-.43Q1.12-1 1.12-5.04t2.67-6.85q.4-.43 1.04-.43.16 0 .23.16.08.16-.05.29-2.66 2.8-2.66 6.83t2.66 6.83q.11.13.05.29-.07.16-.23.16ZM9.36-6.75q-.22.06-.43-.07-.2-.12-.24-.35-.05-.22.08-.41.13-.21.35-.28 3.46-.83 5.17-.83 4.85 0 4.85 4.05 0 2.34-1.92 3.6Q15.32.21 11.5.29q-.24 0-.41-.16-.18-.15-.2-.39-.01-.22.15-.38.16-.18.38-.18 3.33-.06 4.9-.99 1.58-.94 1.58-2.72 0-1.53-.9-2.27-.9-.75-2.8-.75-1.6 0-4.84.8zM23-9q-.18-.06-.28-.23-.1-.2-.05-.4.07-.21.26-.3.2-.1.4-.02l2 .67q.05.02.08-.02.05-.03.05-.08l-.04-2.1q0-.23.15-.38.16-.14.37-.14.22 0 .36.14.15.15.15.37l-.03 2.11q0 .05.03.08.05.04.1.02l2-.67q.2-.08.4.01.2.1.25.3.06.22-.03.4-.1.18-.3.25l-2.04.62q-.03.02-.05.08v.08l1.28 1.7q.13.17.1.38-.03.2-.2.32-.17.13-.4.1-.2-.05-.33-.21l-1.21-1.73q-.02-.03-.08-.03-.05 0-.08.03l-1.22 1.73q-.11.16-.34.2-.2.04-.38-.09-.16-.13-.2-.32-.04-.2.09-.38l1.28-1.7q.03-.03.01-.08-.01-.06-.06-.08z" transform="translate(-1.12 12.32)"/><path d="M33.05-9.9q.38-.47.8-1.16.45-.69.7-1.2h1.57v.17q-.34.5-1.02 1.25-.68.74-1.18 1.14h-.87Z" transform="translate(-1.12 12.32)"/><path d="M42.55-7.25q-.05 0-.08.05-.04.03-.02.08l2.05 5.95q0 .02.03.02.02 0 .02-.02l2.04-5.95q.02-.05-.01-.08-.03-.05-.08-.05zm1.04 6.58-3.8-10.39q-.08-.22.05-.41.15-.21.39-.21.28 0 .52.18.26.17.36.44L42-8.4q.06.13.18.13h4.66q.14 0 .2-.13l.89-2.62q.1-.3.33-.47.26-.19.58-.19.26 0 .38.2.15.2.07.44L45.5-.67q-.1.3-.38.5-.25.17-.57.17-.32 0-.6-.18-.25-.19-.36-.5z" transform="translate(-1.12 12.32)"/><path d="M59.2-9.45h-1.16l-1.73-2.2h1.84z" transform="translate(-1.12 12.32)"/><path d="M66.95-9q-.2-.06-.3-.23-.09-.2-.04-.4.06-.21.26-.3.2-.1.4-.02l2 .67q.04.02.08-.02.04-.03.04-.08l-.03-2.1q0-.23.15-.38.16-.14.36-.14.23 0 .37.14.15.15.15.37l-.04 2.11q0 .05.04.08.04.04.1.02l2-.67q.2-.08.4.01.2.1.25.3.06.22-.03.4-.1.18-.3.25l-2.04.62q-.03.02-.05.08v.08L72-6.5q.13.17.1.38-.03.2-.21.32-.16.13-.38.1-.21-.05-.34-.21l-1.22-1.73q-.01-.03-.08-.03-.04 0-.08.03l-1.21 1.73q-.11.16-.34.2-.2.04-.38-.09-.16-.13-.21-.32-.03-.2.1-.38l1.28-1.7q.03-.03.01-.08-.01-.06-.06-.08zM74.48 2.24q-.17 0-.24-.16-.06-.16.07-.29 2.65-2.8 2.65-6.83t-2.65-6.83q-.12-.13-.05-.29.06-.16.22-.16.63 0 1.04.43 1.3 1.36 1.99 3.12.68 1.75.68 3.73t-.68 3.74q-.7 1.75-1.99 3.1-.41.44-1.04.44zM82.8-6.75q-.22.06-.43-.07-.2-.12-.24-.35-.05-.22.08-.41.13-.21.35-.28 3.46-.83 5.17-.83 4.85 0 4.85 4.05 0 2.34-1.92 3.6Q88.76.21 84.95.29q-.24 0-.42-.16-.18-.15-.2-.39 0-.22.15-.38.16-.18.39-.18 3.32-.06 4.9-.99 1.58-.94 1.58-2.72 0-1.53-.92-2.27-.9-.75-2.8-.75-1.6 0-4.83.8z" transform="translate(-1.12 12.32)"/></g></svg>