<svg xmlns="http://www.w3.org/2000/svg" width="332.23" height="61.38" viewBox="0 0 87.9 16.24"><g><path d="M4.5-2.26q-.44-.43-1.06-.43-.62 0-1.07.43-.43.44-.43 1.06 0 .62.43 1.07.45.43 1.07.43.62 0 1.06-.43.43-.45.43-1.07 0-.62-.43-1.06zm.67 2.8q-.7.72-1.73.72-1.02 0-1.74-.72T.98-1.2q0-1.02.72-1.73.72-.72 1.74-.72t1.73.72q.72.7.72 1.73 0 1.02-.72 1.74zM11.17-12.35q-.37-.37-.88-.37t-.88.37q-.37.37-.37.88t.37.9q.37.36.88.36t.88-.37q.38-.38.38-.9 0-.5-.38-.87zm.69 2.45q-.66.65-1.57.65T8.72-9.9q-.64-.66-.64-1.57t.64-1.55q.66-.66 1.57-.66t1.57.66q.65.64.65 1.55t-.65 1.57zM20.83 2.24q-.64 0-1.04-.43-2.67-2.8-2.67-6.85t2.67-6.85q.4-.43 1.04-.43.16 0 .23.16.08.16-.05.29-2.66 2.8-2.66 6.83t2.66 6.83q.11.13.05.29-.07.16-.23.16zM24.98-12.35q-.37-.37-.88-.37-.52 0-.88.37-.37.37-.37.88t.37.9q.36.36.88.36.5 0 .88-.37.38-.38.38-.9 0-.5-.38-.87zm.68 2.45q-.65.65-1.56.65-.92 0-1.57-.65-.64-.66-.64-1.57t.64-1.55q.65-.66 1.57-.66.9 0 1.56.66.66.64.66 1.55t-.66 1.57zM30.85-9.44q-.2 0-.29-.16-.08-.18.03-.34l1.03-1.5q.46-.67 1.26-.67.24 0 .34.22.1.23-.05.4L31.84-9.9q-.4.46-1 .46zM36.58-1.18q-.04.03-.02.08.03.03.08.03h5.09q.13 0 .13-.13v-9.28q0-.13-.13-.13h-3.89q-.14 0-.14.13 0 3.78-.07 5.22-.06 1.44-.27 2.27-.2.83-.78 1.8zm-1.46 3.56q-.18.18-.42.18t-.41-.18q-.16-.17-.16-.41V-.27q0-.32.22-.56.24-.24.56-.24.13 0 .18-.08.69-1 .93-1.8.25-.8.33-2.31.1-1.54.1-5.35v-.16q0-.37.25-.64.28-.27.64-.27h4.88q.37 0 .64.27.28.27.28.64v9.57q0 .13.14.13h.29q.37 0 .62.27.27.27.27.64v2.13q0 .24-.17.41-.16.18-.4.18-.24 0-.42-.18-.17-.17-.17-.41V.13q0-.13-.13-.13h-7.73q-.14 0-.14.13v1.84q0 .24-.18.41zM53.52-9.47l-1.74-2.75q-.15-.24-.02-.48.14-.26.42-.26.86 0 1.23.78l1.25 2.68q.08.16-.04.33-.1.16-.28.16-.53 0-.82-.46zM64.35-12.35q-.37-.37-.88-.37t-.88.37q-.37.37-.37.88t.37.9q.37.36.88.36t.88-.37q.39-.38.39-.9 0-.5-.39-.87zm.69 2.45q-.66.65-1.57.65T61.9-9.9q-.64-.66-.64-1.57t.64-1.55q.66-.66 1.57-.66t1.57.66q.66.64.66 1.55t-.66 1.57zM70.22 2.24q-.17 0-.24-.16-.06-.16.07-.29Q72.7-1 72.7-5.04t-2.65-6.83q-.11-.13-.05-.29.06-.16.22-.16.63 0 1.04.43 1.3 1.36 1.99 3.12.69 1.75.69 3.73t-.7 3.74q-.68 1.75-1.98 3.1-.41.44-1.04.44zM78.16-12.35q-.37-.37-.88-.37t-.88.37q-.37.37-.37.88t.37.9q.37.36.88.36t.88-.37q.38-.38.38-.9 0-.5-.38-.87zm.69 2.45q-.66.65-1.57.65t-1.57-.65q-.64-.66-.64-1.57t.64-1.55q.66-.66 1.57-.66t1.57.66q.65.64.65 1.55t-.65 1.57zM87.49-2.26q-.43-.43-1.06-.43-.62 0-1.07.43-.43.44-.43 1.06 0 .62.43 1.07.45.43 1.07.43.63 0 1.06-.43.43-.45.43-1.07 0-.62-.43-1.06zm.67 2.8q-.7.72-1.73.72-1.02 0-1.74-.72t-.72-1.74q0-1.02.72-1.73.72-.72 1.74-.72 1.03 0 1.73.72.72.7.72 1.73 0 1.02-.72 1.74z" transform="translate(-.98 13.68)"/></g></svg>