<svg xmlns="http://www.w3.org/2000/svg" width="354.48" height="59.03" viewBox="0 0 93.79 15.62"><g><path d="M9.9 3.36h-1Q7.6 1.7 6.86-.26q-.74-1.96-.74-3.88 0-2.18.79-4.05.79-1.86 1.99-3.46h1q-1.38 2.28-1.86 4-.47 1.72-.47 3.5 0 3.77 2.34 7.5zM19.07-9.9q.38-.47.8-1.16.44-.69.7-1.2h1.57v.17q-.34.5-1.02 1.25-.68.74-1.18 1.14h-.87zM25.9-3.7v-1.18h3.83v1.18zM36.52-9.7h-.86q-.5-.4-1.2-1.15-.7-.75-1-1.24v-.17h1.58q.25.54.7 1.25.44.7.78 1.12zM46.73-11.65q1.3 1.66 2.04 3.62.75 1.96.75 3.89 0 2.17-.8 4.04-.78 1.87-1.99 3.46h-1q1.39-2.28 1.86-4 .47-1.71.47-3.48 0-3.79-2.33-7.53zM56.8-.83q0-.52.24-.79t.69-.27q.45 0 .7.27.26.27.26.8 0 .5-.26.77-.26.28-.7.28-.4 0-.67-.25-.26-.25-.26-.8zM63.64-.8q0 .56-.44 1-.43.44-.99.44-.62 0-1.05-.44-.43-.43-.43-1.03 0-.58.42-1 .42-.44 1.05-.44.62 0 1.03.46.41.45.41 1zm-1.48.71q.32 0 .54-.2.21-.22.21-.51 0-.3-.21-.53-.22-.22-.53-.22-.29 0-.5.22-.2.22-.2.53 0 .27.19.5.2.21.5.21zM76.64-4.29q0 2.1-1.05 3.27Q74.53.16 72.67.16q-1.15 0-2.04-.54-.89-.54-1.37-1.55-.49-1-.49-2.36 0-2.1 1.05-3.26 1.05-1.17 2.9-1.17 1.8 0 2.86 1.2 1.06 1.2 1.06 3.23zm-6.52 0q0 1.64.65 2.5.66.86 1.93.86 1.28 0 1.93-.85.67-.86.67-2.5 0-1.64-.67-2.49-.65-.85-1.94-.85-1.28 0-1.92.84-.65.83-.65 2.5zM89.02-5.73q0 2.75-1.39 4.32Q86.25.16 83.78.16q-2.52 0-3.9-1.54-1.36-1.55-1.36-4.36 0-2.8 1.37-4.32 1.38-1.54 3.9-1.54 2.47 0 3.85 1.56t1.38 4.31zm-9.1 0q0 2.32.99 3.53Q81.9-1 83.78-1q1.9 0 2.87-1.2.97-1.2.97-3.53 0-2.3-.97-3.49-.96-1.2-2.85-1.2-1.9 0-2.9 1.2-.98 1.2-.98 3.5zM99.9 3.36h-1Q97.6 1.7 96.86-.26q-.74-1.96-.74-3.88 0-2.18.79-4.05.79-1.86 1.99-3.46h1q-1.38 2.28-1.86 4-.47 1.72-.47 3.5 0 3.77 2.34 7.5z" transform="translate(-6.12 12.26)"/></g></svg>