<svg xmlns="http://www.w3.org/2000/svg" width="237.79" height="58.66" viewBox="0 0 62.92 15.52"><g><path d="M7.57-2.4q.11.26.05.54-.05.3-.26.48-.18.16-.4.12-.22-.05-.32-.26L5.18-4.98q-.76-1.88-.8-1.95-.75-1.79-.86-1.79-.06 0-.58 1.52-.67 2.03-1.39 4.14-.08.21-.3.3-.21.07-.4-.06-.23-.14-.32-.38-.08-.26.01-.5.74-1.93 1.3-3.61.58-1.81.83-2.26.27-.46.77-.46.42 0 .66.19.25.2.52.72.3.53.8 1.8.79 1.93 2.15 4.92zM12.83 2.24q-.64 0-1.04-.43Q9.12-1 9.12-5.04t2.67-6.85q.4-.43 1.04-.43.16 0 .23.16.08.16-.05.29-2.66 2.8-2.66 6.83t2.66 6.83q.11.13.05.29-.07.16-.23.16zM15.26 1.76q-.2 0-.35-.18-.13-.17-.06-.38l.77-2.62q.1-.34.38-.55.3-.22.66-.22.28 0 .44.24.16.24.05.51l-1.07 2.66q-.1.25-.32.4-.22.14-.5.14zm.72-9.97q.23-.22.53-.22.32 0 .53.22.22.21.22.53v.69q0 .3-.22.53-.2.22-.53.22-.3 0-.53-.22-.22-.23-.22-.53v-.69q0-.32.22-.53zM20.32-9.44q-.2 0-.29-.16-.08-.18.03-.34l1.03-1.5q.46-.67 1.26-.67.24 0 .34.22.1.23-.05.4L21.31-9.9q-.4.46-.99.46zM26.05-1.18q-.03.03-.02.08.03.03.08.03h5.09q.13 0 .13-.13v-9.28q0-.13-.13-.13h-3.89q-.14 0-.14.13 0 3.78-.07 5.22-.06 1.44-.27 2.27-.2.83-.78 1.8zm-1.46 3.56q-.17.18-.41.18-.24 0-.42-.18-.16-.17-.16-.41V-.27q0-.32.22-.56.24-.24.56-.24.13 0 .18-.08.69-1 .93-1.8.25-.8.33-2.31.1-1.54.1-5.35v-.16q0-.37.26-.64.27-.27.64-.27h4.88q.36 0 .64.27.27.27.27.64v9.57q0 .13.14.13h.29q.37 0 .62.27.28.27.28.64v2.13q0 .24-.18.41-.16.18-.4.18-.24 0-.42-.18-.17-.17-.17-.41V.13q0-.13-.13-.13h-7.73q-.14 0-.14.13v1.84q0 .24-.18.41zM43-9.47l-1.75-2.75q-.15-.24-.02-.48.15-.26.42-.26.86 0 1.23.78l1.25 2.68q.08.16-.03.33-.1.16-.3.16-.52 0-.8-.46zM58.22-2.4q.12.26.05.54-.05.3-.25.48-.18.16-.4.12-.23-.05-.32-.26-.68-1.57-1.46-3.46l-.8-1.95q-.75-1.79-.86-1.79-.07 0-.58 1.52-.67 2.03-1.4 4.14-.07.21-.3.3-.2.07-.4-.06-.22-.14-.32-.38-.08-.26.02-.5.74-1.93 1.3-3.61.57-1.81.83-2.26.27-.46.77-.46.41 0 .65.19.26.2.53.72.29.53.8 1.8.78 1.93 2.14 4.92zM59.7 2.24q-.18 0-.24-.16-.07-.16.06-.29 2.66-2.8 2.66-6.83t-2.66-6.83q-.11-.13-.05-.29.07-.16.23-.16.62 0 1.04.43 1.3 1.36 1.98 3.12.69 1.75.69 3.73t-.69 3.74q-.69 1.75-1.98 3.1-.42.44-1.04.44z" transform="translate(-.5 12.96)"/></g></svg>