<svg xmlns="http://www.w3.org/2000/svg" width="288.92" height="55.03" viewBox="0 0 76.44 14.56"><g><path d="M6.6-3.95 6.13-2.3q-.79-.48-1.04-1.6-.2-.92-.2-3.27-.53.18-.8.24-.26.05-.52.05-.85 0-1.36-.35-.5-.35-.5-1 0-.5.24-1.2.3-.9.8-1.46.63-.71 1.5-.71.65 0 .98.68.28.54.36 1.63.06.67.06 1.98.15 1.8.42 2.53.12.32.53.82zM4.83-8.53q0-.71-.18-1.08-.24-.5-.87-.5-.47 0-.9.35-.44.35-.44.66 0 .33.38.5.38.19.93.19.23 0 .57-.05l.5-.07ZM13.25 2.24q-.64 0-1.04-.43Q9.53-1 9.53-5.04t2.68-6.85q.4-.43 1.04-.43.16 0 .22.16.08.16-.05.29-2.65 2.8-2.65 6.83t2.65 6.83q.11.13.05.29-.06.16-.22.16zM18.99-1.74q-.53-.1-.85-.51-.32-.41-.32-.95 0-.61.43-1.04.43-.43 1.04-.43.64 0 1.09.45.45.45.45 1.12 0 1.42-.76 2.33-.76.9-1.97.9-1.2 0-2.05-1.01-.84-1.01-.84-2.51 0-1.66 1.18-2.74 1.2-1.09 2.89-1.09 1.7 0 2.88 1.09 1.18 1.08 1.18 2.75 0 1.72-.75 3.38h-1.62v-.08q.44-.62.7-1.52.28-.9.28-1.77 0-1.16-.75-1.86-.75-.7-1.92-.7t-1.93.7q-.76.7-.76 1.84 0 .94.44 1.6.45.64 1.07.64.7 0 .89-.6zm.33-.87q.25 0 .42-.16.18-.18.18-.42 0-.25-.17-.42-.18-.18-.43-.18-.24 0-.41.18-.17.17-.17.42 0 .24.17.42.17.16.41.16zM26.36-1.63l6.79-3 .01-.01-.01-.02-6.79-2.99q-.5-.22-.5-.8 0-.2.15-.3.18-.11.35-.03l7 3.21q.6.27.6.93t-.6.93l-7 3.21q-.17.08-.35-.01-.16-.11-.16-.32 0-.58.51-.8z" transform="translate(-1.71 12.32)"/><path d="M36.36-6h.6q0 1.17.83 2.02.85.83 2.01.83 1.17 0 2-.83.85-.85.85-2.02h.6q0 1.42-1.02 2.43-1 1-2.43 1-1.42 0-2.43-1-1-1-1-2.43Z" transform="translate(-1.71 12.32)"/><path d="M46.25-3.71q-.6-.27-.6-.93t.6-.93l7-3.21q.17-.08.33.03.18.1.18.3 0 .58-.52.8l-6.78 3-.02.01q0 .02.02.02l6.78 2.99q.52.22.52.8 0 .2-.18.32-.16.1-.34.01zM60.04-1.74q-.53-.1-.85-.51-.31-.41-.31-.95 0-.61.43-1.04.43-.43 1.04-.43.64 0 1.08.45.46.45.46 1.12 0 1.42-.77 2.33-.76.9-1.97.9-1.2 0-2.04-1.01-.84-1.01-.84-2.51 0-1.66 1.18-2.74 1.19-1.09 2.88-1.09 1.7 0 2.88 1.09 1.18 1.08 1.18 2.75 0 1.72-.75 3.38h-1.61v-.08q.43-.62.7-1.52.27-.9.27-1.77 0-1.16-.75-1.86-.75-.7-1.92-.7-1.16 0-1.93.7-.76.7-.76 1.84 0 .94.45 1.6.44.64 1.06.64.71 0 .9-.6zm.34-.87q.24 0 .41-.16.18-.18.18-.42 0-.25-.17-.42-.17-.18-.42-.18-.24 0-.42.18-.17.17-.17.42 0 .24.17.42.18.16.42.16zM66.43 2.24q-.18 0-.24-.16-.07-.16.06-.29 2.66-2.8 2.66-6.83t-2.66-6.83q-.11-.13-.05-.29.07-.16.23-.16.62 0 1.04.43 1.3 1.36 1.98 3.12.69 1.75.69 3.73t-.69 3.74q-.69 1.75-1.98 3.1-.42.44-1.04.44zM73.88-2.35q0-1.34.28-2.52t.9-2.22q-1.15 0-1.72-.24-.56-.25-.56-.73 0-.37.3-.93.31-.57.9-1.27.46-.58.92-.9.46-.32.81-.32.41 0 .86.34t1.04 1.08l-.08.08q-.57-.2-.87-.26-.3-.06-.68-.06-.98 0-1.57.26-.58.26-.58.65 0 .42.43.66.42.23 1.16.23.67 0 1.22-.13.55-.14 1.52-.57l-.36 1.49q-.76.26-1.5.95-.8.76-1.34 1.81-.6 1.2-.76 2.6z" transform="translate(-1.71 12.32)"/></g></svg>