<svg xmlns="http://www.w3.org/2000/svg" width="143.55" height="17.45" viewBox="0 0 143.55 17.45"><path d="M8.1 12.78a34 34 0 0 0 3.62-4.6q.9-1.5.89-2.82a2.7 2.7 0 0 0-.55-1.78 1.8 1.8 0 0 0-1.48-.67q-.87 0-1.42.6-.56.6-.74 1.79-.03.15-.15.28a.4.4 0 0 1-.27.1.4.4 0 0 1-.28-.1 1 1 0 0 1-.14-.28 3.2 3.2 0 0 0-.74-1.78q-.56-.61-1.42-.61-.93 0-1.48.67a2.7 2.7 0 0 0-.55 1.78q0 1.31.88 2.83.88 1.5 3.64 4.6.09.08.18 0m2.48-10.62q1.25 0 2.01.89.77.9.77 2.3a5 5 0 0 1-.34 1.93q-.35.91-1.38 2.36-1.04 1.44-3.03 3.69a.8.8 0 0 1-.61.26.8.8 0 0 1-.6-.26 47 47 0 0 1-3.04-3.69 11 11 0 0 1-1.38-2.36 5 5 0 0 1-.34-1.92q0-1.43.77-2.31.76-.9 2.01-.9.8 0 1.49.46A3 3 0 0 1 8 4L8.02 4q.38-.93 1.07-1.4.7-.45 1.49-.44M19.78 3.72a12.78 12.78 0 0 0-.84 1.25 10 10 0 0 0-1.2 4.92q-.04 1.83.34 3.23a7 7 0 0 0 1.6 2.76q.09.09.09.2a.5.5 0 0 1-.52.36.6.6 0 0 1-.31-.1 7 7 0 0 1-1.97-2.93 9.74 9.74 0 0 1 1.86-9.9q.23-.17.5-.15.38 0 .45.36m3.14.9.61-.28q.44-.21.58-.32l.12-.02q.57.14.54.77-.07.46-.68.57-.6.12-.95.16l.6.75q.43.54.48.72a.8.8 0 0 1-.69.62q-.39-.06-.66-.64-.26-.6-.37-.9-.1.33-.4.9-.25.58-.7.64a.4.4 0 0 1-.24-.1h.01a.6.6 0 0 1-.44-.5q.06-.23.47-.74l.63-.77h.03l-1.38-.28a.5.5 0 0 1-.28-.45q0-.55.49-.78.11.02.39.17t.4.24h-.01q.3.1.56.28-.09-.79-.14-1.53.15-.48.69-.4.45 0 .51.41Zm2.98.33q-.18-.03-.16-.25.01-.21.19-.43l1-1.22.12-.2a.5.5 0 0 1 .32-.16q.2-.04.56.06.39.13.39.4 0 .14-.08.26a18.11 18.11 0 0 1-1.52 1.42q-.14.1-.32.15a1 1 0 0 1-.5-.03M32.41 6.75q-.04 0-.07.05-.04.03-.02.08l2.05 5.95.03.01.01-.01 2.05-5.95-.01-.08q-.04-.05-.08-.05Zm1.04 6.58-3.79-10.4a.5.5 0 0 1 .05-.41q.15-.2.38-.2.3 0 .54.18t.35.44l.9 2.65q.05.14.17.14h4.66q.15 0 .2-.14l.9-2.62a1 1 0 0 1 .34-.47 1 1 0 0 1 .56-.19q.26 0 .4.2.13.21.05.44l-3.8 10.38q-.11.3-.37.48a1 1 0 0 1-1.17 0q-.26-.18-.37-.48M48.46 5.6a.6.6 0 0 1-.39-.13 14 14 0 0 1-1.4-1.56h-.07a.8.8 0 0 1-.26-.55q.09-.54.64-.6.27.01.47.2l.84 1.17q.56.76.62 1.1-.05.38-.45.38m10.08-.97.6-.29q.45-.21.59-.32l.12-.02q.56.14.53.77-.06.46-.67.57-.6.12-.95.16l.6.75q.42.54.48.72a.8.8 0 0 1-.7.62q-.38-.06-.65-.64-.27-.6-.37-.9-.11.33-.4.9-.25.58-.7.64a.4.4 0 0 1-.25-.1h.02a.6.6 0 0 1-.44-.5q.05-.23.47-.74l.63-.77h.03L56.1 5.2a.5.5 0 0 1-.28-.45q0-.55.48-.78.13.02.4.17t.4.24h-.01q.3.1.56.28-.1-.79-.14-1.53.15-.48.69-.4.45 0 .51.41Zm2.43-1.18q.14-.1.3-.1.26 0 .5.15.32.34.6.75a9.7 9.7 0 0 1 1.26 9.16 7 7 0 0 1-1.97 2.93q-.14.1-.33.11-.42 0-.52-.39.02-.1.08-.18.4-.39.7-.79a9 9 0 0 0 1.27-5.2 9.7 9.7 0 0 0-1.94-6 .4.4 0 0 1-.12-.17q-.02-.17.15-.27ZM72.19 1.28a.7.7 0 0 1 .45-.19.6.6 0 0 1 .44.2q.2.16.2.44v1.22q0 3.57 1.61 6.4a11.5 11.5 0 0 0 4.52 4.45q.2.13.26.34.06.24-.08.42a.6.6 0 0 1-.39.27.7.7 0 0 1-.47-.05 12 12 0 0 1-3.68-3.15 14 14 0 0 1-2.33-4.54q-.03-.06-.06-.01a14 14 0 0 1-2.38 4.53 12 12 0 0 1-3.72 3.17q-.22.12-.48.05a.7.7 0 0 1-.4-.27.5.5 0 0 1-.07-.42.6.6 0 0 1 .27-.34 11.4 11.4 0 0 0 4.5-4.44A12.7 12.7 0 0 0 72 2.96V1.72q0-.27.19-.45M84.38 3.72a12.78 12.78 0 0 0-.84 1.25 10 10 0 0 0-1.21 4.92q-.03 1.83.34 3.23a7 7 0 0 0 1.61 2.76q.08.09.08.2a.5.5 0 0 1-.52.36.6.6 0 0 1-.3-.1 7 7 0 0 1-1.98-2.93 9.74 9.74 0 0 1 1.86-9.9q.23-.17.5-.15.39 0 .45.36m3.14.9.6-.28q.45-.21.58-.32l.13-.02q.56.14.53.77-.06.46-.67.57-.6.12-.96.16l.6.75q.44.54.48.72a.8.8 0 0 1-.69.62q-.4-.06-.65-.64-.27-.6-.38-.9-.1.33-.39.9-.27.58-.7.64a.4.4 0 0 1-.25-.1h.02a.6.6 0 0 1-.44-.5q.05-.23.47-.74l.62-.77h.03l-1.37-.28a.5.5 0 0 1-.28-.45q0-.55.48-.78.12.02.4.17l.4.24h-.02q.3.1.56.28-.08-.79-.14-1.53.15-.48.7-.4.44 0 .5.41Zm2.97.33q-.17-.03-.15-.25 0-.21.18-.43l1-1.22.13-.2a.5.5 0 0 1 .31-.16q.2-.04.56.06.4.13.4.4 0 .14-.08.26a18.11 18.11 0 0 1-1.52 1.42q-.14.1-.33.15a1 1 0 0 1-.5-.03M97 6.75q-.03 0-.07.05-.03.03-.02.08l2.05 5.95.03.01.02-.01 2.04-5.95q.01-.05-.01-.08-.03-.05-.08-.05Zm1.04 6.58-3.78-10.4a.5.5 0 0 1 .04-.41q.15-.2.38-.2.3 0 .55.18.24.17.34.44l.9 2.65q.06.14.18.14h4.65q.16 0 .2-.14l.9-2.62a1 1 0 0 1 .34-.47 1 1 0 0 1 .56-.19q.26 0 .4.2.13.21.06.44l-3.8 10.38q-.11.3-.37.48a1 1 0 0 1-1.18 0q-.24-.18-.37-.48M113.05 5.6a.6.6 0 0 1-.39-.13 14 14 0 0 1-1.4-1.56h-.06a.8.8 0 0 1-.27-.55q.09-.54.64-.6.28.01.47.2l.84 1.17q.56.76.63 1.1-.05.38-.46.38m10.08-.97.61-.29q.45-.21.58-.32l.13-.02q.56.14.53.77-.07.46-.68.57-.6.12-.95.16l.6.75q.43.54.48.72a.8.8 0 0 1-.69.62q-.4-.06-.65-.64-.27-.6-.38-.9-.1.33-.39.9-.27.58-.7.64a.4.4 0 0 1-.25-.1h.01a.6.6 0 0 1-.43-.5q.04-.23.46-.74l.63-.77h.03l-1.37-.28a.5.5 0 0 1-.29-.45q0-.55.49-.78.11.02.39.17t.4.24h-.01q.3.1.56.28-.09-.79-.14-1.53.15-.48.69-.4.45 0 .51.41Zm2.43-1.18q.15-.1.3-.1.27 0 .5.15.33.34.6.75a9.7 9.7 0 0 1 1.26 9.16 7 7 0 0 1-1.97 2.93q-.14.1-.33.11-.42 0-.51-.39 0-.1.07-.18.4-.39.7-.79a9 9 0 0 0 1.27-5.2 9.7 9.7 0 0 0-1.93-6 .4.4 0 0 1-.13-.17q-.02-.17.16-.27ZM137.28 12.78a34 34 0 0 0 3.63-4.6q.89-1.5.89-2.82a2.7 2.7 0 0 0-.55-1.78 1.8 1.8 0 0 0-1.48-.67q-.87 0-1.43.6t-.73 1.79q-.03.15-.16.28a.4.4 0 0 1-.26.1.4.4 0 0 1-.28-.1 1 1 0 0 1-.14-.28 3.2 3.2 0 0 0-.74-1.78q-.56-.61-1.42-.61-.94 0-1.49.67a2.7 2.7 0 0 0-.54 1.78q0 1.31.87 2.83.89 1.5 3.64 4.6.1.08.2 0m2.49-10.62q1.25 0 2.01.89.76.9.77 2.3a5 5 0 0 1-.35 1.93q-.34.91-1.37 2.36t-3.03 3.69a.8.8 0 0 1-.61.26.8.8 0 0 1-.61-.26 47 47 0 0 1-3.03-3.69 11 11 0 0 1-1.38-2.36 5 5 0 0 1-.34-1.92q0-1.43.76-2.31.76-.9 2.02-.9.8 0 1.48.46a3 3 0 0 1 1.1 1.4l.01-.01q.39-.93 1.08-1.4.69-.45 1.49-.44M129.19-3.2"/></svg>