<svg xmlns="http://www.w3.org/2000/svg" width="127.17" height="58.17" viewBox="0 0 33.65 15.39"><g><path d="M4.83 2.24q-.64 0-1.04-.43Q1.12-1 1.12-5.04t2.67-6.85q.4-.43 1.04-.43.16 0 .23.16.08.16-.05.29-2.66 2.8-2.66 6.83t2.66 6.83q.11.13.05.29-.07.16-.23.16ZM6.85-9.44q-.2 0-.29-.16-.08-.18.03-.34l1.03-1.5q.46-.67 1.26-.67.24 0 .34.22.1.23-.05.4L7.84-9.9q-.4.46-1 .46z" transform="translate(-1.12 12.32)"/><path d="M13-7.5h2.8v6.32h-4.07c.41-.63.77-1.65.96-3.38zm4.26 6.32v-7.5h-5.4l-.47 3.85c-.33 2.8-.72 3.39-1.21 3.65h-.42v.9l.14 3.35h1.27V0h5.93v3.07h1.27l.14-3.34v-.91z" transform="translate(-1.12 12.32)"/><path d="M23.9-.2q-1.92 0-3.13-1.13-1.22-1.12-1.22-2.83t1.22-2.83q1.21-1.12 3.13-1.12h4.47q.2 0 .37.16.16.14.16.37 0 .2-.16.36-.15.15-.37.15h-4.32q-1.5 0-2.43.81-.92.82-.92 2.1 0 1.28.92 2.1.92.81 2.43.81h4.32q.22 0 .37.16.16.15.16.35 0 .23-.16.39-.16.14-.37.14zM31.06 2.24q-.18 0-.24-.16-.07-.16.06-.29 2.66-2.8 2.66-6.83t-2.66-6.83q-.11-.13-.05-.29.07-.16.23-.16.62 0 1.04.43 1.3 1.36 1.98 3.12.69 1.75.69 3.73t-.69 3.74Q33.39.45 32.1 1.8q-.42.44-1.04.44z" transform="translate(-1.12 12.32)"/></g></svg>