<svg xmlns="http://www.w3.org/2000/svg" width="87.34" height="17.23" viewBox="0 0 87.34 17.23"><path d="M4.83 16.23q-.65 0-1.03-.42a9.5 9.5 0 0 1-2.67-6.84q0-4.06 2.67-6.86.38-.42 1.03-.42.15 0 .23.15.08.16-.04.28a9.5 9.5 0 0 0-2.66 6.83q0 4.05 2.66 6.85.1.12.03.28-.07.15-.22.15m1.2-1.59a.4.4 0 0 1-.32-.19.4.4 0 0 1-.03-.37l5-11.2q.14-.25.36-.41.24-.16.51-.16.22 0 .33.19.1.18.03.38l-5 11.2a1 1 0 0 1-.36.4 1 1 0 0 1-.51.16m6.68-5.12a.4.4 0 0 1-.36-.2q-.12-.18 0-.4l3.01-5.9q.15-.33.46-.52a1.25 1.25 0 0 1 1.78.52l3 5.9q.12.22 0 .4a.4.4 0 0 1-.35.2q-.3 0-.57-.16-.25-.15-.4-.44l-2.8-5.76v-.02.02l-2.82 5.76a1 1 0 0 1-.39.44q-.27.15-.56.16m10.42.4a.5.5 0 0 1-.36-.15.5.5 0 0 1-.14-.36q0-.2.14-.35.13-.15.36-.15h3.9q.2 0 .34.15t.15.35q0 .2-.14.36t-.35.15Zm6.99-.4a.4.4 0 0 1-.36-.2q-.12-.18 0-.4l3.01-5.9q.16-.33.46-.52a1.25 1.25 0 0 1 1.78.52l3 5.9q.12.22 0 .4a.4.4 0 0 1-.35.2q-.3 0-.57-.16-.25-.15-.4-.44l-2.8-5.76v-.02.02l-2.82 5.76a1 1 0 0 1-.39.44q-.27.15-.56.16m13.3 6.71q-.64 0-1.03-.42a9.5 9.5 0 0 1-2.67-6.84q0-4.06 2.67-6.86.39-.42 1.03-.42.15 0 .24.15.07.16-.05.28a9.5 9.5 0 0 0-2.66 6.83q0 4.05 2.66 6.85.1.12.03.28-.06.15-.22.15m1.34-6.71a.4.4 0 0 1-.36-.2q-.12-.18 0-.4l3.01-5.9q.16-.33.46-.52a1.25 1.25 0 0 1 1.78.52l3 5.9q.12.22 0 .4a.4.4 0 0 1-.35.2q-.3 0-.57-.16-.25-.15-.4-.44l-2.8-5.76v-.02.02L45.7 8.92a1 1 0 0 1-.39.44q-.27.15-.56.16m13.95 0a.4.4 0 0 1-.36-.2q-.12-.18 0-.4l3.01-5.9q.16-.33.46-.52a1.25 1.25 0 0 1 1.78.52l3 5.9q.12.22 0 .4a.4.4 0 0 1-.35.2q-.3 0-.57-.16-.25-.15-.4-.44l-2.8-5.76v-.02.02l-2.82 5.76a1 1 0 0 1-.39.44q-.27.15-.56.16m8.88-4.5a.5.5 0 0 1-.3-.25.6.6 0 0 1-.05-.4.5.5 0 0 1 .27-.3.5.5 0 0 1 .39-.02l2 .67q.04.01.08-.02t.04-.08L70 2.53q0-.24.16-.38.15-.15.36-.14t.36.14q.15.15.15.38L71 4.62q0 .05.03.08a.1.1 0 0 0 .1.02l2-.67a.5.5 0 0 1 .4.01q.2.1.25.32.06.2-.03.39a.5.5 0 0 1-.3.25l-2.04.6q-.04.03-.05.08v.1l1.28 1.68q.15.18.1.38a.5.5 0 0 1-.2.33.5.5 0 0 1-.38.1.6.6 0 0 1-.35-.21L70.6 6.36q-.03-.05-.08-.05t-.08.05l-1.22 1.72a.5.5 0 0 1-.72.1.6.6 0 0 1-.2-.32.5.5 0 0 1 .1-.38l1.27-1.68q.03-.03.02-.1-.02-.05-.06-.08Zm7.52 11.21q-.18 0-.23-.15-.07-.15.06-.28a9.6 9.6 0 0 0 2.65-6.85q0-4.02-2.65-6.82a.3.3 0 0 1-.05-.29q.06-.15.22-.15.62 0 1.05.42 1.29 1.35 1.98 3.1.69 1.76.69 3.74 0 2-.69 3.75a10 10 0 0 1-1.98 3.11q-.43.42-1.05.42m5.33-1.59a.4.4 0 0 1-.33-.19.4.4 0 0 1-.03-.37l5-11.2q.13-.25.36-.41t.51-.16q.23 0 .33.19.1.18.03.38l-5 11.2a1 1 0 0 1-.36.4 1 1 0 0 1-.51.16M0-3.2"/></svg>