<svg xmlns="http://www.w3.org/2000/svg" width="68.1" height="17.23" viewBox="0 0 68.1 17.23"><path d="M4.83 16.23q-.65 0-1.03-.42a9.5 9.5 0 0 1-2.67-6.84q0-4.06 2.67-6.86.38-.42 1.03-.42.15 0 .23.15.08.16-.04.28a9.5 9.5 0 0 0-2.66 6.83q0 4.05 2.66 6.85.1.12.03.28-.07.15-.22.15m4.3-1.82q-.22 0-.32-.2t.03-.37l8.7-11.2q.44-.56 1.14-.56.21 0 .3.2.11.21-.02.36l-8.7 11.2q-.44.56-1.14.57m14.58.82a.5.5 0 0 1-.32-.14.5.5 0 0 1-.14-.32.5.5 0 0 1 .14-.35q.14-.14.32-.14h8.24q.2 0 .34.14t.14.35q0 .18-.14.32t-.34.14Zm0-2.62a.5.5 0 0 1-.32-.13.5.5 0 0 1-.14-.32q0-.21.14-.33.14-.14.32-.14h8.24q.2 0 .34.14.15.13.14.33 0 .18-.14.32a.5.5 0 0 1-.34.13Zm7.85-5.56.01-.03-.01-.04-7.81-2.7a.7.7 0 0 1-.5-.7.3.3 0 0 1 .15-.28.4.4 0 0 1 .35-.05l8.09 2.92q.6.22.6.85 0 .28-.18.51a1 1 0 0 1-.42.33l-8.1 2.92a.4.4 0 0 1-.34-.05.3.3 0 0 1-.15-.3q0-.51.5-.68Zm6.1 7.1q-1.22 0-2.07-1.09a4.8 4.8 0 0 1-.84-2.98q0-2.1.89-3.85.28-.54.93-.54.21 0 .3.17.1.18.02.34a7.6 7.6 0 0 0-.97 3.8q0 1.5.54 2.34.57.84 1.33.83 1.72 0 1.72-4.08V7.23q0-.24.17-.42a.6.6 0 0 1 .43-.17.6.6 0 0 1 .59.6v1.85q0 4.08 1.73 4.08.77 0 1.32-.83A4 4 0 0 0 44.3 10q0-2.07-.97-3.8a.3.3 0 0 1 0-.34q.09-.17.31-.17.66 0 .94.54.87 1.74.87 3.85 0 1.9-.84 2.98a2.5 2.5 0 0 1-2.06 1.1q-1.95 0-2.44-2.38l-.01-.01-.02.01q-.47 2.38-2.42 2.38m21.57.26q-.7 0-1.14-.57l-8.7-11.2q-.14-.15-.04-.36t.31-.2q.7 0 1.14.56l8.7 11.2q.14.16.02.36-.09.2-.3.2m4.15 1.82q-.18 0-.23-.15t.06-.28a9.6 9.6 0 0 0 2.66-6.85q0-4.02-2.66-6.82a.3.3 0 0 1-.05-.29q.06-.15.22-.15.63 0 1.05.42 1.29 1.35 1.98 3.1.7 1.76.7 3.74 0 2-.7 3.75a10 10 0 0 1-1.98 3.11q-.42.42-1.05.42M0-3.2"/></svg>