<svg xmlns="http://www.w3.org/2000/svg" width="83.38" height="18.66" viewBox="0 0 83.38 18.66"><path d="M9.94 14.92q0 1.16-.88 1.94-.86.8-2.03.8a4.2 4.2 0 0 1-2.73-.85l.6-1.03q.7.67 2.02.67 1.63 0 1.63-1.6 0-1.41-1.72-1.41H5.39V12.3h1.42q1.74 0 1.74-1.07t-1.72-1.07h-1.2V9.03H6.8q1.74 0 1.74-1.28 0-1.48-2.24-1.48-1.76 0-2.78 1.14a4.4 4.4 0 0 0-.92 2.8q0 1.65.92 3.65l-1.15.34a9 9 0 0 1-.96-3.97v-.09q0-2.25 1.28-3.66a4.6 4.6 0 0 1 3.6-1.4q1.35 0 2.4.62 1.23.75 1.24 2 0 1.41-1 1.83 1 .4 1 1.7 0 1.28-1 1.63 1 .53 1 2.06m3.15-.92h-1.23V3.52q0-1.3-1.25-1.32-.54 0-.91.4-.4.38-.4.92 0 .53.18.96H8.21q-.1-.53-.1-.98 0-1.1.68-1.8a2.4 2.4 0 0 1 1.82-.72q1.09 0 1.78.66.7.64.7 1.72ZM18.16 16.23q-.65 0-1.04-.42a9.5 9.5 0 0 1-2.67-6.84q0-4.06 2.68-6.86.38-.42 1.03-.42.15 0 .23.15.08.16-.05.28a9.5 9.5 0 0 0-2.65 6.83q0 4.05 2.65 6.85.11.12.04.28-.07.15-.22.15m3.1-8.3-1.39-1.68q-.14-.15-.05-.36t.32-.2q.78 0 1.18.6l1.08 1.6q.1.15.02.31-.08.15-.27.16-.53 0-.89-.42M23 5.7q.76 0 1.17.6l1.1 1.6q.08.15 0 .31a.3.3 0 0 1-.24.16q-.55 0-.9-.42L22.7 6.25q-.13-.15-.04-.36.1-.2.33-.2M33.51 10.45c1.2 0 2.05-.87 2.05-2.04 0-1.2-.85-2.05-2.05-2.05-1.22 0-2.06.86-2.06 2.05 0 1.17.84 2.04 2.06 2.04m5.66-5.4.6-.47-1.68-2.5-1 .81ZM49.23 9.7a5 5 0 0 1-.48 2.33 3.5 3.5 0 0 1-1.4 1.53q-.9.55-2.24.55-1.4 0-2.31-.55a3.3 3.3 0 0 1-1.38-1.54 5.5 5.5 0 0 1-.45-2.32h1.5q0 1.52.64 2.4.65.87 2 .87 1.37 0 2-.88.64-.87.64-2.39ZM56.28 9.92a.5.5 0 0 1-.36-.15.5.5 0 0 1-.14-.36q0-.2.14-.35t.36-.15h3.9q.2 0 .35.15t.14.35q0 .2-.14.36t-.35.15ZM68.4 7.94 67 6.25q-.13-.15-.04-.36.1-.2.31-.2.78 0 1.2.6l1.07 1.6q.1.15.01.31-.08.15-.26.16-.53 0-.9-.42m1.73-2.25q.77 0 1.17.6l1.1 1.6q.09.15.01.31a.3.3 0 0 1-.25.16q-.54 0-.9-.42l-1.4-1.69q-.15-.15-.06-.36.11-.2.33-.2m8.53 10.54q-.17 0-.23-.15t.06-.28a9.6 9.6 0 0 0 2.66-6.85q0-4.02-2.66-6.82a.3.3 0 0 1-.04-.29q.04-.15.21-.15.63 0 1.05.42Q81 3.46 81.7 5.2q.68 1.76.68 3.74 0 2-.68 3.75a10 10 0 0 1-1.99 3.11q-.42.42-1.05.42M50.18-3.2"/></svg>