<svg xmlns="http://www.w3.org/2000/svg" width="47.62" height="17.23" viewBox="0 0 47.62 17.23"><path d="M4.83 16.23q-.65 0-1.03-.42a9.5 9.5 0 0 1-2.67-6.84q0-4.06 2.67-6.86.38-.42 1.03-.42.15 0 .23.15.08.16-.04.28a9.5 9.5 0 0 0-2.66 6.83q0 4.05 2.66 6.85.1.12.03.28-.07.15-.22.15m2.37-3.86 6.78-3 .02-.01-.02-.02L7.2 6.36a.8.8 0 0 1-.52-.81q0-.21.18-.3a.4.4 0 0 1 .34-.03l7 3.22q.6.27.6.92 0 .66-.6.92l-7 3.22a.4.4 0 0 1-.34-.02.3.3 0 0 1-.18-.3.8.8 0 0 1 .52-.8M15.84 13.55v.92c.39 0 .73.14 1.19.37.34.2.89.54 1.48.54.58 0 .99-.24 1.53-.54.22-.12.57-.37 1.13-.37s.92.25 1.14.37c.51.3.94.54 1.53.54s1.12-.32 1.48-.54c.46-.23.8-.37 1.18-.37s.71.14 1.17.37c.36.2.89.54 1.48.54.6 0 1-.24 1.53-.54.22-.12.6-.37 1.16-.37v-.92c-.69 0-1.11.32-1.48.53-.46.23-.82.39-1.2.39-.4 0-.95-.27-1.18-.4-.39-.23-.9-.52-1.48-.52s-1.1.3-1.49.53c-.23.12-.78.39-1.17.39-.4 0-.75-.16-1.2-.4-.38-.2-.77-.52-1.47-.52-.69 0-1.1.32-1.46.53-.45.23-.8.39-1.2.39s-.94-.27-1.17-.4c-.4-.23-.92-.52-1.5-.52M33.48 10.28a.9.9 0 0 1-.6-.92q0-.65.6-.92l7-3.22q.17-.08.34.03.18.09.18.3 0 .57-.52.8l-6.78 3h-.02q0 .03.02.03l6.78 3a.8.8 0 0 1 .52.8q0 .2-.18.3a.4.4 0 0 1-.34.02Zm9.42 5.95q-.18 0-.23-.15-.08-.15.06-.28a9.6 9.6 0 0 0 2.66-6.85q0-4.02-2.66-6.82a.3.3 0 0 1-.05-.29q.06-.15.22-.15.63 0 1.05.42 1.29 1.35 1.98 3.1.7 1.76.7 3.74 0 2-.7 3.75a10 10 0 0 1-1.98 3.11q-.42.42-1.05.42M31.84-3.2"/></svg>