<svg xmlns="http://www.w3.org/2000/svg" width="58.06" height="17.23" viewBox="0 0 58.06 17.23"><path d="M4.83 16.23q-.65 0-1.03-.42a9.5 9.5 0 0 1-2.67-6.84q0-4.06 2.67-6.86.38-.42 1.03-.42.15 0 .23.15.08.16-.04.28a9.5 9.5 0 0 0-2.66 6.83q0 4.05 2.66 6.85.1.12.03.28-.07.15-.22.15m2.48-3.98 2.1-2.78q.09-.11 0-.22l-2.1-2.78a.3.3 0 0 1-.03-.34.3.3 0 0 1 .3-.18q.61 0 1.01.52l1.64 2.17q.23.31.23.72t-.23.72l-1.64 2.17q-.39.52-1.02.52-.2 0-.3-.18-.08-.16.04-.34M14.5 4.1q.38-.47.8-1.16a13 13 0 0 0 .68-1.2h1.58v.17q-.34.5-1.03 1.25-.67.74-1.17 1.14h-.86ZM24.45 14.16q-1.23 0-2.07-1.1a4.8 4.8 0 0 1-.85-2.98q0-2.1.9-3.85.28-.54.93-.54.2 0 .3.17t.01.34a7.6 7.6 0 0 0-.97 3.8q0 1.5.55 2.34.57.84 1.33.83 1.72 0 1.72-4.08V7.23q0-.24.17-.42a.6.6 0 0 1 .42-.17.6.6 0 0 1 .6.6v1.85q0 4.08 1.73 4.08.75 0 1.31-.83A4 4 0 0 0 31.1 10q0-2.07-.96-3.8a.3.3 0 0 1 0-.34q.09-.17.3-.17.67 0 .95.54.87 1.74.87 3.85 0 1.9-.84 2.98a2.5 2.5 0 0 1-2.07 1.1q-1.95 0-2.43-2.38l-.02-.01-.02.01q-.46 2.38-2.42 2.38M39.28 4.3h-.86a12 12 0 0 1-2.2-2.4v-.17h1.58q.25.56.68 1.25.45.7.8 1.13ZM45.28 12.25l-1.62-2.17q-.24-.3-.24-.72 0-.4.24-.72l1.62-2.17q.39-.51 1.03-.52.19 0 .27.17t-.02.35l-2.1 2.78q-.09.11 0 .22l2.1 2.78q.1.18.02.34a.3.3 0 0 1-.27.18q-.64 0-1.03-.52m8.06 3.98q-.18 0-.23-.15t.06-.28a9.6 9.6 0 0 0 2.66-6.85q0-4.02-2.66-6.82a.3.3 0 0 1-.05-.29q.06-.15.22-.15.63 0 1.05.42 1.29 1.35 1.98 3.1.7 1.76.7 3.74 0 2-.7 3.75a10 10 0 0 1-1.98 3.11q-.42.42-1.05.42M42.37-3.2"/></svg>