<svg xmlns="http://www.w3.org/2000/svg" width="62.3" height="18.27" viewBox="0 0 62.3 18.27"><path d="M.98 12.6q0-1.31.38-2.38.4-1.08 1.1-1.9h1.06q-.76.87-1.14 1.98a6.9 6.9 0 0 0 1.14 6.6H2.47a6 6 0 0 1-1.1-1.87 7 7 0 0 1-.39-2.42M3.73 6.69q.54-.75.93-1.58.4-.82.74-1.66h.78q.42 1.07.83 1.85.4.75.84 1.39v.15h-.81q-.37-.45-.67-.9-.31-.48-.58-1a7 7 0 0 1-1.25 1.9h-.81ZM9.13 8.36q0-.6.28-.83.3-.25.68-.25.43 0 .72.25.3.23.3.83 0 .58-.3.83t-.72.25q-.4 0-.68-.25-.3-.25-.29-.83m2.49 6.28v2.63h-1.28v-2.63Zm2.56 0v2.63H12.9v-2.63ZM15.54 8l.47.63.45-.63h1.05l-.99 1.31.99 1.31h-1.05l-.45-.62-.47.63H14.5l.98-1.32L14.51 8ZM21.91 8.36q0-.6.29-.83.3-.25.68-.25.42 0 .72.25.3.23.3.83 0 .58-.3.83t-.72.25q-.4 0-.68-.25-.3-.25-.29-.83m2.5 6.28v2.63h-1.28v-2.63Zm2.56 0v2.63h-1.28v-2.63ZM25.15 6.69q.55-.75.94-1.58.41-.82.73-1.66h.79q.42 1.07.82 1.85.4.75.85 1.39v.15h-.82q-.36-.45-.67-.9-.3-.48-.58-1a7 7 0 0 1-1.25 1.9h-.8ZM34.55 1.84l-.33 3.07 3.08-.86.22 1.47-2.94.25 1.9 2.51-1.37.77-1.36-2.82-1.23 2.82-1.42-.77 1.86-2.51-2.9-.25.21-1.47 3.05.86-.35-3.07Zm6.29 10.74a7 7 0 0 1-.4 2.4q-.36 1.08-1.07 1.91H38.3a6 6 0 0 0 1.16-2.02 7 7 0 0 0-.01-4.57A6 6 0 0 0 38.3 8.3h1.07q.7.83 1.1 1.94.36 1.09.37 2.33M53.05 8.25H54q0 2.4-1.72 4.08A5.7 5.7 0 0 1 48.12 14v-.87q1.93 0 3.43-1.49 1.5-1.48 1.5-3.39M58.82 3.66q1.18 0 1.78.57.6.59.67 1.57h-.87q-.06-.65-.47-.83a3 3 0 0 0-1.14-.17q-.61 0-1.08.2-.45.2-.53.8h-.9q.08-.95.74-1.55.64-.6 1.8-.6m.03-3.27q1.19 0 1.78.58t.67 1.57h-.87q-.06-.66-.47-.83a3 3 0 0 0-1.14-.17q-.61 0-1.08.2-.44.18-.53.8h-.89q.08-.95.73-1.55.64-.6 1.8-.6m-4.22-2"/></svg>