<svg xmlns="http://www.w3.org/2000/svg" width="24.65" height="15" viewBox="0 0 24.65 15"><path d="M1.5 3.4a.6.6 0 0 1-.4-.15.5.5 0 0 1-.15-.37q0-.24.16-.4a.5.5 0 0 1 .39-.17h7.14a.5.5 0 0 1 .38.17.5.5 0 0 1 0 .77q-.16.16-.38.16H5.86q-.14 0-.14.14v9.8a.65.65 0 0 1-.66.65.6.6 0 0 1-.45-.19.7.7 0 0 1-.17-.45V3.55q0-.15-.16-.14Zm14.46 0a.6.6 0 0 1-.39-.15.5.5 0 0 1-.15-.37q0-.24.15-.4a.5.5 0 0 1 .4-.17h7.14a.5.5 0 0 1 .37.17.5.5 0 0 1 0 .77q-.16.16-.37.16h-2.79q-.14 0-.14.14v9.8a.65.65 0 0 1-.65.65.6.6 0 0 1-.46-.19.7.7 0 0 1-.17-.45V3.55q0-.15-.15-.14ZM0-3.2"/></svg>