<svg xmlns="http://www.w3.org/2000/svg" xml:space="preserve" width="1360.67" height="285.51" fill-rule="evenodd" stroke-linejoin="round" stroke-width="28.22" preserveAspectRatio="xMidYMid" version="1.2" viewBox="2750 2250 36001 7554"><g class="Page"><g class="com.sun.star.drawing.CustomShape"><path fill="none" d="M12697 2447h1607v1607h-1607z" class="BoundingBox"/><path fill="#DDD" d="M13500 4000h-750V2500h1500v1500h-750Z"/><path fill="none" stroke="gray" stroke-width="106" d="M13500 4000h-750V2500h1500v1500h-750Z"/><text class="SVGTextShape"><tspan class="TextParagraph" font-family="Arial, sans-serif" font-size="529" font-weight="700"><tspan x="13324" y="3434" class="TextPosition"><tspan fill="#111" style="white-space:pre">P</tspan></tspan></tspan></text></g><g class="TextShape"><path fill="none" d="M2750 4250h3001v2001H2750z" class="BoundingBox"/><text class="SVGTextShape"><tspan class="TextParagraph" font-family="Arial, sans-serif" font-size="635" font-weight="400"><tspan x="3000" y="5185" class="TextPosition"><tspan style="white-space:pre">TIM3</tspan></tspan></tspan><tspan class="TextParagraph" font-family="Arial, sans-serif" font-size="529" font-weight="400"><tspan x="3000" y="5886" class="TextPosition"><tspan style="white-space:pre">1200 Hz</tspan></tspan></tspan></text></g><g class="TextShape"><path fill="none" d="M2750 6250h3001v2001H2750z" class="BoundingBox"/><text class="SVGTextShape"><tspan class="TextParagraph" font-family="Arial, sans-serif" font-size="635" font-weight="400"><tspan x="3000" y="7185" class="TextPosition"><tspan style="white-space:pre">TIM2</tspan></tspan></tspan><tspan class="TextParagraph" font-family="Arial, sans-serif" font-size="529" font-weight="400"><tspan x="3000" y="7886" class="TextPosition"><tspan style="white-space:pre">24 kHz</tspan></tspan></tspan></text></g><g class="com.sun.star.drawing.CustomShape"><path fill="none" d="M7697 6447h1107v1607H7697z" class="BoundingBox"/><path fill="#FFB66C" d="M8250 8000h-500V6500h1000v1500h-500Z"/><path fill="none" stroke="#BE480A" stroke-width="106" d="M8250 8000h-500V6500h1000v1500h-500Z"/><text class="SVGTextShape"><tspan class="TextParagraph" font-family="Arial, sans-serif" font-size="529" font-weight="700"><tspan x="8088" y="7434" class="TextPosition"><tspan fill="#492300" style="white-space:pre">L</tspan></tspan></tspan></text></g><g class="com.sun.star.drawing.CustomShape"><path fill="none" d="M8697 6447h1107v1607H8697z" class="BoundingBox"/><path fill="#B4C7DC" d="M9250 8000h-500V6500h1000v1500h-500Z"/><path fill="none" stroke="#3465A4" stroke-width="106" d="M9250 8000h-500V6500h1000v1500h-500Z"/><text class="SVGTextShape"><tspan class="TextParagraph" font-family="Arial, sans-serif" font-size="529" font-weight="700"><tspan x="9052" y="7434" class="TextPosition"><tspan fill="#383D3C" style="white-space:pre">M</tspan></tspan></tspan></text></g><g class="com.sun.star.drawing.CustomShape"><path fill="none" d="M9697 6447h3107v1607H9697z" class="BoundingBox"/><path fill="#BBE33D" d="M11250 8000H9750V6500h3000v1500h-1500Z"/><path fill="none" stroke="#5EB91E" stroke-width="106" d="M11250 8000H9750V6500h3000v1500h-1500Z"/><text class="SVGTextShape"><tspan class="TextParagraph" font-family="Arial, sans-serif" font-size="529" font-weight="700"><tspan x="11059" y="7197" class="TextPosition"><tspan fill="#395511" style="white-space:pre">R</tspan></tspan></tspan><tspan class="TextParagraph" font-family="Arial, sans-serif" font-size="423" font-weight="700"><tspan x="10731" y="7692" class="TextPosition"><tspan fill="#395511" style="white-space:pre">Ch. 0</tspan></tspan></tspan></text></g><g class="com.sun.star.drawing.CustomShape"><path fill="none" d="M14197 4447h2607v1607h-2607z" class="BoundingBox"/><path fill="#FFFF6D" d="M15500 6000h-1250V4500h2500v1500h-1250Z"/><path fill="none" stroke="#ACB20C" stroke-width="106" d="M15500 6000h-1250V4500h2500v1500h-1250Z"/><text class="SVGTextShape"><tspan class="TextParagraph" font-family="Arial, sans-serif" font-size="529" font-weight="700"><tspan x="15309" y="5197" class="TextPosition"><tspan fill="#443205" style="white-space:pre">D</tspan></tspan></tspan><tspan class="TextParagraph" font-family="Arial, sans-serif" font-size="423" font-weight="700"><tspan x="14981" y="5692" class="TextPosition"><tspan fill="#443205" style="white-space:pre">Ch. 0</tspan></tspan></tspan></text></g><g class="com.sun.star.drawing.CustomShape"><path fill="none" d="M16697 6447h1107v1607h-1107z" class="BoundingBox"/><path fill="#FFB66C" d="M17250 8000h-500V6500h1000v1500h-500Z"/><path fill="none" stroke="#BE480A" stroke-width="106" d="M17250 8000h-500V6500h1000v1500h-500Z"/><text class="SVGTextShape"><tspan class="TextParagraph" font-family="Arial, sans-serif" font-size="529" font-weight="700"><tspan x="17088" y="7434" class="TextPosition"><tspan fill="#492300" style="white-space:pre">L</tspan></tspan></tspan></text></g><g class="com.sun.star.drawing.CustomShape"><path fill="none" d="M17697 6447h1107v1607h-1107z" class="BoundingBox"/><path fill="#B4C7DC" d="M18250 8000h-500V6500h1000v1500h-500Z"/><path fill="none" stroke="#3465A4" stroke-width="106" d="M18250 8000h-500V6500h1000v1500h-500Z"/><text class="SVGTextShape"><tspan class="TextParagraph" font-family="Arial, sans-serif" font-size="529" font-weight="700"><tspan x="18052" y="7434" class="TextPosition"><tspan fill="#383D3C" style="white-space:pre">M</tspan></tspan></tspan></text></g><g class="com.sun.star.drawing.CustomShape"><path fill="none" d="M18697 6447h3107v1607h-3107z" class="BoundingBox"/><path fill="#BBE33D" d="M20250 8000h-1500V6500h3000v1500h-1500Z"/><path fill="none" stroke="#5EB91E" stroke-width="106" d="M20250 8000h-1500V6500h3000v1500h-1500Z"/><text class="SVGTextShape"><tspan class="TextParagraph" font-family="Arial, sans-serif" font-size="529" font-weight="700"><tspan x="20059" y="7197" class="TextPosition"><tspan fill="#395511" style="white-space:pre">R</tspan></tspan></tspan><tspan class="TextParagraph" font-family="Arial, sans-serif" font-size="423" font-weight="700"><tspan x="19731" y="7692" class="TextPosition"><tspan fill="#395511" style="white-space:pre">Ch. 1</tspan></tspan></tspan></text></g><g class="com.sun.star.drawing.CustomShape"><path fill="none" d="M25697 6447h1107v1607h-1107z" class="BoundingBox"/><path fill="#FFB66C" d="M26250 8000h-500V6500h1000v1500h-500Z"/><path fill="none" stroke="#BE480A" stroke-width="106" d="M26250 8000h-500V6500h1000v1500h-500Z"/><text class="SVGTextShape"><tspan class="TextParagraph" font-family="Arial, sans-serif" font-size="529" font-weight="700"><tspan x="26088" y="7434" class="TextPosition"><tspan fill="#492300" style="white-space:pre">L</tspan></tspan></tspan></text></g><g class="com.sun.star.drawing.CustomShape"><path fill="none" d="M26697 6447h1107v1607h-1107z" class="BoundingBox"/><path fill="#B4C7DC" d="M27250 8000h-500V6500h1000v1500h-500Z"/><path fill="none" stroke="#3465A4" stroke-width="106" d="M27250 8000h-500V6500h1000v1500h-500Z"/><text class="SVGTextShape"><tspan class="TextParagraph" font-family="Arial, sans-serif" font-size="529" font-weight="700"><tspan x="27052" y="7434" class="TextPosition"><tspan fill="#383D3C" style="white-space:pre">M</tspan></tspan></tspan></text></g><g class="com.sun.star.drawing.CustomShape"><path fill="none" d="M34697 6447h1107v1607h-1107z" class="BoundingBox"/><path fill="#FFB66C" d="M35250 8000h-500V6500h1000v1500h-500Z"/><path fill="none" stroke="#BE480A" stroke-width="106" d="M35250 8000h-500V6500h1000v1500h-500Z"/><text class="SVGTextShape"><tspan class="TextParagraph" font-family="Arial, sans-serif" font-size="529" font-weight="700"><tspan x="35088" y="7434" class="TextPosition"><tspan fill="#492300" style="white-space:pre">L</tspan></tspan></tspan></text></g><g class="com.sun.star.drawing.CustomShape"><path fill="none" d="M35697 6447h1107v1607h-1107z" class="BoundingBox"/><path fill="#B4C7DC" d="M36250 8000h-500V6500h1000v1500h-500Z"/><path fill="none" stroke="#3465A4" stroke-width="106" d="M36250 8000h-500V6500h1000v1500h-500Z"/><text class="SVGTextShape"><tspan class="TextParagraph" font-family="Arial, sans-serif" font-size="529" font-weight="700"><tspan x="36052" y="7434" class="TextPosition"><tspan fill="#383D3C" style="white-space:pre">M</tspan></tspan></tspan></text></g><g class="com.sun.star.drawing.CustomShape"><path fill="none" d="M21697 4447h2357v1607h-2357z" class="BoundingBox"/><path fill="#FFFF6D" d="M22875 6000h-1125V4500h2250v1500h-1125Z"/><path fill="none" stroke="#ACB20C" stroke-width="106" d="M22875 6000h-1125V4500h2250v1500h-1125Z"/><text class="SVGTextShape"><tspan class="TextParagraph" font-family="Arial, sans-serif" font-size="529" font-weight="700"><tspan x="22684" y="5197" class="TextPosition"><tspan fill="#443205" style="white-space:pre">D</tspan></tspan></tspan><tspan class="TextParagraph" font-family="Arial, sans-serif" font-size="423" font-weight="700"><tspan x="22356" y="5692" class="TextPosition"><tspan fill="#443205" style="white-space:pre">Ch. 0</tspan></tspan></tspan></text></g><g class="com.sun.star.drawing.CustomShape"><path fill="none" d="M27697 4447h3107v1607h-3107z" class="BoundingBox"/><path fill="#FFFF6D" d="M29250 6000h-1500V4500h3000v1500h-1500Z"/><path fill="none" stroke="#ACB20C" stroke-width="106" d="M29250 6000h-1500V4500h3000v1500h-1500Z"/><text class="SVGTextShape"><tspan class="TextParagraph" font-family="Arial, sans-serif" font-size="529" font-weight="700"><tspan x="29059" y="5197" class="TextPosition"><tspan fill="#443205" style="white-space:pre">D</tspan></tspan></tspan><tspan class="TextParagraph" font-family="Arial, sans-serif" font-size="423" font-weight="700"><tspan x="28731" y="5692" class="TextPosition"><tspan fill="#443205" style="white-space:pre">Ch. 1</tspan></tspan></tspan></text></g><g class="com.sun.star.drawing.CustomShape"><path fill="none" d="M30697 2447h4107v1607h-4107z" class="BoundingBox"/><path fill="#DDD" d="M32750 4000h-2000V2500h4000v1500h-2000Z"/><path fill="none" stroke="gray" stroke-width="106" d="M32750 4000h-2000V2500h4000v1500h-2000Z"/><text class="SVGTextShape"><tspan class="TextParagraph" font-family="Arial, sans-serif" font-size="529" font-weight="700"><tspan x="32574" y="3434" class="TextPosition"><tspan fill="#111" style="white-space:pre">P</tspan></tspan></tspan></text></g><g class="com.sun.star.drawing.CustomShape"><path fill="none" d="M23947 4447h1857v1607h-1857z" class="BoundingBox"/><path fill="#FFFF6D" d="M24875 6000h-875V4500h1750v1500h-875Z"/><path fill="none" stroke="#ACB20C" stroke-width="106" d="M24875 6000h-875V4500h1750v1500h-875Z"/><text class="SVGTextShape"><tspan class="TextParagraph" font-family="Arial, sans-serif" font-size="529" font-weight="700"><tspan x="24684" y="5197" class="TextPosition"><tspan fill="#443205" style="white-space:pre">D</tspan></tspan></tspan><tspan class="TextParagraph" font-family="Arial, sans-serif" font-size="423" font-weight="700"><tspan x="24356" y="5692" class="TextPosition"><tspan fill="#443205" style="white-space:pre">Ch. 1</tspan></tspan></tspan></text></g><g class="com.sun.star.drawing.CustomShape"><path fill="none" d="M13697 8697h1107v1107h-1107z" class="BoundingBox"/><path fill="#DDD" d="M14250 9750h-500V8750h1000v1000h-500Z"/><path fill="none" stroke="gray" stroke-width="106" d="M14250 9750h-500V8750h1000v1000h-500Z"/><text class="SVGTextShape"><tspan class="TextParagraph" font-family="Arial, sans-serif" font-size="529" font-weight="700"><tspan x="14074" y="9434" class="TextPosition"><tspan fill="#111" style="white-space:pre">P</tspan></tspan></tspan></text></g><g class="TextShape"><path fill="none" d="M15000 8750h3001v1001h-3001z" class="BoundingBox"/><text class="SVGTextShape"><tspan class="TextParagraph" font-family="Arial, sans-serif" font-size="529" font-weight="400"><tspan x="15250" y="9478" class="TextPosition"><tspan style="white-space:pre">Main loop</tspan></tspan></tspan></text></g><g class="TextShape"><path fill="none" d="M20000 8750h3001v1001h-3001z" class="BoundingBox"/><text class="SVGTextShape"><tspan class="TextParagraph" font-family="Arial, sans-serif" font-size="529" font-weight="400"><tspan x="20250" y="9478" class="TextPosition"><tspan style="white-space:pre">Decode</tspan></tspan></tspan></text></g><g class="com.sun.star.drawing.CustomShape"><path fill="none" d="M18697 8697h1107v1107h-1107z" class="BoundingBox"/><path fill="#FFFF6D" d="M19250 9750h-500V8750h1000v1000h-500Z"/><path fill="none" stroke="#ACB20C" stroke-width="106" d="M19250 9750h-500V8750h1000v1000h-500Z"/><text class="SVGTextShape"><tspan class="TextParagraph" font-family="Arial, sans-serif" font-size="529" font-weight="700"><tspan x="19059" y="9434" class="TextPosition"><tspan fill="#443205" style="white-space:pre">D</tspan></tspan></tspan></text></g><g class="com.sun.star.drawing.CustomShape"><path fill="none" d="M23697 8697h1107v1107h-1107z" class="BoundingBox"/><path fill="#FFB66C" d="M24250 9750h-500V8750h1000v1000h-500Z"/><path fill="none" stroke="#BE480A" stroke-width="106" d="M24250 9750h-500V8750h1000v1000h-500Z"/><text class="SVGTextShape"><tspan class="TextParagraph" font-family="Arial, sans-serif" font-size="529" font-weight="700"><tspan x="24088" y="9434" class="TextPosition"><tspan fill="#492300" style="white-space:pre">L</tspan></tspan></tspan></text></g><g class="com.sun.star.drawing.CustomShape"><path fill="none" d="M28697 8697h1107v1107h-1107z" class="BoundingBox"/><path fill="#B4C7DC" d="M29250 9750h-500V8750h1000v1000h-500Z"/><path fill="none" stroke="#3465A4" stroke-width="106" d="M29250 9750h-500V8750h1000v1000h-500Z"/><text class="SVGTextShape"><tspan class="TextParagraph" font-family="Arial, sans-serif" font-size="529" font-weight="700"><tspan x="29052" y="9434" class="TextPosition"><tspan fill="#383D3C" style="white-space:pre">M</tspan></tspan></tspan></text></g><g class="com.sun.star.drawing.CustomShape"><path fill="none" d="M33697 8697h1107v1107h-1107z" class="BoundingBox"/><path fill="#BBE33D" d="M34250 9750h-500V8750h1000v1000h-500Z"/><path fill="none" stroke="#5EB91E" stroke-width="106" d="M34250 9750h-500V8750h1000v1000h-500Z"/><text class="SVGTextShape"><tspan class="TextParagraph" font-family="Arial, sans-serif" font-size="529" font-weight="700"><tspan x="34059" y="9434" class="TextPosition"><tspan fill="#395511" style="white-space:pre">R</tspan></tspan></tspan></text></g><g class="TextShape"><path fill="none" d="M25000 8750h3501v1001h-3501z" class="BoundingBox"/><text class="SVGTextShape"><tspan class="TextParagraph" font-family="Arial, sans-serif" font-size="529" font-weight="400"><tspan x="25250" y="9478" class="TextPosition"><tspan style="white-space:pre">Latch DAC</tspan></tspan></tspan></text></g><g class="TextShape"><path fill="none" d="M30000 8750h3001v1001h-3001z" class="BoundingBox"/><text class="SVGTextShape"><tspan class="TextParagraph" font-family="Arial, sans-serif" font-size="529" font-weight="400"><tspan x="30250" y="9478" class="TextPosition"><tspan style="white-space:pre">Mix next</tspan></tspan></tspan></text></g><g class="TextShape"><path fill="none" d="M35000 8750h3751v1001h-3751z" class="BoundingBox"/><text class="SVGTextShape"><tspan class="TextParagraph" font-family="Arial, sans-serif" font-size="529" font-weight="400"><tspan x="35250" y="9478" class="TextPosition"><tspan style="white-space:pre">Read flash</tspan></tspan></tspan></text></g><g class="TextShape"><path fill="none" d="M2750 2250h3501v2001H2750z" class="BoundingBox"/><text class="SVGTextShape"><tspan class="TextParagraph" font-family="Arial, sans-serif" font-size="635" font-weight="400"><tspan x="3000" y="3523" class="TextPosition"><tspan style="white-space:pre">Main loop</tspan></tspan></tspan></text></g><g class="com.sun.star.drawing.LineShape"><path fill="none" d="M14020 3697h461v804h-461z" class="BoundingBox"/><path fill="none" stroke="#FF4000" stroke-width="106" d="M14250 3750v322"/><path fill="#FF4000" d="m14480 4041-230 459-229-459h459Z"/></g><g class="com.sun.star.drawing.LineShape"><path fill="none" d="M16520 5697h461v804h-461z" class="BoundingBox"/><path fill="none" stroke="#FF4000" stroke-width="106" d="M16750 5750v322"/><path fill="#FF4000" d="m16980 6041-230 459-229-459h459Z"/></g><g class="com.sun.star.drawing.LineShape"><path fill="none" d="M25520 5697h461v804h-461z" class="BoundingBox"/><path fill="none" stroke="#FF4000" stroke-width="106" d="M25750 5750v322"/><path fill="#FF4000" d="m25980 6041-230 459-229-459h459Z"/></g><g class="com.sun.star.drawing.LineShape"><path fill="none" d="M34520 3697h461v2804h-461z" class="BoundingBox"/><path fill="none" stroke="#FF4000" stroke-width="106" d="M34750 3750v2322"/><path fill="#FF4000" d="m34980 6041-230 459-229-459h459Z"/></g><g class="com.sun.star.drawing.CustomShape"><path fill="none" d="M6447 2447h1357v1607H6447z" class="BoundingBox"/><path fill="#DDD" d="M7125 4000h-625V2500h1250v1500h-625Z"/><path fill="none" stroke="gray" stroke-width="106" d="M7125 4000h-625V2500h1250v1500h-625Z"/><text class="SVGTextShape"><tspan class="TextParagraph" font-family="Arial, sans-serif" font-size="529" font-weight="700"><tspan x="6949" y="3434" class="TextPosition"><tspan fill="#111" style="white-space:pre">P</tspan></tspan></tspan></text></g><g class="com.sun.star.drawing.LineShape"><path fill="none" d="M12520 4000h461v2804h-461z" class="BoundingBox"/><path fill="none" stroke="#55308D" stroke-width="106" d="M12750 6750V4428"/><path fill="#55308D" d="m12521 4459 229-459 230 459h-459Z"/></g><g class="com.sun.star.drawing.LineShape"><path fill="none" d="M21520 6000h461v804h-461z" class="BoundingBox"/><path fill="none" stroke="#55308D" stroke-width="106" d="M21750 6750v-322"/><path fill="#55308D" d="m21521 6459 229-459 230 459h-459Z"/></g><g class="com.sun.star.drawing.LineShape"><path fill="none" d="M27520 6000h461v804h-461z" class="BoundingBox"/><path fill="none" stroke="#55308D" stroke-width="106" d="M27750 6750v-322"/><path fill="#55308D" d="m27521 6459 229-459 230 459h-459Z"/></g><g class="com.sun.star.drawing.CustomShape"><path fill="none" d="M36697 2447h1607v1607h-1607z" class="BoundingBox"/><path fill="#DDD" d="M37500 4000h-750V2500h1500v1500h-750Z"/><path fill="none" stroke="gray" stroke-width="106" d="M37500 4000h-750V2500h1500v1500h-750Z"/><text class="SVGTextShape"><tspan class="TextParagraph" font-family="Arial, sans-serif" font-size="529" font-weight="700"><tspan x="37324" y="3434" class="TextPosition"><tspan fill="#111" style="white-space:pre">P</tspan></tspan></tspan></text></g><g class="com.sun.star.drawing.LineShape"><path fill="none" d="M36520 4000h461v2804h-461z" class="BoundingBox"/><path fill="none" stroke="#55308D" stroke-width="106" d="M36750 6750V4428"/><path fill="#55308D" d="m36521 4459 229-459 230 459h-459Z"/></g><g class="com.sun.star.drawing.LineShape"><path fill="none" d="M4020 8847h461v804h-461z" class="BoundingBox"/><path fill="none" stroke="#FF4000" stroke-width="106" d="M4250 8900v322"/><path fill="#FF4000" d="m4480 9191-230 459-229-459h459Z"/></g><g class="TextShape"><path fill="none" d="M10000 8750h3001v1001h-3001z" class="BoundingBox"/><text class="SVGTextShape"><tspan class="TextParagraph" font-family="Arial, sans-serif" font-size="529" font-weight="400"><tspan x="10250" y="9478" class="TextPosition"><tspan style="white-space:pre">Exit IRQ</tspan></tspan></tspan></text></g><g class="TextShape"><path fill="none" d="M5000 8750h3501v1001H5000z" class="BoundingBox"/><text class="SVGTextShape"><tspan class="TextParagraph" font-family="Arial, sans-serif" font-size="529" font-weight="400"><tspan x="5250" y="9478" class="TextPosition"><tspan style="white-space:pre">Trigger IRQ</tspan></tspan></tspan></text></g><g class="com.sun.star.drawing.LineShape"><path fill="none" d="M9020 8850h461v804h-461z" class="BoundingBox"/><path fill="none" stroke="#55308D" stroke-width="106" d="M9250 9600v-322"/><path fill="#55308D" d="m9021 9309 229-459 230 459h-459Z"/></g><g class="com.sun.star.drawing.LineShape"><path fill="none" d="M30520 4000h461v804h-461z" class="BoundingBox"/><path fill="none" stroke="#55308D" stroke-width="106" d="M30750 4750v-322"/><path fill="#55308D" d="m30521 4459 229-459 230 459h-459Z"/></g><g class="com.sun.star.drawing.LineShape"><path fill="none" d="M7520 3697h461v2804h-461z" class="BoundingBox"/><path fill="none" stroke="#FF4000" stroke-width="106" d="M7750 3750v2322"/><path fill="#FF4000" d="m7980 6041-230 459-229-459h459Z"/></g></g></svg>