<svg xmlns="http://www.w3.org/2000/svg" width="600" height="1039.2"><g fill="none" stroke-opacity=".1" stroke-width="1.5"><path stroke="#fbd5dc" d="M26.7 88c3.2-1.5 6-3 10.5-4.5M26.8 88l10-4.5m-12.4 8.8c4-1.9 10-4.5 18-9.3m-18.7 9.6c5.8-4 12.3-7.3 18.9-10.7M21 96.1c10.3-5.5 19.6-11.4 27.2-14.8M20.6 95.8c5.1-2.7 11.1-5.6 26.7-13.4M19.5 98.8c12.3-5.7 22.4-12 30.8-14.7M19.6 99c8-4.9 15.7-8.2 30.4-16.2m-29.7 17.7C33.2 95 44 87.8 51.5 84.8M20 101c9.2-4.5 19.7-9.5 32.5-16.1m-32.3 17.4c9.6-4.3 20.6-8.8 34.7-15.6m-35 16.5c9-4.3 18.9-9.3 34.2-16.9m-33.3 20c7.5-4.8 16.4-9.8 34.8-18.2m-35.6 17c6.8-4.2 14.7-7 35.3-18.5M20.8 108c8.1-5.3 18-10 38.2-19.3M19.5 107c11.7-6.1 24-11.7 39-19m-38.4 21c10-3.7 20.3-9.9 40.2-20.4M20.1 110l40.2-20.7m-40.3 23c13.8-6.4 26.1-13.7 42.8-21.4m-43 21.3c11.1-5.8 20.8-10.7 41.8-21.8m-42.8 24.4A1720 1720 0 0 0 63.2 92m-43.6 22.4C31.2 108 44.4 101.5 62.9 92m-42 23.7c8.9-4.6 20.2-9.8 43.6-21.8m-44 22.2 42.8-21.8M21.2 119l43.6-24m-44 23.6c11.2-6 21.4-11.7 43.6-22.9m-42.4 23c11-5 21.2-9.5 42.7-21m-42.4 22c10.2-5.5 20-9.8 42.4-21.7M23 120.4c16.8-7 32.3-16 43.3-21.3M24.1 121c15.3-7.5 31-15.8 41.1-20.7m-40.8 22.6c16-7.5 32-15.6 42.6-21m-42 21.4c10.2-5.4 22-11 41.8-21.5M26.7 125c13.6-7.4 29.4-15.3 39-20.4m-39 19.9L67 104.2m-40.2 21.5c16.3-7.6 32.4-16.6 40.6-20.3M27.5 126c8.7-4.7 17.7-8.5 39.6-20.6M30 126.6a493 493 0 0 0 38.3-19.2m-38.8 20.2c9.3-5.1 17.7-9.5 39.3-19.6M31 129c10.2-4.1 18.8-9.2 36.8-17.7m-37 17.5c13.4-6.7 27.4-13 36.7-18.9M34 130.2a223.9 223.9 0 0 1 31.8-16.4m-32 15.8c7.5-4.4 15.8-7.8 33.2-16.7M37 131c7.1-4.1 14.4-7 27.6-14.3M37 130c6.1-3.2 12.5-6.8 28.2-14m-25.4 15.3c7.4-4 14-7.3 25-13.3m-23.7 12.2c5.3-2.6 9.9-4.7 22.8-11.5m-19.5 12.8c3.3-2.1 7.8-4.2 17.6-9.6m-17.2 9.2c3.4-2.2 6.4-3.5 16.5-9.3"/><path stroke="silver" d="M47.5 81.5c5 .7 11.4 4.6 14.7 8.7a26.4 26.4 0 0 1 5.4 16 29.1 29.1 0 0 1-6 16 25.5 25.5 0 0 1-14 8.6c-5.3 1-12.8.1-17.6-2.5a26 26 0 0 1-11-13.2 29.5 29.5 0 0 1 .2-17.7 24.3 24.3 0 0 1 10.7-13c4.9-2.5 15.3-2.2 18.8-2.6 3.4-.3 2 .3 1.9.8m-9.3-2.1c5.1-.8 12.3 1.7 16.5 5 4.2 3 7.3 8.8 8.7 14a30 30 0 0 1-.6 17.5 25.5 25.5 0 0 1-12 11.7 29 29 0 0 1-17.4 2.1 27 27 0 0 1-14.8-9.7 28.4 28.4 0 0 1-4-17.5c.5-5.6 3.9-12.2 7.7-16 3.8-3.8 12.3-5.8 15-6.9 2.5-1 .4.4.5.8"/></g><g fill="none" stroke-opacity=".1" stroke-width="1.5"><path stroke="#ddddf9" d="M240.4 14.3c2.7-1 5.5-2.2 11.4-5M241 14.5c3.6-1.6 7-3.6 10.4-5M238.2 19c6.2-2.9 12.3-6.9 21-12m-21 11.7c7.5-4 15.3-8.5 21.4-11.4M237.3 21c5.8-2.4 11.6-6.2 25.8-13m-26.3 13c8-4.2 16.8-8.4 25.4-12.5m-27.3 16.3c6-3 13-6.4 28.6-16m-29 15.4c11.2-5 21.5-10.2 29.3-15M234 26.6a260 260 0 0 0 32.6-15.8m-32.2 15.5c12.3-5.9 24.2-12 32.6-16m-32 18c9.2-3 17.8-8.6 32.8-16.8m-33.2 17.1c8-4.2 15.9-8 34.3-17.2m-34.4 19.8c14.6-6.3 28.5-14 36.6-18.3m-36.7 18.2c13.2-6.4 26.6-12.6 36.8-18.7M234 33.6c12.1-5.1 23-11.1 39.5-19.2m-38.2 18.8c11.6-6 22.8-12.2 37.7-19.3m-37.8 21.4c11.8-4.6 23-12 40.3-19.5m-41 19.9c8.4-4.2 16.4-8 40.2-20.3m-40.2 22.8c12.7-6.2 25.3-13.3 41.8-22.1m-41.7 21.6c11.7-5.4 22.5-11.6 40.7-20.7m-40.1 23.3a517.2 517.2 0 0 1 42-21.6m-41.4 20.6c11.3-5.6 22-11.2 41-20.4m-40.6 23.7c8-5.6 16.6-8.6 41-21.8m-41.5 21.4a1093 1093 0 0 1 41.8-21.6m-42 23.8c16.4-9.2 33.3-15.7 43.8-22m-43 21.3c16-7.5 32-16.6 41.8-21.3M237.5 45c11.4-5.4 24.4-11 41.7-21.4m-41.7 21.6a2329 2329 0 0 0 42-21m-41 23c9.3-5.4 19.1-9.4 41.6-20.7m-41.4 20.7c15-8 29.2-15 41.7-21.5M241 49.3c13.7-7.5 27.7-14.8 39.7-22m-40.5 20.9a656 656 0 0 0 40.3-20.4m-39 23.4c8-4.6 16.8-9.3 40.4-21.3m-41 20.4c11.7-6 23.8-11.6 40.7-20.6m-37.8 22.8c14-8.4 28-14.8 38.4-20.3M242.5 52c14.8-7.7 28.8-14.8 39.4-20m-38 21.5c10.4-5.8 21.2-9.8 36.7-18.7m-36.3 18.7 37-19.6m-34.9 21.4a308 308 0 0 1 35.7-19M245.6 55c10.6-5.6 21.5-10.9 36-18.4m-34.5 20c7.8-5.2 14.6-9.3 34-18.1M247.6 56c12.6-6.5 24.7-13 32.5-17.1m-28.8 17c11-3.8 21.5-10.2 28.6-14.5m-29.3 14.8c11-5.3 21-10 28.6-13.8M254.3 58c5.6-3.4 10.9-6 24.9-13.8m-24.8 13.3c7.3-3.8 13.6-7.3 24.3-12.2m-20.8 13c7.5-4 13-7.6 18.2-10.3m-17.6 9.5c6.5-3.1 14.3-6.7 18-9.3"/><path stroke="silver" d="M259.8 7c5 .2 11.2 3.6 14.9 7.5a27.8 27.8 0 0 1 7 15.7c.4 5.5-1.9 12.6-5 17a26.3 26.3 0 0 1-13.8 9.5 26 26 0 0 1-16.5-1.7A26.3 26.3 0 0 1 235 42.7c-2.1-4.9-2.5-12-1.2-17.2a25 25 0 0 1 9-14.1c4.5-3.2 14.6-4.3 17.8-4.9 3.3-.7 1.7.6 1.6 1m-1.6-.1c5 .3 11.7 3.1 15.1 6.9 3.5 3.7 5.4 10 5.5 15.5 0 5.5-2 13-5 17.3-3 4.4-7.8 7.5-13 8.8-5 1.3-12.9 1.2-17.7-1.1A24.7 24.7 0 0 1 234.2 42c-2-5.2-2-13-.5-18.2a24.3 24.3 0 0 1 9.7-13.3c4.4-2.8 14.6-3.2 17.3-3.7 2.6-.6-1 .2-1.3.6"/></g><g fill="none" stroke-opacity=".1" stroke-width="1.5"><path stroke="#dcdbf9" d="M-16.9 312c5.1-2.5 10.8-4.1 14-6m-14.2 6.8c4.8-2.4 9.4-4.4 14.5-7.1m-16.2 10.7c4.2-2.8 10.6-5.5 21.4-10.6m-22.2 10.1c4.8-1.6 8.6-3.9 21.1-11M-21 318.6c5-2.8 10-6 24.8-12.8M-21 319.3c10.3-5.2 20.4-10.2 25-13.2m-27.4 17c7-3.7 13-7.8 30-16.3m-30.3 16c12.3-6.6 23.2-11.9 31-16.3M-23.8 325c10-4.2 18.8-10 32.8-15.8m-32.4 15.5c12-5.5 23.1-11 32.8-16.8M-23.9 327c11.8-6.3 23.4-11.1 36.3-17.9M-23 326.7c12-5.9 23.7-12 35-17.6m-34 19.5c13.7-6.4 26.5-13.4 35.8-18.1m-37 19.1 37.6-19.3m-37.2 21.3c12.2-7.2 26.4-14.3 39.9-21.8M-23 331c13-6.7 26.5-13.2 41.1-20.4m-40.5 21.8c13.7-6.8 26.6-13 41.3-20M-22.4 333c13.7-7.2 26.5-13.3 40-20.2m-39.2 22.9c11.5-5.6 22.8-12.6 39.9-21.2m-40.7 21.2c15.9-8.8 32.4-17 41.4-21.1m-40.3 23c12.2-7 27.3-13.6 40.1-21.8m-40.8 22a538 538 0 0 1 42.1-21m-41.6 22.6c11.4-5.2 22.2-11.1 41.6-21.3m-41.9 22c12.2-6.3 23.3-12 42.3-22.1m-42.2 23c11.2-4.5 22.7-10.4 43.7-21m-42.9 21.7c10.3-5 20.6-10.9 42.5-21.8m-41 23.5c10.3-6 21.2-10.9 41-21.7M-20.8 343c15.4-7 31.6-15.5 43.6-21.9m-41.5 23.6c17.3-8.7 32-16.1 42.4-21.5m-42.6 21.6c11.4-6 23-11.4 42.4-21.7m-41.3 22.7c17.6-7.3 32.5-16 42.8-19.7M-16.7 346c10.3-5 21.1-10 40.8-21m-39.4 22a321.6 321.6 0 0 0 41.2-20.3m-41.7 20.9c13.4-6.6 26.3-12.6 41.3-21m-39 22.8c12-7.3 25.7-13.8 37.5-18.8m-38 18.3c9.6-5.1 18.9-9.4 38-19M-11.9 351c9-4.7 18.1-9.9 35.7-18.6m-36 18.6c13.9-7.2 28.7-14.5 36.7-19M-11 351.7c11.1-6.2 23.8-11 33.5-18M-10 351.5a310 310 0 0 0 33-17.1m-28 17.2c6.5-3.5 12.9-5.8 27.2-13.7m-28 14.4c9.5-5 19.6-10.6 28-15.3m-25.5 14.8C6.4 347.3 15.4 343 21 339m-23 13.4c6.5-3.4 13-6.6 24.1-12.8M2.3 352.2a641 641 0 0 0 19.8-10m-20.3 10c5.1-2.6 11-4.9 20.4-9.8M5.9 353.2c3-2.1 6.4-4.8 16.3-9.3m-16.4 8.4a242 242 0 0 0 16.3-8"/><path stroke="silver" d="M1.1 304c5.2 0 12.3 2.8 16.2 6.4 4 3.7 6.8 10.1 7.4 15.5.5 5.5-1.3 12.6-4.3 17-3 4.5-8.2 8.2-13.3 9.7a29.7 29.7 0 0 1-17.2-.8c-5-2-10-6.9-12.4-11.6a26.6 26.6 0 0 1-1.5-16.6 27 27 0 0 1 9-14.3c4.4-3.3 14.4-4.9 17.2-5.7 2.9-.8-.1.4-.2 1m2.5.4c5.2 1 12.3 5 15.5 9.2a26.3 26.3 0 0 1 4.1 16.2 25.8 25.8 0 0 1-5.3 15.4c-3.3 4-9.6 7.7-15 8.5-5.3.7-12.6-.7-17.2-3.8a28.7 28.7 0 0 1-9.8-31.2 30 30 0 0 1 12.3-12.9c4.7-2.5 13.3-2 16-2.3 2.8-.2.7.8.5 1.1"/></g><g fill="none" stroke-opacity=".1" stroke-width="1.5"><path stroke="#95f69a" d="M195 241.2c4.4-3.2 8-4.8 16.3-9.6m-16.9 8.2c5-1.6 9-4 18.2-8.5m-18.8 12.2c6.2-4.3 13-7 22-11.5m-22.2 11.5c6.9-4 13.7-7 21-11.6m-23 13.7c9.4-3.6 18.7-8.4 27.7-13.9M192 246.3c10-5.5 19.9-10.6 26.6-14m-28.5 17c6.7-4 14-7.3 31.6-16m-31.2 15.6c7.2-4 15-7.6 30.2-15.5m-32.1 18.4c11-6.4 23.3-12.1 35-18.3m-34.2 18.3c12.8-6.5 26.5-13.1 34.2-17.4M191 253.2c8.2-4 18-8.3 36.1-17m-37.3 17.7c12-5.5 23.9-11.9 37-18.3m-36 21.2c9.6-6.4 19-10.2 39.2-20.3m-40 19.3a885 885 0 0 0 39.1-19.6M190 257.6c10.7-3.6 19-9.8 40.5-19.3m-39.9 20c12.5-6.7 23.8-12.2 39.3-20.2m-38.6 21.5a627.2 627.2 0 0 1 41-19.7m-40.9 20.6c10.6-6 21.8-11.6 40.6-21.7M191 261c16-6.6 28.8-14.5 41.4-19.7M191.9 262c10.6-5.3 21.2-11.1 41.1-21.1M193.4 264c7.4-4.2 17.7-10 40.9-21.2m-42 20.6c16.4-8 32-15.8 42.7-21.2M192 266c9.5-4 19.3-10.3 42.6-22.8M193 265.7a604 604 0 0 0 42.5-22m-42.2 23.6c8.7-3.7 17.3-8.2 42.5-21.6m-42.5 21.6c15.8-7.7 32-16.2 43.2-21.7M193 270.8a551.6 551.6 0 0 1 45.3-23.2M194.1 270c14.6-7.6 29-15.6 44.2-23.1m-42.9 23c13.9-5.3 26.7-12.6 44.5-21.4m-43.6 22a788 788 0 0 0 43-22m-40.2 23.8c7.3-5.1 17-8.6 40-21.3m-41.5 20.7c13-6.4 26.3-12.7 41.4-20.4m-39.4 22.6a530 530 0 0 1 40.3-20.5m-40.1 20.4c11-5.9 21.5-11.3 39.8-20.1m-37.5 21.6c9.5-5 21.2-12 38-19.4m-38 18.5c8-4.5 16.9-8.6 36.8-18.3m-34 20.3c8.2-4.5 16.7-9.4 34-17.7m-34.7 16.6c9-4.2 17.4-8.3 34.5-16.7M206 276.1c10.9-5.8 22.3-10.3 32.5-14.7m-32.5 16c9.1-4.8 18.5-9.8 32.7-16.5m-31 16.4c7.4-1.6 14-6.9 30.2-15.1m-29.6 16c8.2-3.9 15.8-7.9 29.9-15M208 281c12.3-5.4 22.4-12.2 31-16.1M209 280a620 620 0 0 1 29.4-15m-23.2 14.1c5.3-3.3 11.6-5.1 18.7-8.7m-19.8 8.6c7.3-3.7 14.6-6.6 18.5-8.6m-12.5 8.1 8.8-4.4m-9.4 4.7c3.6-1.4 7-3.5 8.9-4.6"/><path stroke="silver" d="M211.8 230.1c5-.7 11.9 1.4 16.4 4.4 4.6 3 9.4 8.7 11 13.7 1.5 5 .7 11.6-1.6 16.4a28 28 0 0 1-12.1 12 27.7 27.7 0 0 1-31.8-7.4 27.1 27.1 0 0 1-4.8-16.6c.4-5.4 3.1-11.7 7.2-15.4 4-3.7 13.8-5.7 17-6.7 3-1 1.7.3 1.8.5m4.9-.6a29 29 0 0 1 14.7 10c3.5 4.2 6 10.3 5.9 15.4a26 26 0 0 1-7.1 15.4 27.3 27.3 0 0 1-15.1 7c-5.4.8-12.5 0-17.2-2.9-4.8-2.8-9.8-9-11.5-14-1.7-5-.6-11.3 1.5-16a27 27 0 0 1 11.1-12.3c4.7-2.4 14.1-2.3 17.1-2.5 3-.3.9.5.8 1"/></g><g fill="none" stroke-opacity=".1" stroke-width="1.5"><path stroke="#fdd9be" d="M411.5 163.9c3.7-1.4 5.9-3.4 11.4-5.6m-10.5 5a97 97 0 0 0 10.2-5.5m-12.7 9.6c6.6-4.7 13.5-6.1 21-10.3m-21.7 10c5.1-2.2 9.2-5.1 20.3-10.6m-22.7 14.2a442 442 0 0 0 26-13.3m-25 13a238 238 0 0 0 25-13.3M405.3 174a329 329 0 0 1 29-15.1m-29 14.5c10-5 20.6-10.4 29.5-14.3m-29 17.2c7.7-5 16.6-8.6 32.2-16m-32.7 15.3c11.5-6.1 23.7-11.9 31.5-16.1M404.7 178c11.3-4.5 20.3-11 34.3-16.5m-33.6 16.3a833.3 833.3 0 0 1 34.8-17m-35.9 19.6a411 411 0 0 0 37.3-18.2m-36.5 18c9.2-4.3 18.4-8.7 37-19m-35.3 20.6c15.3-7.6 30.5-16.1 38-19.2m-39.2 19.2c11.4-5 21.9-11 39.2-18.6m-38.3 21.2c9.6-5.6 17.2-9.8 39.7-20.5m-40 21c8.7-4.2 16.9-8.8 39.6-20.9m-40.3 23c13.6-6.2 25.3-12.6 40.8-20.7m-40.6 20.5c11.4-5.5 22.9-11.5 41.8-21.3M405.7 189a481.3 481.3 0 0 0 42.8-21.7m-42.2 22c16.8-8.4 32.7-16.9 41.8-21.6m-42 24c15.5-8.4 29-15.3 42-22.8M406.3 191c8.4-4 17-8.6 43-21.2M407.5 192c12.7-6.5 25-11.4 42.1-21m-43.2 22c9.5-4.2 17.6-9.1 43.5-21.5M408 194c13.7-5.7 27-12.6 42.4-20.4m-43 21.2c9.5-4.5 18.4-9.5 42.9-22m-40 23.9c13.3-7.6 24.7-14.5 42.2-21.8m-42.4 21c12.8-7.1 26.9-13.9 41.4-21.5m-39.6 23.8c15.8-8.3 30.6-17.6 41.2-21.1m-42 20.8c14.6-8 29-15.2 41-21.8m-39.3 22c11.1-4.2 22.5-10.7 41.5-19.7m-40.8 20.4c14.5-7.4 29.3-15.5 40.3-20.3m-39.3 22.3 39.8-21.2M414 201c15.7-7.8 30.6-15.6 39.2-20m-36.8 20c9.4-4.4 19-8.2 36.7-18m-36.6 18.6c9-4.2 17.7-9.2 35.6-18.7m-34 20.3a339 339 0 0 1 34.3-16.5m-34.8 16.2c12.6-5.5 25-12.5 34.3-17m-30.2 18c9-4.5 15.9-8.8 29.3-15.3m-28.5 15c11-5.7 21.5-11.3 29-15M426 202.8c5.4-2.2 12.3-4.6 24-12.5m-24 13c6.2-2.5 11.8-5.3 24.5-12.1m-21.4 12.4c7.8-3.3 15.1-6.6 20.7-9.7M429.6 204c4.2-2.4 9.3-5.3 20.2-10.2m-15.7 9.9c6-3 11.9-5.4 16.8-8.8m-17.3 8.7c5.3-1.8 10-5 17.4-8.6"/><path stroke="silver" d="M430 156.2a27 27 0 0 1 15.8 6.8 24 24 0 0 1 3.8 30.9c-3 4.4-8.5 8.7-13.7 10.2-5.2 1.5-12.7 1-17.8-1.2-5-2.1-10.2-6.7-12.4-11.4a26.3 26.3 0 0 1-1.1-16.8 28.7 28.7 0 0 1 9.4-14.5c4.3-3.1 13.5-3.7 16.4-4.3 2.8-.6.5.1.5.5m-4.7-.4c4.8-.9 11.3 1.4 15.8 4.4a30 30 0 0 1 11 13.5c1.7 4.9 1 11.3-1.2 16a30.1 30.1 0 0 1-12.3 12.5 24.8 24.8 0 0 1-16.1 1.5A30 30 0 0 1 408 195a25.7 25.7 0 0 1-4.7-16.7 29 29 0 0 1 7.7-15.5c3.8-3.9 12.1-6.3 14.6-7.5 2.5-1.1.2 0 .3.6"/></g><g fill="none" stroke-opacity=".1" stroke-width="1.5"><path stroke="#fad8cc" d="M153.2 461c6-3.2 11-5.5 16-7.6m-15.1 7.1c5-2.8 10.3-5 14.6-7.7m-15.6 11c5.6-2.9 11.7-7.1 20-11M152.7 463c7.8-4.1 15.9-7.7 19.8-10m-20.4 13.4c8.6-5 18-9.5 23.5-13M152 466c9-5 18-10 24-12.8m-25.3 16.2a132 132 0 0 1 28.9-14.7m-28.9 13.9 29-14.8m-29 17.8c7.6-4.4 13-8.4 32.8-17.5m-33.1 16.7c7.4-4 15.4-7.5 32.7-16m-33.8 19.5c9.8-5.8 19.3-10 35-18.1m-35 17.6c13.4-7 27.1-14.2 35.2-17.7m-37 19.8c14.9-7.1 31.3-14.5 38.7-18.5M148.5 477c12.2-6.5 24-12.5 37.7-19.5m-39 21.8c12.4-5 24.3-11.6 40.3-18.9m-40.5 19c12.1-6 25-12.2 39.5-19.7M147.7 481c9-4.2 18.6-9 40.1-19.5m-40 20.1c9.5-5.1 18.9-9.4 41.4-21.2m-40.7 22.2c13.8-6 26-13.6 41.3-20m-41 21c8.1-5.2 16.6-9.3 40.6-21m-40 22.7c14.4-8.2 28.5-14 42.4-21.1m-42 21c15.7-8.9 32-16.8 41.3-21.8m-42.5 24.2c12.6-5.2 22.1-12.4 43.6-22.8m-42.4 22.7c12.5-6.6 26.3-13 42.8-21.8m-41.2 23.4c9.3-4.7 17-9.1 41.5-20.9m-42.3 21.1c16.4-8.8 31.8-16.6 43-22m-41.3 23.4c13.7-7 25.7-13.7 43.7-21.1m-44.3 20.9 43.7-21.4m-43.6 23.7c12.5-6.6 26.5-12.4 43.7-21.7m-43 21.9c16.5-8.4 33-16.8 42.3-22m-41.5 23.7c9.2-5.1 18.3-9.5 42-20.9m-42 21c12.6-6.3 25.3-13.2 42.2-21.8m-40.7 23.8a493 493 0 0 1 40.5-20.5m-40.8 19.4c8.2-3.8 17.3-8.5 40.9-20.7M157 495.8c8-3 16.1-7.9 38.7-18.8m-37.9 20.2c10.2-5.8 19.7-10.6 37-19.8m-35.4 20.8c9.9-5.3 20.4-11.7 36.9-18m-36.4 17.9c6.6-3.7 14.4-7.6 36.2-19m-34.7 20.7c8.2-5 16.4-8.6 35.5-17.2m-34.5 16.5c12.5-7 25.3-13.5 33.5-17m-32 18.3c12-7.2 24.5-12.4 32-15.6m-31.8 15.9a571 571 0 0 1 31.9-16.9m-29.1 16.6c8.7-3.4 18.3-9.3 29.1-14m-29 15a887 887 0 0 1 29.1-15.6m-27.7 17.5c5.5-4.1 10-6 25.4-14.5m-25.3 13.4c5.8-2.6 10.9-6 24.9-13m-17 11c3 0 5.8-2.2 14.7-7.6m-15.3 8.4c4.4-2 8.3-4.2 15-7.8m-8 6.7c1.7-1 3.8-2.3 5.5-2.9m-5.5 2.6 5.3-2.7"/><path stroke="silver" d="M165.5 452.3a25 25 0 0 1 17.3 2c4.8 2.6 9.4 8.5 11.6 13.5a26 26 0 0 1 1.3 16.7 30.5 30.5 0 0 1-11.1 14.3 25 25 0 0 1-16.2 3.2 28.2 28.2 0 0 1-15.5-7.4 26.4 26.4 0 0 1-6.4-15.9c-.2-5.5 2-12.5 5.3-17 3.4-4.3 12.1-8 14.6-9.5 2.5-1.4.5.4.5 1m5.1-.6a25.3 25.3 0 0 1 25 20c.8 5.4-.8 13-3.6 17.8-2.8 4.9-8 9.5-13 11.4a28.3 28.3 0 0 1-18-.4c-5-2-10-6.9-12.6-11.7a28.3 28.3 0 0 1-2.8-17c1-5.3 4.5-11.2 8.6-14.7s13.4-5.6 16-6.4c2.6-.9-.7.8-.6 1.3"/></g><g fill="none" stroke-opacity=".1" stroke-width="1.5"><path stroke="#efd6fd" d="M367.5 387.8c6.5-2.7 12-7 16.7-8.2m-16.7 8c6.7-3.2 12-6 17.3-9.2M366.4 391c7-3.7 13.9-7 21.7-11.1m-21.5 11c6-3.5 12.1-6.5 20.7-11.4m-23.7 13.7c10.5-4.8 21.3-9.7 27.5-12.3m-27 13c5.7-2.9 12-6.2 26.1-13m-26 16a149 149 0 0 1 29-15m-29.5 14c8.6-3.8 16.7-8.3 30-14.8m-32.2 19.3c12.3-7.6 24.3-13.5 34.5-19.6M362 400c7.5-4.4 16.4-8.7 34.4-18.1m-33 20.2c9.9-6.8 21.7-11.7 36.8-19.4m-37.9 18.9c8.5-4.3 16.8-9.2 36.6-19.1M362 403.9c9.2-4.6 19-10.6 39.5-19.7m-39 19.6a1154 1154 0 0 0 38.2-20.3m-37 20.9c11-5.2 20-10 39.9-18.7m-40 19.3c12-5.7 23-11.5 39.5-19.3m-39.4 21.7c13.4-6.7 25.7-13 40.8-20.3m-41.2 20.5c16-7.8 30.4-15.3 40.4-20.4m-39.2 22.5c11.2-5.5 22-11.5 39.8-20.5m-40.2 20.4c8.7-5.4 17.9-9.5 40.3-20.7m-39.2 22.6c8.1-3.9 18.2-10 39.5-21.3m-40.3 21c8.7-4.2 17.7-8.6 41.5-20.7m-40.8 23.4c15.8-9.2 32.3-16.6 41.2-21.9m-40.8 21.5 40.4-21m-40.7 22.4c13.3-5.4 26.7-12.3 43.2-20.3m-43 20.6c8.8-4.8 17.1-9 42.3-21.9m-42.5 24.6c15.3-8.8 31.3-16.1 44.5-23.3m-43.9 23.6c13.8-7.9 28.2-15.3 43.2-23m-42.8 23.5c14.3-7.1 27.1-12.6 44.3-20.6M367 419.5c10-4.9 18.2-9.7 43.5-22m-41.8 23.8c15.7-8.3 31.7-16.4 42.2-22.3m-41.7 21.5c13.9-6.7 27.4-14.4 41-20.7m-39.7 21.8c9.8-5.6 19.2-8.8 39-18.4m-38.7 18.1c11.8-6 23.4-12 38.6-18.6M372 423.9a425 425 0 0 1 37.8-19.2m-36.6 18.6c7.6-4.2 15.7-8.4 35.8-19M374.3 425a227 227 0 0 1 34.2-17.6m-33.8 17c6.5-3.9 14.3-7.2 33.8-17.1m-32.4 18.2c10.5-4.7 21.4-11.8 31.8-15.2m-31.2 15.9c8.2-4.8 16.3-9.4 31.5-16.8M378 426.9c6.6-2.3 12.7-5.2 29.2-14.8m-29 15c7-3.6 14.7-8.2 29.2-15m-29.1 16.4c12.3-5.5 21.3-10.3 29.7-14.3m-29.5 14.5c8.5-3.6 17.2-8.1 28.7-14.4m-23 15.2c5.3-3.7 10.2-6.7 22.6-12.1m-23 11.8c6-4.1 12.3-7 24-13.1m-19.6 12.5c5.2-2.8 9.8-5.6 14.7-8m-14.8 8.2c6-2.9 11.3-5.9 15.4-7.8"/><path stroke="silver" d="M384.6 377.9a24 24 0 0 1 16 4.6c4.3 3.2 8.4 9.2 9.5 14.6 1 5.5-.5 13-3 18s-7 9.7-11.9 11.7a28 28 0 0 1-17.2.4 24.4 24.4 0 0 1-12.5-10.2 30.8 30.8 0 0 1-3.8-17.3 27 27 0 0 1 7.8-15.4c3.9-3.6 13-5.3 15.7-6.3 2.8-1 .6-.3.7 0m3.5-.5A27.9 27.9 0 0 1 411 403c0 5.5-2.5 12.5-6 16.7a28.6 28.6 0 0 1-15.4 8.3c-5.3 1-11.6-.3-16.1-2.9a26 26 0 0 1-10.8-12.8 32.6 32.6 0 0 1-.5-18.6 25.6 25.6 0 0 1 11-13.2c4.6-2.7 14.3-2.8 17.2-3.2 3-.3.3.4.2 1"/></g><g fill="none" stroke-opacity=".1" stroke-width="1.5"><path stroke="#dcdbf9" d="M582.5 312.3c5.5-2.7 11.5-4.4 15-6.4m-15.1 7.2c5.1-2.6 10-4.7 15.3-7.6m-16.2 10.8c4.3-2.9 10.7-5.6 21.5-10.7m-22.3 10.1c4.9-1.6 8.6-3.9 21.2-11m-22.6 13.7c5-2.7 9.7-5.8 24-12.3m-23.8 13c10-5 19.7-9.8 24.1-12.7m-27.5 17c7-3.7 13-7.8 30-16.3m-30.2 16c12.3-6.6 23.2-12 31-16.3m-31.2 18.5c10.2-4.3 19.2-10.4 33.7-16.3M576 325a335.5 335.5 0 0 0 33.7-17.3m-34.2 19.6c12-6.5 24-11.4 37.1-18.4m-36.3 18c12.5-6 24.3-12.2 36-18m-34.2 19.5c13.4-6.2 26-13 35-17.6m-36 18.6 36.6-18.8m-36.3 20.8c12-7 25.8-14 39-21.3m-39.2 20.8c12.8-6.5 26-13 40.3-20m-40.5 22c14-7 27.2-13.4 42.1-20.6M577 333.4c14.1-7.4 27.2-13.6 41-20.7M578 336c11.6-5.8 23.2-12.9 40.6-21.6M577.1 336a709 709 0 0 1 42.3-21.6m-40.4 23c12.3-7 27.4-13.6 40.2-21.9m-40.9 22a538 538 0 0 1 42.2-21m-41.7 22.6c11.5-5.2 22.3-11.1 41.7-21.3m-42 22c12.2-6.3 23.4-12 42.4-22.1m-43.2 23.4c11.5-4.4 23.2-10.4 44.7-21.3M578.6 342c10.5-5 21-11 43.4-22.2m-41 23.5c10.3-5.9 21.2-10.8 40.9-21.7m-42.3 21.3c15.5-7 31.6-15.5 43.7-21.9m-41.6 23.7 42.4-21.6m-42.6 21.6c11.4-6 23-11.3 42.5-21.7m-42.2 23.2c18-7.5 33.1-16.4 43.6-20.2m-42.7 20.1c10.6-5 21.6-10.2 41.8-21.4m-39.5 22a321.6 321.6 0 0 0 41.2-20.3m-41.6 20.9c13.4-6.6 26.3-12.6 41.2-21m-39 22.8c12-7.3 25.8-13.8 37.5-18.8m-38 18.3c9.7-5 19-9.4 38-19m-36.7 21.6c9-4.7 18-9.9 35.7-18.7m-36 18.7c13.8-7.2 28.7-14.5 36.6-19m-34.4 19.3c10.8-6 23.2-10.7 32.6-17.5m-31.7 17.2c8.2-3.5 17.1-8 32-16.7m-28 17.3c6.8-3.6 13.4-6 28.2-14.2m-28.9 15c9.7-5.2 20.2-11 28.9-16m-25.5 14.9c9.6-4.4 18.7-8.6 24.2-12.6m-23 13.4c6.5-3.4 13-6.6 24.2-12.8m-20.8 13a641 641 0 0 0 19.9-10m-20.3 10c5-2.6 11-4.9 20.3-9.8M606.3 353c2.7-2 6-4.5 15.3-8.8m-15.5 7.9c5.1-2.2 9.8-4.5 15.4-7.6"/><path stroke="silver" d="M601.1 304c5.2 0 12.3 2.8 16.2 6.4 4 3.7 6.8 10.1 7.4 15.5.5 5.5-1.3 12.6-4.3 17-3 4.5-8.2 8.2-13.3 9.7a29.7 29.7 0 0 1-17.2-.8c-5-2-10-6.9-12.4-11.6a26.6 26.6 0 0 1-1.5-16.6 27 27 0 0 1 9-14.3c4.4-3.3 14.4-4.9 17.2-5.7 2.9-.8-.1.4-.2 1m2.5.4c5.2 1 12.3 5 15.5 9.2a26.3 26.3 0 0 1 4.1 16.2 25.8 25.8 0 0 1-5.3 15.4c-3.3 4-9.6 7.7-15 8.5-5.3.7-12.6-.7-17.2-3.8a28.7 28.7 0 0 1-9.8-31.2 30 30 0 0 1 12.3-12.9c4.7-2.5 13.3-2 16-2.3 2.8-.2.7.8.5 1.1"/></g><g fill="none" stroke-opacity=".1" stroke-width="1.5"><path stroke="#dde790" d="M111 684.7c2.3-1.5 7.5-4 16.7-8.6m-17.1 9.4c6-3.6 12.7-6.6 17-9m-19.3 11c6-2.8 10.8-5 22.4-9.4m-22 10.7c6.9-3.8 13.9-7.8 22-11.5m-24.3 14.6c11.1-5.2 22.3-11.3 27.6-13.2m-27 12.5c8.5-3.8 16.7-8.6 26-12.7m-29 15.7c12.3-4.3 23.3-10.5 32.5-14.8m-31.8 15c9-4.3 17-8.7 31.8-15.7m-32.1 18a184 184 0 0 0 34.7-17.6m-35.3 18.8c7.9-4.4 15.8-8 35.3-17.8m-35.2 20c13.3-7.2 25.1-12.5 37.7-20.1M105 699.3c11.6-6.2 23.6-12.2 36.2-19m-37.4 22c13.4-7.4 26.3-14 40-21m-38.6 19.9c12.8-6.7 26.2-13.9 38.4-19.5m-37.5 20.8c14.4-6.3 28-13.3 37.8-18.5m-38 19.5c7.3-4.6 15.9-8 39.1-20M105.8 705c13.1-6.3 27.2-13.3 40.6-19.9m-40.8 20.4 40-20.3m-39.5 22c11.2-5.5 23-11.7 39.7-20.2m-39 20.5c13.4-6.7 26-13.6 39.5-20.3m-40 23.2c8.8-4.9 18-9.7 41.5-23.1m-41 22.3 42-21.8m-42 23c9.4-3.5 18.7-9 42.9-20.8m-42.3 21.2c9.4-4.2 19.8-9.8 42.5-20.8m-42 23.9c13.1-7.8 27-13.8 42.1-23m-42.8 22.2c11.2-6 23.1-11.2 43.7-22m-41.8 24.1c11.3-6.4 23.7-13.5 42.7-21.1m-42.2 20.7c13.4-7.7 27.5-14 41.4-21.4m-39.4 21.7c17-8 32.6-16 42.2-20.9m-42.8 22c14.8-7.4 28.5-15 42-21.8m-39.8 21.7c9.2-4.4 21.4-9.3 39-19m-39.4 20.3c14.8-8.3 30-15.3 39.4-20.7m-37 21a311.4 311.4 0 0 0 37-19.2m-37 20a340 340 0 0 1 37.4-18.8m-35 19.7c13.6-6.2 26.9-13.3 35.5-17.2m-36.7 17.6c7.7-4 15-7.4 35.6-18.4m-33 19.6c10.3-5.8 20.4-11.9 33-16m-34 16.3c7.6-3.3 14.3-7.6 33.8-16.6m-32.4 17c11.8-5.2 23.8-11.5 31-14.2m-30 15.2a770.7 770.7 0 0 0 31.3-16.3m-30 18.2c12.6-7.6 23.8-11.8 30.1-16.6m-29.5 16.1c10.1-6 20-10.7 28.7-15m-23.5 14.9c4.3-4 11.4-6.5 24-12.9m-25.3 13c6.9-3.6 13.8-7.4 24.6-12.2m-19.8 12a104 104 0 0 0 14.3-7m-14.1 6.5c5-2.7 10.3-5.1 14-7.3"/><path stroke="silver" d="M127.1 675.4c5-.5 12 2 16.3 5.2 4.2 3.2 8.2 9 9.4 14.2 1.2 5.1.4 11.8-2 16.4a26 26 0 0 1-12.3 11.2c-5 2-12.2 2.4-17.4.8a26.4 26.4 0 0 1-13.4-10.1 28 28 0 0 1-4-16.7c.7-5.1 3.8-10.5 7.9-14 4-3.6 13.6-6 16.4-7.2 2.7-1 .4.2.3.6m3.3.2c4.9.3 11.5 3.4 15 7.2a27.9 27.9 0 0 1 6 15.8 25 25 0 0 1-4.3 15.6 29.4 29.4 0 0 1-14.8 10 25.8 25.8 0 0 1-28-15.2c-2-5-1.7-12.7-.1-17.7 1.6-5 5.4-9.4 9.7-12 4.4-2.7 13.5-3 16.4-3.7 2.8-.6.7-.3.9 0"/></g><g fill="none" stroke-opacity=".1" stroke-width="1.5"><path stroke="#afecd9" d="M326.2 608.5c4.1-1.6 8.2-4 11.4-6m-11 6c3-1.4 5.9-2.7 10.8-5.3m-14.3 10c6.6-3 14-7 19.7-10.2m-20.8 9.5c5.1-2.6 11.2-5 20.6-10.2m-22.5 13.6c7.4-3.8 17-7.3 29.2-14m-29.8 14.5c8-4.2 15.9-7.7 29-14.4m-29 17.5c6.6-3.2 13-8 31-16.6M320 618.7c11.2-5.7 21.6-10.5 29.9-14.9m-30 18.1c7.5-3.8 13.5-7.2 31.6-17.4m-31.7 16.2c7.4-3.1 15.4-7.2 32.6-15.9m-33 19.4a390 390 0 0 1 34.6-19M320.3 623c10-4.8 20.9-10.5 33.8-16.5m-33.7 18.2c10-5.7 23-10.9 34.7-17m-35 18c7.5-4.2 14.6-8 35.2-18.5M319 629c7.3-5.5 15.5-8.4 40-20.4m-39.7 20c10.7-5.8 22.6-11.8 39-20.6M319 630.3c15.1-7.4 31.2-15.2 41.6-20.5M318.5 630c10.8-4.5 20.4-9.6 41.8-20.8m-41.7 22.9a530.4 530.4 0 0 0 44.1-21.5M319 632.3c9.2-4.5 17.7-8.6 42.4-21.4M320 634.2c10.3-5 21.2-11.6 44.2-21.7m-43.8 21.8c13.5-6.5 27.9-14.2 43-22.4m-41.9 24.5c16.2-10 34.8-17.3 42.8-21.9m-43 21.6c11.4-6 22-11.8 43-22.4m-41.8 24.8a459.3 459.3 0 0 1 43.8-22m-43.4 21c17.2-8 34.3-17 42.7-21.3m-42.8 22.7a1317 1317 0 0 0 43.6-20.8m-42.8 21.1c15.6-7.6 30.4-16 41.9-20.8m-41 23.5c16.2-8.6 31.5-17.2 41.5-22.3m-41 21.7a919 919 0 0 0 41-21.5m-41 23.5c11-5.4 20.5-11.5 41.7-21.2M325 643c13.9-7.2 26.8-14 41.2-21.3m-38.2 22c14.7-7 28.8-14.3 39.6-21m-40.5 21.5c10.7-5.2 22.5-11.4 40.4-20.5m-38.8 22.8c14.3-8.8 30.5-16.8 38.7-21m-39.1 20c10.7-5.3 21.8-11 39.6-20.1M329.3 647c9.8-4.7 22.2-9.5 38.4-19m-39.2 19.5a686.1 686.1 0 0 0 39.3-19.9m-34.5 21c11-5.9 23-13.2 34.8-18m-35.3 17.2c8.4-3.4 15.7-7.6 34.4-17m-32.1 18.7c7.1-3.5 13.9-6 31-15.7m-30.6 15.3c10-5.7 20.5-10.5 30-15.6M338 649c10.8-4.5 20.4-9.2 27.4-12.5M338 650c9.3-5 17.5-9.2 26.8-13.3m-23.4 13c8-4 14.8-6.6 21.2-10.3M341.9 650c8.2-3.6 15.5-7.5 20.8-11m-17.2 11.5c4.2-1 8-4.4 16-7.5m-16 7.2c6.5-2.9 13.5-5.8 17-7.7"/><path stroke="silver" d="M349.1 601.8a26 26 0 0 1 14.3 9.1 27.5 27.5 0 0 1 4.5 16.5 26.9 26.9 0 0 1-6.8 15.5c-3.7 3.8-10 6.9-15.4 7.5-5.4.6-12.6-1-17.2-4a27 27 0 0 1-10-13.9c-1.5-5.1-1.1-12 1-16.8a26 26 0 0 1 12.3-12c5-2.2 15-1.3 18.3-1.4 3.3 0 1.8.8 1.6 1.1m-14.1-1.6a26.4 26.4 0 0 1 17.5 1.4c4.9 2.5 9.6 8.6 11.6 13.6s2 11.3.2 16.2c-1.7 5-6 10.4-10.5 13.2a29.5 29.5 0 0 1-17.2 3.7 27.3 27.3 0 0 1-15-7.6 26.1 26.1 0 0 1-7-15.2 27.4 27.4 0 0 1 5-16.5c3.2-4.1 11.7-7 14.2-8.4 2.6-1.4.7-.5 1-.2"/></g><g fill="none" stroke-opacity=".1" stroke-width="1.5"><path stroke="#e8df9e" d="M542 534.1c3.3-2 6-2.7 10.1-4.8m-10.5 5c3.6-2.2 7.8-4.1 11-5.3m-14 9.9c8.3-5.8 15.2-8.9 21-12m-20.4 10.6c5.2-2.2 11-5.5 20.3-10m-23.2 15.2c8-5 17-11.1 24.9-13.8m-25.5 12.5c5.3-1.8 10.3-4.7 26.7-13m-27.5 17c6.5-5.6 15.8-8.5 28.8-16m-29 15.4c7.6-4 15.6-8.8 28.8-14.7m-28 17.7c8.6-5.5 18.2-11 30.9-17.4M534 546.9c10.6-5.5 21-10.6 32.8-16.6M534 548c11-3.9 20.1-9.7 34.8-16.2M535 549.4c9-4.7 18-9.3 33-17.8m-34 20c9.9-5.4 20.4-9.4 35.7-18.7m-35.2 18.6a887.6 887.6 0 0 1 35.7-18.2M535 554c9-5.2 20-11.3 38.4-19.8M534.9 553c11.2-5 21.6-11.4 37.8-19.6m-38.6 22.8c8.8-4 17.7-9 41.6-21.6m-41.8 22c11.6-6.3 22.7-12 40.7-21.4M533 557.9c14.5-6.3 29-13.4 44-20.7m-43.2 21.5c10-5.2 19.9-10.7 43.2-21.7m-43.4 24c11-5.8 20.7-11.4 44.4-21.9m-44.2 21.5c12.8-6.7 26.5-12.9 43.4-22m-41.5 22.9c15.4-7.1 31.3-14.2 43-20.3m-43.1 21.2c15.5-8 31-16.2 42.7-22.6M535.8 564c13.1-5.4 24.7-13 42.9-22.5m-42.5 22.2a891 891 0 0 1 43-21.3M538 565.1a335 335 0 0 0 41.7-21m-41.2 21.5c9.3-5.8 18.3-9.8 40.5-20.9m-39.1 22c8.5-4.7 17.8-8.2 40.9-21.4m-41.4 21.2c13.3-6.8 26.6-13.3 40.7-20.9m-38.5 22c9.2-4 17-7.5 39.7-20.6m-40.2 21c15.6-7.7 30.4-16 39.7-19.7m-38 21.6c7.2-4.6 16.2-8.8 39-20m-39.6 20a960.3 960.3 0 0 0 40-20.8m-38.4 22.2c11.7-5.6 25.6-12.7 37.7-18.6m-38.1 18.8c9.6-4.6 17.6-9.5 38.3-20.1m-37.6 22.1c13.2-7.7 25.6-14 37.9-18.1m-37.8 17.5 37-18.4M545 576c8.6-5.8 17.7-10 34.7-17.9m-33.9 17c12-6 25.6-13 34.7-18M548 575.8c11-5.3 22.5-10.5 31.2-15.4m-30.2 15c8.6-4.4 16.5-9 30.5-15m-26.4 15c6.5-3 15.3-8.2 24.5-13.7m-25.3 14c7.1-3.7 14-7.2 26.4-13.1m-22 13.2a148 148 0 0 0 19.2-10m-20 10.7c5.4-2.3 9.6-5.2 20.5-10.8"/><path stroke="silver" d="M561.4 527c5 .6 11 4 14.5 8.2a29 29 0 0 1 6.3 16.3c0 5.3-2.3 11.5-5.8 15.5s-10 7.4-15.2 8.4c-5.3 1-11.7.4-16.3-2.2a28 28 0 0 1-11.4-13 26.7 26.7 0 0 1 11.1-29.7c4.6-2.8 14.3-3.3 17.4-3.6 3-.4 1.2.9 1.1 1.4m-6.2-1.8c5-.2 11 3 15.2 6.4 4.2 3.4 8.8 8.8 10 13.9 1.2 5 0 12-2.7 16.6A28.4 28.4 0 0 1 566 574a26 26 0 0 1-16.6.5c-5-1.7-10.6-6.4-13.4-10.9a25.5 25.5 0 0 1-3.5-16.3 27 27 0 0 1 8.7-14.2c4-3.5 13.2-6.1 15.7-7.1 2.4-1-1 .6-1 1.2"/></g><g fill="none" stroke-opacity=".1" stroke-width="1.5"><path stroke="#adf298" d="M68.4 907.4c5.9-2.9 9.6-6.3 17.6-8.8m-18 8.6c5.9-2.3 11-5.5 18.3-9.2M67 910.8c4.6-2.8 10.5-5 21.6-11.2m-22 11.1c8.3-4.4 16.6-8.6 21.7-11.9m-23.6 14.7c8.8-4.2 14.6-7.1 27.2-14m-26.5 14a400 400 0 0 1 25.6-14m-26.8 17c11.8-5.4 21.8-11.8 31-15.5m-31.5 15.2c11.3-5.6 22.8-11.8 30.5-15.1M63 918.7c11-5.4 21-11.8 33.3-17.4m-33 17.6c10.1-4.8 19.4-10 33.3-17m-36 19.2c12.5-4.5 24.4-11.5 38.6-19m-38 19.5c14.2-7.4 29.5-14.6 38.6-19.4m-39 22.2c14.8-7.8 28.4-13.7 41.4-19.7m-41.4 19.7C74 917.8 87 910.8 101 904m-38 23a237 237 0 0 1 40-20.6M62.6 926l40.3-20.5m-39.5 21.7c15-7.4 32-16.5 41.3-21m-41.1 21.4c11.9-6.1 23.8-12 40.6-20.2m-40.6 22c10.6-3.9 20.6-10.5 41.3-19.8M63.5 930c10.3-6 21.2-11 41.5-21.4m-40.6 23.7c16.5-8.6 32.3-17.6 41.5-21.3m-42 20.5c17-8 32.7-15.8 42.7-21.4m-42.5 24c9.2-4 19.4-9.8 42.7-21.2M64 934.2c9.6-5.5 19.2-10.2 44-22.8m-42.9 23.9c10-5 20.5-8.7 43-22.4m-43.5 23.3c11.3-5.7 22.4-12 44.1-22.5m-43 23.7c11.2-4.8 22-11.3 44.5-21.8M66 937.4c17-8.3 35.2-18 44.5-22.3m-44.2 24.7c13.8-8 29.7-16.2 44.7-23m-45.4 22.9c10.8-5.3 21.2-10.8 45.3-22.6m-42.7 23.8c14.7-5.9 27.4-14 44-22.5m-43.8 22.4c12.6-6 24.4-11.8 42.5-21.3M71.3 943c9-6 18.5-9.9 38.3-20.8m-39 19.5c7.8-4.5 16.4-8.2 40.2-20.4m-38.7 22a520 520 0 0 0 37.5-19.6M72.5 944c12.7-7.3 26.8-13.7 37.7-20.5m-35 21.3A329 329 0 0 1 111 926m-36.1 18.7c10.7-5.4 21.1-10.8 35.6-18.8m-34.8 19.2c10-3.1 17.7-8 33.9-16.9m-33 17a533.3 533.3 0 0 1 33.8-16.6M78.9 947c9.6-5 19.3-9.8 32-15.5m-32.3 15.4c12-5.5 23.7-11.8 32.3-16m-30.7 16.6c8.2-3 14.5-5.7 29.1-13.7m-27.8 13.8a242.5 242.5 0 0 1 28.1-13.7m-23.3 13.6c7-4.7 15.8-7.6 19.4-9.4M86.9 947c5.4-2.4 11.2-5.7 18.8-9m-13.3 9c2.4-2.1 6.3-3 8-4.6m-8.4 4.2a342 342 0 0 0 8.8-4.2"/><path stroke="silver" d="M83 897.6c5.1-1 12.4 1.7 17 4.6 4.6 3 9 8 10.5 13.1s1 12.5-1.3 17.4c-2.2 4.9-7 9.7-11.9 12a29 29 0 0 1-17 2 27.1 27.1 0 0 1-15-8.6c-3.3-4.3-5-11.6-4.7-17 .3-5.4 2.6-11.4 6.5-15.4s13.8-7 16.8-8.3c3-1.3.9 0 1 .5m-4.3.8a28 28 0 0 1 17.3 2.8c4.8 2.6 9.5 8 11.4 13A24.3 24.3 0 0 1 99 943.7a32.5 32.5 0 0 1-18.3 4c-5.6-.8-11.4-5-14.9-9a25 25 0 0 1-6-15.3c0-5.2 2.8-11.7 6.4-16 3.7-4.1 13-7.6 15.5-9.1 2.6-1.5 0 0 0 .4"/></g><g fill="none" stroke-opacity=".1" stroke-width="1.5"><path stroke="#bbe5fc" d="M284.2 831.1c3.8-2.3 8.3-4.1 10.7-6m-10.9 5.6c2.2-1.3 4.3-2.1 10.9-5.5m-15 9c7.5-2.8 14.4-7 21.7-10.3m-20.8 11.3a371 371 0 0 1 21.5-11m-24.8 13.7c10.1-5.4 19.3-10.4 28-12.3M277.9 838c8-3.6 15.6-8 26.8-13.3M278 840.6c6.3-2.2 12-5.3 29.4-15.2m-30.4 16c7.6-4.3 15.3-7.8 29.6-15.3m-29.9 16.5c8.6-3.7 16.6-6.4 33-15.5m-32.4 16.3c9.8-5.5 19.3-10 31.6-16.4m-32 17.6c10.3-4.2 19.3-8.4 33.7-16.9m-33.4 18 33.6-17.8m-34.6 20.4c13.2-7.9 26.5-14.2 37.2-19.4m-35.9 18.4c12.8-6.5 26.4-13.8 35-17.9m-34.8 21A220.4 220.4 0 0 1 316 831m-38.5 19c15.3-7.8 30-15.8 37.5-19.3m-37.6 21.1c8.2-3.6 18.6-9 40.4-20.7m-40.6 21.3c9.1-4.6 17.8-9 39.6-20.8m-39 23.6c12.1-8.7 25.7-14 41.8-22.3m-42 21.7c14-7.8 28.7-15.2 42.4-21.6m-42.1 23c9.2-4.3 17.9-8.5 43.4-21.4m-44 22.4c12.2-6.7 25.6-13 44-22.6M277.5 859c17.2-10 34-17.2 43.8-22.8m-43.7 22.4c11-6 22.2-11.5 43-22m-42 23.3c11-5.6 23-10.3 43.8-21m-43.2 21.7c16.1-9 33.1-17 42.3-22.4m-41.3 24c14.3-7.4 27.6-13.9 42.7-22.1M280.6 862c9.8-5 19.2-10.2 42.4-21.5m-41.4 22.3c11.5-5.9 25.7-12 41.6-20M282 862.9a1766 1766 0 0 0 41-20m-40.3 21.3C296 857.7 308.6 853 323 844m-39.6 20.7L323 844m-39 21.7 40-19.2M284.2 867a877.6 877.6 0 0 1 40.5-20.6M286 868.5c11.1-6.7 22.2-10.8 39.1-21.5m-39 20.8c9.3-4.7 17.8-9 39-20.4m-37.8 21.9c14.2-7 27-13 35.7-19m-36 19.2c8.5-4 17.2-8 37-18.3m-35.2 20.6c8.2-4.8 16.8-8.3 34.8-17.3M288 871.3c9-5.1 18.9-9.8 34.3-18m-30 18c9.2-3.6 17.7-9.3 30.2-15.3m-30.8 16.2c10.8-5.6 22-11.5 30-16.1m-26.4 16.4c9.2-5 18.6-11.2 25.2-12.6M295 872.7c6.8-3.4 12.3-6.8 25.9-13.2m-23.2 12.8c5.7-2.7 11.7-6.3 22.5-10.9m-22.8 12.2c8.2-4.7 15.4-7.9 23.1-11.9M302 874a60 60 0 0 1 17.5-10.1m-18.1 10c5.3-2.7 10.6-5.6 17.9-9.2"/><path stroke="silver" d="M304 823.4a28 28 0 0 1 15.5 9 24 24 0 0 1 5.4 15.5c0 5.4-2.5 12.6-6 16.8a26.5 26.5 0 0 1-14.5 8.5 25 25 0 0 1-16.5-2.8 30.4 30.4 0 0 1-11.2-13.7c-2-5-2.4-11.5-.6-16.5a30 30 0 0 1 11.6-13.6c4.8-2.7 14-2.5 17-2.8 2.9-.3.8.5.8.9m-6.4-.8a27 27 0 0 1 16.6 4.9 26 26 0 0 1 9.3 14c1.2 5 .2 11.5-2.4 16.3a30.8 30.8 0 0 1-12.7 12.7c-5 2.2-11.8 2-17 .5a26 26 0 0 1-14-9.5 29.5 29.5 0 0 1-3-17.7c.7-5.4 3.5-11.5 7.4-15.1 4-3.6 13.4-5.2 16-6.2 2.7-1 0-.3-.1.2"/></g><g fill="none" stroke-opacity=".1" stroke-width="1.5"><path stroke="#fbd3fe" d="M496.4 757.2c5.3-1.2 11-3.9 18.1-7.5m-18.3 8.1c5-2.7 10.4-5 18-9.1m-19.7 13c4.4-3 8.2-5 20.8-11.9m-20.4 11c4.8-2.5 9.9-5.4 21-10.7m-22.3 14.2c7.4-3.2 13.9-7 24.1-13.3m-23.9 12.8 24.3-13.2m-26.8 17.1c9-4.3 16.5-9.1 30.9-15.3m-30.2 14c10-5 20.2-9.8 29.6-14.7M489.3 771c13.8-7.9 25.4-12.8 34.3-17.6m-33.3 17c10.5-5.9 21.3-11.4 33.5-17.7M491.2 771c9.8-5 19.7-9.3 35.1-18m-35 18.6c12.7-6.4 25.3-13.3 35.7-17.5m-35.4 19c11.7-4.8 24.8-12.7 37.3-18.3M491.3 774c9-5.2 18-9 37.1-19.6M492.2 776c7.4-3.4 15.5-7.7 38.3-19.5m-39.1 19.7c11.8-6 22-11.7 38.4-20m-37.6 22c9.8-6.5 22-10.6 40.5-20.8m-41 20.6c14.4-6.7 28.2-14 40.4-19.8m-38.4 22.2a839.6 839.6 0 0 1 38.8-21m-39.3 20.1c8.3-3.7 17.4-8.6 39.9-19.8m-41.2 22.6c12-6 21.1-11.4 41.7-21.6M492.4 782c8.6-4.4 16.9-8.9 41.4-21m-41 23.8c16.3-9 32.6-17 42-22m-40.8 21c11-6.4 23.4-11.6 40.9-20.7M493 785.9c14-6.2 25.4-11.9 42.5-21.6m-42 22c13.4-7.4 27.7-13.9 41.5-21.2m-41.4 22.2c18-8 34.5-16.7 43.6-19.8m-43 20.2c11-5.9 23.2-11.3 42-21m-41 23.9c11.2-7 23.8-12 42.7-22.4M495.5 790c11.8-6.5 23.4-12.2 42.9-21.8M498.2 792a261.2 261.2 0 0 1 40.9-22.5m-42 21.4c16.4-7.6 31.2-16.2 41.7-21.2M499.5 792c13.3-5.5 26.2-13.5 38.9-19m-39.7 19.8c14.5-7.9 29.4-14.8 40-20.2m-38 20.8c9.5-4.2 19.3-10.2 38-18m-38.2 18.9c11.7-6.1 22.6-12.2 37.7-20M502.8 794c11.8-4.7 22.5-10.3 36-16.4m-36.1 17.9c12.7-7 25.3-14 35.3-19m-33 19.3c7.7-4.4 16.5-8.3 33-16.4m-33.4 17.2a295 295 0 0 1 33.2-17m-33.4 19.5a330.5 330.5 0 0 1 34-16.7m-32.8 15.8c12-5.8 23.2-11.9 32.2-16.1m-31.3 18.3c9-5.4 18.3-11.4 30.5-17.1m-29.5 16.4c8.8-5 18.1-9.2 29.8-15.2m-25.8 15.2c8.5-4.8 17.6-9 24.9-13.8m-25 14c8.8-4.8 17.2-8.8 25.6-13.3M516.4 800c2.6-2.5 5.7-3.5 14.3-7.6m-14.8 7.3a833 833 0 0 0 15.5-8.3"/><path stroke="silver" d="M513.5 748.7a27 27 0 0 1 25.2 20.5c1 5.2.3 12.2-2.2 17a28 28 0 0 1-13.2 11.7c-5 2-12.3 1.7-17.2 0a25 25 0 0 1-12.2-10.5 30.5 30.5 0 0 1-4-17c.7-5.4 3.5-11.8 7.5-15.3 4.1-3.6 14-4.8 17-5.7 3-1 1.4-.3 1.5 0m.1 0a28 28 0 0 1 15.7 7c3.8 3.6 6.8 9.5 7.2 14.8a31 31 0 0 1-4.7 17.2c-3 4.4-8.4 8.2-13.5 9.6a28 28 0 0 1-16.9-1.4 25.3 25.3 0 0 1-11.7-11.5 26.7 26.7 0 0 1-1.4-16.7c1.3-5.1 5.4-11 9.8-14.1 4.3-3.1 13.6-3.9 16.3-4.6 2.6-.8-.2-.4-.4 0"/></g><g fill="none" stroke-opacity=".1" stroke-width="1.5"><path stroke="#f5d5e2" d="M450.6 982.5a131 131 0 0 0 19.1-9.6m-18.2 9.4c3.8-1.5 7.8-4 17.3-8.4M451.1 985c7.3-3.2 16.5-9.2 20-11.6m-20.6 11.3c6.4-3 12.7-6 21-11M448 989.1c9-5.3 18.2-9.2 26.5-13.4m-26.3 12.6c8.3-3.8 15.5-7.5 27.6-13.8m-27.3 16.2c7-3.3 14-6.6 29-14.8M447.8 991c7.9-3.8 15.1-7.7 30.2-15m-31.1 17.6c13.5-6.1 25.9-12.8 35.6-16.7m-36.9 17c13.9-6.6 27.9-14 36.3-18m-35.3 20c9.8-4.2 20.5-10.6 38.8-20.3M446 996.7c8.8-5 17.7-9.7 39.9-21.1m-39.8 23c16-7.8 30.5-15.4 40.5-20m-40.2 20c8.8-5.2 17.7-9 40.7-20.3m-38.4 21.4c13.5-6.6 27.5-14.7 39.4-20m-40.7 20.2c16.5-7.6 31.6-15.7 40.5-19.9m-39.6 22.1c14-7.7 27.4-14 42.1-20.5m-43 20.2a582 582 0 0 0 42.8-21.2m-41.6 23.2a4042 4042 0 0 0 42.4-20.6m-42.5 21c15.3-8.2 29.8-15.6 41.8-21.9m-41.7 23.4c9.3-3.3 18.8-8.7 42.7-22.1m-42.1 23c15.2-8.7 31.4-16.4 42.1-22m-41.6 22.7c16.3-7.5 31.8-16 41.8-20.3m-42.2 21.2c12.2-6.3 24-12.6 43.4-21.7m-42.8 23.7c9-5.6 19.4-9 44.4-23.5m-43.6 23.6c13.8-7.3 27.6-14 43.8-23.1m-44.4 25.2a552 552 0 0 1 45.2-22.5m-45 22.4c15.4-8 29.6-15 45.2-23m-43.4 23.5c9-4.4 19-9.1 44.7-21m-44.5 21.3c16.8-8.3 33-16 43.6-22.1m-41.4 23.7c13.7-6.8 27.1-13.4 42.4-22M454 1015a928.9 928.9 0 0 1 42.2-21.9m-41.2 22c11.4-4.5 23-10.3 40.2-19.7m-38.8 20.4a837.4 837.4 0 0 1 40-19.9m-37 20.7c12.4-6.3 25.1-12.4 37.4-19m-38 19a898 898 0 0 1 37-18.5m-35.5 19.5c7.6-3.6 16.3-7 36-17.8m-35.4 18c8.2-4.1 17-8.3 35.5-17.8m-33.7 19c11.8-5 22.4-10.5 34-16m-34.5 16c12.7-5.9 26-12.3 33.9-16.4M464 1021c7.8-3.9 15.8-9 33-16.2m-32.8 15.7 32.1-15.7m-31 17.7c9.6-5.7 19-9.4 31.1-15.7m-30.6 15.1c6.5-2.7 13-6 29.9-14.5m-24.8 14.5c7.7-3.3 15.6-8.3 25.4-12m-25.1 12.3c7.2-4.4 14-7.4 25-12.7m-19.2 12c4.4-2.4 7.3-3.8 13.1-7.5m-12.6 6.8 12.2-6"/><path stroke="silver" d="M468.3 971.8c5-.9 12.7.8 17.2 3.8 4.6 3 8.3 8.8 9.9 14.1 1.6 5.3 1.8 13-.4 18a26.8 26.8 0 0 1-12.8 11.6 27 27 0 0 1-17 2 29.3 29.3 0 0 1-14.8-9.8c-3.2-4.4-5-11-4.6-16.4.4-5.3 3.1-11.7 7.1-15.7 4-4 14.2-6.7 17-7.8 2.7-1.2-.5.5-.5 1m8.2.1a26 26 0 0 1 14.7 8.9 29.1 29.1 0 0 1 4.9 17.5 28.4 28.4 0 0 1-7.3 16.3 26.3 26.3 0 0 1-15.7 7 28 28 0 0 1-16.7-4.7 30.5 30.5 0 0 1-10.7-14.3 25.5 25.5 0 0 1 1-17c2.3-4.7 7.3-9.5 12.4-11.8 5-2.4 15-1.8 18-2 3-.3.1 0 0 .4"/></g></svg>