<svg xmlns="http://www.w3.org/2000/svg" width="600" height="1039.23"><g fill="none" stroke-opacity=".1" stroke-width="1.5"><path stroke="#fbd7dd" d="M26.715 87.958c3.181-1.42 5.893-3.045 10.458-4.455M26.82 88.036c2.659-1.263 4.597-1.962 9.897-4.577m-12.343 8.815c3.99-1.832 10.1-4.519 17.951-9.308m-18.621 9.647c5.808-4.094 12.336-7.281 18.874-10.715m-21.55 14.19c10.278-5.46 19.571-11.376 27.137-14.775M20.58 95.803c5.167-2.654 11.163-5.607 26.764-13.37M19.48 98.83c12.271-5.73 22.426-12.027 30.869-14.777m-30.75 14.945c7.99-4.883 15.676-8.196 30.424-16.24M20.26 100.503c12.928-5.478 23.86-12.735 31.287-15.687M19.943 100.92c9.151-4.54 19.701-9.498 32.48-16.146m-32.327 17.413c9.583-4.245 20.63-8.832 34.692-15.541m-34.996 16.411c8.994-4.307 18.86-9.256 34.227-16.831m-33.311 19.945c7.505-4.779 16.385-9.787 34.754-18.123m-35.468 17.096c6.79-4.202 14.704-7.02 35.355-18.554m-34.525 21.405c8.085-5.337 18.032-9.967 38.195-19.323m-39.537 18.404c11.709-6.112 24.08-11.679 39.111-18.947m-38.506 20.926c10.049-3.7 20.269-9.819 40.22-20.33m-40.24 21.139c14.607-7.595 29.18-14.91 40.245-20.703m-40.35 23.027c13.848-6.376 26.162-13.736 42.858-21.346m-43.087 21.243c11.18-5.828 20.858-10.643 41.853-21.798m-42.833 24.437c9.692-4.744 19.302-9.624 44.408-22.78m-43.61 22.347c11.631-6.194 24.805-12.796 43.304-22.18m-41.898 23.7c8.836-4.619 20.134-9.784 43.543-21.788M20.417 116.19c14.974-7.625 29.688-14.94 42.868-21.804M21.158 119.09c11.13-5.996 21.82-11.954 43.656-23.996m-43.968 23.593c11.113-5.972 21.396-11.66 43.542-22.869m-42.327 22.84c10.983-4.917 21.287-9.42 42.73-20.874m-42.41 21.919c10.246-5.537 20.007-9.796 42.436-21.677m-41.768 22.366c16.733-6.994 32.27-15.929 43.251-21.27m-42.24 21.732c15.33-7.467 30.993-15.742 41.173-20.675m-40.797 22.63c15.996-7.46 32.024-15.63 42.52-20.963M25.042 123.18c10.152-5.408 22.036-11.066 41.709-21.51m-40.048 23.357c13.57-7.462 29.425-15.328 38.986-20.39m-38.942 19.826c15.166-7.606 30.482-15.24 40.164-20.252m-40.183 21.515c16.26-7.593 32.398-16.652 40.607-20.37m-39.869 20.678c8.764-4.688 17.763-8.506 39.682-20.611m-37.217 21.13c6.514-2.64 14.861-6.8 38.257-19.195m-38.782 20.198c9.305-5.056 17.74-9.421 39.339-19.55M30.942 128.9c10.207-4.133 18.715-9.15 36.75-17.726m-36.95 17.477C44.09 122 58.068 115.648 67.407 109.8m-33.442 20.424c10.178-6.259 18.617-10.71 31.837-16.39m-31.93 15.747c7.466-4.42 15.761-7.77 33.145-16.635m-30.01 18.063c7.098-4.11 14.426-7.015 27.642-14.352m-27.604 13.416c6.08-3.166 12.48-6.727 28.152-14.033m-25.41 15.315c7.397-3.886 14.015-7.282 25.014-13.262m-23.653 12.169c5.212-2.579 9.802-4.702 22.797-11.415m-19.526 12.785c3.276-2.165 7.74-4.216 17.572-9.64m-17.222 9.234c3.41-2.2 6.462-3.532 16.535-9.31"/><path stroke="silver" d="M47.47 81.517c5.035.644 11.402 4.606 14.758 8.716 3.355 4.11 5.479 10.618 5.375 15.942-.104 5.324-2.66 11.905-5.997 16.002-3.337 4.097-8.76 7.557-14.023 8.58-5.263 1.022-12.78.156-17.553-2.447-4.774-2.602-9.286-8.022-11.087-13.169-1.801-5.146-1.543-12.598.28-17.71 1.824-5.11 5.752-10.36 10.66-12.958 4.907-2.598 15.343-2.312 18.787-2.631 3.445-.32 2.016.277 1.88.716m-9.28-2.06c5.17-.765 12.333 1.729 16.535 4.908 4.202 3.18 7.332 8.898 8.676 14.168 1.344 5.27 1.493 12.6-.613 17.453-2.107 4.853-7.124 9.363-12.025 11.663-4.9 2.3-12.03 3.4-17.38 2.138-5.351-1.262-11.582-5.177-14.722-9.708-3.14-4.532-4.723-11.89-4.118-17.482.606-5.59 3.966-12.246 7.75-16.063 3.783-3.817 12.358-5.822 14.951-6.838 2.594-1.015.433.398.61.744"/></g><g fill="none" stroke-opacity=".1" stroke-width="1.5"><path stroke="#dadafb" d="M240.444 14.263c2.663-.872 5.415-2.136 11.338-4.937m-10.81 5.16c3.578-1.603 6.986-3.61 10.434-5.051m-13.164 9.567c6.18-2.865 12.21-6.866 20.93-11.987M238.25 18.657c7.49-3.91 15.257-8.442 21.32-11.405M237.345 21.04c5.78-2.418 11.542-6.26 25.734-13.074m-26.235 13.063c8.038-4.204 16.723-8.406 25.361-12.568m-27.341 16.357c6.089-3.004 13.073-6.396 28.68-16.098m-29.007 15.506c11.164-4.938 21.495-10.26 29.3-15.017m-29.835 17.344c9.508-3.507 17.611-7.636 32.584-15.735m-32.196 15.5c12.288-5.918 24.207-11.958 32.63-15.938m-32.096 17.887c9.235-2.914 17.849-8.544 32.916-16.81m-33.242 17.153c8.061-4.2 15.88-8.075 34.26-17.192M234.507 31.16c14.56-6.26 28.46-13.877 36.582-18.22m-36.707 18.177c13.218-6.46 26.644-12.588 36.813-18.715m-37.232 21.21c12.154-5.136 23.022-11.15 39.585-19.196m-38.292 18.767c11.683-6.042 22.875-12.19 37.76-19.302M235.25 35.273c11.739-4.552 22.895-11.982 40.251-19.49m-40.929 19.895c8.31-4.213 16.365-7.999 40.175-20.282M234.474 38.16c12.697-6.14 25.372-13.247 41.787-22.104m-41.688 21.645c11.735-5.392 22.523-11.57 40.765-20.748m-40.15 23.345c16.106-9.357 32.268-17.2 41.943-21.647M235.82 39.336c11.256-5.592 21.93-11.205 41.055-20.418m-40.643 23.71c8.044-5.666 16.584-8.651 40.908-21.795m-41.455 21.328c10.489-5.638 20.38-10.893 41.77-21.59M235.491 44.37c16.36-9.193 33.354-15.704 43.854-22.013m-43.107 21.379c16.02-7.54 31.99-16.607 41.887-21.37m-40.612 22.672c11.405-5.46 24.422-11.109 41.718-21.477m-41.716 21.646c12.279-6.084 24.82-12.24 41.913-21.088M238.57 47.247c9.228-5.454 19.049-9.435 41.55-20.78m-41.405 20.771c14.941-8.026 29.145-15.011 41.73-21.508M240.98 49.275c13.692-7.439 27.71-14.757 39.711-21.956m-40.526 20.858c12.888-5.802 26.47-12.913 40.298-20.349m-38.976 23.407c8.08-4.684 16.8-9.312 40.451-21.366m-41.102 20.465c11.796-6 23.868-11.681 40.735-20.673m-37.77 22.88c13.989-8.443 28.044-14.794 38.441-20.352m-39.714 19.875c14.747-7.662 28.766-14.79 39.345-20.043m-38.005 21.61c10.428-5.809 21.25-9.791 36.686-18.774m-36.27 18.736c11.323-5.888 22.527-11.939 37.024-19.548m-34.89 21.392c12.459-7.835 23.041-13.174 35.73-19.105m-36.583 18.766c10.587-5.577 21.518-10.868 35.986-18.412m-34.43 19.958c7.812-5.175 14.611-9.213 33.998-18.063m-33.555 17.497c12.591-6.45 24.747-12.971 32.578-17.113m-28.797 17.103c10.926-3.855 21.464-10.222 28.568-14.522m-29.32 14.797c10.953-5.316 21.073-10.123 28.574-13.81m-24.84 15.394c5.54-3.426 10.855-6.082 24.846-13.876m-24.779 13.337c7.3-3.829 13.564-7.306 24.344-12.19m-20.82 13.01c7.498-4.089 13.001-7.65 18.227-10.312m-17.606 9.48c6.453-3.09 14.212-6.653 18-9.252"/><path stroke="silver" d="M259.795 6.933c4.97.23 11.197 3.68 14.856 7.564 3.658 3.885 6.754 10.297 7.096 15.744.343 5.448-1.902 12.535-5.041 16.941-3.14 4.407-8.738 8.199-13.795 9.499-5.058 1.3-11.895.624-16.548-1.701-4.653-2.326-9.284-7.337-11.373-12.253-2.09-4.916-2.465-12.022-1.16-17.243 1.303-5.222 4.515-10.92 8.984-14.084 4.47-3.165 14.607-4.257 17.83-4.905 3.223-.648 1.61.594 1.508 1.017M260.56 7.4c5.09.342 11.738 3.144 15.17 6.882 3.434 3.737 5.342 10.066 5.428 15.542.086 5.476-1.933 12.967-4.91 17.314-2.977 4.347-7.827 7.492-12.953 8.768-5.127 1.276-12.95 1.196-17.807-1.112-4.856-2.308-9.364-7.583-11.33-12.735-1.966-5.153-1.998-12.942-.466-18.182 1.532-5.24 5.165-10.42 9.66-13.257 4.497-2.838 14.643-3.25 17.316-3.768 2.674-.519-1.033.253-1.275.656"/></g><g fill="none" stroke-opacity=".1" stroke-width="1.5"><path stroke="#deddfb" d="M-16.916 312c5.156-2.496 10.822-4.12 14.036-5.975m-14.179 6.761c4.805-2.396 9.328-4.427 14.45-7.096m-16.234 10.746c4.282-2.814 10.649-5.51 21.471-10.679m-22.248 10.168c4.834-1.648 8.593-3.899 21.128-11.02m-22.532 13.702c5.071-2.783 10.024-6.055 24.781-12.822m-24.659 13.525c10.352-5.251 20.433-10.178 25.05-13.22m-27.476 17.102c6.98-3.787 12.992-7.85 29.99-16.347m-30.224 16.017c12.298-6.615 23.183-11.96 30.983-16.316m-31.222 18.456c10.006-4.161 18.764-10.09 32.832-15.801m-32.411 15.462c12.043-5.43 23.079-10.908 32.8-16.74m-33.316 19.084C-12.05 320.656-.494 315.89 12.382 309.1m-35.413 17.593c12.12-5.868 23.696-11.992 35.114-17.605m-34.21 19.522c13.75-6.37 26.563-13.388 35.84-18.112m-36.946 19.104c10.967-5.68 21.367-10.893 37.58-19.255m-37.2 21.216c12.195-7.117 26.314-14.291 39.82-21.782m-40 21.335c13.085-6.703 26.576-13.255 41.135-20.441m-40.487 21.829c13.685-6.786 26.62-13.037 41.274-20.097m-41.306 20.68c13.76-7.21 26.526-13.253 39.982-20.236m-39.116 22.925c11.43-5.59 22.733-12.556 39.848-21.14m-40.667 21.169c15.838-8.799 32.359-16.942 41.403-21.113m-40.382 23.015c12.263-7.12 27.382-13.678 40.164-21.912m-40.846 21.983c12.576-6.8 24.975-13.397 42.163-20.963m-41.645 22.606c11.42-5.248 22.237-11.154 41.63-21.318m-41.88 21.943c12.12-6.278 23.298-11.913 42.31-22.082m-42.276 22.966c11.225-4.336 22.724-10.182 43.76-20.809m-42.89 21.65c10.3-4.937 20.558-10.872 42.497-21.811m-40.946 23.54C-9.06 337.59 1.8 332.637 21.545 321.756m-42.275 21.352c15.46-6.978 31.602-15.546 43.666-21.905m-41.562 23.634c17.37-8.746 32.06-16.147 42.423-21.583m-42.625 21.616c11.411-6.034 23.023-11.327 42.47-21.704m-41.322 22.72c17.611-7.297 32.461-16.048 42.767-19.677m-41.802 19.658c10.338-5.007 21.111-10.042 40.848-20.96m-39.447 22.042c12.731-5.246 27.316-12.141 41.182-20.392m-41.652 20.924c13.39-6.61 26.298-12.55 41.238-20.923m-38.996 22.745c12.017-7.284 25.746-13.801 37.512-18.816m-38.05 18.327c9.688-5.123 18.933-9.423 38.121-19.074m-35.936 21.192c9.05-4.7 18.116-9.9 35.726-18.67m-35.984 18.645c13.817-7.196 28.664-14.475 36.61-19.027m-35.312 19.83c11.064-6.16 23.801-11 33.447-17.954M-9.987 351.42c8.49-3.652 17.613-8.325 32.971-17.17m-28.062 17.242c6.586-3.47 12.97-5.831 27.302-13.667M-5.72 352.24c9.371-4.983 19.541-10.67 27.966-15.39M-3.298 351.66c9.663-4.385 18.711-8.543 24.26-12.53M-2.06 352.502c6.526-3.374 13.052-6.633 24.206-12.804M2.253 352.207c7.039-3.429 15.41-7.6 19.836-9.996m-20.283 9.984c5.119-2.564 11.03-4.869 20.35-9.752M5.912 353.228c2.909-2.15 6.4-4.786 16.298-9.299m-16.417 8.322c5.366-2.374 10.32-4.78 16.302-8.005"/><path stroke="silver" d="M1.125 304.044c5.16-.009 12.266 2.714 16.19 6.362 3.923 3.649 6.83 10.105 7.35 15.529.519 5.424-1.302 12.58-4.236 17.018-2.934 4.437-8.275 8.137-13.37 9.605-5.095 1.469-12.277 1.26-17.198-.795-4.922-2.053-10.014-6.831-12.33-11.527-2.315-4.695-2.819-11.494-1.564-16.647 1.255-5.152 4.714-10.941 9.095-14.266 4.38-3.325 14.361-4.88 17.187-5.683 2.825-.802-.19.354-.234.868m2.504.517c5.137.955 12.238 4.934 15.51 9.155 3.271 4.221 4.317 10.901 4.12 16.173-.198 5.272-1.926 11.476-5.306 15.46S9.237 353.47 3.87 354.26c-5.368.788-12.704-.701-17.235-3.716-4.532-3.014-8.318-9.16-9.954-14.372-1.635-5.211-1.93-11.937.139-16.896 2.07-4.958 7.55-10.328 12.277-12.854 4.727-2.527 13.325-2.106 16.083-2.306 2.757-.2.577.768.46 1.106"/></g><g fill="none" stroke-opacity=".1" stroke-width="1.5"><path stroke="#adf0b1" d="M194.998 241.204c4.357-3.223 8.078-4.84 16.266-9.557m-16.836 8.203c4.944-1.653 8.956-4.056 18.154-8.544m-18.79 12.156c6.16-4.23 13.016-7.014 21.939-11.487m-22.165 11.538c6.894-4.062 13.781-7.06 21.123-11.575m-23 13.685c9.35-3.62 18.578-8.413 27.602-13.89m-27.26 14.58c9.991-5.51 19.844-10.611 26.551-13.936m-28.456 16.869c6.658-3.884 14.001-7.264 31.577-16.012m-31.158 15.715c7.113-4.023 15.008-7.628 30.108-15.586m-32.05 18.417c10.952-6.372 23.29-12.077 34.957-18.304m-34.119 18.303c12.773-6.464 26.496-13.103 34.189-17.397m-32.752 18.862c8.19-4.068 17.969-8.357 36.131-17.075m-37.321 17.757c12.096-5.555 23.894-11.885 36.933-18.297m-35.844 21.166c9.52-6.375 18.832-10.228 39.14-20.292m-39.897 19.268c8.826-4.096 19.048-9.096 39.094-19.579M189.941 257.6c10.684-3.554 18.916-9.78 40.436-19.324m-39.853 19.965c12.513-6.689 23.82-12.17 39.282-20.14m-38.602 21.486c13.532-7.258 28.47-14.089 41.017-19.655m-40.883 20.553c10.527-5.976 21.758-11.558 40.608-21.696M191 261.038c15.953-6.63 28.84-14.496 41.393-19.72m-40.506 20.57c10.657-5.25 21.243-11.084 41.15-21.113m-39.629 23.205c7.401-4.133 17.662-10.032 40.845-21.156m-41.996 20.56c16.485-8.03 32.038-15.768 42.71-21.168m-42.863 23.83c9.545-4.026 19.339-10.352 42.619-22.82m-41.745 22.514c16.002-7.788 32.048-15.73 42.505-22.056m-42.165 23.647c8.71-3.77 17.324-8.25 42.492-21.6m-42.507 21.602c15.825-7.775 31.969-16.246 43.24-21.71m-43.666 25.163c14.672-8.314 26.707-14.643 45.34-23.228m-44.134 22.406c14.62-7.543 29.063-15.518 44.17-23.108m-42.857 23.043c13.868-5.28 26.714-12.635 44.545-21.383m-43.652 21.95c12.973-6.102 25.128-12.185 43.01-21.88m-40.212 23.685c7.288-5.068 17.03-8.593 39.935-21.317m-41.382 20.742c13.032-6.443 26.282-12.696 41.373-20.43m-39.394 22.665c14.215-7.995 26.903-14.444 40.306-20.497m-40.122 20.34c11.065-5.864 21.54-11.278 39.792-20.08m-37.535 21.583c9.516-4.994 21.2-11.92 37.98-19.417m-37.888 18.59c7.925-4.555 16.826-8.696 36.784-18.386m-34.004 20.326c8.122-4.538 16.673-9.348 34.034-17.699m-34.805 16.64c9.078-4.28 17.46-8.334 34.569-16.728m-32.793 17.466c10.826-5.778 22.233-10.267 32.419-14.718m-32.409 15.995c9.081-4.727 18.453-9.697 32.696-16.449m-31.066 16.425c7.405-1.66 14.053-6.915 30.27-15.158m-29.617 15.992c8.127-3.824 15.783-7.836 29.853-14.9m-30.098 17.603c12.277-5.337 22.397-12.145 30.93-16.095m-29.933 15.304c11.719-6.133 23.334-12.238 29.387-15.029m-23.149 14.18c5.293-3.33 11.603-5.119 18.69-8.732m-19.85 8.601c7.377-3.648 14.654-6.625 18.545-8.616m-12.532 8.141c1.887-1.018 3.935-1.878 8.83-4.372m-9.453 4.654c3.678-1.412 7.11-3.464 8.926-4.556"/><path stroke="silver" d="M211.788 230.145c5.09-.723 11.882 1.333 16.437 4.341 4.556 3.009 9.329 8.697 10.893 13.71 1.565 5.014.771 11.625-1.507 16.373-2.278 4.749-7.288 9.855-12.16 12.118s-11.771 2.696-17.073 1.46c-5.302-1.235-11.485-4.609-14.738-8.874-3.252-4.264-5.18-11.367-4.778-16.714.403-5.346 3.168-11.689 7.196-15.365 4.027-3.677 13.834-5.666 16.968-6.693 3.134-1.028 1.767.252 1.833.527m4.896-.662c5.254.943 11.326 5.765 14.76 10.008 3.436 4.244 6.056 10.321 5.849 15.453-.207 5.132-3.395 11.597-7.089 15.337-3.694 3.74-9.69 6.405-15.076 7.1-5.385.695-12.453-.112-17.236-2.929-4.783-2.817-9.8-8.97-11.464-13.973-1.663-5.002-.62-11.32 1.484-16.042 2.106-4.723 6.44-9.822 11.147-12.295 4.707-2.472 14.116-2.275 17.096-2.539 2.98-.264.832.468.781.958"/></g><g fill="none" stroke-opacity=".1" stroke-width="1.5"><path stroke="#f8dbc5" d="M411.542 163.887c3.676-1.358 5.827-3.386 11.394-5.574m-10.57 4.982c2.285-1.029 5.518-2.695 10.255-5.538m-12.718 9.608c6.635-4.636 13.52-6.104 20.987-10.235m-21.706 9.983c5.161-2.253 9.213-5.136 20.358-10.642m-22.791 14.233c9.89-4.742 19.198-9.387 26.1-13.327m-25.11 13.097c5.43-2.518 11.404-5.35 25.006-13.358m-27.348 16.877c10.982-6.486 21.099-11.435 28.985-15.099m-29.056 14.482c10.076-4.933 20.711-10.363 29.534-14.251m-29.037 17.221c7.796-5.097 16.666-8.615 32.296-16.077m-32.675 15.376c11.45-6.148 23.668-11.902 31.441-16.194m-32.183 18.668c11.259-4.591 20.278-11.154 34.255-16.607m-33.573 16.244c12.135-6.125 24.57-12.343 34.79-16.876m-35.852 19.49c12.81-5.285 24.268-11.187 37.296-18.129m-36.474 18.05c9.12-4.418 18.384-8.758 36.863-19.08m-35.21 20.552c15.303-7.584 30.54-16.071 38.079-19.17m-39.233 19.251c11.375-4.963 21.84-11.092 39.159-18.676m-38.292 21.22c9.61-5.569 17.173-9.788 39.71-20.53m-40.062 20.985c8.71-4.11 16.939-8.753 39.632-20.81m-40.34 23.001c13.614-6.276 25.37-12.614 40.846-20.738m-40.625 20.524c11.428-5.56 22.89-11.526 41.782-21.353m-41.8 23.543c13.946-6.12 26.712-12.731 42.818-21.688m-42.166 21.91c16.817-8.316 32.686-16.789 41.78-21.542m-41.99 23.993c15.46-8.403 28.93-15.33 42.06-22.814m-41.942 22.135c8.39-4.037 16.944-8.65 42.907-21.159m-41.541 22.186c12.748-6.57 25.109-11.464 42.12-21.102m-43.229 22.146c9.512-4.275 17.631-9.21 43.555-21.529m-41.962 22.458c13.682-5.724 26.998-12.628 42.328-20.443m-42.99 21.2c9.48-4.428 18.363-9.504 42.896-21.888m-40.07 23.83c13.408-7.612 24.782-14.462 42.227-21.82m-42.31 21.057c12.717-7.169 26.805-13.91 41.319-21.564M411.903 198.2c15.794-8.289 30.611-17.617 41.15-21.125m-41.964 20.79c14.643-7.974 29.052-15.207 40.997-21.791m-39.333 22.105c11.156-4.262 22.575-10.79 41.53-19.795m-40.742 20.422c14.425-7.371 29.267-15.508 40.21-20.353m-39.266 22.384c11.602-6.23 25.281-13.467 39.807-21.267m-40.34 21.382c15.718-7.785 30.61-15.529 39.241-20.028m-36.774 20.149c9.346-4.474 19.025-8.27 36.636-18.072m-36.58 18.601c9.103-4.156 17.698-9.227 35.59-18.69M418.14 203.21c7.57-4.357 18.135-9.606 34.236-16.555m-34.75 16.23c12.566-5.485 24.983-12.522 34.317-17.029m-30.212 17.961c8.93-4.463 15.821-8.72 29.263-15.245m-28.487 15.012c10.974-5.654 21.464-11.284 28.925-14.919m-25.455 14.04c5.404-2.254 12.324-4.605 23.937-12.487m-23.89 12.907c6.138-2.436 11.815-5.27 24.473-12.047m-21.438 12.399c7.827-3.27 15.173-6.59 20.694-9.72m-20.19 10.379c4.19-2.461 9.306-5.297 20.247-10.196m-15.73 9.865c6.034-2.992 11.92-5.407 16.868-8.825m-17.387 8.745c5.324-1.84 10.091-4.943 17.392-8.603"/><path stroke="silver" d="M429.91 156.243c5.122.022 11.955 3.194 15.86 6.735 3.906 3.54 6.936 9.364 7.573 14.51.637 5.146-.842 11.926-3.75 16.366-2.907 4.44-8.452 8.764-13.694 10.272-5.242 1.509-12.721.882-17.76-1.22-5.037-2.104-10.21-6.699-12.467-11.397-2.258-4.699-2.476-11.576-1.08-16.795 1.396-5.22 5.16-11.383 9.454-14.521 4.294-3.14 13.502-3.686 16.31-4.313 2.81-.626.561.117.54.555m-4.693-.455c4.839-.835 11.317 1.468 15.794 4.448 4.478 2.98 9.444 8.504 11.072 13.43 1.628 4.927.962 11.365-1.304 16.128-2.265 4.764-7.564 10.128-12.29 12.454-4.728 2.327-10.827 2.745-16.073 1.505-5.245-1.24-12.042-4.67-15.4-8.942-3.358-4.271-5.254-11.312-4.747-16.685.507-5.374 4.067-11.727 7.79-15.557s12.077-6.276 14.546-7.422c2.47-1.146.16-.066.27.544"/></g><g fill="none" stroke-opacity=".1" stroke-width="1.5"><path stroke="#f7dacf" d="M153.159 460.972c5.964-3.2 10.956-5.488 15.976-7.588m-15.074 7.15c5.122-2.848 10.343-5.12 14.638-7.729m-15.562 11.034c5.547-2.904 11.648-7.185 19.894-11.042m-20.226 10.243c7.791-4.135 15.885-7.713 19.812-10.064m-20.417 13.38c8.642-4.977 18.033-9.42 23.462-13.028m-23.552 12.707c9.033-5.035 17.96-10.047 24.054-12.879M150.77 469.37c7.128-4.793 13.941-8.8 28.916-14.675m-28.85 13.88c10.76-5.424 21.196-10.726 28.884-14.755m-28.837 17.767c7.499-4.362 12.961-8.383 32.721-17.512m-33.145 16.753c7.437-4.005 15.422-7.484 32.727-16.083m-33.74 19.532c9.728-5.808 19.286-9.904 35.043-18.077m-35.065 17.576c13.402-7.054 27.092-14.143 35.147-17.708m-36.961 19.835c14.882-7.141 31.24-14.552 38.663-18.465m-37.811 19.46c12.213-6.541 24.129-12.532 37.755-19.464m-38.958 21.764c12.291-5.074 24.194-11.59 40.279-18.874m-40.534 18.987c12.123-5.99 24.988-12.17 39.524-19.726m-38.8 21.482c9.047-4.204 18.58-9.031 40.071-19.423m-39.949 20.094c9.442-5.168 18.835-9.462 41.344-21.229m-40.712 22.148c13.817-5.99 25.973-13.603 41.274-19.969m-40.976 20.949c8.134-5.154 16.588-9.254 40.592-20.88m-39.962 22.691c14.351-8.275 28.5-14.046 42.383-21.197m-42.013 21.104c15.727-8.905 32.017-16.9 41.35-21.859m-42.5 24.191c12.562-5.196 22.089-12.37 43.596-22.804m-42.432 22.744c12.456-6.6 26.274-13.02 42.837-21.788m-41.204 23.365c9.252-4.654 16.905-9.14 41.488-20.867m-42.322 21.113c16.45-8.855 31.787-16.686 43.087-22.107m-41.395 23.41c13.69-7.078 25.808-13.618 43.68-21.192m-44.217 20.931c10.709-5.33 22.408-10.965 43.62-21.43m-43.542 23.767c12.51-6.614 26.513-12.437 43.716-21.697m-43.036 21.835c16.51-8.4 33.07-16.81 42.306-21.91m-41.519 23.685c9.233-5.175 18.339-9.557 41.965-20.941m-42.053 20.973c12.727-6.298 25.374-13.187 42.295-21.789m-40.684 23.804c13.59-7.782 25.018-13.266 40.502-20.498m-40.832 19.438c8.253-3.844 17.282-8.545 40.866-20.752m-38.349 20.812c8.046-3.068 16.091-7.846 38.667-18.77m-37.85 20.147c10.209-5.802 19.715-10.608 37.005-19.756m-35.396 20.75c9.874-5.224 20.363-11.696 36.848-17.898m-36.353 17.81c6.575-3.714 14.346-7.613 36.187-18.93m-34.758 20.676c8.241-5.047 16.443-8.59 35.57-17.217m-34.49 16.454c12.502-6.93 25.292-13.438 33.456-17.037m-31.923 18.42c11.926-7.219 24.466-12.434 31.973-15.614m-31.872 15.839c10.942-6.056 22.379-12.378 31.912-16.834m-29.085 16.62c8.741-3.46 18.34-9.36 29.112-14.09m-28.917 15.077c6.358-3.603 14.289-7.955 29.007-15.616m-27.652 17.46c5.426-4.094 9.991-5.894 25.313-14.46m-25.28 13.41c5.86-2.627 10.92-6.001 24.898-12.947m-16.954 10.952c3.025-.125 5.808-2.241 14.682-7.589m-15.315 8.357c4.39-1.98 8.293-4.154 14.925-7.823m-8.007 6.68c1.786-1.003 3.864-2.281 5.628-2.855m-5.501 2.576c2.018-.99 4.031-1.97 5.238-2.707"/><path stroke="silver" d="M165.525 452.283c4.878-1.56 12.5-.553 17.307 2.038 4.806 2.59 9.392 8.478 11.53 13.506 2.138 5.027 2.932 11.49 1.299 16.658-1.634 5.168-6.56 11.43-11.1 14.348-4.54 2.917-10.867 3.858-16.14 3.155-5.274-.702-11.84-3.49-15.5-7.37-3.662-3.88-6.289-10.434-6.468-15.906-.18-5.472 2.062-12.51 5.391-16.926 3.329-4.417 12.077-8.137 14.58-9.574 2.504-1.437.448.435.443.953m5.164-.562c5.028-.374 11.69 2.047 15.836 5.377 4.147 3.33 8.12 9.196 9.043 14.605.923 5.409-.738 12.984-3.505 17.849s-7.945 9.511-13.097 11.341c-5.153 1.83-12.724 1.649-17.816-.36-5.092-2.01-10.149-6.905-12.736-11.693-2.587-4.789-3.765-11.756-2.788-17.038.978-5.282 4.544-11.135 8.65-14.654 4.107-3.518 13.428-5.608 15.99-6.456 2.562-.849-.732.846-.618 1.367"/></g><g fill="none" stroke-opacity=".1" stroke-width="1.5"><path stroke="#edd5fa" d="M367.533 387.785c6.447-2.665 11.897-6.896 16.643-8.226m-16.639 8.085c6.632-3.241 11.875-6.134 17.251-9.288m-18.345 12.691c6.866-3.742 13.84-7.136 21.616-11.151m-21.442 11.05c5.956-3.58 12.113-6.5 20.72-11.493m-23.771 13.744c10.503-4.768 21.293-9.736 27.525-12.28m-26.968 13.04c5.695-2.929 11.965-6.293 26.074-13.118m-26.066 16.13c6.178-4.713 12.488-7.601 28.997-15.123m-29.421 14.007c8.639-3.736 16.731-8.273 29.983-14.78m-32.17 19.293c12.234-7.535 24.291-13.476 34.515-19.553m-34.157 19.095c7.552-4.414 16.47-8.74 34.435-18.15m-32.955 20.247c9.818-6.854 21.645-11.746 36.732-19.426m-37.88 18.88c8.468-4.232 16.821-9.164 36.568-19.104m-36.643 21.522c9.176-4.589 18.88-10.584 39.493-19.665m-39.062 19.604a1153.994 1153.994 0 0 0 38.198-20.327m-36.995 20.909c10.952-5.154 20.1-9.977 39.92-18.72m-39.913 19.273c11.958-5.645 22.954-11.459 39.402-19.262m-39.382 21.668c13.45-6.653 25.728-13.005 40.764-20.297m-41.128 20.526c15.881-7.81 30.323-15.266 40.369-20.342m-39.217 22.446c11.23-5.51 22.005-11.468 39.837-20.534m-40.204 20.45c8.713-5.365 17.85-9.497 40.332-20.667m-39.24 22.575c8.103-3.89 18.176-10.001 39.464-21.274m-40.291 21c8.705-4.245 17.745-8.61 41.528-20.78m-40.845 23.446c15.795-9.217 32.318-16.647 41.256-21.89m-40.848 21.457c13.59-6.912 26.879-14.057 40.458-20.982m-40.69 22.449c13.291-5.454 26.69-12.353 43.117-20.369m-43.044 20.657c8.919-4.783 17.231-9.078 42.402-21.925m-42.473 24.612c15.253-8.765 31.21-16.164 44.451-23.315m-43.856 23.634c13.78-7.915 28.133-15.345 43.126-23.117m-42.754 23.55c14.326-7.087 27.132-12.545 44.29-20.586m-43.585 21.396c9.99-4.829 18.218-9.685 43.506-22.047m-41.868 23.823c15.749-8.297 31.73-16.38 42.287-22.294m-41.744 21.566c13.857-6.692 27.393-14.423 41.028-20.695m-39.732 21.79c9.798-5.666 19.225-8.856 39.053-18.434m-38.779 18.157c11.829-5.95 23.44-11.974 38.612-18.662m-37.407 21.251c9.345-5.527 18.597-10.213 37.82-19.259m-36.63 18.578c7.64-4.156 15.779-8.306 35.79-19.036M374.35 424.97c9.62-6.416 19.753-11.117 34.103-17.548m-33.781 17.049c6.551-3.977 14.31-7.27 33.862-17.168m-32.437 18.237c10.517-4.768 21.407-11.89 31.824-15.237m-31.27 15.874c8.253-4.744 16.355-9.378 31.515-16.802m-30.179 17.502c6.631-2.32 12.75-5.14 29.184-14.794m-28.958 14.95c7.04-3.527 14.717-8.106 29.2-14.943M378.3 428.509c12.326-5.472 21.333-10.28 29.682-14.297m-29.438 14.495c8.493-3.606 17.193-8.105 28.657-14.45m-23.05 15.224c5.3-3.714 10.246-6.713 22.645-12.086m-22.949 11.827c6.01-4.146 12.252-7.083 23.928-13.165m-19.593 12.548c5.216-2.77 9.785-5.586 14.763-8.052m-14.802 8.27c5.93-2.921 11.294-5.928 15.312-7.776"/><path stroke="silver" d="M384.6 377.851c5.016-.638 11.827 1.405 16.076 4.616 4.248 3.211 8.341 9.21 9.415 14.651 1.073 5.442-.497 13.05-2.974 17.998-2.477 4.947-7.042 9.67-11.887 11.686-4.845 2.016-12.231 2.038-17.182.41-4.95-1.628-9.792-5.587-12.523-10.175-2.731-4.588-4.519-11.902-3.863-17.355.657-5.453 3.871-11.747 7.8-15.364 3.93-3.617 13.044-5.286 15.777-6.337 2.733-1.05.573-.326.622.033m3.581-.482c4.854.625 11.337 4.84 14.925 9.073 3.588 4.233 6.504 10.835 6.602 16.327.097 5.491-2.455 12.459-6.018 16.622-3.563 4.164-10.12 7.447-15.361 8.36-5.242.912-11.614-.273-16.09-2.884-4.474-2.61-8.879-7.55-10.76-12.781-1.88-5.23-2.253-13.3-.525-18.6 1.728-5.3 6.191-10.47 10.895-13.204 4.703-2.735 14.418-2.825 17.326-3.203 2.909-.377.305.31.122.937"/></g><g fill="none" stroke-opacity=".1" stroke-width="1.5"><path stroke="#deddfb" d="M582.547 312.237c5.478-2.651 11.498-4.377 14.913-6.348m-15.065 7.184c5.105-2.546 9.912-4.704 15.352-7.54m-16.237 10.724c4.282-2.814 10.649-5.512 21.471-10.68m-22.248 10.168c4.834-1.648 8.593-3.898 21.128-11.02m-22.532 13.702c4.877-2.68 9.636-5.853 23.89-12.368m-23.768 13.072c9.995-5.073 19.721-9.818 24.158-12.767m-27.475 17.102c6.98-3.787 12.992-7.85 29.99-16.347M575.9 323.136c12.298-6.615 23.183-11.96 30.983-16.316m-31.222 18.456c10.245-4.287 19.243-10.338 33.723-16.255m-33.303 15.916c12.36-5.586 23.71-11.225 33.692-17.193m-34.207 19.537c12.126-6.493 23.963-11.401 37.169-18.36m-36.304 18.047c12.425-6.023 24.305-12.302 36.005-18.059m-34.21 19.522c13.416-6.196 25.896-13.045 34.95-17.658m-36.056 18.65c10.716-5.556 20.866-10.642 36.69-18.801m-36.31 20.762c11.914-6.973 25.753-14.004 38.928-21.328m-39.109 20.881c12.798-6.559 26.004-12.965 40.245-19.987m-40.487 21.829c13.988-6.938 27.225-13.344 42.165-20.55m-42.197 21.133c14.055-7.363 27.116-13.556 40.873-20.69m-40.007 23.38c11.689-5.726 23.249-12.822 40.739-21.595m-41.558 21.623c16.187-8.98 33.056-17.3 42.294-21.567m-40.382 23.016c12.263-7.12 27.382-13.679 40.164-21.913M578.322 337.6c12.576-6.8 24.975-13.397 42.163-20.962m-41.645 22.605c11.42-5.248 22.237-11.154 41.63-21.318m-41.88 21.943c12.12-6.278 23.298-11.912 42.31-22.081m-43.167 23.42c11.458-4.452 23.192-10.418 44.652-21.264m-43.783 22.105c10.522-5.047 21-11.095 43.389-22.266m-40.946 23.541c10.249-5.912 21.108-10.866 40.852-21.746m-42.274 21.351c15.46-6.978 31.602-15.546 43.666-21.905m-41.562 23.634c17.37-8.745 32.06-16.147 42.423-21.583m-42.625 21.616c11.411-6.034 23.023-11.327 42.47-21.704m-42.213 23.175c17.957-7.471 33.153-16.398 43.658-20.132m-42.693 20.112c10.57-5.12 21.572-10.272 41.74-21.414m-39.448 22.042c12.731-5.246 27.316-12.141 41.182-20.392M584.57 347.3c13.39-6.61 26.298-12.55 41.238-20.923m-38.996 22.745c12.017-7.283 25.746-13.801 37.512-18.815m-38.05 18.327c9.688-5.124 18.933-9.423 38.121-19.075m-36.827 21.646c9.05-4.7 18.116-9.9 35.726-18.67m-35.985 18.645c13.818-7.195 28.665-14.475 36.612-19.027m-34.422 19.377c10.761-6.007 23.197-10.695 32.556-17.501m-31.688 17.212c8.252-3.53 17.138-8.083 32.08-16.715m-28.062 17.241c6.799-3.573 13.393-6.043 28.193-14.12m-28.836 14.868c9.674-5.14 20.146-10.982 28.857-15.845m-25.543 14.81c9.663-4.385 18.711-8.543 24.26-12.53m-23.023 13.372c6.526-3.374 13.052-6.633 24.206-12.804m-20.784 12.963c7.04-3.428 15.411-7.6 19.836-9.996m-20.282 9.984c5.119-2.564 11.03-4.869 20.349-9.752m-15.362 10.3c2.748-2.031 6.045-4.52 15.393-8.783m-15.505 7.86c5.068-2.242 9.747-4.514 15.396-7.56"/><path stroke="silver" d="M601.125 304.044c5.16-.009 12.266 2.714 16.19 6.362 3.923 3.649 6.83 10.105 7.35 15.529.519 5.424-1.302 12.58-4.236 17.018-2.934 4.437-8.275 8.137-13.37 9.605-5.095 1.469-12.277 1.26-17.198-.795-4.922-2.053-10.014-6.831-12.33-11.527-2.315-4.695-2.819-11.494-1.564-16.647 1.255-5.152 4.714-10.941 9.095-14.266 4.38-3.325 14.361-4.88 17.187-5.683 2.825-.802-.19.354-.234.868m2.504.517c5.137.955 12.238 4.934 15.51 9.155 3.271 4.221 4.317 10.901 4.12 16.173-.198 5.272-1.926 11.476-5.306 15.46s-9.606 7.658-14.974 8.447c-5.368.788-12.704-.701-17.235-3.716-4.532-3.014-8.318-9.16-9.954-14.372-1.635-5.211-1.93-11.937.139-16.896 2.07-4.958 7.55-10.328 12.277-12.854 4.727-2.527 13.325-2.106 16.083-2.306 2.757-.2.577.768.46 1.106"/></g><g fill="none" stroke-opacity=".1" stroke-width="1.5"><path stroke="#dce68f" d="M111.083 684.708c2.217-1.462 7.373-3.928 16.642-8.65m-17.165 9.397c6.134-3.586 12.693-6.584 16.996-8.939m-19.3 11.06c5.972-2.83 10.825-5.17 22.462-9.503m-21.933 10.765c6.766-3.789 13.803-7.882 21.846-11.536m-24.219 14.629c11.092-5.254 22.335-11.343 27.546-13.199m-26.884 12.448c8.461-3.772 16.608-8.63 25.971-12.688M104.038 694.2c12.283-4.31 23.249-10.527 32.47-14.786m-31.773 15.045c8.918-4.368 16.944-8.77 31.753-15.791m-32.104 18.091c10.046-3.652 20.4-8.783 34.739-17.672m-35.296 18.862c7.847-4.421 15.796-8.13 35.276-17.883m-35.21 20.013c13.275-7.212 25.132-12.501 37.665-20.08m-36.448 19.336c11.569-6.2 23.602-12.187 36.218-19.097m-37.384 21.984c13.306-7.362 26.259-13.926 39.94-20.852m-38.56 19.807c12.774-6.72 26.205-13.828 38.416-19.47m-37.554 20.744c14.453-6.245 27.993-13.28 37.829-18.476m-37.96 19.513c7.283-4.539 15.848-7.912 39.063-19.962m-39.287 21.47c13.07-6.318 27.122-13.318 40.538-19.876m-40.808 20.352c13.395-6.732 25.683-13.003 40.072-20.253m-39.54 21.898c11.184-5.406 23.037-11.606 39.744-20.072m-39.1 20.503c13.49-6.764 26.123-13.603 39.607-20.395m-39.965 23.26c8.766-4.908 18.006-9.753 41.381-23.158m-40.922 22.386c8.22-4.371 17.22-9.074 41.878-21.804m-41.999 23.052c9.503-3.575 18.817-9.077 42.971-20.868m-42.243 21.184c9.383-4.182 19.727-9.81 42.453-20.813m-41.944 23.877c13.081-7.722 26.935-13.773 42.077-22.927m-42.846 22.167c11.218-6.04 23.144-11.207 43.732-22.023m-41.839 24.111c11.36-6.393 23.716-13.478 42.731-21.145m-42.216 20.76c13.448-7.726 27.502-13.923 41.36-21.408m-39.327 21.665c17.06-7.892 32.567-15.874 42.125-20.871m-42.707 21.954c14.765-7.348 28.501-15.028 41.921-21.758m-39.734 21.744c9.219-4.485 21.356-9.343 39.022-19.088m-39.42 20.385c14.75-8.36 29.96-15.379 39.362-20.78m-37.044 21.057c10.494-4.712 22.954-10.558 37.132-19.224m-37.043 20.1c10.387-6.273 21.607-11.835 37.346-18.907m-35 19.76c13.626-6.22 26.911-13.323 35.518-17.247m-36.731 17.628c7.764-4.043 15.023-7.428 35.676-18.394m-33.061 19.575c10.266-5.753 20.404-11.878 33.055-15.941m-34.034 16.224c7.596-3.315 14.285-7.568 33.75-16.591m-32.388 17.1c11.864-5.339 23.837-11.55 31.107-14.263m-30.036 15.193c11.447-5.672 22.31-11.347 31.229-16.303m-30.044 18.192c12.68-7.597 23.828-11.837 30.175-16.617m-29.48 16.136c10.092-6.035 20.068-10.774 28.7-15.068m-23.51 14.928c4.32-3.921 11.35-6.449 23.9-12.865m-25.237 12.923c6.903-3.565 13.854-7.347 24.667-12.155m-19.89 12.013c4.252-1.593 7.281-3.118 14.377-7.083m-14.146 6.557c4.958-2.712 10.359-5.078 13.975-7.283"/><path stroke="silver" d="M127.114 675.413c4.898-.484 11.961 1.91 16.244 5.14 4.283 3.23 8.22 9.126 9.455 14.237 1.234 5.111.342 11.822-2.05 16.428-2.39 4.607-7.36 9.215-12.298 11.214-4.937 1.999-12.203 2.343-17.323.78-5.12-1.562-10.497-5.684-13.4-10.154-2.902-4.47-4.657-11.55-4.017-16.667.64-5.117 3.82-10.51 7.859-14.034 4.038-3.525 13.578-6.02 16.37-7.114 2.794-1.095.418.157.388.545m3.294.18c4.866.333 11.47 3.405 14.962 7.243 3.491 3.838 5.7 10.554 5.987 15.784.286 5.23-1.095 11.343-4.269 15.599-3.173 4.256-9.542 8.74-14.771 9.937-5.23 1.198-11.93-.228-16.608-2.75-4.678-2.522-9.53-7.366-11.458-12.38-1.929-5.015-1.717-12.75-.113-17.708 1.604-4.958 5.391-9.422 9.739-12.037 4.347-2.615 13.472-3.037 16.347-3.654 2.875-.617.773-.312.904-.048"/></g><g fill="none" stroke-opacity=".1" stroke-width="1.5"><path stroke="#a5ecd6" d="M326.275 608.425c4.022-1.545 8.145-3.923 11.333-5.993m-11.001 6.069c2.977-1.436 5.889-2.698 10.754-5.342m-14.305 10.03c6.645-2.947 14.137-6.968 19.733-10.197m-20.793 9.491c5.135-2.616 11.186-4.888 20.632-10.21m-22.545 13.643c7.372-3.842 16.926-7.365 29.175-14.006m-29.773 14.466c8.042-4.175 15.873-7.64 29.044-14.392m-28.963 17.549c6.551-3.193 13.025-7.968 31.003-16.583m-30.681 15.762c11.171-5.744 21.563-10.486 29.9-14.895m-29.93 18.097c7.43-3.858 13.468-7.17 31.542-17.4m-31.734 16.175c7.388-3.125 15.464-7.212 32.648-15.885m-33.046 19.406c11.414-7.226 20.864-11.991 34.6-18.966m-33.613 17.759c10.036-4.844 20.906-10.485 33.895-16.485m-33.79 18.22c10.027-5.693 23.024-10.922 34.705-17.011m-34.906 17.97c7.435-4.155 14.506-8.01 35.133-18.467m-36.263 21.745c7.222-5.435 15.472-8.337 39.881-20.394m-39.583 20.017c10.714-5.758 22.553-11.767 39.031-20.646m-39.327 22.309c15.072-7.38 31.167-15.151 41.53-20.462m-42.082 20.183c10.853-4.472 20.431-9.628 41.801-20.756m-41.67 22.838c15.333-6.434 29.167-13.58 44.115-21.511m-43.694 21.736c9.205-4.511 17.711-8.59 42.39-21.394m-41.502 23.343c10.29-5.095 21.145-11.687 44.149-21.691m-43.759 21.784c13.455-6.523 27.895-14.279 42.966-22.438m-41.848 24.475c16.157-10.02 34.79-17.228 42.749-21.825m-42.92 21.553c11.369-6.007 21.863-11.789 42.975-22.358m-41.782 24.753c14.194-8.39 29.768-15.616 43.755-21.955m-43.445 20.88c17.278-7.949 34.318-17.007 42.756-21.266m-42.854 22.741c15.114-6.909 30.681-14.272 43.618-20.796m-42.818 21.124c15.644-7.608 30.416-16.102 41.928-20.868m-40.972 23.558c16.21-8.638 31.5-17.194 41.501-22.281m-41.05 21.666c14.944-7.368 30.044-15.358 41.005-21.511m-40.724 23.51c11.03-5.36 20.42-11.49 41.621-21.202m-41.709 20.997c13.92-7.186 26.837-13.912 41.212-21.324m-38.15 22.05c14.667-6.96 28.794-14.344 39.58-20.928m-40.47 21.394c10.677-5.216 22.476-11.372 40.34-20.43m-38.735 22.77c14.222-8.827 30.46-16.856 38.705-21.049m-39.15 20.016c10.71-5.287 21.82-11.08 39.576-20.102m-38.62 21.557c9.777-4.767 22.116-9.56 38.361-19.012m-39.226 19.492c13.864-6.314 27.538-13.57 39.317-19.886m-34.468 20.941c11.054-5.84 22.94-13.219 34.75-18.027m-35.333 17.28c8.465-3.425 15.723-7.612 34.463-17.016m-32.161 18.693c7.172-3.518 13.933-5.96 31.02-15.705m-30.585 15.262c10.044-5.635 20.528-10.429 30.04-15.547m-27.525 15.464c10.812-4.449 20.388-9.183 27.372-12.508m-27.377 13.64c9.304-4.925 17.545-9.237 26.796-13.306m-23.358 13.01c7.987-4.02 14.746-6.568 21.16-10.304m-20.692 10.452c8.157-3.525 15.49-7.51 20.802-10.953m-17.219 11.463c4.244-1.063 8.088-4.325 15.923-7.523m-15.844 7.21c6.41-2.844 13.386-5.766 16.88-7.615"/><path stroke="silver" d="M349.125 601.778c5.149.935 11.125 4.905 14.257 9.17 3.133 4.266 4.914 11.106 4.538 16.423-.376 5.317-3.1 11.648-6.796 15.48-3.696 3.832-9.949 6.91-15.38 7.514-5.432.605-12.675-.91-17.208-3.885-4.534-2.974-8.505-8.83-9.996-13.96-1.49-5.128-1.156-12.01 1.05-16.812 2.206-4.8 7.098-9.764 12.185-11.994 5.087-2.23 15.009-1.34 18.335-1.384 3.326-.045 1.78.76 1.623 1.115m-14.17-1.612c5.141-1.524 12.714-1.148 17.562 1.35 4.848 2.499 9.563 8.664 11.526 13.64 1.964 4.975 1.969 11.312.254 16.214-1.714 4.901-5.929 10.38-10.54 13.194-4.612 2.815-11.774 4.356-17.13 3.695-5.357-.662-11.33-3.866-15.008-7.662-3.678-3.796-6.718-9.84-7.064-15.115-.346-5.276 1.779-12.38 4.988-16.537 3.21-4.156 11.736-6.958 14.27-8.4 2.533-1.444.713-.476.93-.259"/></g><g fill="none" stroke-opacity=".1" stroke-width="1.5"><path stroke="#ebe298" d="M542.04 534.143c3.215-2.07 5.931-2.739 10.062-4.87m-10.516 5.082c3.656-2.26 7.86-4.167 10.992-5.4m-13.95 9.897c8.24-5.733 15.163-8.82 20.93-11.968m-20.311 10.58c5.201-2.126 10.876-5.429 20.296-9.992m-23.221 15.239c7.908-5.098 16.972-11.116 24.88-13.85m-25.534 12.584c5.364-1.895 10.339-4.783 26.75-13.136m-27.547 17.057c6.542-5.537 15.866-8.477 28.814-15.906m-28.938 15.325c7.517-4.055 15.576-8.76 28.775-14.673m-28.003 17.695c8.59-5.476 18.214-10.929 30.84-17.447m-32.326 16.57c10.524-5.504 20.97-10.673 32.797-16.678m-32.815 17.88c11.067-3.895 20.083-9.703 34.825-16.235m-33.86 17.5c9.104-4.736 17.925-9.304 32.928-17.845m-33.83 20.019c9.797-5.37 20.346-9.402 35.642-18.655m-35.253 18.597c12.546-6.61 25.815-13.615 35.7-18.173m-35.188 20.64c9.104-5.137 20.088-11.328 38.38-19.812m-38.448 18.926c11.231-4.942 21.631-11.4 37.79-19.547m-38.587 22.775c8.797-4.066 17.656-8.985 41.562-21.624m-41.77 21.94c11.607-6.196 22.72-11.926 40.73-21.334M533.04 557.88c14.435-6.321 28.882-13.343 43.937-20.724m-43.187 21.592c10.015-5.214 19.885-10.786 43.194-21.797m-43.384 24.067c11.022-5.786 20.743-11.424 44.357-21.92m-44.132 21.483c12.798-6.72 26.452-12.85 43.389-22.038m-41.483 22.94c15.402-7.093 31.314-14.139 43.004-20.286m-43.183 21.167c15.516-7.958 31.038-16.19 42.768-22.596m-42.51 24.301c13.102-5.345 24.654-12.883 42.845-22.426m-42.475 22.119c13.85-7.272 28.243-14.464 42.992-21.22m-41.14 22.572c17.187-7.272 33.117-15.601 41.715-20.944m-41.234 21.397c9.309-5.779 18.28-9.798 40.515-20.825m-39.17 21.867c8.51-4.583 17.886-8.084 40.91-21.338m-41.324 21.253c13.258-6.778 26.603-13.328 40.67-20.892m-38.501 21.971c9.185-3.972 17.027-7.484 39.703-20.648m-40.212 20.973c15.632-7.668 30.428-15.94 39.691-19.616m-37.968 21.552c7.176-4.582 16.167-8.728 39.045-19.902m-39.63 20.032c15.53-7.695 31.104-15.985 39.912-20.853m-38.324 22.136c11.674-5.537 25.547-12.714 37.649-18.577m-38.104 18.76c9.591-4.529 17.615-9.502 38.347-20.08m-37.625 22.13c13.25-7.706 25.616-14.092 37.899-18.137m-37.823 17.576c9.185-4.508 16.737-8.43 37.11-18.432m-36.336 21.35c8.51-5.734 17.679-9.973 34.62-17.86m-33.855 17.023c12.048-6.087 25.6-12.954 34.673-18.03m-32.257 18.772c11.062-5.304 22.435-10.52 31.18-15.38m-30.21 15.013c8.6-4.382 16.537-9.082 30.473-15.024m-26.42 15.05c6.587-3.12 15.324-8.233 24.516-13.77m-25.313 14.112c7.17-3.748 14.123-7.244 26.438-13.175m-22.007 13.18c3.731-1.408 10.903-5.07 19.211-10.01m-20.036 10.713c5.428-2.303 9.612-5.185 20.567-10.82"/><path stroke="silver" d="M561.416 527.072c4.946.532 10.99 4.022 14.454 8.09 3.463 4.07 6.245 11.019 6.327 16.32.082 5.303-2.327 11.503-5.834 15.494-3.508 3.99-9.96 7.407-15.212 8.451-5.251 1.045-11.687.368-16.299-2.185-4.611-2.553-9.57-8.204-11.37-13.132-1.8-4.929-1.282-11.503.569-16.437 1.851-4.935 5.89-10.367 10.54-13.17 4.651-2.802 14.278-3.274 17.365-3.646 3.088-.372 1.283.907 1.162 1.414m-6.168-1.759c4.96-.209 10.96 3.012 15.147 6.392 4.187 3.38 8.76 8.809 9.973 13.887 1.213 5.078-.012 12.034-2.694 16.58-2.682 4.547-8.405 8.824-13.398 10.7-4.993 1.875-11.555 2.28-16.559.552-5.003-1.728-10.644-6.39-13.46-10.924-2.816-4.534-4.315-11.2-3.436-16.282.879-5.083 4.652-10.66 8.709-14.213 4.056-3.552 13.183-6.112 15.628-7.101 2.445-.989-1.004.633-.956 1.169"/></g><g fill="none" stroke-opacity=".1" stroke-width="1.5"><path stroke="#b1ef9f" d="M68.385 907.351c5.866-2.81 9.662-6.256 17.647-8.771m-18.006 8.64c5.852-2.318 11.042-5.529 18.229-9.197m-19.126 12.744c4.562-2.804 10.506-5.043 21.616-11.17m-22.052 11.112c8.32-4.4 16.649-8.59 21.744-11.906M64.77 913.55c8.817-4.25 14.616-7.2 27.27-13.96m-26.56 13.973c8.68-5.327 17.838-10.097 25.575-14.002m-26.75 16.884c11.744-5.251 21.735-11.66 30.863-15.317m-31.49 15.19c11.363-5.66 22.808-11.855 30.508-15.125m-31.112 17.488c10.946-5.37 21.11-11.796 33.37-17.386m-33.136 17.571c10.22-4.779 19.516-9.926 33.375-16.957m-36.017 19.162c12.506-4.496 24.456-11.478 38.605-18.909m-38.045 19.44c14.299-7.354 29.53-14.61 38.683-19.358m-38.947 22.153c14.725-7.765 28.383-13.653 41.324-19.683M60.88 924.351c13.138-6.574 26.216-13.52 40.201-20.321m-37.929 22.93c10.298-6.906 23.626-13.702 40.017-20.557m-40.65 19.57a6803.542 6803.542 0 0 0 40.264-20.472m-39.452 21.74c14.929-7.413 32.04-16.549 41.236-21.073m-41.069 21.389c11.895-6.093 23.798-11.871 40.596-20.197m-40.569 21.997c10.543-3.858 20.598-10.437 41.252-19.73m-41.27 20.319c10.26-5.979 21.145-11.14 41.468-21.434m-40.571 23.67c16.502-8.557 32.33-17.543 41.506-21.271m-41.926 20.47c16.849-8.05 32.585-15.827 42.65-21.43m-42.569 24.032c9.276-3.91 19.482-9.817 42.724-21.215m-42.685 21.434c9.57-5.525 19.235-10.208 44.025-22.79m-42.926 23.852c9.98-5.05 20.467-8.664 43.016-22.41m-43.567 23.371c11.313-5.738 22.425-12.022 44.189-22.53m-42.946 23.713c11.154-4.779 21.885-11.337 44.454-21.848M66.01 937.442c17.01-8.348 35.197-18.05 44.525-22.38M66.31 939.783c13.758-7.905 29.717-16.205 44.713-22.937M65.575 939.67c10.792-5.26 21.223-10.726 45.349-22.573M68.2 940.948c14.741-5.922 27.39-13.984 44.077-22.509m-43.84 22.36c12.56-6.043 24.323-11.839 42.416-21.337m-39.52 23.553c8.927-5.994 18.508-9.883 38.24-20.805M70.54 941.707c7.837-4.534 16.488-8.226 40.216-20.391M72.121 943.22c9.786-4.494 21.351-10.42 37.504-19.488m-37.131 20.147c12.659-7.317 26.851-13.65 37.679-20.453m-34.98 21.236c7.155-4.691 16.106-9.173 35.78-18.638m-36.12 18.663c10.72-5.378 21.155-10.811 35.667-18.739M75.75 945.135c9.89-3.176 17.617-8.047 33.825-16.936m-32.89 17.07c12.804-6.814 26.295-13.445 33.718-16.636m-31.46 18.233c9.534-5.004 19.235-9.785 32.002-15.477M78.64 946.824c11.89-5.51 23.647-11.839 32.305-16.033m-30.709 16.564c8.153-2.903 14.452-5.648 29.062-13.688m-27.773 13.818c10.433-5.828 21.601-11.282 28.12-13.723m-23.32 13.621c6.922-4.65 15.814-7.56 19.372-9.412m-18.781 8.911c5.357-2.393 11.157-5.64 18.794-8.994m-13.357 9.152c2.434-2.179 6.336-3.102 8.087-4.631m-8.47 4.22c3.459-1.615 7.127-3.37 8.832-4.244"/><path stroke="silver" d="M82.922 897.567c5.215-.93 12.452 1.716 17.046 4.678 4.593 2.963 8.969 8.022 10.513 13.098 1.545 5.076.946 12.457-1.245 17.357-2.19 4.9-7.078 9.716-11.898 12.044-4.82 2.329-11.683 3.032-17.02 1.927-5.338-1.105-11.716-4.287-15.005-8.557-3.29-4.27-5.028-11.663-4.733-17.062.296-5.4 2.624-11.388 6.507-15.333 3.883-3.945 13.827-7.032 16.79-8.337 2.962-1.305.916.092.985.507m-4.23.834c4.859-1.116 12.477.11 17.251 2.741 4.774 2.633 9.5 8.107 11.393 13.053 1.893 4.946 1.671 11.764-.032 16.623-1.703 4.86-5.441 9.773-10.188 12.536-4.746 2.762-12.772 4.874-18.291 4.04-5.52-.833-11.339-4.988-14.824-9.042-3.486-4.054-6.153-10.085-6.09-15.284.063-5.198 2.804-11.725 6.467-15.907 3.662-4.183 12.912-7.724 15.505-9.189 2.593-1.464.067-.074.051.402"/></g><g fill="none" stroke-opacity=".1" stroke-width="1.5"><path stroke="#c1e4f7" d="M284.177 831.105c3.812-2.353 8.319-4.119 10.736-6.065m-10.905 5.614c2.208-1.274 4.298-2.064 10.893-5.496m-15.034 9.098c7.568-2.879 14.482-6.968 21.777-10.319m-20.803 11.294c5.98-3.32 12.502-6.78 21.422-11.034m-24.777 13.669c10.162-5.413 19.34-10.38 28.009-12.313m-27.559 12.537c7.939-3.636 15.597-7.919 26.757-13.253m-26.706 15.726c6.302-2.2 11.938-5.237 29.396-15.114m-30.399 15.908c7.568-4.263 15.328-7.715 29.655-15.23m-29.937 16.494c8.551-3.682 16.621-6.403 33.063-15.567M277.3 843.39c9.838-5.522 19.336-10.085 31.639-16.411m-32.071 17.646c10.325-4.239 19.356-8.437 33.758-16.888m-33.428 17.956a7122.775 7122.775 0 0 1 33.578-17.838m-34.57 20.481c13.214-7.89 26.493-14.226 37.198-19.389m-35.862 18.347c12.733-6.544 26.388-13.771 35.028-17.864m-34.856 21.023c12.523-8.19 25.82-14.552 38.287-19.568m-38.492 19.165c15.301-7.787 30.018-15.751 37.45-19.246m-37.6 21.123c8.224-3.634 18.669-9.105 40.445-20.75m-40.56 21.313c9.075-4.587 17.782-9.002 39.542-20.792m-39.026 23.574c12.172-8.634 25.693-13.897 41.842-22.261m-42.082 21.644c14.095-7.756 28.758-15.186 42.468-21.525m-42.108 22.753c9.246-4.265 17.911-8.525 43.383-21.35m-43.872 22.414c12.104-6.738 25.518-13.104 43.847-22.608m-43.636 24.546c17.18-9.979 33.954-17.209 43.828-22.81m-43.687 22.44c10.923-6.032 22.11-11.548 42.872-21.973m-41.873 23.275c10.892-5.612 22.898-10.302 43.805-20.984m-43.276 21.63c16.15-8.959 33.154-17.021 42.321-22.319m-41.287 23.98c14.26-7.394 27.552-13.9 42.668-22.136m-42.268 21.884c9.774-5.002 19.243-10.194 42.421-21.477m-41.414 22.343c11.45-5.908 25.736-12.039 41.635-20.077m-41.337 20.265c10.132-4.742 20.87-9.98 40.976-20.056m-40.258 21.347c13.25-6.546 25.843-11.213 40.22-20.352m-39.671 20.7c9.145-4.577 18.239-9.378 39.809-20.609m-39.063 21.728c12.271-5.822 22.694-10.828 40.016-19.147m-39.787 20.43c15.349-8.15 30.794-16.112 40.538-20.552m-38.807 22.098c11.117-6.749 22.174-10.855 39.128-21.473m-38.987 20.718c9.283-4.61 17.8-9.008 39.015-20.345m-37.867 21.857c14.263-6.893 27-12.888 35.742-18.985m-35.967 19.206c8.432-3.935 17.115-7.92 36.889-18.31m-35.179 20.667c8.215-4.813 16.82-8.322 34.794-17.34m-35.512 16.797c8.89-5.107 18.849-9.776 34.279-17.987m-30.014 17.918c9.216-3.579 17.72-9.207 30.173-15.203m-30.734 16.198c10.73-5.626 22.041-11.525 29.973-16.149m-26.379 16.375c9.204-4.949 18.599-11.162 25.188-12.607m-25.567 12.811c6.853-3.354 12.325-6.779 25.904-13.15m-23.209 12.748c5.718-2.702 11.71-6.28 22.558-10.863m-22.79 12.168c8.148-4.634 15.365-7.823 23.127-11.845m-18.546 12.243c3.956-3.648 8.69-6.164 17.515-10.108m-18.16 10.018c5.384-2.633 10.69-5.545 17.933-9.13"/><path stroke="silver" d="M303.943 823.409c5.157.505 12.113 4.814 15.606 8.903 3.493 4.089 5.445 10.234 5.351 15.63-.094 5.397-2.493 12.538-5.915 16.749-3.422 4.21-9.444 7.566-14.618 8.516-5.174.95-11.817-.07-16.426-2.815-4.609-2.744-9.261-8.613-11.228-13.65-1.968-5.038-2.413-11.55-.576-16.574 1.837-5.023 6.853-10.838 11.6-13.564 4.746-2.726 13.922-2.47 16.88-2.79 2.956-.32.896.477.863.869m-6.37-.824c5.194-.485 12.278 1.75 16.6 4.908 4.32 3.157 8.173 8.985 9.327 14.037 1.153 5.051.114 11.447-2.406 16.273-2.52 4.826-7.768 10.47-12.718 12.682-4.949 2.212-11.798 2.088-16.977.59-5.18-1.498-11.242-5.04-14.096-9.576-2.854-4.536-3.77-12.177-3.028-17.64.743-5.464 3.562-11.583 7.484-15.142 3.921-3.56 13.402-5.216 16.047-6.217 2.646-1.002-.035-.235-.173.206"/></g><g fill="none" stroke-opacity=".1" stroke-width="1.5"><path stroke="#f7d5fa" d="M496.397 757.183c5.276-1.219 10.938-3.843 18.138-7.446m-18.346 8.074c5.074-2.747 10.415-4.984 18.085-9.124m-19.786 13.03c4.39-3.09 8.2-4.955 20.828-11.921m-20.444 10.928c4.855-2.405 9.898-5.302 20.99-10.615m-22.212 14.228c7.316-3.225 13.816-7.122 24.074-13.304m-23.885 12.74c6.43-3.56 12.82-6.964 24.267-13.142m-26.771 17.114c8.923-4.32 16.417-9.15 30.819-15.365m-30.198 14.08c9.983-5.029 20.271-9.903 29.692-14.789m-32.327 19.316c13.803-7.881 25.422-12.789 34.322-17.564m-33.358 16.919c10.554-5.82 21.351-11.36 33.466-17.682m-32.58 18.4c9.805-4.95 19.766-9.305 35.149-18.046m-35.048 18.652c12.746-6.336 25.335-13.25 35.71-17.498m-35.432 18.99c11.733-4.765 24.854-12.681 37.31-18.274m-37.554 19.235c9.047-5.203 18-9.022 37.09-19.584m-36.238 21.384c7.428-3.45 15.57-7.748 38.34-19.485m-39.117 19.668c11.794-6.065 22.043-11.72 38.42-19.93m-37.64 21.961c9.885-6.519 22.028-10.586 40.544-20.88m-40.942 20.69c14.336-6.703 28.135-13.979 40.38-19.841m-38.484 22.152c14.584-8.36 28.345-15.682 38.87-20.977m-39.332 20.154c8.327-3.758 17.384-8.675 39.906-19.8m-41.19 22.564c11.915-5.903 21.124-11.362 41.694-21.613m-41.251 21.543c8.691-4.401 16.896-8.904 41.479-20.971m-41.03 23.698c16.266-9.024 32.58-16.976 42.041-21.95m-40.799 20.992c10.96-6.377 23.356-11.566 40.83-20.701m-41.82 22.697c13.954-6.147 25.412-11.876 42.592-21.558m-41.985 21.887c13.367-7.362 27.643-13.81 41.455-21.107m-41.412 22.156c18.015-7.91 34.518-16.694 43.554-19.787m-42.869 20.25c10.97-5.886 23.157-11.375 41.99-20.938m-41.17 23.782c11.33-6.918 23.911-11.884 42.795-22.396m-42.461 21.886c11.787-6.419 23.362-12.209 42.84-21.718m-40.138 23.566c10.903-7.858 22.798-13.822 40.819-22.465m-41.96 21.312c16.371-7.511 31.223-16.122 41.658-21.152m-39.278 22.265c13.307-5.496 26.263-13.46 38.9-19.034m-39.65 19.908c14.512-7.911 29.404-14.89 39.969-20.26m-38.088 20.839c9.539-4.258 19.376-10.181 38.078-18.096m-38.168 18.928c11.703-6.084 22.54-12.112 37.677-19.876m-35.407 19.753c11.752-4.758 22.475-10.292 35.92-16.423m-36.03 17.84c12.678-6.919 25.33-13.88 35.328-18.972m-33.022 19.332c7.704-4.452 16.527-8.264 33.09-16.382m-33.462 17.16c10.788-6.444 22.197-12.2 33.166-16.975m-33.349 19.51c11.879-6.722 22.325-11.778 33.908-16.745m-32.729 15.778c12.028-5.712 23.193-11.842 32.205-16.081m-31.286 18.365c8.96-5.405 18.299-11.48 30.442-17.158m-29.489 16.435c8.82-5.002 18.155-9.248 29.815-15.21m-25.77 15.237c8.417-4.818 17.518-9.109 24.854-13.86m-24.909 13.97c8.703-4.78 17.108-8.794 25.57-13.24m-20.675 13.262c2.585-2.497 5.702-3.505 14.327-7.61m-14.773 7.307c6.226-3.275 11.188-5.936 15.47-8.306"/><path stroke="silver" d="M513.451 748.693c5.052-.433 12.243 2.844 16.45 6.26 4.207 3.417 7.696 9.034 8.791 14.24 1.095 5.205.336 12.202-2.222 16.993-2.558 4.79-8.07 9.801-13.126 11.752-5.056 1.952-12.301 1.708-17.21-.045-4.91-1.752-9.553-5.894-12.246-10.47-2.693-4.575-4.506-11.587-3.913-16.982.592-5.394 3.4-11.873 7.469-15.382 4.068-3.51 13.87-4.738 16.938-5.673 3.07-.935 1.43-.322 1.476.061m.138-.05c4.942.161 11.89 3.376 15.703 7.011 3.813 3.636 6.76 9.476 7.178 14.8.418 5.325-1.641 12.685-4.668 17.147-3.026 4.463-8.429 8.255-13.49 9.627-5.063 1.372-12.12.747-16.883-1.395-4.763-2.143-9.499-6.76-11.694-11.458-2.196-4.698-2.867-11.59-1.48-16.732 1.387-5.142 5.452-10.998 9.803-14.122 4.352-3.123 13.653-3.85 16.304-4.62 2.652-.769-.137-.396-.396.004"/></g><g fill="none" stroke-opacity=".1" stroke-width="1.5"><path stroke="#f9d8e6" d="M450.573 982.502c6.926-2.567 13.227-6.17 19.143-9.567m-18.186 9.317c3.791-1.479 7.763-3.928 17.317-8.382m-17.72 11.26c7.28-3.255 16.482-9.21 19.982-11.589m-20.564 11.277c6.365-2.995 12.654-5.964 20.889-10.986m-23.444 15.255c9.095-5.305 18.21-9.15 26.472-13.427m-26.234 12.627c8.28-3.768 15.45-7.476 27.543-13.82m-27.296 16.2c6.94-3.237 14.014-6.542 28.994-14.804m-29.697 15.133c7.921-3.823 15.125-7.685 30.229-15.03m-31.116 17.62c13.486-6.085 25.873-12.776 35.625-16.64m-36.872 16.99c13.826-6.63 27.865-14.063 36.239-18.117m-35.278 20.003c9.829-4.163 20.49-10.52 38.762-20.238m-39.317 21.118c8.785-4.982 17.686-9.657 39.847-21.12m-39.776 23.065c15.983-7.883 30.442-15.444 40.475-20.011m-40.181 19.972c8.748-5.233 17.685-9.06 40.658-20.342m-38.396 21.478c13.53-6.614 27.518-14.778 39.42-20.021m-40.7 20.179c16.54-7.58 31.626-15.68 40.512-19.894m-39.587 22.138c13.977-7.74 27.41-14.062 42.133-20.53m-43.093 20.181c14.148-6.227 27.876-13.17 42.795-21.239m-41.513 23.251c14.312-6.902 30.437-14.685 42.378-20.636m-42.502 20.97c15.291-8.139 29.793-15.554 41.767-21.838m-41.687 23.428c9.354-3.316 18.851-8.687 42.71-22.18m-42.147 23.082c15.284-8.751 31.404-16.42 42.142-22.051m-41.6 22.678c16.322-7.5 31.806-15.999 41.794-20.297m-42.24 21.242c12.259-6.355 24.087-12.655 43.4-21.68m-42.801 23.674c9.11-5.597 19.463-9.024 44.423-23.495m-43.598 23.544c13.805-7.227 27.616-13.97 43.803-23.067m-44.41 25.21c16.143-8.907 33.36-17.337 45.277-22.488m-44.99 22.372c15.364-7.999 29.513-14.905 45.154-22.91m-43.394 23.475c8.97-4.4 18.948-9.147 44.71-21.098m-44.53 21.391c16.786-8.382 33.017-16.016 43.595-22.17m-41.346 23.765c13.652-6.791 27.068-13.454 42.31-22.069m-42.814 22.47c11.703-6.55 22.843-12.293 42.146-21.892m-41.19 21.943c11.423-4.51 22.984-10.256 40.226-19.706m-38.857 20.397c10.288-5.53 22.135-11.396 40.057-19.835m-37.052 20.62c12.447-6.252 25.125-12.34 37.393-18.975m-37.896 19.085c8.432-4.574 18.033-9.389 37.008-18.573m-35.545 19.507c7.58-3.59 16.234-7.033 35.973-17.76m-35.444 17.918c8.277-4.066 16.973-8.283 35.573-17.758m-33.732 19.058c11.767-5.038 22.387-10.588 34.026-16.148m-34.534 16.13c12.662-5.923 26.047-12.304 33.873-16.4m-32.092 18.188c7.862-3.927 15.831-8.999 33.06-16.243m-32.877 15.715c11.738-5.716 24.758-11.964 32.137-15.684m-31.03 17.73c9.663-5.779 19.13-9.49 31.148-15.71m-30.57 15.06c6.413-2.657 12.877-5.963 29.813-14.508m-24.729 14.52c7.695-3.263 15.58-8.355 25.361-11.964m-25.115 12.232c7.224-4.407 14.045-7.388 25.004-12.678m-19.156 12.03c4.397-2.385 7.289-3.839 13.074-7.493m-12.555 6.722c3.21-1.628 6.285-2.885 12.164-5.908"/><path stroke="silver" d="M468.274 971.823c5.04-.887 12.746.801 17.266 3.782 4.52 2.98 8.281 8.76 9.851 14.102 1.57 5.34 1.765 13.016-.431 17.942-2.197 4.926-7.801 9.323-12.747 11.613-4.945 2.29-11.63 3.415-16.927 2.125-5.298-1.29-11.612-5.489-14.86-9.865-3.246-4.375-5.04-11.04-4.621-16.39.418-5.35 3.134-11.776 7.135-15.707 4-3.93 14.12-6.723 16.87-7.875 2.748-1.152-.381.554-.377.964m8.138.213c5.23.995 11.415 4.467 14.686 8.855 3.27 4.388 5.336 11.844 4.936 17.475-.4 5.63-3.508 12.431-7.338 16.31-3.83 3.88-10.253 6.572-15.64 6.966-5.386.395-12.11-1.436-16.678-4.597-4.569-3.162-9.124-9.161-10.732-14.373-1.608-5.211-1.144-12.096 1.085-16.896 2.23-4.8 7.235-9.582 12.29-11.906 5.055-2.324 15.034-1.772 18.04-2.039 3.007-.266.115.09 0 .441"/></g></svg>