<svg xmlns="http://www.w3.org/2000/svg" width="60" height="7200" viewBox="0 0 60 7200"><g style="fill:#f99"><path d="m13.6 34.5-.06-.18c-.46-.78-1.45-1.2-2.29-1.42-.36-.1-.73-.14-1.1-.22-.42-.01-.84-.07-1.26-.04a8.2 8.2 0 0 0-5.35 2.63c-.33.39-.56.86-.83 1.29-.15.45-.36.9-.44 1.37a3.9 3.9 0 0 0 1.1 3.55c.8.72 1.36.72 2.35.97 1.07.07 1.1.13 2.13.02q.38-.06.74-.13c.1-.01.4.06.33-.03-.09-.12-.3-.04-.42-.1-.09-.03-.15-.12-.22-.18A6.5 6.5 0 0 0 8 45.89q.14.62.47 1.13c.26.37.65.63.97.94.43.18.84.43 1.3.54a6.5 6.5 0 0 0 4.42-.8c1.1-.61 1.38-1 2.24-1.85.45-.63.9-1.07.96-1.87.02-.26-.11-.51-.17-.77.04-.17-.2-.23-.25-.05q-.22.2-.42.44c-.36.44-.58.97-.98 1.38-.7.7-1 1.07-1.87 1.58a5.6 5.6 0 0 1-3.5.77c-.31-.05-.6-.19-.9-.29-.23-.17-.5-.3-.67-.52q-.27-.37-.4-.82a5.3 5.3 0 0 1 .25-3.35c0-.3.12-.63-.02-.89-.3-.6-1.23-.26-1.68-.2-.92.12-.8.08-1.76.03-.6-.12-1.19-.17-1.7-.55-.75-.56-1-1.57-.88-2.46.06-.38.2-.73.31-1.1.2-.34.37-.72.62-1.04a7 7 0 0 1 4.52-2.32c.36-.03.72.01 1.08.02q.47.06.94.16a4 4 0 0 1 1.88.92c.3.6 1.14.17.84-.43" style="fill:#f99"/><path d="M8.87 32.4a8.5 8.5 0 0 0-5.52 2.7c-.36.43-.59.91-.85 1.32l-.03.06c-.14.44-.36.89-.45 1.4a4.1 4.1 0 0 0 1.18 3.79c.85.75 1.49.78 2.46 1.02h.04c1.06.08 1.14.13 2.17.02a6 6 0 0 0-.11 3.25c.11.4.25.83.51 1.2.3.42.7.69 1 .98l.07.05c.4.17.83.43 1.34.55a6.8 6.8 0 0 0 4.6-.83c1.13-.62 1.44-1.04 2.3-1.89l.03-.03c.42-.6.94-1.1 1-2 .03-.35-.13-.62-.17-.83v.1a.4.4 0 0 0-.06-.3.4.4 0 0 0-.23-.15.4.4 0 0 0-.28.04.4.4 0 0 0-.17.26l.07-.13q-.22.2-.45.46c-.38.48-.6 1-.96 1.36-.7.7-.96 1.05-1.82 1.54-.99.56-2.22.91-3.33.74-.25-.03-.52-.16-.83-.26-.24-.18-.47-.3-.59-.45q-.22-.32-.34-.74a5 5 0 0 1 .24-3.2v-.08q.01-.17.05-.43a1 1 0 0 0-.08-.57 1 1 0 0 0-.47-.41 1.4 1.4 0 0 0-.56-.07c-.37.01-.73.12-.9.14-.92.12-.77.08-1.71.03-.6-.12-1.14-.17-1.58-.5-.65-.5-.89-1.41-.78-2.23.05-.32.18-.65.3-1.02.2-.36.36-.72.58-.99a7 7 0 0 1 4.35-2.23c.31-.03.66.01 1.03.02q.48.06.9.15a4 4 0 0 1 1.77.86l-.05-.07q.16.3.45.4.28.07.53-.05t.35-.4a.8.8 0 0 0-.04-.6v.02q0-.05-.08-.2c-.52-.89-1.57-1.3-2.43-1.54q-.58-.13-1.12-.22h-.04c-.4-.02-.83-.08-1.29-.05m.04.5c.38-.04.78.02 1.2.03q.58.09 1.08.21c.8.22 1.73.63 2.13 1.31l.05.13.01.03q.06.14.03.2a.2.2 0 0 1-.12.12.2.2 0 0 1-.16.02q-.07-.02-.15-.15l-.05-.07a4.4 4.4 0 0 0-2-.98c-.32-.08-.65-.1-.95-.16h-.04c-.34 0-.7-.06-1.1-.02a7.3 7.3 0 0 0-4.69 2.41c-.29.36-.45.75-.64 1.08l-.03.06c-.1.34-.26.7-.31 1.12-.13.96.13 2.07.97 2.7.58.43 1.22.48 1.8.6h.03c.97.05.89.09 1.82-.03.26-.04.58-.13.87-.14q.22-.01.36.03.12.05.2.18.04.09.02.3-.01.18-.04.44a5.5 5.5 0 0 0-.23 3.46c.1.3.21.62.43.9.23.28.52.41.7.56l.09.04c.27.09.58.24.94.3 1.27.2 2.6-.2 3.66-.8.9-.52 1.23-.94 1.92-1.63.45-.45.68-1 1-1.4l.29-.29c.05.2.12.38.11.5-.05.71-.45 1.09-.9 1.73-.86.84-1.1 1.2-2.17 1.79a6.3 6.3 0 0 1-4.25.77c-.39-.09-.77-.32-1.21-.5-.33-.32-.69-.57-.9-.87q-.29-.46-.44-1.06a6 6 0 0 1 .16-3.2l.23-.03.18.01q.04.02.18-.01a.3.3 0 0 0 .18-.2.3.3 0 0 0-.05-.23.4.4 0 0 0-.21-.15q-.1-.03-.18-.02H8.6l-.15-.15a.25.25 0 0 0-.4.1q-.03.13-.06.25l-.17.03c-1 .1-1.02.05-2.06-.02-1-.24-1.47-.24-2.23-.9a3.6 3.6 0 0 1-1.01-3.33c.07-.42.27-.84.42-1.31.28-.44.5-.88.79-1.23a7.99 7.99 0 0 1 5.19-2.54" style="fill:#f99"/></g><g style="fill:#f99"><path d="M14.51 33.68q.34-1.7 1.3-3.16.46-.69.97-1.36c.43-.46.81-.96 1.28-1.37a13 13 0 0 1 3.48-2.24c1-.43 2.4-.83 3.54-.73.44.03.85.26 1.28.4.28.25.62.44.83.75.43.62.46 1.42.34 2.13-.17 1-.52 1.62-1.13 2.43-.29.38-.64.71-.95 1.07-1.54 1.35-.37.38-1.8 1.43-.25.2-.96.63-.73 1.13.34.75 1.23.82 1.88.99 1.38.35 2.7.9 3.84 1.77a5 5 0 0 1 1.74 2.07c.12.35.04.73.06 1.1-.13.35-.2.75-.4 1.08-.75 1.28-2.18 2.07-3.56 2.48q-.85.25-1.73.36c-.59.09-1.19.1-1.78.15-1 .15-2-.13-3.01-.1-.37.02-.74.12-1.1.17-.23-.04-.3.28-.07.32.36.2.68.47 1.06.6.8.24 2.46.23 3.22.25.65-.05 1.3-.06 1.94-.15q1-.14 1.97-.44c1.7-.54 3.46-1.6 4.27-3.27.24-.5.29-1.07.43-1.61-.09-.53-.07-1.1-.27-1.6-.19-.5-.53-.92-.87-1.32a11 11 0 0 0-4.2-2.7c-.4-.16-.83-.25-1.24-.37-.29-.07-.57-.27-.86-.21-.13.02-.02.27-.07.4-.06.11-.36.32-.25.28.18-.07.3-.25.46-.37 1.52-1.13.38-.19 2-1.62.88-1 1.42-1.48 1.95-2.75.61-1.47.7-3.32-.38-4.62-.34-.42-.84-.66-1.27-1-.57-.14-1.13-.39-1.72-.43a7 7 0 0 0-1.94.2c-2.17.48-4.2 1.68-5.83 3.16-.5.46-.92 1-1.37 1.5-.83 1.2-1.16 1.55-1.74 2.82a8 8 0 0 0-.4 1.09 2.5 2.5 0 0 0-.1 1.29c0 .66.93.66.93 0" style="fill:#f99"/><path d="M24.98 23.37a7 7 0 0 0-2.02.2c-2.22.5-4.29 1.72-5.94 3.23-.52.48-.94 1.02-1.39 1.51l-.02.03c-.82 1.18-1.17 1.57-1.76 2.86q-.25.55-.4 1.12c-.13.42-.22.9-.12 1.39q.02.32.22.52a.72.72 0 0 0 1.21-.55v.05c.2-1.1.65-2.14 1.25-3.08.29-.45.64-.87.96-1.33.44-.46.82-.95 1.25-1.35.99-.88 2.2-1.67 3.42-2.19.98-.42 2.36-.8 3.41-.71.36.03.75.22 1.18.36.3.26.6.45.75.68.38.55.42 1.27.3 1.95a5 5 0 0 1-1.08 2.32q-.42.52-.92 1.03c-1.51 1.33-.35.37-1.77 1.42-.12.09-.38.25-.59.48q-.16.16-.26.4a.7.7 0 0 0 .03.55c.2.45.58.7.96.84s.78.21 1.08.3c1.36.34 2.66.87 3.76 1.72a5 5 0 0 1 1.65 1.95c.09.25.04.6.05.97-.13.38-.2.73-.36 1-.7 1.2-2.08 1.97-3.42 2.37q-.82.24-1.7.35c-.57.09-1.16.1-1.76.15h-.02c-.93.15-1.92-.13-2.98-.1-.4.02-.78.12-1.13.17h.09a.4.4 0 0 0-.34.07.42.42 0 0 0 .17.75l-.07-.03c.33.18.66.47 1.1.61s1.07.2 1.7.23c.61.03 1.22.03 1.6.04h.02c.64-.05 1.3-.06 1.96-.16q1.02-.14 2-.44c1.75-.56 3.57-1.64 4.42-3.4.28-.56.32-1.15.46-1.65v-.11c-.08-.5-.06-1.09-.28-1.65a5 5 0 0 0-.93-1.39 11 11 0 0 0-4.3-2.78c-.41-.16-.83-.25-1.22-.36.24-.18.26-.14 1.35-1.1l.02-.03c.87-1 1.45-1.5 1.99-2.81.64-1.53.74-3.48-.41-4.88-.39-.48-.92-.72-1.32-1.03l-.09-.04c-.54-.14-1.11-.4-1.76-.45m-.03.5c.51.03 1.04.26 1.62.42.44.33.9.57 1.2.92.99 1.2.91 2.96.33 4.37-.5 1.22-1.02 1.66-1.9 2.66-1.26 1.12-1.03.9-1.58 1.3-.13-.05-.27-.1-.43-.06a.4.4 0 0 0-.25.23q-.03.13-.01.2c0 .1-.02.17 0 .11l-.02.03-.1.09-.1.1-.04.06-.01.04-.01.07q0 .02.02.08c-.21-.1-.42-.2-.52-.44a.2.2 0 0 1-.01-.17 1 1 0 0 1 .15-.23c.15-.16.37-.3.51-.42 1.42-1.04.28-.1 1.81-1.45l.02-.02c.31-.34.66-.67.97-1.07.62-.83 1-1.5 1.18-2.55.12-.75.1-1.61-.38-2.31-.26-.37-.62-.58-.87-.8l-.1-.06c-.4-.12-.82-.36-1.33-.4a8 8 0 0 0-3.66.75 13 13 0 0 0-3.55 2.28c-.49.44-.88.95-1.3 1.4l-.01.02c-.32.44-.68.88-.99 1.36a9 9 0 0 0-1.32 3.25v.05q-.01.14-.08.2a.2.2 0 0 1-.15.05.2.2 0 0 1-.15-.06q-.06-.04-.07-.19v-.06c-.09-.36-.02-.76.1-1.16q.15-.55.38-1.05c.57-1.26.9-1.59 1.72-2.78.46-.5.87-1.03 1.34-1.46 1.6-1.46 3.6-2.64 5.71-3.1a7 7 0 0 1 1.88-.2m-.2 10.2q.12.06.28.1v.01q.65.16 1.22.36c1.5.57 3.06 1.45 4.1 2.64.34.39.66.8.83 1.24.17.42.16.95.25 1.5-.14.54-.2 1.08-.4 1.51-.77 1.58-2.47 2.61-4.13 3.15q-.93.28-1.93.42c-.6.09-1.24.1-1.89.15-.39-.01-.99-.01-1.6-.04-.6-.03-1.2-.1-1.55-.2-.26-.09-.53-.29-.82-.46q.46-.1.86-.13c.95-.03 1.96.25 3.04.09.58-.05 1.17-.07 1.77-.15q.9-.13 1.78-.37c1.4-.43 2.9-1.23 3.7-2.6.22-.38.3-.79.42-1.12l.01-.1c-.02-.32.07-.73-.07-1.16-.3-.9-1.18-1.7-1.83-2.2a11 11 0 0 0-3.93-1.8q-.5-.11-.94-.25h.04l.05-.02c.28-.1.41-.31.52-.4.16-.11.1-.09.21-.17" style="fill:#f99"/></g><g style="fill:#f99"><path d="M13.21 33.1c-.2-.44-.6-.75-1-1.03q-.42-.3-.86-.56c-1.03-.6-1.37-.7-2.5-1.18a23 23 0 0 0-4.77-1.1 9 9 0 0 0-2.48-.1c-.3.04-.56.17-.84.25-.24 0-.25.32-.02.33.27.11.52.25.79.32.68.2 1.69.27 2.36.37 1.53.22 3.05.5 4.5 1q.66.26 1.3.53.98.43 1.89.99.25.16.5.35c.3.2.17.1.33.24.28.57 1.08.16.8-.4" style="fill:#f99"/><path d="M1.56 28.88c-.33.05-.62.18-.87.26h.08a.4.4 0 0 0-.32.1.4.4 0 0 0-.12.29q-.01.15.1.29t.3.14l-.08-.01c.25.1.5.24.81.32.73.21 1.74.28 2.4.38 1.52.21 3.02.49 4.45 1q.65.25 1.28.51.96.42 1.85.97l.5.35q.21.14.21.15c.02 0 .02 0 .1.07l-.07-.08q.16.3.44.38a.7.7 0 0 0 .51-.04.7.7 0 0 0 .35-.39.7.7 0 0 0-.05-.57 3 3 0 0 0-1.07-1.13q-.43-.3-.89-.58c-1.04-.6-1.4-.71-2.52-1.2h-.02c-1.56-.56-3.19-.9-4.82-1.11-.8-.1-1.7-.22-2.55-.1m.07.5c.76-.12 1.63 0 2.41.1q2.43.29 4.72 1.08c1.12.48 1.45.58 2.46 1.16q.43.26.85.55c.39.28.75.56.91.94q.07.14.03.2a.2.2 0 0 1-.1.1.2.2 0 0 1-.14.02q-.08-.01-.14-.13l-.06-.08-.14-.11-.2-.14q-.25-.18-.52-.36-.93-.58-1.92-1-.65-.29-1.3-.53h-.01a24 24 0 0 0-4.55-1.03c-.7-.1-1.7-.18-2.33-.36q-.27-.09-.57-.23c.21-.07.42-.16.6-.18" style="fill:#f99"/></g><g style="fill:#f99"><path d="M13.3 32.3c-.2-.82-.41-1.64-.52-2.48-.15-1.13-.23-2.59-.2-3.72.02-.68.1-1.37.15-2.05.17-1.75.58-3.45 1.12-5.12q.4-1.2.86-2.4l-.1-.36c.14-.28-.27-.49-.41-.2l-.36.15-.3.52c-.53 1.09-.9 2.3-1.2 3.47q-.25.9-.43 1.82-.17 1.02-.29 2.05c-.04.71-.12 1.43-.13 2.15-.03 2.2.23 4.4.95 6.48.21.6 1.08.3.86-.31" style="fill:#f99"/><path d="M14.27 15.6a.5.5 0 0 0-.3.26l.13-.12-.36.15a.3.3 0 0 0-.12.1l-.3.55a26.38 26.38 0 0 0-1.65 5.35c-.13.69-.2 1.38-.3 2.05v.02c-.04.71-.12 1.43-.13 2.17-.03 2.21.23 4.45.96 6.56q.13.32.4.44a.7.7 0 0 0 .52.02.7.7 0 0 0 .4-.35q.13-.26.02-.59v.03c-.2-.82-.4-1.63-.51-2.45a26 26 0 0 1-.2-3.68c.02-.67.1-1.35.14-2.04a25 25 0 0 1 1.12-5.06q.4-1.2.86-2.4a.3.3 0 0 0 0-.16l-.1-.35-.02.19a.5.5 0 0 0 .03-.4.5.5 0 0 0-.24-.26.5.5 0 0 0-.35-.03m.1.52v.13l.08.27q-.45 1.15-.84 2.33c-.54 1.68-.96 3.4-1.13 5.17-.05.69-.13 1.38-.15 2.08-.03 1.14.05 2.6.2 3.76.11.85.33 1.68.53 2.5v.02q.05.14 0 .2a.2.2 0 0 1-.11.1.2.2 0 0 1-.16 0q-.06-.03-.12-.16c-.7-2.04-.96-4.22-.93-6.39q.04-1.04.13-2.12v-.02q.13-1.02.29-2.01a26 26 0 0 1 1.61-5.23l.24-.43.28-.12z" style="fill:#f99"/></g><path d="M33.5 5228.25c-.2-.18-.3-.3-.57-.4a4 4 0 0 0-2.3.08q-.5.17-1 .36a7 7 0 0 0-2.76 2.05c-.19.25-.38.53-.46.84-.08.33-.18.72-.02 1.03.22.42.7.64 1.06.97.44.03.88.12 1.33.1a9 9 0 0 0 2.84-.75 9 9 0 0 0 2.29-1.35c.25-.21.44-.48.66-.72.09-.32.39-.65.26-.96-.54-1.3-1.34-1.27-2.46-1.14a13 13 0 0 0-2.77.78q-.64.27-1.26.58c-.46.28-1.33.71-1.65 1.22-.52.8-.45 1.5.6 2.04.54.3 1.96-.15 2.48-.27 1.06-.37 2.19-.7 3.1-1.4.2-.15.41-.31.54-.53.16-.26.35-.56.28-.85-.09-.41-.46-.7-.69-1.04-.29-.06-.57-.17-.86-.2a6.55 6.55 0 0 0-2.67.58q-.17.15-.3.35v.49c-.4.3.03.85.43.55l.29.27c.08 0 .17.05.26.03.13-.02.24-.1.36-.14l.47-.14.5-.1.42-.06q.06-.02.1-.07c-.14-.66-.3-.58.09-.95.07-.07-.12.18-.2.24-.76.58-1.7.85-2.58 1.15q-.45.11-.9.25c-.13.03-.32.03-.35.15-.05.27.18.53.16.8 0 .1-.26.26-.21.18.24-.4.74-.62 1.1-.85q.54-.27 1.1-.5c.86-.35 1.4-.49 2.28-.7.2-.04.5.05.6-.12.64-1.13-.5-.6.1-.84-.12.14-.2.3-.35.43a8 8 0 0 1-3 1.57c-.56.16-1.05.2-1.6.28-.02.14 0 .3-.06.43-.03.05-.16.05-.16 0 0-.35.49-.8.67-.97.55-.5.92-.67 1.55-1.04.64-.24.78-.33 1.41-.46l.45-.06c.08-.01.2-.03.28-.07.79.79 1.9-.33 1.11-1.12z" style="fill:#f99"/><path d="M34.65 5216.64q-.03.1-.04.2c-.06.47-.06.95-.11 1.42-.2 1.95-.5 3.89-.79 5.82-.25 1.93-.71 3.84-.72 5.8 0 .4.06.81.09 1.22-.1.4.47.53.56.13.21-.36.46-.71.63-1.1.8-1.82.99-3.84 1.32-5.78.21-1.54.4-2.8.56-4.35q.08-.83.13-1.65a9 9 0 0 0-.03-1.61q-.02-.15-.08-.31c-.15-1.08-1.67-.86-1.52.21M36.2 5215.12c-.07.42.04.83.2 1.22.44 1 1.05 1.54 1.8 2.32.7.7 1.28 1.23 1.89 2.01q.42.51.74 1.09.27.52.4 1.1c.22.93.1 1.19-.02 2.1-.75 2.05.1-.17-.73 1.7l-.28.74c-.47.54.3 1.22.78.67.29-.2.63-.34.87-.6.7-.73.8-1.39 1.13-2.32.11-1.33.26-1.63-.13-2.94-.57-1.94-2.05-3.37-3.44-4.74-.7-.7-1.5-1.39-1.82-2.35 0-1-1.4-1-1.4 0M25.1 5769.13c-.88-.21-1.74.34-2.12 1.13-.12.26-.16.55-.24.83.03.33 0 .67.08 1 .35 1.34 1.68 2.36 3.1 2.14.34-.06.66-.25 1-.38.24-.22.53-.4.72-.66.7-.98.43-2.58-.76-3.06-.2-.09-.44-.04-.66-.06l-.5.24c-.44.04-.39.66.05.62l.05.18q.03.12.1.23c.11.18.55.38.46.66-.03.11-.12.2-.18.3-.1.07-.2.17-.31.22-.76.33-1.38-.38-1.53-1.05.05-.55.16-.86.74-.94 1 0 1-1.4 0-1.4" style="fill:#f99"/><path d="M22.75 5773.67q-.2.16-.36.35c-.94 1.17-1.65 2.58-2.37 3.88-.9 1.6-1.31 2.39-2.18 4-1.18 2.4-.73 1.21-1.41 3.52-.32.6.54 1.06.86.45 1.52-1.85.8-.82 2.1-3.13q2.2-4.03 4.37-8.06c.71-.72-.3-1.73-1.01-1.01" style="fill:#f99"/><path d="M15.95 5784.64a3.4 3.4 0 0 0-2.48 2.26c-.1.3-.1.62-.16.93.07.33.08.68.2.99a2.25 2.25 0 0 0 2.4 1.5c.88-.09 1.1-.47 1.7-1.03.14-.3.33-.58.42-.89.12-.42.17-1.3-.08-1.7-.13-.22-.4-.31-.6-.46-.26-.6-1.1-.23-.85.37-.06.15-.17.3-.2.46-.02.15.25.8.04 1.03q-.07.17-.19.3-.13.12-.28.2c-.06.05-.1.14-.18.15-.39.05-.59-.45-.7-.71q-.01-.24.02-.47c.13-.67.68-1.1 1.25-1.4 1.09-.21.78-1.75-.3-1.53M28.25 5772.93c.41.07.58.1 1.07.14 2.45.17 4.91.23 7.37.32 1.03.02 3.5.09 4.59.05 1.18-.04 2.06-.16 3.2-.29.66.01.68-.91.03-.92-1.15-.18-2.02-.33-3.2-.42-.8-.06-3.84-.15-4.57-.18-4.85-.15.14.01-4.39-.15-1.24-.04-2.52-.15-3.77-.06q-.17.01-.33.05c-1.03 0-1.03 1.46 0 1.46M47.62 5771.13c-1-.16-2.11.42-2.34 1.47-.06.26 0 .54.01.8.12.25.19.53.36.74.7.9 2.1.96 3.04.39.22-.14.38-.34.58-.51.1-.26.3-.5.3-.79 0-.59-.33-1.08-.87-1.27-.37-.13-.65.06-.95.2-.35-.04-.4.45-.05.48l.08.23c.11.55-.18.08.2-.1-.11.35-.65.43-.98.43-.02-.01-.17-.1-.17-.13.03-.19.32-.38.48-.4 1.1.23 1.4-1.32.3-1.54" style="fill:#f99"/><path d="M28.74 698.62c.76-.18.7-.15 1.67-.48l4.26-1.53c3.08-1.09 3.12-1.1 6.31-2.18q4.93-1.69 9.89-3.28c.63-.2 3.34-1.03 4.14-1.35.4-.15.77-.37 1.15-.55l.72-.42c.6-.18.36-1.03-.24-.86l-.85.03c-.43.06-.86.08-1.29.17-.8.18-3.62 1.08-4.19 1.26a544 544 0 0 0-9.91 3.3c-3.33 1.16-3.14 1.08-6.32 2.26-.6.22-3.47 1.3-4.28 1.64-.86.37-.83.37-1.37.73-.9.23-.58 1.48.31 1.26M20.67 966.87c.5.52.45.5 1.17 1.07 1.05.83 3.3 2.5 4.23 3.19l6.38 4.74c3 2.17 5.96 4.4 9 6.54.7.49 2.6 1.82 3.5 2.3.33.17.7.28 1.05.43.13.1.29-.07.16-.18-.21-.33-.38-.7-.63-1-.82-1-2.16-2.06-3.13-2.83-2.9-2.32-5.94-4.46-8.92-6.66l-6.4-4.72c-1.67-1.23-3.33-2.54-5.06-3.7l-.34-.2c-.72-.7-1.73.3-1.01 1.02" style="fill:#f99"/><path d="M47.01 984.24a2.35 2.35 0 0 0-2.27 1.54c-.11.28-.13.58-.2.87.02.31-.02.63.05.93.2 1.05.93 1.93 2.04 2.05 1.03.11 1.3-.25 2.11-.76.24-.33.54-.61.7-.98.5-1.09.38-2.54-.61-3.32-.3-.24-.68-.43-1.07-.45-.38-.03-.74.2-1.12.31l-.68.81c-.31.2-.04.64.28.45l.65-.01c.27.02.73-.04.92.22.35.5.17 1.08-.12 1.53q-.14.18-.3.33c-.74.59-1.13-.14-1.17-.82.04-.7.08-.97.79-1.22 1.05 0 1.05-1.48 0-1.48M35.24 958.16q-.13.54-.24 1.09a622.91 622.91 0 0 0-2.34 18.13c-.34 3.4-.76 6.8-.87 10.22-.04 1.16-.01 2.22 0 3.36-.06.58.75.68.82.1.31-1.24.52-1.99.74-3.32.54-3.36.7-6.77 1.14-10.15q1.1-9.53 2.35-19.04c.28-1.13-1.32-1.52-1.6-.4" style="fill:#f99"/><path d="M30.78 991.11c-1.07.22-1.49 1.18-1.26 2.2.06.24.19.46.28.7.16.2.28.44.48.61 1.09.95 2.63.73 3.67-.18.25-.21.42-.5.63-.75.1-.34.28-.67.28-1.02 0-1.13-.86-2.05-1.96-2.2-.32-.04-.69-.05-.98.11s-.42.51-.63.77c-.4.17-.17.74.24.58.19.09.36.22.56.28.33.1.4-.15.82.05.23.12.17.08.25.34q-.1.2-.23.37c-.24.26-.91.75-1.32.54-.1-.05-.16-.16-.25-.24l-.16-.27q-.06-.03-.1-.08c-.03-.03 0-.08-.03-.12-.01-.02-.06 0-.07-.03-.02-.07.16-.14.16-.15 1.06-.27.68-1.78-.38-1.5M44.51 6265.5a2.7 2.7 0 0 0-3.33 1c-.2.3-.28.66-.42.99-.04.36-.13.72-.13 1.09.03 1.15.6 2.28 1.77 2.65 1.05.33 1.46.02 2.42-.32.33-.26.72-.45.98-.78a3.2 3.2 0 0 0 .12-3.84 2.4 2.4 0 0 0-.97-.82c-.35-.15-.77-.05-1.16-.07-.57-.2-.86.6-.29.8q.18.25.38.48c.46.51.83.69.8 1.48q0 .31-.12.56c-.1.19-.3.3-.45.46-.33.19-.84.55-1.26.36-.56-.26-.5-.95-.48-1.45.06-.19.16-.67.32-.85.34-.4.95-.36 1.42-.33 1 .29 1.4-1.12.4-1.4M44.03 6263.9a10.4 10.4 0 0 1 5.78-2.82c.64-.07 1.28-.03 1.92-.04 1.12.17 4.17.5 3.88 2.33-.08.5-.53.87-.83 1.2-.93.78-.63.56-1.6 1.28q-.4.24-.74.52c-.19.17-.33.38-.5.58-.47.2-.18.87.3.66.27 0 .55.05.82 0a6.4 6.4 0 0 0 3.18-1.94c.7-1.02 1.25-1.45 1.1-2.82-.2-1.87-1.97-2.8-3.58-3.22-.68-.18-1.39-.22-2.09-.33-.74.03-1.5 0-2.24.1a10.5 10.5 0 0 0-6.59 3.47c-.73.84.45 1.87 1.19 1.03zM41 6260.17q-.08-.24-.2-.46c-.77-1.23-2.57-1.38-3.85-1.5-1.05.01-2.45.23-2.88 1.38-.16.44-.03.77.07 1.18-.04.24.3.29.33.05q.12-.16.25-.28.13-.09.28-.16a3.5 3.5 0 0 1 1.78-.49c.76.07 1.44.18 2.17.41q.18.05.34.11c.08.04.13.14.2.17.03.01.06-.04.08-.05.25 1 1.68.65 1.43-.36M35.39 6264.89c-1.69-1.69-3.9-.19-5.51.79-1.05.87-1.91 1.45-2.66 2.63-.92 1.46-1.31 3.37-.24 4.89.33.45.84.74 1.26 1.1.54.2 1.06.48 1.63.58a10.2 10.2 0 0 0 6.18-1.23c.3-.18.55-.4.83-.6l.44-.65c.3-.17.06-.6-.25-.43l-.72.02c-1.87.54-4 1.46-5.96 1.25-.37-.03-.72-.19-1.09-.29-.25-.16-.55-.27-.77-.48-.5-.51-.63-1.14-.5-1.85.29-1.57 1.54-2.6 2.71-3.56.82-.52 2.11-1.53 3.2-1.43.18.01.35.11.51.19.66.66 1.6-.27.94-.93" style="fill:#f99"/><path d="M36.62 6271.88q-.24.18-.45.37c-1.16 1.33-1.35 3.54-1.24 5.2.04.65.17 1.28.26 1.92.18.58.3 1.2.55 1.75.74 1.72 1.93 2.89 3.97 2.44 1.4-.3 2.18-1.23 3.2-2.13a17 17 0 0 0 2.98-4.47c.36-.82.4-1.17.58-1.98.27-.6-.57-.98-.85-.38-1.37 1.8-2.4 3.82-3.91 5.51-.57.53-1.92 1.96-2.87 1.89-1.35-.1-1.6-1.95-1.94-2.88q-.15-.83-.26-1.67a8.5 8.5 0 0 1 .8-4.48c.77-.58-.05-1.67-.82-1.09" style="fill:#f99"/><path d="M51.58 6269.76a11 11 0 0 1 2.48 4.56c.11.47.16.95.25 1.42-.04.85.13 2.22-.86 2.67-.83.38-1.95-.35-2.62-.67-1.27-.75-2.33-1.77-3.5-2.66q-.4-.33-.83-.59c-.22-.1-.47-.12-.7-.18-.28-.27-.65.13-.37.4.08.22.1.48.23.68q.3.44.67.8a19 19 0 0 0 3.82 3.08c1.15.48 1.88 1 3.2.8 1.6-.24 2.37-1.59 2.53-3.07.05-.52-.02-1.04-.03-1.57-.12-.54-.2-1.09-.35-1.62a12 12 0 0 0-3-4.97c-.65-.65-1.57.27-.92.91M16.48 6673.46q.4.03.8.02.82-.04 1.66-.11 1.26-.07 2.53-.11c3.66-.13 7.32-.13 10.98-.14 2.68.12 5.34-.13 8-.5.62 0 .6-.88-.02-.87-2.65-.3-5.3-.5-7.98-.44-3.7.01-7.39.01-11.08.2-1.24.05-3.02.13-4.31.36q-.49.1-.96.26c-.94.27-.56 1.6.38 1.33" style="fill:#f99"/><path d="M15.47 6674.4c1.21 1.1 2.44 2.23 3.77 3.2l2.45 1.61q1.06.68 2.14 1.34c.33.2.45.34.83.43q.23.04.47.06.3-.03.6-.07c1.38-.27 2.75-.87 4.07-1.36l4.5-1.73c1.16-.47 3.2-1.28 4.38-1.8q.81-.34 1.56-.76c.35-.22.65-.5.97-.76.47-.19.2-.85-.26-.66-.4.04-.82.04-1.22.13-.56.13-1.1.34-1.65.53-.71.24-3.82 1.44-4.41 1.67q-3.15 1.2-6.28 2.43c-.3.12-1.64.61-2.08.82q-.12.07-.22.16c-1.04.47-2-.8-2.67-1.37-.72-.65-1.4-1.33-2.13-1.97-1.24-1.09-2.56-2.09-3.82-3.15-.88-.7-1.88.54-1 1.25M25.81 6684q.38-.08.73-.2c.74-.25 2.31-.94 2.92-1.2q3.53-1.54 7.05-3.04c1.77-.87 3.7-1.43 5.39-2.47.3-.2.58-.45.87-.67.6-.25.25-1.09-.35-.84-.37.05-.74.06-1.1.15-1.92.48-3.68 1.5-5.52 2.18-3.5 1.5-7.01 3.04-10.45 4.7-1 .32-.53 1.72.46 1.4" style="fill:#f99"/><path d="M22.13 6680.69c-.43 1.63-.96 3.23-1.31 4.89.02.71-.13 1.27.88 1.6.37.11.77-.09 1.13-.22.72-.28 1.44-1.08 1.95-1.63.42-.77.23-.4.59-1.1.37-.38-.17-.9-.54-.53-.66.34-.31.16-1.05.52l-1.12.82c-.16.1-.37.16-.48.31-.05.06.08.13.1.2.1.2.16.44.29.64.05.08-.04-.19-.06-.28.17-.97.43-1.91.7-2.86.15-.57.35-1.2.46-1.8q.04-.27.05-.56c0-1.13-1.6-1.13-1.6 0" style="fill:#f99"/><path d="M21.83 6687.54q2.04-.31 4.04-.85c.37-.1.75-.17 1.11-.3.3-.1.59-.27.88-.4l.64-.35c.4-.08.3-.66-.11-.58l-.76-.08q-.48-.02-.96.01-.57.08-1.13.2-2 .36-4 .8c-1.09.2-.8 1.75.3 1.55" style="fill:#f99"/><path d="M24.98 6683.9c2.06 2.02 4.15 4.02 6.38 5.85l1.16.36c.25.2.54-.14.3-.36l-.5-1.05c-2.04-2.02-4.16-3.94-6.26-5.88-.77-.77-1.85.31-1.08 1.08M36.68 6691.8q.31-.4.62-.81c.74-1.06 1.48-2.25 2.16-3.33a389 389 0 0 0 4.34-7.11c.67-1.17 1.55-2.65 2.15-3.88.22-.45.48-.89.6-1.37.08-.33 0-.67 0-1 .19-.5-.5-.77-.7-.28-.2.2-.46.37-.64.61-.28.39-.46.83-.7 1.24-1.06 1.83-1.06 1.82-2.22 3.78-2.25 3.76-4.48 7.53-6.92 11.17-.7.93.62 1.92 1.31.99" style="fill:#f99"/><path d="M23.67 1566.24q-.14-.04-.27-.07-.3-.03-.58-.04c-.77-.05-1.48-.09-2.25-.28-1.73-.44-2.53-.87-4.24-1.6-.89-.5-1.81-.95-2.67-1.5a28 28 0 0 1-5.44-4.57 19 19 0 0 1-3.67-6.74c-.36-1.23-.43-2.52-.65-3.78.08-1.25-.01-2.52.24-3.75a14.3 14.3 0 0 1 8.94-10.4c1.01-.36 2.1-.44 3.15-.65 1.08.16 2.19.16 3.23.47a15 15 0 0 1 8.18 6.63c1.6 2.75 1.68 4.38 2.31 7.43.06 1.28.2 2.55.16 3.83a26 26 0 0 1-1.88 9.17c-.57 1.42-1.03 2.13-1.76 3.4-.77 1.33-.5.67-.9 1.94-.26.32.2.7.46.38 1.26-.72.64-.25 1.77-1.5.95-1.44 1.36-1.94 2.1-3.62a26 26 0 0 0 2.08-9.86c.02-1.38-.14-2.75-.2-4.13-.8-3.47-.85-5.04-2.75-8.14-2.04-3.33-5.55-6.21-9.35-7.24-1.23-.33-2.54-.28-3.8-.42-1.2.26-2.43.37-3.58.8a16 16 0 0 0-9.83 11.82c-.26 1.35-.14 2.75-.2 4.13.24 1.38.34 2.8.74 4.14.8 2.68 2.24 5.2 4.06 7.31a30 30 0 0 0 5.76 4.82c.91.58 1.9 1.06 2.84 1.59.84.35 1.67.76 2.53 1.07a13 13 0 0 0 3.6.82c.72.08 1.5.11 2.2-.16.9-.23.58-1.52-.33-1.3" style="fill:#f99"/><path d="M25.27 1565.8c-.73.23-1.36.87-1.4 1.67 0 .2.06.4.09.6.09.16.14.35.27.48.66.66 1.42.43 2.03-.16.36-.35.44-.63.65-1.07.02-.23.1-.46.07-.7-.12-.77-.85-1.38-1.6-.88-.15.1-.2.3-.31.44-.25.1-.11.45.14.35.07.07.18.13.22.22.33.66-.63-.46-.1-.1-.06.2-.26.6-.24.62.13.12.53.08.44.4-.17.14-.06-.1-.03-.16q0-.06.03-.11c.05-.08.21-.18.29-.23.97-.39.42-1.77-.55-1.38M25.63 1569.98a7 7 0 0 0 2.3 3.08c1.2.82 1.86.87 3.27 1.26q1.01.16 2.02.31c.72.1 1.45.14 2.16.26 1.56.28 2.86.64 4.3 1.33 1.84.88 1.9 1.11 3.38 2.42a11 11 0 0 1 2.16 5.04q.14.77.22 1.55c.05.41.03.83.1 1.24.07.3.22.59.33.88-.02.65.9.68.93.03.12-.32.32-.63.38-.97.07-.46.03-.93 0-1.4-.11-2-.56-4.06-1.57-5.81-.4-.68-.93-1.27-1.4-1.9-1.69-1.42-1.87-1.75-3.92-2.7-1.59-.73-3-1.1-4.72-1.38-.7-.12-1.4-.15-2.1-.24q-.94-.11-1.86-.24c-1.14-.28-1.66-.31-2.66-.89-1-.57-1.6-1.5-2.15-2.46-.42-.83-1.59-.24-1.17.59M11.64 1536.54c-.09.6-.06.7.5.94.04.43.66.37.62-.06q.18-.22.37-.44l-.02-.07c.26-1.03-1.2-1.4-1.47-.37M5.56 1544.96q-.1.25-.17.52c-.37 1.57-.01 3.4.3 4.94.43 1.27.84 2.77 1.82 3.74.4.4.65.48 1.12.7.42.43 1.02-.16.6-.58-.1-.27-.27-.73-.39-.99-.5-1.07-1.13-2.08-1.42-3.24a19 19 0 0 1-.47-2.96c-.08-1.34.02-.18.04-1.32q-.01-.13-.04-.25c.4-.98-1-1.54-1.39-.56M50.59 687.69c.89.08 1.77.14 2.66.27.75.12 1.37.2 2.06.52q.26.15.48.35c-.03.06-.03.15-.08.18-.07.04-.18-.03-.24.02-.16.1-.25.28-.37.41q-.8.83-1.58 1.66c-.19.5-.17.27-.13.69-.32.29.1.75.41.46.35.18.14.12.66.06 1.38-.79 3.44-2.28 3-4.16-.1-.37-.44-.64-.66-.97-.3-.17-.6-.4-.93-.53q-.57-.2-1.16-.31c-1.41-.3-2.88-.37-4.31-.34-1.2.14-1 1.82.19 1.69M23.33 2842.4a15 15 0 0 0-5.62-6.44c-.64-.42-1.34-.76-2-1.14-2.08-.93-5.23-1.88-7.01.24-1 1.19-.75 1.91-.77 3.35 1.32 4.03 4.78 6.52 7.99 9 .65.5.87.6 1.36 1.1.06.08-.19-.1-.23-.18-.07-.17.09-.47-.08-.53-.24-.1-.48.16-.73.23l-1.05.34c-1.97.69-4.47 2.36-3.59 4.85.17.47.53.84.8 1.26 2.33 1.96 5.4 2.58 8.21 3.57.37.03.42.57.73.73.6.3 1.04.22 1.67.2.91-.18 1.93-.06 2.82-.34.27-.1.51-.27.77-.4.48-.08.37-.77-.11-.69-1.17-.24-2.35-.19-3.54-.15-.2.01-.41-.03-.6.03-.1.03.1.34.05.27-.32-.56-.6-.96-1.24-1.2-2.52-.88-5.2-1.46-7.44-2.97-.17-.18-.38-.34-.5-.55-.92-1.57 1.39-2.66 2.47-3.03 1.06-.34 2.59-.52 3-1.8.28-.86-1.37-1.67-1.77-2.04-2.83-2.17-5.89-4.36-7.34-7.74-.06-.68-.26-1.36.14-2 1.08-1.75 3.82-.68 5.17-.1 2.99 1.67 5.44 3.5 7.02 6.6.34 1 1.76.53 1.42-.47M27.32 2844.42c2.42 3.83 4.64 7.77 6.74 11.8.91 2.11 2.18 4.06 3.25 6.09.07.43.67.33.6-.1.18-2.45-1.4-4.64-2.37-6.77-2.12-4.04-4.3-8.08-7.03-11.74-.5-.83-1.7-.12-1.19.72" style="fill:#f99"/><path d="M26.16 2858.7c3.3 1.56 6.45 3.4 9.6 5.2 1.59.84.82.53 2.29 1 .38.27.77-.27.39-.55-.98-1.29-.39-.67-1.85-1.79a54 54 0 0 0-10.02-5.28c-1.01-.29-1.42 1.14-.41 1.43" style="fill:#f99"/><path d="M36.67 2863.61c1.3 1.15 2.56 2.32 3.96 3.33.71.56.74.92 1.21-1.06l-1.44-1.25c-.29-.15-1.66-1.78-2.15-1.37-1.1.9-.78 1.15-.4 1.9.57.78 1.13 1.58 1.78 2.3 1.28-1.5 1.5-.87.8-1.76q-.46-.56-.88-1.13-.1-.15-.16-.3c-.02-.05.05.07.08.1-.84 1.23-.74.82.1.68.3.15.5-.27.21-.42-.78-1.23-.88-1.28-2.03-.06.21.9.76 1.5 1.33 2.21.14.17.2.58.41.52.56-.16.94-.69 1.41-1.03-.56-.59-1-1.29-1.53-1.9-.43-.76.12-.02-1 .61-.14.08-.3-.23-.46-.19-.13.03.2.16.3.23l.5.41.58.48c.18.15 1.68 1.43 1.74 1.4 1.8-1 1.3-1.1.55-1.7-1.34-.95-2.55-2.05-3.81-3.1-.78-.77-1.88.33-1.1 1.1M13.7 2876.06c5.1-1.74 10.25-3.4 15.36-5.14 1.92-.63 3.83-1.3 5.65-2.2.08 0 .07-.13-.02-.11-.46-.06-.9-.2-1.37-.18-1.3.07-3.57.8-4.71 1.12-5.19 1.64-10.4 3.25-15.42 5.33-.84.36-.33 1.54.5 1.18M35.68 2875.51c5.17-1.66 10.37-3.23 15.56-4.84 3-1 1.64-.47 4.08-1.54.46-.13.29-.78-.17-.66-2.68.33-1.24.08-4.31.86-5.25 1.51-10.54 3.01-15.63 5.01-.83.34-.36 1.5.47 1.17" style="fill:#f99"/><path d="M37.8 2232.08a10 10 0 0 0-4.26 2.18q-.63.56-1.23 1.15c-.4.53-.85 1.02-1.2 1.58-1.6 2.51-2.4 5.7-1.65 8.65.21.84.63 1.62.95 2.43.53.75.99 1.57 1.6 2.25a13.4 13.4 0 0 0 7.77 4.27c2.76.45 3.6.08 6.3-.38 2.1-.84 3.5-1.17 5.18-2.77a11 11 0 0 0 2.93-5.08c.68-2.44.43-3.29.3-5.76-.28-.91-.46-1.86-.83-2.74a13 13 0 0 0-5.23-5.83c-1.78-1.08-2.29-1.1-4.22-1.64-1.6-.19-3.07-.33-4.42.7-.24.2-.41.46-.62.7-.32.25.04.7.36.45q.29-.17.59-.27.42-.1.87-.1c1.33-.1 1.3-.02 2.74.18 1.66.5 2.09.52 3.63 1.45a11.4 11.4 0 0 1 4.54 4.92c.33.73.5 1.53.75 2.3.15 2.09.38 2.9-.15 4.97a9 9 0 0 1-2.29 4.26c-1.44 1.43-2.62 1.72-4.45 2.5-2.37.44-3.07.77-5.5.42a11.6 11.6 0 0 1-6.83-3.58c-.53-.57-.93-1.25-1.4-1.88-.28-.66-.66-1.29-.85-1.98-.7-2.5 0-5.24 1.3-7.41.3-.49.67-.92 1-1.38q.53-.53 1.07-1.04c1.04-.9 2.27-1.54 3.48-2.2.94-.15.72-1.48-.22-1.32" style="fill:#f99"/><path d="M39.88 2242.51c-.53.55-1 1.54-.26 2.18.22.19.54.2.8.3.27-.04.54-.04.8-.13 1.05-.36 1.99-1.6 1.56-2.76-.12-.33-.4-.58-.61-.87-.33-.16-.63-.41-.98-.5-1.8-.4-3.74.96-4.3 2.64-.17.52-.14 1.09-.2 1.63.16.53.21 1.11.48 1.6 1.17 2.24 3.96 3.24 6.34 2.62.63-.17 1.2-.53 1.8-.8 1.2-1.01 1.92-1.37 2.56-2.89.53-1.28.58-2.68.3-4.02-.35-1.65-.8-2.07-1.67-3.43-.38-.4-.73-.83-1.14-1.2-.72-.63-1.97-1.49-2.99-1.54-.22 0-.5-.03-.66.13-.24.23-.25.61-.38.92l.46.46c.23.3.65-.02.42-.32l.08-.05-.34.5c-.09.14.3.08.44.15a7 7 0 0 1 2.55 1.99c.7 1 1.06 1.35 1.38 2.57a4.4 4.4 0 0 1-.73 4.1c-.3.37-.7.66-1.05.99-1 .5-1.41.88-2.57.87a4 4 0 0 1-3.12-1.62c-.19-.28-.26-.6-.39-.91 0-.3-.1-.6-.03-.89.21-.93 1.15-1.79 2.1-1.89q.2.01.37.05c.82.1.08.81-.22 1.06.1.21.13.23.08.5 0 .03-.07.03-.07 0-.02-.14.14-.3.2-.42.72-.72-.29-1.73-1-1.02zM37.09 2253.32q-.22.3-.42.62c-.92 1.52-1.74 3.12-2.57 4.7-1.66 3.17-.87 1.68-2.6 4.92-1.09 2.02-1.36 2.5-2.37 4.46-.48.94-1.04 1.91-1.29 2.96-.07.3-.04.6-.06.9-.21.48.47.78.67.3q.31-.28.58-.6c.71-.9 1.1-1.7 1.67-2.73.96-1.75 1.43-2.63 2.4-4.44q1.83-3.45 3.6-6.94c.48-.93 1-1.84 1.43-2.79q.16-.37.3-.76c.41-.95-.92-1.54-1.34-.6M1.5 3829.09c-1.42 1.93-.76 4.93-.07 7.01.26.8.63 1.57.95 2.35.47.73.85 1.53 1.4 2.18 1.74 2.01 4.11 3.08 6.7 3.42 1.62.21 2.41.04 3.97-.13 1.26-.24 1.28-.2 2.39-.53q.3-.1.6-.2c.09-.03.34-.05.26-.03-.47.1-.4-.1-.43.24 1.23 2.56 3.86 3.77 6.57 4.17.8.11 1.63.09 2.45.13 2.55-.07 4.9-.89 7.11-2.1 1-.55 2.26-1.35 3.02-2.24.3-.34.46-.76.69-1.14.46-.5-.23-1.14-.7-.65-1.37.85-.64.38-2.17 1.45-2.4 1.54-4.99 2.73-7.87 2.87-.71-.02-1.42.01-2.13-.07a8.7 8.7 0 0 1-4.55-1.8c-.4-.34-.75-.91-1.04-1.34-.15-.22-.24-.5-.46-.66s-.52-.21-.8-.24c-.14-.01-.26.07-.4.12-.61.21-.63.28-1.37.44q-.65.13-1.28.2c-1.24.08-2.26.2-3.51 0a9.4 9.4 0 0 1-5.65-2.83c-.51-.57-.86-1.26-1.28-1.9-.3-.7-.66-1.39-.92-2.11a12 12 0 0 1-.73-4.92c.03-.33.21-.74.34-1.04.46-.77-.63-1.43-1.09-.66zM3.82 3821.87c-.14-.46-.3-.84-.23-1.35.24-1.91 1.51-4.04 2.63-5.53.59-.78 1.28-1.47 1.93-2.2a26 26 0 0 1 7.6-4.8c1.68-.7 3.45-1.22 5.17-1.83l.98-.25c.46-.05.4-.7-.07-.65l-1.08-.04c-.5.02-.99-.02-1.47.04-3.27.4-7.13 2.32-9.75 4.22-.93.67-1.77 1.47-2.66 2.21-.68.81-1.42 1.57-2.04 2.43-1.38 1.88-2.66 4.21-2.72 6.62-.02.84.21 1.15.54 1.8.47.83 1.65.16 1.17-.67M27.36 3804.83c.2-.15.63-.47.82-.54 2.23-.82 5.1-.25 7.33.13.84.27 1.7.46 2.5.8 2.9 1.22 5.77 3.46 7 6.44.22.56.3 1.17.44 1.75.03.54.1 1.08.08 1.61a10 10 0 0 1-.4 2.42c-.26.9-.5.86-.14 1.73l.57.28c.35.08.45-.42.1-.5l.34.24c.07 0 .15.05.2 0 .25-.24.56-1.18.61-1.35q.7-2.41.32-4.9c-.21-.71-.33-1.47-.64-2.15-1.48-3.3-4.7-5.8-7.99-7.12-.88-.36-1.82-.55-2.72-.83-2.67-.43-5.93-1.07-8.45.31-.47.26-.64.56-.93.96-.51.68.45 1.4.96.72zM48.23 3821.02a13.5 13.5 0 0 1 3.29 5.49c.2.7.27 1.42.41 2.14.01.75.11 1.5.04 2.26-.32 3.06-1.9 5.8-3.93 8.05-.37.4-.8.78-1.2 1.17l-.9 1.01c-.2.1-.05.4.16.3l1.59-.28c.54-.38 1.14-.68 1.63-1.12a14.8 14.8 0 0 0 4.39-9.18c.06-.85-.07-1.7-.11-2.56-.17-.8-.28-1.63-.52-2.41a11 11 0 0 0-4.25-6.07c-.85-.43-1.45.77-.6 1.2" style="fill:#f99"/><path d="M7 3824.6c-.41.48-.64.66-.81 1.35a6.3 6.3 0 0 0 .42 4.02c.22.4.59.7.88 1.06.27.53 1.02.15.75-.39-.25-1.32-.72-2.74-.54-4.1.03-.25.22-.67.32-.92.72-.72-.3-1.74-1.02-1.02M37.8 3816.58q.1.15.2.3.26.26.5.54a12 12 0 0 1 2 3.57c.18.54.28 1.1.43 1.66.3 1.73.02 3.4-.43 5.06l-.41 1.36c-.12.35-.27.68-.36 1.04-.07.26-.07.54-.1.8l.1.57c-.1.28.3.44.41.16l.45-.3c.17-.22.38-.41.52-.64 1.12-1.8 1.73-4.4 1.7-6.49-.02-.68-.16-1.35-.24-2.02-.19-.63-.33-1.27-.56-1.88-.7-1.8-1.82-3.4-3.28-4.66-.66-.66-1.59.27-.93.93" style="fill:#f99"/><path d="M31.13 4564.9c.11-.18.16-.4.24-.6.1-.24.54-1.1.63-1.24q.27-.45.55-.88.34-.5.73-.96a12.4 12.4 0 0 1 5.12-3.36c.52-.18 1.06-.3 1.6-.45.57-.06 1.14-.17 1.72-.2 1.73-.07 3.59.2 5.2.84 1.5.58 2 1.03 3.34 1.91.5.44 1.03.85 1.5 1.32a11.4 11.4 0 0 1 3.08 5.1c.5 1.77.4 2.36.46 4.18-.1.69-.13 1.39-.3 2.06a14 14 0 0 1-2.87 5.62c-1.02 1.25-1.44 1.5-2.66 2.5-1.22.71-1.33.86-2.64 1.3q-.57.2-1.15.32c-.33.08-.68.08-.98.21s-.54.37-.8.55c-.15 0-.15.2 0 .2.32.2.6.48.97.56.38.09.79-.01 1.18-.08 1.6-.26 3.07-.96 4.43-1.83 1.38-1.13 1.81-1.37 2.96-2.8a15.5 15.5 0 0 0 3.13-6.35c.17-.76.18-1.55.27-2.32-.1-2.07.01-2.66-.59-4.66q-.33-1.13-.86-2.18a15 15 0 0 0-2.65-3.5c-.52-.52-1.1-.96-1.66-1.44-1.54-1-2-1.43-3.73-2.1-1.83-.7-3.86-.97-5.82-.84-.65.05-1.29.18-1.93.27-.59.18-1.18.32-1.76.53-2.13.8-4.15 2.12-5.62 3.87-.28.33-.5.72-.76 1.08-.55.97-1.37 2.2-1.24 3.38 0 .64.91.64.91 0M17.52 4573.18l.17-.05.78-.5 1.68-1.16c.5-.51.34-.21.47-.9.32-.2.01-.65-.3-.44-.68-.11-.35-.15-.99.12q-.87.56-1.72 1.15c-.13.1-.57.42-.74.57l-.13.16c-.74.56.04 1.6.78 1.05" style="fill:#f99"/><path d="M17.3 4570.54q.45.92.96 1.81.14.27.3.53.14.21.3.43c.31.42.11.28.6.45.27.45.92.07.65-.39.1-.49.12-.24-.09-.73q-.08-.23-.2-.47l-.29-.51q-.49-.9-1.02-1.8c-.47-.85-1.68-.18-1.2.68M32.79 4563.2c.46-.15.94-.29 1.42-.33q.34-.02.7-.03.42.03.86.1c1.58.24 3.19.78 4.51 1.7.43.3.82.66 1.22.98a14 14 0 0 1 3.84 5.9c.45 1.45.43 1.92.6 3.42-.04 1.3.01 1.8-.29 3.05q-.16.65-.41 1.28c-.34.89-.83 1.71-1.3 2.54l-.13.52c-.36.33.1.85.47.51l.7-.23q.34-.3.64-.64a10 10 0 0 0 1.93-5.4c.05-.6.02-1.21.03-1.82-.2-1.67-.18-2.23-.73-3.85a15 15 0 0 0-3.05-5.13q-.66-.7-1.36-1.34c-.48-.37-.93-.76-1.43-1.09-1.52-1-3.34-1.62-5.15-1.79q-.53-.03-1.05-.03c-.76.08-2.15.14-2.64.87q-.04.07-.04.15c-.47.46.2 1.12.66.66" style="fill:#f99"/></svg>