<svg xmlns="http://www.w3.org/2000/svg" width="60" height="5800" viewBox="0 0 60 5800"><path d="M11.23 61.87q-.09.1-.13.22c-.08.3.12 1.39.12 1.4q.04.96.06 1.94c.1 3.99-.03 1.41.25 5.71.53 3.83 1.06 8.7 4.82 10.86 2.36 1.36 3.37.87 5.95.66 1.05-.52 2.2-.88 3.14-1.57a9.8 9.8 0 0 0 3.81-9.65c-.54-3.33-1.6-4.21-3.46-6.9-1.08-.86-2.08-1.85-3.25-2.6-3-1.91-6.98-3.29-10.57-3.41-.83-.03-1.65.14-2.48.2-.34 0-.35.48-.01.5.76.11 1.53.2 2.28.36 3.33.74 6.8 1.9 9.7 3.73 1.03.65 1.93 1.5 2.9 2.24 1.65 2.3 2.58 3.06 3.16 5.9a8.1 8.1 0 0 1-2.86 8.16c-.75.61-1.68.96-2.52 1.44-1.99.26-2.9.7-4.78-.24-3.43-1.73-3.84-6.47-4.32-9.77-.36-5.48-.08-.59-.26-5.68-.04-1.12.09-3.64-1.02-4.47-.22-.17-.54-.1-.81-.16-.8.2-.52 1.32.28 1.13" style="fill:#f99"/><path d="M21.7 76.66c1.13 2.75 3.37 4.87 5.93 6.32.77.44 1.6.79 2.4 1.18 1.57.58 2.9 1.18 4.56 1.42.63.1 1.27.04 1.9.06.31.07.41-.36.1-.43a87 87 0 0 0-5.89-2.44c-1.63-.79-2.76-1.24-4.2-2.33a15 15 0 0 1-3.6-4.18c-.29-.84-1.48-.44-1.2.4M35.15 650.06c-.41-.72.14-1.5.77-1.87.3-.05.38.34.57.42q.07.02.14 0l.24.16c-.04.23.3.3.34.06.1-.11.27-.19.33-.33.6-1.36-1.56-1.95-2.45-1.49-.22.17-.46.3-.64.5-.91.95-1.15 2.47-.28 3.52.69.7 1.67-.28.98-.98zM22.48 624.53c.13.97.8 1.6 1.47 2.25.08.19.35.07.27-.11 0-.9-.02-1.76-.36-2.6-.33-.98-1.71-.52-1.38.46M11.74 644.36c.74-.24.35-.07 1.13-.57.36-.03.3-.53-.05-.5-.92-.32-.48-.24-1.3-.28-.96.16-.74 1.51.22 1.35M46.47 631.82c.8-.62 1.33-1.44 1.93-2.23.39-.3-.04-.85-.43-.55-.97.42-1.87.87-2.54 1.73-.74.74.3 1.8 1.04 1.05M50.74 641.9c.62-.3.35-.08.78-.67.25 0 .23-.36-.01-.35-.58-.47-.3-.34-.77-.51-1.08 0-1.08 1.52 0 1.52M20.62 654.42c-.53.8-.54.7-.06 1.56-.01.04.04.06.06.02.8-.15.7-.1 1.1-.76.57-.77-.52-1.6-1.1-.82M3.23 1353.68c3.19-3.6 7.95-5.19 12.27-6.95 3.7-1.4 7.45-2.71 10.92-4.62a19 19 0 0 0 4.98-3.7c.53-.58.91-1.3 1.37-1.94.76-1.7 1-3.34.3-5.08-.15-.35-.38-.65-.57-.98-.07-.23-.39-.13-.32.1.12 1.76.23 3.51-.54 5.16-.4.58-.72 1.2-1.18 1.72a17 17 0 0 1-4.64 3.49c-3.44 1.9-7.17 3.23-10.8 4.67-4.45 1.87-9.54 3.57-12.5 7.62-.36.5.35 1.01.7.51M42.54 1339.66c-.49.94-1.52 1.14-2.37.46-.32-.25-.56-.6-.84-.9-.25-.45-.56-.89-.74-1.38-.8-2.17-.47-5.1 1.58-6.5.52-.37 1.18-.48 1.78-.72 1.79.06 2.65-.16 4.26.95 2.42 1.69 3.6 4.84 3.86 7.66.1 1.05-.03 2.1-.05 3.16-.46 2.73-1.4 5.33-3.35 7.37-.45.47-1.03.83-1.54 1.24-.39.26-.02.8.37.55 1.67-.97 2.69-1.35 3.89-3.04 1.5-2.12 1.57-3.6 2.14-6.1 0-1.17.14-2.35 0-3.51-.39-3.3-1.89-6.82-4.82-8.66-2.06-1.29-3.09-.94-5.33-.89-.75.37-1.6.59-2.25 1.1-2.37 1.85-2.75 5.4-1.7 8.04.24.6.65 1.13.97 1.69.43.39.8.86 1.28 1.17 1.52.95 3.57.3 3.84-1.53.11-.69-.87-.85-.98-.16M31.2 1324.45c-2.38-1.78-3.3-4.95-2.71-7.82.2-1 .65-1.94.98-2.91.62-1 1.1-2.1 1.88-3a18.7 18.7 0 0 1 11.12-6c3.46-.47 4.53.18 7.72 1.1.97.58 2.01 1.05 2.9 1.75a10 10 0 0 1 3.8 6.28c.08.59-.01 1.2-.02 1.79-.03.4.55.45.58.04.21-1.62.53-2.75-.02-4.41a11 11 0 0 0-3.65-4.86c-1-.76-2.15-1.26-3.23-1.88-1.33-.36-2.62-.9-3.98-1.07-6.03-.74-12.34 2.02-16.18 6.67-.81.98-1.32 2.16-1.97 3.25-.34 1.06-.8 2.1-1 3.2-.55 2.95.27 6.17 2.54 8.21.23.2.51.32.77.48.58.33 1.05-.49.47-.82M46.02 1359.86c.18.12.35.27.55.35 2.13.8 4.74-.4 6.56-1.44.68-.39 1.3-.87 1.95-1.3 1.74-1.5 3.85-3.38 3.27-5.95-.07-.33-.27-.62-.41-.93-.08-.27-.45-.16-.37.1.03.28.11.54.1.81-.05 2.16-1.66 3.77-3.2 5.07-1.9 1.31-4.33 2.95-6.74 3.1-.53.03-.77-.13-1.19-.33-.37-.36-.89.16-.52.52M24.69 1357.23a14 14 0 0 1 6.67 2.44c.46.33.87.73 1.3 1.1.85.84 1.25 1.7 1.48 2.83 0 .4.56.4.56 0 .06-.37.21-.75.18-1.13-.12-1.35-.61-1.62-1.43-2.65-.5-.4-.95-.86-1.48-1.21-1.97-1.33-5.1-2.46-7.5-2.27-.63.16-.4 1.04.22.88zM22.56 634.74a11 11 0 0 0-3.07 4.17c-.26.66-.4 1.37-.61 2.05-.1.77-.27 1.54-.3 2.31-.13 2.4.21 4.72 1.65 6.71 1.16 1.6 1.9 1.88 3.52 2.92.7.3 1.37.64 2.07.9.45.18 3.61 1.16 4.1 1.32 1.2.4 2.32.81 3.45 1.36q.68.35 1.35.73c1.32.93.67.52 1.94 1.24.44.43 1.04-.2.6-.62-.95-1.43-.35-.78-1.86-1.9-1.38-.73-1.65-.91-3.16-1.5-2.55-.99-5.27-1.49-7.75-2.7-1.35-.83-2.08-1.12-3.07-2.4a7 7 0 0 1-.96-1.7c-.46-1.19-.59-2.93-.54-4.19.03-.7.17-1.4.25-2.1.18-.61.3-1.23.52-1.83.18-.5.44-.96.68-1.42q.74-1.39 1.77-2.57c.55-.41-.03-1.2-.58-.78" style="fill:#f99"/><path d="m25.98 631.36.33-.04c1.9-.45-1.03.12 1.59-.46.87-.19 2.4-.42 3.24-.47.67-.05 1.34-.02 2-.03.69.08 1.39.08 2.06.24a9.5 9.5 0 0 1 5.17 3.28c1.09 1.35 1.16 1.88 1.77 3.45.09.65.23 1.3.27 1.94.12 2.09-.3 4.14-.74 6.16l-.86 3.95c-.24 1.64-.5 3.34-.22 5q.2 1.16.76 2.18.2.35.42.67c.14.39.68.18.54-.2-.4-2.43-.48-4.91-.04-7.33q.45-2 .88-3.97c.46-2.19.9-4.43.71-6.68-.06-.76-.25-1.5-.37-2.26-.74-1.79-.84-2.41-2.12-3.93a11 11 0 0 0-6.02-3.64c-.74-.16-1.5-.14-2.25-.22-.7.03-1.42.02-2.13.09q-1.75.16-3.42.66c-.44.13-1.24.41-1.67.67q-.16.12-.3.27c-.47.28-.07.95.4.67M33.73 3339.03c-.26 0-.52-.04-.78 0-2.17.29-5.08 1.9-6.57 3.46-.59.62-1.02 1.38-1.53 2.07-.32.84-.76 1.64-.96 2.51-.65 2.8-.07 6 1.78 8.24 1.95 2.37 3.24 2.56 5.99 3.8 1.29.22 2.56.6 3.87.68 5.2.33 10.66-1.74 13.56-6.26.64-.99.95-2.15 1.43-3.23.11-1.13.44-2.27.35-3.4-.34-4.58-3.9-8.54-8.15-10.01-.9-.32-1.89-.35-2.83-.52l-2.34.1c-.06 0-.07.08-.01.08l2.17.47c2.03.77 3.13 1.05 4.94 2.35 2.43 1.75 4.46 4.32 4.78 7.4.1.99-.15 1.98-.22 2.98-.4.95-.63 1.99-1.17 2.87-2.57 4.2-7.54 6.13-12.3 5.9-1.2-.07-2.38-.4-3.57-.59-2.37-1.01-3.7-1.25-5.43-3.23a8.5 8.5 0 0 1-1.71-7.2c.16-.77.53-1.49.8-2.23.43-.61.79-1.3 1.3-1.85 1.49-1.6 4.4-3.14 6.6-3.47.65 0 .65-.92 0-.92" style="fill:#f99"/><path d="M31.17 3346.25c-1.7.4-3.21 1.32-4.54 2.42-.12.2-.33.37-.36.6-.22 1.67 2 1.36 3.01 1.39.7.09.36.12.32.18q-.06.13-.07.27l-.1.53-.12.6c-.35 1.62.54 1.82 1.31 2.93.56.42.25.23.92.57.02.05.1.02.07-.03.15-.83.15-.4 0-1.25-.36-.5-.3-.48-.73-.88-.44-.41-.52-.38-.37-1.1.28-1.35.72-2.9-1.21-3.05-.48 0-1.18-.06-1.65 0-.24.02-.14.24-.3.38-.05.04.04-.15.05-.22a14 14 0 0 1 3.99-2.28c.75-.15.53-1.21-.22-1.06zM39.95 651.03q-.23.04-.46.12-.33.12-.65.29-.99.44-1.9 1.04-.54.36-1.04.78-.47.4-.92.8-.38.36-.7.75c-.29.37-.71 1.12-.18 1.58.66.58 1.52.18 2.15-.06q.53-.21 1.06-.46c.9-.4 1.79-.85 2.72-1.2.1-.04.39 0 .32-.09-.53-.63-.6-.59-1.08-.57-.62.56-1.29 1.06-1.88 1.65-.3.31-.53.5-.62.93q-.01.16.02.32c-.17.37.34.6.51.24q.08.03.14.04c.32-.06.6-.32.84-.5q1.04-.83 2-1.74c.57-.83 1-.9-.3-1.66-.15-.08-.32.08-.47.14-.93.34-1.8.84-2.72 1.21q-.5.2-.97.4c-.23.09-.51.07-.68.24-.08.1.11.23.11.36 0 .15-.16.3-.11.45.1.4.41-2.66.74-1q.41-.38.84-.74l1.88-1.4c.77-.52.6-.36 1.32-.76l.3-.2c.69-.2.41-1.16-.27-.96M40.54 657.03q-.15 0-.3.04c-.37.13-.9.65-.98 1.04-.04.17-.02.35-.03.52.15.18.25.4.43.53.3.2.8.09 1.14.12l-.04.02q-.02-.1-.01-.17l.2-.04c.04.25.38.19.34-.06l.14-.36c-.07-.16-.09-.35-.21-.47-.17-.16-.5-.15-.72-.14q-.1-.01-.2.01c-.13.05.89.8.12.4q-.02.08-.07.15c-.04.02.02-.09.04-.13l.12-.18c.1-.13.27-.21.03-.28.7 0 .7-1 0-1M34.1 3339.01c-1.1.36-2.2.95-3 1.8q-.2.23-.38.48c-.43.95-.16 1.35.88 1.49.17.02.93-.12 1.1-.14l.4-.03c.03.03.1.04.1.08s-.11.04-.11.08c-.04.35.28.46.52.65l.56-.13c.5-.15.3-.86-.2-.72l.2-.03c.08.08.13.21.24.23.06.01-.02-.13-.03-.19q-.03-.2-.1-.39c-.15-.35-.35-.6-.72-.76-.18-.08-.37-.07-.56-.11-.86.08-.16 0-.97.13-.13.01-.28-.04-.37.04-.06.06.1.13.1.21q.03.23 0 .45c0 .03 0-.05-.02-.08.67-.92 1.76-1.43 2.73-1.95.78-.26.42-1.37-.37-1.1" style="fill:#f99"/><path d="M36.24 3338.38c.56-.07 1.18-.3 1.74-.1q.11.06.2.14c.01.04.05.09.03.12-.07.1-.2-.1-.21-.1-.08-.02-.38.31-.43.35-1.13 1.22.73 1.77 1.56 2.13q.2.09.37.2.16.07.28.17l.12.12c-.06-.06-.15-.1-.17-.17-.16-.6.16-.3-.07-.5-.61.17-1.84.28-2.26.8-.13.17-.19.38-.28.57q.02.26.05.51c.03.11.13.43.13.31-.05-1.2-.06.27.2-.68.01-.04-.08-.03-.12-.04-.7 0-1.75-.34-2.36.1q-.18.16-.31.36c-.23 0-.21.33.01.32q.14.17.31.32c.51.37 1.74.24 2.36.33.46-.04.83.03 1.14-.45.12-.18.11-.42.12-.64q-.02-.14-.09-.27s-.03-.04-.03-.02q-.03.08-.04.18-.09.1-.2.2c-.01.02.01-.04.03-.05l.3-.13c.53-.17 1.08-.25 1.6-.43.2-.12.45-.18.6-.37.76-.99-.4-1.64-1.14-1.98l-.87-.4c-.08-.03-.18-.18-.25-.11s.1.2.08.3c-.03.24-.3.61-.13.38.65-.59 1.3-1.34.62-2.22-.11-.15-.29-.23-.43-.35q-.28-.1-.56-.2a4 4 0 0 0-2.59.38c-.64.49.04 1.4.7.92z" style="fill:#f99"/><path d="M35.4 3338.7a9 9 0 0 0-1.8 2.25c0 .2-.12.42 0 .57.21.26.55.43.88.51s1.4-.68 1.7-.86c.67-.47.89-.34-.58-1.26-.05-.04-.73.66-.81.75-.21.3-.52.63-.12 1.09.22.24.61.22.93.26.21.03.96-.28 1.19-.37.64-.19.05 0 .03-.02a1 1 0 0 1-.46-.32c-.05-.07-.03-.16-.05-.24l.01.09q.1.14.19.26c-.24.44.39.77.62.33.12-.01.25.03.34-.03q.15-.1.2-.28c.15-.55.06-.87-.5-1.19-.16-.09-.37-.05-.56-.03-.11 0-.21.07-.32.1l-.63.23c-.09.02-.3-.02-.27.07.08.17.39.16.45.33.15.39-.17.98 0 .66.22-.25.1-.14.42-.4.1-.09.33-.13.3-.25-.45-1.64-.47-1.42-1.13-.97-.08.06-1.04.64-1.02.67.59.75.6.21.47.85.06-.3.4-.6.58-.82a17 17 0 0 1 .9-1c.7-.69-.28-1.66-.96-.97M35.54 1942.81c-.02.17-.07.34-.06.5.07 1.85.87 4.26 1.72 5.86.32.6.71 1.14 1.07 1.7.48.49.91 1.03 1.45 1.45a6.7 6.7 0 0 0 3.41 1.44c.54.04 1.06-.16 1.6-.24.19.02.21-.25.02-.27-.63-.25-2.05-.78-2.63-1.1-1.39-.76-1.43-.97-2.56-2.1-.33-.5-.69-.97-.97-1.5a16 16 0 0 1-1.74-5.52c.16-.93-1.16-1.15-1.31-.22M45.43 1938.8a13 13 0 0 1 2.98 5.3c.16.62.24 1.26.36 1.9q.23 2.52-.55 4.93-.21.56-.45 1.11c-.3.5.4.92.7.43.3-.38.66-.71.9-1.13 1.03-1.74 1.12-3.68.94-5.65-.14-.7-.23-1.43-.43-2.13a13.4 13.4 0 0 0-3.15-5.48q-.27-.24-.56-.46c-.83-.52-1.56.65-.74 1.17" style="fill:#f99"/><path d="M28.36 1947.5c-1.18.34-2.44.89-3.67.44-.32-.11-.6-.32-.89-.48-.29-.33-.62-.62-.87-.98-1.84-2.72-2.14-6.25-1.7-9.41.15-1.14.48-2.26.72-3.38.41-1.13.76-2.29 1.24-3.39 1.42-3.23 3.25-6.08 6.03-8.3 2.25-1.81 2.84-1.83 5.44-2.89.94-.18 1.86-.48 2.82-.54 4.02-.26 8.3 1.53 11.64 3.62.85.54 1.64 1.16 2.47 1.74.7.64 1.46 1.23 2.14 1.91 1.54 1.54 3.1 3.45 3.7 5.6.35 1.3.16 1.76-.02 3.03l-.32 1.4c-.11.22.21.39.33.16l1.06-1.35c.15-.6.4-1.19.44-1.8a7 7 0 0 0-1.04-3.98c-1.33-2.44-3.37-4.37-5.49-6.11-.86-.6-1.7-1.26-2.6-1.82-3.66-2.28-8.17-4.09-12.58-3.75-1.04.08-2.05.41-3.08.62-2.75 1.15-3.5 1.23-5.86 3.18-2.85 2.34-4.86 5.48-6.3 8.84-.5 1.16-.85 2.37-1.28 3.56-.25 1.2-.58 2.37-.74 3.58-.44 3.41-.09 7.5 2.07 10.35.35.46.82.82 1.24 1.22.41.2.8.44 1.25.57 1.28.39 2.8.07 3.95-.57q.19-.12.36-.27c.56-.32.1-1.13-.46-.8" style="fill:#f99"/><path d="M31.84 1947.76c.52.05 1.66-.15 2.02-.53.13-.15.16-.36.24-.54.37-.3-.05-.82-.43-.52-.13 0-.27-.04-.4-.01-.12.02-.22.12-.33.18q-.45.18-.93.27c-.81-.11-.97 1.03-.17 1.14M49.42 1941.54c.17 0 .34.03.51.01a7.7 7.7 0 0 0 3.64-1.75q.39-.33.75-.68c.71-.96.97-1.31.5-2.43-.03-.34-.51-.3-.48.04-.24.49.05-.05-.34.49-.88 1.23.65-.72-.62.86q-.3.3-.63.58c-.98.8-2.12 1.4-3.33 1.76-.79 0-.79 1.12 0 1.12M33.22 1944.34c.05-.01.2-.04.24-.07.1-.09.17-.22.27-.3 1.24-1.03 2.7-1.78 4.1-2.55a32 32 0 0 1 9.5-3c1.24-.2 1.95-.22 3.15-.3l.66-.19c.33.08.43-.38.1-.45q-.37-.27-.75-.52c-.48-.04-.97-.12-1.45-.11-1.43.02-2.96.29-4.34.6-2.62.6-5.18 1.48-7.57 2.74-1.28.73-2.32 1.25-3.45 2.17-.65.53-1.63 1.4-1.35 2.39.05.15.2.26.3.39.56.43 1.16-.38.6-.8M24.84 1930.2c.27.09.12.01.39.27a6 6 0 0 1 1.6 2.32c.17.45.26.93.38 1.39.02.52.1 1.04.06 1.56a7.4 7.4 0 0 1-2.55 5.04c-.27.23-.6.4-.9.6-.38.2-.1.74.28.55 1-.37 1.68-.53 2.5-1.3a7.4 7.4 0 0 0 2.04-4.98c.02-.62-.1-1.24-.15-1.86-.18-.53-.3-1.07-.52-1.59-.5-1.19-1.63-3.05-3.13-3.03-.72 0-.72 1.03 0 1.03M43 1921.06q-.17.16-.32.34a3.4 3.4 0 0 0-.18 3.37c.17.35.43.65.65.98.32.26.6.57.95.79a5.2 5.2 0 0 0 5.12.09c.33-.18.6-.45.9-.67.48-1.13.37-.58.4-1.65.08-.38-.46-.5-.54-.12-.3.52-.1.3-.63.68q-.32.23-.65.42a4 4 0 0 1-3.72.12q-.35-.23-.68-.49c-.17-.2-.37-.39-.5-.61a2.4 2.4 0 0 1-.13-2.41c.6-.48-.07-1.31-.67-.84M39.3 1936.71c.16-.16.92-.64 1.06-.27l-.02.02c-.02-.2-.01-.16.14-.15-.15.4.42.62.57.22.08-.1.21-.17.25-.3.14-.54-.05-.58-.36-.91-.17-.06-.32-.16-.5-.2-.78-.16-1.54.3-1.98.92-.47.6.37 1.27.84.67M29.68 2525.84a87 87 0 0 1 5.88-10.45q.96-1.38 1.96-2.75c1.52-1.86 2.85-3.94 4.62-5.6.2-.2.79-.24.67-.5-.33-.71-1.3.54-1.35.6q-.51.84-1.05 1.65c-2.97 4.31-6.38 8.34-9.67 12.4-1.67 2.2-1.03 1.1-2.05 3.22-.2.27.17.57.38.3 1.82-1.46.88-.6 2.73-2.65q3.1-3.73 6.06-7.55c.67-.87 3-3.94 3.71-4.99q.58-.9 1.14-1.83c.25-.89 1.24-2.31-.7-2.23-.37.02-.6.4-.87.66-1.8 1.71-3.14 3.85-4.66 5.8-.65.94-1.33 1.87-1.95 2.83a90 90 0 0 0-5.85 10.59c-.35.7.65 1.2 1 .5M43.82 2508.98c1.9.58 3.92.99 5.61 2.08.08.13.2.23.24.38.06.2-.78 1.2-.9 1.41.06.28.02.61.2.84.3.39 1.67.53 2.13.67.7.21.72.27 1.36.62 1.1.92 1.08 1.54.64 2.81-.14.35-.06.69.02 1.04-.1.25.26.37.34.13.33-.22.62-.36.8-.75.7-1.82.38-3.13-1.23-4.3-.8-.41-1.53-.7-2.4-.9-.24-.05-.62-.26-.72-.04-.06.14-.06.3-.1.45.2-.43.6-.7.78-1.16.36-.87.1-1.56-.57-2.16q-.41-.27-.85-.5c-1.64-.78-3.5-1.06-5.25-1.43-.57-.07-.67.74-.1.8" style="fill:#f99"/><path d="M4.72 2535.3c4.7-2.1 9.55-3.8 14.35-5.62 2.15-.83 4.62-1.77 6.76-2.65.88-.36 1.78-.7 2.64-1.12.65-.31 1.25-.71 1.88-1.07.37-.15.15-.68-.22-.53-.7.18-1.4.32-2.08.55-.9.29-1.78.66-2.67 1-4.71 1.76-1.83.67-6.78 2.57-1.56.6-5.41 2.07-7.01 2.71-2.19.87-4.47 1.7-6.52 2.87q-.44.27-.85.57c-.5.36 0 1.07.5.71" style="fill:#f99"/><path d="M13.35 2511.18c.47.29.94.56 1.4.89 4.25 3.09 8.13 6.75 12.03 10.26 4.6 4.13 9.18 8.27 14.03 12.1 3.46 2.75 4.55 3.44 8 5.87.36.27.74-.23.39-.5-7.3-6-14.57-12.06-21.54-18.44-2.28-2.04-5.11-4.6-7.5-6.58-1.62-1.35-4-3.35-5.99-4.27-.2-.1-.43-.13-.64-.2-.62-.12-.8.75-.18.87M35.36 2523.14c3.5-1.32 7.04-2.5 10.55-3.78l1.53-.7c.27-.08.16-.47-.11-.39l-1.69.22a80 80 0 0 0-10.68 3.54c-.8.28-.4 1.4.4 1.11M16.5 4072.6q.21.03.41.1c.78.28 1.5.8 2.2 1.21 1.28.76.67.44 2.04 1.07.81.18 1.54.47 2.38.1 2.86-1.23 3.02-5.52 3.31-8.06.42-6.51-.62-13.05.06-19.55.1-.94.3-1.85.46-2.78.23-.65.37-1.34.69-1.95 1.32-2.53 3 .2 3.8 1.44.56.9 1.04 1.83 1.57 2.74 2.86 5.58 4.92 11.54 7.81 17.1q.66 1.22 1.35 2.42c.42.6.78 1.23 1.25 1.79.87 1 2.68 2.38 4.09 1.48.18-.11.27-.32.4-.48.2-.11.03-.38-.15-.26-2.35-.01-3.18-1.25-4.4-3.2q-.67-1.16-1.32-2.34c-2.9-5.6-4.97-11.58-7.88-17.17-.82-1.41-2.04-3.88-3.4-5a3.4 3.4 0 0 0-1.77-.8c-2.23-.21-2.88 2.51-3.35 4.02-.16.97-.39 1.93-.49 2.91-.68 6.48.35 13-.06 19.48-.23 2.14-.3 4.37-1.52 6.24-.17.27-.37.54-.64.7-.55.33-1.13.13-1.69.05-1.11-.5-.85-.34-1.94-.97-.83-.47-1.65-1.06-2.58-1.34-.2-.07-.42-.08-.63-.11-.82 0-.82 1.16 0 1.16" style="fill:#f99"/><path d="M3.45 4070.49c6.13-2.02 12.39-3.62 18.62-5.28 10.8-2.9 21.73-5.3 32.53-8.2 3.48-1.12 1.89-.55 4.77-1.66.07-.02.04-.12-.03-.1l-4.94.93a1105 1105 0 0 0-32.6 8c-1.26.34-8.59 2.3-10.14 2.73-2.6.73-5.26 1.46-7.75 2.53q-.4.18-.79.4c-.46.22-.13.88.33.65" style="fill:#f99"/><path d="M6.86 4061.74q.06.43.14.86c.6 2.79 1.38 5.54 2.05 8.31.99 4.05 1.06 4.46 2 8.62.84 3.8 1.71 7.6 2.73 11.35.06.3.47.2.41-.08a124 124 0 0 0-2.13-11.5 483 483 0 0 0-4.33-17.7c-.1-.62-.97-.47-.87.14M5.98 4685c-2.45-4.85-3.3-10.85-1.17-15.98.64-1.55 1.66-2.92 2.5-4.38 1.27-1.3 2.4-2.76 3.82-3.9a23.7 23.7 0 0 1 22.26-3.91c1.6.54 3.03 1.5 4.54 2.26 5.3 4.04 7.53 7.92 8.54 14.36 0 .43.62.42.6-.01.09-.77.3-1.54.24-2.32-.26-3.71-2.33-7.5-4.85-10.15-1.15-1.22-2.57-2.17-3.85-3.25-1.64-.8-3.19-1.82-4.91-2.4a25.3 25.3 0 0 0-23.66 4.36c-1.51 1.23-2.7 2.82-4.06 4.22-.87 1.6-1.94 3.08-2.6 4.76-2.14 5.49-1.3 12.03 1.56 17.08.52.73 1.56-.01 1.04-.75" style="fill:#f99"/><path d="M17.95 4681.79c-.97-3-.71-6.42 1.68-8.71.6-.58 1.34-1 2.01-1.5 4.98-2.32 7.96-1.3 11.63 2.41l1.11.92c.14.18.4-.01.27-.2l-.61-1.4c-.4-.5-.76-1.06-1.22-1.51a9.4 9.4 0 0 0-9.34-2.42c-.92.26-1.76.76-2.64 1.14-1.81 1.41-2.8 1.84-3.85 3.94-1.26 2.5-1.03 5.6.04 8.07.52.66 1.45-.08.92-.74" style="fill:#f99"/><path d="M4.87 4690.2c2.2-3.95 6.48-5.78 10.38-7.6a40 40 0 0 1 19.13-2.81c.49.07 1.59.28 2.13.17 1.31-.26 2.14-1.54 3.05-2.38q.82-.71 1.65-1.4c3.86-2.86 8.48-4.4 13.03-5.8 1.27-.43.7-.23 1.7-.59.36-.03.31-.55-.05-.51-1.14-.16-.5-.11-1.95-.06a35 35 0 0 0-13.71 5.81q-.88.73-1.72 1.5c-.2.17-1.68 1.86-2.03 1.95-.52.14-1.55-.06-1.96-.12-1.76-.15-2.48-.26-4.36-.22a43 43 0 0 0-15.5 3.2c-3.28 1.57-6.03 2.76-8.65 5.36a8.5 8.5 0 0 0-2.16 3.17c-.24.72.78 1.05 1.02.33M9.3 4681.22c-1.28-1.96-1.58-4.81-1.27-7.07.14-.98.46-1.93.7-2.9.44-.99.8-2.03 1.33-2.98 2.21-3.9 5.76-6.31 9.92-7.8.8-.28 1.63-.45 2.44-.68 1.53-.38 3.09-.48 4.65-.5.22.02.25-.3.03-.31a11 11 0 0 0-4.92-.1c-2.25.57-3.36.74-5.5 1.82a17 17 0 0 0-7.66 7.12c-.56 1-.93 2.12-1.39 3.18-.24 1.04-.58 2.07-.72 3.13-.28 2.17-.02 5.57 1.34 7.43.16.22.4.37.6.55.63.32 1.07-.58.44-.9" style="fill:#f99"/><path d="M21.91 4663.36c3.45-.8 7.12-.36 10.35 1.08 1 .44 1.9 1.05 2.84 1.58 3.36 2.36 5.14 5.07 7.08 8.56.05.13.23.06.18-.06-.18-.75-.25-1.53-.52-2.24-1.2-3.1-3.57-5.33-6.17-7.28-1.01-.56-1.98-1.22-3.04-1.68-3.4-1.5-7.44-2.06-11.01-.85-.63.21-.33 1.1.3.89" style="fill:#f99"/><path d="M15.36 4672.9a5.8 5.8 0 0 1 2.15-4.45c.44-.37.93-.68 1.4-1.02 2.7-1.66 4.89-1.84 7.93-1.58.08.02.11-.09.03-.1q-.41-.26-.85-.46c-2.66-1.04-5.43-.13-7.76 1.27-.51.38-1.06.72-1.54 1.15a6.6 6.6 0 0 0-2.35 5.36c.12.7 1.1.53.99-.16M27.1 5258.3c-2.5-.23-5.06.26-7.37 1.22q-1.02.47-2 1c-.67.47-1.38.9-2 1.43-1.9 1.68-3.48 4.02-3.9 6.57-.4 2.6.1 3.64.66 6.16.48 1.07.87 2.18 1.45 3.2 2.9 5.1 7.47 8.42 12.85 10.6 1.49.6 3.06 1 4.59 1.5 1.55.28 3.08.7 4.65.84 5.13.5 11.56-.3 15.52-3.94.78-.71 1.3-1.65 1.96-2.48.29-1.05.75-2.07.86-3.15.35-3.45-1.1-7.29-2.91-10.14a26 26 0 0 0-2.4-3.15c-.87-.98-1.86-1.85-2.79-2.77-2.52-2.01-3.02-2.57-5.75-4.17q-1.26-.77-2.6-1.35c-1.42-.58-2.43-.68-3.88-.91-.27-.07-.36.32-.1.39.51.16 1.03.28 1.52.49.67.28 1.3.64 1.95 1a39 39 0 0 1 7.88 5.53c.88.89 1.81 1.72 2.63 2.66 2.3 2.62 4.13 5.66 4.82 9.11.19.97.3 1.97.24 2.96-.06.9-.4 1.75-.6 2.62-.55.73-.99 1.55-1.65 2.18-3.63 3.44-9.7 4.16-14.45 3.74-1.5-.14-2.98-.52-4.48-.78-1.47-.47-2.98-.84-4.42-1.41-5.13-2.03-9.48-5.07-12.3-9.9-.54-.94-.92-1.97-1.38-2.95-.54-2.23-1.01-3.22-.69-5.5a10.4 10.4 0 0 1 3.42-6c.56-.5 1.2-.9 1.8-1.36.63-.31 1.24-.67 1.88-.95a19 19 0 0 1 6.91-1.54c.53.05.61-.7.08-.76" style="fill:#f99"/><path d="M33.38 5262.38c-1.27-.6-3.37-1-4.67-.3-.32.17-.55.47-.82.7-.12.35-.34.68-.35 1.04-.07 2 2.2 3 3.83 3.23.48.06.96 0 1.44.01 1.1-.2 2.57-.55 2.27-2.1-.2-.98-.86-1.15-1.6-1.58-.28-.25-.64.14-.36.4l.44.74q.13.21.27.41c.05.07.17.11.15.2-.1.51-.86.54-1.2.63-.37.02-.75.09-1.13.06-1.03-.08-2.66-.52-2.95-1.72-.03-.15.01-.31.01-.47.12-.14.2-.33.35-.43 1.1-.68 2.77-.1 3.95.06.62.26 1-.62.37-.89M17.53 5265.45a2.8 2.8 0 0 0-2.57 2.67c0 .35.1.7.16 1.05.22.34.4.72.68 1a5.2 5.2 0 0 0 5 1.15c.38-.12.72-.37 1.08-.55.24-.29.56-.53.7-.87.29-.65.21-1.52-.2-2.1-.33-.48-1-.73-1.5-.97-.25-.16-.49.18-.24.35q.23.2.43.46c.16.25.55 1.18.47 1.5-.05.19-.19.33-.28.5-.23.14-.43.33-.68.42a4.2 4.2 0 0 1-3.88-.57c-.2-.15-.33-.35-.5-.53-.06-.21-.16-.42-.17-.64-.07-.96.66-1.64 1.5-1.9.69 0 .69-.97 0-.97M21.91 5276.87c-1.32-.28-2.99-.2-3.97.88-.23.26-.35.6-.52.9-.03.34-.14.7-.09 1.03.17 1.2 1.18 2.02 2.29 2.33 1.03.3 1.46.14 2.49.01.35-.15.75-.24 1.07-.46.96-.63 1.62-2.22.58-3.1-.14-.12-.34-.13-.5-.2-.14-.15-.35.04-.22.19-.08 1.25.38 1.59-1.13 2.25q-.45.11-.9.16c-.9.06-2.17-.15-2.5-1.14-.06-.17-.03-.36-.05-.54.07-.17.1-.37.2-.52.67-.92 2.07-.8 3.06-.82.68.13.88-.84.2-.97M27.52 5283.8c0 .16-.04.33.02.48.43 1.2 2.05 1.44 3.13 1.45.34 0 .68-.06 1.02-.1.82-.2 1.88-.63 1.81-1.7a1.3 1.3 0 0 0-.34-.8c-.18-.18-.47-.18-.71-.27-.3-.24-.64.17-.35.42q0 .18.04.37c.02.06.19.06.16.16-.1.39-.44.4-.76.55-.98.15-2.24.3-3.08-.37.13-.67-.81-.86-.94-.19M44.6 5270.32c-1.38.18-2.72.73-3.98 1.3q-.58.25-1.12.58c-.27.2-.48.47-.72.7-.05.34-.25.69-.14 1.02.42 1.24 2.18 1.53 3.22 1.87 1.36.44.84.22 1.92.79.05.1.2.2.17.33-.02.08-.18-.02-.27.02-.15.06-.27.18-.41.28-.2.14-1.17.82-1.35 1-.17.17-.3.4-.44.6.01.3-.1.65.04.93.54.99 2.53 1.27 3.23 2.14.08.1.04.25.06.37-.09.34-1.1 1.23-1.15 1.4-.05.2.07.41.1.62-.04.06.04.12.08.06.16.04.31.15.47.11.2-.05.37-.21.53-.35.88-.7 1.19-1.21 1.14-2.37-.16-.27-.27-.6-.48-.83-.35-.39-1.2-.8-1.64-1.02-.13-.07-.82-.5-1.15-.49-.07 0-.13.08-.2.12.06-.1.08-.23.17-.3.33-.33 1.17-.81 1.47-1.1.64-.58 1.08-1.02.78-1.96-.1-.28-.4-.44-.6-.65-.3-.16-.61-.35-.94-.48l-2.32-.73-.84-.33c-.72-.26-.13.03-.6-.21.14-.16.25-.35.42-.48.32-.22.68-.37 1.03-.53 1.2-.56 2.47-.95 3.68-1.46.67-.12.51-1.06-.16-.95" style="fill:#f99"/></svg>