<svg xmlns="http://www.w3.org/2000/svg" width="2000" height="120" viewBox="0 0 529.2 31.8"><path d="M2.8 24.6h9c4.8 0 9.6.4 14.4 1 3.4.5 6.8 1.3 10.1 2.1 4.6 1.2 9.3 1.6 14 1.8 4.1.1 8.2.3 12.3.2 3 0 4-.1 7.2-.3 5.2-.5 10.5-1.4 15.6-2.7l8.7-2.5a117 117 0 0 0 16.9-6.8l1.3-.6c1.7-.9.5-3.3-1.2-2.4l-1.3.6c-5.3 2.7-10.8 5-16.5 6.7L84.8 24c-5 1.3-10.1 2.1-15.2 2.6l-7 .4-12.1-.2A64 64 0 0 1 36.9 25a97.7 97.7 0 0 0-25.2-3h-9c-1.8 0-1.8 2.6 0 2.6z" style="fill:#ffd1d1;fill-opacity:1;stroke:none;stroke-width:0;stroke-dasharray:none"/><path d="M154.3 3a1.3 1.3 0 0 0-1.2.5s-2.2 3-5.1 3.2c-3.7.4-7.8.9-10.7 3.5a7 7 0 0 0-1.9 3.4c-.2.7-.3 1.5-.3 2.4l-.8-.1-1.4-.3a9.5 9.5 0 0 1-3.6-1.8c-.4-.3-.5-.5-.8-1-1.1-1.4-3.2.2-2.1 1.7.5.7.6.9 1.3 1.5 1.3 1 3 1.7 4.6 2.2l1.6.3 1.7.2v.2a6 6 0 0 0 3.1 3.6c1.4.7 3 .9 4.4.8a13 13 0 0 0 7.4-2.7c3.3-2.7 4.6-6.7 4.9-10.6.2-3.3.1-5.8.1-5.8a1.3 1.3 0 0 0-.9-1.2 1.3 1.3 0 0 0-.3 0z" style="color:#000;fill:#ffa3a3;stroke-width:2.64583;stroke-linecap:round;stroke-linejoin:round;-inkscape-stroke:none"/><path d="M173 14.6h15c9.4.5 18.5 2.8 27.6 5 9.2 2.4 18.7 4 28.2 4.5l6.7.2c8.2-.1 16.4-1 24.4-2.9 4-.9 5-1.3 8.8-2.5 2.6-.8 5-2 7.4-3.2 1.7-.9.5-3.2-1.2-2.3a42.8 42.8 0 0 1-7 3c-3.7 1.1-4.7 1.5-8.5 2.4a106 106 0 0 1-23.8 2.8l-6.6-.1a142 142 0 0 1-27.8-4.4c-9.2-2.3-18.5-4.7-28.1-5.1l-15.2-.1c-1.9 0-1.9 2.7 0 2.7z" style="fill:#ffd1d1;fill-opacity:1;stroke:none;stroke-width:0;stroke-linecap:round;stroke-linejoin:round;stroke-dasharray:none;stroke-opacity:1;paint-order:stroke markers fill"/><path d="M343.4 24.8c5-2 10-4 15-5.8a106 106 0 0 1 20.8-5.4c9.3-1.3 18.7-1.2 28.1-1 7.4 0 14.7.9 22 1.7 7.4.8 6.5.6 13.9 1.3a489 489 0 0 0 30.7 1.5c1.9 0 2-2.6 0-2.6-10.1-.3-20.3-.7-30.5-1.5l-13.8-1.4c-7.4-.7-14.8-1.7-22.2-1.7a191 191 0 0 0-28.6 1.1c-7.3 1.2-14.4 2.8-21.3 5.5l-15 5.7c-1.7.6-.9 3.1 1 2.6zm-135.8-1.4c1.6 0 3.3.2 5 0 1.8 0 2.6-.3 4.3-.7 4.5-1 8.6-3 12.8-4.7l9-3.5c7.3-3 15-5.3 22.6-7.2 1-.2 4.1-.9 5.3-1h2.3c1.9-.1 1.8-2.8 0-2.7l-2.8.1c-1.2.1-4.4.8-5.4 1-7.8 2-15.5 4.3-23 7.3l-9 3.5c-4 1.7-8 3.6-12.3 4.7-1.4.2-2.4.5-3.8.6h-5c-2 0-2 2.6 0 2.6zm-156.1-11A45 45 0 0 1 65 14.5c3.4 1 6.7 2.4 10 3.7 1.8.7 2.8-1.8 1-2.5-3.4-1.3-6.8-2.7-10.4-3.8a47.6 47.6 0 0 0-14.2-2.2c-1.9 0-1.9 2.7 0 2.7z" style="fill:#ffd1d1;fill-opacity:1;stroke:none;stroke-width:2.64583;stroke-linecap:round;stroke-linejoin:round;stroke-dasharray:none;stroke-opacity:1;paint-order:stroke markers fill"/><path d="M413.9 30c6.3-1.8 12.2-4.9 18-7.8 7.2-3.5 14.4-6.8 21.9-9.5 3.2-1 6.4-1.7 9.7-2.4 1.9-.4 1.4-3-.5-2.6a88 88 0 0 0-10.1 2.6 200 200 0 0 0-22.1 9.5c-5.7 2.8-11.4 5.9-17.5 7.6-1.8.5-1.2 3 .6 2.6z" style="fill:#ffd1d1;fill-opacity:1;stroke:none;stroke-width:2.64583;stroke-linecap:round;stroke-linejoin:round;stroke-dasharray:none;stroke-opacity:1;paint-order:stroke markers fill"/><path d="M313.1 4.6c-5.6 0-12.7 7.9-1.3 11.3-14.7 6 7.7 19.7 6.3 4.6l1.9 1.7a15 15 0 0 0 2.4 1.5l1.5.6 3.7 1c1.9.2 2.3-2.4.5-2.7a19 19 0 0 1-3.2-.8l-1.3-.5-1.3-.8c12 2 4.5-19.7-4.6-7.8.8-6-1.7-8-4.6-8z" style="fill:#ffa3a3;fill-opacity:1;stroke:none;stroke-width:.313827px;stroke-linecap:butt;stroke-linejoin:miter;stroke-opacity:1"/><path d="M493.4.4c-.5 0-1 .3-1.3 1 0 .5-.2 1-.3 1.3l-.4 1a17 17 0 0 1-1 1.8L488 4l-1.8-1-.7-.4c-1.8-.4-2.4 2.1-.6 2.6l.7.5 1 .6 1.7 1c-1.9.6-3.8 1.2-5.7 1.6-1.9 0-2 2.6 0 2.7l1-.2 3.8-1-.7 1.2-.3.5c-.7 1.7 1.8 2.7 2.5 1l.8-1.5.7 2.3c.6 1.7 1.4 3.4 2.2 5l1.6 2.5c1 1.6 3.2.2 2.2-1.4a32 32 0 0 1-3.5-6.9l-.9-3.3c1.8 1 3.4 2.2 5.1 3.4.2 0 .3.2.5.3 1.6 1 3-1.2 1.5-2.2l-.5-.3-4.5-3 2.8-1.2 2.4-.9c1.7-.7.7-3.1-1-2.4l-2.3.9-2.4 1 .2-.6.5-1.2.4-1.5c.3-1.1-.5-1.7-1.3-1.7zm23.9 10.2c-.6 0-1.2.4-1.3 1.3 0 1-.3 2-.6 2.9-.6-.4-1.2-.8-1.8-1-.8-.4-1.5-.7-2.4-.8-1.8 0-1.8 2.7 0 2.7l.7.2.6.2.4.3h-.9l-1.2.2h-3.9c-1.9 0-1.9 2.7 0 2.7h4l1.2-.2-1 .8c-1.4 1.1.2 3.2 1.7 2l1-.8a29 29 0 0 1-1.4 6.5l-.4 1c-.7 1.7 1.8 2.7 2.5 1l.4-1.2.4-1.2a30.3 30.3 0 0 0 1.3-8.5l1.6 1.2.5.4c1.3 1.3 3.1-.6 1.8-2l-.6-.5-.6-.4 2.3-1.3.8-.7.7-.6c1.5-1.1-.1-3.2-1.6-2l-.7.5c-.8.7-1.6 1.3-2.5 1.6h-.2c.3-.9.5-1.8.5-2.8.1-1-.6-1.5-1.3-1.5z" style="fill:#ffa3a3;fill-opacity:1;stroke:none;stroke-width:2.64583;stroke-linecap:round;stroke-linejoin:round;stroke-dasharray:none;stroke-opacity:1;paint-order:stroke markers fill"/><path d="m507.3 7.8 1.3-.6c1.7-.8.5-3.2-1.2-2.3l-1 .4c-1.7.6-1 3.1.9 2.5zM476.5 25h1.1c1.9 0 1.9-2.6 0-2.6h-1c-2 0-2 2.6 0 2.6zm22.3 3.2a6 6 0 0 0 2.2-.6c1.7-.7.7-3.1-1-2.4l-1.2.4a1.3 1.3 0 0 0 0 2.6zm26.7-24.6 1.8-.2c1.8-.3 1.4-3-.4-2.7l-1.4.3a1.3 1.3 0 0 0 0 2.6zM7.3 19.5c.8 0 1.5-.2 2.3-.5l.3-.1c1.7-.8.5-3.2-1.1-2.4h-.2c-.4.2-.9.4-1.3.4a1.3 1.3 0 0 0 0 2.6z" style="fill:#ffa3a3;fill-opacity:1;stroke:none;stroke-width:.264583"/></svg>