<svg xmlns="http://www.w3.org/2000/svg" xmlns:xlink="http://www.w3.org/1999/xlink" width="1080" height="120" viewBox="0 0 285.7 31.8"><path id="a" d="M5.1 26.7h7.1c3.8 0 7.7.1 11.4-1l2.6-.8a28 28 0 0 0 9.2-5.3c1.1-1.3 1.5-2.9.1-4.2-1-.5-2-.5-3-.5-1.5 0-2.3 1-2.7 2.3l-.1 2.6c0 1 .3 1.8.8 2.6 1.5 2 3.7 2.7 6 3.4 3.8.8 7 1 10.8.2 5.2-1.3 9.7-4.4 14-7.4 4.5-3.1 8.9-6.6 13.8-9.1l2.4-1.1a28 28 0 0 1 12.2-1.9c1.2 0 2.4.4 3.5.8 1.8.5 2.6-2 .8-2.6-1.4-.4-2.7-.8-4.2-.8a32 32 0 0 0-13.3 2l-2.7 1.3c-5 2.5-9.4 6-14 9.2a43 43 0 0 1-13 7c-3.2.6-6.4.6-9.6-.2-1.7-.4-3.4-1-4.5-2.3-.3-.3-.4-.7-.4-1v-2.1c.1-.3-.2 0 .1-.3h1.5c-.3-.7.3-.7-.4.2-2.2 2.3-5.3 3.4-8.2 4.7l-2.3.8c-3.5 1-7.1.9-10.8.8H5.1c-1.9 0-1.9 2.7 0 2.7z" style="fill:#ffa3a3;stroke-width:.352999;fill-opacity:1"/><use xlink:href="#a" transform="matrix(-1 0 0 1 287.4 0)"/><path d="M144.1 10.3s-4.3-4.5-9.9-2.1c-2.9 1.2-3.5 4.6-3.4 7.3 0 2.8 1.8 5.7 4 7.5 3.9 3 9.7 5.7 14.2 4 3.1-1.2 6-3 7.8-6.1 1.7-3 2.6-7 2-10.4-.4-2.3-2.9-7-7-6.6-6 .6-7.7 6.4-7.7 6.4z" style="fill:#ffa3a3;fill-opacity:1;stroke:none;stroke-width:.264583px;stroke-linecap:butt;stroke-linejoin:miter;stroke-opacity:1"/></svg>