<svg xmlns="http://www.w3.org/2000/svg" width="1200" height="120"><path d="M1011.9 29.5c-9.6 0-19.2.6-28.4 2.8-22.8 5.4-27.3 15-27.3 15s-20 0-39 5.8a38 38 0 0 0-24.4 19.7s-20.2-9-38.7-11.8c-15.6-2.4-34-3.1-49.3.8A87.4 87.4 0 0 0 773 77s-3.9-1.8-22-4c-18-2.3-36.4-2.8-54.5-1.3-26.8 2.2-52.7 5-79.3 14.9-26.6 9.9-61 38.7-61 38.7l-6.9-.2s-10.7-9.4-16.8-13c-12-7.3-29.6-15-38.6-17.1-9.5-2.3-19.3-4-29-4-10.9.2-21.8 2-32.2 4.9-9.5 2.6-18.3 7.2-27.2 11.2a171.4 171.4 0 0 0-28.5 18.4l7 5.5 831 1.3c1.6-39.4-1.4-49-6.2-93.7-12.9-5.4-27.5-8-44.8-7.8-15 .1-30 3.6-44.2 8.3-8.9 3-26.6 15.7-26.6 15.7s-10.4-9.9-30.8-18.4a134 134 0 0 0-41-6.8h-9.6zm147.5 38.4c6.4 0 14.1 1.4 19.9 3.2 5.5 1.6 9 4 13.7 7.3 6 4.2 14.7 16 14.7 16s-18.2-6.8-27.7-7.4c-8.6-.5-17.5.4-25.5 3.5-5 2-13.2 9.4-13.2 9.4s-7.2-5.2-11.4-6.6c-7-2.2-14.5-2.8-21.8-2.3-7.9.4-15.7 2.5-23 5.2-8.4 3.1-23.7 12.4-23.7 12.4s8-17.3 14.4-24.2c4-4.2 7.7-7.2 12.9-9.7 5-2.5 11.7-4.9 17.2-5a52 52 0 0 1 26.7 7.4l-1.7 2-3.6 4.7a1 1 0 1 0 1.7 1.1l3.5-4.6 1-1.1c1.6-2 3.5-3.8 5-4.8a39.3 39.3 0 0 1 21-6.5zM950.8 79c5.3 0 10.1.8 14.5 2a28.4 28.4 0 0 1 13.5 7.4 37.6 37.6 0 0 1 8.8 13.3s-9.1-7.8-17-10.4a40.7 40.7 0 0 0-21.9.3c-15 5.8-19.6 16.2-19.6 16.2s-10-3.7-15-4.7a51 51 0 0 0-15.3-1.1c-6 .6-11.7 3-17.3 5.3-5.4 2.4-15.5 8.8-15.5 8.8s1.7-18 19.4-22.4c8.3-2 15.6-1.2 21.8.9 1.4.4 2.5 1 3.7 1.5 2.3 1.2 4.7 2.8 4.7 2.8a1 1 0 0 0 1-1.7l-3.9-2.4c.7-1.2 1.5-2.8 2.3-3.8 3.3-3.9 6.8-7.9 18.9-10.4 6-1.3 11.7-1.8 17-1.6z" style="fill:red;fill-opacity:.035;stroke:none;stroke-width:1px;stroke-linecap:butt;stroke-linejoin:miter;stroke-opacity:1"/><path d="M3.8 123.8s21.1-12.1 32.5-16.3a246.9 246.9 0 0 1 78.2-13.4c14.5.1 29 1.6 43.3 4.2 7.9 1.4 23.2 6.2 23.2 6.2m544-51s18-11.7 39-15.8c15.1-2.9 30.7-5.3 46.1-4.6 15.7.8 33.1 3 47.9 8.4 19.6 7.2 20 10.7 20 10.7m-123.6 16s-21.4-11.7-32.7-16c-8-3-16.3-5-24.7-6.6a241.5 241.5 0 0 0-90.2-.4 120.2 120.2 0 0 0-51.7 26.3c-11.8 10.5-11.2 20-11.2 20m552.3-48s-7.8-9.8-22.2-19.7a105 105 0 0 0-47.4-18.2A180 180 0 0 0 966 6c-28.1 4-50 20.5-50 20.5m285.5 5C1133.7-8.5 1079 27 1079 27M376.6 98s-11.5-11.4-37.1-13.6c-16-1.4-32.1-1-48 .6-12.4 1.2-27.3 5-39 9.3-10.5 3.9-27 14.2-27 14.2m273.9-24.8c-71.6-32.4-130.7 8.6-130.7 8.6" style="fill:none;stroke:red;stroke-width:2;stroke-linecap:round;stroke-linejoin:round;stroke-dasharray:none;stroke-opacity:.05"/></svg>
