<svg xmlns="http://www.w3.org/2000/svg" width="1200" height="120"><path d="M1207.928 27.167c-67.81-39.814-122.554-4.354-122.554-4.354M1108.681 50.282c-7.03-14.36-16.297-20.981-26.944-27.148-34.572-20.024-58.129-15.389-58.129-15.389M593.952 106.202c-67.809-39.814-122.554-4.354-122.554-4.354M494.706 129.317c-7.03-14.36-16.297-20.981-26.944-27.148-34.572-20.024-58.129-15.389-58.129-15.389M411.977 118.08c-67.809-39.815-122.554-4.355-122.554-4.355M312.731 141.194c-7.03-14.36-16.297-20.981-26.944-27.148-34.572-20.024-58.129-15.389-58.129-15.389M223.079 119.95c-67.809-39.815-122.554-4.355-122.554-4.355M123.833 143.064c-7.03-14.36-16.297-20.981-26.944-27.148-34.572-20.024-58.129-15.389-58.129-15.389M786.99 72.358c-67.808-39.815-122.553-4.355-122.553-4.355M687.745 95.472c-7.03-14.36-16.297-20.98-26.944-27.147-34.572-20.024-58.13-15.39-58.13-15.39M1006.353 44.78c-67.809-39.814-122.554-4.354-122.554-4.354M907.107 67.895c-7.03-14.36-16.297-20.98-26.944-27.147-34.572-20.024-58.129-15.39-58.129-15.39" style="fill:none;stroke:red;stroke-width:4;stroke-linecap:round;stroke-linejoin:round;stroke-dasharray:none;stroke-opacity:0.1"/></svg>
