<svg xmlns="http://www.w3.org/2000/svg" xmlns:xlink="http://www.w3.org/1999/xlink" width="960" height="90" viewBox="0 0 254 23.813"><g id="b"><path d="m100.386 10.612-1.3-.435c-.02.335-.085.63-.04.906.028.18.18.427.336.484.276.102.591.063.737-.285.085-.205.165-.412.267-.67m-32.757-.505c-.19.404-.341.798-.055 1.139.134.159.54.303.657.22.29-.207.485-.547.76-.885l-1.362-.474m17.573.074-.695.33c-.432.206-.544.714-.166 1.019.186.15.517.192.765.158.103-.014.218-.358.222-.554.008-.3-.075-.603-.126-.953m24.172 2.091c.117.86.408 1.154 1.048 1.091.545-.053.838-.466.782-1.09zm-34.07-.23c.029.729.388 1.188.948 1.2.52.011.843-.412.88-1.2zm43.494-1.752c.229.311.38.588.596.796.438.42.786.359 1.078-.171a.898.898 0 0 0 .08-.483c-.029-.33-.096-.658-.159-1.06l-1.595.918M62.083 5.374c-.712-.617-1.321-1.21-2.167-1.361-.373-.067-.809.022-1.173.158-.358.134-.374.5-.065.74.218.168.477.306.74.39.838.269 1.695.205 2.665.073m3.933-3.684c-1.15-.12-3.028 2.04-2.888 3.286 1.982-1.358 2.92-2.415 2.888-3.286m26.957 3.462.16.12c.96-.551 1.935-1.077 2.87-1.669.29-.183.52-.518.679-.834.251-.496-.103-1.006-.649-.952-.326.033-.68.118-.953.288-.971.604-1.645 1.475-2.066 2.534-.061.152-.03.341-.041.513m17.1 8.825c-.336.806-.629 1.52-.93 2.23-.269.635-.122 1.053.529 1.303.616.237 1.262.296 1.908.111.533-.152.66-.321.633-.884-.018-.35 0-.744-.154-1.036a8.756 8.756 0 0 0-1.146-1.697c-.129-.148-.58-.013-.883-.007-.012 0-.024.011.042-.02m11.095-2.704c-.28.222-.567.444-.844.677-.054.045-.106.14-.098.205.092.712.178 1.426.31 2.131.03.154.214.363.362.398.817.192 1.758.116 2.328-.742.432-.65.369-1.157-.298-1.584-.578-.371-1.17-.722-1.76-1.085m-21.16 1c-.338-.041-.656-.09-.975-.115a.322.322 0 0 0-.24.101c-.528.657-1.062 1.31-1.557 1.992-.107.147-.157.462-.073.601.479.791 1.46 1.174 2.343.97.436-.1.848-.499.879-.92a4.56 4.56 0 0 0-.041-1.05c-.085-.528-.22-1.046-.336-1.579m-15.38.183c-.108.644-.23 1.307-.326 1.974-.038.261-.073.548-.003.793.06.212.238.5.42.55.877.244 1.743.291 2.504-.378.478-.422.54-.638.2-1.182a2.894 2.894 0 0 0-.277-.371c-.487-.556-.978-1.11-1.432-1.622l-1.087.236m7.612-7.654a9.162 9.162 0 0 0-1.608-3.183c-.183-.234-.463-.414-.732-.552-.621-.318-1.171.015-1.19.722-.015.566.115 1.105.597 1.47.847.645 1.708 1.272 2.492 1.855l.441-.312m-15.158 9.02h-1.44c-.32.564-.67 1.125-.967 1.714-.546 1.077.023 2.049 1.229 2.118.322.018.647-.018.971-.033.532-.023.897-.299 1.003-.807.072-.346.117-.748.012-1.071-.225-.685-.555-1.335-.808-1.92m-9.86-1.932c-.65.547-1.297 1.088-1.94 1.636-.444.378-.552 1.066-.25 1.531a2.195 2.195 0 0 0 2.555.91c.561-.181 1.024-.668.987-1.127-.07-.895-.184-1.785-.276-2.63l-1.076-.32M92.994 5.8c.166.188.252.335.379.421.78.532 1.528 1.128 2.362 1.557 1.7.875 3.357 1.859 5.24 2.336 1.558.393 3.083.963 4.66 1.217 2.613.421 5.266.456 7.879-.029 1.38-.256 2.77-.62 4.058-1.163 1.283-.54 2.568-1.17 3.58-2.199.167-.169.372-.3.563-.445.168-.128.36-.232.505-.381.634-.655 1.246-1.33 1.885-1.979.114-.115.318-.143.481-.211.008.184.09.415.01.541-.186.29-.443.538-.688.786-.147.148-.383.233-.482.404-.653 1.126-1.884 1.64-2.621 2.538.157.405.307.796.462 1.184.033.086.062.2.13.244.53.346 1.054.704 1.607 1.01.617.339 1.058.795 1.187 1.5.032.174.03.375-.028.538-.485 1.38-2.284 2.157-3.638 1.59-.432-.183-.598-.547-.656-.966-.09-.657-.133-1.32-.234-1.974a.846.846 0 0 0-.303-.492c-.432-.327-.768-.703-.86-1.227-2.199.537-4.285 1.444-6.522 1.61l-.461 1.44c.15.174.356.422.574.66.743.812.896 1.797.816 2.84-.035.459-.299.795-.717.976-1.024.444-2.053.381-3.019-.136-.829-.446-1.008-1.1-.642-1.97.262-.623.562-1.231.799-1.864.065-.173-.008-.42-.071-.615a7.466 7.466 0 0 0-.408-1.016c-.06-.12-.22-.273-.334-.273-2.416-.008-4.727-.547-6.992-1.333-.146-.05-.297-.083-.442-.123-.178.368-.352.716-.511 1.071-.027.061-.005.156.019.226.298.87.54 1.75.493 2.68-.046.912-.72 1.611-1.63 1.713-1.23.14-2.168-.353-2.864-1.346-.281-.4-.147-.95.296-1.46.499-.573.99-1.153 1.456-1.753.112-.143.14-.374.15-.566.02-.456.006-.914.006-1.43l-5.18-2.869 1.13 2.37c-.848-.249-1.337-1.007-1.95-2.916-.155.395-.306.732-.42 1.08-.187.566-.6.948-1.033 1.31-.074.06-.243.007-.368.007.02-.136-.006-.312.07-.4.427-.499.932-1.54 1.05-2.282-1.877 1.6-3.942 2.806-6.168 3.777.454.598.595 1.227.292 1.916 1.108.383 1.69 1.306 2.224 2.238.384.67.206 1.11-.362 1.642-.926.868-1.996.97-3.154.67-.574-.148-.973-.517-.986-1.122-.014-.586.074-1.175.145-1.759.036-.292.123-.58.203-.864.094-.331.131-.607-.133-.925-.187-.225-.194-.598-.289-.932l-5.648 1.215-.47 1.38c.88.865 1.336 1.942 1.19 3.207-.114.988-.697 1.51-1.678 1.61-.446.044-.911.065-1.348-.012-1.551-.274-2.208-1.633-1.482-3.03.293-.562.638-1.097.945-1.651a.48.48 0 0 0 .038-.338c-.133-.421-.291-.835-.436-1.24l-5.085-1.221c-.193.317-.413.672-.62 1.033-.036.063-.03.16-.019.238.106.768.224 1.534.324 2.303.144 1.111-.466 2.017-1.553 2.325a2.898 2.898 0 0 1-3.28-1.25c-.463-.731-.324-1.823.347-2.395a32.369 32.369 0 0 1 1.8-1.404c.23-.17.301-.328.289-.626-.016-.38.104-.764.178-1.225-1.53-.85-3.065-1.84-4.152-3.456-.33.51-.619.968-.921 1.416-.141.21-.29.422-.473.593-.09.084-.264.075-.4.109-.017-.13-.09-.289-.04-.387.212-.428.457-.84.698-1.254.133-.228.283-.447.47-.743-.209.014-.339.02-.47.031-.86.067-1.725.113-2.55-.2a3.241 3.241 0 0 1-.915-.512c-.629-.524-.527-1.352.192-1.752.633-.352 1.318-.404 1.952-.08.609.31 1.157.74 1.73 1.12.08.053.15.123.283.234.092-.985.603-1.735 1.17-2.418.41-.497.964-.89 1.5-1.264.221-.154.562-.189.849-.19.498 0 .749.29.725.79-.03.648-.342 1.19-.745 1.671-.666.794-1.419 1.493-2.499 1.965l2.91 1.325c-.44.3-.44.3-2.707-.273.574.517 1.093 1.118 1.731 1.537 3.512 2.302 7.435 3.234 11.585 3.33 1.494.034 2.92-.431 4.376-.688 2.007-.354 3.857-1.124 5.615-2.059 1.565-.833 3.184-1.653 4.443-3.05-.175-.116-.36-.231-.538-.358-.686-.49-1.393-.956-2.049-1.485-.685-.553-.865-1.34-.767-2.179.12-1.017 1.096-1.551 2.04-1.154.535.225.978.57 1.279 1.067.442.734.86 1.483 1.3 2.247.316-.402.64-.835.984-1.25.559-.67 1.247-1.142 2.126-1.282.512-.081.997-.023 1.327.443.348.492.434 1.039.098 1.547-.267.402-.592.802-.979 1.082-.937.68-1.954 1.233-3.215 1.535" style="fill:#ffd1d1;fill-opacity:1;fill-rule:nonzero;stroke:none;stroke-width:.352778" transform="translate(62.93 2.54)"/><path d="M114.394 14.847c.305.042.614.07.915.136.086.018.222.16.209.214-.026.099-.147.249-.224.246a20.888 20.888 0 0 1-1.625-.126c-.074-.008-.133-.156-.199-.24.096-.068.185-.18.289-.196.206-.031.42-.01.631-.01l.004-.024M80.09 15.58c-.251-.02-.508-.018-.754-.068-.097-.02-.17-.153-.256-.235.085-.08.167-.225.255-.229.489-.019.98-.016 1.468.01.095.005.183.144.275.221-.091.091-.17.237-.278.262-.228.055-.47.047-.707.065zM72.415 15.598c-.283-.04-.594-.064-.891-.138-.105-.026-.178-.177-.266-.27.108-.074.218-.212.323-.208.462.018.924.062 1.382.13.107.016.193.162.29.249-.117.08-.224.192-.352.228-.143.04-.307.01-.486.01M71.941 18.826c-.118-.072-.231-.103-.261-.171-.032-.073-.015-.239.033-.263.49-.25.99-.483 1.495-.705.042-.019.177.063.19.118.02.079-.006.223-.062.255-.457.266-.924.511-1.395.766M105.78 17.844c.082-.107.128-.227.213-.267.417-.198.84-.386 1.273-.548.084-.032.234.045.32.114.034.027 0 .23-.045.25-.497.207-1.002.398-1.51.578-.05.019-.139-.067-.251-.127M75.72 20.878c-.045-.114-.132-.227-.124-.332.03-.404.08-.807.15-1.206.014-.084.13-.185.218-.209.063-.017.186.061.234.13.252.365-.03 1.376-.478 1.617M80.354 19.462c-.135.069-.216.143-.3.147-.39.021-1.138-.9-1.028-1.285.023-.08.28-.18.298-.159.339.402.658.82 1.03 1.297M108.044 14.826c-.156.044-.32.148-.407.104a11.81 11.81 0 0 1-1.15-.693c-.063-.043-.086-.206-.062-.296.015-.055.185-.132.234-.105.426.233.843.486 1.259.74.04.025.05.096.126.25M110.287 20.13c-.026.187-.032.433-.104.657-.039.12-.193.202-.295.3-.085-.115-.242-.23-.24-.346.003-.334.05-.673.123-1 .023-.103.18-.176.277-.263.08.115.173.224.233.35.033.068.006.166.006.302M115.14 18.758c-.197.04-.407.142-.587.103-.222-.046-.44-.184-.62-.331-.108-.088-.139-.268-.205-.407.164-.02.355-.103.486-.047.326.14.624.345.933.523l-.007.159M66.342 15.498c-.69-.09-1.08-.54-.906-1.095.034-.11.175-.186.266-.278.068.106.191.212.192.318.001.245.037.425.326.428.286.004.369-.162.4-.428.04-.345.123-.688.222-1.021.029-.1.19-.242.262-.227.103.022.262.182.252.264-.07.524-.12 1.067-.304 1.555-.083.22-.464.326-.71.484M76.116 16.59c-.028-.345-.077-.69-.077-1.035 0-.14.107-.28.165-.419.13.087.357.16.37.263.065.481.131.977.078 1.455-.043.388-.472.524-.836.31a1.61 1.61 0 0 1-.8-1.229c-.017-.137.137-.297.211-.446.085.12.178.236.252.363.155.267.299.539.447.809l.19-.071M85.37 15.027c.467-.007.543-.217.565-.525.01-.149.142-.29.22-.433.105.134.267.254.308.407.168.624-.399 1.251-1.04 1.124-.192-.038-.454-.259-.49-.436-.082-.401-.058-.828-.04-1.242.005-.098.162-.188.248-.282.076.119.207.232.218.356.03.337.01.678.01 1.03M98.533 14.82c.117-.141.225-.29.354-.42.11-.11.246-.196.37-.292.039.15.118.305.107.453-.032.43-.318.783-.689.78-.241-.003-.547-.099-.702-.265-.118-.127-.12-.463-.042-.651.125-.303.336-.58.556-.829.077-.087.287-.057.436-.08-.027.134-.023.284-.085.4-.142.262-.317.507-.478.76l.173.143M121.554 13.764c.104-.189.135-.29.201-.353.063-.06.174-.124.246-.107.075.018.197.149.183.194-.095.307-.157.66-.354.89-.184.216-.515.113-.621-.163-.177-.453-.295-.93-.411-1.403-.02-.082.096-.196.148-.296.09.075.222.131.261.226.123.294.21.602.347 1.012M109.413 16.357c.092-.338.168-.68.285-1.008.029-.08.193-.11.296-.164.042.096.125.193.12.287-.014.265-.07.529-.1.794-.021.199.012.407.263.373.106-.014.234-.18.275-.302.084-.252.097-.527.179-.78.036-.109.172-.185.262-.276.081.086.24.18.232.256-.054.482-.06.996-.246 1.428-.165.378-.618.317-.986.21-.401-.115-.547-.41-.58-.818" style="fill:#ffd1d1;fill-opacity:1;fill-rule:nonzero;stroke:none;stroke-width:.352778" transform="translate(62.93 2.54)"/></g><g id="d" transform="translate(15.224 1.176)"><path d="M108.1 14.634c.444.378.551 1.065.25 1.53a2.194 2.194 0 0 1-2.556.91c-.56-.18-1.023-.668-.986-1.127.07-.894.184-1.785.275-2.629l1.077-.321c.65.547 1.297 1.089 1.94 1.637m-3.711-2.947 1.362-.473c.189.403.341.797.055 1.138-.134.16-.54.303-.657.22-.29-.206-.485-.547-.76-.885m-5.682 4.955c.546 1.078-.023 2.049-1.23 2.118-.321.019-.646-.018-.97-.032-.532-.024-.896-.299-1.003-.808-.073-.346-.117-.747-.011-1.07.223-.686.554-1.336.807-1.92h1.439c.32.562.67 1.124.968 1.712m-.63-3.493c-.03.728-.39 1.187-.949 1.2-.52.01-.843-.413-.88-1.2zm-9.038-.513c-.186.15-.517.193-.766.159-.102-.015-.216-.358-.222-.555-.007-.3.075-.603.126-.952.247.116.472.222.696.33.432.206.544.713.166 1.018m.043 3.694c-.06.212-.239.499-.421.55-.876.243-1.742.29-2.503-.379-.479-.421-.54-.637-.2-1.181.081-.13.175-.255.277-.371.486-.557.978-1.11 1.432-1.623l1.086.237c.108.643.23 1.306.326 1.973.037.262.073.549.003.794m-7.5-10.11-.44-.312a9.172 9.172 0 0 1 1.608-3.183c.183-.233.463-.413.732-.552.621-.318 1.171.016 1.19.722.014.566-.115 1.105-.597 1.471-.847.644-1.708 1.271-2.493 1.854m-1.334.158c-.96-.55-1.937-1.076-2.87-1.668-.29-.183-.521-.52-.68-.835-.251-.495.102-1.006.648-.951.327.032.68.118.954.288.971.603 1.645 1.474 2.066 2.534.061.152.03.34.041.512l-.16.12m-4.102 8.98c.107.147.157.46.072.6-.478.792-1.46 1.174-2.342.97-.436-.1-.848-.498-.88-.92a4.586 4.586 0 0 1 .042-1.05c.084-.527.22-1.045.336-1.578.338-.042.655-.09.975-.115.078-.006.19.04.24.1.528.657 1.062 1.31 1.557 1.992m-1.852-4.074c.021.336.085.63.042.906-.03.181-.182.427-.337.484-.277.102-.592.064-.737-.285-.086-.204-.165-.411-.268-.67l1.3-.435m-10.057 6.03c.27.636.122 1.054-.528 1.304-.616.236-1.262.296-1.908.11-.533-.152-.661-.321-.633-.884.018-.35 0-.744.154-1.035a8.758 8.758 0 0 1 1.145-1.698c.125-.142.547-.023.849-.008.332.798.623 1.507.921 2.211m-.878-2.208c.002 0 .002 0 0 0m-1.182-1.726h1.83c-.117.86-.408 1.153-1.048 1.091-.545-.053-.838-.467-.782-1.091m-8.19-1.186c-.438.42-.786.358-1.078-.172a.893.893 0 0 1-.08-.482c.028-.33.096-.658.159-1.06l1.595.918c-.23.31-.38.588-.596.796m-1.142 3.2c-.029.154-.213.362-.36.397-.818.192-1.759.117-2.33-.741-.431-.65-.368-1.157.298-1.584.579-.371 1.17-.722 1.761-1.085.28.222.567.444.844.677.054.045.106.14.098.204-.092.712-.179 1.426-.31 2.131m57.523-7.77c-.223-.096-.405-.076-.63.005-.573.516-1.09 1.115-1.728 1.533-3.511 2.303-7.435 3.234-11.584 3.33-1.495.034-2.92-.43-4.376-.688-2.007-.354-3.857-1.123-5.615-2.058-1.566-.833-3.184-1.654-4.443-3.05.175-.116.36-.232.538-.359.686-.49 1.393-.955 2.048-1.484.686-.554.866-1.341.768-2.18-.12-1.016-1.096-1.55-2.04-1.154-.536.226-.978.57-1.278 1.067-.444.734-.86 1.483-1.3 2.247-.317-.402-.64-.834-.986-1.249-.558-.671-1.247-1.143-2.125-1.282-.512-.082-.997-.023-1.327.443-.348.491-.434 1.039-.097 1.546.266.403.591.802.978 1.083.937.68 1.954 1.233 3.215 1.535-.166.189-.252.335-.38.421-.779.532-1.528 1.128-2.362 1.558-1.7.874-3.356 1.858-5.24 2.335-1.557.394-3.082.963-4.66 1.217-2.612.422-5.265.457-7.878-.028-1.38-.256-2.77-.62-4.059-1.163-1.282-.541-2.567-1.171-3.58-2.2-.166-.168-.372-.3-.562-.445-.168-.128-.36-.231-.505-.381-.633-.654-1.246-1.33-1.885-1.978-.114-.116-.318-.143-.481-.212-.009.184-.091.416-.01.542.186.29.443.537.688.785.147.149.383.234.482.404.652 1.127 1.884 1.64 2.62 2.539-.156.405-.306.795-.46 1.184-.035.086-.063.199-.131.243-.53.347-1.054.705-1.607 1.01-.617.339-1.059.796-1.187 1.501-.032.173-.03.374.028.538.485 1.38 2.284 2.157 3.638 1.589.433-.182.599-.547.656-.966.09-.657.133-1.32.234-1.973a.847.847 0 0 1 .303-.493c.432-.327.768-.703.86-1.227 2.198.538 4.285 1.444 6.522 1.61l.462 1.441c-.152.174-.358.422-.575.66-.743.812-.896 1.796-.817 2.84.036.458.3.794.718.976 1.024.443 2.053.38 3.018-.137.83-.445 1.009-1.099.643-1.97-.262-.622-.562-1.23-.799-1.863-.064-.173.008-.42.071-.615.112-.347.247-.69.408-1.016.06-.121.22-.273.334-.274 2.415-.007 4.727-.546 6.993-1.333.145-.05.296-.083.441-.123.178.368.352.717.51 1.072.028.06.006.155-.018.226-.298.869-.54 1.749-.493 2.68.046.911.721 1.61 1.629 1.713 1.232.139 2.17-.354 2.865-1.347.28-.4.146-.95-.296-1.46a41.143 41.143 0 0 1-1.456-1.753c-.111-.143-.14-.373-.15-.566-.02-.456-.006-.913-.006-1.43l5.18-2.869-1.13 2.37c.848-.248 1.337-1.006 1.95-2.916.155.396.306.732.421 1.08.186.566.599.948 1.032 1.31.074.061.243.007.368.007-.02-.135.006-.311-.07-.4-.427-.498-.932-1.539-1.05-2.282 1.876 1.6 3.942 2.806 6.167 3.778-.453.598-.594 1.226-.291 1.915-1.108.384-1.69 1.307-2.224 2.239-.383.67-.206 1.11.362 1.642.926.867 1.995.97 3.154.67.574-.148.973-.518.987-1.123.012-.585-.075-1.174-.146-1.759-.036-.292-.124-.579-.204-.863-.094-.332-.13-.608.134-.925.187-.225.194-.599.289-.932l5.648 1.214.47 1.38c-.88.865-1.335 1.942-1.19 3.207.115.988.697 1.51 1.679 1.61.445.044.91.066 1.347-.011 1.551-.274 2.208-1.634 1.481-3.031-.292-.562-.637-1.096-.944-1.65a.475.475 0 0 1-.038-.338c.133-.422.291-.836.436-1.24l5.085-1.222c.192.318.413.672.62 1.033.035.063.03.16.019.238-.106.768-.224 1.535-.324 2.303-.144 1.112.466 2.018 1.552 2.326a2.9 2.9 0 0 0 3.282-1.25c.462-.732.323-1.823-.348-2.395a32.218 32.218 0 0 0-1.8-1.404c-.23-.17-.301-.329-.289-.627.016-.379-.104-.763-.178-1.224 1.471-.818 2.942-1.77 4.02-3.278" style="fill:#ffd1d1;fill-opacity:1;fill-rule:nonzero;stroke:none;stroke-width:.353;stroke-dasharray:none"/><path d="M58.986 15.953c-.306.043-.614.071-.915.136-.086.019-.223.161-.209.215.026.098.147.248.224.245.542-.02 1.085-.063 1.625-.125.074-.009.133-.156.199-.24-.096-.069-.186-.181-.29-.197-.205-.031-.42-.01-.63-.01l-.004-.024M93.29 16.687c.251-.02.508-.019.753-.069.098-.02.172-.153.256-.234-.084-.08-.166-.226-.254-.23a15.8 15.8 0 0 0-1.469.01c-.095.006-.183.144-.275.222.093.09.171.236.278.262.229.054.471.047.708.064zM100.964 16.705c.284-.04.594-.064.892-.138.104-.027.178-.178.265-.271-.107-.073-.217-.211-.322-.208-.462.018-.925.062-1.382.13-.107.016-.194.163-.29.25.117.078.223.192.352.228.143.04.306.009.485.009M101.439 19.933c.118-.073.231-.104.261-.172.032-.072.015-.238-.032-.262-.492-.25-.992-.483-1.496-.706-.042-.019-.178.064-.19.118-.02.079.006.223.062.256.456.265.924.511 1.395.766M67.6 18.95c-.082-.106-.129-.227-.213-.266a16.614 16.614 0 0 0-1.273-.548c-.085-.032-.234.045-.32.113-.034.028 0 .231.045.25.497.208 1.002.4 1.51.579.05.018.138-.068.251-.127M97.66 21.984c.045-.114.132-.226.124-.332-.03-.404-.08-.807-.15-1.206-.014-.083-.13-.185-.218-.209-.064-.016-.186.062-.234.13-.251.365.03 1.377.478 1.617M93.025 20.568c.136.07.217.143.3.148.391.02 1.139-.901 1.029-1.285-.023-.08-.28-.18-.298-.16-.339.402-.658.82-1.03 1.297M65.336 15.933c.156.043.32.148.407.103.397-.205.778-.444 1.15-.693.063-.042.086-.206.062-.295-.016-.056-.185-.132-.234-.106-.426.234-.843.487-1.259.741-.04.024-.05.096-.126.25M63.093 21.237c.026.186.032.433.104.657.039.12.193.202.294.3.085-.115.243-.232.242-.346a4.862 4.862 0 0 0-.124-1c-.024-.103-.18-.177-.276-.264-.08.116-.175.225-.234.35-.032.07-.006.166-.006.303M58.24 19.865c.197.04.406.14.587.103.222-.047.44-.185.62-.332.108-.087.14-.268.205-.406-.164-.02-.355-.103-.486-.047-.326.14-.624.344-.934.523l.008.159M107.037 16.604c.69-.089 1.08-.54.907-1.095-.034-.11-.175-.186-.266-.278-.068.106-.192.212-.192.318-.001.245-.037.425-.326.43-.286.002-.369-.163-.4-.43a6.19 6.19 0 0 0-.222-1.02c-.03-.1-.19-.243-.262-.227-.103.021-.263.181-.252.263.07.525.119 1.067.303 1.555.084.22.465.326.71.484M97.263 17.696c.03-.345.078-.69.077-1.035 0-.14-.106-.279-.165-.418-.128.086-.356.16-.37.263-.064.481-.13.977-.077 1.454.043.388.472.525.835.31.462-.272.734-.702.8-1.228.017-.138-.136-.297-.21-.447-.085.121-.179.236-.252.364-.155.266-.299.539-.447.808a40.773 40.773 0 0 0-.19-.07" style="fill:#ffd1d1;fill-opacity:1;fill-rule:nonzero;stroke:none;stroke-width:.353;stroke-dasharray:none"/><path id="a" d="M88.01 16.133c-.467-.007-.543-.217-.565-.525-.01-.148-.142-.289-.22-.433-.105.135-.267.255-.309.407-.167.625.4 1.252 1.04 1.125.192-.038.455-.26.491-.436.082-.401.058-.828.04-1.243-.005-.097-.162-.188-.249-.281-.076.118-.206.231-.217.356-.031.336-.011.678-.011 1.03" style="fill:#ffd1d1;fill-opacity:1;fill-rule:nonzero;stroke:none;stroke-width:.353;stroke-dasharray:none"/><path d="M74.847 15.926c-.118-.14-.225-.29-.354-.419-.111-.11-.246-.196-.371-.293-.038.151-.117.306-.106.454.032.43.318.782.688.779.242-.003.547-.098.702-.265.119-.127.12-.462.043-.65-.125-.304-.337-.58-.557-.83-.077-.086-.286-.056-.435-.08.027.134.022.285.085.4.142.262.317.507.478.76l-.173.144M63.966 17.463c-.091-.337-.167-.68-.284-1.007-.029-.08-.193-.111-.296-.165-.043.096-.125.194-.12.287.015.266.07.53.099.795.022.199-.01.406-.262.373-.106-.014-.234-.18-.275-.303-.084-.251-.096-.527-.179-.78-.036-.109-.172-.185-.262-.276-.081.086-.24.18-.231.257.052.482.058.996.245 1.427.165.379.618.317.986.211.4-.116.547-.411.58-.819" style="fill:#ffd1d1;fill-opacity:1;fill-rule:nonzero;stroke:none;stroke-width:.353;stroke-dasharray:none"/><use xlink:href="#a" transform="scale(-1 1) rotate(-43.714 16.6 188.833)"/></g><use xlink:href="#b" id="c" x="0" y="0" transform="rotate(-1.797 162.756 -1944.02)"/><use xlink:href="#c"/><use xlink:href="#d" transform="rotate(2.28 129.27 -1531.885)"/><path d="M67.275 7.035c-.48-.686-2.351-.485-2.939.226l2.94-.226m-4.292.309c-.216-.019-.466.028-.641-.067a3.036 3.036 0 0 1-1.476-1.726 1.714 1.714 0 0 1-.086-.582c.008-.44.11-.863.553-1.064.444-.201.783.059 1.097.343a3.84 3.84 0 0 1 1.165 1.926l.09.353c.78-.223 1.52-.495 2.285-.632.42-.075.9.015 1.316.145.456.142.707.586.648.94-.076.457-.42.688-.822.743-.808.11-1.626.156-2.44.228-.095.008-.192.012-.37.023l.972 1.531c-.86-.088-1.208-.794-1.692-1.325-.039.015-.077.033-.116.046a4.595 4.595 0 0 1-.631.163c-.382.067-.755.077-1.157.106a4.38 4.38 0 0 1-.716.012c-.11-.01-.21-.111-.315-.17.086-.099.16-.212.262-.29.073-.055.181-.072.277-.093.544-.12 1.09-.228 1.63-.361.068-.017.104-.165.154-.252.04-.185.14-.379.113-.554-.097-.65-.338-1.25-.785-1.745-.196-.217-.433-.397-.652-.594l-.163.08c0 .253-.08.541.016.75.171.377.435.714.682 1.052.254.347.534.677.802 1.014" style="fill:#ffd1d1;fill-opacity:1;fill-rule:nonzero;stroke:none;stroke-width:.352778"/></svg>
