<?xml version="1.0" encoding="UTF-8" standalone="no"?>
<svg
   version="1.1"
   viewBox="0 0 3584 2048"
   id="svg6"
   sodipodi:docname="friend-link.svg"
   xml:space="preserve"
   width="3584"
   height="2048"
   inkscape:version="1.2.1 (9c6d41e4, 2022-07-14)"
   xmlns:inkscape="http://www.inkscape.org/namespaces/inkscape"
   xmlns:sodipodi="http://sodipodi.sourceforge.net/DTD/sodipodi-0.dtd"
   xmlns="http://www.w3.org/2000/svg"
   xmlns:svg="http://www.w3.org/2000/svg"><defs
     id="defs10" /><sodipodi:namedview
     id="namedview8"
     pagecolor="#ffffff"
     bordercolor="#666666"
     borderopacity="1.0"
     inkscape:showpageshadow="2"
     inkscape:pageopacity="0.0"
     inkscape:pagecheckerboard="0"
     inkscape:deskcolor="#d1d1d1"
     showgrid="false"
     inkscape:zoom="0.10261011"
     inkscape:cx="9.7456281"
     inkscape:cy="97.456281"
     inkscape:window-width="1280"
     inkscape:window-height="715"
     inkscape:window-x="0"
     inkscape:window-y="23"
     inkscape:window-maximized="0"
     inkscape:current-layer="svg6" /><g
     transform="matrix(1,0,0,-1,1209.5512,1420.9521)"
     id="g4"><path
       fill="currentColor"
       d="m 1664,398 q 31,17 59.5,38 28.5,21 53.5,46 l 340,342 q 69,70 106,160 37,90 37,188 0,99 -37,188 -37,89 -106,158 -142,142 -346,142 -203,0 -347,-142 L 1081,1176 Q 940,1037 940,833 q 0,-100 37,-191 37,-91 107,-160 112,-111 262,-135 l -64,-67 q -147,39 -254,146 -80,80 -124,186 -44,106 -44,221 0,113 43,217 43,104 122,182 l 343,342 q 80,80 184.5,123 104.5,43 218.5,43 113,0 218,-43 105,-43 184,-123 80,-80 123.5,-184.5 Q 2340,1285 2340,1172 2340,1059 2296.5,953.5 2253,848 2173,768 L 1833,426 q -90,-90 -215,-135 z m -340,722 q 144,-40 249,-145 80,-79 123,-184 43,-105 43,-218 0,-114 -43,-219 -43,-105 -123,-185 L 1233,-173 Q 1154,-253 1049,-296.5 944,-340 831,-340 718,-340 613.5,-296.5 509,-253 428,-173 348,-93 304,13 q -44,106 -44,221 0,113 43,217 43,104 122,182 l 343,342 q 93,91 209,131 L 927,996 Q 898,980 872.5,961 847,942 824,919 L 481,577 Q 340,438 340,234 q 0,-100 37,-191 37,-91 107,-160 145,-143 347,-143 203,0 346,143 l 340,342 q 142,144 142,348 0,204 -142,346 -102,102 -248,133 z M 1152,892 h 11.5 8.5 q 133,0 226,-95 92,-94 92,-228 0,-63 -24.5,-121.5 Q 1441,389 1397,344 L 1055,1 Q 1012,-42 949.5,-68 887,-94 825,-94 769,-94 708,-68.5 647,-43 606,-3 q -99,97 -99,230 0,63 24,122 24,59 70,105 L 906,759 920,661 659,398 Q 587,324 587,227 587,128 662,53 691,24 737.5,5 784,-14 825,-14 872,-14 919.5,5.5 967,25 999,57 l 342,343 q 69,69 69,169 0,100 -70,172 -69,71 -168,71 h -8.5 -11.5 z m 523,-161 266,268 q 70,70 70,169 0,99 -71,172 -69,71 -168,71 -103,0 -172,-71 L 1259,997 q -72,-74 -72,-171 0,-99 75,-174 29,-29 75.5,-48 46.5,-19 87.5,-19 h 7.5 11.5 v -80 h -10.5 -8.5 q -56,0 -117,25.5 -61,25.5 -102,65.5 -99,97 -99,230 0,63 24,122 24,59 70,105 l 343,343 q 95,95 228,95 133,0 226,-95 93,-95 93,-228 0,-63 -24.5,-121.5 Q 2042,988 1997,943 L 1686,632 Z"
       id="path2" /></g><path
     fill="currentColor"
     d="M 1247.3559,784.8075 C 1029.9229,718.3061 850.07886,653.5859 707.82404,590.6469 565.56916,527.70776 448.8028,461.53663 357.52496,392.13343 265.18578,321.92325 194.92843,244.42512 146.75293,159.63906 98.577434,74.853002 74.76983,-10.039098 75.33012,-95.037247 c 0.560302,-84.998193 27.47191,-162.522493 80.73482,-232.572913 38.73665,-50.94577 84.19011,-89.247 136.36036,-114.90366 52.17026,-25.65668 107.03439,-40.26201 164.5924,-43.81602 57.55801,-3.55402 113.58522,2.61543 168.08165,18.50833 54.49643,15.8929 102.97203,39.97963 145.42682,72.26016 l 6.36822,4.84208 6.36823,4.84208 c 4.38198,-37.70525 14.93158,-75.53652 31.64882,-113.49382 16.71723,-37.9573 36.77754,-72.32582 60.18094,-103.10557 49.22784,-64.7436 107.5068,-111.92712 174.83702,-141.55058 67.3299,-29.62352 136.8374,-40.63223 208.522,-33.02617 71.6847,7.60599 138.3069,34.81237 199.8664,81.61913 153.3679,116.6135 212.4883,295.77378 177.361,537.48081 -35.1273,241.707032 -164.5683,555.96064 -388.3229,942.76089 z m -35.965,-96.4392 c 196.294,-347.38039 310.8238,-629.631568 343.589,-846.75365 32.7652,-217.12209 -15.5958,-374.91097 -145.0829,-473.36665 -49.8844,-37.92962 -103.6418,-59.75112 -161.272,-65.46447 -57.6303,-5.71329 -113.5919,3.45136 -167.8848,27.49396 -54.293,24.04265 -101.61495,62.59824 -141.96563,115.66676 -29.0525,38.20932 -53.24993,83.25079 -72.59227,135.12442 -19.34236,51.87364 -30.0709,106.73745 -32.18564,164.59143 -9.80668,-9.13151 -19.58158,-18.02947 -29.32468,-26.69388 -9.74309,-8.66441 -19.65615,-16.82994 -29.73917,-24.49656 -64.74356,-49.22782 -131.76801,-81.13698 -201.07334,-95.72747 -69.30533,-14.59049 -135.05832,-11.82385 -197.25899,8.29992 -62.20067,20.12376 -114.48512,58.04661 -156.85334,113.76855 -43.98224,57.84466 -65.30716,122.23884 -63.97478,193.182503 1.33238,70.943679 23.19502,142.422669 65.58791,214.437007 42.3929,72.01434 103.9214,138.68802 184.58551,200.02105 83.31757,63.35058 191.08309,124.56226 323.29657,183.63504 132.21347,59.07284 292.92975,117.83354 482.14855,176.28204 z"
     id="path425"
     sodipodi:nodetypes="csssssssssccssssssccsssssscsssssssssc" /></svg>
