<?xml version="1.0" encoding="UTF-8" standalone="no"?>
<svg
   version="1.1"
   viewBox="-10 0 2610 2048"
   id="svg1"
   sodipodi:docname="u1F320_NotoEmoji-Regular-1.svg"
   xmlns:sodipodi="http://sodipodi.sourceforge.net/DTD/sodipodi-0.dtd"
   xmlns="http://www.w3.org/2000/svg"
   xmlns:svg="http://www.w3.org/2000/svg">
  <path
     fill="currentColor"
     d="m 1399,1860 c 19.3333,0 35.6667,-7 49,-21 13.3333,-14 20,-30.6667 20,-50 0,-18.6667 -6.8333,-34.5 -20.5,-47.5 -13.6667,-13 -29.8333,-19.5 -48.5,-19.5 -18.6667,0 -34.6667,6.5 -48,19.5 -13.3333,13 -20,28.8333 -20,47.5 0,19.3333 6.6667,36 20,50 13.3333,14 29.3333,21 48,21 z m -410,43 c 16.6667,0 31,-11.3333 43,-34 l 174,-339 383,-33 c 34,-3.3333 51,-20.6667 51,-52 0,-14 -6.3333,-26.6667 -19,-38 l -273,-272 88,-369 c 1.3333,-4.66667 2,-8.5 2,-11.5 V 747 c 0,-15.33333 -4.3333,-27.33333 -13,-36 -8.6667,-8.66667 -20.3333,-13 -35,-13 -9.3333,0 -19,2.66667 -29,8 L 1019,880 694,684 c -5.33333,-3.33333 -10.66667,-6.16667 -16,-8.5 -5.33333,-2.33333 -11.66667,-3.5 -19,-3.5 -14,0 -25.33333,4.5 -34,13.5 -8.66667,9 -13,20.5 -13,34.5 0,4.66667 0.33333,8.66667 1,12 l 62,383 -289,248 c -14.66667,13.3333 -22,28 -22,44 0,26.6667 16.33333,42.6667 49,48 l 377,59 148,350 c 11.33333,26 28.33333,39 51,39 z M 525,183 c 15.33333,0 28.66667,-5.83333 40,-17.5 11.33333,-11.66667 17,-25.16667 17,-40.5 0,-15.33333 -5.66667,-28.833333 -17,-40.5 C 553.66667,72.833333 540.33333,67 525,67 c -16,0 -29.66667,5.833333 -41,17.5 -11.33333,11.666667 -17,25.16667 -17,40.5 0,15.33333 5.66667,28.83333 17,40.5 11.33333,11.66667 25,17.5 41,17.5 z m 313,274 c 8.66667,0 17.33333,-7.33333 26,-22 7.33333,-13.33333 16.33333,-24 27,-32 10.66667,-8 22.66667,-16 36,-24 12,-7.33333 18,-14.33333 18,-21 0,-6 -6,-12.33333 -18,-19 -14.66667,-8 -27,-16.5 -37,-25.5 -10,-9 -18.66667,-19.83333 -26,-32.5 -8,-14.66667 -16.66667,-22 -26,-22 -9.33333,0 -18,7.33333 -26,22 -6.66667,12 -15,22.66667 -25,32 -10,9.33333 -22.66667,18 -38,26 -12,6.66667 -18,13 -18,19 0,8 6,15 18,21 27.33333,13.33333 48.33333,32 63,56 9.33333,14.66667 18,22 26,22 z m 1257,1092 c 22,0 40.6667,-7.5 56,-22.5 15.3333,-15 23,-33.5 23,-55.5 0,-22 -7.8333,-40.8333 -23.5,-56.5 -15.6667,-15.6667 -34.1667,-23.5 -55.5,-23.5 -22,0 -40.8333,7.8333 -56.5,23.5 -15.6667,15.6667 -23.5,34.5 -23.5,56.5 0,22 7.8333,40.5 23.5,55.5 15.6667,15 34.5,22.5 56.5,22.5 z m -565,-460 c 11.3333,0 22.1667,-4.8333 32.5,-14.5 10.3333,-9.6667 24.1667,-27.1667 41.5,-52.5 29.3333,-43.33333 69.6667,-100.33333 121,-171 51.3333,-70.66667 111.3333,-151.66667 180,-243 61.3333,-81.33333 112.6667,-148.16667 154,-200.5 41.3333,-52.33333 74,-94.5 98,-126.5 24,-32 41.1667,-57.83333 51.5,-77.5 10.3333,-19.66667 15.5,-37.5 15.5,-53.5 0,-33.33333 -12.1667,-59 -36.5,-77 -24.3333,-18 -58.8333,-27 -103.5,-27 -77.3333,0 -159.8333,12.5 -247.5,37.5 -87.6667,25 -175.3333,57.66667 -263,98 -87.6667,40.33333 -170.5,84.33333 -248.5,132 -78,47.66667 -146.3333,94.83333 -205,141.5 -58.6667,46.66667 -102.3333,88.33333 -131,125 -14.66667,18.66667 -25.66667,35.5 -33,50.5 -7.33333,15 -11,28.83333 -11,41.5 0,35.33333 18.33333,53 55,53 28.6667,0 68.3333,-15 119,-45 76,-45.33333 145.5,-79.16667 208.5,-101.5 63,-22.33333 119.1667,-33.5 168.5,-33.5 93.3333,0 140,28 140,84 0,18.66667 -6.5,47.83333 -19.5,87.5 -13,39.66667 -27.8333,82.66667 -44.5,129 -16.6667,46.33333 -31.5,89.66667 -44.5,130 -13,40.3333 -19.5,70.5 -19.5,90.5 0,15.3333 7.3333,23 22,23 z M 1217,160 c 21.3333,0 39.8333,-7.66667 55.5,-23 15.6667,-15.33333 23.5,-34 23.5,-56 0,-22 -7.8333,-40.666667 -23.5,-56 C 1256.8333,9.6666667 1238.3333,2 1217,2 c -22,0 -40.8333,7.6666667 -56.5,23 -15.6667,15.333333 -23.5,34 -23.5,56 0,22 7.8333,40.66667 23.5,56 15.6667,15.33333 34.5,23 56.5,23 z m 906,902 c 7.3333,0 17.3333,-9.6667 30,-29 9.3333,-14.6667 20.3333,-27.8333 33,-39.5 12.6667,-11.66667 28.3333,-22.5 47,-32.5 16,-8.66667 24,-16.33333 24,-23 0,-10 -8,-18.33333 -24,-25 -33.3333,-13.33333 -60,-36.66667 -80,-70 -11.3333,-19.33333 -21.3333,-29 -30,-29 -10,0 -20.6667,9.66667 -32,29 -8.6667,16 -19.8333,29.33333 -33.5,40 -13.6667,10.66667 -29.1667,20.66667 -46.5,30 -14.6667,8 -22,16.33333 -22,25 0,7.33333 7.3333,15 22,23 36.6667,19.33333 63.3333,43.3333 80,72 11.3333,19.3333 22,29 32,29 z"
     id="path1"
     sodipodi:nodetypes="sssssssssscccscccsssscccsssscccscccssssssssssscscscscscscsccsssssssssssscscsssssssssscssscsssssssssssssssssscscsccscscsccs"
     style="fill:none;stroke:#000000;stroke-opacity:1;stroke-width:80;stroke-dasharray:none;stroke-linejoin:round;stroke-linecap:round" />
</svg>
