<svg xmlns="http://www.w3.org/2000/svg" xml:space="preserve" id="图层_1" width="48" height="40" data-name="图层 1" version="1.1"><defs id="defs4"><style id="style2">.cls-2{fill:#fff}</style></defs><path id="path14" d="M16.298 6.92a4.42 4.42 0 0 0-4.44 4.43v4.96a5.22 5.22 0 0 1 .54-.31.45.45 0 0 0 .271-.48v-3.71a6.18 6.18 0 0 1 .049-1.06 3.57 3.57 0 0 1 3.65-3h15.73a3.5 3.5 0 0 1 .651 0 3.66 3.66 0 0 1 3.1 3.85v4a.29.29 0 0 0 .08.21c.22.15.45.27.73.43V13h2.12a16.29 16.29 0 0 1 3.81.41 4.24 4.24 0 0 1 1.82.85 1 1 0 0 1 .33 1.33 5.1 5.1 0 0 1-.71 1.15 11.05 11.05 0 0 1-2.481 2.14 40.54 40.54 0 0 1-8.11 4.08.43.43 0 0 1-.33 0 2.58 2.58 0 0 0-3.599 1.24.53.53 0 0 1-.35.3 75.105 75.105 0 0 1-6.9 1.83c-1.17.25-2.351.46-3.611.71a2.75 2.75 0 0 0 .64-2.12 2.55 2.55 0 0 0-1.129-1.82 2.63 2.63 0 0 0-3.33.34 2.56 2.56 0 0 0-.75 1.72 2.69 2.69 0 0 0 1.17 2.31l-2.51.18V24.6c0-.12-.021-.29-.101-.35a6 6 0 0 0-.719-.44v3.84h-1.64a15.82 15.82 0 0 1-3.561-.42 4.56 4.56 0 0 1-2.059-.94 1.1 1.1 0 0 1-.3-1.27 4.27 4.27 0 0 1 1.07-1.55 14.47 14.47 0 0 1 3.379-2.54c1.44-.79 2.92-1.51 4.37-2.26.11-.06.29-.13.29-.22a6.85 6.85 0 0 0 0-.79l-.2.07c-.69.3-1.35.59-2 .91a26 26 0 0 0-6 3.78 6.19 6.19 0 0 0-1.65 2.08 2 2 0 0 0 .77 2.7 6.33 6.33 0 0 0 2 .82 20.9 20.9 0 0 0 5.4.48c.21 0 .301.04.381.25a4.4 4.4 0 0 0 4.17 2.84h1l-.76.79-.13.15c-.23.26-.261.5-.061.68.2.18.44.13.67-.13.4-.46.79-.92 1.21-1.36a.68.68 0 0 1 .42-.19h10.94a.54.54 0 0 1 .461.2c.41.49.83.96 1.26 1.42a.4.4 0 0 0 .61.06.43.43 0 0 0 0-.6l-.76-.86-.17-.22a2.4 2.4 0 0 0 .269 0 12.48 12.48 0 0 0 1.941-.13 4.33 4.33 0 0 0 3.35-4v-3.33a2.06 2.06 0 0 0 0-.21c-.19.1-.34.21-.51.28a.43.43 0 0 0-.281.47c0 1 .08 2 0 3a3.53 3.53 0 0 1-3.379 3.13H16.53a3.69 3.69 0 0 1-2.631-.95 3.51 3.51 0 0 1-.93-1.36 68.93 68.93 0 0 0 16.291-3.13 2.61 2.61 0 0 0 2 2.47 2.36 2.36 0 0 0 2.52-.77 2.56 2.56 0 0 0 .17-3.22l.189-.09c1.07-.45 2.07-.87 3.07-1.34a27.34 27.34 0 0 0 6.35-3.87 6.73 6.73 0 0 0 1.84-2.23 2 2 0 0 0-.68-2.65 5.88 5.88 0 0 0-2.12-.91 21.93 21.93 0 0 0-5.54-.46h-.399c-.04-.61-.031-1.09-.111-1.61a4.39 4.39 0 0 0-4.33-3.7ZM31.89 23.293a1.97 1.97 0 0 1 1.97 1.97 1.97 1.97 0 0 1-1.97 1.971 1.97 1.97 0 0 1-1.97-1.97 1.97 1.97 0 0 1 1.97-1.971zm-15.164.05a1.97 1.97 0 0 1 1.97 1.97 1.97 1.97 0 0 1-1.97 1.97 1.97 1.97 0 0 1-1.969-1.97 1.97 1.97 0 0 1 1.969-1.97z" class="cls-2" style="fill:#000;fill-opacity:1"/><path id="path16" d="M21.896 10.336c-.04-.001-.079 0-.118.004H15.138a1.06 1.06 0 0 0-1.16 1.13v8.05a1 1 0 0 0 1.101 1.08h6.7a1.08 1.08 0 0 0 1.119-1.13V15.24l1.95-.53c.07-.02.18-.09.18-.15v-.73l-2.17.54v-2.93a1 1 0 0 0-.962-1.104zm-7.17.664h7.393v8.884h-7.393Z" class="cls-2" style="fill:#000;fill-opacity:1"/><path id="path16190" d="M33.482 10.342a1.01 1.01 0 0 0-.133.017h-6.531a1 1 0 0 0-1.18 1.192v8a1 1 0 0 0 1 1h6.84a1.19 1.19 0 0 0 .55-.15 1.1 1.1 0 0 0 .49-1.08V13.09l.7-.09v-.75h-.709c.023-.266.033-.534.03-.8a1 1 0 0 0-1.057-1.108zm-7.089.625h7.393v8.884h-7.393Z" class="cls-2" style="fill:#000;fill-opacity:1"/></svg>