<svg xmlns="http://www.w3.org/2000/svg" width="720" height="360"><defs><path id="b" d="M65.9 269.7h271.7v87.5H65.9z"/><path id="a" d="M86.2 125.5h200v118.1h-200z"/><path id="e" d="M86.2 125.5h200v118.1h-200z"/><path id="f" d="M65.9 269.7h168.6v42.5H65.9z"/><path id="g" d="M86.2 125.5h200v118.1h-200z"/><path id="h" d="M65.9 269.7h168.6v42.5H65.9z"/><path id="c" d="M65.9 269.7h271.7v87.5H65.9z"/><path id="d" d="M65.9 269.7h271.7v87.5H65.9z"/></defs><path d="M26 105.4c43-55.7 131.8-52.7 201.2-63.5 111.5-17.4 251.3-72.7 338.4-1.1 25.2 20.7 36 68.4 18.6 95.9-42.1 66.7-159.3 22.4-229.2 59-62.7 32.8-90.2 132.5-160.7 138.8-67.3 6-142.5-43.8-174.5-103.4-19.9-37-19.4-92.5 6.3-125.7Z" style="fill:#666;fill-opacity:.04;stroke:#666;stroke-width:1.5;stroke-linecap:butt;stroke-linejoin:miter;stroke-dasharray:none;stroke-opacity:.4"/><path d="M420.3 191.9c49.9 13 117.3-16 153.1 21 22.8 23.4 29.9 71 10.5 97.3C547.2 359.7 464 344 402.5 345c-109.6 2-232 7.5-325-50.6C41 271.6 4.5 231.7 4 188.9 3.4 138 39.5 77 87.8 61.7 201.3 25.7 305.2 162 420.3 192Z" style="fill:#666;fill-opacity:.04;stroke:#666;stroke-width:1.5;stroke-linecap:butt;stroke-linejoin:miter;stroke-dasharray:none;stroke-opacity:.4"/><rect width="193" height="127" x="56" y="102" ry="22" style="opacity:1;fill:#fff;fill-opacity:.25;stroke:#666;stroke-width:1.5;stroke-linecap:round;stroke-linejoin:round;paint-order:stroke markers fill"/><g style="font-size:40px;line-height:1.25;white-space:pre;shape-inside:url(#a);display:inline;opacity:1;fill:#666" transform="translate(-31.8 -10.9)"><path d="m143.5 141.7 2.6-.6q1.4-.4 2-.4 1 0 1.7.9v.4l-.1 1.2-.2 1v4.7l-.5 5.3q-.5 5.6-2 9.5-.1.8-.7 1.7l-.3.7-.4.9q-.3 1-1.2 1-1.1-.3-3.8-2.4-2.7-2.2-3-3.1l.2-.6q.3-.2.7-.2l2.4 1.2 2.6 1.5q1.8-2.8 2.6-9 .8-6.3.7-9.7V144l-4.9.4-4.7.2-1.3 2.9-1.3 2.8h-.2q-1.4-.3-1.7-1.7 0-.6.3-1l.5-1 2-4q.8-2 1.4-4.2l1-3.1q.6-2.4.8-2.7l.5-.5q1.4.4 1.7 1.7 0 .4-.2.6l-.7 1.6-.7 2.1-.6 2.3-.7 1.9 2.9-.3q2.3-.2 2.6-.4zm-21.8 1.5.4-.5 1.8-5 1-2.9.4-1.7q.3-.3.8-.4 1.4.3 1.6 1.6-.1 1-1.6 4.3l-1.2 2.8-.8 1.5 3.4-.5 1.5-.5 1.5-.4q1.3.1 1.6 1.5l-.1 3.2v3.3q0 3.2-.3 6.3l-.4 6.3q0 .6-.2 1.1l-.4 1q0 1.2-1 1.3h-.2v-.3l-1.6-2.3h-3.6l-2.3.2v.9q0 1.4-1.4 1.7-.7-.1-1.1-1.4-.4-1.2-.4-2l.1-5.2v-10.4l-.3-3v-.6l.2-1 .7-.4q.8.8 1.2 1.8zm-.2 10.4.1 3.8.4 3.8 2.7-.3q1.3-.2 2.7-.2.6 0 1.3.4.5-8.2.6-16.4l-4 .5-4 .6.2 5.6 2.7-.3 2.7-.2 1 .2q.3.5.3 1.2 0 .6-.3 1zm19 3.3-.6-1.1-1.4-2.4q-1.6-3-1.9-4v-.2q.5-.5 1-.7.7.4 2.7 3.1t2.2 3.7q-.2 1-1 1.8l-1-.2zm30.3-7.7h1.7l11.7-.4 11.6-.7 2.5-.3h2.4q1.3 0 1.5 1.5 0 1.1-1.2 1.2l-1 .1h-1l-6 .2-6.2.2-5.2.3-5.2.1h-3.5q-1.9 0-2.9-1.3l.3-.5v-.1zm68.5-10.5v-.3l-6 .4-6 .3h-1l-1-.1q-.7-.3-.8-1l.2-.4 3-.4 3.3-.3 7.4-.6 7.3-.6 2.8-.3 3-.3q1.2-.1 1.8.9l.2.7q-.7 1-2 1h-1.2l-8.7.6.3.8.3.8q-.1.4-.5.7-1.9 1.9-3.4 4 1 .5 1.3 1.3-.2.2-.4 1l.3 17.6q0 1.6-1.2 3l-.3.1-.6-.3-.5-.6-.4-.8-.1-.6v-1q.6-3.6.6-9v-8.6l-3 2.8-4.4 4.3q-5.2 5-7 5.7l-.4-.2-.6-.5-.5-.1q0-.4.3-.7l2.8-2.3 2.6-2.4 2.5-2.3 2.5-2.6 3.8-4.1 1.2-1.5 1-1.6q1.1-1.1 1.5-2.5zm4.3 8.5q1.2.5 4.6 2.8l3 2 2 1.4q1.7 1.2 1.6 3.3 0 .8-.3 1.6-1.4-.5-5.8-4.5l-5.9-5.5q0-.8.8-1zm-82.8 58.4.2 2.4q3.7-.8 7.4-1.1 1.5.3 1.8 1.7-.2.4-.7.7-2.2 0-4.3.3l-4.3.6v2.6l-.3 2.6q5.9 2.8 12.3 3l3.6-.2q1-.2 1.4.6v.2l-.1.8-.3.3-.3-.2q-1.1.3-2.3 1.2-1.2.9-2 1-3.4-.5-10.8-3.7l-6.5-2.8-5-1.9q-.3.7-1.2 1.8l-2.1 2.6q-2.4 3.1-3.8 3.5l-.4-.1-.6-.8 1.4-2q.7-1 1.6-1.9 2.1-2.5 3.8-5.5 1.4-2.2 1.7-4.8.3-.8 1-.8t1.3.9q.5.8.6 1.4-.1.6-.9 1.8l-.7 1-.4 1 3.4 1.3q2.2.9 3.2 1.5l-.1-4.5v-6q-5.7.3-11.3 1l-2 .2h-.4l-.3-.1-.7-.6v-.9q.8-.5 1.8-.5 1.9 0 3.7-.2 1.9-.1 3.7-.4l5-.6 5.2-.4 3.7-.4 3.7-.4 1-.3 1.1-.1q.7 0 1.5.8.9.8 1 1.3-.3.7-1 .7l-6.6.3-6.7.5zm5.7-20.3.6.1.7.4.6.4q.3.2.3.5-.1.7-.6 1.1l-.2 4.2-.5 4q.8.8 1.3 1.6l-.1.3q-.8.8-1.8.4l-12.8.8-.6 2.2-.6.2q-1.5-1.2-1.7-3.1l.4-3.4-.6-9.2q-.2-1.1.8-1.3 1.2 1.2 1.4 2.8l6.1-.9 6.1-.6q.8 0 1.2-.5zm-12.6 12.1q5.5-.8 11-1 .5-4 .6-7.8v-.5q-3.1.1-6.1.4l-6 .6v3q4.7-.3 9-1.7l1.9 2.2-.4.6-2.3.3-2.8.2-5.1.2v1.8q0 .9.2 1.7zm45.9-7.7q.7-.9 1.7-1 8.3-1.3 16.6-1.7 2.4 0 4.5-.6 1.4 1 1.8 2.6-5.7 4.2-11 8.7 1.4 5 1.2 10.2l-.2 3-.6 4q-.9 4.7-3.4 5.2-.4 0-.6-.2l-2.2-1.2-3.6-2.8q-.5-.3-.8-.7-.2-.2-.2-.5l.2-.7q1.9.5 3.6 1.4l1.8.7 1.9.3q1.6-4 1.5-8.5.5-5.8-1.6-11.1.6-.3 1.3-.4 4.2-3.2 8-7.1H217q-2.7 0-5.3.2l-5.3.5-3 .5-2.4.4q-1.2 0-1.2-1.2z" aria-label="的 一 不 是 了" style="font-family:AaKaiSong;-inkscape-font-specification:AaKaiSong;text-align:center;text-anchor:middle"/></g><g style="font-size:24px;line-height:1.25;text-align:center;white-space:pre;shape-inside:url(#b);display:inline;fill:#333" transform="translate(-50 -33.4)"><path d="M127.9 288.6q-1 1.7-2.6 2.6-1.7.9-3.8.9-2.4 0-4.1-1-1.8-1-2.7-3-1-1.8-1-4.4 0-2.7 1-4.8 1.1-2 3-3.2 1.8-1.1 4.2-1.1 2 0 3.5.8 1.6.8 2.5 2.4l-1.5 1q-1.4-2.5-4.5-2.5-1.9 0-3.3 1-1.4.9-2.2 2.5-.8 1.7-.8 3.9 0 3.1 1.6 5 1.5 1.7 4.3 1.7 3.4 0 5-2.9zm6.9-8.9q2.5 0 3.9 1.6t1.4 4.4q0 1.8-.7 3.2-.7 1.5-2 2.3-1.2.9-3 .9-2.5 0-3.9-1.6t-1.4-4.4q0-1.8.7-3.3.7-1.4 2-2.2 1.3-.9 3-.9zm-.3 10.8q1.7 0 2.7-1.4 1.1-1.3 1.1-3.4 0-2.1-1-3.3-.8-1-2.5-1-1.2 0-2 .5-1 .6-1.4 1.7-.5 1-.5 2.5 0 2.1 1 3.2.9 1.2 2.6 1.2zm8.7 1.4v-12h1.8l-.2 4.1q.7-2.2 1.9-3.2 1.3-1 2.8-1 1.5 0 2.5.9t1.2 2.8q.6-1.9 1.9-2.8 1.3-1 2.7-1 1.8 0 2.8 1.3 1 1.3 1 3.7v7.2h-1.8v-7q0-3.5-2.4-3.5-.8 0-1.6.5-.7.5-1.3 1.7-.6 1.1-1 3.2-.3 2-.3 5h-1.7v-7q0-1.7-.6-2.6-.5-.8-1.8-.8-.8 0-1.6.5-.7.5-1.3 1.7-.6 1.1-1 3.2-.3 2-.3 5zm21.8 0v-12h1.8l-.2 4.1q.7-2.2 2-3.2 1.2-1 2.7-1 1.5 0 2.5.9t1.2 2.8q.6-1.9 1.9-2.8 1.3-1 2.7-1 1.9 0 2.8 1.3 1 1.3 1 3.7v7.2h-1.8v-7q0-3.5-2.4-3.5-.8 0-1.6.5-.7.5-1.3 1.7-.6 1.1-1 3.2-.3 2-.3 5h-1.7v-7q0-1.7-.6-2.6-.5-.8-1.8-.8-.8 0-1.5.5-.8.5-1.4 1.7-.6 1.1-1 3.2-.3 2-.3 5zm27-12.2q2.5 0 4 1.6 1.4 1.6 1.4 4.4 0 1.8-.8 3.2-.6 1.5-2 2.3-1.2.9-2.9.9-2.5 0-4-1.6-1.4-1.6-1.4-4.4 0-1.8.7-3.3.7-1.4 2-2.2 1.3-.9 3-.9zm-.3 10.8q1.7 0 2.8-1.4 1-1.3 1-3.4 0-2.1-.9-3.3-.9-1-2.5-1-1.2 0-2.1.5-.9.6-1.4 1.7-.5 1-.5 2.5 0 2.1 1 3.2 1 1.2 2.6 1.2zm8.7 1.4v-12h1.8l-.1 4.1q.6-2 1.8-3.2 1.3-1 3-1 1.8 0 2.8 1.2 1 1.3 1 3.7v7.2h-1.8v-7q0-1.8-.6-2.7-.5-.8-1.8-.8t-2.2 1q-1 .9-1.6 3.2-.5 2.3-.5 6.3zm24.4.1q-5.7 0-6.3-5.2l1.8-.2q.3 2 1.4 3 1.1.8 3.2.8 1.8 0 2.8-.8 1-.8 1-2.2 0-1-.5-1.5-.4-.5-1.2-.8-.9-.4-2.2-.7-1.6-.4-2.7-.9-1.2-.5-1.9-1.4-.6-1-.6-2.6 0-1.4.7-2.5t2-1.8q1.2-.6 2.8-.6 2.2 0 3.6 1.2t1.6 3.3l-1.6.3q-.3-1.6-1.2-2.4-.9-.8-2.5-.8t-2.6 1q-1 .8-1 2.2 0 1.6 1 2.3 1 .7 3.1 1.1 1.6.4 2.7.9 1.1.4 1.7 1.3.6.9.6 2.4 0 1.4-.7 2.4-.8 1-2 1.7-1.3.6-3 .6zm12 0q-1.8 0-2.8-1.2-1-1.2-1-3.4l.1-7.5h1.8v7.2q-.1 1.6.5 2.5.5.8 1.8.8 1.2 0 2.1-1 1-1 1.5-3.2.6-2.3.6-6.3h1.7v12h-1.8l.1-4q-.6 2.2-1.9 3.2-1.2 1-2.7 1zm9.9-.1V274h1.7v8.7q.6-1.4 1.7-2.2 1.1-.9 2.6-.9t2.6.7q1 .7 1.6 2 .5 1.3.5 2.9 0 2-.7 3.5t-2 2.4q-1.3.9-3 .9-1.2 0-2.1-.6-1-.6-1.4-1.5l-.2 1.9zm5-1.4q1.7 0 2.8-1.4 1-1.4 1-3.7 0-2-.7-3-.9-1-2.3-1-1.2 0-2.1.6-1 .7-1.5 2-.5 1.1-.5 2.7 0 1.8.9 2.8.8 1 2.3 1zm12.6 1.5q-2.2 0-3.4-.9-1.3-.9-1.4-2.6l1.5-.4q.2 1.3 1 2 .8.5 2.3.5 1.3 0 2-.5.7-.6.7-1.4 0-.8-.7-1.2-.7-.4-2.2-.7l-2.1-.6q-.9-.4-1.4-1-.4-.7-.4-1.9 0-1 .5-1.8.6-.8 1.5-1.3 1-.5 2.2-.5 1.7 0 2.8.9 1 .8 1.3 2.2l-1.5.4q-.4-2-2.6-2-1.2 0-1.8.6-.7.5-.7 1.5 0 .8.6 1.2.6.5 2.1.8 1.3.3 2.2.7 1 .3 1.4.9.5.6.5 1.7 0 1-.5 1.8-.6.7-1.6 1.2t-2.3.5zm12.4 0q-2.7 0-4.3-1.5-1.6-1.6-1.6-4.4 0-1.9.8-3.3.7-1.5 2-2.3 1.3-.8 2.9-.8 2.4 0 3.8 1.7 1.3 1.7 1 5.1h-8.7q0 2 1.2 3 1 1 3 1 1 0 1.9-.5.9-.4 1.5-1.3l1.1 1q-1.6 2.4-4.6 2.4zm-.2-10.9q-1 0-2 .6-.7.5-1.2 1.4-.5.9-.7 2h7q.2-2-.7-3-1-1-2.4-1zm12.1 10.9q-2 0-3-1-1.1-1.1-1-3v-6.6h-2.1V280h2.1v-2.5h1.8v2.5h4.1v1.5h-4.2v6.5q0 1.2.5 1.9.6.7 1.9.7l1-.1 1-.6.6 1.4q-.5.5-1.2.7l-1.5.2z" aria-label="Common Subset" style="font-family:Livvic;-inkscape-font-specification:Livvic"/></g><g style="font-size:24px;line-height:1.25;text-align:center;white-space:pre;shape-inside:url(#c);display:inline;fill:#666" transform="translate(451.8 -212)"><path d="M168.4 291.9h-1.8v-17h5.5q3 0 4.6 1.2 1.6 1.3 1.6 3.7 0 2.4-1.6 3.8-1.7 1.4-5.2 1.4h-3zm3.5-15.5h-3.5v7h3.2q2.6 0 3.8-.9 1.1-.9 1.1-2.7 0-1.8-1.1-2.6t-3.5-.8zm18.5 3.6v11.9h-1.8V289q-.6 1.4-1.7 2.2-1.1.8-2.6.8t-2.5-.7q-1-.8-1.6-2-.6-1.3-.6-3 0-2 .8-3.4.7-1.6 2-2.4 1.3-.9 3-.9 1.2 0 2 .6 1 .5 1.4 1.4l.3-1.8zm-5 1.3q-1.8 0-2.9 1.4-1 1.3-1 3.6 0 2 .8 3 .8 1.2 2.3 1.2 1.1 0 2-.7 1-.7 1.5-2 .6-1.2.6-2.8 0-1.7-.9-2.7-.9-1-2.4-1zm12.8 15.7q-1 0-2-.3-1.1-.2-1.9-.6l.5-1.6q.8.4 1.7.6l1.8.2q2.3 0 3.3-1.2 1-1 1-3.6v-1.7q-.6 1.4-1.8 2.2-1.1.8-2.6.8-2.3 0-3.5-1.5-1.2-1.5-1.2-4 0-1.9.7-3.4t2-2.3q1.3-.9 3-.9 1.3 0 2.2.6 1 .5 1.4 1.4l.2-1.8h1.3v10.4q0 6.6-6 6.6zm1.1-15.7q-1.2 0-2.1.6-.9.7-1.4 1.8-.5 1-.5 2.5 0 2 .8 3 .9 1 2.3 1 1.2 0 2.1-.7 1-.7 1.5-1.9.6-1.2.6-2.7 0-1.7-.9-2.6-.9-1-2.4-1zm14 10.7q-2.8 0-4.4-1.5-1.5-1.6-1.5-4.4 0-1.9.7-3.3.8-1.5 2-2.3 1.3-.8 3-.8 2.4 0 3.7 1.7 1.4 1.7 1 5.1h-8.6q0 2 1.1 3t3.1 1q1 0 1.9-.5.8-.4 1.5-1.3l1 1q-1.5 2.4-4.5 2.4zm-.2-10.9q-1.1 0-2 .6-.8.5-1.3 1.4-.5.9-.6 2h7q.2-2-.7-3-1-1-2.4-1zm14.4 10.8v-1.5h3.8v-13.2l-3.5 2.4-.9-1.3 5.2-3.5h1v15.6h3.7v1.5zM152 322.4q-5.7 0-6.3-5.2l1.8-.3q.3 2 1.4 3 1.1.9 3.2.9 1.8 0 2.8-.8 1-.9 1-2.3 0-.9-.5-1.4-.4-.6-1.2-1l-2.2-.6q-1.6-.3-2.7-.8-1.2-.5-1.9-1.5-.6-1-.6-2.6 0-1.4.7-2.5t2-1.7q1.2-.7 2.8-.7 2.2 0 3.6 1.2t1.6 3.3l-1.6.3q-.3-1.6-1.2-2.4-.9-.8-2.5-.8t-2.6 1q-1 .8-1 2.3 0 1.5 1 2.2 1 .7 3.1 1.1 1.6.4 2.7.9t1.7 1.4q.6.8.6 2.3 0 1.4-.7 2.5-.8 1-2 1.6-1.3.6-3 .6zm12.5 0q-2 0-3.1-1.1-1-1.1-1-3v-6.5h-2v-1.5h2v-2.5h1.8v2.5h4.2v1.5h-4.2v6.5q0 1.1.5 1.8.6.7 1.8.7l1-.1q.6-.2 1-.6l.7 1.4q-.6.5-1.3.7l-1.4.2zm8.1 4.8-2.1-.2q-1-.2-1.8-.6l.5-1.6q.7.4 1.7.6l1.8.2q2.3 0 3.2-1.1 1-1.1 1-3.7l.1-2.9q-.6 2.2-1.9 3.2-1.2 1-2.9 1-1.8 0-2.8-1.2-1-1.2-1-3.4l.2-7.2h1.7v7q0 1.5.5 2.4.6.8 1.8.8 1.3 0 2.3-1 1-1 1.5-3.1.5-2.3.5-6.1h1.7v10.3q0 6.6-6 6.6zm12.5-4.8q-1.4 0-2.2-.8-.7-.8-.7-2.2v-15h1.8v14.8q0 .8.3 1.2.3.4 1.1.4l.7-.1.5-.2.5 1.3q-.3.3-.9.4l-1 .2zm8.7 0q-2.7 0-4.3-1.6-1.6-1.6-1.6-4.4 0-1.9.8-3.3.7-1.4 2-2.2 1.3-.9 3-.9 2.4 0 3.7 1.8 1.3 1.7 1 5h-8.7q.1 2 1.2 3 1 1 3 1 1 0 1.9-.4.9-.5 1.5-1.4l1.1 1q-1.6 2.4-4.6 2.4zm-.2-11q-1 0-2 .6-.7.5-1.2 1.4-.5 1-.7 2h7.1q.1-2-.8-3-1-1-2.4-1zm11.5 11q-2.2 0-3.4-1-1.2-.9-1.4-2.6l1.5-.3q.2 1.2 1 1.8.8.6 2.3.6 1.4 0 2-.5.7-.5.7-1.4 0-.8-.7-1.2-.7-.4-2.2-.7-1.2-.2-2.1-.6-.9-.4-1.4-1-.4-.7-.4-1.9 0-1 .5-1.8.6-.8 1.5-1.2 1-.5 2.2-.5 1.7 0 2.8.8 1 .8 1.3 2.2l-1.5.4q-.4-2-2.6-2-1.1 0-1.8.6-.7.5-.7 1.5 0 .8.6 1.3.6.4 2.1.8 1.3.2 2.2.6 1 .3 1.4 1 .5.5.5 1.6 0 1-.5 1.8-.6.8-1.6 1.2-1 .5-2.3.5zm7-.2v-17.8h1.8v5.9l-.1 4q.6-2 1.8-3.1 1.3-1.2 3-1.2 1.8 0 2.8 1.3 1 1.3 1 3.7v7.2h-1.8v-7q0-1.7-.6-2.6-.5-1-1.8-1t-2.2 1q-1 1-1.6 3.3-.5 2.3-.5 6.3zm19.1.2q-2.7 0-4.3-1.6-1.6-1.6-1.6-4.4 0-1.9.8-3.3.7-1.4 2-2.2 1.3-.9 2.9-.9 2.5 0 3.8 1.8 1.3 1.7 1 5H227q0 2 1.2 3 1 1 3 1 1 0 1.9-.4.9-.5 1.5-1.4l1.1 1q-1.6 2.4-4.6 2.4zm-.2-11q-1 0-2 .6-.7.5-1.2 1.4-.5 1-.7 2h7.1q0-2-.8-3-1-1-2.4-1zm13 11q-2.7 0-4.3-1.6-1.5-1.6-1.5-4.4 0-1.9.7-3.3t2-2.2q1.3-.9 3-.9 2.4 0 3.7 1.8 1.4 1.7 1 5H240q0 2 1.1 3t3 1q1 0 2-.4.8-.5 1.4-1.4l1.1 1q-1.6 2.4-4.5 2.4zm-.1-11q-1.1 0-2 .6-.8.5-1.3 1.4-.5 1-.6 2h7q.1-2-.8-3t-2.3-1zm12.1 11q-2.1 0-3.1-1.1t-1-3v-6.5h-2v-1.5h2v-2.5h1.8v2.5h4.2v1.5h-4.2v6.5q0 1.1.5 1.8.6.7 1.8.7l1-.1 1-.6.7 1.4q-.6.5-1.3.7-.7.2-1.5.2z" aria-label="Page 1 Stylesheet" style="font-family:Livvic;-inkscape-font-specification:Livvic"/></g><path d="M168.4 291.9h-1.8v-17h5.5q3 0 4.6 1.2 1.6 1.3 1.6 3.7 0 2.4-1.6 3.8-1.7 1.4-5.2 1.4h-3zm3.5-15.5h-3.5v7h3.2q2.6 0 3.8-.9 1.1-.9 1.1-2.7 0-1.8-1.1-2.6t-3.5-.8zm18.5 3.6v11.9h-1.8V289q-.6 1.4-1.7 2.2-1.1.8-2.6.8t-2.5-.7q-1-.8-1.6-2-.6-1.3-.6-3 0-2 .8-3.4.7-1.6 2-2.4 1.3-.9 3-.9 1.2 0 2 .6 1 .5 1.4 1.4l.3-1.8zm-5 1.3q-1.8 0-2.9 1.4-1 1.3-1 3.6 0 2 .8 3 .8 1.2 2.3 1.2 1.1 0 2-.7 1-.7 1.5-2 .6-1.2.6-2.8 0-1.7-.9-2.7-.9-1-2.4-1zm12.8 15.7q-1 0-2-.3-1.1-.2-1.9-.6l.5-1.6q.8.4 1.7.6l1.8.2q2.3 0 3.3-1.2 1-1 1-3.6v-1.7q-.6 1.4-1.8 2.2-1.1.8-2.6.8-2.3 0-3.5-1.5-1.2-1.5-1.2-4 0-1.9.7-3.4t2-2.3q1.3-.9 3-.9 1.3 0 2.2.6 1 .5 1.4 1.4l.2-1.8h1.3v10.4q0 6.6-6 6.6zm1.1-15.7q-1.2 0-2.1.6-.9.7-1.4 1.8-.5 1-.5 2.5 0 2 .8 3 .9 1 2.3 1 1.2 0 2.1-.7 1-.7 1.5-1.9.6-1.2.6-2.7 0-1.7-.9-2.6-.9-1-2.4-1zm14 10.7q-2.8 0-4.4-1.5-1.5-1.6-1.5-4.4 0-1.9.7-3.3.8-1.5 2-2.3 1.3-.8 3-.8 2.4 0 3.7 1.7 1.4 1.7 1 5.1h-8.6q0 2 1.1 3t3.1 1q1 0 1.9-.5.8-.4 1.5-1.3l1 1q-1.5 2.4-4.5 2.4zm-.2-10.9q-1.1 0-2 .6-.8.5-1.3 1.4-.5.9-.6 2h7q.2-2-.7-3-1-1-2.4-1zm13.7 10.8v-1.2q2.4-2 4-3.6 1.5-1.7 2.4-3 1-1.4 1.3-2.5.3-1.2.3-2.2 0-1.5-.8-2.3-.9-.9-2.3-.9-3 0-4.2 3.3l-1.3-.6q.5-2 2-3.1 1.4-1.2 3.5-1.2 1.4 0 2.5.5 1.2.6 1.8 1.6.6 1.1.7 2.6 0 1.6-.8 3.4-.7 1.7-2.4 3.6-1.6 1.9-4.3 4h8v1.6zM152 322q-5.7 0-6.3-5.2l1.8-.2q.3 2 1.4 3 1.1.8 3.2.8 1.8 0 2.8-.8 1-.8 1-2.2 0-1-.5-1.5-.4-.5-1.2-.8-.9-.4-2.2-.7-1.6-.4-2.7-.9-1.2-.5-1.9-1.4-.6-1-.6-2.6 0-1.4.7-2.5t2-1.8q1.2-.6 2.8-.6 2.2 0 3.6 1.2t1.6 3.3l-1.6.3q-.3-1.6-1.2-2.4-.9-.8-2.5-.8t-2.6 1q-1 .8-1 2.2 0 1.6 1 2.3 1 .7 3.1 1.1 1.6.4 2.7.9 1.1.4 1.7 1.3.6.9.6 2.4 0 1.4-.7 2.4-.8 1-2 1.7-1.3.6-3 .6zm12.5 0q-2 0-3.1-1-1-1.1-1-3v-6.6h-2V310h2v-2.5h1.8v2.5h4.2v1.5h-4.2v6.5q0 1.2.5 1.9.6.7 1.8.7l1-.1q.6-.2 1-.6l.7 1.4q-.6.5-1.3.7l-1.4.2zm8.1 5q-1 0-2.1-.3-1-.2-1.8-.6l.5-1.6q.7.4 1.7.6l1.8.2q2.3 0 3.2-1.1 1-1.2 1-3.7l.1-2.9q-.6 2.2-1.9 3.2-1.2 1-2.9 1-1.8 0-2.8-1.2-1-1.3-1-3.5l.2-7.2h1.7v7q0 1.6.5 2.4.6.9 1.8.9 1.3 0 2.3-1 1-1 1.5-3.2t.5-6h1.7v10.3q0 6.6-6 6.6zm12.5-5q-1.4 0-2.2-.8-.7-.8-.7-2.1v-15h1.8V319q0 .8.3 1.2.3.4 1.1.4l.7-.1.5-.3.5 1.4-.9.4-1 .2zm8.7 0q-2.7 0-4.3-1.5-1.6-1.6-1.6-4.4 0-1.9.8-3.3.7-1.5 2-2.3 1.3-.8 3-.8 2.4 0 3.7 1.7 1.3 1.7 1 5.1h-8.7q.1 2 1.2 3 1 1 3 1 1 0 1.9-.5.9-.4 1.5-1.3l1.1 1q-1.6 2.4-4.6 2.4zm-.2-10.9q-1 0-2 .6-.7.5-1.2 1.4-.5.9-.7 2h7.1q.1-2-.8-3-1-1-2.4-1zm11.5 10.9q-2.2 0-3.4-.9-1.2-.9-1.4-2.6l1.5-.4q.2 1.3 1 2 .8.5 2.3.5 1.4 0 2-.5.7-.6.7-1.4 0-.8-.7-1.2-.7-.4-2.2-.7l-2.1-.6q-.9-.4-1.4-1-.4-.7-.4-1.9 0-1 .5-1.8.6-.8 1.5-1.3 1-.5 2.2-.5 1.7 0 2.8.9 1 .8 1.3 2.2l-1.5.4q-.4-2-2.6-2-1.1 0-1.8.6-.7.5-.7 1.5 0 .8.6 1.2.6.5 2.1.8 1.3.3 2.2.7 1 .3 1.4.9.5.6.5 1.7 0 1-.5 1.8-.6.7-1.6 1.2t-2.3.5zm7-.1V304h1.8v5.8l-.1 4.1q.6-2 1.8-3.2 1.3-1 3-1 1.8 0 2.8 1.2 1 1.3 1 3.7v7.2h-1.8v-7q0-1.8-.6-2.7-.5-.8-1.8-.8t-2.2 1q-1 .9-1.6 3.2-.5 2.3-.5 6.3zm19.1.1q-2.7 0-4.3-1.5-1.6-1.6-1.6-4.4 0-1.9.8-3.3.7-1.5 2-2.3 1.3-.8 2.9-.8 2.5 0 3.8 1.7 1.3 1.7 1 5.1H227q0 2 1.2 3 1 1 3 1 1 0 1.9-.5.9-.4 1.5-1.3l1.1 1q-1.6 2.4-4.6 2.4zm-.2-10.9q-1 0-2 .6-.7.5-1.2 1.4-.5.9-.7 2h7.1q0-2-.8-3-1-1-2.4-1zm13 10.9q-2.7 0-4.3-1.5-1.5-1.6-1.5-4.4 0-1.9.7-3.3.7-1.5 2-2.3 1.3-.8 3-.8 2.4 0 3.7 1.7 1.4 1.7 1 5.1H240q0 2 1.1 3t3 1q1 0 2-.5.8-.4 1.4-1.3l1.1 1q-1.6 2.4-4.5 2.4zm-.1-10.9q-1.1 0-2 .6-.8.5-1.3 1.4-.5.9-.6 2h7q.1-2-.8-3t-2.3-1zM256 322q-2.1 0-3.1-1-1-1.1-1-3v-6.6h-2V310h2v-2.5h1.8v2.5h4.2v1.5h-4.2v6.5q0 1.2.5 1.9.6.7 1.8.7l1-.1 1-.6.7 1.4q-.6.5-1.3.7-.7.2-1.5.2z" aria-label="Page 2 Stylesheet" style="font-size:24px;line-height:1.25;font-family:Livvic;-inkscape-font-specification:Livvic;text-align:center;white-space:pre;shape-inside:url(#d);display:inline;fill:#666" transform="translate(453.5 -34.3)"/><g transform="translate(0 4)"><rect width="163.4" height="73.1" x="354.8" y="35.9" ry="22" style="fill:#fefefe;fill-opacity:.25;stroke:#666;stroke-width:1.5;stroke-linecap:round;stroke-linejoin:round;paint-order:stroke markers fill"/><g style="font-size:40px;line-height:1.25;white-space:pre;shape-inside:url(#e);display:inline;fill:#666" transform="translate(251 -78.1)"><path d="m143.5 150.7-.4.3q-1.1-.2-1.4-1.2 0-.3.8-1.3l1-1.5q4.6-6 6.4-13.1 0-1 .6-1.3 1.4.4 1.9 1.9l-.1.2v.2q-1.1 2-2.1 4.7l6.5-.7h.6q.7.6.7 1.4 0 .6-.4 1-3.1.5-6.2.4h-2.3q-1 2.5-2.3 4.6 2 0 4-.3l4-.8.8-.1q1.4.3 1.5 1.8l-.6.7-4.6.3v2.4l.2 2.4q2-.6 4-.6.8 0 1.2.7l.2.8q0 .6-.3 1h-2.6q-1.3 0-2.5.2l-.1 8 2.8-2.2q2-1.7 3-2 .3 0 .6.3v.7q-.3 1.5-3.3 4.1-3 2.6-4.5 3-1.4-.1-1.7-1.4 0-.8.6-1.3l.1-2.3v-6.6l-3.7.6q-1.3 0-2.2-1l.1-.6q.9-.6 1.9-.5 2.2-.1 4-.8l.2-4.8-2.2.3q-1-.2-1.7-.8l-1.8 2.3-.4.4-.3.5zm11.6-.1q.7-1.7 1.9-3 1.1-1.3 2-2.9l1.3-2q2.8-4 4.7-8 .3-.8 1-1 .5 0 1.2.8.7.7.6 1.3l-.1.3q.2.6 1.7 2.7l2 2.8 2 2.9 2.2 2.8 1.7 1.3 1.7 1.2q-.6 1.1-2 1.1-2 0-3-1-.7-1-1.5-2.8-.6-1-1.6-2.2-.5-.4-2.3-3.5l-2.3-4-4.6 7.4q-3.4 5.3-4.5 6l-.6.2h-.2q-.5 0-.8-.4zm14.4 4.5q-3 .1-5.8.5l-2.8.4q-1.6.1-1.9-1.4 0-.5.4-1l3-.2q3.3-.1 6.6-.6l1.3-.2 1.2-.2q1.4.2 2 1.5-.3.8-2.8 4.3l-2 3-1.3 1.7-.8.2 2.5 2q1.4 1 1.6 2.3 0 1-.5 1.7-.9 0-1.3-.5l-4.5-4.1q-3.1-3-3.4-4 .2-.9.9-1.2l1.8 1.4 1.2 1 .8.5 2-3.5 1.8-3.6zm-4.6-11.4q.8 1.1 2 3.3 1.3 2.2 1.4 3.4-.2 1.4-1.6 1.8l-.6-.2q-.2-1.5-1.5-4-1.2-2.3-1.4-3.2.3-1.1 1.5-1.1zm51.5-8.7-.2-2.2q.4-.6 1.2-.7.8 0 1.4 1 .7.8 1 1.5l-.7 1.5-.5 1.5h.7l3.5-.3 3.4-.2q1.6.4 1.8 2v.2q-1.2.5-2.5.4h-3.9q-2.8.1-3.8.4l-1.4 4.2 4.8-.2q2.3-.2 4.6-.7l.8-.1q1.4.5 1.7 2-.2.8-1.7 2.8l-1.9 2.5q-.1.3-.5.3-1-.3-1.3-1.5.4-1.4 1.4-2.9l-1.7-.2h-5.2l-5.2.6q1.2.4 1.5 1.6l-.3 1.2-.3 1.3v.4l.1.3 3-.2 3-.2q.8-.2 1.2-1 .4 0 .7.2l.8.5.6.5.3.7-1 1.2-.4 2-.2 2q.2.9 1 1.7 0 .6-.7 1-2.1-.2-4.2-.1l-4.3.2v4.3q3.5-.1 6.7-.7l-.4-.5-.4-.7-.3-.6-.2-.5q0-.6.4-1h.2q.4 0 .5.4 1 .8 2.7 2.8 1.8 2.1 2 3.6.1 1.6-1.4 2l-.4-.1-1-1.7-.7-1.9-9.2 1.3-9.2 1.4-1.5.3q-2.2 0-2.2-2.1.6-.8 1.5-.9l5.4-.2q3.7-.2 5.1-.6v-4.5l-5.2.2v.6l-.2.6q0 .3-.2.5-.2.3-.4.3-1.8-.5-2-2.4l.1-2.2-.2-3.4-.5-3.3q.4-.6.8-.6 1.2.5 1.6 2l3.2-.2 3.1-.4v-3q0-1-.3-1.8l-11.4.6-.1 1.8-.4 1.8q-.3.4-.5 1.2-.2.8-1 .8-.7 0-1-1.2l-.2-1-.1-.8q1.5-2.8 1.4-6 .1-.8 1-.7.6 0 .8.9l.2 1.3 4.3-.1q3.6-.2 4.4-.6-1.2-1-1.4-2.6 0-.8.3-1.4l-3.9.4q-1.8.2-3.8.2l-1-1v-.8l4.4-.5 4.4-.7-.2-.8v-.8l-.6-2.6v-.2l.7-.6.8.4 1 .5.3 2 .2 2.1 3.5-.3 3.5-.5q0-.7.4-1.4zm-7.4 10.2 2.8-.2 2.6-.4q.8-2.1.8-4.3l-3.2.2-3 .4-.1 1.3v1.3l.1 1.7zm-3.8 13.7 5.4-.5.1-4.3h-3l-2.9.4zm13.8-5.3h-3q-1.4 0-2.9.3v4.2h2.8l2.9-.4V156l.2-1.8z" aria-label="铃 萤" style="font-family:AaKaiSong;-inkscape-font-specification:AaKaiSong;text-align:center;text-anchor:middle"/></g><g style="font-size:24px;line-height:1.25;text-align:center;white-space:pre;shape-inside:url(#f);display:inline;fill:#333" transform="translate(285.8 -153)"><path d="M77.5 291.9h-1.8v-17h5.5q3 0 4.6 1.2 1.6 1.3 1.6 3.7 0 2.4-1.6 3.8-1.7 1.4-5.2 1.4h-3.1zm3.5-15.5h-3.5v7h3.1q2.7 0 3.9-.9 1.1-.9 1.1-2.7 0-1.8-1.1-2.6t-3.5-.8zm18.5 3.6v11.9h-1.8V289q-.6 1.4-1.7 2.2-1.1.8-2.6.8t-2.5-.7q-1-.8-1.6-2-.6-1.3-.6-3 0-2 .8-3.4.7-1.6 2-2.4 1.3-.9 3-.9 1.2 0 2 .6 1 .5 1.4 1.4l.3-1.8zm-5 1.3q-1.8 0-2.9 1.4-1 1.3-1 3.6 0 2 .8 3 .8 1.2 2.3 1.2 1.1 0 2-.7 1-.7 1.5-2 .6-1.2.6-2.8 0-1.7-.9-2.7-.9-1-2.4-1zm12.8 15.7q-1 0-2-.3-1.1-.2-1.9-.6l.5-1.6q.8.4 1.7.6l1.8.2q2.3 0 3.2-1.2 1-1 1-3.6l.1-1.7q-.6 1.4-1.8 2.2-1.1.8-2.6.8-2.3 0-3.5-1.5-1.2-1.5-1.2-4 0-1.9.7-3.4t2-2.3q1.3-.9 3-.9 1.3 0 2.2.6 1 .5 1.3 1.4l.3-1.8h1.3v10.4q0 6.6-6 6.6zm1-15.7q-1.1 0-2 .6-1 .7-1.4 1.8-.5 1-.5 2.5 0 2 .8 3 .9 1 2.3 1 1.2 0 2.1-.7 1-.7 1.5-1.9.6-1.2.6-2.7 0-1.7-1-2.6-.8-1-2.3-1zm14.1 10.7q-2.8 0-4.4-1.5-1.5-1.6-1.5-4.4 0-1.9.7-3.3.8-1.5 2-2.3 1.3-.8 3-.8 2.4 0 3.7 1.7 1.4 1.7 1 5.1h-8.6q0 2 1.1 3t3.1 1q1 0 1.9-.5.8-.4 1.5-1.3l1 1q-1.5 2.4-4.5 2.4zm-.2-10.9q-1.1 0-2 .6-.8.5-1.3 1.4-.5.9-.6 2h7q.2-2-.8-3-.9-1-2.3-1zm18.3 10.9q-5.7 0-6.3-5.2l1.8-.2q.3 2 1.4 3 1.1.8 3.2.8 1.8 0 2.8-.8 1-.8 1-2.2 0-1-.5-1.5-.4-.5-1.2-.8-.9-.4-2.2-.7-1.6-.4-2.7-.9-1.2-.5-1.9-1.4-.6-1-.6-2.6 0-1.4.7-2.5t2-1.8q1.2-.6 2.8-.6 2.2 0 3.6 1.2t1.6 3.3l-1.6.3q-.3-1.6-1.2-2.4-.9-.8-2.5-.8t-2.6 1q-1 .8-1 2.2 0 1.6 1 2.3 1 .7 3.1 1.1 1.6.4 2.7.9 1.1.4 1.7 1.3.6.9.6 2.4 0 1.4-.7 2.4t-2 1.7q-1.3.6-3 .6zm12 0q-1.8 0-2.8-1.2-1-1.2-1-3.4l.1-7.5h1.8v7.2q-.1 1.6.5 2.5.5.8 1.8.8 1.2 0 2.1-1 1-1 1.5-3.2.6-2.3.6-6.3h1.7v12H157l.1-4q-.6 2.2-1.9 3.2-1.2 1-2.7 1zm9.9-.1V274h1.7v8.7q.6-1.4 1.7-2.2 1.2-.9 2.6-.9 1.6 0 2.6.7t1.6 2q.5 1.3.5 2.9 0 2-.7 3.5t-2 2.4q-1.3.9-3 .9-1.2 0-2.1-.6-1-.6-1.3-1.5l-.3 1.9zm5-1.4q1.7 0 2.8-1.4 1.1-1.4 1.1-3.7 0-2-.8-3-.9-1-2.3-1-1.2 0-2.1.6-1 .7-1.5 2-.5 1.1-.5 2.7 0 1.8.9 2.8.8 1 2.3 1zM180 292q-2.2 0-3.4-.9-1.2-.9-1.4-2.6l1.5-.4q.2 1.3 1 2 .8.5 2.3.5 1.4 0 2-.5.7-.6.7-1.4 0-.8-.7-1.2-.7-.4-2.2-.7l-2.1-.6q-.9-.4-1.4-1-.4-.7-.4-1.9 0-1 .5-1.8.6-.8 1.5-1.3 1-.5 2.2-.5 1.7 0 2.8.9 1 .8 1.3 2.2l-1.5.4q-.4-2-2.6-2-1.1 0-1.8.6-.7.5-.7 1.5 0 .8.6 1.2.6.5 2.1.8 1.3.3 2.2.7 1 .3 1.4.9.5.6.5 1.7 0 1-.5 1.8-.6.7-1.6 1.2t-2.3.5zm12.4 0q-2.7 0-4.3-1.5-1.6-1.6-1.6-4.4 0-1.9.8-3.3.7-1.5 2-2.3 1.3-.8 2.9-.8 2.4 0 3.8 1.7 1.3 1.7 1 5.1h-8.7q0 2 1.2 3 1 1 3 1 1 0 1.9-.5.9-.4 1.5-1.3l1.1 1q-1.6 2.4-4.6 2.4zm-.2-10.9q-1 0-2 .6-.7.5-1.2 1.4-.5.9-.7 2h7q.2-2-.7-3-1-1-2.4-1zm12.1 10.9q-2 0-3-1-1.1-1.1-1-3v-6.6h-2.1V280h2.1v-2.5h1.8v2.5h4.1v1.5H202v6.5q0 1.2.5 1.9.6.7 1.9.7l1-.1 1-.6.6 1.4q-.5.5-1.2.7l-1.5.2zm11-.1v-1.5h3.8v-13.2l-3.5 2.4-.8-1.3 5.1-3.5h1v15.6h3.7v1.5z" aria-label="Page Subset 1" style="font-family:Livvic;-inkscape-font-specification:Livvic"/></g></g><g transform="translate(0 181.7)"><rect width="163.4" height="73.1" x="354.8" y="35.9" ry="22" style="fill:#fefefe;fill-opacity:.25;stroke:#666;stroke-width:1.5;stroke-linecap:round;stroke-linejoin:round;paint-order:stroke markers fill"/><g style="font-size:40px;line-height:1.25;white-space:pre;shape-inside:url(#g);display:inline;fill:#666" transform="translate(251 -78.1)"><path d="M167.7 139.7q-1.6.4-3.2.2-1 2.2-3 4 .6.5.7 1.4l-.4 2 .1.8 4.4-.3 4.4-.4 1.2-.2 1.2-.1q1.5.3 1.8 1.7l-.1.4q-2 .9-5.5.6-3.6-.3-5.5.5 3 3.6 6.4 7l2 2.2q3.5 1.8 7 3v.8l-2.8.4h-2.9q-1 .1-2-.6l-1.4-1.8-3.2-4-4.9-6.4v8.8l2.3-.3 2.3-.2q1.4.4 1.5 2-3 1-6.2.7l-.2 4q0 2-.4 4h-.6q-1.7-1-2-3 .1-.7.6-1.5l.1-1.7V162h-2.1q-1.1 0-2.2.3l-1.5.1q-1.5.1-1.9-1.3l.2-.5q.7-.3 3.6-.5l4-.3.2-8.6q-3.3 4.8-6.7 8l-3.7 3q-2.1 1.5-4.7 3-1 .6-2 .6-.9 0-1.1-.8.4-.6 1.2-1 1.8-1 3.5-2.2l3.3-2.5q4.8-3.8 8-8.8l-4 .2-4.3.3q-1.3.2-1.9-1l.8-1q3 0 5.8-.2l5.8-.7v-2l-.4-2q.2-.7 1-2 .8-1 1.1-2-3.1.1-6.1.8l.4.5.7.8q.7.9.8 1.4 0 2-2 2.5l-2.1-5-2.6.1-2.5 3.5q-.4.6-1 .9-.8.7-1.3 1.6-.3.3-.6.3-.8-.1-1-.8.2-.7.8-1.5l1.8-2.4 1.7-2.6q.9-1.2 1.5-2.6l1.2-2.8q.4-1.2 1.4-1.8 1.4.6 1.6 2 0 .7-1 2l-.6 1.2-.5.8 7.5-1.2q1.8.2 2.2 2 2.2-2.4 2.8-5.4v-.4l.4-.8q.2-1 .6-1 1.8 0 2 1.7.2 0 .2.3l-1 1.7-.6 1.2-.4.7q3.2-.3 6.4-1.1l2.8-.6q1.3 0 1.6 1.3l-.3.8-7.2 1.3.5 1 .8 1.2q.8 1.3.9 2-.1 1.3-1.1 2h-.6l-1.2-2.4-1.2-2.6q.1-.7.6-1.1zm27.3 6.2 2.6-.3 2.6-.4v-4.9l-3.3.9q-.8-.1-1.3-.5v-.8q3.2-1 6-2.8.3-.3.7-.3 1.3.3 1.6 1.6l-1.6.9.2 5.6 3.7-.4q0-5-.5-9.8v-.7q0-.5.4-.5 2 .4 2.5 2.5l-.2 2.5-.1 2.4v3.6q1.6-.6 3.4-.6 1.6 0 1.5 1.8-.5.3-1.2.4l-1.2.2h-2.5v.3q.2 3.4 1 6.5l1.2-2.2 1.2-2.2.7-.2.7 1.5.1.3-.1.6-1.9 2.6-1.8 2.6q.4 4.2 2.4 7.8l.5-2.4q.3-1.6.7-2 .8-.3 1.8-.2l4-.4 4.2-.6h.2l.3-.1q1.7.2 2 1.7l-.1.4q-1.2.5-5.5.6l-5.6.2v3.4q-.3 2.8-1.5 3.2-.7-.3-1.4-.9-1-.7-1.6-1.6l-1-2-.8-2.2-.4-2.3q-1.6 2.2-4 3l-.6-.6q.4-1.3 2-2.6 1.7-1.2 2.2-2.6-.3-.8-.7-4.4l-.3-4.9-3.7.5-.2 4q1.2-.8 2.5-1.2h.1q.7.4.8 1-1.5 1.5-3.4 2.5v12.3q-.2 1.7-1.7 2h-.2q-1.3-1-2.4-2.2-1.2-1-2.3-2.3.2-.7.7-1 .3 0 1.7 1l1.8 1q.2-1.6.1-3.1v-6.3q-2 1.7-4.3 2-1-.2-1.7-1.3.6-.8 2.7-1.6 2.2-.8 3.4-1.6v-5l-3.2.5q-1.1 0-2-1v-.9zm29.4 20q2.4-5.3 2.7-11.2h-.7l-4.7.1q-2.3 0-4.7.3l-.3 1.2-.6.2q-1.5-.2-1.8-1.6l.7-3.4v-12.8l.8-.3q.9.2 1.2 1.2l1.3-.2.6-2.7.5-2.7q0-.7.6-1.2.2-.3.5-.3.5 0 1.1.8l.5.6.4.5q0 .4-1 2.3l-1 2.4h.5l2-.2q1.5-.2 2-.6l.6-.4q1.9.5 1.6 2.5l-.2 2.3-.5 2.8q-.7 3.2-1.4 5-.6 1-1.7 1-.8 0-2-1-1.3-1.2-1.7-2l.5-.8h.4l2.6 1.2q1.1-3.5 1.2-7.2v-.7q-3.7-.1-7.2.5.2 5.8 0 11.6h1q4.5 0 8.8-.8l1.7-.4q.7.1 1.3.8v.4l-.8 3.6-.5 2.8-1 4.3q-1.2 5-3 5.6-1-.2-2.6-2.2l-1.4-1.7-.9-1.1q.4-.7 1-1l1.9 1q1.5 1 1.7 1.5zM209 137.5q.6-.6 1.4-.8.7.4 1.8 1.4 1.2 1 1.4 1.7v1l-.5.7q-1.3-.2-2.4-1.5l-1-1.3-.7-1.2zm9.8 4.8q1.1.1 2.2.8 1.2.8 1.3 1.9 0 .7-.5 1.3h-.2q-.9 0-2-1.3-1.2-1.2-1.3-2.1z" aria-label="笨 鹅" style="font-family:AaKaiSong;-inkscape-font-specification:AaKaiSong;text-align:center;text-anchor:middle"/></g><g style="font-size:24px;line-height:1.25;text-align:center;white-space:pre;shape-inside:url(#h);display:inline;fill:#333" transform="translate(285.8 -153)"><path d="M77.5 291.9h-1.8v-17h5.5q3 0 4.6 1.2 1.6 1.3 1.6 3.7 0 2.4-1.6 3.8-1.7 1.4-5.2 1.4h-3.1zm3.5-15.5h-3.5v7h3.1q2.7 0 3.9-.9 1.1-.9 1.1-2.7 0-1.8-1.1-2.6t-3.5-.8zm18.5 3.6v11.9h-1.8V289q-.6 1.4-1.7 2.2-1.1.8-2.6.8t-2.5-.7q-1-.8-1.6-2-.6-1.3-.6-3 0-2 .8-3.4.7-1.6 2-2.4 1.3-.9 3-.9 1.2 0 2 .6 1 .5 1.4 1.4l.3-1.8zm-5 1.3q-1.8 0-2.9 1.4-1 1.3-1 3.6 0 2 .8 3 .8 1.2 2.3 1.2 1.1 0 2-.7 1-.7 1.5-2 .6-1.2.6-2.8 0-1.7-.9-2.7-.9-1-2.4-1zm12.8 15.7q-1 0-2-.3-1.1-.2-1.9-.6l.5-1.6q.8.4 1.7.6l1.8.2q2.3 0 3.2-1.2 1-1 1-3.6l.1-1.7q-.6 1.4-1.8 2.2-1.1.8-2.6.8-2.3 0-3.5-1.5-1.2-1.5-1.2-4 0-1.9.7-3.4t2-2.3q1.3-.9 3-.9 1.3 0 2.2.6 1 .5 1.3 1.4l.3-1.8h1.3v10.4q0 6.6-6 6.6zm1-15.7q-1.1 0-2 .6-1 .7-1.4 1.8-.5 1-.5 2.5 0 2 .8 3 .9 1 2.3 1 1.2 0 2.1-.7 1-.7 1.5-1.9.6-1.2.6-2.7 0-1.7-1-2.6-.8-1-2.3-1zm14.1 10.7q-2.8 0-4.4-1.5-1.5-1.6-1.5-4.4 0-1.9.7-3.3.8-1.5 2-2.3 1.3-.8 3-.8 2.4 0 3.7 1.7 1.4 1.7 1 5.1h-8.6q0 2 1.1 3t3.1 1q1 0 1.9-.5.8-.4 1.5-1.3l1 1q-1.5 2.4-4.5 2.4zm-.2-10.9q-1.1 0-2 .6-.8.5-1.3 1.4-.5.9-.6 2h7q.2-2-.8-3-.9-1-2.3-1zm18.3 10.9q-5.7 0-6.3-5.2l1.8-.2q.3 2 1.4 3 1.1.8 3.2.8 1.8 0 2.8-.8 1-.8 1-2.2 0-1-.5-1.5-.4-.5-1.2-.8-.9-.4-2.2-.7-1.6-.4-2.7-.9-1.2-.5-1.9-1.4-.6-1-.6-2.6 0-1.4.7-2.5t2-1.8q1.2-.6 2.8-.6 2.2 0 3.6 1.2t1.6 3.3l-1.6.3q-.3-1.6-1.2-2.4-.9-.8-2.5-.8t-2.6 1q-1 .8-1 2.2 0 1.6 1 2.3 1 .7 3.1 1.1 1.6.4 2.7.9 1.1.4 1.7 1.3.6.9.6 2.4 0 1.4-.7 2.4t-2 1.7q-1.3.6-3 .6zm12 0q-1.8 0-2.8-1.2-1-1.2-1-3.4l.1-7.5h1.8v7.2q-.1 1.6.5 2.5.5.8 1.8.8 1.2 0 2.1-1 1-1 1.5-3.2.6-2.3.6-6.3h1.7v12H157l.1-4q-.6 2.2-1.9 3.2-1.2 1-2.7 1zm9.9-.1V274h1.7v8.7q.6-1.4 1.7-2.2 1.2-.9 2.6-.9 1.6 0 2.6.7t1.6 2q.5 1.3.5 2.9 0 2-.7 3.5t-2 2.4q-1.3.9-3 .9-1.2 0-2.1-.6-1-.6-1.3-1.5l-.3 1.9zm5-1.4q1.7 0 2.8-1.4 1.1-1.4 1.1-3.7 0-2-.8-3-.9-1-2.3-1-1.2 0-2.1.6-1 .7-1.5 2-.5 1.1-.5 2.7 0 1.8.9 2.8.8 1 2.3 1zM180 292q-2.2 0-3.4-.9-1.2-.9-1.4-2.6l1.5-.4q.2 1.3 1 2 .8.5 2.3.5 1.4 0 2-.5.7-.6.7-1.4 0-.8-.7-1.2-.7-.4-2.2-.7l-2.1-.6q-.9-.4-1.4-1-.4-.7-.4-1.9 0-1 .5-1.8.6-.8 1.5-1.3 1-.5 2.2-.5 1.7 0 2.8.9 1 .8 1.3 2.2l-1.5.4q-.4-2-2.6-2-1.1 0-1.8.6-.7.5-.7 1.5 0 .8.6 1.2.6.5 2.1.8 1.3.3 2.2.7 1 .3 1.4.9.5.6.5 1.7 0 1-.5 1.8-.6.7-1.6 1.2t-2.3.5zm12.4 0q-2.7 0-4.3-1.5-1.6-1.6-1.6-4.4 0-1.9.8-3.3.7-1.5 2-2.3 1.3-.8 2.9-.8 2.4 0 3.8 1.7 1.3 1.7 1 5.1h-8.7q0 2 1.2 3 1 1 3 1 1 0 1.9-.5.9-.4 1.5-1.3l1.1 1q-1.6 2.4-4.6 2.4zm-.2-10.9q-1 0-2 .6-.7.5-1.2 1.4-.5.9-.7 2h7q.2-2-.7-3-1-1-2.4-1zm12.1 10.9q-2 0-3-1-1.1-1.1-1-3v-6.6h-2.1V280h2.1v-2.5h1.8v2.5h4.1v1.5H202v6.5q0 1.2.5 1.9.6.7 1.9.7l1-.1 1-.6.6 1.4q-.5.5-1.2.7l-1.5.2zm10.3-.1v-1.2q2.4-2 4-3.6 1.6-1.7 2.4-3 1-1.4 1.3-2.5.4-1.2.4-2.2 0-1.5-.9-2.3-.8-.9-2.3-.9-3 0-4.1 3.3l-1.4-.6q.5-2 2-3.1 1.4-1.2 3.6-1.2 1.4 0 2.5.5 1.1.6 1.7 1.6.7 1.1.7 2.6 0 1.6-.7 3.4-.8 1.7-2.4 3.6-1.6 1.9-4.4 4h8v1.6z" aria-label="Page Subset 2" style="font-family:Livvic;-inkscape-font-specification:Livvic"/></g></g></svg>