<svg xmlns="http://www.w3.org/2000/svg" width="720" height="360"><defs><path id="b" d="M65.9 269.7h271.7v87.5H65.9z"/><path id="a" d="M86.2 125.5h200v118.1h-200z"/><path id="e" d="M86.2 125.5h200v118.1h-200z"/><path id="f" d="M65.9 269.7h168.6v42.5H65.9z"/><path id="g" d="M86.2 125.5h200v118.1h-200z"/><path id="h" d="M65.9 269.7h168.6v42.5H65.9z"/><path id="c" d="M65.9 269.7h271.7v87.5H65.9z"/><path id="d" d="M65.9 269.7h271.7v87.5H65.9z"/></defs><path d="M26 105.4c43-55.7 131.8-52.7 201.2-63.5 111.5-17.4 251.3-72.7 338.4-1.1 25.2 20.7 36 68.4 18.6 95.9-42.1 66.7-159.3 22.4-229.2 59-62.7 32.8-90.2 132.5-160.7 138.8-67.3 6-142.5-43.8-174.5-103.4-19.9-37-19.4-92.5 6.3-125.7Z" style="fill:#666;fill-opacity:.04;stroke:#666;stroke-width:1.5;stroke-linecap:butt;stroke-linejoin:miter;stroke-dasharray:none;stroke-opacity:.4"/><path d="M420.3 191.9c49.9 13 117.3-16 153.1 21 22.8 23.4 29.9 71 10.5 97.3C547.2 359.7 464 344 402.5 345c-109.6 2-232 7.5-325-50.6C41 271.6 4.5 231.7 4 188.9 3.4 138 39.5 77 87.8 61.7 201.3 25.7 305.2 162 420.3 192Z" style="fill:#666;fill-opacity:.04;stroke:#666;stroke-width:1.5;stroke-linecap:butt;stroke-linejoin:miter;stroke-dasharray:none;stroke-opacity:.4"/><rect width="193" height="127" x="56" y="100" ry="22" style="opacity:1;fill:#fff;stroke:#666;stroke-width:1.5;stroke-linecap:round;stroke-linejoin:round;paint-order:stroke markers fill;fill-opacity:.25"/><g style="font-size:40px;line-height:1.25;white-space:pre;shape-inside:url(#a);display:inline;opacity:1;fill:#666" transform="translate(-31.8 -12.9)"><path d="m143.5 141.7 2.6-.6q1.4-.4 2-.4 1 0 1.7.9v.4l-.1 1.2-.2 1v4.7l-.5 5.3q-.5 5.6-2 9.5-.1.8-.7 1.7l-.3.7-.4.9q-.3 1-1.2 1-1.1-.3-3.8-2.4-2.7-2.2-3-3.1l.2-.6q.3-.2.7-.2l2.4 1.2 2.6 1.5q1.8-2.8 2.6-9 .8-6.3.7-9.7V144l-4.9.4-4.7.2-1.3 2.9-1.3 2.8h-.2q-1.4-.3-1.7-1.7 0-.6.3-1l.5-1 2-4q.8-2 1.4-4.2l1-3.1q.6-2.4.8-2.7l.5-.5q1.4.4 1.7 1.7 0 .4-.2.6l-.7 1.6-.7 2.1-.6 2.3-.7 1.9 2.9-.3q2.3-.2 2.6-.4zm-21.8 1.5.4-.5 1.8-5 1-2.9.4-1.7q.3-.3.8-.4 1.4.3 1.6 1.6-.1 1-1.6 4.3l-1.2 2.8-.8 1.5 3.4-.5 1.5-.5 1.5-.4q1.3.1 1.6 1.5l-.1 3.2v3.3q0 3.2-.3 6.3l-.4 6.3q0 .6-.2 1.1l-.4 1q0 1.2-1 1.3h-.2v-.3l-1.6-2.3h-3.6l-2.3.2v.9q0 1.4-1.4 1.7-.7-.1-1.1-1.4-.4-1.2-.4-2l.1-5.2v-10.4l-.3-3v-.6l.2-1 .7-.4q.8.8 1.2 1.8zm-.2 10.4.1 3.8.4 3.8 2.7-.3q1.3-.2 2.7-.2.6 0 1.3.4.5-8.2.6-16.4l-4 .5-4 .6.2 5.6 2.7-.3 2.7-.2 1 .2q.3.5.3 1.2 0 .6-.3 1zm19 3.3-.6-1.1-1.4-2.4q-1.6-3-1.9-4v-.2q.5-.5 1-.7.7.4 2.7 3.1t2.2 3.7q-.2 1-1 1.8l-1-.2zm30.3-7.7h1.7l11.7-.4 11.6-.7 2.5-.3h2.4q1.3 0 1.5 1.5 0 1.1-1.2 1.2l-1 .1h-1l-6 .2-6.2.2-5.2.3-5.2.1h-3.5q-1.9 0-2.9-1.3l.3-.5v-.1zm68.5-10.5v-.3l-6 .4-6 .3h-1l-1-.1q-.7-.3-.8-1l.2-.4 3-.4 3.3-.3 7.4-.6 7.3-.6 2.8-.3 3-.3q1.2-.1 1.8.9l.2.7q-.7 1-2 1h-1.2l-8.7.6.3.8.3.8q-.1.4-.5.7-1.9 1.9-3.4 4 1 .5 1.3 1.3-.2.2-.4 1l.3 17.6q0 1.6-1.2 3l-.3.1-.6-.3-.5-.6-.4-.8-.1-.6v-1q.6-3.6.6-9v-8.6l-3 2.8-4.4 4.3q-5.2 5-7 5.7l-.4-.2-.6-.5-.5-.1q0-.4.3-.7l2.8-2.3 2.6-2.4 2.5-2.3 2.5-2.6 3.8-4.1 1.2-1.5 1-1.6q1.1-1.1 1.5-2.5zm4.3 8.5q1.2.5 4.6 2.8l3 2 2 1.4q1.7 1.2 1.6 3.3 0 .8-.3 1.6-1.4-.5-5.8-4.5l-5.9-5.5q0-.8.8-1zm-82.8 58.4.2 2.4q3.7-.8 7.4-1.1 1.5.3 1.8 1.7-.2.4-.7.7-2.2 0-4.3.3l-4.3.6v2.6l-.3 2.6q5.9 2.8 12.3 3l3.6-.2q1-.2 1.4.6v.2l-.1.8-.3.3-.3-.2q-1.1.3-2.3 1.2-1.2.9-2 1-3.4-.5-10.8-3.7l-6.5-2.8-5-1.9q-.3.7-1.2 1.8l-2.1 2.6q-2.4 3.1-3.8 3.5l-.4-.1-.6-.8 1.4-2q.7-1 1.6-1.9 2.1-2.5 3.8-5.5 1.4-2.2 1.7-4.8.3-.8 1-.8t1.3.9q.5.8.6 1.4-.1.6-.9 1.8l-.7 1-.4 1 3.4 1.3q2.2.9 3.2 1.5l-.1-4.5v-6q-5.7.3-11.3 1l-2 .2h-.4l-.3-.1-.7-.6v-.9q.8-.5 1.8-.5 1.9 0 3.7-.2 1.9-.1 3.7-.4l5-.6 5.2-.4 3.7-.4 3.7-.4 1-.3 1.1-.1q.7 0 1.5.8.9.8 1 1.3-.3.7-1 .7l-6.6.3-6.7.5zm5.7-20.3.6.1.7.4.6.4q.3.2.3.5-.1.7-.6 1.1l-.2 4.2-.5 4q.8.8 1.3 1.6l-.1.3q-.8.8-1.8.4l-12.8.8-.6 2.2-.6.2q-1.5-1.2-1.7-3.1l.4-3.4-.6-9.2q-.2-1.1.8-1.3 1.2 1.2 1.4 2.8l6.1-.9 6.1-.6q.8 0 1.2-.5zm-12.6 12.1q5.5-.8 11-1 .5-4 .6-7.8v-.5q-3.1.1-6.1.4l-6 .6v3q4.7-.3 9-1.7l1.9 2.2-.4.6-2.3.3-2.8.2-5.1.2v1.8q0 .9.2 1.7zm45.9-7.7q.7-.9 1.7-1 8.3-1.3 16.6-1.7 2.4 0 4.5-.6 1.4 1 1.8 2.6-5.7 4.2-11 8.7 1.4 5 1.2 10.2l-.2 3-.6 4q-.9 4.7-3.4 5.2-.4 0-.6-.2l-2.2-1.2-3.6-2.8q-.5-.3-.8-.7-.2-.2-.2-.5l.2-.7q1.9.5 3.6 1.4l1.8.7 1.9.3q1.6-4 1.5-8.5.5-5.8-1.6-11.1.6-.3 1.3-.4 4.2-3.2 8-7.1H217q-2.7 0-5.3.2l-5.3.5-3 .5-2.4.4q-1.2 0-1.2-1.2z" aria-label="的 一 不 是 了" style="font-family:AaKaiSong;-inkscape-font-specification:AaKaiSong;text-align:center;text-anchor:middle"/></g><g style="font-size:32px;line-height:1.25;text-align:center;text-anchor:middle;white-space:pre;shape-inside:url(#b);display:inline;fill:#333" transform="translate(-50 -35.4)"><path d="M132.4 284q.5.8.5 1.7 4.1-1 8.2-1.4.6-.1 1-.5 1.3.3 2 1.5-.5.4-.6.9l-.3.8-.1 1-.2.9q.8.5.8 1.4-.7.5-2.5.6h-2.8v1.8q1.6 0 3-.3l3.1-.5.7-.1q1.1.2 1.5 1.3 0 .6-.5 1v2l-.3 2.6q-.4 3-2.2 3.4-.7-.1-2-1-1.3-1-1.6-1.7 0-.8.7-1h.3l1.2.8 1.3.6q.6-2.8.6-5.4h-2.9l-2.8.2v5.7q.4 2.4-.5 4.6-1.8-.4-1.8-2.4l.3-4.9.1-2.9-5.8.4.3 2.7v2.9q-.1.9-.9 1.2-.5 0-1-.8-.3-.8-.3-1.3l.1-1.5.1-1.5v-5l.7-.4.5.3.3 1.8 3-.2 3-.4v-2l-3 .3v.2q0 .9-.5 1.2-1.5-.3-1.6-2v-6.4l.7-.2h.2zm-1.2-7.3q.6.5 1.6 1.8 1 1.4 1.2 2-.2.8-.8 1.3l3.5-.4v-2.9l-.4-2.8v-.6q0-.5.3-.8 2 .5 2.2 2.4l-.3 3.4v1.2l2.1-.1q1.7-2.8 2.6-5.8h.2q.7 0 1.2.8.5.7.5 1.5l-.2.3-1.1 1.4-1 1.5q3.1-.5 6.2-.6 1.2.3 1.5 1.5-.2.7-1.4 2-1.3 1.4-2.1 1.9-.8-.2-1.4-.8.4-1.2 1.3-2.1-7.7 0-15.4.8-2 .4-3.9.3 0 1-.4 2.4-.3 1.4-1.4 1.5-.6-.7-.7-1.6 0-.4.6-1.6l.5-1.1.2-1v-1.1q.1-.8.3-1 .2-.4.6-.3.2.3.3 1.2l.1 1.3 2.5-.3q1.7-.2 2.4-.5-1.7-2.1-2.3-4.8.4-.3 1-.3zm10 9.6h-.7q-3.7 0-7.4.5v.4l.3 2.5q3.7-.5 7.5-.8.3-1.1.3-2.2zm22.3-7.9 1.8-.3 1.9-.3 3-.4 3-.2q3.2-.6 6.5-.8 1.7-.2 2.1 1.3l-.1 1.7v16.4q0 2.9-.2 4.7-.2 1.9-.5 2.6 0 .8-.8 1-.9-.2-3-1.8-2-1.6-2.2-2.3.2-.8 1-1h.1l1.3 1 1 .5 1 .4.2-7.8v-14.3l-.2-.2-3.6.3-3.6.2.1 4.6 2.4-.2h2.4q1.4-.3 1.7 1 0 .5-.4.8h-3q-1.8.1-3 .4l.1 5 2.9-.2 2.8-.2.4.2q.4.2.4.7 0 1.6-1.8 1.3-2.5 0-4.8.3v2.8l.1 2.9-.2 4q-.1.7-.7.8-1.7-.6-1.6-2.5l.2-1.3.2-1.3v-2.7l-.1-2.7-5.2.1-.2.1q-.5-.1-.8-.5v-.8q.8-.5 3-.6l1.9-.1h1.4v-5.2l-4.9.2q-.8 0-1.1-.5 0-1 1-1 2.5-.1 5-.6-.2-2.3 0-4.6-3.5.1-7 .7l.2 4q0 4.1-.7 9.1t-2.3 8.7l-.3.6-.5.8q-.6.8-1.2.9-1-.2-1-1l.2-.8.7-1.2q.8-1.4 1-2.2.4-1 1-4l.6-3.4q0-1.7.3-3.3.5-4.5.4-9l-.1-1.8q0-.8.7-1.2 1 .8 1 2.2zm33.3 21.8q2 1.3 4 2.2 1.3-2.8 1.3-6v-1.1l-.2-1.2-5 .4-5.1.1q-1 0-1.9-.6l.4-.8 5.7-.4 5.8-.6q-.7-1-.8-2.3 1-.4 2.2-1.7l1.7-2h-1.3q-3-.1-6.1.4l-.5.1-.5.1q-1 0-1.3-.8 0-.5.2-.7 1.4-.5 2.8-.3l3-.3 3-.5 1.2-.2 1.2-.2q1.3.2 1.7 1.5-.3 1-2.3 3-2 1.8-3.1 2.3l.6 1.5 4.3-.5 4.3-.4q1.4.1 1.5 1.6 0 .5-.5.7l-2.7.2h-2.7l-4 .3.2 1.7.1 1.8-.1 1.8-.5 2.5q-.6 2.8-2.2 3.1-.9-.1-2.5-1.2l-1.4-1-.9-.8q-.5-.3-.4-1 .2-.5.7-.7zm6.1-22.1q0 .9-.7 1.6 5-.7 9.8-1 1.6 0 2 1.5-.4 1.2-.8 1.5-.2.7-1.1 1.6-.9 1-1.5 1.1-1 0-1.3-1 .4-1 1.3-2 .3 0 .3-.4-2.4 0-4.7.2l-4.7.4-7.6.8h-2.1v2q0 .5-.4 1.5t-1 1.2h-.2l-.2-.2q-.5-.6-.5-1.3l.2-1.4q1-2.7.9-5.5 0-.6.2-1l.3.1.4.1q.8 1.5.4 3.2l2.2-.3 3.1-.5q3.6-.4 4.4-.7l-.6-.8-.9-1.4q-1-1.5-1-2.2l.5-.7h.2q.6.1 1.8 1.5 1.1 1.3 1.3 2.1zm29.4 5.1.5-.3.7.5q2.6-2.2 5-4.8H237l-3.7.1-3.6.5-2.1.3-2 .4q-.8-.3-1-1.2.1-.6.7-.7l5.3-.7 5.2-.4 1.6-.2 1.5-.2q1.4-.4 1.6-.6.6 0 1.2.8.6.7.7 1.3-4.2 3.1-8 6.6l1 3q2.2 0 4.3-.3 2.2-.2 4.3-.6l1.4-.1q.4 0 1 .6.7.5.7 1-.1.8-1.2.8H244l-4.2.2-4.2.4q.2 1.6.2 3.3-.2 5.3-1.6 10.5 0 .3-.2.4-.3.3-.8.3-1-.2-3.7-2.1-2.8-1.9-3.1-2.8 0-.4.4-.7h.4q.8 0 2.5 1.2 1.8 1 3 1.2 1-4 1-8.1v-3.1q-3 0-5.8.3l-5.7.5h-.5q-1.2 0-1.4-1 0-.4.4-.5l3.2-.5 3.3-.3 3-.4 3.2-.2q-.7-2.1-1.1-4.3zm36.1 4.3v2.2l3.6-.3 3.7-.4q1 .3 1.6 1v.6q-.7.4-1.4.3-2.4 0-4.7.2l-4.7.5q.8 1 .4 2.4l4.6-.2q2.3-.2 4.6-.7h.5q.4 0 1 .6l.7 1-.2.3q-1.4.6-4.5.5-3-.1-5.2.2 1.2 1.2 2.5 2.2l2.6 1.9q1.7 1 3.1 1.3l1.6.2 1.8.2v1q-.7.3-2.5.5l-1.5.2h-1q-.9 0-1.9-1l-.9-.9-.6-.7q-1-1.2-2.2-2.2l-2.5-1.9v4.3q0 3.3-.5 4.6-1.8-.6-2-2.6l.1-.6q.6-2 .6-4.2v-1.5q-2.4 2.2-5.4 4l-3.2 1.9-.8.3-.8.4q-.8.6-1.9.7l-.6-.1-.2-.8.7-.5 1-.6 2-1q3.7-2 7-4.8-2 0-3.9.2-1.9.1-3.7.4h-.9q-1-.3-1.3-1.3 0-.4.3-.5 2-.3 4-.2 2 0 3.9-.2l3.8-.3v-.4l-.2-2-5.4.2v.4q0 .9-.4 1.6l-.3.1q-.6 0-1.1-.8-.4-.7-.5-1.3l.5-2.3.2-7.7-1.3 1-1.6 1.7q-1.8 1.7-2.8 2l-1-.6v-.2l2.4-2.2 2.8-2.8q3-3.3 4.2-5.9h.6l.5 1 .4 1.1-1.2 1.6-1.4 1.5v10.4l3.6-.3 3.5-.5v-2l-2 .2-2 .2q-1.4.1-1.6-1.1v-.4l2.8-.2 2.8-.4v-1.6l-1.8.1q-1 0-1.8.3-1 0-1.4-1 0-.3.2-.5l4.8-.5v-1.6l-2.3.4-2.4.1q-.8 0-1-.8.2-1 1.2-.8 2.7 0 5.3-.7l-1-2-.4-1-.2-1q.2-.4.6-.6.5.1 1.6 1.5 1 1.4 1.2 2.3l-.1.7 2.6-.3 2.3-.4q1.3.3 1.6 1.5v.1l-1.3.2-1.3.2-4.6.4v1.5l2.3-.3 2.4-.3q1.2.2 1.6 1.4 0 .2-.3.5-.5.3-2.8.3h-2q-.7 0-1.2.2v1.5l2-.2 2.1-.3q1.5 0 2 1.5-.1.4-.5.5z" aria-label="常用字子集" style="font-family:AaKaiSong;-inkscape-font-specification:AaKaiSong"/></g><g style="font-size:32px;line-height:1.25;text-align:center;white-space:pre;shape-inside:url(#c);display:inline;fill:#666" transform="translate(451.8 -218)"><path d="m177.5 295 .2-.9.2-1 .2-2.2v-6.6q-5.9 0-11.6.8l.2 3.5v6q0 1.9-.7 2-.5 0-.9-.4-.5-.8-.7-1.5 0-.4.2-.7l.1-.8v-10.5l-.1-.3q0-.7 1-.8l.8 2q1.6-.5 3.3-.7l1.4-4.2h-1q-4.2 0-8.3 1.1-.8-.4-1-1.2.3-1.1 1.5-1.3l8-.3 8.1-.7 2.8-.3 1.4-.1 1.1-.1q1.5 0 1.7 1.5v.2q-1.7.9-3.5.6l-4.4.1-4.3.3q-.4 2-1.2 4.2l3-.2 3-.3 1.1-.4q1.1.3 1.4 1.4l-.1 1-.1.8v4.7l-.1 1.5q0 1.9-.2 2.3v.8l-.2 1.1q-.1 1.2-.9 1.4-1.1-.4-1.4-1.7zm-16.4 7.8q5.7-2 8.7-7.1 1.3-2.1 1.7-4.6v-4.5l.7-.2q1.5.3 1.6 1.9v.7l-.2.8-.1 1.5-.2 1.5-.3.9q-.8 3.3-3.7 6-3 2.9-6.2 4-.7.4-1.4.5-.8 0-.8-.8l.2-.6zm11.3-6 .7-.8q.4 0 1.5.7l3 1.5 2.8 1.7 1.6 1q.3.5.3 1 0 .6-.4 1.2l-.5.3q-1.9-1.1-3.7-2.4l-3.4-2.6-.9-.7q-.6-.5-.8-.5zm44.9-17.8q-2.9 0-5.7.2-2.9 0-5.8.3.4.5.5 1l-.2.5-.6 1.2-.6 1.1-.3.6v.4l3-.3 2.9-.3 2-.2h1.9l.7-.8q1.2.2 1.7 1.3 0 .4-.3.6-.2.3-.2 1.1v1.2l-.2 3.3q0 2-.3 5.1-.6 6.2-1.6 7.2l-.5.3q-.3 0-.5-.4-.2 0-.3-.2l-.2-.4-.1-.4-.1-.4-15 .2v.7q.3 1.5-1.1 1.5-1-.8-1.3-2l.2-2.1q0-4-.3-8l-.5-7.9q.3-.5.9-.6h.2q.6 1 .8 2 3-.4 6.2-.3l.7-2.4.5-2.4q-5 .2-10.2.8-.7-.4-1-1.3l.2-.4q1-.3 2.8-.4l2.8-.1 6-.4 5.8-.6 2.5-.3h2.6q1 0 1.4.2.5.3 1.1 1l-.1.6zm-4.3 20.2q1.2-5.7 1.1-11.6v-2h-4.4v.6l-.6 13 2.7-.2 1.2.2zm-16.5-12.7q.4 2.2.5 6.5l.2 6.7 3.7-.3-.2-13.2q-2 0-4.2.3zm10.7 12.9v-2.1l.1-2.1-2.3.2-2.3.4v3.6zm-4.6-10.2 4-.5q.6 0 1 .6V286l-5 .2zm0 4.7 2.4-.3 2.4-.3.1-2.6h-2.4l-2.5.2zm33.9-11.4q-.9-.2-1.1-1.1.3-.6 2.6-1.9 2.3-1.2 3-1.4.5 0 .6.7l-.1 5.7V300q-.3 1.1-1.6 1-1-.1-1-1.9 0-1.7.2-2.7V281l-1.4.8-1.2.7zm-60.9 43 .2 3.8 2-.2 2-.2q1.3 0 1.4 1.3v.3q-.3.6-2.3.6H177l-1.2.1-.1 3.9 3.5-.3 3.5-.3h.1q.5.1.8.4.2.3.2.7 0 .6-.5.9l-3.7.3-3.8.2-.1 5.3v2.5q0 1.8-1 2-.5 0-1-.7l-.3-.7-.1-.6.3-3.9v-3.8l-5.8.3h-.2q-1.2 0-1.7-1.2l.2-.3q.8-.3 1.5-.2 1.6 0 3-.2l3-.3v-4l-4 .1q-.6 0-1-.3l-.1-.3q0-.5.3-.6l.2-.3h.3l.3.1q2-.1 4-.5l.2-3.6-2.6.3-2.5.3q-.9-.2-1-1l.2-.3q.9-.6 4-1l2.7-.4 1.8-.3q0-1 .6-2.5l.4-1.4.3-1.3q.2-.9.9-1.1 1 .2 1.3 1.3 0 .4-.8 2.3l-.8 2.6 1.4-.3 1.5-.1q1.3.1 1.2 1.5 0 1-1.2.9zM163 318v5.6l1.4-.1 1.4-.1q1.5.1 1.3 1.7-.2.6-1.8.7l-1.3.1-1 .1.1 2.3 2.4 1.5q.4.1 1 .7.6.7.6 1.1.2.9-.4 1.5-1-.2-2-1.1l-1-.9-.6-.7-.1 10v2.7q0 1.5-.6 2.6h-.3q-.6 0-1-.9-.3-.9-.3-1.4v-1.5l.2-2v-9.5q-.4.9-2 3.1-1.5 2.3-2.2 2.5-.7-.3-1.2-1v-.2q0-.4.4-.7l1.5-1.8 1.4-2 2.2-3.7v-.6l-1.5.2h-1.3l-.7.1h-.7l-.5-.4q-.2-.3-.2-.7v-.3q.7-.6 1.6-.5 1.7-.1 3.4-.6l.1-5.5q0-.6.5-1l.8.1zm6.1 0q.4-.6 1.1-.6.8 0 1 .7l1.3 3.1q.6.7.9 1.5-.3.9-1.3 1-.8-.1-1.8-2.4-1-2.2-1.2-3.2zm31.5-1q1.6.4 2.8 1.7l-.2 2.2.1 2 .3 2q3.3-.2 6.6-1 1 .6 1.9 1.5l-.1.7-4 .3-4.1.3q.6 3.8 2.4 8.7 1.9 4.9 4.8 7.5.4.4 1 .5l.2-2v-2.1q.3-.4.8-.4h.4l.2.7.2 2 .1 2 .5 1.8q0 .4-.4.8-1.4-.1-3-1-1.8-1-2.7-2-2.7-3.3-4.2-7.7-1.5-4.5-2.2-8.6l-5.7 1q-3.4.5-5.5.5h-.3q-.8-.5-1.5-1.3l.1-.4q6.4-.5 12.7-1.6-.2-4-1.9-7.5h-.4q.2-.3.6-.4zm-11 15.3 4.8-.5q2.4-.3 4.7-.8l.7-.1q.4-.1.8 0 .9.4 1.4 1.4l-.1.2-5.4.6.1 3.3v3.2l3.4-1 2.2-.6 1-.3.2.2.5.7q-2.5 1.2-5.1 1.9l-7.3 3q-.5.3-1.2.4-.9 0-1.6-.9v-.8l6-1.8v-7q-1.9.5-3.7.6-1.2-.1-1.6-1.2 0-.3.3-.5zm21.1-10.9q0 .8-.5 1.6l-.4.1q-1-.7-2-2-1.2-1.3-2.4-1.9l.1-.5.5-.1q1 0 2.8 1 1.8.8 2 1.8zm24.7 8.6 8.4-.6h1.4l1.3-.2q1.1.2 1.5 1.3 0 .5-.5.7h-.5l-.8.1h-1.3l-5.5.2q-1.7 0-3 .2-1.4 0-2.4.2v.7q-1.7 1.3-3.3 3.1v.6l-.1 1.3-.1 1.4v4.8l2.4-1.5 2.4-1.4q.9.1 1.1.9-.3.6-2.8 2.7-2.5 2-4 2.6-1.3-.1-1.4-1.3v-.4q.6-1.5.5-3v-2.5l.1-2.5-1.8 1.2-2.8 1.9q-3.5 2.1-4.7 2.4-.4 0-.6-.2l-.1-.7q.6-.9 1.5-1.2 6.5-3.5 11.7-8.9l-4.8.2-4.8.2q-1.1 0-1.3-1.2l.2-.4 6.2-.2 6.1-.4v-2.7l-3.2.2-3.1.1q-1 0-1.2-.8.1-.8 1-.8l3.2-.2 3.3-.2v-2.5l-2.2.1-2.2.1-2-.2q-1.2-.2-1.3-1.2v-.2l.3-.3h7.4v-2l-.1-1.6-.1-.3q.1-.4.5-.8 1 .4 1.3 1.5l.2 2.2v.6l3.8-.4 3.8-.2q1.5-.1 1.7 1.4-.1.6-.8.6-4.3 0-8.5.5v2.4l6.3-.5q1.2.2 1.3 1.4 0 .6-1 .6h-1.2l-5.4.4v2.1zm3.6 7.4 4.3-4.1q.4-.6 1-.8h.3q.5 1 .4 2 0 .2-.2.3l-.9.7-1.5 1q-1 .5-1.6 1l-1 .6q2.2 2.8 5.3 4.4.4.5 1.8.7 1.5.2 1.7.8v.3l-.1.3q-.5.4-1.6.5h-1l-.7.2q-2.2-.7-6.3-5.5-4.2-5-4.7-7 .5-.6 1.4-.4l1.6 2.6 1.8 2.4z" aria-label="页面 1 样式表" style="font-family:AaKaiSong;-inkscape-font-specification:AaKaiSong"/></g><g style="font-size:32px;line-height:1.25;text-align:center;white-space:pre;shape-inside:url(#d);display:inline;fill:#666" transform="translate(453.5 -40.3)"><path d="m177.5 295 .2-.9.2-1 .2-2.2v-6.6q-5.9 0-11.6.8l.2 3.5v6q0 1.9-.7 2-.5 0-.9-.4-.5-.8-.7-1.5 0-.4.2-.7l.1-.8v-10.5l-.1-.3q0-.7 1-.8l.8 2q1.6-.5 3.3-.7l1.4-4.2h-1q-4.2 0-8.3 1.1-.8-.4-1-1.2.3-1.1 1.5-1.3l8-.3 8.1-.7 2.8-.3 1.4-.1 1.1-.1q1.5 0 1.7 1.5v.2q-1.7.9-3.5.6l-4.4.1-4.3.3q-.4 2-1.2 4.2l3-.2 3-.3 1.1-.4q1.1.3 1.4 1.4l-.1 1-.1.8v4.7l-.1 1.5q0 1.9-.2 2.3v.8l-.2 1.1q-.1 1.2-.9 1.4-1.1-.4-1.4-1.7zm-16.4 7.8q5.7-2 8.7-7.1 1.3-2.1 1.7-4.6v-4.5l.7-.2q1.5.3 1.6 1.9v.7l-.2.8-.1 1.5-.2 1.5-.3.9q-.8 3.3-3.7 6-3 2.9-6.2 4-.7.4-1.4.5-.8 0-.8-.8l.2-.6zm11.3-6 .7-.8q.4 0 1.5.7l3 1.5 2.8 1.7 1.6 1q.3.5.3 1 0 .6-.4 1.2l-.5.3q-1.9-1.1-3.7-2.4l-3.4-2.6-.9-.7q-.6-.5-.8-.5zm44.9-17.8q-2.9 0-5.7.2-2.9 0-5.8.3.4.5.5 1l-.2.5-.6 1.2-.6 1.1-.3.6v.4l3-.3 2.9-.3 2-.2h1.9l.7-.8q1.2.2 1.7 1.3 0 .4-.3.6-.2.3-.2 1.1v1.2l-.2 3.3q0 2-.3 5.1-.6 6.2-1.6 7.2l-.5.3q-.3 0-.5-.4-.2 0-.3-.2l-.2-.4-.1-.4-.1-.4-15 .2v.7q.3 1.5-1.1 1.5-1-.8-1.3-2l.2-2.1q0-4-.3-8l-.5-7.9q.3-.5.9-.6h.2q.6 1 .8 2 3-.4 6.2-.3l.7-2.4.5-2.4q-5 .2-10.2.8-.7-.4-1-1.3l.2-.4q1-.3 2.8-.4l2.8-.1 6-.4 5.8-.6 2.5-.3h2.6q1 0 1.4.2.5.3 1.1 1l-.1.6zm-4.3 20.2q1.2-5.7 1.1-11.6v-2h-4.4v.6l-.6 13 2.7-.2 1.2.2zm-16.5-12.7q.4 2.2.5 6.5l.2 6.7 3.7-.3-.2-13.2q-2 0-4.2.3zm10.7 12.9v-2.1l.1-2.1-2.3.2-2.3.4v3.6zm-4.6-10.2 4-.5q.6 0 1 .6V286l-5 .2zm0 4.7 2.4-.3 2.4-.3.1-2.6h-2.4l-2.5.2zm30.4-12.4q.2-1.4 2.1-2.4 2-1 3.5-1 5.5.3 5.3 5.9-.2 3.9-2.9 7.8-2.7 3.8-5.4 6.7h8.5q.6-.1.8.5 0 1.7-1.6 1.5h-10.5q-.7-.2-.7-1 .6-1.3 4.7-5.9 4.2-4.6 4.7-9.5 0-1.5-.6-2.8-.6-1.3-2.3-1.3-1.7.1-2.9 1.4-1.1 1.2-1.6 1.4-1-.3-1.1-1.3zm-57.4 44 .2 3.8 2-.2 2-.2q1.3 0 1.4 1.3v.3q-.3.6-2.3.6H177l-1.2.1-.1 3.9 3.5-.3 3.5-.3h.1q.5.1.8.4.2.3.2.7 0 .6-.5.9l-3.7.3-3.8.2-.1 5.3v2.5q0 1.8-1 2-.5 0-1-.7l-.3-.7-.1-.6.3-3.9v-3.8l-5.8.3h-.2q-1.2 0-1.7-1.2l.2-.3q.8-.3 1.5-.2 1.6 0 3-.2l3-.3v-4l-4 .1q-.6 0-1-.3l-.1-.3q0-.5.3-.6l.2-.3h.3l.3.1q2-.1 4-.5l.2-3.6-2.6.3-2.5.3q-.9-.2-1-1l.2-.3q.9-.6 4-1l2.7-.4 1.8-.3q0-1 .6-2.5l.4-1.4.3-1.3q.2-.9.9-1.1 1 .2 1.3 1.3 0 .4-.8 2.3l-.8 2.6 1.4-.3 1.5-.1q1.3.1 1.2 1.5 0 1-1.2.9zM163 318v5.6l1.4-.1 1.4-.1q1.5.1 1.3 1.7-.2.6-1.8.7l-1.3.1-1 .1.1 2.3 2.4 1.5q.4.1 1 .7.6.7.6 1.1.2.9-.4 1.5-1-.2-2-1.1l-1-.9-.6-.7-.1 10v2.7q0 1.5-.6 2.6h-.3q-.6 0-1-.9-.3-.9-.3-1.4v-1.5l.2-2v-9.5q-.4.9-2 3.1-1.5 2.3-2.2 2.5-.7-.3-1.2-1v-.2q0-.4.4-.7l1.5-1.8 1.4-2 2.2-3.7v-.6l-1.5.2h-1.3l-.7.1h-.7l-.5-.4q-.2-.3-.2-.7v-.3q.7-.6 1.6-.5 1.7-.1 3.4-.6l.1-5.5q0-.6.5-1l.8.1zm6.1 0q.4-.6 1.1-.6.8 0 1 .7l1.3 3.1q.6.7.9 1.5-.3.9-1.3 1-.8-.1-1.8-2.4-1-2.2-1.2-3.2zm31.5-1q1.6.4 2.8 1.7l-.2 2.2.1 2 .3 2q3.3-.2 6.6-1 1 .6 1.9 1.5l-.1.7-4 .3-4.1.3q.6 3.8 2.4 8.7 1.9 4.9 4.8 7.5.4.4 1 .5l.2-2v-2.1q.3-.4.8-.4h.4l.2.7.2 2 .1 2 .5 1.8q0 .4-.4.8-1.4-.1-3-1-1.8-1-2.7-2-2.7-3.3-4.2-7.7-1.5-4.5-2.2-8.6l-5.7 1q-3.4.5-5.5.5h-.3q-.8-.5-1.5-1.3l.1-.4q6.4-.5 12.7-1.6-.2-4-1.9-7.5h-.4q.2-.3.6-.4zm-11 15.3 4.8-.5q2.4-.3 4.7-.8l.7-.1q.4-.1.8 0 .9.4 1.4 1.4l-.1.2-5.4.6.1 3.3v3.2l3.4-1 2.2-.6 1-.3.2.2.5.7q-2.5 1.2-5.1 1.9l-7.3 3q-.5.3-1.2.4-.9 0-1.6-.9v-.8l6-1.8v-7q-1.9.5-3.7.6-1.2-.1-1.6-1.2 0-.3.3-.5zm21.1-10.9q0 .8-.5 1.6l-.4.1q-1-.7-2-2-1.2-1.3-2.4-1.9l.1-.5.5-.1q1 0 2.8 1 1.8.8 2 1.8zm24.7 8.6 8.4-.6h1.4l1.3-.2q1.1.2 1.5 1.3 0 .5-.5.7h-.5l-.8.1h-1.3l-5.5.2q-1.7 0-3 .2-1.4 0-2.4.2v.7q-1.7 1.3-3.3 3.1v.6l-.1 1.3-.1 1.4v4.8l2.4-1.5 2.4-1.4q.9.1 1.1.9-.3.6-2.8 2.7-2.5 2-4 2.6-1.3-.1-1.4-1.3v-.4q.6-1.5.5-3v-2.5l.1-2.5-1.8 1.2-2.8 1.9q-3.5 2.1-4.7 2.4-.4 0-.6-.2l-.1-.7q.6-.9 1.5-1.2 6.5-3.5 11.7-8.9l-4.8.2-4.8.2q-1.1 0-1.3-1.2l.2-.4 6.2-.2 6.1-.4v-2.7l-3.2.2-3.1.1q-1 0-1.2-.8.1-.8 1-.8l3.2-.2 3.3-.2v-2.5l-2.2.1-2.2.1-2-.2q-1.2-.2-1.3-1.2v-.2l.3-.3h7.4v-2l-.1-1.6-.1-.3q.1-.4.5-.8 1 .4 1.3 1.5l.2 2.2v.6l3.8-.4 3.8-.2q1.5-.1 1.7 1.4-.1.6-.8.6-4.3 0-8.5.5v2.4l6.3-.5q1.2.2 1.3 1.4 0 .6-1 .6h-1.2l-5.4.4v2.1zm3.6 7.4 4.3-4.1q.4-.6 1-.8h.3q.5 1 .4 2 0 .2-.2.3l-.9.7-1.5 1q-1 .5-1.6 1l-1 .6q2.2 2.8 5.3 4.4.4.5 1.8.7 1.5.2 1.7.8v.3l-.1.3q-.5.4-1.6.5h-1l-.7.2q-2.2-.7-6.3-5.5-4.2-5-4.7-7 .5-.6 1.4-.4l1.6 2.6 1.8 2.4z" aria-label="页面 2 样式表" style="font-family:AaKaiSong;-inkscape-font-specification:AaKaiSong"/></g><rect width="163.4" height="73.1" x="354.8" y="35.9" ry="22" style="fill:#fefefe;stroke:#666;stroke-width:1.5;stroke-linecap:round;stroke-linejoin:round;paint-order:stroke markers fill;fill-opacity:.25"/><g style="font-size:40px;line-height:1.25;white-space:pre;shape-inside:url(#e);display:inline;fill:#666" transform="translate(251 -78.1)"><path d="m143.5 150.7-.4.3q-1.1-.2-1.4-1.2 0-.3.8-1.3l1-1.5q4.6-6 6.4-13.1 0-1 .6-1.3 1.4.4 1.9 1.9l-.1.2v.2q-1.1 2-2.1 4.7l6.5-.7h.6q.7.6.7 1.4 0 .6-.4 1-3.1.5-6.2.4h-2.3q-1 2.5-2.3 4.6 2 0 4-.3l4-.8.8-.1q1.4.3 1.5 1.8l-.6.7-4.6.3v2.4l.2 2.4q2-.6 4-.6.8 0 1.2.7l.2.8q0 .6-.3 1h-2.6q-1.3 0-2.5.2l-.1 8 2.8-2.2q2-1.7 3-2 .3 0 .6.3v.7q-.3 1.5-3.3 4.1-3 2.6-4.5 3-1.4-.1-1.7-1.4 0-.8.6-1.3l.1-2.3v-6.6l-3.7.6q-1.3 0-2.2-1l.1-.6q.9-.6 1.9-.5 2.2-.1 4-.8l.2-4.8-2.2.3q-1-.2-1.7-.8l-1.8 2.3-.4.4-.3.5zm11.6-.1q.7-1.7 1.9-3 1.1-1.3 2-2.9l1.3-2q2.8-4 4.7-8 .3-.8 1-1 .5 0 1.2.8.7.7.6 1.3l-.1.3q.2.6 1.7 2.7l2 2.8 2 2.9 2.2 2.8 1.7 1.3 1.7 1.2q-.6 1.1-2 1.1-2 0-3-1-.7-1-1.5-2.8-.6-1-1.6-2.2-.5-.4-2.3-3.5l-2.3-4-4.6 7.4q-3.4 5.3-4.5 6l-.6.2h-.2q-.5 0-.8-.4zm14.4 4.5q-3 .1-5.8.5l-2.8.4q-1.6.1-1.9-1.4 0-.5.4-1l3-.2q3.3-.1 6.6-.6l1.3-.2 1.2-.2q1.4.2 2 1.5-.3.8-2.8 4.3l-2 3-1.3 1.7-.8.2 2.5 2q1.4 1 1.6 2.3 0 1-.5 1.7-.9 0-1.3-.5l-4.5-4.1q-3.1-3-3.4-4 .2-.9.9-1.2l1.8 1.4 1.2 1 .8.5 2-3.5 1.8-3.6zm-4.6-11.4q.8 1.1 2 3.3 1.3 2.2 1.4 3.4-.2 1.4-1.6 1.8l-.6-.2q-.2-1.5-1.5-4-1.2-2.3-1.4-3.2.3-1.1 1.5-1.1zm51.5-8.7-.2-2.2q.4-.6 1.2-.7.8 0 1.4 1 .7.8 1 1.5l-.7 1.5-.5 1.5h.7l3.5-.3 3.4-.2q1.6.4 1.8 2v.2q-1.2.5-2.5.4h-3.9q-2.8.1-3.8.4l-1.4 4.2 4.8-.2q2.3-.2 4.6-.7l.8-.1q1.4.5 1.7 2-.2.8-1.7 2.8l-1.9 2.5q-.1.3-.5.3-1-.3-1.3-1.5.4-1.4 1.4-2.9l-1.7-.2h-5.2l-5.2.6q1.2.4 1.5 1.6l-.3 1.2-.3 1.3v.4l.1.3 3-.2 3-.2q.8-.2 1.2-1 .4 0 .7.2l.8.5.6.5.3.7-1 1.2-.4 2-.2 2q.2.9 1 1.7 0 .6-.7 1-2.1-.2-4.2-.1l-4.3.2v4.3q3.5-.1 6.7-.7l-.4-.5-.4-.7-.3-.6-.2-.5q0-.6.4-1h.2q.4 0 .5.4 1 .8 2.7 2.8 1.8 2.1 2 3.6.1 1.6-1.4 2l-.4-.1-1-1.7-.7-1.9-9.2 1.3-9.2 1.4-1.5.3q-2.2 0-2.2-2.1.6-.8 1.5-.9l5.4-.2q3.7-.2 5.1-.6v-4.5l-5.2.2v.6l-.2.6q0 .3-.2.5-.2.3-.4.3-1.8-.5-2-2.4l.1-2.2-.2-3.4-.5-3.3q.4-.6.8-.6 1.2.5 1.6 2l3.2-.2 3.1-.4v-3q0-1-.3-1.8l-11.4.6-.1 1.8-.4 1.8q-.3.4-.5 1.2-.2.8-1 .8-.7 0-1-1.2l-.2-1-.1-.8q1.5-2.8 1.4-6 .1-.8 1-.7.6 0 .8.9l.2 1.3 4.3-.1q3.6-.2 4.4-.6-1.2-1-1.4-2.6 0-.8.3-1.4l-3.9.4q-1.8.2-3.8.2l-1-1v-.8l4.4-.5 4.4-.7-.2-.8v-.8l-.6-2.6v-.2l.7-.6.8.4 1 .5.3 2 .2 2.1 3.5-.3 3.5-.5q0-.7.4-1.4zm-7.4 10.2 2.8-.2 2.6-.4q.8-2.1.8-4.3l-3.2.2-3 .4-.1 1.3v1.3l.1 1.7zm-3.8 13.7 5.4-.5.1-4.3h-3l-2.9.4zm13.8-5.3h-3q-1.4 0-2.9.3v4.2h2.8l2.9-.4V156l.2-1.8z" aria-label="铃 萤" style="font-family:AaKaiSong;-inkscape-font-specification:AaKaiSong;text-align:center;text-anchor:middle"/></g><g style="font-size:32px;line-height:1.25;text-align:center;text-anchor:middle;white-space:pre;shape-inside:url(#f);display:inline;fill:#333" transform="translate(285.8 -153)"><path d="m94 295 .1-.9.3-1 .2-2.2v-4.4l-.1-2.2q-5.8 0-11.5.8l.1 3.5.1 3.4v2.6q0 1.9-.7 2-.6 0-.9-.4-.6-.8-.7-1.5 0-.4.2-.7l.1-.8v-7.4l-.1-3.1v-.3q0-.7 1-.8l.8 2q1.6-.5 3.3-.7l1.4-4.2h-1.1q-4.1 0-8.2 1.1-.8-.4-1-1.2.2-1.1 1.4-1.3l8.1-.3 8.1-.7 2.7-.3 1.5-.1 1-.1q1.6 0 1.7 1.5v.2q-1.6.9-3.5.6l-4.3.1-4.3.3q-.4 2-1.3 4.2 1.6 0 3-.2l3-.3 1.2-.4q1 .3 1.3 1.4v1l-.1.8-.1 1.9v4.3q0 1.9-.2 2.3v.8q-.2.5-.2 1.1-.1 1.2-1 1.4-1-.4-1.3-1.7zm-16.4 7.8q5.6-2 8.7-7.1 1.3-2.1 1.7-4.6v-4.5l.6-.2q1.6.3 1.7 1.9l-.1.7-.1.8-.2 1.5-.2 1.5q0 .5-.2.9-.8 3.3-3.8 6-3 2.9-6.1 4-.7.4-1.4.5-.8 0-.8-.8l.2-.6zm11.3-6 .6-.8q.5 0 1.6.7l2.9 1.5 2.9 1.7 1.6 1 .2 1q0 .6-.3 1.2l-.6.3-3.6-2.4q-1.8-1.2-3.5-2.6l-.8-.7q-.6-.5-.9-.5zm44.9-17.8q-3 0-5.8.2-2.8 0-5.7.3l.5 1-.3.5-.5 1.2-.6 1.1-.3.6v.4l3-.3 2.8-.3 2-.2h2l.6-.8q1.3.2 1.7 1.3 0 .4-.3.6l-.2 1.1v1.2l-.1 3.3-.4 5.1q-.5 6.2-1.6 7.2-.1.2-.4.3-.4 0-.6-.4l-.2-.2-.2-.4-.1-.4-.1-.4-15 .2v.7q.2 1.5-1.1 1.5-1-.8-1.4-2l.3-2.1-.3-8-.5-7.9q.3-.5.9-.6h.1q.7 1 .9 2 3-.4 6.2-.3l.7-2.4.5-2.4q-5.1.2-10.2.8-.7-.4-1-1.3l.2-.4q1-.3 2.8-.4l2.8-.1 5.9-.4q3-.2 5.9-.6l2.5-.3h2.6q1 0 1.4.2.5.3 1 1v.6zm-4.4 20.2q1.2-5.7 1.2-11.6v-2H126v.6q0 6.5-.5 13l2.7-.2q.6 0 1.1.2zM113 286.5q.4 2.2.5 6.5l.2 6.7 3.6-.3v-13.2q-2.2 0-4.3.3zm10.6 12.9v-2.1l.2-2.1q-1.2 0-2.3.2l-2.3.4v3.6zm-4.5-10.2 3.9-.5q.6 0 1 .6l.2-3.3-5.2.2zm0 4.7 2.4-.3 2.3-.3.2-2.6h-2.5l-2.4.2zm32.9-10.7.6-.3.7.5q2.6-2.2 5-4.8h-1.5l-3.7.1-3.6.5-2.1.3-2 .4q-.8-.3-1-1.2.1-.6.7-.7l5.3-.7 5.2-.4 1.6-.2 1.5-.2q1.4-.4 1.6-.6.6 0 1.2.8.6.7.7 1.3-4.2 3.1-8 6.6l1 3q2.2 0 4.3-.3 2.2-.2 4.3-.6l1.4-.1q.4 0 1 .6.7.5.7 1-.1.8-1.2.8h-1.9l-4.2.2-4.1.4.1 3.3q-.2 5.3-1.6 10.5 0 .3-.2.4-.3.3-.7.3-1.1-.2-3.8-2.1-2.8-1.9-3.1-2.8.1-.4.5-.7h.3q.8 0 2.5 1.2 1.8 1 3 1.2 1.1-4 1-8.1v-3.1q-3 0-5.8.3l-5.7.5h-.5q-1.2 0-1.4-1 0-.4.4-.5l3.2-.5 3.3-.3 3-.4 3.2-.2q-.7-2.1-1.1-4.3zm36.2 4.3v2.2l3.6-.3 3.7-.4q1 .3 1.6 1v.6q-.7.4-1.4.3-2.4 0-4.7.2l-4.7.5q.8 1 .4 2.4 2.4 0 4.6-.2 2.3-.2 4.6-.7h.5q.4 0 1 .6l.7 1-.2.3q-1.4.6-4.5.5-3-.1-5.2.2 1.2 1.2 2.5 2.2l2.6 1.9q1.7 1 3.1 1.3l1.6.2 1.8.2v.2l.1.3v.5q-.8.3-2.6.5l-1.5.2h-1q-.9 0-1.9-1l-.9-.9-.6-.7q-1-1.2-2.2-2.2l-2.5-1.9v4.3q0 3.3-.5 4.6-1.8-.6-2-2.6l.1-.6q.7-2 .6-4.2v-1.5q-2.4 2.2-5.4 4l-3.2 1.9-.8.3-.8.4q-.8.6-1.9.7l-.5-.1-.3-.8.7-.5 1-.6 2-1q3.7-2 7-4.8-2 0-3.9.2l-3.7.4h-.9q-1-.3-1.3-1.3 0-.4.3-.5 2-.3 4-.2 2 0 3.9-.2l3.8-.3v-.4l-.2-2-5.4.2v.4q0 .9-.4 1.6l-.3.1q-.6 0-1.1-.8-.4-.7-.5-1.3l.5-2.3.2-7.7-1.3 1-1.6 1.7q-1.8 1.7-2.8 2l-1-.6v-.2l2.4-2.2 2.8-2.8q3-3.3 4.2-5.9h.6l.5 1 .4 1.1-1.2 1.6-1.3 1.5v10.4l3.5-.3 3.5-.5v-2l-2 .2-2 .2q-1.4.1-1.6-1.1v-.4l2.8-.2 2.8-.4v-1.6l-1.8.1q-1 0-1.8.3-1 0-1.4-1 0-.3.2-.5l4.8-.5v-1.6l-2.3.4-2.3.1q-.9 0-1-.8.1-1 1.1-.8 2.7 0 5.3-.7l-.9-2-.4-1-.3-1q.2-.4.6-.6.5.1 1.6 1.5 1 1.4 1.3 2.3l-.2.7 2.6-.3 2.3-.4q1.3.3 1.6 1.5v.1l-1.3.2-1.3.2-4.6.4v1.5l2.4-.3 2.3-.3q1.2.2 1.6 1.4 0 .2-.3.5-.5.3-2.7.3h-2q-.8 0-1.3.2v1.5l2-.2 2.1-.3q1.5 0 2 1.5-.1.4-.5.5zm28.8-5q-1-.2-1.2-1.1.4-.6 2.6-1.9 2.3-1.2 3-1.4.6 0 .7.7 0 2.9-.2 5.7v12.9l.1 2.5q-.4 1.1-1.7 1-1-.1-.9-1.9l.1-2.7V281l-1.3.8-1.2.7z" aria-label="页面子集 1" style="font-family:AaKaiSong;-inkscape-font-specification:AaKaiSong"/></g><g transform="translate(0 173.7)"><rect width="163.4" height="73.1" x="354.8" y="35.9" ry="22" style="fill:#fefefe;stroke:#666;stroke-width:1.5;stroke-linecap:round;stroke-linejoin:round;paint-order:stroke markers fill;fill-opacity:.25"/><g style="font-size:40px;line-height:1.25;white-space:pre;shape-inside:url(#g);display:inline;fill:#666" transform="translate(251 -78.1)"><path d="M167.7 139.7q-1.6.4-3.2.2-1 2.2-3 4 .6.5.7 1.4l-.4 2 .1.8 4.4-.3 4.4-.4 1.2-.2 1.2-.1q1.5.3 1.8 1.7l-.1.4q-2 .9-5.5.6-3.6-.3-5.5.5 3 3.6 6.4 7l2 2.2q3.5 1.8 7 3v.8l-2.8.4h-2.9q-1 .1-2-.6l-1.4-1.8-3.2-4-4.9-6.4v8.8l2.3-.3 2.3-.2q1.4.4 1.5 2-3 1-6.2.7l-.2 4q0 2-.4 4h-.6q-1.7-1-2-3 .1-.7.6-1.5l.1-1.7V162h-2.1q-1.1 0-2.2.3l-1.5.1q-1.5.1-1.9-1.3l.2-.5q.7-.3 3.6-.5l4-.3.2-8.6q-3.3 4.8-6.7 8l-3.7 3q-2.1 1.5-4.7 3-1 .6-2 .6-.9 0-1.1-.8.4-.6 1.2-1 1.8-1 3.5-2.2l3.3-2.5q4.8-3.8 8-8.8l-4 .2-4.3.3q-1.3.2-1.9-1l.8-1q3 0 5.8-.2l5.8-.7v-2l-.4-2q.2-.7 1-2 .8-1 1.1-2-3.1.1-6.1.8l.4.5.7.8q.7.9.8 1.4 0 2-2 2.5l-2.1-5-2.6.1-2.5 3.5q-.4.6-1 .9-.8.7-1.3 1.6-.3.3-.6.3-.8-.1-1-.8.2-.7.8-1.5l1.8-2.4 1.7-2.6q.9-1.2 1.5-2.6l1.2-2.8q.4-1.2 1.4-1.8 1.4.6 1.6 2 0 .7-1 2l-.6 1.2-.5.8 7.5-1.2q1.8.2 2.2 2 2.2-2.4 2.8-5.4v-.4l.4-.8q.2-1 .6-1 1.8 0 2 1.7.2 0 .2.3l-1 1.7-.6 1.2-.4.7q3.2-.3 6.4-1.1l2.8-.6q1.3 0 1.6 1.3l-.3.8-7.2 1.3.5 1 .8 1.2q.8 1.3.9 2-.1 1.3-1.1 2h-.6l-1.2-2.4-1.2-2.6q.1-.7.6-1.1zm27.3 6.2 2.6-.3 2.6-.4v-4.9l-3.3.9q-.8-.1-1.3-.5v-.8q3.2-1 6-2.8.3-.3.7-.3 1.3.3 1.6 1.6l-1.6.9.2 5.6 3.7-.4q0-5-.5-9.8v-.7q0-.5.4-.5 2 .4 2.5 2.5l-.2 2.5-.1 2.4v3.6q1.6-.6 3.4-.6 1.6 0 1.5 1.8-.5.3-1.2.4l-1.2.2h-2.5v.3q.2 3.4 1 6.5l1.2-2.2 1.2-2.2.7-.2.7 1.5.1.3-.1.6-1.9 2.6-1.8 2.6q.4 4.2 2.4 7.8l.5-2.4q.3-1.6.7-2 .8-.3 1.8-.2l4-.4 4.2-.6h.2l.3-.1q1.7.2 2 1.7l-.1.4q-1.2.5-5.5.6l-5.6.2v3.4q-.3 2.8-1.5 3.2-.7-.3-1.4-.9-1-.7-1.6-1.6l-1-2-.8-2.2-.4-2.3q-1.6 2.2-4 3l-.6-.6q.4-1.3 2-2.6 1.7-1.2 2.2-2.6-.3-.8-.7-4.4l-.3-4.9-3.7.5-.2 4q1.2-.8 2.5-1.2h.1q.7.4.8 1-1.5 1.5-3.4 2.5v12.3q-.2 1.7-1.7 2h-.2q-1.3-1-2.4-2.2-1.2-1-2.3-2.3.2-.7.7-1 .3 0 1.7 1l1.8 1q.2-1.6.1-3.1v-6.3q-2 1.7-4.3 2-1-.2-1.7-1.3.6-.8 2.7-1.6 2.2-.8 3.4-1.6v-5l-3.2.5q-1.1 0-2-1v-.9zm29.4 20q2.4-5.3 2.7-11.2h-.7l-4.7.1q-2.3 0-4.7.3l-.3 1.2-.6.2q-1.5-.2-1.8-1.6l.7-3.4v-12.8l.8-.3q.9.2 1.2 1.2l1.3-.2.6-2.7.5-2.7q0-.7.6-1.2.2-.3.5-.3.5 0 1.1.8l.5.6.4.5q0 .4-1 2.3l-1 2.4h.5l2-.2q1.5-.2 2-.6l.6-.4q1.9.5 1.6 2.5l-.2 2.3-.5 2.8q-.7 3.2-1.4 5-.6 1-1.7 1-.8 0-2-1-1.3-1.2-1.7-2l.5-.8h.4l2.6 1.2q1.1-3.5 1.2-7.2v-.7q-3.7-.1-7.2.5.2 5.8 0 11.6h1q4.5 0 8.8-.8l1.7-.4q.7.1 1.3.8v.4l-.8 3.6-.5 2.8-1 4.3q-1.2 5-3 5.6-1-.2-2.6-2.2l-1.4-1.7-.9-1.1q.4-.7 1-1l1.9 1q1.5 1 1.7 1.5zM209 137.5q.6-.6 1.4-.8.7.4 1.8 1.4 1.2 1 1.4 1.7v1l-.5.7q-1.3-.2-2.4-1.5l-1-1.3-.7-1.2zm9.8 4.8q1.1.1 2.2.8 1.2.8 1.3 1.9 0 .7-.5 1.3h-.2q-.9 0-2-1.3-1.2-1.2-1.3-2.1z" aria-label="笨 鹅" style="font-family:AaKaiSong;-inkscape-font-specification:AaKaiSong;text-align:center;text-anchor:middle"/></g><g style="font-size:32px;line-height:1.25;text-align:center;text-anchor:middle;white-space:pre;shape-inside:url(#h);display:inline;fill:#333" transform="translate(285.8 -153)"><path d="m94 295 .1-.9.3-1 .2-2.2v-4.4l-.1-2.2q-5.8 0-11.5.8l.1 3.5.1 3.4v2.6q0 1.9-.7 2-.6 0-.9-.4-.6-.8-.7-1.5 0-.4.2-.7l.1-.8v-7.4l-.1-3.1v-.3q0-.7 1-.8l.8 2q1.6-.5 3.3-.7l1.4-4.2h-1.1q-4.1 0-8.2 1.1-.8-.4-1-1.2.2-1.1 1.4-1.3l8.1-.3 8.1-.7 2.7-.3 1.5-.1 1-.1q1.6 0 1.7 1.5v.2q-1.6.9-3.5.6l-4.3.1-4.3.3q-.4 2-1.3 4.2 1.6 0 3-.2l3-.3 1.2-.4q1 .3 1.3 1.4v1l-.1.8-.1 1.9v4.3q0 1.9-.2 2.3v.8q-.2.5-.2 1.1-.1 1.2-1 1.4-1-.4-1.3-1.7zm-16.4 7.8q5.6-2 8.7-7.1 1.3-2.1 1.7-4.6v-4.5l.6-.2q1.6.3 1.7 1.9l-.1.7-.1.8-.2 1.5-.2 1.5q0 .5-.2.9-.8 3.3-3.8 6-3 2.9-6.1 4-.7.4-1.4.5-.8 0-.8-.8l.2-.6zm11.3-6 .6-.8q.5 0 1.6.7l2.9 1.5 2.9 1.7 1.6 1 .2 1q0 .6-.3 1.2l-.6.3-3.6-2.4q-1.8-1.2-3.5-2.6l-.8-.7q-.6-.5-.9-.5zm44.9-17.8q-3 0-5.8.2-2.8 0-5.7.3l.5 1-.3.5-.5 1.2-.6 1.1-.3.6v.4l3-.3 2.8-.3 2-.2h2l.6-.8q1.3.2 1.7 1.3 0 .4-.3.6l-.2 1.1v1.2l-.1 3.3-.4 5.1q-.5 6.2-1.6 7.2-.1.2-.4.3-.4 0-.6-.4l-.2-.2-.2-.4-.1-.4-.1-.4-15 .2v.7q.2 1.5-1.1 1.5-1-.8-1.4-2l.3-2.1-.3-8-.5-7.9q.3-.5.9-.6h.1q.7 1 .9 2 3-.4 6.2-.3l.7-2.4.5-2.4q-5.1.2-10.2.8-.7-.4-1-1.3l.2-.4q1-.3 2.8-.4l2.8-.1 5.9-.4q3-.2 5.9-.6l2.5-.3h2.6q1 0 1.4.2.5.3 1 1v.6zm-4.4 20.2q1.2-5.7 1.2-11.6v-2H126v.6q0 6.5-.5 13l2.7-.2q.6 0 1.1.2zM113 286.5q.4 2.2.5 6.5l.2 6.7 3.6-.3v-13.2q-2.2 0-4.3.3zm10.6 12.9v-2.1l.2-2.1q-1.2 0-2.3.2l-2.3.4v3.6zm-4.5-10.2 3.9-.5q.6 0 1 .6l.2-3.3-5.2.2zm0 4.7 2.4-.3 2.3-.3.2-2.6h-2.5l-2.4.2zm32.9-10.7.6-.3.7.5q2.6-2.2 5-4.8h-1.5l-3.7.1-3.6.5-2.1.3-2 .4q-.8-.3-1-1.2.1-.6.7-.7l5.3-.7 5.2-.4 1.6-.2 1.5-.2q1.4-.4 1.6-.6.6 0 1.2.8.6.7.7 1.3-4.2 3.1-8 6.6l1 3q2.2 0 4.3-.3 2.2-.2 4.3-.6l1.4-.1q.4 0 1 .6.7.5.7 1-.1.8-1.2.8h-1.9l-4.2.2-4.1.4.1 3.3q-.2 5.3-1.6 10.5 0 .3-.2.4-.3.3-.7.3-1.1-.2-3.8-2.1-2.8-1.9-3.1-2.8.1-.4.5-.7h.3q.8 0 2.5 1.2 1.8 1 3 1.2 1.1-4 1-8.1v-3.1q-3 0-5.8.3l-5.7.5h-.5q-1.2 0-1.4-1 0-.4.4-.5l3.2-.5 3.3-.3 3-.4 3.2-.2q-.7-2.1-1.1-4.3zm36.2 4.3v2.2l3.6-.3 3.7-.4q1 .3 1.6 1v.6q-.7.4-1.4.3-2.4 0-4.7.2l-4.7.5q.8 1 .4 2.4 2.4 0 4.6-.2 2.3-.2 4.6-.7h.5q.4 0 1 .6l.7 1-.2.3q-1.4.6-4.5.5-3-.1-5.2.2 1.2 1.2 2.5 2.2l2.6 1.9q1.7 1 3.1 1.3l1.6.2 1.8.2v.2l.1.3v.5q-.8.3-2.6.5l-1.5.2h-1q-.9 0-1.9-1l-.9-.9-.6-.7q-1-1.2-2.2-2.2l-2.5-1.9v4.3q0 3.3-.5 4.6-1.8-.6-2-2.6l.1-.6q.7-2 .6-4.2v-1.5q-2.4 2.2-5.4 4l-3.2 1.9-.8.3-.8.4q-.8.6-1.9.7l-.5-.1-.3-.8.7-.5 1-.6 2-1q3.7-2 7-4.8-2 0-3.9.2l-3.7.4h-.9q-1-.3-1.3-1.3 0-.4.3-.5 2-.3 4-.2 2 0 3.9-.2l3.8-.3v-.4l-.2-2-5.4.2v.4q0 .9-.4 1.6l-.3.1q-.6 0-1.1-.8-.4-.7-.5-1.3l.5-2.3.2-7.7-1.3 1-1.6 1.7q-1.8 1.7-2.8 2l-1-.6v-.2l2.4-2.2 2.8-2.8q3-3.3 4.2-5.9h.6l.5 1 .4 1.1-1.2 1.6-1.3 1.5v10.4l3.5-.3 3.5-.5v-2l-2 .2-2 .2q-1.4.1-1.6-1.1v-.4l2.8-.2 2.8-.4v-1.6l-1.8.1q-1 0-1.8.3-1 0-1.4-1 0-.3.2-.5l4.8-.5v-1.6l-2.3.4-2.3.1q-.9 0-1-.8.1-1 1.1-.8 2.7 0 5.3-.7l-.9-2-.4-1-.3-1q.2-.4.6-.6.5.1 1.6 1.5 1 1.4 1.3 2.3l-.2.7 2.6-.3 2.3-.4q1.3.3 1.6 1.5v.1l-1.3.2-1.3.2-4.6.4v1.5l2.4-.3 2.3-.3q1.2.2 1.6 1.4 0 .2-.3.5-.5.3-2.7.3h-2q-.8 0-1.3.2v1.5l2-.2 2.1-.3q1.5 0 2 1.5-.1.4-.5.5zm25.2-6q.2-1.4 2.2-2.4t3.4-1q5.5.3 5.4 5.9-.2 3.9-3 7.8-2.7 3.8-5.3 6.7h8.4q.7-.1.9.5 0 1.7-1.6 1.5h-10.6q-.6-.2-.6-1 .6-1.3 4.7-5.9 4.1-4.6 4.7-9.5 0-1.5-.6-2.8-.6-1.3-2.4-1.3-1.6.1-2.8 1.4-1.2 1.2-1.6 1.4-1-.3-1.2-1.3z" aria-label="页面子集 2" style="font-family:AaKaiSong;-inkscape-font-specification:AaKaiSong"/></g></g></svg>