<svg xmlns="http://www.w3.org/2000/svg" width="2229.5" height="222.56" version="1.2"><path fill="none" stroke="#000" stroke-linejoin="bevel" stroke-width="2.73" d="M0 35.92h2229.5M0 60.72h2229.5M0 85.52h2229.5M0 110.32h2229.5M0 135.12h2229.5" class="StaffLines"/><path fill="none" stroke="#000" stroke-linejoin="bevel" stroke-width="4.46" d="M1175.35 34.56v101.92" class="BarLine"/><path d="M2193.08 73.12a5.2 5.2 0 0 0-5.16-5.26 5.2 5.2 0 0 0-5.16 5.26 5.2 5.2 0 0 0 5.16 5.26 5.2 5.2 0 0 0 5.16-5.26m0 24.8a5.2 5.2 0 0 0-5.16-5.26 5.2 5.2 0 0 0-5.16 5.26 5.2 5.2 0 0 0 5.16 5.26 5.2 5.2 0 0 0 5.16-5.26" class="BarLine" style="stroke-width:.992001"/><path fill="none" stroke="#000" stroke-linejoin="bevel" stroke-width="4.46" d="M2205.27 34.56v101.92" class="BarLine"/><path fill="none" stroke="#000" stroke-linejoin="bevel" stroke-width="13.64" d="M2222.63 34.56v101.92" class="BarLine"/><path fill="none" stroke="#000" stroke-linejoin="bevel" stroke-width="3.97" d="M200.2 159.92h49.58m57.25 0h49.6m57.25 0h49.6m57.24 0h49.6m57.25 0h49.6m17.17 0h49.6m17.18 0h49.6m17.18 0h49.6m17.18 0h49.6m17.17 0h49.6m17.18 0h49.6m17.18 0h49.6m65.21 0h49.6m57.25 0h49.6m57.24 0h49.6m57.25 0h49.6m57.24 0h49.6m17.18 0h49.6m17.18 0h49.6m17.17 0h49.6m17.18 0h49.6m17.19 0h49.58m17.19 0h49.6m17.17 0h49.6" class="LedgerLine"/><path fill="none" stroke="#000" stroke-linejoin="bevel" stroke-width="2.73" d="M239.74 156.74V85.52m106.84 71.22V85.52m106.85 71.22V85.52m106.84 71.22V85.52m106.84 71.22V85.52m66.79 71.22V85.52m66.77 71.22V85.52m66.78 71.22V85.52m66.77 71.22V85.52m66.78 71.22V85.52m66.78 71.22V85.52m66.78 71.22V85.52m114.81 71.22V85.52m106.85 71.22V85.52m106.84 71.22V85.52m106.85 71.22V85.52m106.84 71.22V85.52m66.78 71.22V85.52m66.77 71.22V85.52m66.78 71.22V85.52m66.78 71.22V85.52m66.78 71.22V85.52m66.77 71.22V85.52m66.79 71.22V85.52" class="Stem"/><path d="M240.12 151.89c-1.79-3.28-5.56-5.06-10.12-5.06-3.37 0-7.04.99-10.61 2.87-6.55 3.47-10.52 9.33-10.52 14.39 0 1.39.3 2.77 1 4.06 1.78 3.28 5.55 4.96 10.11 4.96 3.37 0 7.04-.89 10.62-2.77 6.54-3.48 10.51-9.33 10.51-14.39a8.5 8.5 0 0 0-1-4.06m106.85 0c-1.78-3.28-5.55-5.06-10.12-5.06-3.37 0-7.04.99-10.61 2.87-6.55 3.47-10.52 9.33-10.52 14.39 0 1.39.3 2.77 1 4.06 1.78 3.28 5.55 4.96 10.12 4.96 3.37 0 7.04-.89 10.61-2.77 6.55-3.48 10.52-9.33 10.52-14.39a8.5 8.5 0 0 0-1-4.06m106.84 0c-1.78-3.28-5.55-5.06-10.11-5.06-3.37 0-7.04.99-10.62 2.87-6.54 3.47-10.51 9.33-10.51 14.39 0 1.39.3 2.77 1 4.06 1.78 3.28 5.55 4.96 10.1 4.96 3.38 0 7.05-.89 10.62-2.77 6.55-3.48 10.52-9.33 10.52-14.39a8.5 8.5 0 0 0-1-4.06m106.85 0c-1.78-3.28-5.55-5.06-10.12-5.06-3.37 0-7.04.99-10.61 2.87-6.55 3.47-10.52 9.33-10.52 14.39 0 1.39.3 2.77 1 4.06 1.78 3.28 5.55 4.96 10.11 4.96 3.38 0 7.05-.89 10.62-2.77 6.55-3.48 10.51-9.33 10.51-14.39a8.5 8.5 0 0 0-.99-4.06m106.85 0c-1.8-3.28-5.56-5.06-10.12-5.06-3.38 0-7.05.99-10.62 2.87-6.55 3.47-10.51 9.33-10.51 14.39 0 1.39.3 2.77.99 4.06 1.78 3.28 5.55 4.96 10.12 4.96 3.37 0 7.04-.89 10.61-2.77 6.55-3.48 10.52-9.33 10.52-14.39a8.5 8.5 0 0 0-1-4.06m66.78 0c-1.78-3.28-5.55-5.06-10.12-5.06-3.37 0-7.04.99-10.61 2.87-6.55 3.47-10.52 9.33-10.52 14.39 0 1.39.3 2.77 1 4.06 1.78 3.28 5.55 4.96 10.12 4.96 3.37 0 7.04-.89 10.61-2.77 6.55-3.48 10.52-9.33 10.52-14.39a8.5 8.5 0 0 0-1-4.06m66.78 0c-1.79-3.28-5.56-5.06-10.12-5.06-3.37 0-7.04.99-10.61 2.87-6.55 3.47-10.52 9.33-10.52 14.39 0 1.39.3 2.77 1 4.06 1.78 3.28 5.55 4.96 10.11 4.96 3.38 0 7.05-.89 10.62-2.77 6.54-3.48 10.51-9.33 10.51-14.39a8.5 8.5 0 0 0-.99-4.06m66.78 0c-1.79-3.28-5.56-5.06-10.12-5.06-3.37 0-7.04.99-10.61 2.87-6.55 3.47-10.52 9.33-10.52 14.39 0 1.39.3 2.77 1 4.06 1.78 3.28 5.55 4.96 10.11 4.96 3.38 0 7.05-.89 10.62-2.77 6.54-3.48 10.51-9.33 10.51-14.39a8.5 8.5 0 0 0-.99-4.06m66.78 0c-1.79-3.28-5.56-5.06-10.12-5.06-3.37 0-7.04.99-10.61 2.87-6.55 3.47-10.52 9.33-10.52 14.39 0 1.39.3 2.77 1 4.06 1.78 3.28 5.55 4.96 10.11 4.96 3.38 0 7.05-.89 10.62-2.77 6.54-3.48 10.51-9.33 10.51-14.39a8.5 8.5 0 0 0-.99-4.06m66.77 0c-1.79-3.28-5.56-5.06-10.12-5.06-3.37 0-7.04.99-10.61 2.87-6.55 3.47-10.52 9.33-10.52 14.39 0 1.39.3 2.77 1 4.06 1.78 3.28 5.55 4.96 10.11 4.96 3.38 0 7.05-.89 10.62-2.77 6.54-3.48 10.51-9.33 10.51-14.39a8.5 8.5 0 0 0-.99-4.06m66.78 0c-1.79-3.28-5.56-5.06-10.12-5.06-3.37 0-7.04.99-10.61 2.87-6.55 3.47-10.52 9.33-10.52 14.39 0 1.39.3 2.77 1 4.06 1.78 3.28 5.55 4.96 10.11 4.96 3.38 0 7.05-.89 10.62-2.77 6.54-3.48 10.51-9.33 10.51-14.39a8.5 8.5 0 0 0-.99-4.06m66.78 0c-1.79-3.28-5.56-5.06-10.12-5.06-3.37 0-7.04.99-10.61 2.87-6.55 3.47-10.52 9.33-10.52 14.39 0 1.39.3 2.77 1 4.06 1.78 3.28 5.55 4.96 10.11 4.96 3.38 0 7.05-.89 10.62-2.77 6.54-3.48 10.51-9.33 10.51-14.39a8.5 8.5 0 0 0-.99-4.06m114.81 0c-1.79-3.28-5.56-5.06-10.12-5.06-3.37 0-7.04.99-10.61 2.87-6.55 3.47-10.52 9.33-10.52 14.39 0 1.39.3 2.77 1 4.06 1.78 3.28 5.55 4.96 10.11 4.96 3.38 0 7.05-.89 10.62-2.77 6.54-3.48 10.51-9.33 10.51-14.39a8.5 8.5 0 0 0-.99-4.06m106.85 0c-1.79-3.28-5.56-5.06-10.12-5.06-3.37 0-7.04.99-10.61 2.87-6.55 3.47-10.52 9.33-10.52 14.39 0 1.39.3 2.77 1 4.06 1.78 3.28 5.55 4.96 10.11 4.96 3.38 0 7.05-.89 10.62-2.77 6.54-3.48 10.51-9.33 10.51-14.39a8.5 8.5 0 0 0-.99-4.06m106.84 0c-1.79-3.28-5.56-5.06-10.12-5.06-3.37 0-7.04.99-10.61 2.87-6.55 3.47-10.52 9.33-10.52 14.39 0 1.39.3 2.77 1 4.06 1.78 3.28 5.55 4.96 10.11 4.96 3.38 0 7.05-.89 10.62-2.77 6.54-3.48 10.51-9.33 10.51-14.39a8.5 8.5 0 0 0-.99-4.06m106.85 0c-1.79-3.28-5.56-5.06-10.12-5.06-3.37 0-7.04.99-10.61 2.87-6.55 3.47-10.52 9.33-10.52 14.39 0 1.39.3 2.77 1 4.06 1.78 3.28 5.55 4.96 10.11 4.96 3.38 0 7.05-.89 10.62-2.77 6.54-3.48 10.51-9.33 10.51-14.39a8.5 8.5 0 0 0-.99-4.06m106.84 0c-1.79-3.28-5.56-5.06-10.12-5.06-3.37 0-7.04.99-10.61 2.87-6.55 3.47-10.52 9.33-10.52 14.39 0 1.39.3 2.77 1 4.06 1.78 3.28 5.55 4.96 10.11 4.96 3.38 0 7.05-.89 10.62-2.77 6.54-3.48 10.51-9.33 10.51-14.39a8.5 8.5 0 0 0-.99-4.06m66.78 0c-1.79-3.28-5.56-5.06-10.12-5.06-3.37 0-7.04.99-10.61 2.87-6.55 3.47-10.52 9.33-10.52 14.39 0 1.39.3 2.77 1 4.06 1.78 3.28 5.55 4.96 10.11 4.96 3.38 0 7.05-.89 10.62-2.77 6.54-3.48 10.51-9.33 10.51-14.39a8.5 8.5 0 0 0-.99-4.06m66.78 0c-1.79-3.28-5.56-5.06-10.12-5.06-3.37 0-7.04.99-10.61 2.87-6.55 3.47-10.52 9.33-10.52 14.39 0 1.39.3 2.77 1 4.06 1.78 3.28 5.55 4.96 10.11 4.96 3.38 0 7.05-.89 10.62-2.77 6.54-3.48 10.51-9.33 10.51-14.39a8.5 8.5 0 0 0-.99-4.06m66.77 0c-1.79-3.28-5.56-5.06-10.12-5.06-3.37 0-7.04.99-10.61 2.87-6.55 3.47-10.52 9.33-10.52 14.39 0 1.39.3 2.77 1 4.06 1.78 3.28 5.55 4.96 10.11 4.96 3.38 0 7.05-.89 10.62-2.77 6.54-3.48 10.51-9.33 10.51-14.39a8.5 8.5 0 0 0-.99-4.06m66.78 0c-1.79-3.28-5.56-5.06-10.12-5.06-3.37 0-7.04.99-10.61 2.87-6.55 3.47-10.52 9.33-10.52 14.39 0 1.39.3 2.77 1 4.06 1.78 3.28 5.55 4.96 10.11 4.96 3.38 0 7.05-.89 10.62-2.77 6.54-3.48 10.51-9.33 10.51-14.39a8.5 8.5 0 0 0-.99-4.06m66.78 0c-1.79-3.28-5.56-5.06-10.12-5.06-3.37 0-7.04.99-10.61 2.87-6.55 3.47-10.52 9.33-10.52 14.39 0 1.39.3 2.77 1 4.06 1.78 3.28 5.55 4.96 10.11 4.96 3.38 0 7.05-.89 10.62-2.77 6.54-3.48 10.51-9.33 10.51-14.39a8.5 8.5 0 0 0-.99-4.06m66.78 0c-1.79-3.28-5.56-5.06-10.12-5.06-3.37 0-7.04.99-10.61 2.87-6.55 3.47-10.52 9.33-10.52 14.39 0 1.39.3 2.77 1 4.06 1.78 3.28 5.55 4.96 10.11 4.96 3.38 0 7.05-.89 10.62-2.77 6.54-3.48 10.51-9.33 10.51-14.39a8.5 8.5 0 0 0-.99-4.06m66.77 0c-1.79-3.28-5.56-5.06-10.12-5.06-3.37 0-7.04.99-10.61 2.87-6.55 3.47-10.52 9.33-10.52 14.39 0 1.39.3 2.77 1 4.06 1.78 3.28 5.55 4.96 10.11 4.96 3.38 0 7.05-.89 10.62-2.77 6.54-3.48 10.51-9.33 10.51-14.39a8.5 8.5 0 0 0-.99-4.06" class="Note" style="stroke-width:.992001"/><path d="M82.68 104.5a28.14 28.14 0 0 0-4.61-10.21 22.23 22.23 0 0 0-20.26-9.22c-1.03-5.96-2.02-11.8-2.92-17.2 5.4-6.12 9-11.87 11.26-16.14 3.44-6.52 4.58-11.07 4.63-11.27 1.7-5.16 2.06-12.8.97-20.95-1-7.49-3.07-14.14-5.4-17.37C65.32.72 64.28 0 63.25 0c-1.21 0-3.7 1.23-6.57 3.98a36.12 36.12 0 0 0-8.06 12c-2.98 7-3.19 16.42-2.84 23.09a102.5 102.5 0 0 0 1.49 12.9l.72 4.13-.71.68c-1.03 1-2.21 2.13-3.58 3.5-.86.85-1.8 1.75-2.79 2.71-8.38 8.08-21.07 20.3-21.07 39.3 0 4.66.9 9.04 2.66 13.02a31.15 31.15 0 0 0 6.76 9.67c7.67 7.5 18.18 10.68 25.18 10.52 2.93-.07 5.54-.31 7.9-.76 1.82 9.53 2.95 16.5 3 21.8.03 6.46-1.6 10.4-5.47 13.14a15.3 15.3 0 0 1-8.28 2.8c-2.57.13-4.8-.34-6.23-.74 0 0-.3-.08-.3-.28-.01-.18.33-.23.34-.23h.02c1.9-.44 5.45-1.66 7.8-4.93 1.78-2.5 2.64-7.08.81-11-1.1-2.36-3.59-5.29-9.16-5.74a11.04 11.04 0 0 0-11.03 6.18c-2.44 4.67-1.99 10.35 1.12 14.16 2.93 3.6 7.52 5.88 12.9 6.46a23.62 23.62 0 0 0 14.83-3.25c3.64-2.56 5.74-6.5 6.41-12.09.56-4.6.17-10.46-1.22-18.47-.35-2.07-.89-5.08-1.55-8.8 5.7-1.91 9.84-5.45 13.58-11.26a24.33 24.33 0 0 0 2.77-18m-33.93 25.99c-4.6-1.21-9-3.7-12.73-7.16a20.19 20.19 0 0 1-4.61-6.74 24.37 24.37 0 0 1-1.97-10.1c.07-4.65 1.37-9.43 3.86-14.18 2.9-5.54 7.42-11.03 13.43-16.31a95.65 95.65 0 0 0 4.08-3.81l2.45 13.72a21.2 21.2 0 0 0-11.62 9.99c-3.5 6.51-3.37 11.99-2.64 15.44.93 4.43 3.44 8.16 6.87 10.23.92.56 5.02 2.67 6.84 2.1.37-.13.64-.34.78-.67.5-1.16-.5-1.8-2.05-2.75-.6-.37-1.26-.78-1.99-1.3-3.3-2.48-4.73-6.9-3.67-11.24a12.4 12.4 0 0 1 3.67-6.2 14.13 14.13 0 0 1 6.04-3.27c2.03 11.15 4.07 22.2 5.7 30.5l.4 2.02c-4.35.92-8.67.83-12.84-.27m11.23-32.92c10.26-.46 14.5 6.92 15.38 11.7.47 2.52.46 6.92-1.07 11.1-1.16 3.15-3.6 7.2-8.69 9.24l-.23-1.27c-1.52-8.7-3.45-19.6-5.4-30.77M52.72 27.2c1.77-5.7 4.49-8.92 6.46-10.63 1.74-1.51 3.38-2.22 4.29-2.22.14 0 .26.02.36.05.45.14.98.7 1.44 1.57 2.3 4.26 1.56 10.91.23 15.32-1.62 5.35-4.51 10.93-13.24 20.46l-.48-3.11c-1.24-8.23-.92-15.44.94-21.44" class="Clef" style="stroke-width:.992001"/><path d="M110.31 73.4h17.04v7.36h-8.16c-.77 0-1.4.63-1.4 1.4v1.9c0 .77.63 1.4 1.4 1.4h30c.78 0 1.4-.63 1.4-1.4v-1.9c0-.77-.62-1.4-1.4-1.4h-8.86V73.4h8.87c.77 0 1.4-.62 1.4-1.4v-1.9c0-.77-.63-1.4-1.4-1.4h-8.87V52.89c0-.54-.3-1.02-.78-1.25l-1.2-.6a1.4 1.4 0 0 0-1.57.23l-8.98 8.25a1.4 1.4 0 0 0-.46 1.03v8.17h-11.41s11.03-11.94 22.77-27.58c.86-1.14.37-2.18.18-2.37l-2.15-2.2c-.27-.25-.63-.4-1-.4-.59 0-14.03.02-14.75 0-.71-.02-1.25.6-1.32 1.21 0 0-.53 7.3-3.11 15.37-2.58 8.05-5.5 13-8.13 16.6 0 0-.54.98-.18 1.7a30 30 0 0 0 .97 1.83s.26.53 1.1.53m0 49.33h17.04v7.36h-8.16c-.77 0-1.4.62-1.4 1.4v1.9c0 .77.63 1.39 1.4 1.39h30c.78 0 1.4-.62 1.4-1.4v-1.9c0-.77-.62-1.4-1.4-1.4h-8.86v-7.35h8.87c.77 0 1.4-.63 1.4-1.4v-1.9c0-.77-.63-1.4-1.4-1.4h-8.87v-15.83c0-.53-.3-1-.78-1.25l-1.2-.6a1.4 1.4 0 0 0-1.57.24l-8.98 8.25a1.4 1.4 0 0 0-.46 1.03v8.17h-11.41s11.03-11.94 22.77-27.58c.86-1.14.37-2.18.18-2.37l-2.15-2.2c-.27-.25-.63-.4-1-.4-.59 0-14.03.02-14.75 0-.71-.02-1.25.6-1.32 1.2 0 0-.53 7.3-3.11 15.37-2.58 8.06-5.5 13-8.13 16.6 0 0-.54.98-.18 1.72a30 30 0 0 0 .97 1.82s.26.53 1.1.53" class="TimeSig" style="stroke-width:.992001"/><path fill-rule="evenodd" d="M238.38 79.32h109.57v12.4H238.38v-12.4m213.68 0h109.57v12.4H452.06v-12.4m213.69 0h203.06v12.4H665.75v-12.4m0 18.6h203.06v12.4H665.75v-12.4m267.11-18.6h203.06v12.4H932.86v-12.4m0 18.6h203.06v12.4H932.86v-12.4m315.15-18.6h109.57v12.4h-109.57v-12.4m213.69 0h109.57v12.4H1461.7v-12.4m213.7 0h203.05v12.4H1675.4v-12.4m0 18.6h203.05v12.4H1675.4v-12.4m267.1-18.6h203.06v12.4H1942.5v-12.4m0 18.6h203.06v12.4H1942.5v-12.4" class="Beam"/><path d="M239.42 208.1h-2.2c-1.65 9-3.9 11.2-11.65 11.36h-2.1c-3-.1-3.75-.6-3.6-2.4v-25.2c0-2.5 0-2.65.3-3.1.4-.5 1.35-.65 4.2-.7h.9v-2.35h-16.4v2.35h.9c2.85.05 3.8.2 4.2.7.3.45.3.55.3 3.1v23.8c0 2.55 0 2.65-.3 3.1-.4.5-1.35.7-4.2.7h-.9v2.35h29.5l1.05-13.7m106.84-.01h-2.2c-1.65 9-3.9 11.2-11.65 11.36h-2.1c-3-.1-3.75-.6-3.6-2.4v-25.2c0-2.5 0-2.65.3-3.1.4-.5 1.35-.65 4.2-.7h.9v-2.35h-16.4v2.35h.9c2.85.05 3.8.2 4.2.7.3.45.3.55.3 3.1v23.8c0 2.55 0 2.65-.3 3.1-.4.5-1.35.7-4.2.7h-.9v2.35h29.5l1.05-13.7m106.84-.01h-2.2c-1.64 9-3.9 11.2-11.64 11.36h-2.1c-3-.1-3.75-.6-3.6-2.4v-25.2c0-2.5 0-2.65.3-3.1.4-.5 1.35-.65 4.2-.7h.9v-2.35h-16.4v2.35h.9c2.85.05 3.8.2 4.2.7.3.45.3.55.3 3.1v23.8c0 2.55 0 2.65-.3 3.1-.4.5-1.35.7-4.2.7h-.9v2.35h29.5l1.05-13.7m106.84-.01h-2.2c-1.65 9-3.9 11.2-11.65 11.36H544c-3-.1-3.75-.6-3.6-2.4v-25.2c0-2.5 0-2.65.3-3.1.4-.5 1.35-.65 4.2-.7h.9v-2.35h-16.4v2.35h.9c2.85.05 3.8.2 4.2.7.3.45.3.55.3 3.1v23.8c0 2.55 0 2.65-.3 3.1-.4.5-1.35.7-4.2.7h-.9v2.35h29.5l1.05-13.7m87.3-3.81h2.9c5.05.2 7.05 2.26 7.6 7.76l.25 2.55c.6 5.65 2.45 7.95 6.4 7.95 4.1 0 6.05-2.75 6.2-8.75h-2.1c-.2 3.45-.8 4.95-2.15 4.95-1.15 0-1.65-.85-2.5-4.3l-.8-3.15c-1.1-4.6-3.05-6.7-6.95-7.7 7.2-1 10.65-3.9 10.65-8.95 0-5.7-4.8-8.95-13.2-8.95h-17.3v2.35h.9c2.85.05 3.8.2 4.2.7.3.45.3.55.3 3.1v23.85c0 2.5 0 2.6-.3 3.1-.4.5-1.35.65-4.2.65h-.9v2.35h16.4v-2.35h-.9c-2.85 0-3.8-.15-4.2-.65-.3-.5-.3-.6-.3-3.1v-11.4m0-2.35v-11c-.1-2.75.15-2.95 3.45-2.9h2.7c4.95 0 7.2 2.1 7.2 6.65 0 2.55-.65 4.5-1.95 5.55-1.25 1.05-3.5 1.7-5.9 1.7h-5.5m86.33 6.14h-2.2c-1.65 9-3.9 11.2-11.65 11.36h-2.1c-3-.1-3.75-.6-3.6-2.4v-25.2c0-2.5 0-2.65.3-3.1.4-.5 1.34-.65 4.2-.7h.9v-2.35h-16.4v2.35h.9c2.85.05 3.8.2 4.2.7.3.45.3.55.3 3.1v23.8c0 2.55 0 2.65-.3 3.1-.4.5-1.35.7-4.2.7h-.9v2.35h29.5l1.05-13.7m47.22-3.81h2.9c5.05.2 7.05 2.26 7.6 7.76l.25 2.55c.6 5.65 2.45 7.95 6.4 7.95 4.1 0 6.05-2.75 6.2-8.75h-2.1c-.2 3.45-.8 4.95-2.15 4.95-1.15 0-1.65-.85-2.5-4.3l-.8-3.15c-1.1-4.6-3.05-6.7-6.95-7.7 7.2-1 10.65-3.9 10.65-8.95 0-5.7-4.8-8.95-13.2-8.95h-17.3v2.35h.9c2.85.05 3.8.2 4.2.7.3.45.3.55.3 3.1v23.85c0 2.5 0 2.6-.3 3.1-.4.5-1.35.65-4.2.65h-.9v2.35h16.4v-2.35h-.9c-2.85 0-3.8-.15-4.2-.65-.3-.5-.3-.6-.3-3.1v-11.4m0-2.35v-11c-.1-2.75.15-2.95 3.45-2.9h2.7c4.95 0 7.2 2.1 7.2 6.65 0 2.55-.65 4.5-1.95 5.55-1.25 1.05-3.5 1.7-5.9 1.7h-5.5m86.33 6.14h-2.2c-1.65 9-3.9 11.2-11.65 11.36h-2.1c-3-.1-3.75-.6-3.6-2.4v-25.2c0-2.5 0-2.65.3-3.1.4-.5 1.35-.65 4.2-.7h.9v-2.35h-16.4v2.35h.9c2.85.05 3.8.2 4.2.7.3.45.3.55.3 3.1v23.8c0 2.55 0 2.65-.3 3.1-.4.5-1.35.7-4.2.7h-.9v2.35h29.5l1.05-13.7m47.23-3.81h2.9c5.05.2 7.05 2.26 7.6 7.76l.25 2.55c.6 5.65 2.45 7.95 6.4 7.95 4.1 0 6.05-2.75 6.2-8.75h-2.1c-.2 3.45-.8 4.95-2.15 4.95-1.15 0-1.65-.85-2.5-4.3l-.8-3.15c-1.1-4.6-3.05-6.7-6.95-7.7 7.2-1 10.65-3.9 10.65-8.95 0-5.7-4.8-8.95-13.2-8.95h-17.3v2.35h.9c2.85.05 3.8.2 4.2.7.3.45.3.55.3 3.1v23.85c0 2.5 0 2.6-.3 3.1-.4.5-1.35.65-4.2.65h-.9v2.35h16.4v-2.35h-.9c-2.85 0-3.8-.15-4.2-.65-.3-.5-.3-.6-.3-3.1v-11.4m0-2.35v-11c-.1-2.75.15-2.95 3.45-2.9h2.7c4.95 0 7.2 2.1 7.2 6.65 0 2.55-.65 4.5-1.95 5.55-1.25 1.05-3.5 1.7-5.9 1.7h-5.5m86.32 6.14h-2.2c-1.65 9-3.9 11.2-11.65 11.36h-2.1c-3-.1-3.75-.6-3.6-2.4v-25.2c0-2.5 0-2.65.3-3.1.4-.5 1.35-.65 4.2-.7h.9v-2.35h-16.4v2.35h.9c2.85.05 3.8.2 4.2.7.3.45.3.55.3 3.1v23.8c0 2.55 0 2.65-.3 3.1-.4.5-1.35.7-4.2.7h-.9v2.35h29.5l1.05-13.7m47.23-3.81h2.9c5.05.2 7.05 2.26 7.6 7.76l.25 2.55c.6 5.65 2.45 7.95 6.4 7.95 4.1 0 6.05-2.75 6.2-8.75h-2.1c-.2 3.45-.8 4.95-2.15 4.95-1.15 0-1.65-.85-2.5-4.3l-.8-3.15c-1.1-4.6-3.05-6.7-6.95-7.7 7.2-1 10.65-3.9 10.65-8.95 0-5.7-4.8-8.95-13.2-8.95h-17.3v2.35h.9c2.85.05 3.8.2 4.2.7.3.45.3.55.3 3.1v23.85c0 2.5 0 2.6-.3 3.1-.4.5-1.35.65-4.2.65h-.9v2.35h16.4v-2.35h-.9c-2.85 0-3.8-.15-4.2-.65-.3-.5-.3-.6-.3-3.1v-11.4m0-2.35v-11c-.1-2.75.15-2.95 3.45-2.9h2.7c4.95 0 7.2 2.1 7.2 6.65 0 2.55-.65 4.5-1.95 5.55-1.25 1.05-3.5 1.7-5.9 1.7h-5.5m86.33 6.14h-2.2c-1.65 9-3.9 11.2-11.65 11.36h-2.1c-3-.1-3.75-.6-3.6-2.4v-25.2c0-2.5 0-2.65.3-3.1.4-.5 1.35-.65 4.2-.7h.9v-2.35h-16.4v2.35h.9c2.85.05 3.8.2 4.2.7.3.45.3.55.3 3.1v23.8c0 2.55 0 2.65-.3 3.1-.4.5-1.35.7-4.2.7h-.9v2.35h29.5l1.05-13.7m95.27-3.81h2.9c5.05.2 7.05 2.26 7.6 7.76l.25 2.55c.6 5.65 2.45 7.95 6.4 7.95 4.1 0 6.05-2.75 6.2-8.75h-2.1c-.2 3.45-.8 4.95-2.15 4.95-1.15 0-1.65-.85-2.5-4.3l-.8-3.15c-1.1-4.6-3.05-6.7-6.95-7.7 7.2-1 10.65-3.9 10.65-8.95 0-5.7-4.8-8.95-13.2-8.95h-17.3v2.35h.9c2.85.05 3.8.2 4.2.7.3.45.3.55.3 3.1v23.85c0 2.5 0 2.6-.3 3.1-.4.5-1.35.65-4.2.65h-.9v2.35h16.4v-2.35h-.9c-2.85 0-3.8-.15-4.2-.65-.3-.5-.3-.6-.3-3.1v-11.4m0-2.35v-11c-.1-2.75.15-2.95 3.45-2.9h2.7c4.95 0 7.2 2.1 7.2 6.65 0 2.55-.65 4.5-1.95 5.55-1.25 1.05-3.5 1.7-5.9 1.7h-5.5m106.84 2.34h2.9c5.05.2 7.05 2.26 7.6 7.76l.25 2.55c.6 5.65 2.45 7.95 6.4 7.95 4.1 0 6.05-2.75 6.2-8.75h-2.1c-.2 3.45-.8 4.95-2.15 4.95-1.15 0-1.65-.85-2.5-4.3l-.8-3.15c-1.1-4.6-3.05-6.7-6.95-7.7 7.2-1 10.65-3.9 10.65-8.95 0-5.7-4.8-8.95-13.2-8.95h-17.3v2.35h.9c2.85.05 3.8.2 4.2.7.3.45.3.55.3 3.1v23.85c0 2.5 0 2.6-.3 3.1-.4.5-1.35.65-4.2.65h-.9v2.35h16.4v-2.35h-.9c-2.85 0-3.8-.15-4.2-.65-.3-.5-.3-.6-.3-3.1v-11.4m0-2.35v-11c-.1-2.75.15-2.95 3.45-2.9h2.7c4.95 0 7.2 2.1 7.2 6.65 0 2.55-.65 4.5-1.95 5.55-1.25 1.05-3.5 1.7-5.9 1.7h-5.5m106.85 2.34h2.9c5.05.2 7.05 2.26 7.6 7.76l.25 2.55c.6 5.65 2.45 7.95 6.4 7.95 4.1 0 6.05-2.75 6.2-8.75h-2.1c-.2 3.45-.8 4.95-2.15 4.95-1.15 0-1.65-.85-2.5-4.3l-.8-3.15c-1.1-4.6-3.05-6.7-6.95-7.7 7.2-1 10.65-3.9 10.65-8.95 0-5.7-4.8-8.95-13.2-8.95h-17.3v2.35h.9c2.85.05 3.8.2 4.2.7.3.45.3.55.3 3.1v23.85c0 2.5 0 2.6-.3 3.1-.4.5-1.35.65-4.2.65h-.9v2.35h16.4v-2.35h-.9c-2.85 0-3.8-.15-4.2-.65-.3-.5-.3-.6-.3-3.1v-11.4m0-2.35v-11c-.1-2.75.15-2.95 3.45-2.9h2.7c4.95 0 7.2 2.1 7.2 6.65 0 2.55-.65 4.5-1.95 5.55-1.25 1.05-3.5 1.7-5.9 1.7h-5.5m106.84 2.34h2.9c5.05.2 7.05 2.26 7.6 7.76l.25 2.55c.6 5.65 2.45 7.95 6.4 7.95 4.1 0 6.05-2.75 6.2-8.75h-2.1c-.2 3.45-.8 4.95-2.15 4.95-1.15 0-1.65-.85-2.5-4.3l-.8-3.15c-1.1-4.6-3.05-6.7-6.95-7.7 7.2-1 10.65-3.9 10.65-8.95 0-5.7-4.8-8.95-13.2-8.95h-17.3v2.35h.9c2.85.05 3.8.2 4.2.7.3.45.3.55.3 3.1v23.85c0 2.5 0 2.6-.3 3.1-.4.5-1.35.65-4.2.65h-.9v2.35h16.4v-2.35h-.9c-2.85 0-3.8-.15-4.2-.65-.3-.5-.3-.6-.3-3.1v-11.4m0-2.35v-11c-.1-2.75.15-2.95 3.45-2.9h2.7c4.95 0 7.2 2.1 7.2 6.65 0 2.55-.65 4.5-1.95 5.55-1.25 1.05-3.5 1.7-5.9 1.7h-5.5m126.39 6.14h-2.2c-1.65 9-3.9 11.2-11.65 11.36h-2.1c-3-.1-3.75-.6-3.6-2.4v-25.2c0-2.5 0-2.65.3-3.1.4-.5 1.35-.65 4.2-.7h.9v-2.35h-16.4v2.35h.9c2.85.05 3.8.2 4.2.7.3.45.3.55.3 3.1v23.8c0 2.55 0 2.65-.3 3.1-.4.5-1.35.7-4.2.7h-.9v2.35h29.5l1.05-13.7m47.23-3.81h2.9c5.05.2 7.05 2.26 7.6 7.76l.25 2.55c.6 5.65 2.45 7.95 6.4 7.95 4.1 0 6.05-2.75 6.2-8.75h-2.1c-.2 3.45-.8 4.95-2.15 4.95-1.15 0-1.65-.85-2.5-4.3l-.8-3.15c-1.1-4.6-3.05-6.7-6.95-7.7 7.2-1 10.65-3.9 10.65-8.95 0-5.7-4.8-8.95-13.2-8.95h-17.3v2.35h.9c2.85.05 3.8.2 4.2.7.3.45.3.55.3 3.1v23.85c0 2.5 0 2.6-.3 3.1-.4.5-1.35.65-4.2.65h-.9v2.35h16.4v-2.35h-.9c-2.85 0-3.8-.15-4.2-.65-.3-.5-.3-.6-.3-3.1v-11.4m0-2.35v-11c-.1-2.75.15-2.95 3.45-2.9h2.7c4.95 0 7.2 2.1 7.2 6.65 0 2.55-.65 4.5-1.95 5.55-1.25 1.05-3.5 1.7-5.9 1.7h-5.5m86.34 6.14h-2.2c-1.66 9-3.9 11.2-11.66 11.36h-2.1c-3-.1-3.75-.6-3.6-2.4v-25.2c0-2.5 0-2.65.3-3.1.4-.5 1.35-.65 4.2-.7h.9v-2.35h-16.4v2.35h.9c2.85.05 3.8.2 4.2.7.3.45.3.55.3 3.1v23.8c0 2.55 0 2.65-.3 3.1-.4.5-1.35.7-4.2.7h-.9v2.35h29.5l1.05-13.7m47.23-3.81h2.9c5.05.2 7.05 2.26 7.6 7.76l.25 2.55c.6 5.65 2.45 7.95 6.4 7.95 4.1 0 6.05-2.75 6.2-8.75h-2.1c-.2 3.45-.8 4.95-2.15 4.95-1.15 0-1.65-.85-2.5-4.3l-.8-3.15c-1.1-4.6-3.05-6.7-6.95-7.7 7.2-1 10.65-3.9 10.65-8.95 0-5.7-4.8-8.95-13.2-8.95h-17.3v2.35h.9c2.85.05 3.8.2 4.2.7.3.45.3.55.3 3.1v23.85c0 2.5 0 2.6-.3 3.1-.4.5-1.35.65-4.2.65h-.9v2.35h16.4v-2.35h-.9c-2.85 0-3.8-.15-4.2-.65-.3-.5-.3-.6-.3-3.1v-11.4m0-2.35v-11c-.1-2.75.15-2.95 3.45-2.9h2.7c4.95 0 7.2 2.1 7.2 6.65 0 2.55-.65 4.5-1.95 5.55-1.25 1.05-3.5 1.7-5.9 1.7h-5.5m86.32 6.14h-2.2c-1.65 9-3.9 11.2-11.65 11.36h-2.1c-3-.1-3.75-.6-3.6-2.4v-25.2c0-2.5 0-2.65.3-3.1.4-.5 1.35-.65 4.2-.7h.9v-2.35H1913v2.35h.9c2.85.05 3.8.2 4.2.7.3.45.3.55.3 3.1v23.8c0 2.55 0 2.65-.3 3.1-.4.5-1.35.7-4.2.7h-.9v2.35h29.5l1.05-13.7m47.22-3.81h2.9c5.05.2 7.05 2.26 7.6 7.76l.25 2.55c.6 5.65 2.45 7.95 6.4 7.95 4.1 0 6.05-2.75 6.2-8.75h-2.1c-.2 3.45-.8 4.95-2.15 4.95-1.15 0-1.65-.85-2.5-4.3l-.8-3.15c-1.1-4.6-3.05-6.7-6.95-7.7 7.2-1 10.65-3.9 10.65-8.95 0-5.7-4.8-8.95-13.2-8.95h-17.3v2.35h.9c2.85.05 3.8.2 4.2.7.3.45.3.55.3 3.1v23.85c0 2.5 0 2.6-.3 3.1-.4.5-1.35.65-4.2.65h-.9v2.35h16.4v-2.35h-.9c-2.85 0-3.8-.15-4.2-.65-.3-.5-.3-.6-.3-3.1v-11.4m0-2.35v-11c-.1-2.75.15-2.95 3.45-2.9h2.7c4.95 0 7.2 2.1 7.2 6.65 0 2.55-.65 4.5-1.95 5.55-1.25 1.05-3.5 1.7-5.9 1.7h-5.5m86.33 6.14h-2.2c-1.65 9-3.9 11.2-11.65 11.36h-2.1c-3-.1-3.75-.6-3.6-2.4v-25.2c0-2.5 0-2.65.3-3.1.4-.5 1.35-.65 4.2-.7h.9v-2.35h-16.4v2.35h.9c2.85.05 3.8.2 4.2.7.3.45.3.55.3 3.1v23.8c0 2.55 0 2.65-.3 3.1-.4.5-1.35.7-4.2.7h-.9v2.35h29.5l1.05-13.7m47.23-3.81h2.9c5.05.2 7.05 2.26 7.6 7.76l.25 2.55c.6 5.65 2.45 7.95 6.4 7.95 4.1 0 6.05-2.75 6.2-8.75h-2.1c-.2 3.45-.8 4.95-2.15 4.95-1.15 0-1.65-.85-2.5-4.3l-.8-3.15c-1.1-4.6-3.05-6.7-6.95-7.7 7.2-1 10.65-3.9 10.65-8.95 0-5.7-4.8-8.95-13.2-8.95h-17.3v2.35h.9c2.85.05 3.8.2 4.2.7.3.45.3.55.3 3.1v23.85c0 2.5 0 2.6-.3 3.1-.4.5-1.35.65-4.2.65h-.9v2.35h16.4v-2.35h-.9c-2.85 0-3.8-.15-4.2-.65-.3-.5-.3-.6-.3-3.1v-11.4m0-2.35v-11c-.1-2.75.15-2.95 3.45-2.9h2.7c4.95 0 7.2 2.1 7.2 6.65 0 2.55-.65 4.5-1.95 5.55-1.25 1.05-3.5 1.7-5.9 1.7h-5.5" class="StaffText"/></svg>