<svg xmlns="http://www.w3.org/2000/svg" width="2551.19" height="1122.79" version="1.2"><path fill="none" stroke="#000" stroke-linejoin="bevel" stroke-width="2.73" d="M0 35.92h955.63M0 60.72h955.63M0 85.52h955.63M0 110.32h955.63M0 135.12h955.63m0-99.2h355.42m-355.42 24.8h355.42m-355.42 24.8h355.42m-355.42 24.8h355.42m-355.42 24.8h355.42m0-99.2h340.1m-340.1 24.8h340.1m-340.1 24.8h340.1m-340.1 24.8h340.1m-340.1 24.8h340.1m123.99-99.2h394.01m-394.01 24.8h394.01m-394.01 24.8h394.01m-394.01 24.8h394.01m-394.01 24.8h394.01m0-99.2h382.03m-382.03 24.8h382.03m-382.03 24.8h382.03m-382.03 24.8h382.03m-382.03 24.8h382.03M0 345.92h747.38M0 370.72h747.38M0 395.52h747.38M0 420.32h747.38M0 445.12h747.38m0-99.2h390.27m-390.27 24.8h390.27m-390.27 24.8h390.27m-390.27 24.8h390.27m-390.27 24.8h390.27m0-99.2h405.95m-405.95 24.8h405.95m-405.95 24.8h405.95m-405.95 24.8h405.95m-405.95 24.8h405.95m124-99.2h424.5m-424.5 24.8h424.5m-424.5 24.8h424.5m-424.5 24.8h424.5m-424.5 24.8h424.5m0-99.2h459.08m-459.08 24.8h459.08m-459.08 24.8h459.08m-459.08 24.8h459.08m-459.08 24.8h459.08M0 655.92h827.31M0 680.72h827.31M0 705.52h827.31M0 730.32h827.31M0 755.12h827.31m0-99.2h391.6m-391.6 24.8h391.6m-391.6 24.8h391.6m-391.6 24.8h391.6m-391.6 24.8h391.6m0-99.2h363.17m-363.17 24.8h363.17m-363.17 24.8h363.17m-363.17 24.8h363.17m-363.17 24.8h363.17m124-99.2h428.8m-428.8 24.8h428.8m-428.8 24.8h428.8m-428.8 24.8h428.8m-428.8 24.8h428.8m0-99.2h416.3m-416.3 24.8h416.3m-416.3 24.8h416.3m-416.3 24.8h416.3m-416.3 24.8h416.3M0 965.92h672.98M0 990.72h672.98M0 1015.52h672.98M0 1040.32h672.98M0 1065.12h672.98m0-99.2h407.63m-407.63 24.8h407.63m-407.63 24.8h407.63m-407.63 24.8h407.63m-407.63 24.8h407.63m0-99.2h423.31m-423.31 24.8h423.31m-423.31 24.8h423.31m-423.31 24.8h423.31m-423.31 24.8h423.31m124-99.2h441.85m-441.85 24.8h441.85m-441.85 24.8h441.85m-441.85 24.8h441.85m-441.85 24.8h441.85m0-99.2h481.41m-481.41 24.8h481.41m-481.41 24.8h481.41m-481.41 24.8h481.41m-481.41 24.8h481.41" class="StaffLines"/><path d="M1689.88 81.16a4.38 4.38 0 1 0-.06 8.75 4.38 4.38 0 0 0 .06-8.75m23.31 0a4.38 4.38 0 1 0-.06 8.75 4.38 4.38 0 0 0 .06-8.75m23.31 0a4.38 4.38 0 1 0-.06 8.75 4.38 4.38 0 0 0 .06-8.75m-154.16 310a4.38 4.38 0 1 0-.06 8.75 4.38 4.38 0 0 0 .06-8.75m23.31 0a4.38 4.38 0 1 0-.06 8.75 4.38 4.38 0 0 0 .06-8.75m23.31 0a4.38 4.38 0 1 0-.06 8.75 4.38 4.38 0 0 0 .06-8.75m-8.14 310a4.38 4.38 0 1 0-.06 8.76 4.38 4.38 0 0 0 .06-8.76m23.31 0a4.38 4.38 0 1 0-.06 8.76 4.38 4.38 0 0 0 .06-8.76m23.31 0a4.38 4.38 0 1 0-.06 8.76 4.38 4.38 0 0 0 .06-8.76m-124.79 310a4.38 4.38 0 1 0-.06 8.76 4.38 4.38 0 0 0 .06-8.76m23.31 0a4.38 4.38 0 1 0-.06 8.76 4.38 4.38 0 0 0 .06-8.76m23.31 0a4.38 4.38 0 1 0-.06 8.76 4.38 4.38 0 0 0 .06-8.76" class="Text"/><path fill-rule="evenodd" stroke="#000" stroke-linecap="round" stroke-linejoin="round" stroke-width="1.74" d="M800.57 376.92c37.33-31.85 149.35-31.85 186.7 0-37.35-24.9-149.37-24.9-186.7 0m405.94 0c37.34-31.85 149.36-31.85 186.7 0-37.34-24.9-149.36-24.9-186.7 0m548.51 99.2c37.34 24.9 149.35 24.9 186.7 0-37.35 31.85-149.36 31.85-186.7 0m405.95 0c37.33 24.9 149.35 24.9 186.7 0-37.35 31.85-149.37 31.85-186.7 0m-1434.8 520.8c40.7-34.4 162.78-34.4 203.48 0-40.7-27.46-162.78-27.46-203.48 0m423.3 0c40.7-34.4 162.8-34.4 203.5 0-40.7-27.46-162.8-27.46-203.5 0m565.86 99.2c40.7 27.46 162.8 27.46 203.48 0-40.69 34.4-162.78 34.4-203.48 0m423.3 0c40.7 27.46 162.8 27.46 203.5 0-40.7 34.4-162.8 34.4-203.5 0" class="TieSegment"/><path stroke="#000" stroke-linejoin="bevel" stroke-width="4.46" d="M953.4 34.56v101.92m355.42-101.92v101.92m340.09-101.92v101.92m128.47-101.92v101.92m389.54-101.92v101.92m328.9-101.92v101.92M745.14 344.56v101.92m390.28-101.92v101.92m405.95-101.92v101.92m128.46-101.92v101.92m420.04-101.92v101.92m405.95-101.92v101.92M825.08 654.56v101.92m391.59-101.92v101.92m363.18-101.92v101.92m128.46-101.92v101.92m424.34-101.92v101.92m363.17-101.92v101.92M670.75 964.56v101.92m407.63-101.92v101.92m423.3-101.92v101.92m128.47-101.92v101.92m437.39-101.92v101.92m423.31-101.92v101.92" class="BarLine"/><path d="M997.95 149.4c.6-.1 1.09-.79 1.09-1.38v-5.86c0-.79-.6-1.39-1.4-1.39h-.19l-3.27.7v-14.78h-2.78v15.37l-8.83 1.79v-13.99h-2.78v14.59l-3.87.79c-.6.1-1.09.8-1.09 1.39v5.95-.2c0 .8.6 1.39 1.4 1.39h.29l3.27-.7v16.37l-3.87.8c-.6.1-1.09.8-1.09 1.39v5.75c0 .8.6 1.39 1.4 1.39h.29l3.27-.7v14.78h2.78v-15.37l8.83-1.79v13.99h2.78V175.1l3.77-.7c.6-.1 1.09-.79 1.09-1.39v-5.85c0-.8-.6-1.39-1.4-1.39h-.19l-3.27.7V150.1l3.77-.7m-15.38 19.55v-16.47l8.83-1.79v16.37l-8.83 1.89m882.16-81.55c.6-.1 1.09-.79 1.09-1.38v-5.86c0-.79-.6-1.39-1.4-1.39h-.19l-3.27.7V64.69h-2.78v15.37l-8.83 1.79V67.86h-2.78v14.59l-3.87.79c-.6.1-1.09.8-1.09 1.39v5.95-.2c0 .8.6 1.39 1.4 1.39h.29l3.27-.7v16.37l-3.87.8c-.6.1-1.09.8-1.09 1.39v5.75c0 .8.6 1.39 1.4 1.39h.29l3.27-.7v14.78h2.78v-15.37l8.83-1.79v13.99h2.78V113.1l3.77-.7c.6-.1 1.09-.79 1.09-1.39v-5.85c0-.8-.6-1.39-1.4-1.39h-.19l-3.27.7V88.1l3.77-.7m-15.38 19.55V90.48l8.83-1.79v16.37l-8.83 1.89m-670.18 280.73c-.6-3.87-2.97-7.54-8.03-7.54-4.96 0-7.84 3.08-8.34 3.67l.4-31.84c0-.8-.6-1.39-1.39-1.39h-1.19c-.8 0-1.39.6-1.39 1.4l.5 59.61c0 .8.6 1.39 1.39 1.39.2 0 .6-.1.79-.2.4-.2 6.85-3.37 12.2-9.42a20.13 20.13 0 0 0 5.26-13.2c0-.89-.1-1.68-.2-2.48m-6.84 3.87c0 1.49-.4 6.05-2.88 9.82-1.69 2.58-5.06 5.26-6.94 6.75l.3-19.35c.2-.89 1.68-3.76 5.65-3.76 3.57 0 3.87 3.37 3.87 5.45v1.1m961.29 58.12c-.6-3.87-2.97-7.54-8.03-7.54-4.96 0-7.84 3.08-8.34 3.67l.4-31.84c0-.8-.6-1.39-1.39-1.39h-1.19c-.8 0-1.39.6-1.39 1.4l.5 59.61c0 .8.6 1.39 1.39 1.39.2 0 .6-.1.79-.2.4-.2 6.85-3.37 12.2-9.42a20.13 20.13 0 0 0 5.26-13.2c0-.89-.1-1.68-.2-2.48m-6.84 3.87c0 1.49-.4 6.05-2.88 9.82-1.69 2.58-5.06 5.26-6.94 6.75l.3-19.35c.2-.89 1.68-3.76 5.65-3.76 3.57 0 3.87 3.37 3.87 5.45v1.1M872 769.4c.6-.1 1.1-.79 1.1-1.38v-5.86c0-.79-.6-1.38-1.4-1.38h-.19l-3.27.69v-14.78h-2.78v15.38l-8.83 1.78v-13.99h-2.78v14.59l-3.87.79c-.6.1-1.09.8-1.09 1.39v5.95-.2c0 .8.6 1.4 1.4 1.4h.29l3.27-.7v16.36l-3.87.8c-.6.1-1.09.8-1.09 1.39v5.75c0 .8.6 1.39 1.4 1.39h.29l3.27-.7v14.79h2.78v-15.38l8.83-1.79v14h2.78v-14.6l3.77-.69c.6-.1 1.09-.79 1.09-1.38v-5.86c0-.8-.6-1.39-1.4-1.39h-.19l-3.27.7V770.1l3.77-.7m-15.38 19.55v-16.47l8.83-1.78v16.36l-8.83 1.89m940.03-81.55c.6-.1 1.09-.79 1.09-1.38v-5.86c0-.79-.6-1.38-1.4-1.38h-.19l-3.27.69v-14.78h-2.78v15.38l-8.83 1.78v-13.99h-2.78v14.59l-3.87.79c-.6.1-1.09.8-1.09 1.39v5.95-.2c0 .8.6 1.4 1.4 1.4h.29l3.27-.7v16.36l-3.87.8c-.6.1-1.09.8-1.09 1.39v5.75c0 .8.6 1.39 1.4 1.39h.29l3.27-.7v14.79h2.78v-15.38l8.83-1.79v14h2.78v-14.6l3.77-.69c.6-.1 1.09-.79 1.09-1.38v-5.86c0-.8-.6-1.39-1.4-1.39h-.19l-3.27.7V708.1l3.77-.7m-15.38 19.55v-16.47l8.83-1.78v16.36l-8.83 1.89m-659.15 280.73c-.6-3.86-2.97-7.53-8.03-7.53-4.96 0-7.84 3.07-8.34 3.67l.4-31.85c0-.8-.6-1.39-1.39-1.39h-1.19c-.8 0-1.39.6-1.39 1.4l.5 59.61c0 .8.6 1.4 1.39 1.4.2 0 .6-.1.79-.2.4-.2 6.85-3.38 12.2-9.43a20.13 20.13 0 0 0 5.26-13.2c0-.89-.1-1.68-.2-2.48m-6.84 3.87c0 1.5-.4 6.05-2.88 9.82-1.69 2.58-5.06 5.26-6.94 6.75l.3-19.34c.2-.9 1.68-3.77 5.65-3.77 3.57 0 3.87 3.37 3.87 5.45v1.1m996.01 58.12c-.6-3.86-2.98-7.53-8.04-7.53-4.96 0-7.84 3.07-8.34 3.67l.4-31.85c0-.8-.6-1.39-1.39-1.39h-1.19c-.8 0-1.39.6-1.39 1.4l.5 59.61c0 .8.6 1.4 1.39 1.4.2 0 .6-.1.79-.2.4-.2 6.85-3.38 12.2-9.43a20.13 20.13 0 0 0 5.26-13.2c0-.89-.1-1.68-.2-2.48m-6.84 3.87c0 1.5-.4 6.05-2.88 9.82-1.69 2.58-5.06 5.26-6.94 6.75l.3-19.34c.2-.9 1.68-3.77 5.65-3.77 3.57 0 3.87 3.37 3.87 5.45v1.1" class="Accidental" style="stroke-width:.992001"/><path stroke="#000" stroke-linejoin="bevel" stroke-width="3.97" d="M199.68 159.92h49.6m43.25 0h49.6m43.25 0h49.6m43.25 0h49.6m43.25 0h49.6m43.26 0h49.6m43.26 0h49.58m43.26 0h49.6m105.99 0h54.36m-859.91 620h49.6m52.82 0h49.6m52.81 0h49.6m52.81 0h49.6m52.82 0h49.6m52.81 0h49.6m117.95 0h49.58" class="LedgerLine"/><path stroke="#000" stroke-linejoin="bevel" stroke-width="2.73" d="M239.23 156.74V85.52m92.85 71.22V85.52m92.85 71.22V85.52m92.85 71.22V85.52m92.85 71.22V85.52m92.85 71.22V85.52m92.85 71.22V85.52m92.87 71.22V85.52M201.04 386.45v64.87m77.61-64.87v64.87m77.6-64.87v64.87m77.61-64.87v64.87m77.6-64.87v64.87m77.61-64.87v64.87m77.6-64.87v64.87m114.31-52.47v83.47m196.36-83.47v83.47m209.59-83.47v83.47m196.37-83.47v83.47m381.63-27.97v-83.63m196.37 83.63v-83.63m209.58 83.63v-83.63m196.37 83.63v-83.63M239.23 776.75v-71.23m102.41 71.23v-71.23m102.42 71.23v-71.23m102.41 71.23v-71.23m102.43 71.23v-71.23m102.4 71.23v-71.23m167.54 71.23v-83.63m363.17 71.23v-83.63m552.8 34.03v-83.63m333.67 77.73v83.47M201.04 1006.45v64.87m93.77-64.87v64.87m93.77-64.87v64.87m93.76-64.87v64.87m93.77-64.87v64.87m130.47-52.47v83.47m213.15-83.47v83.47m210.17-83.47v83.47m213.14-83.47v83.47m382.21-27.97v-83.63m213.15 83.63v-83.63m210.15 83.63v-83.63m213.16 83.63v-83.63" class="Stem"/><path d="M239.6 151.89c-1.78-3.28-5.55-5.06-10.11-5.06-3.37 0-7.04.99-10.62 2.87-6.54 3.47-10.51 9.33-10.51 14.39 0 1.39.3 2.77 1 4.06 1.78 3.28 5.55 4.96 10.1 4.96 3.38 0 7.05-.89 10.62-2.77 6.55-3.48 10.52-9.33 10.52-14.39a8.5 8.5 0 0 0-1-4.06m92.86 0c-1.79-3.28-5.56-5.06-10.12-5.06-3.37 0-7.04.99-10.61 2.87-6.55 3.47-10.52 9.33-10.52 14.39 0 1.39.3 2.77 1 4.06 1.78 3.28 5.55 4.96 10.11 4.96 3.37 0 7.04-.89 10.62-2.77 6.54-3.48 10.51-9.33 10.51-14.39a8.5 8.5 0 0 0-1-4.06m92.86 0c-1.78-3.28-5.55-5.06-10.12-5.06-3.37 0-7.04.99-10.61 2.87-6.55 3.47-10.52 9.33-10.52 14.39 0 1.39.3 2.77 1 4.06 1.78 3.28 5.55 4.96 10.11 4.96 3.38 0 7.05-.89 10.62-2.77 6.55-3.48 10.51-9.33 10.51-14.39a8.5 8.5 0 0 0-.99-4.06m92.85 0c-1.78-3.28-5.55-5.06-10.12-5.06-3.37 0-7.04.99-10.61 2.87-6.55 3.47-10.52 9.33-10.52 14.39 0 1.39.3 2.77 1 4.06 1.78 3.28 5.55 4.96 10.11 4.96 3.38 0 7.05-.89 10.62-2.77 6.55-3.48 10.51-9.33 10.51-14.39a8.5 8.5 0 0 0-.99-4.06m92.85 0c-1.78-3.28-5.55-5.06-10.11-5.06-3.38 0-7.05.99-10.62 2.87-6.55 3.47-10.51 9.33-10.51 14.39 0 1.39.3 2.77.99 4.06 1.78 3.28 5.55 4.96 10.12 4.96 3.37 0 7.04-.89 10.61-2.77 6.55-3.48 10.52-9.33 10.52-14.39a8.5 8.5 0 0 0-1-4.06m92.86 0c-1.8-3.28-5.56-5.06-10.12-5.06-3.38 0-7.05.99-10.62 2.87-6.55 3.47-10.51 9.33-10.51 14.39 0 1.39.3 2.77.99 4.06 1.78 3.28 5.55 4.96 10.12 4.96 3.37 0 7.04-.89 10.61-2.77 6.55-3.48 10.52-9.33 10.52-14.39a8.5 8.5 0 0 0-1-4.06m92.86 0c-1.79-3.28-5.56-5.06-10.12-5.06-3.37 0-7.04.99-10.62 2.87-6.54 3.47-10.51 9.33-10.51 14.39 0 1.39.3 2.77 1 4.06 1.78 3.28 5.55 4.96 10.1 4.96 3.38 0 7.05-.89 10.62-2.77 6.55-3.48 10.52-9.33 10.52-14.39a8.5 8.5 0 0 0-1-4.06m92.86 0c-1.79-3.28-5.56-5.06-10.12-5.06-3.37 0-7.04.99-10.61 2.87-6.55 3.47-10.52 9.33-10.52 14.39 0 1.39.3 2.77 1 4.06 1.78 3.28 5.55 4.96 10.11 4.96 3.38 0 7.05-.89 10.62-2.77 6.54-3.48 10.51-9.33 10.51-14.39a8.5 8.5 0 0 0-.99-4.06m142.89-5.46c-13.69 0-18.55 6.94-18.55 13.4 0 6.44 4.86 13.38 18.55 13.38 13.7 0 18.45-6.94 18.45-13.39s-4.76-13.4-18.45-13.4m-8.23 9.04c-.1-.4-.1-.8-.1-1.2 0-.79.2-1.58.6-2.28a5.26 5.26 0 0 1 3.37-1.98c1.29-.3 1.98-.5 4.56-.5h.1c3.97 0 5.26 3.67 6.35 7.44l.3 1a23.1 23.1 0 0 1 1.19 6.44c0 1.2-.2 2.29-.6 3.08-.6 1.1-1.59 1.79-3.27 2.18-.9.2-2.38.3-2.38.3-.5 0-.9.1-1.3.1-3.17 0-5.15-1.2-6.54-5.46-1.19-3.67-1.39-4.76-2.28-9.12m337.61-21.43c-13.69 0-18.55 6.94-18.55 13.4 0 6.44 4.86 13.38 18.55 13.38 13.7 0 18.45-6.94 18.45-13.39s-4.76-13.4-18.45-13.4m-8.23 9.04c-.1-.4-.1-.8-.1-1.2 0-.79.2-1.58.6-2.28a5.26 5.26 0 0 1 3.37-1.98c1.29-.3 1.98-.5 4.56-.5h.1c3.97 0 5.26 3.67 6.35 7.44l.3 1a23.1 23.1 0 0 1 1.19 6.44c0 1.2-.2 2.29-.6 3.08-.6 1.1-1.59 1.79-3.27 2.18-.9.2-2.38.3-2.38.3-.5 0-.9.1-1.3.1-3.17 0-5.15-1.2-6.54-5.46-1.19-3.67-1.39-4.76-2.28-9.12m536.95-58.63c-13.69 0-18.55 6.94-18.55 13.4 0 6.44 4.86 13.38 18.55 13.38 13.7 0 18.45-6.94 18.45-13.39s-4.76-13.4-18.45-13.4m-8.23 9.04c-.1-.4-.1-.8-.1-1.2 0-.79.2-1.58.6-2.28a5.26 5.26 0 0 1 3.37-1.98c1.29-.3 1.98-.5 4.56-.5h.1c3.97 0 5.26 3.67 6.35 7.44l.3 1a23.1 23.1 0 0 1 1.19 6.44c0 1.2-.2 2.29-.6 3.08-.6 1.1-1.59 1.79-3.27 2.18-.9.2-2.38.3-2.38.3-.5 0-.9.1-1.3.1-3.17 0-5.15-1.2-6.54-5.46-1.19-3.67-1.39-4.76-2.28-9.12m339.99-21.43c-13.69 0-18.55 6.94-18.55 13.4 0 6.44 4.86 13.38 18.55 13.38 13.7 0 18.45-6.94 18.45-13.39s-4.76-13.4-18.45-13.4m-8.23 9.04c-.1-.4-.1-.8-.1-1.2 0-.79.2-1.58.6-2.28a5.26 5.26 0 0 1 3.37-1.98c1.29-.3 1.98-.5 4.56-.5h.1c3.97 0 5.26 3.67 6.35 7.44l.3 1a23.1 23.1 0 0 1 1.19 6.44c0 1.2-.2 2.29-.6 3.08-.6 1.1-1.59 1.79-3.27 2.18-.9.2-2.38.3-2.38.3-.5 0-.9.1-1.3.1-3.17 0-5.15-1.2-6.54-5.46-1.19-3.67-1.39-4.76-2.28-9.12M230.93 375.09c-1.79-3.28-5.56-5.06-10.12-5.06-3.37 0-7.04.99-10.62 2.87-6.54 3.47-10.51 9.33-10.51 14.39 0 1.39.3 2.77 1 4.06 1.78 3.28 5.55 4.96 10.1 4.96 3.38 0 7.05-.89 10.62-2.77 6.55-3.48 10.52-9.33 10.52-14.39a8.5 8.5 0 0 0-1-4.06m77.61 0c-1.78-3.28-5.55-5.06-10.12-5.06-3.37 0-7.04.99-10.61 2.87-6.55 3.47-10.52 9.33-10.52 14.39 0 1.39.3 2.77 1 4.06 1.78 3.28 5.55 4.96 10.11 4.96 3.38 0 7.05-.89 10.62-2.77 6.55-3.48 10.51-9.33 10.51-14.39a8.5 8.5 0 0 0-.99-4.06m77.61 0c-1.79-3.28-5.56-5.06-10.12-5.06-3.37 0-7.04.99-10.62 2.87-6.54 3.47-10.51 9.33-10.51 14.39 0 1.39.3 2.77 1 4.06 1.78 3.28 5.55 4.96 10.1 4.96 3.38 0 7.05-.89 10.62-2.77 6.55-3.48 10.52-9.33 10.52-14.39a8.5 8.5 0 0 0-1-4.06m77.61 0c-1.78-3.28-5.55-5.06-10.12-5.06-3.37 0-7.04.99-10.61 2.87-6.55 3.47-10.52 9.33-10.52 14.39 0 1.39.3 2.77 1 4.06 1.78 3.28 5.55 4.96 10.11 4.96 3.38 0 7.05-.89 10.62-2.77 6.55-3.48 10.51-9.33 10.51-14.39a8.5 8.5 0 0 0-.99-4.06m77.61 0c-1.79-3.28-5.56-5.06-10.12-5.06-3.38 0-7.05.99-10.62 2.87-6.54 3.47-10.51 9.33-10.51 14.39 0 1.39.3 2.77.99 4.06 1.79 3.28 5.56 4.96 10.12 4.96 3.37 0 7.04-.89 10.61-2.77 6.55-3.48 10.52-9.33 10.52-14.39a8.5 8.5 0 0 0-1-4.06m77.61 0c-1.78-3.28-5.55-5.06-10.12-5.06-3.37 0-7.04.99-10.61 2.87-6.55 3.47-10.52 9.33-10.52 14.39 0 1.39.3 2.77 1 4.06 1.78 3.28 5.55 4.96 10.11 4.96 3.38 0 7.05-.89 10.62-2.77 6.55-3.48 10.51-9.33 10.51-14.39a8.5 8.5 0 0 0-.99-4.06m77.61 0c-1.79-3.28-5.56-5.06-10.12-5.06-3.38 0-7.05.99-10.62 2.87-6.54 3.47-10.51 9.33-10.51 14.39 0 1.39.3 2.77.99 4.06 1.79 3.28 5.56 4.96 10.12 4.96 3.37 0 7.04-.89 10.61-2.77 6.55-3.48 10.52-9.33 10.52-14.39a8.5 8.5 0 0 0-1-4.06m114.32 12.4c-1.8-3.28-5.56-5.06-10.12-5.06-3.38 0-7.05.99-10.62 2.87-6.54 3.47-10.51 9.33-10.51 14.39 0 1.39.3 2.77.99 4.06 1.78 3.28 5.55 4.96 10.12 4.96 3.37 0 7.04-.89 10.61-2.77 6.55-3.48 10.52-9.33 10.52-14.39a8.5 8.5 0 0 0-1-4.06m-4.26 6.74c-1.69 1.69-5.06 3.77-8.63 5.75-3.57 1.99-7.14 3.48-9.52 3.97-.5.1-1 .2-1.5.2-1.58 0-2.77-.6-3.46-1.88-.3-.5-.5-1.1-.5-1.69 0-1.1.7-2.38 1.79-3.47 1.68-1.69 4.96-3.77 8.53-5.76 3.57-1.98 7.14-3.47 9.52-3.96.5-.1 1-.2 1.49-.2 1.59 0 2.87.6 3.57 1.88.3.5.4 1.1.4 1.69 0 1.09-.6 2.28-1.7 3.47m200.64-6.74c-1.79-3.28-5.56-5.06-10.12-5.06-3.37 0-7.04.99-10.61 2.87-6.55 3.47-10.52 9.33-10.52 14.39 0 1.39.3 2.77 1 4.06 1.78 3.28 5.55 4.96 10.11 4.96 3.38 0 7.05-.89 10.62-2.77 6.54-3.48 10.51-9.33 10.51-14.39a8.5 8.5 0 0 0-.99-4.06m209.58 0c-1.79-3.28-5.56-5.06-10.12-5.06-3.37 0-7.04.99-10.61 2.87-6.55 3.47-10.52 9.33-10.52 14.39 0 1.39.3 2.77 1 4.06 1.78 3.28 5.55 4.96 10.11 4.96 3.38 0 7.05-.89 10.62-2.77 6.54-3.48 10.51-9.33 10.51-14.39a8.5 8.5 0 0 0-.99-4.06m-4.27 6.74c-1.68 1.69-5.05 3.77-8.63 5.75-3.57 1.99-7.14 3.48-9.52 3.97-.5.1-1 .2-1.49.2-1.58 0-2.77-.6-3.47-1.88-.3-.5-.5-1.1-.5-1.69 0-1.1.7-2.38 1.79-3.47 1.69-1.69 4.96-3.77 8.53-5.76 3.57-1.98 7.14-3.47 9.52-3.96.5-.1 1-.2 1.5-.2 1.58 0 2.87.6 3.56 1.88.3.5.4 1.1.4 1.69 0 1.09-.6 2.28-1.69 3.47m200.64-6.74c-1.79-3.28-5.56-5.06-10.12-5.06-3.37 0-7.04.99-10.61 2.87-6.55 3.47-10.52 9.33-10.52 14.39 0 1.39.3 2.77 1 4.06 1.78 3.28 5.55 4.96 10.11 4.96 3.38 0 7.05-.89 10.62-2.77 6.54-3.48 10.51-9.33 10.51-14.39a8.5 8.5 0 0 0-.99-4.06m352.14 62c-1.79-3.28-5.56-5.06-10.12-5.06-3.37 0-7.04.99-10.61 2.87-6.55 3.47-10.52 9.33-10.52 14.39 0 1.39.3 2.77 1 4.06 1.78 3.28 5.55 4.96 10.11 4.96 3.38 0 7.05-.89 10.62-2.77 6.54-3.48 10.51-9.33 10.51-14.39a8.5 8.5 0 0 0-.99-4.06m-4.27 6.74c-1.68 1.69-5.05 3.77-8.63 5.75-3.57 1.99-7.14 3.48-9.52 3.97-.5.1-1 .2-1.49.2-1.58 0-2.77-.6-3.47-1.88-.3-.5-.5-1.1-.5-1.69 0-1.1.7-2.38 1.79-3.47 1.69-1.69 4.96-3.77 8.53-5.76 3.57-1.98 7.14-3.47 9.52-3.96.5-.1 1-.2 1.5-.2 1.58 0 2.87.6 3.56 1.88.3.5.4 1.1.4 1.69 0 1.09-.6 2.28-1.69 3.47m200.63-6.74c-1.79-3.28-5.56-5.06-10.12-5.06-3.37 0-7.04.99-10.61 2.87-6.55 3.47-10.52 9.33-10.52 14.39 0 1.39.3 2.77 1 4.06 1.78 3.28 5.55 4.96 10.11 4.96 3.38 0 7.05-.89 10.62-2.77 6.54-3.48 10.51-9.33 10.51-14.39a8.5 8.5 0 0 0-.99-4.06m209.58 0c-1.79-3.28-5.56-5.06-10.12-5.06-3.37 0-7.04.99-10.61 2.87-6.55 3.47-10.52 9.33-10.52 14.39 0 1.39.3 2.77 1 4.06 1.78 3.28 5.55 4.96 10.11 4.96 3.38 0 7.05-.89 10.62-2.77 6.54-3.48 10.51-9.33 10.51-14.39a8.5 8.5 0 0 0-.99-4.06m-4.27 6.74c-1.68 1.69-5.05 3.77-8.63 5.75-3.57 1.99-7.14 3.48-9.52 3.97-.5.1-1 .2-1.49.2-1.58 0-2.77-.6-3.47-1.88-.3-.5-.5-1.1-.5-1.69 0-1.1.7-2.38 1.79-3.47 1.69-1.69 4.96-3.77 8.53-5.76 3.57-1.98 7.14-3.47 9.52-3.96.5-.1 1-.2 1.5-.2 1.58 0 2.87.6 3.56 1.88.3.5.4 1.1.4 1.69 0 1.09-.6 2.28-1.69 3.47m200.64-6.74c-1.79-3.28-5.56-5.06-10.12-5.06-3.37 0-7.04.99-10.61 2.87-6.55 3.47-10.52 9.33-10.52 14.39 0 1.39.3 2.77 1 4.06 1.78 3.28 5.55 4.96 10.11 4.96 3.38 0 7.05-.89 10.62-2.77 6.54-3.48 10.51-9.33 10.51-14.39a8.5 8.5 0 0 0-.99-4.06M239.6 771.89c-1.78-3.28-5.55-5.06-10.11-5.06-3.37 0-7.04.99-10.62 2.87-6.54 3.48-10.51 9.33-10.51 14.39 0 1.39.3 2.78 1 4.07 1.78 3.27 5.55 4.96 10.1 4.96 3.38 0 7.05-.9 10.62-2.78 6.55-3.47 10.52-9.33 10.52-14.39a8.5 8.5 0 0 0-1-4.06m102.42 0c-1.78-3.28-5.55-5.06-10.12-5.06-3.37 0-7.04.99-10.61 2.87-6.55 3.48-10.52 9.33-10.52 14.39 0 1.39.3 2.78 1 4.07 1.78 3.27 5.55 4.96 10.11 4.96 3.38 0 7.05-.9 10.62-2.78 6.55-3.47 10.51-9.33 10.51-14.39a8.5 8.5 0 0 0-.99-4.06m102.42 0c-1.79-3.28-5.56-5.06-10.12-5.06-3.37 0-7.04.99-10.62 2.87-6.54 3.48-10.51 9.33-10.51 14.39 0 1.39.3 2.78 1 4.07 1.78 3.27 5.55 4.96 10.1 4.96 3.38 0 7.05-.9 10.62-2.78 6.55-3.47 10.52-9.33 10.52-14.39a8.5 8.5 0 0 0-1-4.06m102.42 0c-1.78-3.28-5.55-5.06-10.12-5.06-3.37 0-7.04.99-10.61 2.87-6.55 3.48-10.52 9.33-10.52 14.39 0 1.39.3 2.78 1 4.07 1.78 3.27 5.55 4.96 10.11 4.96 3.38 0 7.05-.9 10.62-2.78 6.55-3.47 10.51-9.33 10.51-14.39a8.5 8.5 0 0 0-.99-4.06m102.42 0c-1.79-3.28-5.56-5.06-10.12-5.06-3.37 0-7.04.99-10.62 2.87-6.54 3.48-10.51 9.33-10.51 14.39 0 1.39.3 2.78 1 4.07 1.78 3.27 5.55 4.96 10.1 4.96 3.38 0 7.05-.9 10.62-2.78 6.55-3.47 10.52-9.33 10.52-14.39a8.5 8.5 0 0 0-1-4.06m102.42 0c-1.78-3.28-5.55-5.06-10.12-5.06-3.37 0-7.04.99-10.61 2.87-6.55 3.48-10.52 9.33-10.52 14.39 0 1.39.3 2.78 1 4.07 1.78 3.27 5.55 4.96 10.11 4.96 3.38 0 7.05-.9 10.62-2.78 6.55-3.47 10.51-9.33 10.51-14.39a8.5 8.5 0 0 0-.99-4.06m167.54 0c-1.79-3.28-5.56-5.06-10.12-5.06-3.37 0-7.04.99-10.61 2.87-6.55 3.48-10.52 9.33-10.52 14.39 0 1.39.3 2.78 1 4.07 1.78 3.27 5.55 4.96 10.11 4.96 3.38 0 7.05-.9 10.62-2.78 6.54-3.47 10.51-9.33 10.51-14.39a8.5 8.5 0 0 0-.99-4.06m-4.27 6.74c-1.68 1.69-5.05 3.77-8.63 5.76-3.57 1.98-7.14 3.47-9.52 3.96-.5.1-1 .2-1.49.2-1.58 0-2.77-.6-3.47-1.88-.3-.5-.5-1.1-.5-1.69 0-1.1.7-2.38 1.79-3.47 1.69-1.69 4.96-3.77 8.53-5.75 3.57-1.99 7.14-3.48 9.52-3.97.5-.1 1-.2 1.5-.2 1.58 0 2.87.6 3.56 1.88.3.5.4 1.1.4 1.69 0 1.1-.6 2.28-1.69 3.47m367.45-19.14c-1.79-3.28-5.56-5.06-10.12-5.06-3.37 0-7.04.99-10.61 2.87-6.55 3.48-10.52 9.33-10.52 14.39 0 1.39.3 2.78 1 4.07 1.78 3.27 5.55 4.96 10.11 4.96 3.38 0 7.05-.9 10.62-2.78 6.54-3.47 10.51-9.33 10.51-14.39a8.5 8.5 0 0 0-.99-4.06m-4.27 6.74c-1.68 1.69-5.05 3.77-8.63 5.76-3.57 1.98-7.14 3.47-9.52 3.96-.5.1-1 .2-1.49.2-1.58 0-2.77-.6-3.47-1.88-.3-.5-.5-1.1-.5-1.69 0-1.1.7-2.38 1.79-3.47 1.69-1.69 4.96-3.77 8.53-5.75 3.57-1.99 7.14-3.48 9.52-3.97.5-.1 1-.2 1.5-.2 1.58 0 2.87.6 3.56 1.88.3.5.4 1.1.4 1.69 0 1.1-.6 2.28-1.69 3.47m557.06-56.34c-1.79-3.28-5.56-5.06-10.12-5.06-3.37 0-7.04.99-10.61 2.87-6.55 3.48-10.52 9.33-10.52 14.39 0 1.39.3 2.78 1 4.07 1.78 3.27 5.55 4.96 10.11 4.96 3.38 0 7.05-.9 10.62-2.78 6.54-3.47 10.51-9.33 10.51-14.39a8.5 8.5 0 0 0-.99-4.06m-4.27 6.74c-1.68 1.69-5.05 3.77-8.63 5.76-3.57 1.98-7.14 3.47-9.52 3.96-.5.1-1 .2-1.49.2-1.58 0-2.77-.6-3.47-1.88-.3-.5-.5-1.1-.5-1.69 0-1.1.7-2.38 1.79-3.47 1.69-1.69 4.96-3.77 8.53-5.75 3.57-1.99 7.14-3.48 9.52-3.97.5-.1 1-.2 1.5-.2 1.58 0 2.87.6 3.56 1.88.3.5.4 1.1.4 1.69 0 1.1-.6 2.28-1.69 3.47m367.45-19.14c-1.79-3.28-5.56-5.06-10.12-5.06-3.37 0-7.04.99-10.61 2.87-6.55 3.48-10.52 9.33-10.52 14.39 0 1.39.3 2.78 1 4.07 1.78 3.27 5.55 4.96 10.11 4.96 3.38 0 7.05-.9 10.62-2.78 6.54-3.47 10.51-9.33 10.51-14.39a8.5 8.5 0 0 0-.99-4.06m-4.27 6.74c-1.68 1.69-5.05 3.77-8.63 5.76-3.57 1.98-7.14 3.47-9.52 3.96-.5.1-1 .2-1.49.2-1.58 0-2.77-.6-3.47-1.88-.3-.5-.5-1.1-.5-1.69 0-1.1.7-2.38 1.79-3.47 1.69-1.69 4.96-3.77 8.53-5.75 3.57-1.99 7.14-3.48 9.52-3.97.5-.1 1-.2 1.5-.2 1.58 0 2.87.6 3.56 1.88.3.5.4 1.1.4 1.69 0 1.1-.6 2.28-1.69 3.47M230.93 995.09c-1.79-3.28-5.56-5.06-10.12-5.06-3.37 0-7.04.99-10.62 2.87-6.54 3.48-10.51 9.33-10.51 14.39 0 1.39.3 2.78 1 4.06 1.78 3.28 5.55 4.96 10.1 4.96 3.38 0 7.05-.89 10.62-2.77 6.55-3.47 10.52-9.33 10.52-14.39a8.5 8.5 0 0 0-1-4.06m93.78 0c-1.8-3.28-5.56-5.06-10.12-5.06-3.38 0-7.05.99-10.62 2.87-6.55 3.48-10.51 9.33-10.51 14.39 0 1.39.3 2.78.99 4.06 1.78 3.28 5.55 4.96 10.12 4.96 3.37 0 7.04-.89 10.61-2.77 6.55-3.47 10.52-9.33 10.52-14.39a8.5 8.5 0 0 0-1-4.06m93.77 0c-1.78-3.28-5.55-5.06-10.12-5.06-3.37 0-7.04.99-10.61 2.87-6.55 3.48-10.52 9.33-10.52 14.39 0 1.39.3 2.78 1 4.06 1.78 3.28 5.55 4.96 10.11 4.96 3.38 0 7.05-.89 10.62-2.77 6.55-3.47 10.51-9.33 10.51-14.39a8.5 8.5 0 0 0-.99-4.06m93.77 0c-1.79-3.28-5.56-5.06-10.12-5.06-3.37 0-7.04.99-10.61 2.87-6.55 3.48-10.52 9.33-10.52 14.39 0 1.39.3 2.78 1 4.06 1.78 3.28 5.55 4.96 10.11 4.96 3.37 0 7.04-.89 10.62-2.77 6.54-3.47 10.51-9.33 10.51-14.39a8.5 8.5 0 0 0-1-4.06m93.78 0c-1.79-3.28-5.56-5.06-10.12-5.06-3.38 0-7.05.99-10.62 2.87-6.54 3.48-10.51 9.33-10.51 14.39 0 1.39.3 2.78.99 4.06 1.79 3.28 5.56 4.96 10.12 4.96 3.37 0 7.04-.89 10.61-2.77 6.55-3.47 10.52-9.33 10.52-14.39a8.5 8.5 0 0 0-1-4.06m130.48 12.4c-1.79-3.28-5.56-5.06-10.12-5.06-3.37 0-7.04.99-10.62 2.87-6.54 3.48-10.51 9.33-10.51 14.39 0 1.39.3 2.78 1 4.06 1.78 3.28 5.55 4.96 10.1 4.96 3.38 0 7.05-.89 10.62-2.77 6.55-3.47 10.52-9.33 10.52-14.39a8.5 8.5 0 0 0-1-4.06m213.16 0c-1.79-3.28-5.56-5.06-10.12-5.06-3.37 0-7.04.99-10.61 2.87-6.55 3.48-10.52 9.33-10.52 14.39 0 1.39.3 2.78 1 4.06 1.78 3.28 5.55 4.96 10.11 4.96 3.38 0 7.05-.89 10.62-2.77 6.54-3.47 10.51-9.33 10.51-14.39a8.5 8.5 0 0 0-.99-4.06m210.15 0c-1.79-3.28-5.56-5.06-10.12-5.06-3.37 0-7.04.99-10.61 2.87-6.55 3.48-10.52 9.33-10.52 14.39 0 1.39.3 2.78 1 4.06 1.78 3.28 5.55 4.96 10.11 4.96 3.38 0 7.05-.89 10.62-2.77 6.54-3.47 10.51-9.33 10.51-14.39a8.5 8.5 0 0 0-.99-4.06m213.15 0c-1.79-3.28-5.56-5.06-10.12-5.06-3.37 0-7.04.99-10.61 2.87-6.55 3.48-10.52 9.33-10.52 14.39 0 1.39.3 2.78 1 4.06 1.78 3.28 5.55 4.96 10.11 4.96 3.38 0 7.05-.89 10.62-2.77 6.54-3.47 10.51-9.33 10.51-14.39a8.5 8.5 0 0 0-.99-4.06m352.71 62c-1.79-3.28-5.56-5.06-10.12-5.06-3.37 0-7.04.99-10.61 2.87-6.55 3.48-10.52 9.33-10.52 14.39 0 1.39.3 2.78 1 4.07 1.78 3.27 5.55 4.96 10.11 4.96 3.38 0 7.05-.9 10.62-2.78 6.54-3.47 10.51-9.33 10.51-14.39a8.5 8.5 0 0 0-.99-4.06m213.15 0c-1.79-3.28-5.56-5.06-10.12-5.06-3.37 0-7.04.99-10.61 2.87-6.55 3.48-10.52 9.33-10.52 14.39 0 1.39.3 2.78 1 4.07 1.78 3.27 5.55 4.96 10.11 4.96 3.38 0 7.05-.9 10.62-2.78 6.54-3.47 10.51-9.33 10.51-14.39a8.5 8.5 0 0 0-.99-4.06m210.15 0c-1.79-3.28-5.56-5.06-10.12-5.06-3.37 0-7.04.99-10.61 2.87-6.55 3.48-10.52 9.33-10.52 14.39 0 1.39.3 2.78 1 4.07 1.78 3.27 5.55 4.96 10.11 4.96 3.38 0 7.05-.9 10.62-2.78 6.54-3.47 10.51-9.33 10.51-14.39a8.5 8.5 0 0 0-.99-4.06m213.16 0c-1.79-3.28-5.56-5.06-10.12-5.06-3.37 0-7.04.99-10.61 2.87-6.55 3.48-10.52 9.33-10.52 14.39 0 1.39.3 2.78 1 4.07 1.78 3.27 5.55 4.96 10.11 4.96 3.38 0 7.05-.9 10.62-2.78 6.54-3.47 10.51-9.33 10.51-14.39a8.5 8.5 0 0 0-.99-4.06" class="Note" style="stroke-width:.992001"/><path d="M87.15 104.5a28.14 28.14 0 0 0-4.62-10.21 22.24 22.24 0 0 0-11.79-8.4 24.2 24.2 0 0 0-8.46-.82c-1.03-5.96-2.03-11.8-2.93-17.2 5.4-6.12 9-11.87 11.26-16.14 3.44-6.52 4.58-11.07 4.63-11.27 1.7-5.16 2.07-12.8.98-20.95-1-7.49-3.08-14.14-5.41-17.37C69.79.72 68.75 0 67.7 0c-1.2 0-3.7 1.23-6.56 3.98a36.12 36.12 0 0 0-8.07 12c-2.97 7-3.18 16.42-2.84 23.09a102.5 102.5 0 0 0 1.5 12.9l.72 4.13-.72.68c-1.03 1-2.2 2.13-3.58 3.5-.85.85-1.8 1.75-2.79 2.71C37 71.07 24.3 83.3 24.3 102.3c0 4.66.9 9.04 2.66 13.02a31.15 31.15 0 0 0 6.77 9.67c7.67 7.5 18.17 10.68 25.17 10.52a48.7 48.7 0 0 0 7.91-.76c1.82 9.53 2.95 16.5 2.99 21.8.04 6.46-1.6 10.4-5.47 13.14a15.3 15.3 0 0 1-8.27 2.8c-2.57.13-4.81-.34-6.23-.74h-.01s-.29-.08-.3-.28c0-.18.34-.23.35-.23h.02c1.9-.44 5.44-1.66 7.78-4.93 1.79-2.5 2.65-7.08.83-11-1.1-2.36-3.6-5.29-9.17-5.74a11.04 11.04 0 0 0-11.03 6.18c-2.44 4.67-1.98 10.35 1.12 14.16 2.94 3.6 7.52 5.88 12.9 6.46a23.62 23.62 0 0 0 14.83-3.25c3.64-2.56 5.74-6.5 6.42-12.09.55-4.6.17-10.46-1.22-18.47l-1.55-8.8c5.7-1.91 9.83-5.45 13.57-11.26a24.33 24.33 0 0 0 2.78-18M53.2 130.49c-4.6-1.21-9-3.7-12.73-7.16a20.19 20.19 0 0 1-4.6-6.74 24.37 24.37 0 0 1-1.97-10.1c.07-4.65 1.37-9.43 3.86-14.18 2.9-5.54 7.42-11.03 13.43-16.31a95.65 95.65 0 0 0 4.07-3.81l2.45 13.72A21.2 21.2 0 0 0 46.1 95.9c-3.51 6.51-3.37 11.99-2.65 15.44.93 4.43 3.44 8.16 6.87 10.23.93.56 5.02 2.67 6.85 2.1.37-.13.63-.34.77-.67.5-1.16-.5-1.8-2.05-2.75-.6-.37-1.26-.78-1.98-1.3-3.3-2.48-4.74-6.9-3.68-11.24a12.4 12.4 0 0 1 3.68-6.2 14.13 14.13 0 0 1 6.04-3.27c2.02 11.15 4.06 22.2 5.69 30.5l.4 2.02c-4.35.92-8.66.83-12.84-.27m11.23-32.92c10.27-.46 14.5 6.92 15.39 11.7.46 2.52.45 6.92-1.08 11.1-1.16 3.15-3.6 7.2-8.69 9.24a28.1 28.1 0 0 0-.22-1.27c-1.53-8.7-3.46-19.6-5.4-30.77M57.18 27.2c1.76-5.7 4.48-8.92 6.46-10.63 1.73-1.51 3.37-2.22 4.28-2.22.14 0 .26.02.36.05.46.14.98.7 1.45 1.57 2.29 4.26 1.56 10.91.23 15.32-1.62 5.35-4.52 10.93-13.25 20.46l-.47-3.11c-1.24-8.23-.93-15.44.94-21.44m29.97 387.3a28.14 28.14 0 0 0-4.62-10.21 22.24 22.24 0 0 0-11.79-8.4 24.2 24.2 0 0 0-8.46-.82c-1.03-5.96-2.03-11.8-2.93-17.2 5.4-6.12 9-11.87 11.26-16.14 3.44-6.52 4.58-11.07 4.63-11.27 1.7-5.16 2.07-12.8.98-20.95-1-7.49-3.08-14.14-5.41-17.37-1.02-1.42-2.06-2.14-3.1-2.14-1.2 0-3.7 1.23-6.56 3.98a36.12 36.12 0 0 0-8.07 12c-2.97 7-3.18 16.42-2.84 23.09a102.5 102.5 0 0 0 1.5 12.9l.72 4.13-.72.68c-1.03 1-2.2 2.13-3.58 3.5-.85.85-1.8 1.75-2.79 2.71-8.38 8.08-21.07 20.3-21.07 39.3 0 4.66.9 9.04 2.66 13.02a31.15 31.15 0 0 0 6.77 9.67c7.67 7.5 18.17 10.68 25.17 10.52a48.7 48.7 0 0 0 7.91-.76c1.82 9.53 2.95 16.5 2.99 21.8.04 6.46-1.6 10.4-5.47 13.14a15.3 15.3 0 0 1-8.27 2.8c-2.57.13-4.81-.34-6.23-.74h-.01s-.29-.08-.3-.28c0-.18.34-.23.35-.23h.02c1.9-.44 5.44-1.66 7.78-4.93 1.79-2.5 2.65-7.08.83-11-1.1-2.36-3.6-5.29-9.17-5.74a11.04 11.04 0 0 0-11.03 6.18c-2.44 4.67-1.98 10.35 1.12 14.16 2.94 3.6 7.52 5.88 12.9 6.46a23.62 23.62 0 0 0 14.83-3.25c3.64-2.56 5.74-6.5 6.42-12.09.55-4.6.17-10.46-1.22-18.47l-1.55-8.8c5.7-1.91 9.83-5.45 13.57-11.26a24.33 24.33 0 0 0 2.78-18m-33.95 26c-4.6-1.21-9-3.7-12.73-7.16a20.19 20.19 0 0 1-4.6-6.74 24.37 24.37 0 0 1-1.97-10.1c.07-4.65 1.37-9.43 3.86-14.18 2.9-5.54 7.42-11.03 13.43-16.31a95.65 95.65 0 0 0 4.07-3.81l2.45 13.72a21.2 21.2 0 0 0-11.61 9.99c-3.51 6.51-3.37 11.99-2.65 15.44.93 4.43 3.44 8.16 6.87 10.23.93.56 5.02 2.67 6.85 2.1.37-.13.63-.34.77-.67.5-1.16-.5-1.8-2.05-2.75-.6-.37-1.26-.78-1.98-1.3-3.3-2.48-4.74-6.9-3.68-11.24a12.4 12.4 0 0 1 3.68-6.2 14.13 14.13 0 0 1 6.04-3.27c2.02 11.15 4.06 22.2 5.69 30.5l.4 2.02c-4.35.92-8.66.83-12.84-.27m11.23-32.92c10.27-.46 14.5 6.92 15.39 11.7.46 2.52.45 6.92-1.08 11.1-1.16 3.15-3.6 7.2-8.69 9.24a28.1 28.1 0 0 0-.22-1.27c-1.53-8.7-3.46-19.6-5.4-30.77m-7.26-70.37c1.76-5.7 4.48-8.92 6.46-10.63 1.73-1.51 3.37-2.22 4.28-2.22.14 0 .26.02.36.05.46.14.98.7 1.45 1.57 2.29 4.26 1.56 10.91.23 15.32-1.62 5.35-4.52 10.93-13.25 20.46l-.47-3.11c-1.24-8.23-.93-15.44.94-21.44m29.98 387.3a28.14 28.14 0 0 0-4.62-10.2 22.2 22.2 0 0 0-11.79-8.41c-3.09-.88-6.06-1-8.46-.81a3126.7 3126.7 0 0 1-2.93-17.2c5.4-6.13 9-11.88 11.26-16.15 3.44-6.52 4.58-11.07 4.63-11.27 1.7-5.16 2.07-12.8.98-20.95-1-7.49-3.08-14.14-5.41-17.37-1.02-1.41-2.06-2.14-3.1-2.14-1.2 0-3.7 1.23-6.56 3.98a36.12 36.12 0 0 0-8.07 12c-2.97 7-3.18 16.42-2.84 23.09a102.5 102.5 0 0 0 1.5 12.9l.72 4.13-.72.68c-1.03 1-2.2 2.13-3.58 3.5-.85.85-1.8 1.75-2.79 2.71-8.38 8.08-21.07 20.3-21.07 39.3 0 4.66.9 9.04 2.66 13.02a31.15 31.15 0 0 0 6.77 9.67c7.67 7.5 18.17 10.68 25.17 10.52 2.93-.07 5.54-.3 7.91-.76 1.82 9.53 2.95 16.5 2.99 21.8.04 6.46-1.6 10.4-5.47 13.14a15.3 15.3 0 0 1-8.27 2.81c-2.57.12-4.81-.35-6.23-.75h-.01s-.29-.08-.3-.28c0-.18.34-.23.35-.23h.02c1.9-.44 5.44-1.66 7.78-4.93 1.79-2.5 2.65-7.08.83-11-1.1-2.36-3.6-5.29-9.17-5.73a11.04 11.04 0 0 0-11.03 6.18c-2.44 4.66-1.98 10.34 1.12 14.15 2.94 3.6 7.52 5.88 12.9 6.46a23.62 23.62 0 0 0 14.83-3.25c3.64-2.55 5.74-6.5 6.42-12.09.55-4.6.17-10.46-1.22-18.47l-1.55-8.8c5.7-1.91 9.83-5.45 13.57-11.26a24.33 24.33 0 0 0 2.78-18m-33.95 26c-4.6-1.21-9-3.7-12.73-7.16a20.19 20.19 0 0 1-4.6-6.74 24.37 24.37 0 0 1-1.97-10.1c.07-4.65 1.37-9.43 3.86-14.18 2.9-5.54 7.42-11.02 13.43-16.31a95.64 95.64 0 0 0 4.07-3.81l2.45 13.72a21.2 21.2 0 0 0-11.61 9.99c-3.51 6.52-3.37 12-2.65 15.44.93 4.43 3.44 8.16 6.87 10.23.93.56 5.02 2.67 6.85 2.1.37-.13.63-.34.77-.67.5-1.16-.5-1.8-2.05-2.75-.6-.37-1.26-.78-1.98-1.3-3.3-2.48-4.74-6.9-3.68-11.24a12.4 12.4 0 0 1 3.68-6.2 14.13 14.13 0 0 1 6.04-3.27c2.02 11.15 4.06 22.21 5.69 30.5l.4 2.02c-4.35.92-8.66.83-12.84-.27m11.23-32.92c10.27-.46 14.5 6.92 15.39 11.71a22.8 22.8 0 0 1-1.08 11.1c-1.16 3.15-3.6 7.18-8.69 9.23a28.1 28.1 0 0 0-.22-1.27c-1.53-8.7-3.46-19.6-5.4-30.77m-7.26-70.37c1.76-5.7 4.48-8.92 6.46-10.63 1.73-1.51 3.37-2.21 4.28-2.21.14 0 .26.02.36.04.46.14.98.7 1.45 1.57 2.29 4.26 1.56 10.91.23 15.32-1.62 5.36-4.52 10.93-13.25 20.46l-.47-3.11c-1.24-8.22-.93-15.44.94-21.44m29.98 387.3a28.14 28.14 0 0 0-4.62-10.2 22.2 22.2 0 0 0-11.79-8.41c-3.09-.88-6.06-1-8.46-.81a3126.7 3126.7 0 0 1-2.93-17.2c5.4-6.13 9-11.88 11.26-16.15 3.44-6.52 4.58-11.07 4.63-11.27 1.7-5.16 2.07-12.8.98-20.95-1-7.49-3.08-14.14-5.41-17.37-1.02-1.41-2.06-2.14-3.1-2.14-1.2 0-3.7 1.23-6.56 3.98a36.12 36.12 0 0 0-8.07 12c-2.97 7-3.18 16.42-2.84 23.09a102.5 102.5 0 0 0 1.5 12.9l.72 4.13-.72.68c-1.03 1-2.2 2.13-3.58 3.5-.85.85-1.8 1.75-2.79 2.71-8.38 8.08-21.07 20.3-21.07 39.3 0 4.66.9 9.04 2.66 13.02a31.15 31.15 0 0 0 6.77 9.67c7.67 7.5 18.17 10.68 25.17 10.52 2.93-.07 5.54-.3 7.91-.76 1.82 9.53 2.95 16.5 2.99 21.8.04 6.46-1.6 10.4-5.47 13.14a15.3 15.3 0 0 1-8.27 2.81c-2.57.12-4.81-.35-6.23-.75h-.01s-.29-.08-.3-.28c0-.18.34-.23.35-.23h.02c1.9-.44 5.44-1.66 7.78-4.93 1.79-2.5 2.65-7.08.83-11-1.1-2.36-3.6-5.29-9.17-5.73a11.04 11.04 0 0 0-11.03 6.18c-2.44 4.66-1.98 10.34 1.12 14.15 2.94 3.6 7.52 5.88 12.9 6.46a23.62 23.62 0 0 0 14.83-3.25c3.64-2.55 5.74-6.5 6.42-12.09.55-4.6.17-10.46-1.22-18.47l-1.55-8.8c5.7-1.91 9.83-5.45 13.57-11.26a24.33 24.33 0 0 0 2.78-18m-33.94 25.99c-4.6-1.21-9-3.7-12.73-7.16a20.19 20.19 0 0 1-4.6-6.74 24.37 24.37 0 0 1-1.97-10.1c.07-4.65 1.37-9.43 3.86-14.18 2.9-5.54 7.42-11.02 13.43-16.31a95.64 95.64 0 0 0 4.07-3.81l2.45 13.72a21.2 21.2 0 0 0-11.61 9.99c-3.51 6.52-3.37 12-2.65 15.44.93 4.43 3.44 8.16 6.87 10.23.93.56 5.02 2.67 6.85 2.1.37-.13.63-.34.77-.67.5-1.16-.5-1.8-2.05-2.75-.6-.37-1.26-.78-1.98-1.3-3.3-2.48-4.74-6.9-3.68-11.24a12.4 12.4 0 0 1 3.68-6.2 14.13 14.13 0 0 1 6.04-3.27c2.02 11.15 4.06 22.21 5.69 30.5l.4 2.02c-4.35.92-8.66.83-12.84-.27m11.23-32.92c10.27-.46 14.5 6.92 15.39 11.71.46 2.51.45 6.91-1.08 11.09-1.16 3.15-3.6 7.2-8.69 9.24a28.1 28.1 0 0 0-.22-1.27c-1.53-8.7-3.46-19.6-5.4-30.77m-7.26-70.37c1.76-5.7 4.48-8.92 6.46-10.63 1.73-1.51 3.37-2.21 4.28-2.21.14 0 .26.02.36.05.46.13.98.7 1.45 1.56 2.29 4.26 1.56 10.91.23 15.32-1.62 5.36-4.52 10.93-13.25 20.46l-.47-3.11c-1.24-8.22-.93-15.44.94-21.44" class="Clef" style="stroke-width:.992001"/><path d="M143.22 59.38c3.3-2.5 5.6-5.66 5.6-9.63 0-7.19-7.83-13-17.49-13-9.65 0-17.48 5.82-17.48 13 0 3.97 1 7.55 5.69 10.48-4.52 2.65-6.96 6.28-6.96 11.01 0 8.02 8.4 14.52 18.75 14.52 10.36 0 18.75-6.5 18.75-14.52 0-4.73-1.72-9.24-6.86-11.86m-11.9 20.8c-6.3 0-11.8-3.45-11.8-8.99 0-6.64 5.14-8.24 5.14-8.24 6.74 2.25 16.4 5.65 16.4 11.07 0 2.7-3.43 6.16-9.74 6.16m6.34-23.53c-6.75-2.1-14.17-5.38-14.17-9.88 0-3.9 3.57-5.45 7.83-5.45 6.11 0 10.33 2.87 10.33 7.43 0 4.77-2.2 7.03-3.99 7.9" class="TimeSig" style="stroke-width:.992001"/><path d="M143.22 108.11c3.3-2.49 5.6-5.65 5.6-9.63 0-7.18-7.83-13-17.49-13-9.65 0-17.48 5.83-17.48 13 0 3.98 1 7.55 5.69 10.48-4.52 2.65-6.96 6.28-6.96 11.02 0 8.01 8.4 14.5 18.75 14.5 10.36 0 18.75-6.49 18.75-14.5 0-4.74-1.72-9.25-6.86-11.87m-11.9 20.8c-6.3 0-11.8-3.45-11.8-8.98 0-6.65 5.14-8.25 5.14-8.25 6.74 2.25 16.4 5.66 16.4 11.07 0 2.71-3.43 6.16-9.74 6.16m6.34-23.53c-6.75-2.09-14.17-5.37-14.17-9.88 0-3.9 3.57-5.44 7.83-5.44 6.11 0 10.33 2.86 10.33 7.43 0 4.76-2.2 7.02-3.99 7.9m2412.12-68.24c0-1.16-.96-1.38-.96-1.38h-1.95c-1.1 0-1.16 1.38-1.16 1.38s.04 7.8-4.14 7.8c-4.19 0-5.37-8.51-11.84-8.51-6.17 0-9.89 6.3-10.2 6.88v-4.75c0-.61-.51-1.1-1.13-1.12h-2.26c-.61 0-1.11.5-1.12 1.12v18.3c0 .62.5 1.12 1.12 1.13h2.26c.62 0 1.11-.51 1.12-1.13v-3.14c0-2.3 1.53-5.39 4.98-5.39 3.46 0 3.96 3.85 11.66 3.85 0 0 5.6-.19 6.72-1.3 0 0-9.7 16.93-13.2 21.96-4.94 7.07-5.1 10.73-5.1 10.73-.08.5-.16 1.86 1.4 1.9 1.56.02 2.56-.4 5.74-.62 3.17-.21 6.48.61 7.3.61.81 0 1.16-.32 1.43-.55.17-.15.33-.31.48-.47.28-.29.68-.63.53-1.28-.08-.34-1.48-7.6.15-13.57 1.27-4.64 4.34-13.1 6.57-19.35 2.18-6.03 1.6-13.1 1.6-13.1" class="TimeSig" style="stroke-width:.992001"/><path d="M2544.32 108.11c3.3-2.49 5.6-5.65 5.6-9.63 0-7.18-7.83-13-17.48-13s-17.48 5.83-17.48 13c0 3.98 1 7.55 5.68 10.48-4.52 2.65-6.95 6.28-6.95 11.02 0 8.01 8.4 14.5 18.75 14.5 10.36 0 18.75-6.49 18.75-14.5-.01-4.74-1.73-9.25-6.87-11.87m-11.9 20.8c-6.3 0-11.79-3.45-11.79-8.98 0-6.65 5.13-8.25 5.13-8.25 6.75 2.25 16.41 5.66 16.41 11.07 0 2.71-3.43 6.16-9.74 6.16m6.34-23.53c-6.76-2.09-14.18-5.37-14.18-9.88 0-3.9 3.57-5.44 7.84-5.44 6.11 0 10.33 2.86 10.33 7.43 0 4.76-2.2 7.02-4 7.9M148.68 347.15c0-1.16-.96-1.37-.96-1.37h-1.95c-1.11 0-1.16 1.37-1.16 1.37s.04 7.8-4.15 7.8c-4.18 0-5.36-8.51-11.83-8.51-6.17 0-9.9 6.3-10.2 6.88v-4.75c0-.61-.51-1.1-1.13-1.12h-2.26c-.62 0-1.11.5-1.12 1.12v18.3c0 .62.5 1.12 1.12 1.13h2.26c.62 0 1.11-.51 1.12-1.12v-3.15c0-2.3 1.53-5.39 4.98-5.39s3.96 3.85 11.66 3.85c0 0 5.6-.19 6.71-1.3 0 0-9.7 16.93-13.2 21.96-4.93 7.07-5.1 10.73-5.1 10.73-.07.5-.15 1.86 1.41 1.9 1.56.02 2.56-.4 5.73-.62 3.18-.2 6.5.61 7.3.61.82 0 1.17-.32 1.44-.55.17-.15.33-.3.48-.47.28-.28.67-.63.52-1.28-.07-.33-1.47-7.6.15-13.57 1.27-4.64 4.35-13.1 6.58-19.35 2.17-6.03 1.6-13.1 1.6-13.1" class="TimeSig" style="stroke-width:.992001"/><path d="M143.22 418.11c3.3-2.49 5.6-5.65 5.6-9.63 0-7.18-7.83-13-17.49-13-9.65 0-17.48 5.83-17.48 13 0 3.98 1 7.55 5.69 10.48-4.52 2.65-6.96 6.28-6.96 11.02 0 8.01 8.4 14.5 18.75 14.5 10.36 0 18.75-6.49 18.75-14.5 0-4.74-1.72-9.25-6.86-11.87m-11.9 20.8c-6.3 0-11.8-3.45-11.8-8.98 0-6.65 5.14-8.25 5.14-8.25 6.74 2.25 16.4 5.66 16.4 11.07 0 2.71-3.43 6.16-9.74 6.16m6.34-23.53c-6.75-2.09-14.17-5.37-14.17-9.88 0-3.9 3.57-5.44 7.83-5.44 6.11 0 10.33 2.86 10.33 7.43 0 4.76-2.2 7.02-3.99 7.9M2537 366.45c-6.06 0-8.24 1.79-9.63 3.28-.3-2.08-.5-3.67-.5-5.26 0-1.59.2-2.98.5-4.76.6-3.67 3.08-8.23 8.43-8.23 2.48 0 3.97.79 4.96 1.88a6.94 6.94 0 0 0-3.77 5.85 6.27 6.27 0 0 0 6.35 6.35 6.35 6.35 0 0 0 6.45-6.35v-.3c0-.89-.2-2.38-.6-3.17-1.28-3.57-5.45-8.83-15.37-8.83-8.93 0-15.38 8.53-17.36 13.1-1 2.38-2.48 7.24-2.48 12.8 0 6.04 1.69 12.89 7.54 18.05 5.75 4.36 9.42 4.56 12.9 4.56 3.47 0 16.46-4.07 16.46-15.57 0-9.72-7.64-13.4-13.89-13.4m-3.67 24.8c-3.27 0-5.95-4.46-5.95-10.01 0-5.56 2.68-10.12 5.95-10.12 3.28 0 6.06 4.56 6.06 10.12 0 5.55-2.78 10.01-6.06 10.01m11 26.86c3.3-2.49 5.6-5.65 5.6-9.63 0-7.18-7.83-13-17.48-13s-17.48 5.83-17.48 13c0 3.98 1 7.55 5.68 10.48-4.52 2.65-6.95 6.28-6.95 11.02 0 8.01 8.4 14.5 18.75 14.5 10.36 0 18.75-6.49 18.75-14.5-.01-4.74-1.73-9.25-6.87-11.87m-11.9 20.8c-6.3 0-11.79-3.45-11.79-8.98 0-6.65 5.13-8.25 5.13-8.25 6.75 2.25 16.41 5.66 16.41 11.07 0 2.71-3.43 6.16-9.74 6.16m6.34-23.53c-6.76-2.09-14.18-5.37-14.18-9.88 0-3.9 3.57-5.44 7.84-5.44 6.11 0 10.33 2.86 10.33 7.43 0 4.76-2.2 7.02-4 7.9M135.9 676.46c-6.06 0-8.24 1.79-9.63 3.27-.3-2.08-.5-3.67-.5-5.25 0-1.6.2-2.98.5-4.77.6-3.67 3.08-8.23 8.43-8.23 2.48 0 3.97.8 4.96 1.89-2.08.89-3.77 3.57-3.77 5.85a6.27 6.27 0 0 0 6.35 6.35 6.35 6.35 0 0 0 6.45-6.35v-.3c0-.9-.2-2.38-.6-3.17-1.28-3.57-5.45-8.83-15.37-8.83-8.93 0-15.38 8.53-17.36 13.1a34.9 34.9 0 0 0-2.48 12.79c0 6.05 1.69 12.9 7.54 18.05 5.75 4.37 9.42 4.57 12.9 4.57 3.47 0 16.46-4.07 16.46-15.58 0-9.72-7.64-13.39-13.89-13.39m-3.67 24.8c-3.27 0-5.95-4.46-5.95-10.02 0-5.55 2.68-10.12 5.95-10.12 3.28 0 6.05 4.57 6.05 10.12 0 5.56-2.77 10.02-6.05 10.02m11 26.86c3.3-2.5 5.6-5.66 5.6-9.64 0-7.18-7.83-13-17.49-13-9.65 0-17.48 5.83-17.48 13 0 3.98 1 7.55 5.69 10.49-4.52 2.65-6.96 6.28-6.96 11.01 0 8.02 8.4 14.51 18.75 14.51 10.36 0 18.75-6.5 18.75-14.51 0-4.73-1.72-9.25-6.86-11.86m-11.9 20.8c-6.3 0-11.8-3.45-11.8-8.99 0-6.65 5.14-8.24 5.14-8.24 6.74 2.25 16.4 5.65 16.4 11.07 0 2.7-3.43 6.16-9.74 6.16m6.34-23.53c-6.75-2.1-14.17-5.38-14.17-9.88 0-3.9 3.57-5.45 7.83-5.45 6.11 0 10.33 2.87 10.33 7.43 0 4.76-2.2 7.02-3.99 7.9m2378.75-65.94s.5 4.76.5 9.92v1.29c-.1 5.55-.5 12.1-.5 12.1s-.2 1.39.7 1.59c.89.2 2.97.69 3.47.79.6.1 1.19.1 1.48-.7.5-1.29 1.6-6.44 7.84-6.44 7.04 0 8.33 6.05 8.33 10.8 0 4.97-1.58 12.11-8.13 12.4h-.8c-2.28 0-3.56-.29-4.16-.69-.6-.2-.7-.89-.1-1.28.9-.6 3.97-1.7 3.97-6.55 0-4.86-3.37-6.75-7.24-6.75s-6.55 3.57-6.55 6.95c0 3.37 1 7.14 6.15 10.11 2.48 1.4 6.05 2.29 9.72 2.29 5.06 0 10.52-1.6 14.09-5.26a16.18 16.18 0 0 0 4.46-11.4c0-5.37-2.38-10.52-6.05-13-2.48-1.7-6.74-3.08-11.2-3.08a17 17 0 0 0-9.63 2.78c-.1.1-.3.1-.4.1-.4 0-.7-.3-.7-.7v-6.25c0-.6.5-1.09 1.1-1.09h.1c1.49.1 4.76.5 8.23.5 2.98 0 6.05-.3 8.24-1.2 4.66-1.88 6.25-5.55 7.04-7.63.1-.3.2-.7.2-1 0-.79-.5-1.38-1.79-1.38-.4 0-.8.1-1.39.2a49.74 49.74 0 0 1-12.3 1.58c-3.57 0-7.04-.4-11.3-.99 0 0-.5-.1-1.2-.1-1.09 0-2.38.3-2.18 2.09m27.91 68.67c3.3-2.5 5.6-5.66 5.6-9.64 0-7.18-7.83-13-17.48-13s-17.48 5.83-17.48 13c0 3.98 1 7.55 5.68 10.49-4.52 2.65-6.95 6.28-6.95 11.01 0 8.02 8.4 14.51 18.75 14.51 10.36 0 18.75-6.5 18.75-14.51-.01-4.73-1.73-9.25-6.87-11.86m-11.9 20.8c-6.3 0-11.79-3.45-11.79-8.99 0-6.65 5.13-8.24 5.13-8.24 6.75 2.25 16.41 5.65 16.41 11.07 0 2.7-3.43 6.16-9.74 6.16m6.34-23.53c-6.76-2.1-14.18-5.38-14.18-9.88 0-3.9 3.57-5.45 7.84-5.45 6.11 0 10.33 2.87 10.33 7.43 0 4.76-2.2 7.02-4 7.9M115.3 969.45s.5 4.76.5 9.92v1.29c-.1 5.55-.5 12.1-.5 12.1s-.19 1.39.7 1.59c.9.2 2.98.69 3.48.79.6.1 1.19.1 1.48-.7.5-1.29 1.6-6.44 7.84-6.44 7.04 0 8.33 6.05 8.33 10.8 0 4.97-1.58 12.11-8.13 12.4h-.8c-2.28 0-3.57-.29-4.16-.69-.6-.2-.7-.89-.1-1.29.9-.59 3.97-1.68 3.97-6.54s-3.37-6.75-7.24-6.75-6.55 3.57-6.55 6.95c0 3.37 1 7.14 6.15 10.11 2.48 1.4 6.05 2.29 9.72 2.29 5.06 0 10.52-1.6 14.09-5.26a16.18 16.18 0 0 0 4.46-11.4c0-5.37-2.38-10.52-6.05-13-2.48-1.7-6.75-3.08-11.2-3.08a17 17 0 0 0-9.63 2.78c-.1.1-.3.1-.4.1-.4 0-.7-.3-.7-.7v-6.25c0-.6.5-1.09 1.1-1.09h.1c1.49.1 4.76.5 8.23.5 2.98 0 6.05-.3 8.23-1.2 4.67-1.88 6.25-5.55 7.05-7.63.1-.3.2-.7.2-1 0-.79-.5-1.38-1.79-1.38-.4 0-.8.1-1.39.2a49.74 49.74 0 0 1-12.3 1.58c-3.57 0-7.04-.4-11.3-.99 0 0-.5-.1-1.2-.1-1.09 0-2.38.3-2.18 2.09m27.91 68.67c3.3-2.5 5.6-5.66 5.6-9.64 0-7.18-7.83-13-17.49-13-9.65 0-17.48 5.83-17.48 13 0 3.98 1 7.55 5.69 10.49-4.52 2.65-6.96 6.28-6.96 11.01 0 8.02 8.4 14.51 18.75 14.51 10.36 0 18.75-6.5 18.75-14.51 0-4.73-1.72-9.25-6.86-11.86m-11.9 20.8c-6.3 0-11.8-3.45-11.8-8.99 0-6.65 5.14-8.24 5.14-8.24 6.74 2.25 16.4 5.65 16.4 11.07 0 2.7-3.43 6.16-9.74 6.16m6.34-23.53c-6.75-2.1-14.17-5.38-14.17-9.88 0-3.9 3.57-5.45 7.83-5.45 6.11 0 10.33 2.87 10.33 7.43 0 4.76-2.2 7.02-3.99 7.9m2373.24-31.99h17.05v7.36h-8.17c-.77 0-1.4.63-1.4 1.4v1.9c0 .77.63 1.4 1.4 1.4h30.01c.77 0 1.4-.63 1.4-1.4v-1.9c0-.77-.63-1.4-1.4-1.4h-8.87v-7.36h8.87c.77 0 1.4-.62 1.4-1.4v-1.9c0-.77-.63-1.4-1.4-1.4h-8.87v-15.82c0-.54-.3-1.02-.77-1.25l-1.2-.6a1.4 1.4 0 0 0-1.58.23l-8.98 8.25a1.4 1.4 0 0 0-.45 1.03v8.17h-11.42s11.03-11.94 22.77-27.58c.87-1.14.37-2.18.18-2.37l-2.15-2.2c-.27-.25-.62-.4-1-.4-.59 0-14.03.02-14.74 0-.72-.02-1.25.6-1.32 1.21 0 0-.54 7.3-3.12 15.37-2.58 8.05-5.5 13-8.13 16.6 0 0-.54.98-.18 1.7.35.75.97 1.83.97 1.83s.26.53 1.1.53m31.04 34.72c3.3-2.5 5.6-5.66 5.6-9.64 0-7.18-7.83-13-17.48-13s-17.48 5.83-17.48 13c0 3.98 1 7.55 5.68 10.49-4.52 2.65-6.95 6.28-6.95 11.01 0 8.02 8.4 14.51 18.75 14.51 10.36 0 18.75-6.5 18.75-14.51-.01-4.73-1.73-9.25-6.87-11.86m-11.9 20.8c-6.3 0-11.79-3.45-11.79-8.99 0-6.65 5.13-8.24 5.13-8.24 6.75 2.25 16.41 5.65 16.41 11.07 0 2.7-3.43 6.16-9.74 6.16m6.34-23.53c-6.76-2.1-14.18-5.38-14.18-9.88 0-3.9 3.57-5.45 7.84-5.45 6.11 0 10.33 2.87 10.33 7.43 0 4.76-2.2 7.02-4 7.9" class="TimeSig" style="stroke-width:.992001"/><path fill-rule="evenodd" d="M237.86 79.32h652.7v12.4h-652.7v-12.4m-38.18 365.8h468.36v12.4H199.68v-12.4m38.18 254.2h514.8v12.4h-514.8v-12.4m-38.18 365.8h377.8v12.4h-377.8v-12.4" class="Beam"/><path d="M127.06 312.8c-2.94-2.1-4.32-3.66-5.64-6.54-1.86-4.02-2.82-9.54-2.82-16.14 0-5.88.78-10.92 2.34-14.88 1.38-3.6 2.82-5.4 6.12-7.74v-3c-4.02 2.1-6.3 3.84-9 6.96a28.66 28.66 0 0 0-6.96 18.66c0 6.42 2.1 12.54 6.06 17.58a27.5 27.5 0 0 0 9.9 8.1v-3m50.18-23.7c-.32-8.15-4.44-14.49-5.7-16.24 0-.03-.03-.05-.03-.06-.03-.11-.34-.49-2.4-2.85-2.48-2.86-6.24-7.2-7.5-9.14a36.78 36.78 0 0 1-4.04-8.57c-.06-.15-.47-1.78-.64-2.48l-.1-.39c-.07-.25-.31-.82-1.16-.82-.08 0-.16 0-.25.02-.7.08-1.08.68-1.08 1.2v46.08a9.92 9.92 0 0 0-4.1-1.27c-.45-.04-.9-.06-1.35-.06a18 18 0 0 0-8.4 2.26 17.28 17.28 0 0 0-7.2 6.94c-1.44 2.76-1.59 5.47-.42 7.64 1.39 2.57 4.4 3.9 7.96 3.9a18 18 0 0 0 8.42-2.25c5.15-2.78 8.36-7.37 8.38-11.38v-33.7a31.57 31.57 0 0 1 13.16 12.12l.34.58c1.31 2.22 3.1 5.25 3.1 10.8a61.4 61.4 0 0 1-2.03 15.5c-.2.75-.43 1.69.45 2.05a1 1 0 0 0 .37.08c.56 0 .82-.64 1.05-1.22l.02-.04a46.16 46.16 0 0 0 3.15-18.7m22.23 14.1h30.24v-6.9h-30.24v6.9m0-12.36h30.24v-6.9h-30.24v6.9m97.64-1.74c-.32-8.15-4.43-14.49-5.69-16.24l-.04-.06c-.02-.11-.34-.49-2.39-2.85-2.49-2.86-6.25-7.2-7.5-9.14a36.78 36.78 0 0 1-4.05-8.57c-.06-.15-.46-1.78-.63-2.48l-.1-.39c-.07-.25-.32-.82-1.17-.82-.08 0-.15 0-.24.02-.7.08-1.09.68-1.09 1.2v46.08a9.92 9.92 0 0 0-4.1-1.27c-.44-.04-.9-.06-1.35-.06a18 18 0 0 0-8.4 2.26 17.28 17.28 0 0 0-7.2 6.94c-1.43 2.76-1.58 5.47-.41 7.64 1.38 2.57 4.4 3.9 7.96 3.9 2.65 0 5.6-.73 8.41-2.25 5.16-2.78 8.37-7.37 8.38-11.38v-33.7a31.57 31.57 0 0 1 13.17 12.12l.34.58c1.3 2.22 3.1 5.25 3.1 10.8 0 5.12-.69 10.33-2.03 15.5-.2.75-.44 1.69.44 2.05a1 1 0 0 0 .37.08c.57 0 .83-.64 1.06-1.22l.02-.04a46.16 46.16 0 0 0 3.14-18.7m4.96-21.6c2.94 2.1 4.32 3.66 5.64 6.54 1.86 4.02 2.82 9.54 2.82 16.08 0 5.94-.78 10.98-2.34 14.94-1.38 3.6-2.82 5.46-6.12 7.74v3c4.02-2.1 6.3-3.84 9-6.96a28.7 28.7 0 0 0 6.96-18.72c0-6.36-2.1-12.48-6.06-17.52-2.82-3.66-5.52-5.82-9.9-8.1v3" class="Tempo"/><path d="M238.9 208.1h-2.2c-1.64 9-3.9 11.2-11.64 11.36h-2.1c-3-.1-3.75-.6-3.6-2.4v-25.2c0-2.5 0-2.65.3-3.1.4-.5 1.35-.65 4.2-.7h.9v-2.35h-16.4v2.35h.9c2.85.05 3.8.2 4.2.7.3.45.3.55.3 3.1v23.8c0 2.55 0 2.65-.3 3.1-.4.5-1.35.7-4.2.7h-.9v2.35h29.5l1.05-13.7m73.3-3.81h2.9c5.05.2 7.05 2.26 7.6 7.76l.25 2.55c.6 5.65 2.45 7.95 6.4 7.95 4.1 0 6.05-2.75 6.2-8.75h-2.1c-.2 3.45-.8 4.95-2.15 4.95-1.15 0-1.65-.85-2.5-4.3l-.8-3.15c-1.1-4.6-3.05-6.7-6.95-7.7 7.2-1 10.65-3.9 10.65-8.95 0-5.7-4.8-8.95-13.2-8.95h-17.3v2.35h.9c2.85.05 3.8.2 4.2.7.3.45.3.55.3 3.1v23.85c0 2.5 0 2.6-.3 3.1-.4.5-1.35.65-4.2.65h-.9v2.35h16.4v-2.35h-.9c-2.85 0-3.8-.15-4.2-.65-.3-.5-.3-.6-.3-3.1v-11.4m0-2.35v-11c-.1-2.75.15-2.95 3.45-2.9h2.7c4.95 0 7.2 2.1 7.2 6.65 0 2.55-.65 4.5-1.95 5.55-1.25 1.05-3.5 1.7-5.9 1.7h-5.5m112.4 6.14h-2.2c-1.65 9-3.9 11.2-11.65 11.36h-2.1c-3-.1-3.75-.6-3.6-2.4v-25.2c0-2.5 0-2.65.3-3.1.4-.5 1.35-.65 4.2-.7h.9v-2.35h-16.4v2.35h.9c2.85.05 3.8.2 4.2.7.3.45.3.55.3 3.1v23.8c0 2.55 0 2.65-.3 3.1-.4.5-1.35.7-4.2.7h-.9v2.35h29.5l1.05-13.7m73.31-3.81h2.9c5.05.2 7.05 2.26 7.6 7.76l.25 2.55c.6 5.65 2.45 7.95 6.4 7.95 4.1 0 6.05-2.75 6.2-8.75h-2.1c-.2 3.45-.8 4.95-2.15 4.95-1.15 0-1.65-.85-2.5-4.3l-.8-3.15c-1.1-4.6-3.05-6.7-6.95-7.7 7.2-1 10.65-3.9 10.65-8.95 0-5.7-4.8-8.95-13.2-8.95h-17.3v2.35h.9c2.85.05 3.8.2 4.2.7.3.45.3.55.3 3.1v23.85c0 2.5 0 2.6-.3 3.1-.4.5-1.35.65-4.2.65h-.9v2.35h16.4v-2.35h-.9c-2.85 0-3.8-.15-4.2-.65-.3-.5-.3-.6-.3-3.1v-11.4m0-2.35v-11c-.1-2.75.15-2.95 3.45-2.9h2.7c4.95 0 7.2 2.1 7.2 6.65 0 2.55-.65 4.5-1.95 5.55-1.25 1.05-3.5 1.7-5.9 1.7h-5.5m112.4 6.14h-2.2c-1.65 9-3.9 11.2-11.65 11.36h-2.1c-3-.1-3.75-.6-3.6-2.4v-25.2c0-2.5 0-2.65.3-3.1.4-.5 1.35-.65 4.2-.7h.9v-2.35h-16.4v2.35h.9c2.85.05 3.8.2 4.2.7.3.45.3.55.3 3.1v23.8c0 2.55 0 2.65-.3 3.1-.4.5-1.35.7-4.2.7h-.9v2.35h29.5l1.05-13.7m73.3-3.81h2.9c5.05.2 7.05 2.26 7.6 7.76l.25 2.55c.6 5.65 2.45 7.95 6.4 7.95 4.1 0 6.05-2.75 6.2-8.75h-2.1c-.2 3.45-.8 4.95-2.15 4.95-1.15 0-1.65-.85-2.5-4.3l-.8-3.15c-1.1-4.6-3.05-6.7-6.95-7.7 7.2-1 10.65-3.9 10.65-8.95 0-5.7-4.8-8.95-13.2-8.95h-17.3v2.35h.9c2.85.05 3.8.2 4.2.7.3.45.3.55.3 3.1v23.85c0 2.5 0 2.6-.3 3.1-.4.5-1.35.65-4.2.65h-.9v2.35h16.4v-2.35h-.9c-2.85 0-3.8-.15-4.2-.65-.3-.5-.3-.6-.3-3.1v-11.4m0-2.35v-11c-.1-2.75.15-2.95 3.45-2.9h2.7c4.95 0 7.2 2.1 7.2 6.65 0 2.55-.65 4.5-1.95 5.55-1.25 1.05-3.5 1.7-5.9 1.7h-5.5m112.4 6.14h-2.2c-1.65 9-3.9 11.2-11.65 11.36h-2.1c-3-.1-3.75-.6-3.6-2.4v-25.2c0-2.5 0-2.65.3-3.1.4-.5 1.35-.65 4.2-.7h.9v-2.35h-16.4v2.35h.9c2.85.05 3.8.2 4.2.7.3.45.3.55.3 3.1v23.8c0 2.55 0 2.65-.3 3.1-.4.5-1.35.7-4.2.7h-.9v2.35h29.5l1.05-13.7m73.3-3.81h2.9c5.05.2 7.05 2.26 7.6 7.76l.25 2.55c.6 5.65 2.45 7.95 6.4 7.95 4.1 0 6.05-2.75 6.2-8.75h-2.1c-.2 3.45-.8 4.95-2.15 4.95-1.15 0-1.65-.85-2.5-4.3l-.8-3.15c-1.1-4.6-3.05-6.7-6.95-7.7 7.2-1 10.65-3.9 10.65-8.95 0-5.7-4.8-8.95-13.2-8.95h-17.3v2.35h.9c2.85.05 3.8.2 4.2.7.3.45.3.55.3 3.1v23.85c0 2.5 0 2.6-.3 3.1-.4.5-1.35.65-4.2.65h-.9v2.35h16.4v-2.35h-.9c-2.85 0-3.8-.15-4.2-.65-.3-.5-.3-.6-.3-3.1v-11.4m0-2.35v-11c-.1-2.75.15-2.95 3.45-2.9h2.7c4.95 0 7.2 2.1 7.2 6.65 0 2.55-.65 4.5-1.95 5.55-1.25 1.05-3.5 1.7-5.9 1.7h-5.5m177.52 6.14h-2.2c-1.65 9-3.9 11.2-11.65 11.36h-2.1c-3-.1-3.75-.6-3.6-2.4v-25.2c0-2.5 0-2.65.3-3.1.4-.5 1.35-.65 4.2-.7h.9v-2.35h-16.4v2.35h.9c2.85.05 3.8.2 4.2.7.3.45.3.55.3 3.1v23.8c0 2.55 0 2.65-.3 3.1-.4.5-1.35.7-4.2.7h-.9v2.35h29.5l1.05-13.7m9.4 8.15a3.13 3.13 0 1 0-.05 6.25 3.13 3.13 0 0 0 .05-6.25m16.65 0a3.13 3.13 0 1 0-.05 6.25 3.13 3.13 0 0 0 .05-6.25m16.65 0a3.13 3.13 0 1 0-.05 6.25 3.13 3.13 0 0 0 .05-6.25m286.68-20.56h-2.2c-1.65 9-3.9 11.2-11.65 11.36h-2.1c-3-.1-3.75-.6-3.6-2.4v-25.2c0-2.5 0-2.65.3-3.1.4-.5 1.35-.65 4.2-.7h.9v-2.35h-16.4v2.35h.9c2.85.05 3.8.2 4.2.7.3.45.3.55.3 3.1v23.8c0 2.55 0 2.65-.3 3.1-.4.5-1.35.7-4.2.7h-.9v2.35h29.5l1.05-13.7m9.4 8.15a3.13 3.13 0 1 0-.05 6.25 3.13 3.13 0 0 0 .05-6.25m16.65 0a3.13 3.13 0 1 0-.05 6.25 3.13 3.13 0 0 0 .05-6.25m16.65 0a3.13 3.13 0 1 0-.05 6.25 3.13 3.13 0 0 0 .05-6.25m486.02-20.44h-2.2c-1.65 9-3.9 11.2-11.65 11.35h-2.1c-3-.1-3.75-.6-3.6-2.4v-25.2c0-2.5 0-2.65.3-3.1.4-.5 1.35-.65 4.2-.7h.9v-2.35h-16.4v2.35h.9c2.85.05 3.8.2 4.2.7.3.45.3.55.3 3.1v23.8c0 2.55 0 2.65-.3 3.1-.4.5-1.35.7-4.2.7h-.9v2.35h29.5l1.05-13.7m9.4 8.15a3.13 3.13 0 1 0-.05 6.25 3.13 3.13 0 0 0 .05-6.25m16.65 0a3.13 3.13 0 1 0-.05 6.25 3.13 3.13 0 0 0 .05-6.25m16.65 0a3.13 3.13 0 1 0-.05 6.25 3.13 3.13 0 0 0 .05-6.25m289.07-3.06h-2.2c-1.65 9-3.9 11.2-11.65 11.35h-2.1c-3-.1-3.75-.6-3.6-2.4v-25.2c0-2.5 0-2.65.3-3.1.4-.5 1.35-.65 4.2-.7h.9v-2.35h-16.4v2.35h.9c2.85.05 3.8.2 4.2.7.3.45.3.55.3 3.1v23.8c0 2.55 0 2.65-.3 3.1-.4.5-1.35.7-4.2.7h-.9v2.35h29.5l1.05-13.7m9.4 8.15a3.13 3.13 0 1 0-.06 6.26 3.13 3.13 0 0 0 .05-6.26m16.65 0a3.13 3.13 0 1 0-.05 6.26 3.13 3.13 0 0 0 .05-6.26m16.65 0a3.13 3.13 0 1 0-.05 6.26 3.13 3.13 0 0 0 .05-6.26M230.23 493.42h-2.2c-1.65 9-3.9 11.2-11.65 11.35h-2.1c-3-.1-3.75-.6-3.6-2.4v-25.2c0-2.5 0-2.65.3-3.1.4-.5 1.35-.65 4.2-.7h.9v-2.35h-16.4v2.35h.9c2.85.05 3.8.2 4.2.7.3.45.3.55.3 3.1v23.8c0 2.55 0 2.65-.3 3.1-.4.5-1.35.7-4.2.7h-.9v2.35h29.5l1.05-13.7m58.06-3.8h2.9c5.05.2 7.05 2.25 7.6 7.75l.25 2.55c.6 5.65 2.45 7.95 6.4 7.95 4.1 0 6.05-2.75 6.2-8.75h-2.1c-.2 3.45-.8 4.95-2.15 4.95-1.15 0-1.65-.85-2.5-4.3l-.8-3.15c-1.1-4.6-3.05-6.7-6.95-7.7 7.2-1 10.65-3.9 10.65-8.95 0-5.7-4.8-8.95-13.2-8.95h-17.3v2.35h.9c2.85.05 3.8.2 4.2.7.3.45.3.55.3 3.1v23.85c0 2.5 0 2.6-.3 3.1-.4.5-1.35.65-4.2.65h-.9v2.35h16.4v-2.35h-.9c-2.85 0-3.8-.15-4.2-.65-.3-.5-.3-.6-.3-3.1v-11.4m0-2.35v-11c-.1-2.75.15-2.95 3.45-2.9h2.7c4.95 0 7.2 2.1 7.2 6.65 0 2.55-.65 4.5-1.95 5.55-1.25 1.05-3.5 1.7-5.9 1.7h-5.5m97.15 6.15h-2.2c-1.65 9-3.9 11.2-11.65 11.35h-2.1c-3-.1-3.75-.6-3.6-2.4v-25.2c0-2.5 0-2.65.3-3.1.4-.5 1.35-.65 4.2-.7h.9v-2.35h-16.4v2.35h.9c2.85.05 3.8.2 4.2.7.3.45.3.55.3 3.1v23.8c0 2.55 0 2.65-.3 3.1-.4.5-1.35.7-4.2.7h-.9v2.35h29.5l1.05-13.7m58.06-3.8h2.9c5.05.2 7.05 2.25 7.6 7.75l.25 2.55c.6 5.65 2.45 7.95 6.4 7.95 4.1 0 6.05-2.75 6.2-8.75h-2.1c-.2 3.45-.8 4.95-2.15 4.95-1.15 0-1.65-.85-2.5-4.3l-.8-3.15c-1.1-4.6-3.05-6.7-6.95-7.7 7.2-1 10.65-3.9 10.65-8.95 0-5.7-4.8-8.95-13.2-8.95h-17.3v2.35h.9c2.85.05 3.8.2 4.2.7.3.45.3.55.3 3.1v23.85c0 2.5 0 2.6-.3 3.1-.4.5-1.35.65-4.2.65h-.9v2.35h16.4v-2.35h-.9c-2.85 0-3.8-.15-4.2-.65-.3-.5-.3-.6-.3-3.1v-11.4m0-2.35v-11c-.1-2.75.15-2.95 3.45-2.9h2.7c4.95 0 7.2 2.1 7.2 6.65 0 2.55-.65 4.5-1.95 5.55-1.25 1.05-3.5 1.7-5.9 1.7h-5.5m97.15 6.15h-2.2c-1.65 9-3.9 11.2-11.65 11.35h-2.1c-3-.1-3.75-.6-3.6-2.4v-25.2c0-2.5 0-2.65.3-3.1.4-.5 1.35-.65 4.2-.7h.9v-2.35h-16.4v2.35h.9c2.85.05 3.8.2 4.2.7.3.45.3.55.3 3.1v23.8c0 2.55 0 2.65-.3 3.1-.4.5-1.35.7-4.2.7h-.9v2.35h29.5l1.05-13.7m58.05-3.8h2.9c5.06.2 7.06 2.25 7.6 7.75l.26 2.55c.6 5.65 2.45 7.95 6.4 7.95 4.1 0 6.05-2.75 6.2-8.75h-2.1c-.2 3.45-.8 4.95-2.15 4.95-1.15 0-1.65-.85-2.5-4.3l-.8-3.15c-1.1-4.6-3.05-6.7-6.95-7.7 7.2-1 10.65-3.9 10.65-8.95 0-5.7-4.8-8.95-13.2-8.95h-17.3v2.35h.9c2.85.05 3.8.2 4.2.7.3.45.3.55.3 3.1v23.85c0 2.5 0 2.6-.3 3.1-.4.5-1.35.65-4.2.65h-.9v2.35h16.4v-2.35h-.9c-2.85 0-3.8-.15-4.2-.65-.3-.5-.3-.6-.3-3.1v-11.4m0-2.35v-11c-.1-2.75.15-2.95 3.45-2.9h2.7c4.95 0 7.2 2.1 7.2 6.65 0 2.55-.65 4.5-1.95 5.55-1.25 1.05-3.5 1.7-5.9 1.7h-5.5m97.15 6.15h-2.2c-1.65 9-3.9 11.2-11.65 11.35h-2.1c-3-.1-3.75-.6-3.6-2.4v-25.2c0-2.5 0-2.65.3-3.1.4-.5 1.35-.65 4.2-.7h.9v-2.35h-16.4v2.35h.9c2.85.05 3.8.2 4.2.7.3.45.3.55.3 3.1v23.8c0 2.55 0 2.65-.3 3.1-.4.5-1.35.7-4.2.7h-.9v2.35h29.5l1.05-13.7m94.76 21.26h2.9c5.05.2 7.05 2.25 7.6 7.75l.25 2.55c.6 5.65 2.45 7.95 6.4 7.95 4.1 0 6.05-2.75 6.2-8.75h-2.1c-.2 3.45-.8 4.95-2.15 4.95-1.15 0-1.65-.85-2.5-4.3l-.8-3.15c-1.1-4.6-3.05-6.7-6.95-7.7 7.2-1 10.65-3.9 10.65-8.95 0-5.7-4.8-8.95-13.2-8.95h-17.3v2.35h.9c2.85.05 3.8.2 4.2.7.3.45.3.55.3 3.1v23.85c0 2.5 0 2.6-.3 3.1-.4.5-1.35.65-4.2.65h-.9v2.35h16.4v-2.35h-.9c-2.85 0-3.8-.15-4.2-.65-.3-.5-.3-.6-.3-3.1v-11.4m0-2.35v-11c-.1-2.75.15-2.95 3.45-2.9h2.7c4.95 0 7.2 2.1 7.2 6.65 0 2.55-.65 4.5-1.95 5.55-1.25 1.05-3.5 1.7-5.9 1.7h-5.5m32.14 14.3a3.13 3.13 0 1 0-.05 6.25 3.13 3.13 0 0 0 .05-6.25m16.65 0a3.13 3.13 0 1 0-.05 6.25 3.13 3.13 0 0 0 .05-6.25m16.65 0a3.13 3.13 0 1 0-.05 6.25 3.13 3.13 0 0 0 .05-6.25m360.05-8.15h-2.2c-1.65 9-3.9 11.2-11.65 11.35h-2.1c-3-.1-3.75-.6-3.6-2.4v-25.2c0-2.5 0-2.65.3-3.1.4-.5 1.35-.65 4.2-.7h.9v-2.35h-16.4v2.35h.9c2.85.05 3.8.2 4.2.7.3.45.3.55.3 3.1v23.8c0 2.55 0 2.65-.3 3.1-.4.5-1.35.7-4.2.7h-.9v2.35h29.5l1.05-13.7m9.4 8.15a3.13 3.13 0 1 0-.05 6.25 3.13 3.13 0 0 0 .05-6.25m16.65 0a3.13 3.13 0 1 0-.05 6.25 3.13 3.13 0 0 0 .05-6.25m16.65 0a3.13 3.13 0 1 0-.05 6.25 3.13 3.13 0 0 0 .05-6.25m505.81 7.27h-2.2c-1.65 9-3.9 11.2-11.65 11.36h-2.1c-3-.1-3.75-.6-3.6-2.4v-25.2c0-2.5 0-2.65.3-3.1.4-.5 1.35-.65 4.2-.7h.9v-2.35h-16.4v2.35h.9c2.85.05 3.8.2 4.2.7.3.45.3.55.3 3.1v23.8c0 2.55 0 2.65-.3 3.1-.4.5-1.35.7-4.2.7h-.9v2.35h29.5l1.05-13.7m9.4 8.15a3.13 3.13 0 1 0-.06 6.25 3.13 3.13 0 0 0 .05-6.25m16.65 0a3.13 3.13 0 1 0-.05 6.25 3.13 3.13 0 0 0 .05-6.25m16.65 0a3.13 3.13 0 1 0-.05 6.25 3.13 3.13 0 0 0 .05-6.25M2151.02 532h2.9c5.05.2 7.05 2.25 7.6 7.75l.25 2.55c.6 5.65 2.45 7.95 6.4 7.95 4.1 0 6.05-2.75 6.2-8.75h-2.1c-.2 3.45-.8 4.95-2.15 4.95-1.15 0-1.65-.85-2.5-4.3l-.8-3.15c-1.1-4.6-3.05-6.7-6.95-7.7 7.2-1 10.65-3.9 10.65-8.95 0-5.7-4.8-8.95-13.2-8.95h-17.3v2.35h.9c2.85.05 3.8.2 4.2.7.3.45.3.55.3 3.1v23.85c0 2.5 0 2.6-.3 3.1-.4.5-1.35.65-4.2.65h-.9v2.35h16.4v-2.35h-.9c-2.85 0-3.8-.15-4.2-.65-.3-.5-.3-.6-.3-3.1V532m0-2.35v-11c-.1-2.75.15-2.95 3.45-2.9h2.7c4.95 0 7.2 2.1 7.2 6.65 0 2.55-.65 4.5-1.95 5.55-1.25 1.05-3.5 1.7-5.9 1.7h-5.5m32.14 14.3a3.13 3.13 0 1 0-.05 6.25 3.13 3.13 0 0 0 .05-6.25m16.65 0a3.13 3.13 0 1 0-.05 6.25 3.13 3.13 0 0 0 .05-6.25m16.65 0a3.13 3.13 0 1 0-.05 6.25 3.13 3.13 0 0 0 .05-6.25M238.9 828.11h-2.2c-1.64 9-3.9 11.2-11.64 11.35h-2.1c-3-.1-3.75-.6-3.6-2.4v-25.2c0-2.5 0-2.65.3-3.1.4-.5 1.35-.65 4.2-.7h.9v-2.35h-16.4v2.35h.9c2.85.05 3.8.2 4.2.7.3.45.3.55.3 3.1v23.8c0 2.55 0 2.65-.3 3.1-.4.5-1.35.7-4.2.7h-.9v2.35h29.5l1.05-13.7m9.4 8.15a3.13 3.13 0 1 0-.05 6.25 3.13 3.13 0 0 0 .04-6.25m16.65 0a3.13 3.13 0 1 0-.04 6.25 3.13 3.13 0 0 0 .04-6.25m16.65 0a3.13 3.13 0 1 0-.04 6.25 3.13 3.13 0 0 0 .04-6.25" class="StaffText"/><path d="M1020.61 383.12a4.96 4.96 0 1 0 9.92 0 4.96 4.96 0 0 0-9.92 0m405.95 0a4.96 4.96 0 1 0 9.92 0 4.96 4.96 0 0 0-9.92 0m548.5 74.4a4.96 4.96 0 1 0 9.92 0 4.96 4.96 0 0 0-9.92 0m405.95 0a4.96 4.96 0 1 0 9.92 0 4.96 4.96 0 0 0-9.92 0m-1448.41 310a4.96 4.96 0 1 0 9.92 0 4.96 4.96 0 0 0-9.92 0m363.18 0a4.96 4.96 0 1 0 9.92 0 4.96 4.96 0 0 0-9.92 0m552.79-49.6a4.96 4.96 0 1 0 9.92 0 4.96 4.96 0 0 0-9.92 0m363.18-24.8a4.96 4.96 0 1 0 9.92 0 4.96 4.96 0 0 0-9.92 0m-1461.9 310a4.96 4.96 0 1 0 9.92 0 4.96 4.96 0 0 0-9.92 0m423.3 0a4.96 4.96 0 1 0 9.92 0 4.96 4.96 0 0 0-9.92 0m565.86 74.4a4.96 4.96 0 1 0 9.92 0 4.96 4.96 0 0 0-9.92 0m423.31 0a4.96 4.96 0 1 0 9.92 0 4.96 4.96 0 0 0-9.92 0" class="NoteDot" style="stroke-width:.992001"/><path fill-rule="evenodd" d="m1017.53 104.12 29.76-12.4v12.4l-29.76 12.4v-12.4m329.38-12.4 29.76-12.4v12.4l-29.76 12.4v-12.4m528.72-49.6 29.76-12.4v12.4l-29.76 12.4v-12.4m331.77 99.2 29.75-12.4v12.4l-29.76 12.4v-12.4m-1441.29 310 29.76-12.4v12.4l-29.76 12.4v-12.4m196.36 0 29.76-12.4v12.4l-29.76 12.4v-12.4m209.59 0 29.76-12.4v12.4l-29.76 12.4v-12.4m196.36 0 29.76-12.4v12.4l-29.76 12.4v-12.4m381.64-49.6 29.76-12.4v12.4l-29.76 12.4v-12.4m196.37 0 29.76-12.4v12.4l-29.76 12.4v-12.4m209.58 0 29.76-12.4v12.4l-29.76 12.4v-12.4m196.37 0 29.76-12.4v12.4l-29.76 12.4v-12.4M903.96 724.12l29.76-12.4v12.4l-29.76 12.4v-12.4m363.17-12.4 29.76-12.4v12.4l-29.76 12.4v-12.4m552.8-49.6 29.76-12.4v12.4l-29.76 12.4v-12.4m333.67 99.2 29.76-12.4v12.4l-29.76 12.4v-12.4m-1461.9 310 29.76-12.4v12.4l-29.76 12.4v-12.4m213.15 0 29.76-12.4v12.4l-29.76 12.4v-12.4m210.16 0 29.76-12.4v12.4l-29.76 12.4v-12.4m213.15 0 29.76-12.4v12.4l-29.76 12.4v-12.4m382.21-49.6 29.76-12.4v12.4l-29.76 12.4v-12.4m213.15 0 29.76-12.4v12.4l-29.76 12.4v-12.4m210.15 0 29.76-12.4v12.4l-29.76 12.4v-12.4m213.16 0 29.76-12.4v12.4l-29.76 12.4v-12.4" class="Tremolo"/></svg>