<svg xmlns="http://www.w3.org/2000/svg" width="2551.19" height="1131.83" version="1.2"><path fill="none" stroke="#000" stroke-linejoin="bevel" stroke-width="2.73" d="M0 58.03h952.54M0 82.83h952.54M0 107.63h952.54M0 132.43h952.54M0 157.23h952.54m0-99.2h352.31m-352.31 24.8h352.31m-352.31 24.8h352.31m-352.31 24.8h352.31m-352.31 24.8h352.31m0-99.2h337m-337 24.8h337m-337 24.8h337m-337 24.8h337m-337 24.8h337m124-99.2h400.1m-400.1 24.8h400.1m-400.1 24.8h400.1m-400.1 24.8h400.1m-400.1 24.8h400.1m0-99.2h385.23m-385.23 24.8h385.23m-385.23 24.8h385.23m-385.23 24.8h385.23m-385.23 24.8h385.23M0 368.03h813.33M0 392.83h813.33M0 417.63h813.33M0 442.43h813.33M0 467.23h813.33m0-99.2h378.13m-378.13 24.8h378.13m-378.13 24.8h378.13m-378.13 24.8h378.13m-378.13 24.8h378.13m0-99.2h393.8m-393.8 24.8h393.8m-393.8 24.8h393.8m-393.8 24.8h393.8m-393.8 24.8h393.8m124-99.2h403.67m-403.67 24.8h403.67m-403.67 24.8h403.67m-403.67 24.8h403.67m-403.67 24.8h403.67m0-99.2h438.25m-438.25 24.8h438.25m-438.25 24.8h438.25m-438.25 24.8h438.25m-438.25 24.8h438.25M0 678.03h823.84M0 702.83h823.84M0 727.63h823.84M0 752.43h823.84M0 777.23h823.84m0-99.2h388.12m-388.12 24.8h388.12m-388.12 24.8h388.12m-388.12 24.8h388.12m-388.12 24.8h388.12m0-99.2h359.71m-359.71 24.8h359.71m-359.71 24.8h359.71m-359.71 24.8h359.71m-359.71 24.8h359.71m124-99.2h434m-434 24.8h434m-434 24.8h434m-434 24.8h434m-434 24.8h434m0-99.2h421.51m-421.51 24.8h421.51m-421.51 24.8h421.51m-421.51 24.8h421.51m-421.51 24.8h421.51M0 988.03h706.47M0 1012.83h706.47M0 1037.63h706.47M0 1062.43h706.47M0 1087.23h706.47m0-99.2h405.77m-405.77 24.8h405.77m-405.77 24.8h405.77m-405.77 24.8h405.77m-405.77 24.8h405.77m0-99.2H1525m-412.76 24.8H1525m-412.76 24.8H1525m-412.76 24.8H1525m-412.76 24.8H1525m124-99.2h431.32m-431.32 24.8h431.32m-431.32 24.8h431.32m-431.32 24.8h431.32m-431.32 24.8h431.32m0-99.2h470.86m-470.86 24.8h470.86m-470.86 24.8h470.86m-470.86 24.8h470.86m-470.86 24.8h470.86" class="StaffLines"/><path d="M1680.58 103.27a4.38 4.38 0 1 0-.06 8.75 4.38 4.38 0 0 0 .06-8.75m23.31 0a4.38 4.38 0 1 0-.06 8.75 4.38 4.38 0 0 0 .06-8.75m23.31 0a4.38 4.38 0 1 0-.06 8.75 4.38 4.38 0 0 0 .06-8.75m-103.2 310a4.38 4.38 0 1 0-.06 8.75 4.38 4.38 0 0 0 .06-8.75m23.31 0a4.38 4.38 0 1 0-.06 8.75 4.38 4.38 0 0 0 .06-8.75m23.31 0a4.38 4.38 0 1 0-.06 8.75 4.38 4.38 0 0 0 .06-8.75m-60.22 310a4.38 4.38 0 1 0-.06 8.76 4.38 4.38 0 0 0 .06-8.76m23.31 0a4.38 4.38 0 1 0-.06 8.76 4.38 4.38 0 0 0 .06-8.76m23.31 0a4.38 4.38 0 1 0-.06 8.76 4.38 4.38 0 0 0 .06-8.76m-93.28 310a4.38 4.38 0 1 0-.06 8.76 4.38 4.38 0 0 0 .06-8.76m23.31 0a4.38 4.38 0 1 0-.06 8.76 4.38 4.38 0 0 0 .06-8.76m23.31 0a4.38 4.38 0 1 0-.06 8.76 4.38 4.38 0 0 0 .06-8.76" class="Text"/><path fill-rule="evenodd" stroke="#000" stroke-linecap="round" stroke-linejoin="round" stroke-width="1.74" d="M890.35 427.3c28.97 18.54 115.86 18.54 144.83 0-28.97 25.49-115.86 25.49-144.83 0m0-106.14c28.97-25.48 115.86-25.48 144.83 0-28.97-18.54-115.86-18.54-144.83 0m393.8 106.14c28.97 18.54 115.86 18.54 144.83 0-28.97 25.49-115.86 25.49-144.83 0m0-106.14c28.97-25.48 115.86-25.48 144.83 0-28.97-18.54-115.86-18.54-144.83 0m527.68 168.14c28.96 18.54 115.86 18.54 144.82 0-28.96 25.49-115.86 25.49-144.82 0m0-106.14c28.96-25.48 115.86-25.48 144.82 0-28.96-18.54-115.86-18.54-144.82 0m385.11 106.14c28.97 18.54 115.87 18.54 144.83 0-28.96 25.49-115.86 25.49-144.83 0m0-106.14c28.97-25.48 115.87-25.48 144.83 0-28.96-18.54-115.86-18.54-144.83 0M783.5 1047.3c33.41 21.93 133.7 21.93 167.12 0-33.43 28.87-133.7 28.87-167.13 0m.01-106.14c33.41-28.88 133.7-28.88 167.12 0-33.43-21.93-133.7-21.93-167.13 0m412.76 106.14c33.43 21.93 133.7 21.93 167.13 0-33.43 28.87-133.7 28.87-167.13 0m0-106.14c33.43-28.88 133.7-28.88 167.13 0-33.43-21.93-133.7-21.93-167.13 0m555.32 168.14c33.42 21.93 133.7 21.93 167.12 0-33.42 28.87-133.7 28.87-167.12 0m0-106.14c33.42-28.88 133.7-28.88 167.12 0-33.42-21.93-133.7-21.93-167.12 0m412.76 106.14c33.42 21.93 133.7 21.93 167.12 0-33.42 28.87-133.7 28.87-167.12 0m0-106.14c33.42-28.88 133.7-28.88 167.12 0-33.42-21.93-133.7-21.93-167.12 0" class="TieSegment"/><path stroke="#000" stroke-linejoin="bevel" stroke-width="4.46" d="M950.3 56.67V158.6m352.32-101.93V158.6m337-101.93V158.6m128.46-101.93V158.6m395.64-101.93V158.6m332.1-101.93V158.6M811.1 366.67V468.6m378.13-101.93V468.6m393.8-101.93V468.6m128.47-101.93V468.6m399.2-101.93V468.6m385.12-101.93V468.6M821.61 676.67V778.6m388.12-101.93V778.6m359.7-101.93V778.6m128.47-101.93V778.6m429.54-101.93V778.6m368.38-101.93V778.6M704.24 986.67v101.92m405.77-101.92v101.92m412.76-101.92v101.92m128.46-101.92v101.92m426.85-101.92v101.92m412.77-101.92v101.92" class="BarLine"/><path d="M994.85 171.52c.6-.1 1.09-.8 1.09-1.4v-5.84c0-.8-.6-1.4-1.4-1.4h-.19l-3.27.7V148.8h-2.78v15.38l-8.83 1.78v-13.99h-2.78v14.59l-3.87.79c-.6.1-1.09.8-1.09 1.39v5.95-.2c0 .8.6 1.4 1.4 1.4h.29l3.27-.7v16.37l-3.87.79c-.6.1-1.09.8-1.09 1.39v5.75c0 .8.6 1.39 1.4 1.39h.29l3.27-.7v14.79h2.78v-15.38l8.83-1.79v14h2.78v-14.6l3.77-.7c.6-.1 1.09-.79 1.09-1.38v-5.86c0-.79-.6-1.39-1.4-1.39h-.19l-3.27.7V172.2l3.77-.7m-15.38 19.55v-16.47l8.83-1.78v16.36l-8.83 1.89m15.38-106.33c.6-.1 1.09-.8 1.09-1.4v-5.84c0-.8-.6-1.4-1.4-1.4h-.19l-3.27.7V62h-2.78v15.38l-8.83 1.78V65.17h-2.78v14.59l-3.87.79c-.6.1-1.09.8-1.09 1.39v5.95-.2c0 .8.6 1.4 1.4 1.4h.29l3.27-.7v16.37l-3.87.79c-.6.1-1.09.8-1.09 1.39v5.75c0 .8.6 1.39 1.4 1.39h.29l3.27-.7v14.79h2.78v-15.38l8.83-1.79v14h2.78v-14.6l3.77-.7c.6-.1 1.09-.79 1.09-1.38v-5.86c0-.79-.6-1.39-1.4-1.39h-.19l-3.27.7V85.4l3.77-.7m-15.38 19.55V87.79l8.83-1.78v16.36l-8.83 1.89m879.33 5.26c.6-.1 1.1-.8 1.1-1.4v-5.84c0-.8-.6-1.4-1.4-1.4h-.19l-3.27.7V86.8h-2.78v15.38l-8.83 1.78V89.97h-2.78v14.59l-3.87.79c-.6.1-1.09.8-1.09 1.39v5.95-.2c0 .8.6 1.4 1.4 1.4h.29l3.27-.7v16.37l-3.87.79c-.6.1-1.09.8-1.09 1.39v5.75c0 .8.6 1.39 1.4 1.39h.29l3.27-.7v14.79h2.78v-15.38l8.83-1.79v14h2.78v-14.6l3.77-.7c.6-.1 1.09-.79 1.09-1.38v-5.86c0-.79-.6-1.39-1.4-1.39h-.19l-3.27.7V110.2l3.77-.7m-15.38 19.55v-16.47l8.83-1.78v16.36l-8.83 1.89m15.37-106.33c.6-.1 1.1-.8 1.1-1.4v-5.84c0-.8-.6-1.4-1.4-1.4h-.19l-3.27.7V0h-2.78v15.38l-8.83 1.78V3.17h-2.78v14.59l-3.87.79c-.6.1-1.09.8-1.09 1.39v5.95-.2c0 .8.6 1.4 1.4 1.4h.29l3.27-.7v16.37l-3.87.79c-.6.1-1.09.8-1.09 1.39v5.75c0 .8.6 1.39 1.4 1.39h.29l3.27-.7v14.79h2.78V50.79l8.83-1.79v14h2.78V48.4l3.77-.7c.6-.1 1.09-.79 1.09-1.38v-5.86c0-.79-.6-1.39-1.4-1.39h-.19l-3.27.7V23.4l3.77-.7m-15.38 19.55V25.79l8.83-1.78v16.36l-8.83 1.89M1232.98 409.8c-.6-3.87-2.97-7.54-8.03-7.54-4.96 0-7.84 3.07-8.34 3.67l.4-31.85c0-.79-.6-1.39-1.39-1.39h-1.19c-.8 0-1.39.6-1.39 1.4l.5 59.61c0 .8.6 1.4 1.39 1.4.2 0 .6-.1.79-.2.4-.2 6.85-3.38 12.2-9.43a20.13 20.13 0 0 0 5.26-13.2c0-.89-.1-1.68-.2-2.47m-6.84 3.86c0 1.5-.4 6.06-2.88 9.82-1.69 2.58-5.06 5.26-6.94 6.75l.3-19.34c.2-.9 1.68-3.77 5.65-3.77 3.57 0 3.87 3.37 3.87 5.45v1.1m6.84-90.67c-.6-3.87-2.97-7.54-8.03-7.54-4.96 0-7.84 3.07-8.34 3.67l.4-31.85c0-.79-.6-1.39-1.39-1.39h-1.19c-.8 0-1.39.6-1.39 1.4l.5 59.61c0 .8.6 1.4 1.39 1.4.2 0 .6-.1.79-.2.4-.2 6.85-3.38 12.2-9.43a20.13 20.13 0 0 0 5.26-13.2c0-.89-.1-1.68-.2-2.47m-6.84 3.86c0 1.5-.4 6.06-2.88 9.82-1.69 2.58-5.06 5.26-6.94 6.75l.3-19.34c.2-.9 1.68-3.77 5.65-3.77 3.57 0 3.87 3.37 3.87 5.45v1.1m928.31 144.93c-.6-3.87-2.97-7.54-8.03-7.54-4.96 0-7.84 3.07-8.34 3.67l.4-31.85c0-.79-.6-1.39-1.39-1.39h-1.19c-.8 0-1.39.6-1.39 1.4l.5 59.61c0 .8.6 1.4 1.39 1.4.2 0 .6-.1.79-.2.4-.2 6.85-3.38 12.2-9.43a20.13 20.13 0 0 0 5.26-13.2c0-.89-.1-1.68-.2-2.47m-6.84 3.86c0 1.5-.4 6.06-2.88 9.82-1.69 2.58-5.06 5.26-6.94 6.75l.3-19.34c.2-.9 1.68-3.77 5.65-3.77 3.57 0 3.87 3.37 3.87 5.45v1.1M868.53 791.52c.6-.1 1.09-.8 1.09-1.4v-5.84c0-.8-.6-1.4-1.4-1.4h-.19l-3.27.7V768.8h-2.78v15.38l-8.83 1.78v-13.98h-2.78v14.58l-3.87.8c-.6.09-1.09.79-1.09 1.38v5.95-.2c0 .8.6 1.4 1.4 1.4h.29l3.27-.7v16.37l-3.87.79c-.6.1-1.09.8-1.09 1.39v5.75c0 .8.6 1.4 1.4 1.4h.29l3.27-.7v14.78h2.78v-15.38l8.83-1.78v13.98h2.78v-14.58l3.77-.7c.6-.1 1.09-.79 1.09-1.38v-5.86c0-.79-.6-1.38-1.4-1.38h-.19l-3.27.69v-16.37l3.77-.7m-15.38 19.55v-16.47l8.83-1.78v16.37l-8.83 1.88m15.38-106.34c.6-.1 1.09-.8 1.09-1.4v-5.84c0-.8-.6-1.4-1.4-1.4h-.19l-3.27.7V682h-2.78v15.38l-8.83 1.78v-13.98h-2.78v14.58l-3.87.8c-.6.09-1.09.79-1.09 1.38v5.95-.2c0 .8.6 1.4 1.4 1.4h.29l3.27-.7v16.37l-3.87.79c-.6.1-1.09.8-1.09 1.39v5.75c0 .8.6 1.4 1.4 1.4h.29l3.27-.7v14.78h2.78v-15.38l8.83-1.78v13.98h2.78v-14.58l3.77-.7c.6-.1 1.09-.79 1.09-1.38v-5.86c0-.79-.6-1.38-1.4-1.38h-.19l-3.27.69v-16.37l3.77-.7m-15.38 19.55v-16.47l8.83-1.78v16.37l-8.83 1.88m933.09 5.26c.6-.1 1.09-.8 1.09-1.4v-5.84c0-.8-.6-1.4-1.4-1.4h-.19l-3.27.7V706.8h-2.78v15.38l-8.83 1.78v-13.98h-2.78v14.58l-3.87.8c-.6.09-1.09.79-1.09 1.38v5.95-.2c0 .8.6 1.4 1.4 1.4h.29l3.27-.7v16.37l-3.87.79c-.6.1-1.09.8-1.09 1.39v5.75c0 .8.6 1.4 1.4 1.4h.29l3.27-.7v14.78h2.78v-15.38l8.83-1.78v13.98h2.78v-14.58l3.77-.7c.6-.1 1.09-.79 1.09-1.38v-5.86c0-.79-.6-1.38-1.4-1.38h-.19l-3.27.69v-16.37l3.77-.7m-15.38 19.55v-16.47l8.83-1.78v16.37l-8.83 1.88m15.38-106.34c.6-.1 1.09-.8 1.09-1.4v-5.84c0-.8-.6-1.4-1.4-1.4h-.19l-3.27.7V620h-2.78v15.38l-8.83 1.78v-13.99h-2.78v14.59l-3.87.79c-.6.1-1.09.8-1.09 1.39v5.95-.2c0 .8.6 1.4 1.4 1.4h.29l3.27-.7v16.37l-3.87.79c-.6.1-1.09.8-1.09 1.39v5.75c0 .8.6 1.39 1.4 1.39h.29l3.27-.7v14.79h2.78v-15.38l8.83-1.79v14h2.78v-14.6l3.77-.7c.6-.1 1.09-.79 1.09-1.38v-5.86c0-.79-.6-1.39-1.4-1.39h-.19l-3.27.7V643.4l3.77-.7m-15.38 19.55v-16.47l8.83-1.78v16.36l-8.83 1.89m-617.1 367.55c-.6-3.87-2.97-7.54-8.03-7.54-4.96 0-7.84 3.07-8.34 3.67l.4-31.85c0-.79-.6-1.38-1.39-1.38h-1.19c-.8 0-1.39.6-1.39 1.38l.5 59.62c0 .8.6 1.4 1.39 1.4.2 0 .6-.1.79-.2.4-.2 6.85-3.38 12.2-9.43a20.13 20.13 0 0 0 5.26-13.2c0-.89-.1-1.68-.2-2.47m-6.84 3.87c0 1.48-.4 6.05-2.88 9.82-1.69 2.57-5.06 5.25-6.94 6.74l.3-19.34c.2-.9 1.68-3.77 5.65-3.77 3.57 0 3.87 3.37 3.87 5.45v1.1m974.91 58.13c-.6-3.87-2.97-7.54-8.03-7.54-4.96 0-7.84 3.07-8.34 3.67l.4-31.85c0-.79-.6-1.38-1.39-1.38h-1.19c-.8 0-1.39.6-1.39 1.38l.5 59.62c0 .8.6 1.4 1.39 1.4.2 0 .6-.1.79-.2.4-.2 6.85-3.38 12.2-9.43a20.13 20.13 0 0 0 5.26-13.2c0-.89-.1-1.68-.2-2.47m-6.84 3.87c0 1.48-.4 6.05-2.88 9.82-1.69 2.57-5.06 5.25-6.94 6.74l.3-19.34c.2-.9 1.68-3.77 5.65-3.77 3.57 0 3.87 3.37 3.87 5.45v1.1" class="Accidental" style="stroke-width:.992001"/><path stroke="#000" stroke-linejoin="bevel" stroke-width="3.97" d="M199.68 182.03h49.6m42.86 0h49.6m42.87 0h49.6m42.86 0h49.6m42.86 0h49.6m42.87 0h49.6m42.86 0h49.6m42.87 0h49.6m105.6 0h54.36m809.61-148.8h54.35m277.75 0h54.35M191 343.23h49.6m-49.6-24.8h49.6m37.43 24.8h49.6m-49.6-24.8h49.6m37.42 24.8h49.6m-49.6-24.8h49.6m37.43 24.8h49.6m-49.6-24.8h49.6m37.43 24.8h49.6m-49.6-24.8h49.6m37.42 24.8h49.6m-49.6-24.8h49.6m37.43 24.8h49.6m-49.6-24.8h49.6m82.81 24.8h49.6m135.2 0h49.6m159.4 0h49.6m135.2 0h49.6M199.68 802.03h49.6m52.23 0h49.6m52.24 0h49.6m52.25 0h49.58m52.24 0h49.6m52.24 0h49.6m117.36 0h49.6m868.11-148.8h49.6m318.78 0h49.6M191 963.23h49.6m-49.6-24.8h49.6m50.86 24.8h49.6m-49.6-24.8h49.6m50.87 24.8h49.6m-49.6-24.8h49.6m50.87 24.8H542m-49.6-24.8H542m50.86 24.8h49.6m-49.6-24.8h49.6m96.25 24.8h49.6m157.49 0h49.6m156.07 0h49.6m157.49 0h49.6" class="LedgerLine"/><path stroke="#000" stroke-linejoin="bevel" stroke-width="2.73" d="M239.23 178.85V27.03m92.47 151.82V27.03m92.45 151.82V27.03m92.47 151.82V27.03m92.46 151.82V27.03m92.47 151.82V27.03m92.46 151.82V27.03m92.47 151.82V27.03M201.04 321.76v151.67m87.03-151.67v151.67m87.03-151.67v151.67m87.02-151.67v151.67m87.03-151.67v151.67m87.03-151.67v151.67m87.03-151.67v151.67m132.41-139.27v170.27m184.79-170.27v170.27m209.01-170.27v170.27m184.79-170.27v170.27m372.39-27.97V306.03m184.8 170.43V306.03m200.31 170.43V306.03m184.8 170.43V306.03M239.23 798.86V647.03m101.83 151.83V647.03M442.9 798.86V647.03m101.83 151.83V647.03m101.84 151.83V647.03m101.84 151.83V647.03m166.96 151.83V628.43m359.7 158.03V616.03m528.5 40.53v170.27m368.38-182.67v170.27M201.04 941.76v151.67m100.47-151.67v151.67m100.46-151.67v151.67m100.47-151.67v151.67M602.9 941.76v151.67m145.85-139.27v170.27m207.1-170.27v170.27m205.66-170.27v170.27m207.1-170.27v170.27m377.72-27.97V926.03m207.1 170.43V926.03m205.67 170.43V926.03m207.1 170.43V926.03" class="Stem"/><path d="M239.6 174c-1.78-3.28-5.55-5.06-10.11-5.06-3.37 0-7.04.99-10.62 2.87-6.54 3.48-10.51 9.33-10.51 14.39 0 1.39.3 2.78 1 4.07 1.78 3.27 5.55 4.96 10.1 4.96 3.38 0 7.05-.9 10.62-2.78 6.55-3.47 10.52-9.33 10.52-14.39a8.5 8.5 0 0 0-1-4.06m0-86.8c-1.78-3.28-5.55-5.06-10.11-5.06-3.37 0-7.04.99-10.62 2.87-6.54 3.48-10.51 9.33-10.51 14.39 0 1.39.3 2.78 1 4.07 1.78 3.27 5.55 4.96 10.1 4.96 3.38 0 7.05-.9 10.62-2.78 6.55-3.47 10.52-9.33 10.52-14.39a8.5 8.5 0 0 0-1-4.06m92.47 86.8c-1.78-3.28-5.55-5.06-10.12-5.06-3.37 0-7.04.99-10.61 2.87-6.55 3.48-10.52 9.33-10.52 14.39 0 1.39.3 2.78 1 4.07 1.78 3.27 5.55 4.96 10.11 4.96 3.38 0 7.05-.9 10.62-2.78 6.55-3.47 10.51-9.33 10.51-14.39a8.5 8.5 0 0 0-.99-4.06m0-86.8c-1.78-3.28-5.55-5.06-10.12-5.06-3.37 0-7.04.99-10.61 2.87-6.55 3.48-10.52 9.33-10.52 14.39 0 1.39.3 2.78 1 4.07 1.78 3.27 5.55 4.96 10.11 4.96 3.38 0 7.05-.9 10.62-2.78 6.55-3.47 10.51-9.33 10.51-14.39a8.5 8.5 0 0 0-.99-4.06m92.47 86.8c-1.79-3.28-5.56-5.06-10.12-5.06-3.38 0-7.05.99-10.62 2.87-6.54 3.48-10.51 9.33-10.51 14.39 0 1.39.3 2.78.99 4.07 1.79 3.27 5.56 4.96 10.12 4.96 3.37 0 7.04-.9 10.61-2.78 6.55-3.47 10.52-9.33 10.52-14.39a8.5 8.5 0 0 0-1-4.06m.01-86.8c-1.79-3.28-5.56-5.06-10.12-5.06-3.38 0-7.05.99-10.62 2.87-6.54 3.48-10.51 9.33-10.51 14.39 0 1.39.3 2.78.99 4.07 1.79 3.27 5.56 4.96 10.12 4.96 3.37 0 7.04-.9 10.61-2.78 6.55-3.47 10.52-9.33 10.52-14.39a8.5 8.5 0 0 0-1-4.06M517 174c-1.79-3.28-5.56-5.06-10.12-5.06-3.37 0-7.04.99-10.61 2.87-6.55 3.48-10.52 9.33-10.52 14.39 0 1.39.3 2.78 1 4.07 1.78 3.27 5.55 4.96 10.11 4.96 3.38 0 7.05-.9 10.62-2.78 6.54-3.47 10.51-9.33 10.51-14.39A8.5 8.5 0 0 0 517 174m0-86.8c-1.79-3.28-5.56-5.06-10.12-5.06-3.37 0-7.04.99-10.61 2.87-6.55 3.48-10.52 9.33-10.52 14.39 0 1.39.3 2.78 1 4.07 1.78 3.27 5.55 4.96 10.11 4.96 3.38 0 7.05-.9 10.62-2.78 6.54-3.47 10.51-9.33 10.51-14.39a8.5 8.5 0 0 0-.99-4.06m92.46 86.8c-1.78-3.28-5.55-5.06-10.11-5.06-3.38 0-7.05.99-10.62 2.87-6.55 3.48-10.51 9.33-10.51 14.39 0 1.39.3 2.78.99 4.07 1.78 3.27 5.55 4.96 10.12 4.96 3.37 0 7.04-.9 10.61-2.78 6.55-3.47 10.52-9.33 10.52-14.39a8.5 8.5 0 0 0-1-4.06m0-86.8c-1.78-3.28-5.55-5.06-10.11-5.06-3.38 0-7.05.99-10.62 2.87-6.55 3.48-10.51 9.33-10.51 14.39 0 1.39.3 2.78.99 4.07 1.78 3.27 5.55 4.96 10.12 4.96 3.37 0 7.04-.9 10.61-2.78 6.55-3.47 10.52-9.33 10.52-14.39a8.5 8.5 0 0 0-1-4.06m92.47 86.8c-1.79-3.28-5.56-5.06-10.12-5.06-3.37 0-7.04.99-10.61 2.87-6.55 3.48-10.52 9.33-10.52 14.39 0 1.39.3 2.78 1 4.07 1.78 3.27 5.55 4.96 10.11 4.96 3.37 0 7.04-.9 10.62-2.78 6.54-3.47 10.51-9.33 10.51-14.39a8.5 8.5 0 0 0-1-4.06m.01-86.8c-1.79-3.28-5.56-5.06-10.12-5.06-3.37 0-7.04.99-10.61 2.87-6.55 3.48-10.52 9.33-10.52 14.39 0 1.39.3 2.78 1 4.07 1.78 3.27 5.55 4.96 10.11 4.96 3.37 0 7.04-.9 10.62-2.78 6.54-3.47 10.51-9.33 10.51-14.39a8.5 8.5 0 0 0-1-4.06M794.4 174c-1.8-3.28-5.56-5.06-10.13-5.06-3.37 0-7.04.99-10.61 2.87-6.55 3.48-10.51 9.33-10.51 14.39 0 1.39.3 2.78.99 4.07 1.78 3.27 5.55 4.96 10.12 4.96 3.37 0 7.04-.9 10.61-2.78 6.55-3.47 10.52-9.33 10.52-14.39a8.5 8.5 0 0 0-1-4.06m.01-86.8c-1.8-3.28-5.56-5.06-10.13-5.06-3.37 0-7.04.99-10.61 2.87-6.55 3.48-10.51 9.33-10.51 14.39 0 1.39.3 2.78.99 4.07 1.78 3.27 5.55 4.96 10.12 4.96 3.37 0 7.04-.9 10.61-2.78 6.55-3.47 10.52-9.33 10.52-14.39a8.5 8.5 0 0 0-1-4.06m92.47 86.8c-1.79-3.28-5.56-5.06-10.12-5.06-3.37 0-7.04.99-10.61 2.87-6.55 3.48-10.52 9.33-10.52 14.39 0 1.39.3 2.78 1 4.07 1.78 3.27 5.55 4.96 10.11 4.96 3.38 0 7.05-.9 10.62-2.78 6.54-3.47 10.51-9.33 10.51-14.39a8.5 8.5 0 0 0-.99-4.06m0-86.8c-1.79-3.28-5.56-5.06-10.12-5.06-3.37 0-7.04.99-10.61 2.87-6.55 3.48-10.52 9.33-10.52 14.39 0 1.39.3 2.78 1 4.07 1.78 3.27 5.55 4.96 10.11 4.96 3.38 0 7.05-.9 10.62-2.78 6.54-3.47 10.51-9.33 10.51-14.39a8.5 8.5 0 0 0-.99-4.06m142.5 81.34c-13.69 0-18.55 6.94-18.55 13.4 0 6.44 4.86 13.38 18.55 13.38 13.7 0 18.45-6.94 18.45-13.39s-4.76-13.39-18.45-13.39m-8.23 9.03c-.1-.4-.1-.8-.1-1.2 0-.79.2-1.58.6-2.27.69-1 1.88-1.69 3.37-1.99 1.29-.3 1.98-.5 4.56-.5h.1c3.97 0 5.26 3.68 6.35 7.45l.3.99a23.1 23.1 0 0 1 1.19 6.45 7 7 0 0 1-.6 3.07c-.6 1.1-1.59 1.79-3.27 2.18-.9.2-2.38.3-2.38.3-.5 0-.9.1-1.3.1-3.17 0-5.15-1.19-6.54-5.46-1.19-3.67-1.39-4.76-2.28-9.12m8.23-95.83c-13.69 0-18.55 6.94-18.55 13.4 0 6.44 4.86 13.38 18.55 13.38 13.7 0 18.45-6.94 18.45-13.39s-4.76-13.39-18.45-13.39m-8.23 9.03c-.1-.4-.1-.8-.1-1.2 0-.79.2-1.58.6-2.27.69-1 1.88-1.69 3.37-1.99 1.29-.3 1.98-.5 4.56-.5h.1c3.97 0 5.26 3.68 6.35 7.45l.3.99a23.1 23.1 0 0 1 1.19 6.45 7 7 0 0 1-.6 3.07c-.6 1.1-1.59 1.79-3.27 2.18-.9.2-2.38.3-2.38.3-.5 0-.9.1-1.3.1-3.17 0-5.15-1.19-6.54-5.46-1.19-3.67-1.39-4.76-2.28-9.12m334.51 65.37c-13.69 0-18.55 6.94-18.55 13.4 0 6.44 4.86 13.38 18.55 13.38 13.7 0 18.45-6.94 18.45-13.39s-4.76-13.39-18.45-13.39m-8.23 9.03c-.1-.4-.1-.8-.1-1.2 0-.79.2-1.58.6-2.27.69-1 1.88-1.69 3.37-1.99 1.29-.3 1.98-.5 4.56-.5h.1c3.97 0 5.26 3.68 6.35 7.45l.3.99a23.1 23.1 0 0 1 1.19 6.45 7 7 0 0 1-.6 3.07c-.6 1.1-1.59 1.79-3.27 2.18-.9.2-2.38.3-2.38.3-.5 0-.9.1-1.3.1-3.17 0-5.15-1.19-6.54-5.46-1.19-3.67-1.39-4.76-2.28-9.12m8.23-95.83c-13.69 0-18.55 6.94-18.55 13.4 0 6.44 4.86 13.38 18.55 13.38 13.7 0 18.45-6.94 18.45-13.39s-4.76-13.39-18.45-13.39m-8.23 9.03c-.1-.4-.1-.8-.1-1.2 0-.79.2-1.58.6-2.27.69-1 1.88-1.69 3.37-1.99 1.29-.3 1.98-.5 4.56-.5h.1c3.97 0 5.26 3.68 6.35 7.45l.3.99a23.1 23.1 0 0 1 1.19 6.45 7 7 0 0 1-.6 3.07c-.6 1.1-1.59 1.79-3.27 2.18-.9.2-2.38.3-2.38.3-.5 0-.9.1-1.3.1-3.17 0-5.15-1.19-6.54-5.46-1.19-3.67-1.39-4.76-2.28-9.12m545.91 28.17c-13.69 0-18.55 6.94-18.55 13.4 0 6.44 4.86 13.38 18.55 13.38 13.7 0 18.45-6.94 18.45-13.39s-4.76-13.39-18.45-13.39m-8.23 9.03c-.1-.4-.1-.8-.1-1.2 0-.79.2-1.58.6-2.27.69-1 1.88-1.69 3.37-1.99 1.29-.3 1.98-.5 4.56-.5h.1c3.97 0 5.26 3.68 6.35 7.45l.3.99a23.1 23.1 0 0 1 1.19 6.45 7 7 0 0 1-.6 3.07c-.6 1.1-1.59 1.79-3.27 2.18-.9.2-2.38.3-2.38.3-.5 0-.9.1-1.3.1-3.17 0-5.15-1.19-6.54-5.46-1.19-3.67-1.39-4.76-2.28-9.12m8.23-95.83c-13.69 0-18.55 6.94-18.55 13.4 0 6.44 4.86 13.38 18.55 13.38 13.7 0 18.45-6.94 18.45-13.39s-4.76-13.39-18.45-13.39m-8.23 9.03c-.1-.4-.1-.8-.1-1.2 0-.79.2-1.58.6-2.27.69-1 1.88-1.69 3.37-1.99 1.29-.3 1.98-.5 4.56-.5h.1c3.97 0 5.26 3.68 6.35 7.45l.3.99a23.1 23.1 0 0 1 1.19 6.45 7 7 0 0 1-.6 3.07c-.6 1.1-1.59 1.79-3.27 2.18-.9.2-2.38.3-2.38.3-.5 0-.9.1-1.3.1-3.17 0-5.15-1.19-6.54-5.46-1.19-3.67-1.39-4.76-2.28-9.12m340.33 65.37c-13.69 0-18.55 6.94-18.55 13.4 0 6.44 4.86 13.38 18.55 13.38 13.7 0 18.45-6.94 18.45-13.39s-4.76-13.39-18.45-13.39m-8.23 9.03c-.1-.4-.1-.8-.1-1.2 0-.79.2-1.58.6-2.27.69-1 1.88-1.69 3.37-1.99 1.29-.3 1.98-.5 4.56-.5h.1c3.97 0 5.26 3.68 6.35 7.45l.3.99a23.1 23.1 0 0 1 1.19 6.45 7 7 0 0 1-.6 3.07c-.6 1.1-1.59 1.79-3.27 2.18-.9.2-2.38.3-2.38.3-.5 0-.9.1-1.3.1-3.17 0-5.15-1.19-6.54-5.46-1.19-3.67-1.39-4.76-2.28-9.12m8.23-95.83c-13.69 0-18.55 6.94-18.55 13.4 0 6.44 4.86 13.38 18.55 13.38 13.7 0 18.45-6.94 18.45-13.39s-4.76-13.39-18.45-13.39m-8.23 9.03c-.1-.4-.1-.8-.1-1.2 0-.79.2-1.58.6-2.27.69-1 1.88-1.69 3.37-1.99 1.29-.3 1.98-.5 4.56-.5h.1c3.97 0 5.26 3.68 6.35 7.45l.3.99a23.1 23.1 0 0 1 1.19 6.45 7 7 0 0 1-.6 3.07c-.6 1.1-1.59 1.79-3.27 2.18-.9.2-2.38.3-2.38.3-.5 0-.9.1-1.3.1-3.17 0-5.15-1.19-6.54-5.46-1.19-3.67-1.39-4.76-2.28-9.12M230.93 397.2c-1.79-3.28-5.56-5.06-10.12-5.06-3.37 0-7.04.99-10.62 2.87-6.54 3.48-10.51 9.33-10.51 14.39 0 1.39.3 2.78 1 4.07 1.78 3.27 5.55 4.96 10.1 4.96 3.38 0 7.05-.9 10.62-2.78 6.55-3.47 10.52-9.33 10.52-14.39a8.5 8.5 0 0 0-1-4.06m.01-86.8c-1.79-3.28-5.56-5.06-10.12-5.06-3.37 0-7.04.99-10.62 2.87-6.54 3.48-10.51 9.33-10.51 14.39 0 1.39.3 2.78 1 4.07 1.78 3.27 5.55 4.96 10.1 4.96 3.38 0 7.05-.9 10.62-2.78 6.55-3.47 10.52-9.33 10.52-14.39a8.5 8.5 0 0 0-1-4.06m87.04 86.8c-1.8-3.28-5.56-5.06-10.12-5.06-3.38 0-7.05.99-10.62 2.87-6.55 3.48-10.51 9.33-10.51 14.39 0 1.39.3 2.78.99 4.07 1.78 3.27 5.55 4.96 10.12 4.96 3.37 0 7.04-.9 10.61-2.78 6.55-3.47 10.52-9.33 10.52-14.39a8.5 8.5 0 0 0-1-4.06m.01-86.8c-1.8-3.28-5.56-5.06-10.12-5.06-3.38 0-7.05.99-10.62 2.87-6.55 3.48-10.51 9.33-10.51 14.39 0 1.39.3 2.78.99 4.07 1.78 3.27 5.55 4.96 10.12 4.96 3.37 0 7.04-.9 10.61-2.78 6.55-3.47 10.52-9.33 10.52-14.39a8.5 8.5 0 0 0-1-4.06m87.03 86.8c-1.78-3.28-5.55-5.06-10.12-5.06-3.37 0-7.04.99-10.61 2.87-6.55 3.48-10.52 9.33-10.52 14.39 0 1.39.3 2.78 1 4.07 1.78 3.27 5.55 4.96 10.11 4.96 3.38 0 7.05-.9 10.62-2.78 6.55-3.47 10.51-9.33 10.51-14.39a8.5 8.5 0 0 0-.99-4.06m0-86.8c-1.78-3.28-5.55-5.06-10.12-5.06-3.37 0-7.04.99-10.61 2.87-6.55 3.48-10.52 9.33-10.52 14.39 0 1.39.3 2.78 1 4.07 1.78 3.27 5.55 4.96 10.11 4.96 3.38 0 7.05-.9 10.62-2.78 6.55-3.47 10.51-9.33 10.51-14.39a8.5 8.5 0 0 0-.99-4.06M492 397.2c-1.78-3.28-5.55-5.06-10.1-5.06-3.38 0-7.05.99-10.62 2.87-6.55 3.48-10.52 9.33-10.52 14.39 0 1.39.3 2.78 1 4.07 1.78 3.27 5.55 4.96 10.11 4.96 3.37 0 7.04-.9 10.62-2.78 6.54-3.47 10.51-9.33 10.51-14.39a8.5 8.5 0 0 0-1-4.06m0-86.8c-1.78-3.28-5.55-5.06-10.1-5.06-3.38 0-7.05.99-10.62 2.87-6.55 3.48-10.52 9.33-10.52 14.39 0 1.39.3 2.78 1 4.07 1.78 3.27 5.55 4.96 10.11 4.96 3.37 0 7.04-.9 10.62-2.78 6.54-3.47 10.51-9.33 10.51-14.39a8.5 8.5 0 0 0-1-4.06m87.04 86.8c-1.79-3.28-5.56-5.06-10.12-5.06-3.37 0-7.04.99-10.62 2.87-6.54 3.48-10.51 9.33-10.51 14.39 0 1.39.3 2.78 1 4.07 1.78 3.27 5.55 4.96 10.1 4.96 3.38 0 7.05-.9 10.62-2.78 6.55-3.47 10.52-9.33 10.52-14.39a8.5 8.5 0 0 0-1-4.06m.01-86.8c-1.79-3.28-5.56-5.06-10.12-5.06-3.37 0-7.04.99-10.62 2.87-6.54 3.48-10.51 9.33-10.51 14.39 0 1.39.3 2.78 1 4.07 1.78 3.27 5.55 4.96 10.1 4.96 3.38 0 7.05-.9 10.62-2.78 6.55-3.47 10.52-9.33 10.52-14.39a8.5 8.5 0 0 0-1-4.06m87.03 86.8c-1.78-3.28-5.55-5.06-10.11-5.06-3.38 0-7.05.99-10.62 2.87-6.55 3.48-10.51 9.33-10.51 14.39 0 1.39.3 2.78.99 4.07 1.78 3.27 5.55 4.96 10.12 4.96 3.37 0 7.04-.9 10.61-2.78 6.55-3.47 10.52-9.33 10.52-14.39a8.5 8.5 0 0 0-1-4.06m0-86.8c-1.78-3.28-5.55-5.06-10.11-5.06-3.38 0-7.05.99-10.62 2.87-6.55 3.48-10.51 9.33-10.51 14.39 0 1.39.3 2.78.99 4.07 1.78 3.27 5.55 4.96 10.12 4.96 3.37 0 7.04-.9 10.61-2.78 6.55-3.47 10.52-9.33 10.52-14.39a8.5 8.5 0 0 0-1-4.06m87.04 86.8c-1.8-3.28-5.56-5.06-10.13-5.06-3.37 0-7.04.99-10.61 2.87-6.55 3.48-10.52 9.33-10.52 14.39 0 1.39.3 2.78 1 4.07 1.78 3.27 5.55 4.96 10.11 4.96 3.38 0 7.05-.9 10.62-2.78 6.55-3.47 10.51-9.33 10.51-14.39a8.5 8.5 0 0 0-.99-4.06m.01-86.8c-1.8-3.28-5.56-5.06-10.13-5.06-3.37 0-7.04.99-10.61 2.87-6.55 3.48-10.52 9.33-10.52 14.39 0 1.39.3 2.78 1 4.07 1.78 3.27 5.55 4.96 10.11 4.96 3.38 0 7.05-.9 10.62-2.78 6.55-3.47 10.51-9.33 10.51-14.39a8.5 8.5 0 0 0-.99-4.06m132.41 99.2c-1.79-3.28-5.56-5.06-10.12-5.06-3.37 0-7.04.99-10.61 2.87-6.55 3.48-10.52 9.33-10.52 14.39 0 1.39.3 2.78 1 4.07 1.78 3.27 5.55 4.96 10.11 4.96 3.38 0 7.05-.9 10.62-2.78 6.54-3.47 10.51-9.33 10.51-14.39a8.5 8.5 0 0 0-.99-4.06m-4.27 6.74c-1.68 1.69-5.05 3.77-8.63 5.76-3.57 1.98-7.14 3.47-9.52 3.96-.5.1-1 .2-1.49.2-1.58 0-2.77-.6-3.47-1.88-.3-.5-.5-1.1-.5-1.69 0-1.09.7-2.38 1.79-3.47 1.69-1.69 4.96-3.77 8.53-5.75 3.57-1.99 7.14-3.48 9.52-3.97.5-.1 1-.2 1.5-.2 1.58 0 2.87.6 3.56 1.88.3.5.4 1.1.4 1.69 0 1.1-.6 2.28-1.69 3.47m4.27-93.54c-1.79-3.28-5.56-5.06-10.12-5.06-3.37 0-7.04.99-10.61 2.87-6.55 3.48-10.52 9.33-10.52 14.39 0 1.39.3 2.78 1 4.07 1.78 3.27 5.55 4.96 10.11 4.96 3.38 0 7.05-.9 10.62-2.78 6.54-3.47 10.51-9.33 10.51-14.39a8.5 8.5 0 0 0-.99-4.06m-4.27 6.74c-1.68 1.69-5.05 3.77-8.63 5.76-3.57 1.98-7.14 3.47-9.52 3.96-.5.1-1 .2-1.49.2-1.58 0-2.77-.6-3.47-1.88-.3-.5-.5-1.1-.5-1.69 0-1.09.7-2.38 1.79-3.47 1.69-1.69 4.96-3.77 8.53-5.75 3.57-1.99 7.14-3.48 9.52-3.97.5-.1 1-.2 1.5-.2 1.58 0 2.87.6 3.56 1.88.3.5.4 1.1.4 1.69 0 1.1-.6 2.28-1.69 3.47m189.07 80.06c-1.79-3.28-5.56-5.06-10.12-5.06-3.37 0-7.04.99-10.61 2.87-6.55 3.48-10.52 9.33-10.52 14.39 0 1.39.3 2.78 1 4.07 1.78 3.27 5.55 4.96 10.11 4.96 3.38 0 7.05-.9 10.62-2.78 6.54-3.47 10.51-9.33 10.51-14.39a8.5 8.5 0 0 0-.99-4.06m0-86.8c-1.79-3.28-5.56-5.06-10.12-5.06-3.37 0-7.04.99-10.61 2.87-6.55 3.48-10.52 9.33-10.52 14.39 0 1.39.3 2.78 1 4.07 1.78 3.27 5.55 4.96 10.11 4.96 3.38 0 7.05-.9 10.62-2.78 6.54-3.47 10.51-9.33 10.51-14.39a8.5 8.5 0 0 0-.99-4.06m209 86.8c-1.79-3.28-5.56-5.06-10.12-5.06-3.37 0-7.04.99-10.61 2.87-6.55 3.48-10.52 9.33-10.52 14.39 0 1.39.3 2.78 1 4.07 1.78 3.27 5.55 4.96 10.11 4.96 3.38 0 7.05-.9 10.62-2.78 6.54-3.47 10.51-9.33 10.51-14.39a8.5 8.5 0 0 0-.99-4.06m-4.27 6.74c-1.68 1.69-5.05 3.77-8.63 5.76-3.57 1.98-7.14 3.47-9.52 3.96-.5.1-1 .2-1.49.2-1.58 0-2.77-.6-3.47-1.88-.3-.5-.5-1.1-.5-1.69 0-1.09.7-2.38 1.79-3.47 1.69-1.69 4.96-3.77 8.53-5.75 3.57-1.99 7.14-3.48 9.52-3.97.5-.1 1-.2 1.5-.2 1.58 0 2.87.6 3.56 1.88.3.5.4 1.1.4 1.69 0 1.1-.6 2.28-1.69 3.47m4.27-93.54c-1.79-3.28-5.56-5.06-10.12-5.06-3.37 0-7.04.99-10.61 2.87-6.55 3.48-10.52 9.33-10.52 14.39 0 1.39.3 2.78 1 4.07 1.78 3.27 5.55 4.96 10.11 4.96 3.38 0 7.05-.9 10.62-2.78 6.54-3.47 10.51-9.33 10.51-14.39a8.5 8.5 0 0 0-.99-4.06m-4.27 6.74c-1.68 1.69-5.05 3.77-8.63 5.76-3.57 1.98-7.14 3.47-9.52 3.96-.5.1-1 .2-1.49.2-1.58 0-2.77-.6-3.47-1.88-.3-.5-.5-1.1-.5-1.69 0-1.09.7-2.38 1.79-3.47 1.69-1.69 4.96-3.77 8.53-5.75 3.57-1.99 7.14-3.48 9.52-3.97.5-.1 1-.2 1.5-.2 1.58 0 2.87.6 3.56 1.88.3.5.4 1.1.4 1.69 0 1.1-.6 2.28-1.69 3.47m189.07 80.06c-1.79-3.28-5.56-5.06-10.12-5.06-3.37 0-7.04.99-10.61 2.87-6.55 3.48-10.52 9.33-10.52 14.39 0 1.39.3 2.78 1 4.07 1.78 3.27 5.55 4.96 10.11 4.96 3.38 0 7.05-.9 10.62-2.78 6.54-3.47 10.51-9.33 10.51-14.39a8.5 8.5 0 0 0-.99-4.06m0-86.8c-1.79-3.28-5.56-5.06-10.12-5.06-3.37 0-7.04.99-10.61 2.87-6.55 3.48-10.52 9.33-10.52 14.39 0 1.39.3 2.78 1 4.07 1.78 3.27 5.55 4.96 10.11 4.96 3.38 0 7.05-.9 10.62-2.78 6.54-3.47 10.51-9.33 10.51-14.39a8.5 8.5 0 0 0-.99-4.06m342.88 148.8c-1.79-3.28-5.56-5.06-10.12-5.06-3.37 0-7.04.99-10.61 2.87-6.55 3.48-10.52 9.33-10.52 14.39 0 1.39.3 2.78 1 4.07 1.78 3.27 5.55 4.96 10.11 4.96 3.38 0 7.05-.9 10.62-2.78 6.54-3.47 10.51-9.33 10.51-14.39a8.5 8.5 0 0 0-.99-4.06m-4.27 6.74c-1.68 1.69-5.05 3.77-8.63 5.76-3.57 1.98-7.14 3.47-9.52 3.96-.5.1-1 .2-1.49.2-1.58 0-2.77-.6-3.47-1.88-.3-.5-.5-1.1-.5-1.69 0-1.09.7-2.38 1.79-3.47 1.69-1.69 4.96-3.77 8.53-5.75 3.57-1.99 7.14-3.48 9.52-3.97.5-.1 1-.2 1.5-.2 1.58 0 2.87.6 3.56 1.88.3.5.4 1.1.4 1.69 0 1.1-.6 2.28-1.69 3.47m4.27-93.54c-1.79-3.28-5.56-5.06-10.12-5.06-3.37 0-7.04.99-10.61 2.87-6.55 3.48-10.52 9.33-10.52 14.39 0 1.39.3 2.78 1 4.07 1.78 3.27 5.55 4.96 10.11 4.96 3.38 0 7.05-.9 10.62-2.78 6.54-3.47 10.51-9.33 10.51-14.39a8.5 8.5 0 0 0-.99-4.06m-4.27 6.74c-1.68 1.69-5.05 3.77-8.63 5.76-3.57 1.98-7.14 3.47-9.52 3.96-.5.1-1 .2-1.49.2-1.58 0-2.77-.6-3.47-1.88-.3-.5-.5-1.1-.5-1.69 0-1.09.7-2.38 1.79-3.47 1.69-1.69 4.96-3.77 8.53-5.75 3.57-1.99 7.14-3.48 9.52-3.97.5-.1 1-.2 1.5-.2 1.58 0 2.87.6 3.56 1.88.3.5.4 1.1.4 1.69 0 1.1-.6 2.28-1.69 3.47m189.06 80.06c-1.79-3.28-5.56-5.06-10.12-5.06-3.37 0-7.04.99-10.61 2.87-6.55 3.48-10.52 9.33-10.52 14.39 0 1.39.3 2.78 1 4.07 1.78 3.27 5.55 4.96 10.11 4.96 3.38 0 7.05-.9 10.62-2.78 6.54-3.47 10.51-9.33 10.51-14.39a8.5 8.5 0 0 0-.99-4.06m0-86.8c-1.79-3.28-5.56-5.06-10.12-5.06-3.37 0-7.04.99-10.61 2.87-6.55 3.48-10.52 9.33-10.52 14.39 0 1.39.3 2.78 1 4.07 1.78 3.27 5.55 4.96 10.11 4.96 3.38 0 7.05-.9 10.62-2.78 6.54-3.47 10.51-9.33 10.51-14.39a8.5 8.5 0 0 0-.99-4.06m200.32 86.8c-1.79-3.28-5.56-5.06-10.12-5.06-3.37 0-7.04.99-10.61 2.87-6.55 3.48-10.52 9.33-10.52 14.39 0 1.39.3 2.78 1 4.07 1.78 3.27 5.55 4.96 10.11 4.96 3.38 0 7.05-.9 10.62-2.78 6.54-3.47 10.51-9.33 10.51-14.39a8.5 8.5 0 0 0-.99-4.06m-4.27 6.74c-1.68 1.69-5.05 3.77-8.63 5.76-3.57 1.98-7.14 3.47-9.52 3.96-.5.1-1 .2-1.49.2-1.58 0-2.77-.6-3.47-1.88-.3-.5-.5-1.1-.5-1.69 0-1.09.7-2.38 1.79-3.47 1.69-1.69 4.96-3.77 8.53-5.75 3.57-1.99 7.14-3.48 9.52-3.97.5-.1 1-.2 1.5-.2 1.58 0 2.87.6 3.56 1.88.3.5.4 1.1.4 1.69 0 1.1-.6 2.28-1.69 3.47m4.27-93.54c-1.79-3.28-5.56-5.06-10.12-5.06-3.37 0-7.04.99-10.61 2.87-6.55 3.48-10.52 9.33-10.52 14.39 0 1.39.3 2.78 1 4.07 1.78 3.27 5.55 4.96 10.11 4.96 3.38 0 7.05-.9 10.62-2.78 6.54-3.47 10.51-9.33 10.51-14.39a8.5 8.5 0 0 0-.99-4.06m-4.27 6.74c-1.68 1.69-5.05 3.77-8.63 5.76-3.57 1.98-7.14 3.47-9.52 3.96-.5.1-1 .2-1.49.2-1.58 0-2.77-.6-3.47-1.88-.3-.5-.5-1.1-.5-1.69 0-1.09.7-2.38 1.79-3.47 1.69-1.69 4.96-3.77 8.53-5.75 3.57-1.99 7.14-3.48 9.52-3.97.5-.1 1-.2 1.5-.2 1.58 0 2.87.6 3.56 1.88.3.5.4 1.1.4 1.69 0 1.1-.6 2.28-1.69 3.47m189.07 80.06c-1.79-3.28-5.56-5.06-10.12-5.06-3.37 0-7.04.99-10.61 2.87-6.55 3.48-10.52 9.33-10.52 14.39 0 1.39.3 2.78 1 4.07 1.78 3.27 5.55 4.96 10.11 4.96 3.38 0 7.05-.9 10.62-2.78 6.54-3.47 10.51-9.33 10.51-14.39a8.5 8.5 0 0 0-.99-4.06m0-86.8c-1.79-3.28-5.56-5.06-10.12-5.06-3.37 0-7.04.99-10.61 2.87-6.55 3.48-10.52 9.33-10.52 14.39 0 1.39.3 2.78 1 4.07 1.78 3.27 5.55 4.96 10.11 4.96 3.38 0 7.05-.9 10.62-2.78 6.54-3.47 10.51-9.33 10.51-14.39a8.5 8.5 0 0 0-.99-4.06M239.6 794c-1.78-3.28-5.55-5.06-10.11-5.06-3.37 0-7.04 1-10.62 2.88-6.54 3.47-10.51 9.32-10.51 14.38 0 1.39.3 2.78 1 4.07 1.78 3.27 5.55 4.96 10.1 4.96 3.38 0 7.05-.9 10.62-2.78 6.55-3.47 10.52-9.33 10.52-14.38a8.5 8.5 0 0 0-1-4.07m0-86.8c-1.78-3.28-5.55-5.06-10.11-5.06-3.37 0-7.04 1-10.62 2.88-6.54 3.47-10.51 9.32-10.51 14.38 0 1.39.3 2.78 1 4.07 1.78 3.27 5.55 4.96 10.1 4.96 3.38 0 7.05-.9 10.62-2.78 6.55-3.47 10.52-9.33 10.52-14.38a8.5 8.5 0 0 0-1-4.07M341.44 794c-1.78-3.28-5.55-5.06-10.11-5.06-3.38 0-7.05 1-10.62 2.88-6.55 3.47-10.51 9.32-10.51 14.38 0 1.39.3 2.78.99 4.07 1.78 3.27 5.55 4.96 10.12 4.96 3.37 0 7.04-.9 10.61-2.78 6.55-3.47 10.52-9.33 10.52-14.38a8.5 8.5 0 0 0-1-4.07m0-86.8c-1.78-3.28-5.55-5.06-10.11-5.06-3.38 0-7.05 1-10.62 2.88-6.55 3.47-10.51 9.32-10.51 14.38 0 1.39.3 2.78.99 4.07 1.78 3.27 5.55 4.96 10.12 4.96 3.37 0 7.04-.9 10.61-2.78 6.55-3.47 10.52-9.33 10.52-14.38a8.5 8.5 0 0 0-1-4.07M443.28 794c-1.79-3.28-5.56-5.06-10.12-5.06-3.37 0-7.04 1-10.61 2.88-6.55 3.47-10.52 9.32-10.52 14.38 0 1.39.3 2.78 1 4.07 1.78 3.27 5.55 4.96 10.11 4.96 3.38 0 7.05-.9 10.62-2.78 6.54-3.47 10.51-9.33 10.51-14.38a8.5 8.5 0 0 0-.99-4.07m0-86.8c-1.79-3.28-5.56-5.06-10.12-5.06-3.37 0-7.04 1-10.61 2.88-6.55 3.47-10.52 9.32-10.52 14.38 0 1.39.3 2.78 1 4.07 1.78 3.27 5.55 4.96 10.11 4.96 3.38 0 7.05-.9 10.62-2.78 6.54-3.47 10.51-9.33 10.51-14.38a8.5 8.5 0 0 0-.99-4.07M545.12 794c-1.79-3.28-5.56-5.06-10.12-5.06-3.38 0-7.05 1-10.62 2.88-6.54 3.47-10.51 9.32-10.51 14.38 0 1.39.3 2.78.99 4.07 1.79 3.27 5.56 4.96 10.12 4.96 3.37 0 7.04-.9 10.61-2.78 6.55-3.47 10.52-9.33 10.52-14.38a8.5 8.5 0 0 0-1-4.07m.01-86.8c-1.79-3.28-5.56-5.06-10.12-5.06-3.38 0-7.05 1-10.62 2.88-6.54 3.47-10.51 9.32-10.51 14.38 0 1.39.3 2.78.99 4.07 1.79 3.27 5.56 4.96 10.12 4.96 3.37 0 7.04-.9 10.61-2.78 6.55-3.47 10.52-9.33 10.52-14.38a8.5 8.5 0 0 0-1-4.07M646.95 794c-1.78-3.28-5.55-5.06-10.12-5.06-3.37 0-7.04 1-10.61 2.88-6.55 3.47-10.52 9.32-10.52 14.38 0 1.39.3 2.78 1 4.07 1.78 3.27 5.55 4.96 10.11 4.96 3.38 0 7.05-.9 10.62-2.78 6.55-3.47 10.51-9.33 10.51-14.38a8.5 8.5 0 0 0-.99-4.07m0-86.8c-1.78-3.28-5.55-5.06-10.12-5.06-3.37 0-7.04 1-10.61 2.88-6.55 3.47-10.52 9.32-10.52 14.38 0 1.39.3 2.78 1 4.07 1.78 3.27 5.55 4.96 10.11 4.96 3.38 0 7.05-.9 10.62-2.78 6.55-3.47 10.51-9.33 10.51-14.38a8.5 8.5 0 0 0-.99-4.07M748.79 794c-1.79-3.28-5.56-5.06-10.12-5.06-3.37 0-7.04 1-10.61 2.88-6.55 3.47-10.52 9.32-10.52 14.38 0 1.39.3 2.78 1 4.07 1.78 3.27 5.55 4.96 10.11 4.96 3.37 0 7.04-.9 10.61-2.78 6.55-3.47 10.52-9.33 10.52-14.38a8.5 8.5 0 0 0-1-4.07m.01-86.8c-1.79-3.28-5.56-5.06-10.12-5.06-3.37 0-7.04 1-10.61 2.88-6.55 3.47-10.52 9.32-10.52 14.38 0 1.39.3 2.78 1 4.07 1.78 3.27 5.55 4.96 10.11 4.96 3.37 0 7.04-.9 10.61-2.78 6.55-3.47 10.52-9.33 10.52-14.38a8.5 8.5 0 0 0-1-4.07M915.75 794c-1.79-3.28-5.56-5.06-10.12-5.06-3.37 0-7.04 1-10.61 2.88-6.55 3.47-10.52 9.32-10.52 14.38 0 1.39.3 2.78 1 4.07 1.78 3.27 5.55 4.96 10.11 4.96 3.38 0 7.05-.9 10.62-2.78 6.54-3.47 10.51-9.33 10.51-14.38a8.5 8.5 0 0 0-.99-4.07m-4.27 6.74c-1.68 1.69-5.05 3.77-8.63 5.76-3.57 1.98-7.14 3.47-9.52 3.97-.5.1-1 .2-1.49.2-1.58 0-2.77-.6-3.47-1.9-.3-.49-.5-1.08-.5-1.68 0-1.09.7-2.38 1.79-3.47 1.69-1.69 4.96-3.77 8.53-5.75 3.57-1.99 7.14-3.48 9.52-3.97.5-.1 1-.2 1.5-.2 1.58 0 2.87.6 3.56 1.89.3.5.4 1.09.4 1.68 0 1.1-.6 2.28-1.69 3.47m4.27-93.54c-1.79-3.28-5.56-5.06-10.12-5.06-3.37 0-7.04 1-10.61 2.88-6.55 3.47-10.52 9.32-10.52 14.38 0 1.39.3 2.78 1 4.07 1.78 3.27 5.55 4.96 10.11 4.96 3.38 0 7.05-.9 10.62-2.78 6.54-3.47 10.51-9.33 10.51-14.38a8.5 8.5 0 0 0-.99-4.07m-4.27 6.74c-1.68 1.69-5.05 3.77-8.63 5.76-3.57 1.98-7.14 3.47-9.52 3.97-.5.1-1 .2-1.49.2-1.58 0-2.77-.6-3.47-1.9-.3-.49-.5-1.08-.5-1.68 0-1.09.7-2.38 1.79-3.47 1.69-1.69 4.96-3.77 8.53-5.75 3.57-1.99 7.14-3.48 9.52-3.97.5-.1 1-.2 1.5-.2 1.58 0 2.87.6 3.56 1.89.3.5.4 1.09.4 1.68 0 1.1-.6 2.28-1.69 3.47m363.97 67.66c-1.79-3.28-5.56-5.06-10.12-5.06-3.37 0-7.04 1-10.61 2.88-6.55 3.47-10.52 9.32-10.52 14.38 0 1.39.3 2.78 1 4.07 1.78 3.27 5.55 4.96 10.11 4.96 3.38 0 7.05-.9 10.62-2.78 6.54-3.47 10.51-9.33 10.51-14.38a8.5 8.5 0 0 0-.99-4.07m-4.27 6.74c-1.68 1.69-5.05 3.77-8.63 5.76-3.57 1.98-7.14 3.47-9.52 3.97-.5.1-1 .2-1.49.2-1.58 0-2.77-.6-3.47-1.9-.3-.49-.5-1.08-.5-1.68 0-1.09.7-2.38 1.79-3.47 1.69-1.69 4.96-3.77 8.53-5.75 3.57-1.99 7.14-3.48 9.52-3.97.5-.1 1-.2 1.5-.2 1.58 0 2.87.6 3.56 1.89.3.5.4 1.09.4 1.68 0 1.1-.6 2.28-1.69 3.47m4.27-93.54c-1.79-3.28-5.56-5.06-10.12-5.06-3.37 0-7.04 1-10.61 2.88-6.55 3.47-10.52 9.32-10.52 14.38 0 1.39.3 2.78 1 4.07 1.78 3.27 5.55 4.96 10.11 4.96 3.38 0 7.05-.9 10.62-2.78 6.54-3.47 10.51-9.33 10.51-14.38a8.5 8.5 0 0 0-.99-4.07m-4.27 6.74c-1.68 1.69-5.05 3.77-8.63 5.76-3.57 1.98-7.14 3.47-9.52 3.97-.5.1-1 .2-1.49.2-1.58 0-2.77-.6-3.47-1.9-.3-.49-.5-1.08-.5-1.68 0-1.09.7-2.38 1.79-3.47 1.69-1.69 4.96-3.77 8.53-5.75 3.57-1.99 7.14-3.48 9.52-3.97.5-.1 1-.2 1.5-.2 1.58 0 2.87.6 3.56 1.89.3.5.4 1.09.4 1.68 0 1.1-.6 2.28-1.69 3.47M1833.46 732c-1.79-3.28-5.56-5.06-10.12-5.06-3.37 0-7.04 1-10.61 2.88-6.55 3.47-10.52 9.32-10.52 14.38 0 1.39.3 2.78 1 4.07 1.78 3.27 5.55 4.96 10.11 4.96 3.38 0 7.05-.9 10.62-2.78 6.54-3.47 10.51-9.33 10.51-14.38a8.5 8.5 0 0 0-.99-4.07m-4.27 6.74c-1.68 1.69-5.05 3.77-8.63 5.76-3.57 1.98-7.14 3.47-9.52 3.97-.5.1-1 .2-1.49.2-1.58 0-2.77-.6-3.47-1.9-.3-.49-.5-1.08-.5-1.68 0-1.09.7-2.38 1.79-3.47 1.69-1.69 4.96-3.77 8.53-5.75 3.57-1.99 7.14-3.48 9.52-3.97.5-.1 1-.2 1.5-.2 1.58 0 2.87.6 3.56 1.89.3.5.4 1.09.4 1.68 0 1.1-.6 2.28-1.69 3.47m4.27-93.54c-1.79-3.28-5.56-5.06-10.12-5.06-3.37 0-7.04.99-10.61 2.87-6.55 3.48-10.52 9.33-10.52 14.39 0 1.39.3 2.78 1 4.07 1.78 3.27 5.55 4.96 10.11 4.96 3.38 0 7.05-.9 10.62-2.78 6.54-3.47 10.51-9.33 10.51-14.39a8.5 8.5 0 0 0-.99-4.06m-4.27 6.74c-1.68 1.69-5.05 3.77-8.63 5.76-3.57 1.98-7.14 3.47-9.52 3.96-.5.1-1 .2-1.49.2-1.58 0-2.77-.6-3.47-1.88-.3-.5-.5-1.1-.5-1.69 0-1.09.7-2.38 1.79-3.47 1.69-1.69 4.96-3.77 8.53-5.75 3.57-1.99 7.14-3.48 9.52-3.97.5-.1 1-.2 1.5-.2 1.58 0 2.87.6 3.56 1.88.3.5.4 1.1.4 1.69 0 1.1-.6 2.28-1.69 3.47m372.65 67.66c-1.79-3.28-5.56-5.06-10.12-5.06-3.37 0-7.04 1-10.61 2.88-6.55 3.47-10.52 9.32-10.52 14.38 0 1.39.3 2.78 1 4.07 1.78 3.27 5.55 4.96 10.11 4.96 3.38 0 7.05-.9 10.62-2.78 6.54-3.47 10.51-9.33 10.51-14.38a8.5 8.5 0 0 0-.99-4.07m-4.27 6.74c-1.68 1.69-5.05 3.77-8.63 5.76-3.57 1.98-7.14 3.47-9.52 3.97-.5.1-1 .2-1.49.2-1.58 0-2.77-.6-3.47-1.9-.3-.49-.5-1.08-.5-1.68 0-1.09.7-2.38 1.79-3.47 1.69-1.69 4.96-3.77 8.53-5.75 3.57-1.99 7.14-3.48 9.52-3.97.5-.1 1-.2 1.5-.2 1.58 0 2.87.6 3.56 1.89.3.5.4 1.09.4 1.68 0 1.1-.6 2.28-1.69 3.47m4.27-93.54c-1.79-3.28-5.56-5.06-10.12-5.06-3.37 0-7.04.99-10.61 2.87-6.55 3.48-10.52 9.33-10.52 14.39 0 1.39.3 2.78 1 4.07 1.78 3.27 5.55 4.96 10.11 4.96 3.38 0 7.05-.9 10.62-2.78 6.54-3.47 10.51-9.33 10.51-14.39a8.5 8.5 0 0 0-.99-4.06m-4.27 6.74c-1.68 1.69-5.05 3.77-8.63 5.76-3.57 1.98-7.14 3.47-9.52 3.96-.5.1-1 .2-1.49.2-1.58 0-2.77-.6-3.47-1.88-.3-.5-.5-1.1-.5-1.69 0-1.09.7-2.38 1.79-3.47 1.69-1.69 4.96-3.77 8.53-5.75 3.57-1.99 7.14-3.48 9.52-3.97.5-.1 1-.2 1.5-.2 1.58 0 2.87.6 3.56 1.88.3.5.4 1.1.4 1.69 0 1.1-.6 2.28-1.69 3.47M230.93 1017.2c-1.79-3.28-5.56-5.06-10.12-5.06-3.37 0-7.04 1-10.62 2.88-6.54 3.47-10.51 9.32-10.51 14.38 0 1.39.3 2.78 1 4.07 1.78 3.27 5.55 4.96 10.1 4.96 3.38 0 7.05-.9 10.62-2.78 6.55-3.47 10.52-9.33 10.52-14.38a8.5 8.5 0 0 0-1-4.07m.01-86.8c-1.79-3.28-5.56-5.06-10.12-5.06-3.37 0-7.04 1-10.62 2.88-6.54 3.47-10.51 9.32-10.51 14.38 0 1.39.3 2.78 1 4.07 1.78 3.27 5.55 4.96 10.1 4.96 3.38 0 7.05-.9 10.62-2.78 6.55-3.47 10.52-9.33 10.52-14.38a8.5 8.5 0 0 0-1-4.07m100.48 86.8c-1.8-3.28-5.56-5.06-10.13-5.06-3.37 0-7.04 1-10.61 2.88-6.55 3.47-10.52 9.32-10.52 14.38 0 1.39.3 2.78 1 4.07 1.78 3.27 5.55 4.96 10.12 4.96 3.37 0 7.04-.9 10.61-2.78 6.55-3.47 10.52-9.33 10.52-14.38a8.5 8.5 0 0 0-1-4.07m.01-86.8c-1.8-3.28-5.56-5.06-10.13-5.06-3.37 0-7.04 1-10.61 2.88-6.55 3.47-10.52 9.32-10.52 14.38 0 1.39.3 2.78 1 4.07 1.78 3.27 5.55 4.96 10.12 4.96 3.37 0 7.04-.9 10.61-2.78 6.55-3.47 10.52-9.33 10.52-14.38a8.5 8.5 0 0 0-1-4.07m100.47 86.8c-1.79-3.28-5.56-5.06-10.12-5.06-3.37 0-7.04 1-10.61 2.88-6.55 3.47-10.52 9.32-10.52 14.38 0 1.39.3 2.78 1 4.07 1.78 3.27 5.55 4.96 10.11 4.96 3.37 0 7.04-.9 10.61-2.78 6.55-3.47 10.52-9.33 10.52-14.38a8.5 8.5 0 0 0-1-4.07m.01-86.8c-1.79-3.28-5.56-5.06-10.12-5.06-3.37 0-7.04 1-10.61 2.88-6.55 3.47-10.52 9.32-10.52 14.38 0 1.39.3 2.78 1 4.07 1.78 3.27 5.55 4.96 10.11 4.96 3.37 0 7.04-.9 10.61-2.78 6.55-3.47 10.52-9.33 10.52-14.38a8.5 8.5 0 0 0-1-4.07m100.47 86.8c-1.78-3.28-5.55-5.06-10.11-5.06-3.38 0-7.05 1-10.62 2.88-6.55 3.47-10.51 9.32-10.51 14.38 0 1.39.3 2.78.99 4.07 1.78 3.27 5.55 4.96 10.12 4.96 3.37 0 7.04-.9 10.61-2.78 6.55-3.47 10.52-9.33 10.52-14.38a8.5 8.5 0 0 0-1-4.07m0-86.8c-1.78-3.28-5.55-5.06-10.11-5.06-3.38 0-7.05 1-10.62 2.88-6.55 3.47-10.51 9.32-10.51 14.38 0 1.39.3 2.78.99 4.07 1.78 3.27 5.55 4.96 10.12 4.96 3.37 0 7.04-.9 10.61-2.78 6.55-3.47 10.52-9.33 10.52-14.38a8.5 8.5 0 0 0-1-4.07m100.47 86.8c-1.79-3.28-5.56-5.06-10.12-5.06-3.37 0-7.04 1-10.61 2.88-6.55 3.47-10.52 9.32-10.52 14.38 0 1.39.3 2.78 1 4.07 1.78 3.27 5.55 4.96 10.11 4.96 3.37 0 7.04-.9 10.62-2.78 6.54-3.47 10.51-9.33 10.51-14.38a8.5 8.5 0 0 0-1-4.07m.01-86.8c-1.79-3.28-5.56-5.06-10.12-5.06-3.37 0-7.04 1-10.61 2.88-6.55 3.47-10.52 9.32-10.52 14.38 0 1.39.3 2.78 1 4.07 1.78 3.27 5.55 4.96 10.11 4.96 3.37 0 7.04-.9 10.62-2.78 6.54-3.47 10.51-9.33 10.51-14.38a8.5 8.5 0 0 0-1-4.07m145.86 99.2c-1.79-3.28-5.56-5.06-10.12-5.06-3.37 0-7.04 1-10.61 2.88-6.55 3.47-10.52 9.32-10.52 14.38 0 1.39.3 2.78 1 4.07 1.78 3.27 5.55 4.96 10.11 4.96 3.37 0 7.04-.9 10.61-2.78 6.55-3.47 10.52-9.33 10.52-14.38a8.5 8.5 0 0 0-1-4.07m.01-86.8c-1.79-3.28-5.56-5.06-10.12-5.06-3.37 0-7.04 1-10.61 2.88-6.55 3.47-10.52 9.32-10.52 14.38 0 1.39.3 2.78 1 4.07 1.78 3.27 5.55 4.96 10.11 4.96 3.37 0 7.04-.9 10.61-2.78 6.55-3.47 10.52-9.33 10.52-14.38a8.5 8.5 0 0 0-1-4.07m207.1 86.8c-1.79-3.28-5.56-5.06-10.12-5.06-3.37 0-7.04 1-10.61 2.88-6.55 3.47-10.52 9.32-10.52 14.38 0 1.39.3 2.78 1 4.07 1.78 3.27 5.55 4.96 10.11 4.96 3.38 0 7.05-.9 10.62-2.78 6.54-3.47 10.51-9.33 10.51-14.38a8.5 8.5 0 0 0-.99-4.07m0-86.8c-1.79-3.28-5.56-5.06-10.12-5.06-3.37 0-7.04 1-10.61 2.88-6.55 3.47-10.52 9.32-10.52 14.38 0 1.39.3 2.78 1 4.07 1.78 3.27 5.55 4.96 10.11 4.96 3.38 0 7.05-.9 10.62-2.78 6.54-3.47 10.51-9.33 10.51-14.38a8.5 8.5 0 0 0-.99-4.07m205.67 86.8c-1.79-3.28-5.56-5.06-10.12-5.06-3.37 0-7.04 1-10.61 2.88-6.55 3.47-10.52 9.32-10.52 14.38 0 1.39.3 2.78 1 4.07 1.78 3.27 5.55 4.96 10.11 4.96 3.38 0 7.05-.9 10.62-2.78 6.54-3.47 10.51-9.33 10.51-14.38a8.5 8.5 0 0 0-.99-4.07m0-86.8c-1.79-3.28-5.56-5.06-10.12-5.06-3.37 0-7.04 1-10.61 2.88-6.55 3.47-10.52 9.32-10.52 14.38 0 1.39.3 2.78 1 4.07 1.78 3.27 5.55 4.96 10.11 4.96 3.38 0 7.05-.9 10.62-2.78 6.54-3.47 10.51-9.33 10.51-14.38a8.5 8.5 0 0 0-.99-4.07m207.09 86.8c-1.79-3.28-5.56-5.06-10.12-5.06-3.37 0-7.04 1-10.61 2.88-6.55 3.47-10.52 9.32-10.52 14.38 0 1.39.3 2.78 1 4.07 1.78 3.27 5.55 4.96 10.11 4.96 3.38 0 7.05-.9 10.62-2.78 6.54-3.47 10.51-9.33 10.51-14.38a8.5 8.5 0 0 0-.99-4.07m0-86.8c-1.79-3.28-5.56-5.06-10.12-5.06-3.37 0-7.04 1-10.61 2.88-6.55 3.47-10.52 9.32-10.52 14.38 0 1.39.3 2.78 1 4.07 1.78 3.27 5.55 4.96 10.11 4.96 3.38 0 7.05-.9 10.62-2.78 6.54-3.47 10.51-9.33 10.51-14.38a8.5 8.5 0 0 0-.99-4.07m348.23 148.8c-1.79-3.28-5.56-5.06-10.12-5.06-3.37 0-7.04 1-10.61 2.88-6.55 3.47-10.52 9.32-10.52 14.38 0 1.39.3 2.78 1 4.07 1.78 3.27 5.55 4.96 10.11 4.96 3.38 0 7.05-.9 10.62-2.78 6.54-3.47 10.51-9.33 10.51-14.38a8.5 8.5 0 0 0-.99-4.07m0-86.8c-1.79-3.28-5.56-5.06-10.12-5.06-3.37 0-7.04 1-10.61 2.88-6.55 3.47-10.52 9.32-10.52 14.38 0 1.39.3 2.78 1 4.07 1.78 3.27 5.55 4.96 10.11 4.96 3.38 0 7.05-.9 10.62-2.78 6.54-3.47 10.51-9.33 10.51-14.39a8.5 8.5 0 0 0-.99-4.06m207.09 86.8c-1.79-3.28-5.56-5.06-10.12-5.06-3.37 0-7.04 1-10.61 2.88-6.55 3.47-10.52 9.32-10.52 14.38 0 1.39.3 2.78 1 4.07 1.78 3.27 5.55 4.96 10.11 4.96 3.38 0 7.05-.9 10.62-2.78 6.54-3.47 10.51-9.33 10.51-14.38a8.5 8.5 0 0 0-.99-4.07m0-86.8c-1.79-3.28-5.56-5.06-10.12-5.06-3.37 0-7.04 1-10.61 2.88-6.55 3.47-10.52 9.32-10.52 14.38 0 1.39.3 2.78 1 4.07 1.78 3.27 5.55 4.96 10.11 4.96 3.38 0 7.05-.9 10.62-2.78 6.54-3.47 10.51-9.33 10.51-14.39a8.5 8.5 0 0 0-.99-4.06m205.67 86.8c-1.79-3.28-5.56-5.06-10.12-5.06-3.37 0-7.04 1-10.61 2.88-6.55 3.47-10.52 9.32-10.52 14.38 0 1.39.3 2.78 1 4.07 1.78 3.27 5.55 4.96 10.11 4.96 3.38 0 7.05-.9 10.62-2.78 6.54-3.47 10.51-9.33 10.51-14.38a8.5 8.5 0 0 0-.99-4.07m0-86.8c-1.79-3.28-5.56-5.06-10.12-5.06-3.37 0-7.04 1-10.61 2.88-6.55 3.47-10.52 9.32-10.52 14.38 0 1.39.3 2.78 1 4.07 1.78 3.27 5.55 4.96 10.11 4.96 3.38 0 7.05-.9 10.62-2.78 6.54-3.47 10.51-9.33 10.51-14.39a8.5 8.5 0 0 0-.99-4.06m207.09 86.8c-1.79-3.28-5.56-5.06-10.12-5.06-3.37 0-7.04 1-10.61 2.88-6.55 3.47-10.52 9.32-10.52 14.38 0 1.39.3 2.78 1 4.07 1.78 3.27 5.55 4.96 10.11 4.96 3.38 0 7.05-.9 10.62-2.78 6.54-3.47 10.51-9.33 10.51-14.38a8.5 8.5 0 0 0-.99-4.07m0-86.8c-1.79-3.28-5.56-5.06-10.12-5.06-3.37 0-7.04 1-10.61 2.88-6.55 3.47-10.52 9.32-10.52 14.38 0 1.39.3 2.78 1 4.07 1.78 3.27 5.55 4.96 10.11 4.96 3.38 0 7.05-.9 10.62-2.78 6.54-3.47 10.51-9.33 10.51-14.39a8.5 8.5 0 0 0-.99-4.06" class="Note" style="stroke-width:.992001"/><path d="M87.15 126.6a28.14 28.14 0 0 0-4.62-10.2c-3.16-4.23-7.14-7.06-11.79-8.4-3.09-.88-6.06-1-8.46-.81a3126.7 3126.7 0 0 1-2.93-17.2c5.4-6.13 9-11.88 11.26-16.15 3.44-6.52 4.58-11.07 4.63-11.26 1.7-5.17 2.07-12.81.98-20.96-1-7.49-3.08-14.14-5.41-17.37-1.02-1.41-2.06-2.14-3.1-2.14-1.2 0-3.7 1.23-6.56 3.98a36.12 36.12 0 0 0-8.07 12c-2.97 7-3.18 16.42-2.84 23.09a102.5 102.5 0 0 0 1.5 12.9l.72 4.13-.72.68c-1.03 1-2.2 2.13-3.58 3.5-.85.85-1.8 1.75-2.79 2.71C37 93.18 24.3 105.4 24.3 124.4c0 4.66.9 9.04 2.66 13.02a31.15 31.15 0 0 0 6.77 9.67c7.67 7.5 18.17 10.68 25.17 10.52 2.93-.07 5.54-.3 7.91-.75 1.82 9.52 2.95 16.5 2.99 21.79.04 6.46-1.6 10.4-5.47 13.14a15.3 15.3 0 0 1-8.27 2.81c-2.57.12-4.81-.35-6.23-.75h-.01s-.29-.08-.3-.28c0-.18.34-.23.35-.23h.02c1.9-.44 5.44-1.66 7.78-4.93 1.79-2.5 2.65-7.08.83-11-1.1-2.36-3.6-5.29-9.17-5.73a11.04 11.04 0 0 0-11.03 6.18c-2.44 4.66-1.98 10.34 1.12 14.15 2.94 3.6 7.52 5.88 12.9 6.46a23.62 23.62 0 0 0 14.83-3.25c3.64-2.55 5.74-6.5 6.42-12.09.55-4.6.17-10.46-1.22-18.47l-1.55-8.8c5.7-1.91 9.83-5.45 13.57-11.26a24.33 24.33 0 0 0 2.78-18m-33.95 26c-4.6-1.21-9-3.7-12.73-7.16a20.19 20.19 0 0 1-4.6-6.74 24.37 24.37 0 0 1-1.97-10.1c.07-4.65 1.37-9.43 3.86-14.18 2.9-5.54 7.42-11.02 13.43-16.31a95.65 95.65 0 0 0 4.07-3.81l2.45 13.72a21.2 21.2 0 0 0-11.6 9.98c-3.51 6.52-3.37 12-2.65 15.44.93 4.43 3.44 8.16 6.87 10.23.93.56 5.02 2.67 6.85 2.1.37-.12.63-.34.77-.67.5-1.16-.5-1.8-2.05-2.75-.6-.36-1.26-.78-1.98-1.3-3.3-2.48-4.74-6.9-3.68-11.24a12.4 12.4 0 0 1 3.68-6.2 14.13 14.13 0 0 1 6.04-3.27c2.02 11.15 4.06 22.21 5.69 30.5l.4 2.02c-4.35.92-8.66.83-12.84-.27m11.23-32.92c10.27-.46 14.5 6.92 15.39 11.71a22.8 22.8 0 0 1-1.08 11.1c-1.16 3.15-3.6 7.18-8.69 9.23a28.1 28.1 0 0 0-.22-1.27c-1.53-8.7-3.46-19.6-5.4-30.77M57.18 49.3c1.76-5.7 4.48-8.92 6.46-10.63 1.73-1.51 3.37-2.21 4.28-2.21.14 0 .26.02.36.05.46.13.98.7 1.45 1.56 2.29 4.26 1.56 10.92.23 15.32-1.62 5.36-4.52 10.93-13.25 20.46l-.47-3.11c-1.24-8.22-.93-15.44.94-21.44m29.97 387.3a28.14 28.14 0 0 0-4.62-10.2c-3.16-4.23-7.14-7.06-11.79-8.4-3.09-.88-6.06-1-8.46-.81a3126.7 3126.7 0 0 1-2.93-17.2c5.4-6.13 9-11.88 11.26-16.15 3.44-6.52 4.58-11.07 4.63-11.26 1.7-5.17 2.07-12.81.98-20.96-1-7.49-3.08-14.14-5.41-17.37-1.02-1.41-2.06-2.14-3.1-2.14-1.2 0-3.7 1.23-6.56 3.98a36.12 36.12 0 0 0-8.07 12c-2.97 7-3.18 16.42-2.84 23.09a102.5 102.5 0 0 0 1.5 12.9l.72 4.13-.72.68c-1.03 1-2.2 2.13-3.58 3.5-.85.85-1.8 1.75-2.79 2.71-8.38 8.08-21.07 20.3-21.07 39.3 0 4.66.9 9.04 2.66 13.02a31.15 31.15 0 0 0 6.77 9.67c7.67 7.5 18.17 10.68 25.17 10.52 2.93-.07 5.54-.3 7.91-.75 1.82 9.52 2.95 16.5 2.99 21.79.04 6.46-1.6 10.4-5.47 13.14a15.3 15.3 0 0 1-8.27 2.81c-2.57.12-4.81-.35-6.23-.75h-.01s-.29-.08-.3-.28c0-.18.34-.23.35-.23h.02c1.9-.44 5.44-1.66 7.78-4.93 1.79-2.5 2.65-7.08.83-11-1.1-2.36-3.6-5.29-9.17-5.73a11.04 11.04 0 0 0-11.03 6.18c-2.44 4.66-1.98 10.34 1.12 14.15 2.94 3.6 7.52 5.88 12.9 6.46a23.62 23.62 0 0 0 14.83-3.25c3.64-2.55 5.74-6.5 6.42-12.09.55-4.6.17-10.46-1.22-18.47l-1.55-8.8c5.7-1.91 9.83-5.45 13.57-11.26a24.33 24.33 0 0 0 2.78-18m-33.95 26c-4.6-1.21-9-3.7-12.73-7.16a20.19 20.19 0 0 1-4.6-6.74 24.37 24.37 0 0 1-1.97-10.1c.07-4.65 1.37-9.43 3.86-14.18 2.9-5.54 7.42-11.02 13.43-16.31a95.65 95.65 0 0 0 4.07-3.81l2.45 13.72a21.2 21.2 0 0 0-11.6 9.98c-3.51 6.52-3.37 12-2.65 15.44.93 4.43 3.44 8.16 6.87 10.23.93.56 5.02 2.67 6.85 2.1.37-.12.63-.34.77-.67.5-1.16-.5-1.8-2.05-2.75-.6-.36-1.26-.78-1.98-1.3-3.3-2.48-4.74-6.9-3.68-11.24a12.4 12.4 0 0 1 3.68-6.2 14.13 14.13 0 0 1 6.04-3.27c2.02 11.15 4.06 22.21 5.69 30.5l.4 2.02c-4.35.92-8.66.83-12.84-.27m11.23-32.92c10.27-.46 14.5 6.92 15.39 11.71a22.8 22.8 0 0 1-1.08 11.1c-1.16 3.15-3.6 7.18-8.69 9.23a28.1 28.1 0 0 0-.22-1.27c-1.53-8.7-3.46-19.6-5.4-30.77m-7.26-70.37c1.76-5.7 4.48-8.92 6.46-10.63 1.73-1.51 3.37-2.21 4.28-2.21.14 0 .26.02.36.05.46.13.98.7 1.45 1.56 2.29 4.26 1.56 10.92.23 15.32-1.62 5.36-4.52 10.93-13.25 20.46l-.47-3.11c-1.24-8.22-.93-15.44.94-21.44m29.97 387.31a28.14 28.14 0 0 0-4.62-10.2c-3.16-4.24-7.14-7.07-11.79-8.41-3.09-.88-6.06-1-8.46-.81a3126.7 3126.7 0 0 1-2.93-17.2c5.4-6.13 9-11.88 11.26-16.14 3.44-6.53 4.58-11.08 4.63-11.27 1.7-5.17 2.07-12.81.98-20.95-1-7.5-3.08-14.15-5.41-17.37-1.02-1.42-2.06-2.15-3.1-2.15-1.2 0-3.7 1.23-6.56 3.98a36.12 36.12 0 0 0-8.07 12c-2.97 7-3.18 16.42-2.84 23.09a102.5 102.5 0 0 0 1.5 12.9l.72 4.13-.72.68c-1.03 1-2.2 2.13-3.58 3.5-.85.85-1.8 1.75-2.79 2.71-8.38 8.08-21.07 20.3-21.07 39.3 0 4.66.9 9.04 2.66 13.02a31.15 31.15 0 0 0 6.77 9.67c7.67 7.5 18.17 10.68 25.17 10.52 2.93-.07 5.54-.3 7.91-.75 1.82 9.52 2.95 16.5 2.99 21.79.04 6.46-1.6 10.4-5.47 13.14a15.3 15.3 0 0 1-8.27 2.81c-2.57.12-4.81-.35-6.23-.75h-.01s-.29-.08-.3-.28c0-.18.34-.23.35-.23h.02c1.9-.43 5.44-1.65 7.78-4.93 1.79-2.5 2.65-7.08.83-10.99-1.1-2.37-3.6-5.3-9.17-5.74a11.04 11.04 0 0 0-11.03 6.18c-2.44 4.66-1.98 10.34 1.12 14.15 2.94 3.6 7.52 5.89 12.9 6.46a23.62 23.62 0 0 0 14.83-3.25c3.64-2.55 5.74-6.5 6.42-12.09.55-4.6.17-10.46-1.22-18.47l-1.55-8.8c5.7-1.91 9.83-5.45 13.57-11.26a24.33 24.33 0 0 0 2.78-17.99M53.2 772.59c-4.6-1.21-9-3.69-12.73-7.16a20.19 20.19 0 0 1-4.6-6.74 24.37 24.37 0 0 1-1.97-10.1c.07-4.65 1.37-9.43 3.86-14.18 2.9-5.54 7.42-11.02 13.43-16.31a95.64 95.64 0 0 0 4.07-3.8l2.46 13.7a21.2 21.2 0 0 0-11.61 10c-3.51 6.52-3.37 12-2.65 15.44.93 4.43 3.44 8.16 6.87 10.23.93.56 5.02 2.67 6.85 2.1.37-.12.63-.34.77-.67.5-1.16-.5-1.8-2.05-2.75-.6-.36-1.26-.78-1.98-1.3-3.3-2.48-4.74-6.9-3.68-11.24a12.4 12.4 0 0 1 3.68-6.2 14.13 14.13 0 0 1 6.04-3.27c2.02 11.15 4.06 22.21 5.69 30.5l.4 2.02c-4.35.92-8.66.83-12.84-.27m11.23-32.91c10.27-.47 14.5 6.91 15.39 11.7.46 2.51.45 6.92-1.08 11.1-1.16 3.15-3.6 7.18-8.69 9.23a28.1 28.1 0 0 0-.22-1.27c-1.53-8.7-3.46-19.6-5.4-30.76m-7.26-70.38c1.76-5.7 4.48-8.91 6.46-10.63 1.73-1.5 3.37-2.21 4.28-2.21.14 0 .26.02.36.05.46.14.98.7 1.45 1.56 2.29 4.26 1.56 10.92.23 15.32-1.62 5.36-4.52 10.93-13.25 20.47l-.47-3.12c-1.24-8.22-.93-15.44.94-21.44m29.97 387.31a28.14 28.14 0 0 0-4.62-10.2c-3.16-4.24-7.14-7.07-11.79-8.41-3.09-.88-6.06-1-8.46-.81a3126.7 3126.7 0 0 1-2.93-17.2c5.4-6.13 9-11.88 11.26-16.14 3.44-6.53 4.58-11.08 4.63-11.27 1.7-5.17 2.07-12.81.98-20.95-1-7.5-3.08-14.15-5.41-17.37-1.02-1.42-2.06-2.15-3.1-2.15-1.2 0-3.7 1.23-6.56 3.98a36.12 36.12 0 0 0-8.07 12c-2.97 7-3.18 16.42-2.84 23.09a102.5 102.5 0 0 0 1.5 12.9l.72 4.13-.72.68c-1.03 1-2.2 2.13-3.58 3.5-.85.85-1.8 1.75-2.79 2.71-8.38 8.08-21.07 20.3-21.07 39.3 0 4.66.9 9.04 2.66 13.02a31.15 31.15 0 0 0 6.77 9.67c7.67 7.5 18.17 10.68 25.17 10.52 2.93-.07 5.54-.3 7.91-.75 1.82 9.52 2.95 16.5 2.99 21.79.04 6.46-1.6 10.4-5.47 13.14a15.3 15.3 0 0 1-8.27 2.81c-2.57.12-4.81-.35-6.23-.75h-.01s-.29-.08-.3-.28c0-.18.34-.23.35-.23h.02c1.9-.43 5.44-1.65 7.78-4.93 1.79-2.5 2.65-7.08.83-10.99-1.1-2.37-3.6-5.3-9.17-5.74a11.04 11.04 0 0 0-11.03 6.18c-2.44 4.66-1.98 10.34 1.12 14.15 2.94 3.6 7.52 5.89 12.9 6.46a23.62 23.62 0 0 0 14.83-3.25c3.64-2.55 5.74-6.5 6.42-12.09.55-4.6.17-10.46-1.22-18.47l-1.55-8.8c5.7-1.91 9.83-5.45 13.57-11.26a24.33 24.33 0 0 0 2.78-17.99m-33.94 25.98c-4.6-1.21-9-3.69-12.73-7.16a20.19 20.19 0 0 1-4.6-6.74 24.37 24.37 0 0 1-1.97-10.1c.07-4.65 1.37-9.43 3.86-14.18 2.9-5.54 7.42-11.02 13.43-16.31a95.64 95.64 0 0 0 4.07-3.8l2.45 13.71a21.2 21.2 0 0 0-11.61 9.99c-3.51 6.52-3.37 12-2.65 15.44.93 4.43 3.44 8.16 6.87 10.23.93.56 5.02 2.67 6.85 2.1.37-.12.63-.34.77-.67.5-1.16-.5-1.8-2.05-2.75-.6-.36-1.26-.78-1.98-1.3-3.3-2.48-4.74-6.9-3.68-11.24a12.4 12.4 0 0 1 3.68-6.2 14.13 14.13 0 0 1 6.04-3.27c2.02 11.15 4.06 22.21 5.69 30.5l.4 2.02c-4.35.92-8.66.83-12.84-.27m11.23-32.91c10.27-.47 14.5 6.91 15.39 11.7.46 2.51.45 6.92-1.08 11.1-1.16 3.15-3.6 7.18-8.69 9.23a28.1 28.1 0 0 0-.22-1.27c-1.53-8.7-3.46-19.6-5.4-30.76m-7.26-70.38c1.76-5.7 4.48-8.91 6.46-10.63 1.73-1.5 3.37-2.21 4.28-2.21.14 0 .26.02.36.05.46.14.98.7 1.45 1.56 2.29 4.26 1.56 10.92.23 15.32-1.62 5.36-4.52 10.93-13.25 20.47l-.47-3.12c-1.24-8.22-.93-15.43.94-21.44" class="Clef" style="stroke-width:.992001"/><path d="M143.22 81.49c3.3-2.49 5.6-5.65 5.6-9.63 0-7.18-7.83-13-17.49-13-9.65 0-17.48 5.83-17.48 13 0 3.98 1 7.55 5.69 10.48-4.52 2.65-6.96 6.28-6.96 11.01 0 8.02 8.4 14.52 18.75 14.52 10.36 0 18.75-6.5 18.75-14.52 0-4.73-1.72-9.24-6.86-11.86m-11.9 20.8c-6.3 0-11.8-3.45-11.8-8.98 0-6.65 5.14-8.25 5.14-8.25 6.74 2.25 16.4 5.66 16.4 11.07 0 2.71-3.43 6.16-9.74 6.16m6.34-23.53c-6.75-2.1-14.17-5.37-14.17-9.88 0-3.9 3.57-5.44 7.83-5.44 6.11 0 10.33 2.86 10.33 7.43 0 4.76-2.2 7.02-3.99 7.9" class="TimeSig" style="stroke-width:.992001"/><path d="M143.22 130.22c3.3-2.49 5.6-5.65 5.6-9.63 0-7.18-7.83-13-17.49-13-9.65 0-17.48 5.83-17.48 13 0 3.98 1 7.55 5.69 10.49-4.52 2.64-6.96 6.27-6.96 11 0 8.02 8.4 14.52 18.75 14.52 10.36 0 18.75-6.5 18.75-14.51 0-4.74-1.72-9.25-6.86-11.87m-11.9 20.8c-6.3 0-11.8-3.45-11.8-8.98 0-6.65 5.14-8.25 5.14-8.25 6.74 2.26 16.4 5.66 16.4 11.07 0 2.71-3.43 6.16-9.74 6.16m6.34-23.53c-6.75-2.09-14.17-5.37-14.17-9.88 0-3.9 3.57-5.44 7.83-5.44 6.11 0 10.33 2.86 10.33 7.43 0 4.76-2.2 7.02-3.99 7.9m2412.12-68.24c0-1.16-.96-1.37-.96-1.37h-1.95c-1.1 0-1.16 1.37-1.16 1.37s.04 7.8-4.14 7.8c-4.19 0-5.37-8.51-11.84-8.51-6.17 0-9.89 6.31-10.2 6.88v-4.75c0-.61-.51-1.1-1.13-1.12h-2.26c-.61 0-1.11.5-1.12 1.12v18.3c0 .62.5 1.12 1.12 1.13h2.26c.62 0 1.11-.5 1.12-1.12v-3.15c0-2.3 1.53-5.39 4.98-5.39 3.46 0 3.96 3.85 11.66 3.85 0 0 5.6-.19 6.72-1.3 0 0-9.7 16.93-13.2 21.96-4.94 7.07-5.1 10.73-5.1 10.73-.08.5-.16 1.87 1.4 1.9 1.56.02 2.56-.4 5.74-.62 3.17-.2 6.48.62 7.3.62.81 0 1.16-.33 1.43-.56.17-.15.33-.3.48-.47.28-.28.68-.63.53-1.28-.08-.33-1.48-7.6.15-13.57 1.27-4.64 4.34-13.1 6.57-19.35 2.18-6.03 1.6-13.1 1.6-13.1" class="TimeSig" style="stroke-width:.992001"/><path d="M2544.32 130.22c3.3-2.49 5.6-5.65 5.6-9.63 0-7.18-7.83-13-17.48-13s-17.48 5.83-17.48 13c0 3.98 1 7.55 5.68 10.49-4.52 2.64-6.95 6.27-6.95 11 0 8.02 8.4 14.52 18.75 14.52 10.36 0 18.75-6.5 18.75-14.51-.01-4.74-1.73-9.25-6.87-11.87m-11.9 20.8c-6.3 0-11.79-3.45-11.79-8.98 0-6.65 5.13-8.25 5.13-8.25 6.75 2.26 16.41 5.66 16.41 11.07 0 2.71-3.43 6.16-9.74 6.16m6.34-23.53c-6.76-2.09-14.18-5.37-14.18-9.88 0-3.9 3.57-5.44 7.84-5.44 6.11 0 10.33 2.86 10.33 7.43 0 4.76-2.2 7.02-4 7.9M148.68 369.27c0-1.16-.96-1.38-.96-1.38h-1.95c-1.11 0-1.16 1.38-1.16 1.38s.04 7.8-4.15 7.8c-4.18 0-5.36-8.52-11.83-8.52-6.17 0-9.9 6.31-10.2 6.89v-4.76c0-.61-.51-1.1-1.13-1.12h-2.26c-.62 0-1.11.5-1.12 1.12v18.3c0 .62.5 1.12 1.12 1.13h2.26c.62 0 1.11-.5 1.12-1.12v-3.15c0-2.3 1.53-5.38 4.98-5.38s3.96 3.84 11.66 3.84c0 0 5.6-.18 6.71-1.3 0 0-9.7 16.93-13.2 21.96-4.93 7.07-5.1 10.73-5.1 10.73-.07.5-.15 1.87 1.41 1.9 1.56.03 2.56-.4 5.73-.62 3.18-.2 6.5.62 7.3.62.82 0 1.17-.33 1.44-.56.17-.15.33-.3.48-.47.28-.28.67-.63.52-1.28-.07-.33-1.47-7.6.15-13.57 1.27-4.64 4.35-13.09 6.58-19.35 2.17-6.03 1.6-13.1 1.6-13.1" class="TimeSig" style="stroke-width:.992001"/><path d="M143.22 440.22c3.3-2.49 5.6-5.65 5.6-9.63 0-7.18-7.83-13-17.49-13-9.65 0-17.48 5.83-17.48 13 0 3.98 1 7.55 5.69 10.49-4.52 2.64-6.96 6.27-6.96 11 0 8.02 8.4 14.52 18.75 14.52 10.36 0 18.75-6.5 18.75-14.51 0-4.74-1.72-9.25-6.86-11.87m-11.9 20.8c-6.3 0-11.8-3.45-11.8-8.98 0-6.65 5.14-8.25 5.14-8.25 6.74 2.26 16.4 5.66 16.4 11.07 0 2.71-3.43 6.16-9.74 6.16m6.34-23.53c-6.75-2.09-14.17-5.37-14.17-9.88 0-3.9 3.57-5.44 7.83-5.44 6.11 0 10.33 2.86 10.33 7.43 0 4.76-2.2 7.02-3.99 7.9M2537 388.57c-6.06 0-8.24 1.78-9.63 3.27-.3-2.08-.5-3.67-.5-5.26 0-1.58.2-2.97.5-4.76.6-3.67 3.08-8.23 8.43-8.23 2.48 0 3.97.8 4.96 1.88a6.94 6.94 0 0 0-3.77 5.85 6.27 6.27 0 0 0 6.35 6.35 6.35 6.35 0 0 0 6.45-6.35v-.3c0-.89-.2-2.37-.6-3.17-1.28-3.57-5.45-8.83-15.37-8.83-8.93 0-15.38 8.54-17.36 13.1-1 2.38-2.48 7.24-2.48 12.8 0 6.05 1.69 12.9 7.54 18.05 5.75 4.36 9.42 4.56 12.9 4.56 3.47 0 16.46-4.06 16.46-15.57 0-9.72-7.64-13.4-13.89-13.4m-3.67 24.8c-3.27 0-5.95-4.46-5.95-10.01 0-5.56 2.68-10.12 5.95-10.12 3.28 0 6.06 4.56 6.06 10.12 0 5.55-2.78 10.02-6.06 10.02m11 26.85c3.3-2.49 5.6-5.65 5.6-9.63 0-7.18-7.83-13-17.48-13s-17.48 5.83-17.48 13c0 3.98 1 7.55 5.68 10.49-4.52 2.64-6.95 6.27-6.95 11 0 8.02 8.4 14.52 18.75 14.52 10.36 0 18.75-6.5 18.75-14.51-.01-4.74-1.73-9.25-6.87-11.87m-11.9 20.8c-6.3 0-11.79-3.45-11.79-8.98 0-6.65 5.13-8.25 5.13-8.25 6.75 2.26 16.41 5.66 16.41 11.07 0 2.71-3.43 6.16-9.74 6.16m6.34-23.53c-6.76-2.09-14.18-5.37-14.18-9.88 0-3.9 3.57-5.44 7.84-5.44 6.11 0 10.33 2.86 10.33 7.43 0 4.76-2.2 7.02-4 7.9M135.9 698.57c-6.06 0-8.24 1.79-9.63 3.28a37 37 0 0 1-.5-5.26c0-1.59.2-2.98.5-4.76.6-3.67 3.08-8.24 8.43-8.24 2.48 0 3.97.8 4.96 1.89-2.08.89-3.77 3.57-3.77 5.85a6.27 6.27 0 0 0 6.35 6.35 6.35 6.35 0 0 0 6.45-6.35v-.3c0-.89-.2-2.38-.6-3.17-1.28-3.57-5.45-8.83-15.37-8.83-8.93 0-15.38 8.53-17.36 13.1-1 2.37-2.48 7.24-2.48 12.79 0 6.05 1.69 12.9 7.54 18.05 5.75 4.37 9.42 4.57 12.9 4.57 3.47 0 16.46-4.07 16.46-15.58 0-9.72-7.64-13.39-13.89-13.39m-3.67 24.8c-3.27 0-5.95-4.46-5.95-10.02 0-5.55 2.68-10.12 5.95-10.12 3.28 0 6.05 4.57 6.05 10.12 0 5.56-2.77 10.02-6.05 10.02m11 26.86c3.3-2.5 5.6-5.66 5.6-9.63 0-7.19-7.83-13-17.49-13-9.65 0-17.48 5.82-17.48 13 0 3.97 1 7.54 5.69 10.48-4.52 2.65-6.96 6.28-6.96 11.01 0 8.02 8.4 14.51 18.75 14.51 10.36 0 18.75-6.5 18.75-14.5 0-4.74-1.72-9.25-6.86-11.87m-11.9 20.8c-6.3 0-11.8-3.45-11.8-8.99 0-6.64 5.14-8.24 5.14-8.24 6.74 2.25 16.4 5.65 16.4 11.07 0 2.7-3.43 6.16-9.74 6.16m6.34-23.53c-6.75-2.1-14.17-5.38-14.17-9.88 0-3.9 3.57-5.45 7.83-5.45 6.11 0 10.33 2.87 10.33 7.43 0 4.76-2.2 7.03-3.99 7.9m2378.75-65.94s.5 4.76.5 9.92v1.29c-.1 5.55-.5 12.1-.5 12.1s-.2 1.39.7 1.59c.89.2 2.97.7 3.47.79.6.1 1.19.1 1.48-.7.5-1.28 1.6-6.44 7.84-6.44 7.04 0 8.33 6.05 8.33 10.81 0 4.96-1.58 12.1-8.13 12.4h-.8c-2.28 0-3.56-.3-4.16-.7-.6-.2-.7-.89-.1-1.28.9-.6 3.97-1.69 3.97-6.55 0-4.86-3.37-6.75-7.24-6.75s-6.55 3.58-6.55 6.95 1 7.14 6.15 10.12c2.48 1.39 6.05 2.28 9.72 2.28 5.06 0 10.52-1.59 14.09-5.26a16.18 16.18 0 0 0 4.46-11.4c0-5.36-2.38-10.52-6.05-13-2.48-1.69-6.74-3.08-11.2-3.08a17 17 0 0 0-9.63 2.78c-.1.1-.3.1-.4.1-.4 0-.7-.3-.7-.7v-6.25c0-.6.5-1.09 1.1-1.09h.1c1.49.1 4.76.5 8.23.5 2.98 0 6.05-.3 8.24-1.2 4.66-1.88 6.25-5.55 7.04-7.63.1-.3.2-.7.2-1 0-.79-.5-1.38-1.79-1.38-.4 0-.8.1-1.39.2a49.74 49.74 0 0 1-12.3 1.59c-3.57 0-7.04-.4-11.3-1 0 0-.5-.1-1.2-.1-1.09 0-2.38.3-2.18 2.09m27.91 68.67c3.3-2.5 5.6-5.66 5.6-9.63 0-7.19-7.83-13-17.48-13s-17.48 5.82-17.48 13c0 3.97 1 7.54 5.68 10.48-4.52 2.65-6.95 6.28-6.95 11.01 0 8.02 8.4 14.51 18.75 14.51 10.36 0 18.75-6.5 18.75-14.5-.01-4.74-1.73-9.25-6.87-11.87m-11.9 20.8c-6.3 0-11.79-3.45-11.79-8.99 0-6.64 5.13-8.24 5.13-8.24 6.75 2.25 16.41 5.65 16.41 11.07 0 2.7-3.43 6.16-9.74 6.16m6.34-23.53c-6.76-2.1-14.18-5.38-14.18-9.88 0-3.9 3.57-5.45 7.84-5.45 6.11 0 10.33 2.87 10.33 7.43 0 4.76-2.2 7.03-4 7.9M115.3 991.56s.5 4.76.5 9.92v1.29c-.1 5.55-.5 12.1-.5 12.1s-.19 1.39.7 1.59c.9.2 2.98.7 3.48.79.6.1 1.19.1 1.48-.7.5-1.28 1.6-6.44 7.84-6.44 7.04 0 8.33 6.05 8.33 10.81 0 4.96-1.58 12.1-8.13 12.4h-.8c-2.28 0-3.57-.3-4.16-.7-.6-.2-.7-.89-.1-1.28.9-.6 3.97-1.69 3.97-6.55 0-4.86-3.37-6.75-7.24-6.75s-6.55 3.57-6.55 6.95c0 3.37 1 7.14 6.15 10.12 2.48 1.39 6.05 2.28 9.72 2.28 5.06 0 10.52-1.59 14.09-5.26a16.18 16.18 0 0 0 4.46-11.4c0-5.36-2.38-10.52-6.05-13-2.48-1.69-6.75-3.08-11.2-3.08a17 17 0 0 0-9.63 2.78c-.1.1-.3.1-.4.1-.4 0-.7-.3-.7-.7v-6.25c0-.6.5-1.09 1.1-1.09h.1c1.49.1 4.76.5 8.23.5 2.98 0 6.05-.3 8.23-1.2 4.67-1.88 6.25-5.55 7.05-7.63.1-.3.2-.7.2-1 0-.79-.5-1.38-1.79-1.38-.4 0-.8.1-1.39.2a49.74 49.74 0 0 1-12.3 1.59c-3.57 0-7.04-.4-11.3-1 0 0-.5-.1-1.2-.1-1.09 0-2.38.3-2.18 2.09m27.91 68.67c3.3-2.5 5.6-5.66 5.6-9.64 0-7.18-7.83-12.99-17.49-12.99-9.65 0-17.48 5.82-17.48 13 0 3.97 1 7.54 5.69 10.48-4.52 2.65-6.96 6.28-6.96 11.01 0 8.02 8.4 14.51 18.75 14.51 10.36 0 18.75-6.5 18.75-14.5 0-4.74-1.72-9.25-6.86-11.87m-11.9 20.8c-6.3 0-11.8-3.45-11.8-8.99 0-6.64 5.14-8.24 5.14-8.24 6.74 2.25 16.4 5.65 16.4 11.07 0 2.7-3.43 6.16-9.74 6.16m6.34-23.53c-6.75-2.1-14.17-5.38-14.17-9.88 0-3.9 3.57-5.45 7.83-5.45 6.11 0 10.33 2.87 10.33 7.43 0 4.76-2.2 7.03-3.99 7.9m2373.24-31.99h17.05v7.36h-8.17c-.77 0-1.4.63-1.4 1.4v1.9c0 .77.63 1.4 1.4 1.4h30.01c.77 0 1.4-.63 1.4-1.4v-1.9c0-.77-.63-1.4-1.4-1.4h-8.87v-7.36h8.87c.77 0 1.4-.62 1.4-1.4v-1.9a1.4 1.4 0 0 0-1.4-1.39h-8.87v-15.83c0-.54-.3-1.01-.77-1.25l-1.2-.6a1.4 1.4 0 0 0-1.58.23l-8.98 8.25a1.4 1.4 0 0 0-.45 1.04v8.16h-11.42s11.03-11.93 22.77-27.58c.87-1.14.37-2.18.18-2.37l-2.15-2.2c-.27-.25-.62-.4-1-.4-.59 0-14.03.02-14.74 0-.72-.02-1.25.6-1.32 1.21 0 0-.54 7.3-3.12 15.37-2.58 8.05-5.5 13-8.13 16.6 0 0-.54.98-.18 1.71.35.74.97 1.83.97 1.83s.26.52 1.1.52m31.04 34.72c3.3-2.5 5.6-5.66 5.6-9.64 0-7.18-7.83-12.99-17.48-12.99s-17.48 5.82-17.48 13c0 3.97 1 7.54 5.68 10.48-4.52 2.65-6.95 6.28-6.95 11.01 0 8.02 8.4 14.51 18.75 14.51 10.36 0 18.75-6.5 18.75-14.5-.01-4.74-1.73-9.25-6.87-11.87m-11.9 20.8c-6.3 0-11.79-3.45-11.79-8.99 0-6.64 5.13-8.24 5.13-8.24 6.75 2.25 16.41 5.65 16.41 11.07 0 2.7-3.43 6.16-9.74 6.16m6.34-23.53c-6.76-2.1-14.18-5.38-14.18-9.88 0-3.9 3.57-5.45 7.84-5.45 6.11 0 10.33 2.87 10.33 7.43 0 4.76-2.2 7.03-4 7.9" class="TimeSig" style="stroke-width:.992001"/><path fill-rule="evenodd" d="M237.86 20.83h649.98v12.4H237.86v-12.4m-38.18 446.4h524.9v12.4h-524.9v-12.4m38.18 173.6h511.91v12.4h-511.9v-12.4m-38.19 446.4h404.59v12.4h-404.6v-12.4" class="Beam"/><path d="M127.06 290.14c-2.94-2.1-4.32-3.66-5.64-6.54-1.86-4.02-2.82-9.54-2.82-16.14 0-5.88.78-10.92 2.34-14.88 1.38-3.6 2.82-5.4 6.12-7.74v-3c-4.02 2.1-6.3 3.84-9 6.96a28.66 28.66 0 0 0-6.96 18.66c0 6.42 2.1 12.54 6.06 17.58a27.5 27.5 0 0 0 9.9 8.1v-3m50.18-23.71c-.32-8.15-4.44-14.48-5.7-16.23 0-.03-.03-.05-.03-.06-.03-.11-.34-.49-2.4-2.85-2.48-2.87-6.24-7.2-7.5-9.14a36.78 36.78 0 0 1-4.04-8.57c-.06-.16-.47-1.78-.64-2.48l-.1-.39c-.07-.26-.31-.82-1.16-.82-.08 0-.16 0-.25.02-.7.08-1.08.68-1.08 1.2v46.08a9.92 9.92 0 0 0-4.1-1.27c-.45-.05-.9-.06-1.35-.06a18 18 0 0 0-8.4 2.26 17.28 17.28 0 0 0-7.2 6.93c-1.44 2.76-1.59 5.48-.42 7.65 1.39 2.57 4.4 3.9 7.96 3.9a18 18 0 0 0 8.42-2.25c5.15-2.79 8.36-7.38 8.38-11.38v-33.7a31.57 31.57 0 0 1 13.16 12.11l.34.6c1.31 2.2 3.1 5.24 3.1 10.79 0 5.11-.68 10.33-2.03 15.5-.2.74-.43 1.69.45 2.05a1 1 0 0 0 .37.07c.56 0 .82-.63 1.05-1.2l.02-.06a46.16 46.16 0 0 0 3.15-18.7m22.23 14.11h30.24v-6.9h-30.24v6.9m0-12.36h30.24v-6.9h-30.24v6.9m97.64-1.75c-.32-8.15-4.43-14.48-5.69-16.23l-.04-.06c-.02-.11-.34-.49-2.39-2.85-2.49-2.87-6.25-7.2-7.5-9.14a36.78 36.78 0 0 1-4.05-8.57 80.7 80.7 0 0 1-.63-2.48l-.1-.39c-.07-.26-.32-.82-1.17-.82-.08 0-.15 0-.24.02-.7.08-1.09.68-1.09 1.2v46.08a9.92 9.92 0 0 0-4.1-1.27c-.44-.05-.9-.06-1.35-.06a18 18 0 0 0-8.4 2.26 17.28 17.28 0 0 0-7.2 6.93c-1.43 2.76-1.58 5.48-.41 7.65 1.38 2.57 4.4 3.9 7.96 3.9 2.65 0 5.6-.73 8.41-2.25 5.16-2.79 8.37-7.38 8.38-11.38v-33.7a31.57 31.57 0 0 1 13.17 12.11l.34.6c1.3 2.2 3.1 5.24 3.1 10.79 0 5.11-.69 10.33-2.03 15.5-.2.74-.44 1.69.44 2.05a1 1 0 0 0 .37.07c.57 0 .83-.63 1.06-1.2l.02-.06a46.16 46.16 0 0 0 3.14-18.7m4.96-21.59c2.94 2.1 4.32 3.66 5.64 6.54 1.86 4.02 2.82 9.54 2.82 16.08 0 5.94-.78 10.98-2.34 14.94-1.38 3.6-2.82 5.46-6.12 7.74v3c4.02-2.1 6.3-3.84 9-6.96a28.7 28.7 0 0 0 6.96-18.72c0-6.36-2.1-12.48-6.06-17.52-2.82-3.66-5.52-5.82-9.9-8.1v3" class="Tempo"/><path d="M1083.68 405.23a4.96 4.96 0 1 0 9.92 0 4.96 4.96 0 0 0-9.92 0m0-74.4a4.96 4.96 0 1 0 9.92 0 4.96 4.96 0 0 0-9.92 0m393.8 74.4a4.96 4.96 0 1 0 9.92 0 4.96 4.96 0 0 0-9.92 0m0-74.4a4.96 4.96 0 1 0 9.92 0 4.96 4.96 0 0 0-9.92 0m527.67 148.8a4.96 4.96 0 1 0 9.92 0 4.96 4.96 0 0 0-9.92 0m0-99.2a4.96 4.96 0 1 0 9.92 0 4.96 4.96 0 0 0-9.92 0m385.12 99.2a4.96 4.96 0 1 0 9.92 0 4.96 4.96 0 0 0-9.92 0m0-99.2a4.96 4.96 0 1 0 9.92 0 4.96 4.96 0 0 0-9.92 0M929.13 789.63a4.96 4.96 0 1 0 9.92 0 4.96 4.96 0 0 0-9.92 0m0-74.4a4.96 4.96 0 1 0 9.92 0 4.96 4.96 0 0 0-9.92 0m359.7 74.4a4.96 4.96 0 1 0 9.92 0 4.96 4.96 0 0 0-9.92 0m0-99.2a4.96 4.96 0 1 0 9.92 0 4.96 4.96 0 0 0-9.92 0m558.01 49.6a4.96 4.96 0 1 0 9.92 0 4.96 4.96 0 0 0-9.92 0m0-99.2a4.96 4.96 0 1 0 9.92 0 4.96 4.96 0 0 0-9.92 0m368.38 74.4a4.96 4.96 0 1 0 9.92 0 4.96 4.96 0 0 0-9.92 0m0-74.4a4.96 4.96 0 1 0 9.92 0 4.96 4.96 0 0 0-9.92 0m-1423.2 384.4a4.96 4.96 0 1 0 9.92 0 4.96 4.96 0 0 0-9.92 0m0-74.4a4.96 4.96 0 1 0 9.92 0 4.96 4.96 0 0 0-9.92 0m412.76 74.4a4.96 4.96 0 1 0 9.92 0 4.96 4.96 0 0 0-9.92 0m0-74.4a4.96 4.96 0 1 0 9.92 0 4.96 4.96 0 0 0-9.92 0m555.32 148.8a4.96 4.96 0 1 0 9.92 0 4.96 4.96 0 0 0-9.92 0m0-99.2a4.96 4.96 0 1 0 9.92 0 4.96 4.96 0 0 0-9.92 0m412.76 99.2a4.96 4.96 0 1 0 9.92 0 4.96 4.96 0 0 0-9.92 0m0-99.2a4.96 4.96 0 1 0 9.92 0 4.96 4.96 0 0 0-9.92 0" class="NoteDot" style="stroke-width:.992001"/><path fill-rule="evenodd" d="m1014.43 39.43 29.76-12.4v12.4l-29.76 12.4v-12.4m326.28-12.4 29.76-12.4v12.4l-29.76 12.4v-12.4m537.69 148.8 29.75-12.4v12.4l-29.76 12.4v-12.4m332.11-12.4 29.75-12.4v12.4l-29.76 12.4v-12.4m-1369.75 310 29.76-12.4v12.4l-29.76 12.4v-12.4m184.79 0 29.76-12.4v12.4l-29.76 12.4v-12.4m209.01 0 29.76-12.4v12.4l-29.76 12.4v-12.4m184.79 0 29.76-12.4v12.4l-29.76 12.4v-12.4m372.38-136.4 29.76-12.4v12.4l-29.76 12.4v-12.4m184.8 0 29.76-12.4v12.4l-29.76 12.4v-12.4m200.32 0 29.76-12.4v12.4l-29.76 12.4v-12.4m184.8 0 29.76-12.4v12.4l-29.76 12.4v-12.4M900.5 659.43l29.75-12.4v12.4l-29.76 12.4v-12.4m359.71-12.4 29.75-12.4v12.4l-29.76 12.4v-12.4m528.51 148.8 29.75-12.4v12.4l-29.76 12.4v-12.4m368.38-12.4 29.76-12.4v12.4l-29.76 12.4v-12.4m-1423.2 310 29.77-12.4v12.4l-29.77 12.4v-12.4m207.1 0 29.76-12.4v12.4l-29.76 12.4v-12.4m205.66 0 29.76-12.4v12.4l-29.76 12.4v-12.4m207.1 0 29.76-12.4v12.4l-29.76 12.4v-12.4m377.72-136.4 29.76-12.4v12.4l-29.76 12.4v-12.4m207.1 0 29.76-12.4v12.4l-29.76 12.4v-12.4m205.67 0 29.76-12.4v12.4l-29.76 12.4v-12.4m207.09 0 29.76-12.4v12.4l-29.76 12.4v-12.4" class="Tremolo"/></svg>