<svg xmlns="http://www.w3.org/2000/svg" width="2550.59" height="1863.57" version="1.2"><path fill="none" stroke="#000" stroke-linejoin="bevel" stroke-width="2.73" d="M32.37 61.65h2518.22M32.37 86.45h2518.22M32.37 111.25h2518.22M32.37 136.05h2518.22M32.37 160.85h2518.22M32.37 212.17h2518.22M32.37 236.97h2518.22M32.37 261.77h2518.22M32.37 286.57h2518.22M32.37 311.37h2518.22M32.37 439.68h2518.22M32.37 464.48h2518.22M32.37 489.28h2518.22M32.37 514.08h2518.22M32.37 538.88h2518.22M32.37 590.2h2518.22M32.37 615h2518.22M32.37 639.8h2518.22M32.37 664.6h2518.22M32.37 689.4h2518.22M32.37 817.71h2518.22M32.37 842.51h2518.22M32.37 867.31h2518.22M32.37 892.11h2518.22M32.37 916.91h2518.22M32.37 968.23h2518.22M32.37 993.03h2518.22m-2518.22 24.8h2518.22m-2518.22 24.8h2518.22m-2518.22 24.8h2518.22M32.37 1195.73h2518.22m-2518.22 24.8h2518.22m-2518.22 24.8h2518.22m-2518.22 24.8h2518.22m-2518.22 24.8h2518.22M32.37 1346.26h2518.22m-2518.22 24.8h2518.22m-2518.22 24.8h2518.22m-2518.22 24.8h2518.22m-2518.22 24.8h2518.22M32.37 1573.76h2518.22m-2518.22 24.8h2518.22m-2518.22 24.8h2518.22m-2518.22 24.8h2518.22m-2518.22 24.8h2518.22M32.37 1724.3h2518.22M32.37 1749.1h2518.22M32.37 1773.9h2518.22M32.37 1798.7h2518.22M32.37 1823.5h2518.22" class="StaffLines"/><path fill="none" stroke="#000" stroke-linejoin="bevel" stroke-width="4.46" d="M34.6 210.81v101.93" class="BarLine"/><path fill="none" stroke="#000" stroke-linejoin="bevel" stroke-width="13.64" d="M141.76 210.81v101.93" class="BarLine"/><path fill="none" stroke="#000" stroke-linejoin="bevel" stroke-width="4.46" d="M159.12 210.81v101.93" class="BarLine"/><path d="M181.63 249.37a5.2 5.2 0 0 0-5.16-5.26 5.2 5.2 0 0 0-5.15 5.26 5.2 5.2 0 0 0 5.15 5.26 5.2 5.2 0 0 0 5.16-5.26m0 24.8a5.2 5.2 0 0 0-5.16-5.26 5.2 5.2 0 0 0-5.15 5.26 5.2 5.2 0 0 0 5.15 5.26 5.2 5.2 0 0 0 5.16-5.26m2167.27-24.8a5.2 5.2 0 0 0-5.15-5.26 5.2 5.2 0 0 0-5.16 5.26 5.2 5.2 0 0 0 5.16 5.26 5.2 5.2 0 0 0 5.15-5.26m0 24.8a5.2 5.2 0 0 0-5.15-5.26 5.2 5.2 0 0 0-5.16 5.26 5.2 5.2 0 0 0 5.16 5.26 5.2 5.2 0 0 0 5.15-5.26" class="BarLine" style="stroke-width:.992001"/><path fill="none" stroke="#000" stroke-linejoin="bevel" stroke-width="4.46" d="M2361.1 210.81v101.93" class="BarLine"/><path fill="none" stroke="#000" stroke-linejoin="bevel" stroke-width="13.64" d="M2378.47 210.81v101.93" class="BarLine"/><path fill="none" stroke="#000" stroke-linejoin="bevel" stroke-width="4.46" d="M2534.72 210.81v101.93m13.64-101.93v101.93M34.6 588.84v101.92" class="BarLine"/><path fill="none" stroke="#000" stroke-linejoin="bevel" stroke-width="13.64" d="M199.09 588.84v101.92" class="BarLine"/><path fill="none" stroke="#000" stroke-linejoin="bevel" stroke-width="4.46" d="M216.45 588.84v101.92" class="BarLine"/><path d="M238.97 627.4a5.2 5.2 0 0 0-5.16-5.26 5.2 5.2 0 0 0-5.16 5.26 5.2 5.2 0 0 0 5.16 5.26 5.2 5.2 0 0 0 5.16-5.26m0 24.8a5.2 5.2 0 0 0-5.16-5.26 5.2 5.2 0 0 0-5.16 5.26 5.2 5.2 0 0 0 5.16 5.26 5.2 5.2 0 0 0 5.16-5.26m2120.04-24.8a5.2 5.2 0 0 0-5.15-5.26 5.2 5.2 0 0 0-5.16 5.26 5.2 5.2 0 0 0 5.16 5.26 5.2 5.2 0 0 0 5.15-5.26m0 24.8a5.2 5.2 0 0 0-5.15-5.26 5.2 5.2 0 0 0-5.16 5.26 5.2 5.2 0 0 0 5.16 5.26 5.2 5.2 0 0 0 5.15-5.26" class="BarLine" style="stroke-width:.992001"/><path fill="none" stroke="#000" stroke-linejoin="bevel" stroke-width="4.46" d="M2371.2 588.84v101.92" class="BarLine"/><path fill="none" stroke="#000" stroke-linejoin="bevel" stroke-width="13.64" d="M2388.57 588.84v101.92" class="BarLine"/><path fill="none" stroke="#000" stroke-linejoin="bevel" stroke-width="4.46" d="M2534.72 588.84v101.92m13.64-101.92v101.92M34.6 966.86v101.93" class="BarLine"/><path fill="none" stroke="#000" stroke-linejoin="bevel" stroke-width="13.64" d="M223.89 966.86v101.93" class="BarLine"/><path fill="none" stroke="#000" stroke-linejoin="bevel" stroke-width="4.46" d="M241.25 966.86v101.93" class="BarLine"/><path d="M263.77 1005.43a5.2 5.2 0 0 0-5.16-5.26 5.2 5.2 0 0 0-5.16 5.26 5.2 5.2 0 0 0 5.16 5.26 5.2 5.2 0 0 0 5.16-5.26m0 24.8a5.2 5.2 0 0 0-5.16-5.26 5.2 5.2 0 0 0-5.16 5.26 5.2 5.2 0 0 0 5.16 5.26 5.2 5.2 0 0 0 5.16-5.26m2101.51-24.8a5.2 5.2 0 0 0-5.15-5.26 5.2 5.2 0 0 0-5.16 5.26 5.2 5.2 0 0 0 5.16 5.26 5.2 5.2 0 0 0 5.15-5.26m0 24.8a5.2 5.2 0 0 0-5.15-5.26 5.2 5.2 0 0 0-5.16 5.26 5.2 5.2 0 0 0 5.16 5.26 5.2 5.2 0 0 0 5.15-5.26" class="BarLine" style="stroke-width:.992001"/><path fill="none" stroke="#000" stroke-linejoin="bevel" stroke-width="4.46" d="M2377.49 966.86v101.93" class="BarLine"/><path fill="none" stroke="#000" stroke-linejoin="bevel" stroke-width="13.64" d="M2394.85 966.86v101.93" class="BarLine"/><path fill="none" stroke="#000" stroke-linejoin="bevel" stroke-width="4.46" d="M2534.72 966.86v101.93m13.64-101.93v101.93M34.6 1344.9v101.92" class="BarLine"/><path fill="none" stroke="#000" stroke-linejoin="bevel" stroke-width="13.64" d="M248.69 1344.9v101.92" class="BarLine"/><path fill="none" stroke="#000" stroke-linejoin="bevel" stroke-width="4.46" d="M266.05 1344.9v101.92" class="BarLine"/><path d="M288.57 1383.46a5.2 5.2 0 0 0-5.16-5.26 5.2 5.2 0 0 0-5.16 5.26 5.2 5.2 0 0 0 5.16 5.26 5.2 5.2 0 0 0 5.16-5.26m0 24.8a5.2 5.2 0 0 0-5.16-5.26 5.2 5.2 0 0 0-5.16 5.26 5.2 5.2 0 0 0 5.16 5.26 5.2 5.2 0 0 0 5.16-5.26m2082.43-24.8a5.2 5.2 0 0 0-5.15-5.26 5.2 5.2 0 0 0-5.16 5.26 5.2 5.2 0 0 0 5.16 5.26 5.2 5.2 0 0 0 5.15-5.26m0 24.8a5.2 5.2 0 0 0-5.15-5.26 5.2 5.2 0 0 0-5.16 5.26 5.2 5.2 0 0 0 5.16 5.26 5.2 5.2 0 0 0 5.15-5.26" class="BarLine" style="stroke-width:.992001"/><path fill="none" stroke="#000" stroke-linejoin="bevel" stroke-width="4.46" d="M2383.2 1344.9v101.92" class="BarLine"/><path fill="none" stroke="#000" stroke-linejoin="bevel" stroke-width="13.64" d="M2400.57 1344.9v101.92" class="BarLine"/><path fill="none" stroke="#000" stroke-linejoin="bevel" stroke-width="4.46" d="M2534.72 1344.9v101.92m13.64-101.92v101.92M34.6 1722.92v101.93" class="BarLine"/><path fill="none" stroke="#000" stroke-linejoin="bevel" stroke-width="13.64" d="M273.49 1722.92v101.93" class="BarLine"/><path fill="none" stroke="#000" stroke-linejoin="bevel" stroke-width="4.46" d="M290.86 1722.92v101.93" class="BarLine"/><path d="M313.37 1761.5a5.2 5.2 0 0 0-5.16-5.27 5.2 5.2 0 0 0-5.16 5.26 5.2 5.2 0 0 0 5.16 5.26 5.2 5.2 0 0 0 5.16-5.26m0 24.81a5.2 5.2 0 0 0-5.16-5.27 5.2 5.2 0 0 0-5.16 5.26 5.2 5.2 0 0 0 5.16 5.26 5.2 5.2 0 0 0 5.16-5.26m2063.34-24.79a5.2 5.2 0 0 0-5.15-5.27 5.2 5.2 0 0 0-5.16 5.26 5.2 5.2 0 0 0 5.16 5.26 5.2 5.2 0 0 0 5.15-5.26m0 24.81a5.2 5.2 0 0 0-5.15-5.27 5.2 5.2 0 0 0-5.16 5.26 5.2 5.2 0 0 0 5.16 5.26 5.2 5.2 0 0 0 5.15-5.26" class="BarLine" style="stroke-width:.992001"/><path fill="none" stroke="#000" stroke-linejoin="bevel" stroke-width="4.46" d="M2388.92 1722.92v101.93" class="BarLine"/><path fill="none" stroke="#000" stroke-linejoin="bevel" stroke-width="13.64" d="M2406.28 1722.92v101.93" class="BarLine"/><path fill="none" stroke="#000" stroke-linejoin="bevel" stroke-width="4.46" d="M2534.72 1722.92v101.93m13.64-101.93v101.93M34.6 60.3v151.87" class="BarLine"/><path fill="none" stroke="#000" stroke-linejoin="bevel" stroke-width="13.64" d="M141.76 60.3v151.87" class="BarLine"/><path fill="none" stroke="#000" stroke-linejoin="bevel" stroke-width="4.46" d="M159.12 60.3v151.87" class="BarLine"/><path d="M181.63 98.85a5.2 5.2 0 0 0-5.16-5.26 5.2 5.2 0 0 0-5.15 5.26 5.2 5.2 0 0 0 5.15 5.26 5.2 5.2 0 0 0 5.16-5.26m0 24.8a5.2 5.2 0 0 0-5.16-5.26 5.2 5.2 0 0 0-5.15 5.26 5.2 5.2 0 0 0 5.15 5.26 5.2 5.2 0 0 0 5.16-5.26m2167.27-24.8a5.2 5.2 0 0 0-5.15-5.26 5.2 5.2 0 0 0-5.16 5.26 5.2 5.2 0 0 0 5.16 5.26 5.2 5.2 0 0 0 5.15-5.26m0 24.8a5.2 5.2 0 0 0-5.15-5.26 5.2 5.2 0 0 0-5.16 5.26 5.2 5.2 0 0 0 5.16 5.26 5.2 5.2 0 0 0 5.15-5.26" class="BarLine" style="stroke-width:.992001"/><path fill="none" stroke="#000" stroke-linejoin="bevel" stroke-width="4.46" d="M2361.1 60.3v151.87" class="BarLine"/><path fill="none" stroke="#000" stroke-linejoin="bevel" stroke-width="13.64" d="M2378.47 60.3v151.87" class="BarLine"/><path fill="none" stroke="#000" stroke-linejoin="bevel" stroke-width="4.46" d="M2534.72 60.3v151.87m13.64-151.87v151.87M34.6 438.31v151.9" class="BarLine"/><path fill="none" stroke="#000" stroke-linejoin="bevel" stroke-width="13.64" d="M199.09 438.31v151.9" class="BarLine"/><path fill="none" stroke="#000" stroke-linejoin="bevel" stroke-width="4.46" d="M216.45 438.31v151.9" class="BarLine"/><path d="M238.97 476.88a5.2 5.2 0 0 0-5.16-5.26 5.2 5.2 0 0 0-5.16 5.26 5.2 5.2 0 0 0 5.16 5.26 5.2 5.2 0 0 0 5.16-5.26m0 24.8a5.2 5.2 0 0 0-5.16-5.26 5.2 5.2 0 0 0-5.16 5.26 5.2 5.2 0 0 0 5.16 5.26 5.2 5.2 0 0 0 5.16-5.26m2120.04-24.8a5.2 5.2 0 0 0-5.15-5.26 5.2 5.2 0 0 0-5.16 5.26 5.2 5.2 0 0 0 5.16 5.26 5.2 5.2 0 0 0 5.15-5.26m0 24.8a5.2 5.2 0 0 0-5.15-5.26 5.2 5.2 0 0 0-5.16 5.26 5.2 5.2 0 0 0 5.16 5.26 5.2 5.2 0 0 0 5.15-5.26" class="BarLine" style="stroke-width:.992001"/><path fill="none" stroke="#000" stroke-linejoin="bevel" stroke-width="4.46" d="M2371.2 438.31v151.9" class="BarLine"/><path fill="none" stroke="#000" stroke-linejoin="bevel" stroke-width="13.64" d="M2388.57 438.31v151.9" class="BarLine"/><path fill="none" stroke="#000" stroke-linejoin="bevel" stroke-width="4.46" d="M2534.72 438.31v151.9m13.64-151.9v151.9M34.6 816.34v151.9" class="BarLine"/><path fill="none" stroke="#000" stroke-linejoin="bevel" stroke-width="13.64" d="M223.89 816.34v151.9" class="BarLine"/><path fill="none" stroke="#000" stroke-linejoin="bevel" stroke-width="4.46" d="M241.25 816.34v151.9" class="BarLine"/><path d="M263.77 854.91a5.2 5.2 0 0 0-5.16-5.26 5.2 5.2 0 0 0-5.16 5.26 5.2 5.2 0 0 0 5.16 5.26 5.2 5.2 0 0 0 5.16-5.26m0 24.8a5.2 5.2 0 0 0-5.16-5.26 5.2 5.2 0 0 0-5.16 5.26 5.2 5.2 0 0 0 5.16 5.26 5.2 5.2 0 0 0 5.16-5.26m2101.51-24.8a5.2 5.2 0 0 0-5.15-5.26 5.2 5.2 0 0 0-5.16 5.26 5.2 5.2 0 0 0 5.16 5.26 5.2 5.2 0 0 0 5.15-5.26m0 24.8a5.2 5.2 0 0 0-5.15-5.26 5.2 5.2 0 0 0-5.16 5.26 5.2 5.2 0 0 0 5.16 5.26 5.2 5.2 0 0 0 5.15-5.26" class="BarLine" style="stroke-width:.992001"/><path fill="none" stroke="#000" stroke-linejoin="bevel" stroke-width="4.46" d="M2377.49 816.34v151.9" class="BarLine"/><path fill="none" stroke="#000" stroke-linejoin="bevel" stroke-width="13.64" d="M2394.85 816.34v151.9" class="BarLine"/><path fill="none" stroke="#000" stroke-linejoin="bevel" stroke-width="4.46" d="M2534.72 816.34v151.9m13.64-151.9v151.9M34.6 1194.37v151.9" class="BarLine"/><path fill="none" stroke="#000" stroke-linejoin="bevel" stroke-width="13.64" d="M248.69 1194.37v151.9" class="BarLine"/><path fill="none" stroke="#000" stroke-linejoin="bevel" stroke-width="4.46" d="M266.05 1194.37v151.9" class="BarLine"/><path d="M288.57 1232.93a5.2 5.2 0 0 0-5.16-5.26 5.2 5.2 0 0 0-5.16 5.26 5.2 5.2 0 0 0 5.16 5.26 5.2 5.2 0 0 0 5.16-5.26m0 24.8a5.2 5.2 0 0 0-5.16-5.26 5.2 5.2 0 0 0-5.16 5.26 5.2 5.2 0 0 0 5.16 5.26 5.2 5.2 0 0 0 5.16-5.26m2082.43-24.8a5.2 5.2 0 0 0-5.15-5.26 5.2 5.2 0 0 0-5.16 5.26 5.2 5.2 0 0 0 5.16 5.26 5.2 5.2 0 0 0 5.15-5.26m0 24.8a5.2 5.2 0 0 0-5.15-5.26 5.2 5.2 0 0 0-5.16 5.26 5.2 5.2 0 0 0 5.16 5.26 5.2 5.2 0 0 0 5.15-5.26" class="BarLine" style="stroke-width:.992001"/><path fill="none" stroke="#000" stroke-linejoin="bevel" stroke-width="4.46" d="M2383.2 1194.37v151.9" class="BarLine"/><path fill="none" stroke="#000" stroke-linejoin="bevel" stroke-width="13.64" d="M2400.57 1194.37v151.9" class="BarLine"/><path fill="none" stroke="#000" stroke-linejoin="bevel" stroke-width="4.46" d="M2534.72 1194.37v151.9m13.64-151.9v151.9M34.6 1572.4v151.9" class="BarLine"/><path fill="none" stroke="#000" stroke-linejoin="bevel" stroke-width="13.64" d="M273.49 1572.4v151.9" class="BarLine"/><path fill="none" stroke="#000" stroke-linejoin="bevel" stroke-width="4.46" d="M290.86 1572.4v151.9" class="BarLine"/><path d="M313.37 1610.96a5.2 5.2 0 0 0-5.16-5.26 5.2 5.2 0 0 0-5.16 5.26 5.2 5.2 0 0 0 5.16 5.26 5.2 5.2 0 0 0 5.16-5.26m0 24.8a5.2 5.2 0 0 0-5.16-5.26 5.2 5.2 0 0 0-5.16 5.26 5.2 5.2 0 0 0 5.16 5.26 5.2 5.2 0 0 0 5.16-5.26m2063.34-24.8a5.2 5.2 0 0 0-5.15-5.26 5.2 5.2 0 0 0-5.16 5.26 5.2 5.2 0 0 0 5.16 5.26 5.2 5.2 0 0 0 5.15-5.26m0 24.8a5.2 5.2 0 0 0-5.15-5.26 5.2 5.2 0 0 0-5.16 5.26 5.2 5.2 0 0 0 5.16 5.26 5.2 5.2 0 0 0 5.15-5.26" class="BarLine" style="stroke-width:.992001"/><path fill="none" stroke="#000" stroke-linejoin="bevel" stroke-width="4.46" d="M2388.92 1572.4v151.9" class="BarLine"/><path fill="none" stroke="#000" stroke-linejoin="bevel" stroke-width="13.64" d="M2406.28 1572.4v151.9" class="BarLine"/><path fill="none" stroke="#000" stroke-linejoin="bevel" stroke-width="4.46" d="M2534.72 1572.4v151.9m13.64-151.9v151.9" class="BarLine"/><path fill="none" stroke="#000" stroke-linejoin="bevel" stroke-width="3.97" d="M758.73 185.65h49.59m997.86 0h49.59m-758.99 378.03h49.59m389.2 0h49.59M897.99 941.71h49.59m819.39 0h49.6M702.14 1319.73h49.59m1241.61 0h49.59m-1035.68 378.03h49.6m660.38 0h49.59" class="LedgerLine"/><path fill="none" stroke="#000" stroke-linejoin="bevel" stroke-width="2.73" d="M274.55 271v-83.63m74.82 71.23v-79.5m74.81 67.1v-75.36M499 233.8v-71.23m74.82 58.83v-64.35M648.64 209v-60.22m74.82 47.82v-56.08m74.81 41.95v-50.22m74.82 37.82V92.65m74.81 65.02V82.32m74.83 62.95V71.98m74.82 60.89V61.65m45.31 65.33v64.87m74.82-77.27v75.2m74.82-87.6v85.54m74.82-73.14v71.07m104.32-65.18V55.45m74.82 77.42V65.78m74.81 79.49V76.12m74.82 81.55V86.45m74.81 83.62v-66.36m74.83 78.76v-70.49m74.82 84.62v-76.36m74.82 88.76v-80.49m74.81 92.89v-65.03M2145 233.8v-69.16m74.82 81.56v-73.3m74.82 85.7v-77.43m153.8 89.83v-77.43M331.88 698.63V621.2M405 686.23v-75.29m73.15 62.89v-73.15m74.67 73.84V590.2m71.58 58.83V565.4m73.14 71.23v-79.5m73.13 67.1v-75.36m73.13 62.96V540.6m73.13 58.83v-84.09m73.14 71.69v-79.95m74.67 80.64v-89.09m71.59 61.87v-69.96m73.13 57.56v-83.62m73.13 71.22v-71.22m73.13 58.82v-58.82m73.13 71.22v-71.22m73.14 83.62v-72.26m73.13 84.66v-76.39m74.67 103.61v-95.17m71.59 94.48v-86.39m73.12 98.79V534.4m73.14 77.43v-69.16m73.14 81.56v-73.3m73.12 85.7V559.2m73.14 89.83V584m74.66 90.52v-79.97m71.6 79.28v-69.16m73.13 81.56V615m152.11 83.63V615M359.76 1052.55V949.63m70.88 77.42v-85.5m72.41 73.1v-81.38m73.95 82.08v-90.52m70.88 65.02v-71.22m72.42 58.82v-67.03m72.4 54.63v-62.84m73.96 63.54v-71.92m70.88 44.7v-71.22m72.42 58.82v-69.16m73.94 69.86v-80.4m70.89 54.9v-65.02m72.41 52.62v-89.82m72.42 77.42v-77.42m73.95 78.12v-78.12m70.88 77.42v-77.42m72.41 89.82v-71.22m72.42 83.62v-73.29m73.95 98.79V838.6m70.87 87.53v-77.42m72.42 89.82v-72.49m73.95 99.71v-91.27m70.88 90.57v-82.47m72.42 94.87v-86.6m72.41 99v-71.22m73.95 96.72v-88.28m70.87 87.58v-79.49m72.43 91.89v-83.62m154.47 109.12v-93.62M384.56 1393.38v-90.52m70.19 65.02v-73.1m71.74 60.7v-68.98m73.27 69.68v-78.12m71.73 65.72v-89.8m70.2 62.58v-70.67m71.73 58.27v-66.53m73.27 67.22v-75.67m70.2 50.18v-77.43m71.73 65.03v-75.29m73.27 75.98v-86.46m71.74 74.06v-84.32m40.69 65.34v64.86m71.73-77.26v75.2m70.2-81.02v79m73.27-73.18v71.06m101.24-65.17v-77.43m73.27 102.92v-94.47m71.73 106.87v-98.6m70.2 97.91v-89.83m71.73 102.23v-67.99m73.27 93.48v-85.04m70.2 84.35v-76.26m71.73 88.66v-80.39m73.27 107.61v-78.12m71.73 90.52v-82.2m70.2 81.5v-73.35m71.73 85.75v-77.42m153.78 102.92v-84.32M409.36 1821.01v-90.52m71 78.12v-88.45m69.46 62.95v-73.06m72.53 73.76v-84.32m71 71.92v-90.52m69.45 65.02v-73.1m71 60.7v-68.98m72.54 69.68v-78.12m71 65.72v-87.94m69.46 60.73v-68.82m72.54 69.5v-77.95m71 65.55v-73.8m69.45 48.32v-83.64m71 71.24v-71.24m72.54 71.92v-71.92m69.46 71.24v-71.24m71 83.64v-65.04m72.53 90.52v-79.96m71 92.36v-82.03m69.46 81.35v-71.24m72.54 98.45v-78.12m70.98 90.52v-82.19m69.47 81.49v-73.35m71 85.75v-77.42m72.53 102.92v-90.52m71 102.92v-94.65m69.46 93.95v-85.87m72.54 111.37V1705.7m153.03 115.31v-96.72" class="Stem"/><path d="M274.92 266.14c-1.78-3.28-5.55-5.06-10.11-5.06-3.38 0-7.05.99-10.62 2.87-6.55 3.48-10.51 9.33-10.51 14.39 0 1.39.3 2.78.99 4.07 1.78 3.27 5.55 4.96 10.12 4.96 3.37 0 7.04-.9 10.61-2.78 6.55-3.47 10.52-9.33 10.52-14.39a8.5 8.5 0 0 0-1-4.06m74.82-12.4c-1.78-3.28-5.55-5.06-10.12-5.06-3.37 0-7.04.99-10.61 2.87-6.55 3.48-10.52 9.33-10.52 14.39 0 1.39.3 2.78 1 4.07 1.78 3.27 5.55 4.96 10.11 4.96 3.38 0 7.05-.9 10.62-2.78 6.55-3.47 10.51-9.33 10.51-14.39a8.5 8.5 0 0 0-.99-4.06m74.82-12.4c-1.79-3.28-5.56-5.06-10.12-5.06-3.37 0-7.04.99-10.61 2.87-6.55 3.48-10.52 9.33-10.52 14.39 0 1.39.3 2.78 1 4.07 1.78 3.27 5.55 4.96 10.11 4.96 3.38 0 7.05-.9 10.62-2.78 6.54-3.47 10.51-9.33 10.51-14.39a8.5 8.5 0 0 0-.99-4.06m74.82-12.4c-1.79-3.28-5.56-5.06-10.12-5.06-3.37 0-7.04.99-10.61 2.87-6.55 3.48-10.52 9.33-10.52 14.39 0 1.39.3 2.78 1 4.07 1.78 3.27 5.55 4.96 10.11 4.96 3.37 0 7.04-.9 10.62-2.78 6.54-3.47 10.51-9.33 10.51-14.39a8.5 8.5 0 0 0-1-4.06m74.83-12.4c-1.79-3.28-5.56-5.06-10.12-5.06-3.37 0-7.04.99-10.62 2.87-6.54 3.48-10.51 9.33-10.51 14.39 0 1.39.3 2.78 1 4.07 1.78 3.27 5.55 4.96 10.1 4.96 3.38 0 7.05-.9 10.62-2.78 6.55-3.47 10.52-9.33 10.52-14.39a8.5 8.5 0 0 0-1-4.06m74.83-12.4c-1.8-3.28-5.56-5.06-10.12-5.06-3.38 0-7.05.99-10.62 2.87-6.54 3.48-10.51 9.33-10.51 14.39 0 1.39.3 2.78.99 4.07 1.78 3.27 5.55 4.96 10.12 4.96 3.37 0 7.04-.9 10.61-2.78 6.55-3.47 10.52-9.33 10.52-14.39a8.5 8.5 0 0 0-1-4.06m74.82-12.4c-1.78-3.28-5.55-5.06-10.12-5.06-3.37 0-7.04.99-10.61 2.87-6.55 3.48-10.51 9.33-10.51 14.39 0 1.39.3 2.78.99 4.07 1.78 3.27 5.55 4.96 10.12 4.96 3.37 0 7.04-.9 10.61-2.78 6.55-3.47 10.52-9.33 10.52-14.39a8.5 8.5 0 0 0-1-4.06m74.82-14.13c-1.78-3.27-5.55-5.05-10.12-5.05-3.37 0-7.04.99-10.61 2.87-6.55 3.47-10.52 9.33-10.52 14.39 0 1.39.3 2.77 1 4.06 1.78 3.28 5.55 4.96 10.11 4.96 3.38 0 7.05-.89 10.62-2.77 6.55-3.48 10.51-9.33 10.51-14.39a8.5 8.5 0 0 0-.99-4.07m74.82-12.4c-1.8-3.27-5.56-5.05-10.12-5.05-3.38 0-7.05.99-10.62 2.87-6.54 3.47-10.51 9.33-10.51 14.39 0 1.39.3 2.77.99 4.06 1.78 3.28 5.55 4.96 10.12 4.96 3.37 0 7.04-.89 10.61-2.77 6.55-3.48 10.52-9.33 10.52-14.39a8.5 8.5 0 0 0-1-4.07m74.83-12.4c-1.8-3.27-5.56-5.05-10.12-5.05-3.38 0-7.05.99-10.62 2.87-6.54 3.47-10.51 9.33-10.51 14.39 0 1.39.3 2.77.99 4.06 1.78 3.28 5.55 4.96 10.12 4.96 3.37 0 7.04-.89 10.61-2.77 6.55-3.48 10.52-9.33 10.52-14.39a8.5 8.5 0 0 0-1-4.07m74.82-12.4c-1.78-3.27-5.55-5.05-10.11-5.05-3.38 0-7.05.99-10.62 2.87-6.54 3.47-10.51 9.33-10.51 14.39 0 1.39.3 2.77.99 4.06 1.78 3.28 5.55 4.96 10.12 4.96 3.37 0 7.04-.89 10.61-2.77 6.55-3.48 10.52-9.33 10.52-14.39a8.5 8.5 0 0 0-1-4.07m74.82-12.4c-1.78-3.27-5.55-5.05-10.11-5.05-3.38 0-7.05.99-10.62 2.87-6.55 3.47-10.51 9.33-10.51 14.39 0 1.39.3 2.77.99 4.06 1.78 3.28 5.55 4.96 10.12 4.96 3.37 0 7.04-.89 10.61-2.77 6.55-3.48 10.52-9.33 10.52-14.39a8.5 8.5 0 0 0-1-4.07m74.82-12.4c-1.78-3.27-5.55-5.05-10.11-5.05-3.38 0-7.05.99-10.62 2.87-6.55 3.47-10.51 9.33-10.51 14.39 0 1.39.3 2.77.99 4.06 1.78 3.28 5.55 4.96 10.12 4.96 3.37 0 7.04-.89 10.61-2.77 6.55-3.48 10.52-9.33 10.52-14.39a8.5 8.5 0 0 0-1-4.07m74.83-12.4c-1.8-3.27-5.56-5.05-10.12-5.05-3.38 0-7.05.99-10.62 2.87-6.54 3.47-10.51 9.33-10.51 14.39 0 1.39.3 2.77.99 4.06 1.78 3.28 5.55 4.96 10.12 4.96 3.37 0 7.04-.89 10.61-2.77 6.55-3.48 10.52-9.33 10.52-14.39a8.5 8.5 0 0 0-1-4.07m74.82-12.4c-1.8-3.27-5.56-5.05-10.12-5.05-3.38 0-7.05.99-10.62 2.87-6.55 3.47-10.51 9.33-10.51 14.39 0 1.39.3 2.77.99 4.06 1.78 3.28 5.55 4.96 10.12 4.96 3.37 0 7.04-.89 10.61-2.77 6.55-3.48 10.52-9.33 10.52-14.39a8.5 8.5 0 0 0-1-4.07m74.83 12.4c-1.8-3.27-5.56-5.05-10.12-5.05-3.38 0-7.05.99-10.62 2.87-6.55 3.47-10.51 9.33-10.51 14.39 0 1.39.3 2.77.99 4.06 1.78 3.28 5.55 4.96 10.12 4.96 3.37 0 7.04-.89 10.61-2.77 6.55-3.48 10.52-9.33 10.52-14.39a8.5 8.5 0 0 0-1-4.07m74.83 12.4c-1.8-3.27-5.56-5.05-10.12-5.05-3.38 0-7.05.99-10.62 2.87-6.54 3.47-10.51 9.33-10.51 14.39 0 1.39.3 2.77.99 4.06 1.78 3.28 5.55 4.96 10.12 4.96 3.37 0 7.04-.89 10.61-2.77 6.55-3.48 10.52-9.33 10.52-14.39a8.5 8.5 0 0 0-1-4.07m74.83 12.4c-1.8-3.27-5.56-5.05-10.12-5.05-3.38 0-7.05.99-10.62 2.87-6.54 3.47-10.51 9.33-10.51 14.39 0 1.39.3 2.77.99 4.06 1.78 3.28 5.55 4.96 10.12 4.96 3.37 0 7.04-.89 10.61-2.77 6.55-3.48 10.52-9.33 10.52-14.39a8.5 8.5 0 0 0-1-4.07m74.82 12.4c-1.78-3.27-5.55-5.05-10.11-5.05-3.38 0-7.05.99-10.62 2.87-6.55 3.47-10.51 9.33-10.51 14.39 0 1.39.3 2.77.99 4.06 1.78 3.28 5.55 4.96 10.12 4.96 3.37 0 7.04-.89 10.61-2.77 6.55-3.48 10.52-9.33 10.52-14.39a8.5 8.5 0 0 0-1-4.07m74.81 12.4c-1.78-3.27-5.55-5.05-10.11-5.05-3.38 0-7.05.99-10.62 2.87-6.55 3.47-10.51 9.33-10.51 14.39 0 1.39.3 2.77.99 4.06 1.78 3.28 5.55 4.96 10.12 4.96 3.37 0 7.04-.89 10.61-2.77 6.55-3.48 10.52-9.33 10.52-14.39a8.5 8.5 0 0 0-1-4.07m74.83 12.4c-1.8-3.27-5.56-5.05-10.12-5.05-3.38 0-7.05.99-10.62 2.87-6.54 3.47-10.51 9.33-10.51 14.39 0 1.39.3 2.77.99 4.06 1.78 3.28 5.55 4.96 10.12 4.96 3.37 0 7.04-.89 10.61-2.77 6.55-3.48 10.52-9.33 10.52-14.39a8.5 8.5 0 0 0-1-4.07m74.82 12.4c-1.78-3.27-5.55-5.05-10.11-5.05-3.38 0-7.05.99-10.62 2.87-6.54 3.47-10.51 9.33-10.51 14.39 0 1.39.3 2.77.99 4.06 1.78 3.28 5.55 4.96 10.12 4.96 3.37 0 7.04-.89 10.61-2.77 6.55-3.48 10.52-9.33 10.52-14.39a8.5 8.5 0 0 0-1-4.07m74.82 14.13c-1.78-3.28-5.55-5.06-10.11-5.06-3.38 0-7.05.99-10.62 2.87-6.55 3.48-10.51 9.33-10.51 14.39 0 1.39.3 2.78.99 4.07 1.78 3.27 5.55 4.96 10.12 4.96 3.37 0 7.04-.9 10.61-2.78 6.55-3.47 10.52-9.33 10.52-14.39a8.5 8.5 0 0 0-1-4.06m74.82 12.4c-1.78-3.28-5.55-5.06-10.11-5.06-3.38 0-7.05.99-10.62 2.87-6.55 3.48-10.51 9.33-10.51 14.39 0 1.39.3 2.78.99 4.07 1.78 3.27 5.55 4.96 10.12 4.96 3.37 0 7.04-.9 10.61-2.78 6.55-3.47 10.52-9.33 10.52-14.39a8.5 8.5 0 0 0-1-4.06m74.81 12.4c-1.78-3.28-5.55-5.06-10.11-5.06-3.38 0-7.05.99-10.62 2.87-6.55 3.48-10.51 9.33-10.51 14.39 0 1.39.3 2.78.99 4.07 1.78 3.27 5.55 4.96 10.12 4.96 3.37 0 7.04-.9 10.61-2.78 6.55-3.47 10.52-9.33 10.52-14.39a8.5 8.5 0 0 0-1-4.06m74.83 12.4c-1.8-3.28-5.56-5.06-10.12-5.06-3.38 0-7.05.99-10.62 2.87-6.54 3.48-10.51 9.33-10.51 14.39 0 1.39.3 2.78.99 4.07 1.78 3.27 5.55 4.96 10.12 4.96 3.37 0 7.04-.9 10.61-2.78 6.55-3.47 10.52-9.33 10.52-14.39a8.5 8.5 0 0 0-1-4.06m74.83 12.4c-1.8-3.28-5.56-5.06-10.12-5.06-3.38 0-7.05.99-10.62 2.87-6.54 3.48-10.51 9.33-10.51 14.39 0 1.39.3 2.78.99 4.07 1.78 3.27 5.55 4.96 10.12 4.96 3.37 0 7.04-.9 10.61-2.78 6.55-3.47 10.52-9.33 10.52-14.39a8.5 8.5 0 0 0-1-4.06m74.82 12.4c-1.78-3.28-5.55-5.06-10.11-5.06-3.38 0-7.05.99-10.62 2.87-6.55 3.48-10.51 9.33-10.51 14.39 0 1.39.3 2.78.99 4.07 1.78 3.27 5.55 4.96 10.12 4.96 3.37 0 7.04-.9 10.61-2.78 6.55-3.47 10.52-9.33 10.52-14.39a8.5 8.5 0 0 0-1-4.06m153.81 12.4c-1.8-3.28-5.56-5.06-10.12-5.06-3.38 0-7.05.99-10.62 2.87-6.54 3.48-10.51 9.33-10.51 14.39 0 1.39.3 2.78.99 4.07 1.78 3.27 5.55 4.96 10.12 4.96 3.37 0 7.04-.9 10.61-2.78 6.55-3.47 10.52-9.33 10.52-14.39a8.5 8.5 0 0 0-1-4.06m-4.26 6.74c-1.69 1.69-5.06 3.77-8.63 5.76-3.57 1.98-7.14 3.47-9.52 3.96-.5.1-1 .2-1.5.2-1.58 0-2.77-.6-3.46-1.88-.3-.5-.5-1.1-.5-1.69 0-1.09.7-2.38 1.79-3.47 1.68-1.69 4.96-3.77 8.53-5.75 3.57-1.99 7.14-3.48 9.52-3.97.5-.1 1-.2 1.49-.2 1.58 0 2.87.6 3.57 1.88.3.5.4 1.1.4 1.69 0 1.1-.6 2.28-1.7 3.47M332.26 693.77c-1.79-3.28-5.56-5.06-10.12-5.06-3.37 0-7.04.99-10.61 2.87-6.55 3.48-10.52 9.33-10.52 14.39 0 1.39.3 2.77 1 4.06 1.78 3.28 5.55 4.96 10.11 4.96 3.37 0 7.04-.89 10.62-2.77 6.54-3.48 10.51-9.33 10.51-14.39a8.5 8.5 0 0 0-1-4.06m73.14-12.4c-1.79-3.28-5.56-5.06-10.12-5.06-3.37 0-7.04.99-10.61 2.87-6.55 3.48-10.52 9.33-10.52 14.39 0 1.39.3 2.77 1 4.06 1.78 3.28 5.55 4.96 10.11 4.96 3.38 0 7.05-.89 10.62-2.77 6.54-3.48 10.51-9.33 10.51-14.39a8.5 8.5 0 0 0-.99-4.06m73.13-12.4c-1.78-3.28-5.55-5.06-10.12-5.06-3.37 0-7.04.99-10.61 2.87-6.55 3.48-10.52 9.33-10.52 14.39 0 1.39.3 2.77 1 4.06 1.78 3.28 5.55 4.96 10.11 4.96 3.38 0 7.05-.89 10.62-2.77 6.55-3.48 10.51-9.33 10.51-14.39a8.5 8.5 0 0 0-.99-4.06m58.1-16.77L518.87 677h35.31l-17.56-24.8m88.17-8.03c-1.8-3.28-5.56-5.06-10.12-5.06-3.38 0-7.05.99-10.62 2.87-6.54 3.48-10.51 9.33-10.51 14.39 0 1.39.3 2.78.99 4.06 1.78 3.28 5.55 4.96 10.12 4.96 3.37 0 7.04-.89 10.61-2.77 6.55-3.47 10.52-9.33 10.52-14.39a8.5 8.5 0 0 0-1-4.06m73.14-12.4c-1.79-3.28-5.56-5.06-10.12-5.06-3.38 0-7.05.99-10.62 2.87-6.54 3.48-10.51 9.33-10.51 14.39 0 1.39.3 2.78.99 4.06 1.79 3.28 5.56 4.96 10.12 4.96 3.37 0 7.04-.89 10.61-2.77 6.55-3.47 10.52-9.33 10.52-14.39a8.5 8.5 0 0 0-1-4.06m73.14-12.4c-1.79-3.28-5.56-5.06-10.12-5.06-3.37 0-7.04.99-10.61 2.87-6.55 3.48-10.52 9.33-10.52 14.39 0 1.39.3 2.78 1 4.06 1.78 3.28 5.55 4.96 10.11 4.96 3.37 0 7.04-.89 10.61-2.77 6.55-3.47 10.52-9.33 10.52-14.39a8.5 8.5 0 0 0-1-4.06m73.14-12.4c-1.8-3.28-5.56-5.06-10.12-5.06-3.38 0-7.05.99-10.62 2.87-6.54 3.48-10.51 9.33-10.51 14.39 0 1.39.3 2.78.99 4.06 1.78 3.28 5.55 4.96 10.12 4.96 3.37 0 7.04-.89 10.61-2.77 6.55-3.47 10.52-9.33 10.52-14.39a8.5 8.5 0 0 0-1-4.06m73.15-12.4c-1.8-3.28-5.56-5.06-10.12-5.06-3.38 0-7.05.99-10.62 2.87-6.54 3.48-10.51 9.33-10.51 14.39 0 1.39.3 2.78.99 4.06 1.78 3.28 5.55 4.96 10.12 4.96 3.37 0 7.04-.89 10.61-2.77 6.55-3.47 10.52-9.33 10.52-14.39a8.5 8.5 0 0 0-1-4.06m73.14-12.4c-1.8-3.28-5.56-5.06-10.12-5.06-3.38 0-7.05.99-10.62 2.87-6.54 3.48-10.51 9.33-10.51 14.39 0 1.39.3 2.78.99 4.06 1.78 3.28 5.55 4.96 10.12 4.96 3.37 0 7.04-.89 10.61-2.77 6.55-3.47 10.52-9.33 10.52-14.39a8.5 8.5 0 0 0-1-4.06m58.1-16.77-17.75 24.8h35.31l-17.56-24.8m88.16-9.76c-1.78-3.27-5.55-5.06-10.11-5.06-3.38 0-7.05 1-10.62 2.88-6.55 3.47-10.51 9.33-10.51 14.38 0 1.4.3 2.78.99 4.07 1.78 3.28 5.55 4.96 10.12 4.96 3.37 0 7.04-.9 10.61-2.78 6.55-3.47 10.52-9.32 10.52-14.38a8.5 8.5 0 0 0-1-4.07m73.14-12.4c-1.8-3.27-5.56-5.06-10.12-5.06-3.38 0-7.05 1-10.62 2.88-6.54 3.47-10.51 9.33-10.51 14.38 0 1.4.3 2.78.99 4.07 1.78 3.28 5.55 4.96 10.12 4.96 3.37 0 7.04-.9 10.61-2.78 6.55-3.47 10.52-9.32 10.52-14.38a8.5 8.5 0 0 0-1-4.07m73.13-12.4c-1.78-3.27-5.55-5.06-10.11-5.06-3.38 0-7.05 1-10.62 2.88-6.55 3.47-10.51 9.33-10.51 14.38 0 1.4.3 2.78.99 4.07 1.78 3.28 5.55 4.96 10.12 4.96 3.37 0 7.04-.9 10.61-2.78 6.55-3.47 10.52-9.32 10.52-14.38a8.5 8.5 0 0 0-1-4.07m73.14-12.4c-1.78-3.27-5.55-5.06-10.11-5.06-3.38 0-7.05 1-10.62 2.88-6.54 3.47-10.51 9.33-10.51 14.38 0 1.4.3 2.78.99 4.07 1.78 3.28 5.55 4.96 10.12 4.96 3.37 0 7.04-.9 10.61-2.78 6.55-3.47 10.52-9.32 10.52-14.38a8.5 8.5 0 0 0-1-4.07m73.13 12.4c-1.78-3.27-5.55-5.06-10.11-5.06-3.38 0-7.05 1-10.62 2.88-6.55 3.47-10.51 9.33-10.51 14.38 0 1.4.3 2.78.99 4.07 1.78 3.28 5.55 4.96 10.12 4.96 3.37 0 7.04-.9 10.61-2.78 6.55-3.47 10.52-9.32 10.52-14.38a8.5 8.5 0 0 0-1-4.07m73.14 12.4c-1.8-3.27-5.56-5.06-10.12-5.06-3.38 0-7.05 1-10.62 2.88-6.55 3.47-10.51 9.33-10.51 14.38 0 1.4.3 2.78.99 4.07 1.78 3.28 5.55 4.96 10.12 4.96 3.37 0 7.04-.9 10.61-2.78 6.55-3.47 10.52-9.32 10.52-14.38a8.5 8.5 0 0 0-1-4.07m73.14 12.4c-1.8-3.27-5.56-5.06-10.12-5.06-3.38 0-7.05 1-10.62 2.88-6.55 3.47-10.51 9.33-10.51 14.38 0 1.4.3 2.78.99 4.07 1.78 3.28 5.55 4.96 10.12 4.96 3.37 0 7.04-.9 10.61-2.78 6.55-3.47 10.52-9.32 10.52-14.38a8.5 8.5 0 0 0-1-4.07m58.11 9.76-17.76 24.8h35.31l-17.56-24.8m88.17 16.77c-1.8-3.28-5.56-5.06-10.12-5.06-3.38 0-7.05.99-10.62 2.87-6.54 3.48-10.51 9.33-10.51 14.39 0 1.39.3 2.78.99 4.06 1.78 3.28 5.55 4.96 10.12 4.96 3.37 0 7.04-.89 10.61-2.77 6.55-3.47 10.52-9.33 10.52-14.39a8.5 8.5 0 0 0-1-4.06m73.13 12.4c-1.78-3.28-5.55-5.06-10.11-5.06-3.38 0-7.05.99-10.62 2.87-6.55 3.48-10.51 9.33-10.51 14.39 0 1.39.3 2.78.99 4.06 1.78 3.28 5.55 4.96 10.12 4.96 3.37 0 7.04-.89 10.61-2.77 6.55-3.47 10.52-9.33 10.52-14.39a8.5 8.5 0 0 0-1-4.06m73.15 12.4c-1.8-3.28-5.56-5.06-10.12-5.06-3.38 0-7.05.99-10.62 2.87-6.54 3.48-10.51 9.33-10.51 14.39 0 1.39.3 2.78.99 4.06 1.78 3.28 5.55 4.96 10.12 4.96 3.37 0 7.04-.89 10.61-2.77 6.55-3.47 10.52-9.33 10.52-14.39a8.5 8.5 0 0 0-1-4.06m73.13 12.4c-1.78-3.28-5.55-5.06-10.11-5.06-3.38 0-7.05.99-10.62 2.87-6.55 3.48-10.51 9.33-10.51 14.39 0 1.39.3 2.78.99 4.06 1.78 3.28 5.55 4.96 10.12 4.96 3.37 0 7.04-.89 10.61-2.77 6.55-3.47 10.52-9.33 10.52-14.39a8.5 8.5 0 0 0-1-4.06m73.14 12.4c-1.8-3.28-5.56-5.06-10.12-5.06-3.38 0-7.05.99-10.62 2.87-6.54 3.48-10.51 9.33-10.51 14.39 0 1.39.3 2.78.99 4.06 1.78 3.28 5.55 4.96 10.12 4.96 3.37 0 7.04-.89 10.61-2.77 6.55-3.47 10.52-9.33 10.52-14.39a8.5 8.5 0 0 0-1-4.06m73.13 12.4c-1.78-3.28-5.55-5.06-10.11-5.06-3.38 0-7.05.99-10.62 2.87-6.54 3.48-10.51 9.33-10.51 14.39 0 1.39.3 2.78.99 4.06 1.78 3.28 5.55 4.96 10.12 4.96 3.37 0 7.04-.89 10.61-2.77 6.55-3.47 10.52-9.33 10.52-14.39a8.5 8.5 0 0 0-1-4.06m58.1 8.03-17.75 24.8h35.31l-17.56-24.8m88.17 16.77c-1.8-3.28-5.56-5.06-10.12-5.06-3.38 0-7.05.99-10.62 2.87-6.54 3.48-10.51 9.33-10.51 14.39 0 1.39.3 2.77.99 4.06 1.78 3.28 5.55 4.96 10.12 4.96 3.37 0 7.04-.89 10.61-2.77 6.55-3.48 10.52-9.33 10.52-14.39a8.5 8.5 0 0 0-1-4.06m73.15 12.4c-1.8-3.28-5.56-5.06-10.12-5.06-3.38 0-7.05.99-10.62 2.87-6.54 3.48-10.51 9.33-10.51 14.39 0 1.39.3 2.77.99 4.06 1.78 3.28 5.55 4.96 10.12 4.96 3.37 0 7.04-.89 10.61-2.77 6.55-3.48 10.52-9.33 10.52-14.39a8.5 8.5 0 0 0-1-4.06m152.12 12.4c-1.8-3.28-5.56-5.06-10.12-5.06-3.38 0-7.05.99-10.62 2.87-6.54 3.48-10.51 9.33-10.51 14.39 0 1.39.3 2.77.99 4.06 1.78 3.28 5.55 4.96 10.12 4.96 3.37 0 7.04-.89 10.61-2.77 6.55-3.48 10.52-9.33 10.52-14.39a8.5 8.5 0 0 0-1-4.06m-4.26 6.74c-1.69 1.69-5.06 3.77-8.63 5.75-3.57 1.99-7.14 3.48-9.52 3.97-.5.1-1 .2-1.5.2-1.58 0-2.77-.6-3.46-1.88-.3-.5-.5-1.1-.5-1.69 0-1.1.7-2.38 1.79-3.47 1.68-1.69 4.96-3.77 8.53-5.76 3.57-1.98 7.14-3.47 9.52-3.96.5-.1 1-.2 1.49-.2 1.58 0 2.87.6 3.57 1.88.3.5.4 1.1.4 1.69 0 1.1-.6 2.28-1.7 3.47M343.57 1030.23l-17.76 24.8h35.32l-17.56-24.8m87.44-8.03c-1.78-3.28-5.55-5.06-10.12-5.06-3.37 0-7.04.99-10.61 2.87-6.55 3.48-10.52 9.33-10.52 14.39 0 1.39.3 2.77 1 4.06 1.78 3.28 5.55 4.96 10.11 4.96 3.38 0 7.05-.89 10.62-2.77 6.55-3.48 10.51-9.33 10.51-14.39a8.5 8.5 0 0 0-.99-4.06m72.42-12.4c-1.79-3.28-5.56-5.06-10.12-5.06-3.37 0-7.04.99-10.62 2.87-6.54 3.48-10.51 9.33-10.51 14.39 0 1.39.3 2.77 1 4.06 1.78 3.28 5.55 4.96 10.1 4.96 3.38 0 7.05-.89 10.62-2.77 6.55-3.47 10.52-9.33 10.52-14.39a8.5 8.5 0 0 0-1-4.06m57.39-16.77-17.75 24.8h35.31l-17.56-24.8m87.45-8.03c-1.79-3.28-5.56-5.06-10.12-5.06-3.37 0-7.04.99-10.62 2.87-6.54 3.48-10.51 9.33-10.51 14.39 0 1.39.3 2.77 1 4.06 1.78 3.28 5.55 4.96 10.1 4.96 3.38 0 7.05-.89 10.62-2.77 6.55-3.48 10.52-9.33 10.52-14.39a8.5 8.5 0 0 0-1-4.06m72.42-12.4c-1.78-3.28-5.55-5.06-10.12-5.06-3.37 0-7.04.99-10.61 2.87-6.55 3.48-10.52 9.33-10.52 14.39 0 1.39.3 2.78 1 4.06 1.78 3.28 5.55 4.96 10.11 4.96 3.38 0 7.05-.89 10.62-2.77 6.55-3.47 10.51-9.33 10.51-14.39a8.5 8.5 0 0 0-.99-4.06m72.42-12.4c-1.79-3.28-5.56-5.06-10.12-5.06-3.37 0-7.04.99-10.62 2.87-6.54 3.48-10.51 9.33-10.51 14.39 0 1.39.3 2.77 1 4.06 1.78 3.28 5.55 4.96 10.1 4.96 3.38 0 7.05-.89 10.62-2.77 6.55-3.48 10.52-9.33 10.52-14.39a8.5 8.5 0 0 0-1-4.06m57.39-16.77-17.75 24.8h35.31l-17.56-24.8m87.45-9.75c-1.8-3.28-5.56-5.06-10.12-5.06-3.38 0-7.05.99-10.62 2.87-6.54 3.48-10.51 9.33-10.51 14.39 0 1.39.3 2.77.99 4.06 1.78 3.28 5.55 4.96 10.12 4.96 3.37 0 7.04-.89 10.61-2.77 6.55-3.48 10.52-9.33 10.52-14.39a8.5 8.5 0 0 0-1-4.06m72.43-12.4c-1.8-3.28-5.56-5.06-10.12-5.06-3.38 0-7.05.99-10.62 2.87-6.54 3.48-10.51 9.33-10.51 14.39 0 1.39.3 2.77.99 4.06 1.78 3.28 5.55 4.96 10.12 4.96 3.37 0 7.04-.89 10.61-2.77 6.55-3.48 10.52-9.33 10.52-14.39a8.5 8.5 0 0 0-1-4.06m57.38-16.77-17.75 24.8h35.31l-17.56-24.8m87.45-8.03c-1.78-3.28-5.55-5.06-10.11-5.06-3.38 0-7.05.99-10.62 2.87-6.55 3.48-10.51 9.33-10.51 14.39 0 1.39.3 2.78.99 4.06 1.78 3.28 5.55 4.96 10.12 4.96 3.37 0 7.04-.89 10.61-2.77 6.55-3.47 10.52-9.33 10.52-14.39a8.5 8.5 0 0 0-1-4.06m72.42-12.4c-1.8-3.28-5.56-5.06-10.12-5.06-3.38 0-7.05.99-10.62 2.87-6.54 3.48-10.51 9.33-10.51 14.39 0 1.39.3 2.77.99 4.06 1.78 3.28 5.55 4.96 10.12 4.96 3.37 0 7.04-.89 10.61-2.77 6.55-3.48 10.52-9.33 10.52-14.39a8.5 8.5 0 0 0-1-4.06m72.43-12.4c-1.8-3.28-5.56-5.06-10.12-5.06-3.38 0-7.05.99-10.62 2.87-6.55 3.48-10.51 9.33-10.51 14.39 0 1.39.3 2.77.99 4.06 1.78 3.28 5.55 4.96 10.12 4.96 3.37 0 7.04-.89 10.61-2.77 6.55-3.48 10.52-9.33 10.52-14.39a8.5 8.5 0 0 0-1-4.06m57.38-16.77-17.75 24.8h35.31l-17.56-24.8m87.46 16.77c-1.8-3.28-5.56-5.06-10.12-5.06-3.38 0-7.05.99-10.62 2.87-6.54 3.48-10.51 9.33-10.51 14.39 0 1.39.3 2.77.99 4.06 1.78 3.28 5.55 4.96 10.12 4.96 3.37 0 7.04-.89 10.61-2.77 6.55-3.48 10.52-9.33 10.52-14.39a8.5 8.5 0 0 0-1-4.06m72.41 12.4c-1.78-3.28-5.55-5.06-10.11-5.06-3.38 0-7.05.99-10.62 2.87-6.55 3.48-10.51 9.33-10.51 14.39 0 1.39.3 2.77.99 4.06 1.78 3.28 5.55 4.96 10.12 4.96 3.37 0 7.04-.89 10.61-2.77 6.55-3.48 10.52-9.33 10.52-14.39a8.5 8.5 0 0 0-1-4.06m72.42 12.4c-1.78-3.28-5.55-5.06-10.11-5.06-3.38 0-7.05.99-10.62 2.87-6.55 3.48-10.51 9.33-10.51 14.39 0 1.39.3 2.78.99 4.06 1.78 3.28 5.55 4.96 10.12 4.96 3.37 0 7.04-.89 10.61-2.77 6.55-3.47 10.52-9.33 10.52-14.39a8.5 8.5 0 0 0-1-4.06m57.38 8.03-17.75 24.8h35.31l-17.56-24.8m87.45 16.77c-1.78-3.28-5.55-5.06-10.11-5.06-3.38 0-7.05.99-10.62 2.87-6.55 3.48-10.51 9.33-10.51 14.39 0 1.39.3 2.77.99 4.06 1.78 3.28 5.55 4.96 10.12 4.96 3.37 0 7.04-.89 10.61-2.77 6.55-3.48 10.52-9.33 10.52-14.39a8.5 8.5 0 0 0-1-4.06m72.42 12.4c-1.8-3.28-5.56-5.06-10.12-5.06-3.38 0-7.05.99-10.62 2.87-6.55 3.48-10.51 9.33-10.51 14.39 0 1.39.3 2.77.99 4.06 1.78 3.28 5.55 4.96 10.12 4.96 3.37 0 7.04-.89 10.61-2.77 6.55-3.48 10.52-9.33 10.52-14.39a8.5 8.5 0 0 0-1-4.06m57.39 9.75-17.75 24.8h35.31l-17.56-24.8m87.44 16.77c-1.78-3.28-5.55-5.06-10.11-5.06-3.38 0-7.05.99-10.62 2.87-6.55 3.48-10.51 9.33-10.51 14.39 0 1.39.3 2.77.99 4.06 1.78 3.28 5.55 4.96 10.12 4.96 3.37 0 7.04-.89 10.61-2.77 6.55-3.48 10.52-9.33 10.52-14.39a8.5 8.5 0 0 0-1-4.06m72.42 12.4c-1.78-3.28-5.55-5.06-10.11-5.06-3.38 0-7.05.99-10.62 2.87-6.55 3.48-10.51 9.33-10.51 14.39 0 1.39.3 2.78.99 4.06 1.78 3.28 5.55 4.96 10.12 4.96 3.37 0 7.04-.89 10.61-2.77 6.55-3.47 10.52-9.33 10.52-14.39a8.5 8.5 0 0 0-1-4.06m72.41 12.4c-1.78-3.28-5.55-5.06-10.11-5.06-3.38 0-7.05.99-10.62 2.87-6.55 3.48-10.51 9.33-10.51 14.39 0 1.39.3 2.77.99 4.06 1.78 3.28 5.55 4.96 10.12 4.96 3.37 0 7.04-.89 10.61-2.77 6.55-3.48 10.52-9.33 10.52-14.39a8.5 8.5 0 0 0-1-4.06m57.39 8.03-17.75 24.8h35.31l-17.56-24.8m87.45 16.77c-1.8-3.28-5.56-5.06-10.12-5.06-3.38 0-7.05.99-10.62 2.87-6.54 3.48-10.51 9.33-10.51 14.39 0 1.39.3 2.77.99 4.06 1.78 3.28 5.55 4.96 10.12 4.96 3.37 0 7.04-.89 10.61-2.77 6.55-3.47 10.52-9.33 10.52-14.39a8.5 8.5 0 0 0-1-4.06m72.42 12.4c-1.78-3.28-5.55-5.06-10.11-5.06-3.38 0-7.05.99-10.62 2.87-6.55 3.48-10.51 9.33-10.51 14.39 0 1.39.3 2.77.99 4.06 1.78 3.28 5.55 4.96 10.12 4.96 3.37 0 7.04-.89 10.61-2.77 6.55-3.48 10.52-9.33 10.52-14.39a8.5 8.5 0 0 0-1-4.06m137.9 8.03-17.75 24.8h35.31l-17.56-24.8m10.02 18.95h-20.04l10.12-13.99 9.92 13.99M368.37 1371.06l-17.76 24.8h35.32l-17.56-24.8m86.76-8.03c-1.78-3.28-5.55-5.06-10.12-5.06-3.37 0-7.04.99-10.61 2.87-6.55 3.48-10.52 9.33-10.52 14.39 0 1.39.3 2.77 1 4.06 1.78 3.28 5.55 4.96 10.11 4.96 3.38 0 7.05-.89 10.62-2.77 6.55-3.47 10.51-9.33 10.51-14.39a8.5 8.5 0 0 0-.99-4.06m71.73-12.4c-1.78-3.28-5.55-5.06-10.11-5.06-3.38 0-7.05.99-10.62 2.87-6.55 3.48-10.51 9.33-10.51 14.39 0 1.39.3 2.78.99 4.06 1.78 3.28 5.55 4.96 10.12 4.96 3.37 0 7.04-.89 10.61-2.77 6.55-3.47 10.52-9.33 10.52-14.39a8.5 8.5 0 0 0-1-4.06m56.71-16.77-17.76 24.8h35.32l-17.56-24.8m71.73-12.4-17.75 24.8h35.31l-17.56-24.8m86.76-9.76c-1.78-3.28-5.55-5.06-10.11-5.06-3.38 0-7.05.99-10.62 2.87-6.55 3.48-10.51 9.33-10.51 14.39 0 1.39.3 2.77.99 4.06 1.78 3.28 5.55 4.96 10.12 4.96 3.37 0 7.04-.89 10.61-2.77 6.55-3.47 10.52-9.33 10.52-14.39a8.5 8.5 0 0 0-1-4.06m71.74-12.4c-1.79-3.28-5.56-5.06-10.12-5.06-3.37 0-7.04.99-10.61 2.87-6.55 3.48-10.52 9.33-10.52 14.39 0 1.39.3 2.78 1 4.06 1.78 3.28 5.55 4.96 10.11 4.96 3.37 0 7.04-.89 10.61-2.77 6.55-3.47 10.52-9.33 10.52-14.39a8.5 8.5 0 0 0-1-4.06m56.71-16.77-17.75 24.8h35.31l-17.56-24.8m86.77-8.03c-1.8-3.28-5.56-5.06-10.12-5.06-3.38 0-7.05.99-10.62 2.87-6.54 3.48-10.51 9.33-10.51 14.39 0 1.39.3 2.77.99 4.06 1.78 3.28 5.55 4.96 10.12 4.96 3.37 0 7.04-.89 10.61-2.77 6.55-3.47 10.52-9.33 10.52-14.39a8.5 8.5 0 0 0-1-4.06m71.74-12.4c-1.8-3.28-5.56-5.06-10.12-5.06-3.38 0-7.05.99-10.62 2.87-6.55 3.48-10.51 9.33-10.51 14.39 0 1.39.3 2.78.99 4.06 1.78 3.28 5.55 4.96 10.12 4.96 3.37 0 7.04-.89 10.61-2.77 6.55-3.47 10.52-9.33 10.52-14.39a8.5 8.5 0 0 0-1-4.06m56.71-16.77-17.75 24.8h35.31l-17.56-24.8m71.73-12.4-17.75 24.8h35.31l-17.56-24.8m86.77-8.03c-1.8-3.28-5.56-5.06-10.12-5.06-3.38 0-7.05.99-10.62 2.87-6.55 3.48-10.51 9.33-10.51 14.39 0 1.39.3 2.78.99 4.06 1.78 3.28 5.55 4.96 10.12 4.96 3.37 0 7.04-.89 10.61-2.77 6.55-3.47 10.52-9.33 10.52-14.39a8.5 8.5 0 0 0-1-4.06m71.74-12.4c-1.78-3.28-5.55-5.06-10.11-5.06-3.38 0-7.05.99-10.62 2.87-6.55 3.48-10.51 9.33-10.51 14.39 0 1.39.3 2.77.99 4.06 1.78 3.28 5.55 4.96 10.12 4.96 3.37 0 7.04-.89 10.61-2.77 6.55-3.47 10.52-9.33 10.52-14.39a8.5 8.5 0 0 0-1-4.06m56.7-16.77-17.75 24.8h35.31l-17.56-24.8m86.77 16.77c-1.8-3.28-5.56-5.06-10.12-5.06-3.38 0-7.05.99-10.62 2.87-6.55 3.48-10.51 9.33-10.51 14.39 0 1.39.3 2.77.99 4.06 1.78 3.28 5.55 4.96 10.12 4.96 3.37 0 7.04-.89 10.61-2.77 6.55-3.47 10.52-9.33 10.52-14.39a8.5 8.5 0 0 0-1-4.06m71.74 12.4c-1.78-3.28-5.55-5.06-10.11-5.06-3.38 0-7.05.99-10.62 2.87-6.55 3.48-10.51 9.33-10.51 14.39 0 1.39.3 2.78.99 4.06 1.78 3.28 5.55 4.96 10.12 4.96 3.37 0 7.04-.89 10.61-2.77 6.55-3.47 10.52-9.33 10.52-14.39a8.5 8.5 0 0 0-1-4.06m56.7 8.03-17.75 24.8h35.31l-17.56-24.8m71.74 12.4-17.75 24.8h35.31l-17.56-24.8m86.77 16.77c-1.8-3.28-5.56-5.06-10.12-5.06-3.38 0-7.05.99-10.62 2.87-6.54 3.48-10.51 9.33-10.51 14.39 0 1.39.3 2.78.99 4.06 1.78 3.28 5.55 4.96 10.12 4.96 3.37 0 7.04-.89 10.61-2.77 6.55-3.47 10.52-9.33 10.52-14.39a8.5 8.5 0 0 0-1-4.06m71.74 12.4c-1.8-3.28-5.56-5.06-10.12-5.06-3.38 0-7.05.99-10.62 2.87-6.54 3.48-10.51 9.33-10.51 14.39 0 1.39.3 2.77.99 4.06 1.78 3.28 5.55 4.96 10.12 4.96 3.37 0 7.04-.89 10.61-2.77 6.55-3.47 10.52-9.33 10.52-14.39a8.5 8.5 0 0 0-1-4.06m56.71 8.03-17.75 24.8h35.31l-17.56-24.8m86.77 16.77c-1.8-3.28-5.56-5.06-10.12-5.06-3.38 0-7.05.99-10.62 2.87-6.54 3.48-10.51 9.33-10.51 14.39 0 1.39.3 2.78.99 4.06 1.78 3.28 5.55 4.96 10.12 4.96 3.37 0 7.04-.89 10.61-2.77 6.55-3.47 10.52-9.33 10.52-14.39a8.5 8.5 0 0 0-1-4.06m71.74 12.4c-1.8-3.28-5.56-5.06-10.12-5.06-3.38 0-7.05.99-10.62 2.87-6.54 3.48-10.51 9.33-10.51 14.39 0 1.39.3 2.77.99 4.06 1.78 3.28 5.55 4.96 10.12 4.96 3.37 0 7.04-.89 10.61-2.77 6.55-3.47 10.52-9.33 10.52-14.39a8.5 8.5 0 0 0-1-4.06m56.71 9.76-17.75 24.8h35.31l-17.56-24.8m71.73 12.4-17.75 24.8h35.31l-17.56-24.8m86.77 16.77c-1.8-3.28-5.56-5.06-10.12-5.06-3.38 0-7.05.99-10.62 2.87-6.54 3.48-10.51 9.33-10.51 14.39 0 1.39.3 2.78.99 4.06 1.78 3.28 5.55 4.96 10.12 4.96 3.37 0 7.04-.89 10.61-2.77 6.55-3.47 10.52-9.33 10.52-14.39a8.5 8.5 0 0 0-1-4.06m71.74 12.4c-1.8-3.28-5.56-5.06-10.12-5.06-3.38 0-7.05.99-10.62 2.87-6.54 3.48-10.51 9.33-10.51 14.39 0 1.39.3 2.77.99 4.06 1.78 3.28 5.55 4.96 10.12 4.96 3.37 0 7.04-.89 10.61-2.77 6.55-3.47 10.52-9.33 10.52-14.39a8.5 8.5 0 0 0-1-4.06m137.23 8.03-17.75 24.8h35.31l-17.56-24.8m10.02 18.95h-20.04l10.12-13.99 9.92 13.99M393.17 1798.7l-17.76 24.8h35.32l-17.56-24.8m71-12.4-17.76 24.8h35.31l-17.55-24.8m86.03-8.04c-1.8-3.28-5.56-5.06-10.13-5.06-3.37 0-7.04.99-10.61 2.87-6.55 3.48-10.51 9.33-10.51 14.39 0 1.39.3 2.77.99 4.06 1.78 3.28 5.55 4.96 10.12 4.96 3.37 0 7.04-.89 10.61-2.77 6.55-3.47 10.52-9.33 10.52-14.39a8.5 8.5 0 0 0-1-4.06m55.97-16.76-17.76 24.8h35.32l-17.56-24.8m71-12.4-17.76 24.8h35.32l-17.56-24.8m86.03-8.04c-1.79-3.28-5.56-5.06-10.12-5.06-3.37 0-7.04.99-10.62 2.87-6.54 3.48-10.51 9.33-10.51 14.39 0 1.39.3 2.78 1 4.06 1.78 3.28 5.55 4.96 10.1 4.96 3.38 0 7.05-.89 10.62-2.77 6.55-3.47 10.52-9.33 10.52-14.39a8.5 8.5 0 0 0-1-4.06m71.01-12.4c-1.8-3.28-5.56-5.06-10.12-5.06-3.38 0-7.05.99-10.62 2.87-6.54 3.48-10.51 9.33-10.51 14.39 0 1.39.3 2.78.99 4.06 1.78 3.28 5.55 4.96 10.12 4.96 3.37 0 7.04-.89 10.61-2.77 6.55-3.47 10.52-9.33 10.52-14.39a8.5 8.5 0 0 0-1-4.06m55.97-16.76-17.75 24.8h35.31l-17.56-24.8m71-12.4-17.75 24.8h35.31l-17.56-24.8m86.02-9.77c-1.78-3.28-5.55-5.06-10.11-5.06-3.38 0-7.05.99-10.62 2.87-6.55 3.48-10.51 9.33-10.51 14.39 0 1.39.3 2.77.99 4.06 1.78 3.28 5.55 4.96 10.12 4.96 3.37 0 7.04-.89 10.61-2.77 6.55-3.47 10.52-9.33 10.52-14.39a8.5 8.5 0 0 0-1-4.06m55.97-16.77-17.75 24.8h35.31l-17.56-24.8m71-12.4-17.75 24.8h35.31l-17.56-24.8m86.03-8.03c-1.78-3.28-5.55-5.06-10.11-5.06-3.38 0-7.05.99-10.62 2.87-6.55 3.48-10.51 9.33-10.51 14.39 0 1.39.3 2.77.99 4.06 1.78 3.28 5.55 4.96 10.12 4.96 3.37 0 7.04-.89 10.61-2.77 6.55-3.47 10.52-9.33 10.52-14.39a8.5 8.5 0 0 0-1-4.06m70.99-12.4c-1.78-3.28-5.55-5.06-10.11-5.06-3.38 0-7.05.99-10.62 2.87-6.55 3.48-10.51 9.33-10.51 14.39 0 1.39.3 2.78.99 4.06 1.78 3.28 5.55 4.96 10.12 4.96 3.37 0 7.04-.89 10.61-2.77 6.55-3.47 10.52-9.33 10.52-14.39a8.5 8.5 0 0 0-1-4.06m55.97-16.77-17.75 24.8h35.31l-17.56-24.8m86.03 16.77c-1.78-3.28-5.55-5.06-10.11-5.06-3.38 0-7.05.99-10.62 2.87-6.55 3.48-10.51 9.33-10.51 14.39 0 1.39.3 2.78.99 4.06 1.78 3.28 5.55 4.96 10.12 4.96 3.37 0 7.04-.89 10.61-2.77 6.55-3.47 10.52-9.33 10.52-14.39a8.5 8.5 0 0 0-1-4.06m71 12.4c-1.78-3.28-5.55-5.06-10.11-5.06-3.38 0-7.05.99-10.62 2.87-6.55 3.48-10.51 9.33-10.51 14.39 0 1.39.3 2.77.99 4.06 1.78 3.28 5.55 4.96 10.12 4.96 3.37 0 7.04-.89 10.61-2.77 6.55-3.47 10.52-9.33 10.52-14.39a8.5 8.5 0 0 0-1-4.06m55.97 8.03-17.75 24.8h35.31l-17.56-24.8m71 12.4-17.75 24.8h35.31l-17.56-24.8m86.02 16.77c-1.78-3.28-5.55-5.06-10.11-5.06-3.38 0-7.05.99-10.62 2.87-6.55 3.48-10.51 9.33-10.51 14.39 0 1.39.3 2.77.99 4.06 1.78 3.28 5.55 4.96 10.12 4.96 3.37 0 7.04-.89 10.61-2.77 6.55-3.47 10.52-9.33 10.52-14.39a8.5 8.5 0 0 0-1-4.06m55.97 9.77-17.75 24.8h35.31l-17.56-24.8m71 12.4-17.75 24.8h35.31l-17.56-24.8m86.03 16.76c-1.78-3.28-5.55-5.06-10.11-5.06-3.38 0-7.05.99-10.62 2.87-6.55 3.48-10.51 9.33-10.51 14.39 0 1.39.3 2.78.99 4.06 1.78 3.28 5.55 4.96 10.12 4.96 3.37 0 7.04-.89 10.61-2.77 6.55-3.47 10.52-9.33 10.52-14.39a8.5 8.5 0 0 0-1-4.06m70.99 12.4c-1.78-3.28-5.55-5.06-10.11-5.06-3.38 0-7.05.99-10.62 2.87-6.55 3.48-10.51 9.33-10.51 14.39 0 1.39.3 2.78.99 4.06 1.78 3.28 5.55 4.96 10.12 4.96 3.37 0 7.04-.89 10.61-2.77 6.55-3.47 10.52-9.33 10.52-14.39a8.5 8.5 0 0 0-1-4.06m55.97 8.04-17.75 24.8h35.31l-17.56-24.8m71 12.4-17.75 24.8h35.31l-17.56-24.8m86.03 16.76c-1.78-3.28-5.55-5.06-10.11-5.06-3.38 0-7.05.99-10.62 2.87-6.54 3.48-10.51 9.33-10.51 14.39 0 1.39.3 2.77.99 4.06 1.78 3.28 5.55 4.96 10.12 4.96 3.37 0 7.04-.89 10.61-2.77 6.55-3.47 10.52-9.33 10.52-14.39a8.5 8.5 0 0 0-1-4.06m55.97 8.04-17.75 24.8h35.31l-17.56-24.8m153.02 12.4-17.75 24.8h35.31l-17.56-24.8m10.02 18.94h-20.04l10.12-13.99 9.92 13.99" class="Note" style="stroke-width:.992001"/><path d="M81.87 212.07c-7.54 0-13.6 4.37-13.7 4.37-5.75 4.26-8.03 9.32-8.92 12.8-.5 1.78-.7 3.57-.7 5.25 0 2.38.4 4.57 1.3 6.45 1.18 2.68 3.47 4.56 6.44 5.56a12 12 0 0 0 3.77.59c2.18 0 4.47-.6 6.35-1.69 3.08-1.68 4.96-5.25 4.96-9.12 0-3.47-1.79-6.65-4.76-8.53a10.14 10.14 0 0 0-8.93-1.3c-1 .4-2.68 1.4-3.47 2.09.3-1.88 1.49-4.76 2.58-6.35a16.4 16.4 0 0 1 4.96-4.46c2.48-1.4 5.65-1.99 9.12-1.99 10.12 0 15.08 8.14 15.08 24.8 0 9.23-3.47 18.06-6.45 23.91-3.27 6.55-7.63 12.8-11.5 16.27-10.32 9.42-20.04 13.89-20.14 13.89 0 0-1.49.89-1.1 2.38.3.99 1.2 1.19 1.8 1.19.1 0 .4-.1.49-.1.1 0 11.4-4.66 20.44-11.7a93.44 93.44 0 0 0 13.59-11.91 73.73 73.73 0 0 0 9.12-12.2c4.37-7.44 6.85-15.18 6.85-21.83 0-8.23-2.19-15.07-6.25-19.94-4.67-5.55-11.7-8.43-20.93-8.43m31.14 12.6a4.87 4.87 0 0 0 4.77 4.96 4.87 4.87 0 0 0 4.76-4.96c0-2.78-2.18-5.06-4.76-5.06-2.58 0-4.77 2.28-4.77 5.06m0 24.5c0 2.78 2.19 5.06 4.77 5.06 2.58 0 4.76-2.28 4.76-5.06 0-2.77-2.18-5.06-4.76-5.06-2.58 0-4.77 2.29-4.77 5.06M81.87 590.1c-7.54 0-13.6 4.37-13.7 4.37-5.75 4.26-8.03 9.32-8.92 12.8-.5 1.78-.7 3.56-.7 5.25 0 2.38.4 4.56 1.3 6.45 1.18 2.68 3.47 4.56 6.44 5.55a12 12 0 0 0 3.77.6c2.18 0 4.47-.6 6.35-1.69 3.08-1.68 4.96-5.25 4.96-9.12 0-3.48-1.79-6.65-4.76-8.53a10.14 10.14 0 0 0-8.93-1.3c-1 .4-2.68 1.4-3.47 2.09a18.7 18.7 0 0 1 2.58-6.35 16.4 16.4 0 0 1 4.96-4.46c2.48-1.4 5.65-1.99 9.12-1.99 10.12 0 15.08 8.14 15.08 24.8 0 9.23-3.47 18.06-6.45 23.9-3.27 6.56-7.63 12.8-11.5 16.28-10.32 9.42-20.04 13.89-20.14 13.89 0 0-1.49.89-1.1 2.38.3.99 1.2 1.19 1.8 1.19.1 0 .4-.1.49-.1.1 0 11.4-4.66 20.44-11.7a93.44 93.44 0 0 0 13.59-11.91 73.73 73.73 0 0 0 9.12-12.2c4.37-7.44 6.85-15.18 6.85-21.83 0-8.23-2.19-15.08-6.25-19.94-4.67-5.55-11.7-8.43-20.93-8.43M113 602.7a4.87 4.87 0 0 0 4.77 4.96 4.87 4.87 0 0 0 4.76-4.96c0-2.78-2.18-5.06-4.76-5.06-2.58 0-4.77 2.28-4.77 5.06m0 24.5c0 2.78 2.19 5.06 4.77 5.06 2.58 0 4.76-2.28 4.76-5.06 0-2.77-2.18-5.06-4.76-5.06-2.58 0-4.77 2.29-4.77 5.06M81.87 968.13c-7.54 0-13.6 4.37-13.7 4.37-5.75 4.26-8.03 9.32-8.92 12.8-.5 1.78-.7 3.56-.7 5.25 0 2.38.4 4.56 1.3 6.45 1.18 2.68 3.47 4.56 6.44 5.55a12 12 0 0 0 3.77.6c2.18 0 4.47-.6 6.35-1.69 3.08-1.68 4.96-5.25 4.96-9.12 0-3.48-1.79-6.65-4.76-8.53a10.14 10.14 0 0 0-8.93-1.3c-1 .4-2.68 1.4-3.47 2.09a18.7 18.7 0 0 1 2.58-6.35 16.4 16.4 0 0 1 4.96-4.46c2.48-1.4 5.65-1.99 9.12-1.99 10.12 0 15.08 8.14 15.08 24.8 0 9.23-3.47 18.06-6.45 23.9-3.27 6.56-7.63 12.8-11.5 16.28-10.32 9.42-20.04 13.89-20.14 13.89 0 0-1.49.89-1.1 2.38.3.99 1.2 1.19 1.8 1.19.1 0 .4-.1.49-.1.1 0 11.4-4.66 20.44-11.7a93.44 93.44 0 0 0 13.59-11.91 73.73 73.73 0 0 0 9.12-12.2c4.37-7.44 6.85-15.18 6.85-21.83 0-8.23-2.19-15.08-6.25-19.94-4.67-5.55-11.7-8.43-20.93-8.43m31.14 12.6a4.87 4.87 0 0 0 4.77 4.96 4.87 4.87 0 0 0 4.76-4.96c0-2.78-2.18-5.06-4.76-5.06-2.58 0-4.77 2.28-4.77 5.06m0 24.5c0 2.78 2.19 5.06 4.77 5.06 2.58 0 4.76-2.28 4.76-5.06 0-2.77-2.18-5.06-4.76-5.06-2.58 0-4.77 2.29-4.77 5.06m-31.14 340.93c-7.54 0-13.6 4.37-13.7 4.37-5.75 4.26-8.03 9.32-8.92 12.8-.5 1.78-.7 3.56-.7 5.25 0 2.38.4 4.56 1.3 6.45 1.18 2.68 3.47 4.56 6.44 5.55a12 12 0 0 0 3.77.6c2.18 0 4.47-.6 6.35-1.69 3.08-1.68 4.96-5.25 4.96-9.12 0-3.48-1.79-6.65-4.76-8.53a10.14 10.14 0 0 0-8.93-1.3c-1 .4-2.68 1.4-3.47 2.09a18.7 18.7 0 0 1 2.58-6.35 16.4 16.4 0 0 1 4.96-4.46c2.48-1.4 5.65-1.99 9.12-1.99 10.12 0 15.08 8.14 15.08 24.8 0 9.23-3.47 18.06-6.45 23.9-3.27 6.56-7.63 12.8-11.5 16.28-10.32 9.42-20.04 13.89-20.14 13.89 0 0-1.49.89-1.1 2.38.3.99 1.2 1.19 1.8 1.19.1 0 .4-.1.49-.1.1 0 11.4-4.66 20.44-11.7a93.44 93.44 0 0 0 13.59-11.91 73.73 73.73 0 0 0 9.12-12.2c4.37-7.44 6.85-15.18 6.85-21.83 0-8.23-2.19-15.08-6.25-19.94-4.67-5.55-11.7-8.43-20.93-8.43m31.14 12.6a4.87 4.87 0 0 0 4.77 4.96 4.87 4.87 0 0 0 4.76-4.96c0-2.78-2.18-5.06-4.76-5.06-2.58 0-4.77 2.28-4.77 5.06m0 24.5c0 2.78 2.19 5.06 4.77 5.06 2.58 0 4.76-2.28 4.76-5.06 0-2.77-2.18-5.06-4.76-5.06-2.58 0-4.77 2.29-4.77 5.06M81.87 1724.2c-7.54 0-13.6 4.36-13.7 4.36-5.75 4.26-8.03 9.32-8.92 12.8-.5 1.78-.7 3.56-.7 5.25 0 2.38.4 4.56 1.3 6.45 1.18 2.68 3.47 4.56 6.44 5.55a12 12 0 0 0 3.77.6c2.18 0 4.47-.6 6.35-1.69 3.08-1.68 4.96-5.25 4.96-9.12 0-3.48-1.79-6.65-4.76-8.53a10.14 10.14 0 0 0-8.93-1.3c-1 .4-2.68 1.4-3.47 2.09a18.7 18.7 0 0 1 2.58-6.35 16.4 16.4 0 0 1 4.96-4.46c2.48-1.4 5.65-1.99 9.12-1.99 10.12 0 15.08 8.14 15.08 24.8 0 9.23-3.47 18.06-6.45 23.9-3.27 6.56-7.63 12.8-11.5 16.28-10.32 9.42-20.04 13.89-20.14 13.89 0 0-1.49.89-1.1 2.38.3.99 1.2 1.19 1.8 1.19.1 0 .4-.1.49-.1.1 0 11.4-4.66 20.44-11.7a93.44 93.44 0 0 0 13.59-11.91 73.73 73.73 0 0 0 9.12-12.2c4.37-7.44 6.85-15.18 6.85-21.83 0-8.23-2.19-15.08-6.25-19.94-4.67-5.55-11.7-8.43-20.93-8.43m31.14 12.6a4.87 4.87 0 0 0 4.77 4.96 4.87 4.87 0 0 0 4.76-4.96c0-2.78-2.18-5.06-4.76-5.06-2.58 0-4.77 2.28-4.77 5.06m0 24.5c0 2.78 2.19 5.06 4.77 5.06 2.58 0 4.76-2.28 4.76-5.06 0-2.77-2.18-5.06-4.76-5.06-2.58 0-4.77 2.29-4.77 5.06m6.5-1631.06a28.14 28.14 0 0 0-4.61-10.21c-3.17-4.24-7.14-7.06-11.8-8.4-3.08-.89-6.06-1-8.46-.82-1.03-5.96-2.02-11.8-2.92-17.2 5.4-6.12 9-11.87 11.26-16.14 3.44-6.52 4.58-11.07 4.63-11.27 1.7-5.17 2.06-12.8.97-20.95-1-7.49-3.07-14.14-5.4-17.37-1.03-1.42-2.07-2.14-3.1-2.14-1.21 0-3.7 1.23-6.57 3.98a36.12 36.12 0 0 0-8.06 12c-2.98 7-3.19 16.42-2.84 23.08A102.5 102.5 0 0 0 84.1 77.7l.72 4.13-.71.68c-1.03 1-2.21 2.12-3.58 3.5-.86.85-1.8 1.75-2.8 2.71-8.37 8.08-21.06 20.3-21.06 39.3 0 4.66.9 9.04 2.66 13.02a31.15 31.15 0 0 0 6.76 9.67c7.67 7.5 18.18 10.68 25.18 10.52 2.93-.07 5.54-.31 7.9-.76 1.82 9.53 2.95 16.5 3 21.8.03 6.46-1.6 10.4-5.47 13.14a15.3 15.3 0 0 1-8.28 2.8c-2.57.13-4.8-.34-6.23-.75 0 0-.3-.07-.3-.27-.01-.18.33-.23.34-.23h.02c1.9-.44 5.45-1.66 7.79-4.93 1.79-2.5 2.65-7.08.82-11-1.1-2.36-3.59-5.29-9.16-5.74a11.04 11.04 0 0 0-11.03 6.18c-2.44 4.67-1.99 10.35 1.12 14.16 2.93 3.6 7.52 5.88 12.9 6.46a23.62 23.62 0 0 0 14.83-3.25c3.63-2.56 5.74-6.5 6.41-12.09.56-4.6.17-10.46-1.22-18.47l-1.55-8.8c5.7-1.91 9.83-5.45 13.57-11.26a24.33 24.33 0 0 0 2.78-18m-33.93 25.99c-4.6-1.21-9-3.7-12.73-7.16a20.19 20.19 0 0 1-4.61-6.74 24.37 24.37 0 0 1-1.97-10.1c.07-4.65 1.37-9.43 3.86-14.18 2.9-5.54 7.42-11.03 13.43-16.31a95.65 95.65 0 0 0 4.08-3.81l2.45 13.72a21.2 21.2 0 0 0-11.62 9.99c-3.5 6.51-3.37 11.99-2.65 15.44.94 4.43 3.45 8.16 6.88 10.23.92.55 5.02 2.67 6.84 2.1.37-.13.64-.34.78-.67.5-1.16-.5-1.8-2.06-2.75-.6-.37-1.26-.78-1.98-1.3-3.3-2.48-4.73-6.9-3.67-11.24a12.4 12.4 0 0 1 3.67-6.2 14.13 14.13 0 0 1 6.04-3.27c2.03 11.15 4.07 22.2 5.7 30.5.12.69.26 1.35.4 2.02-4.35.92-8.67.83-12.84-.27m11.23-32.92c10.26-.46 14.5 6.92 15.38 11.7.47 2.52.46 6.92-1.07 11.1-1.16 3.15-3.6 7.2-8.69 9.23l-.23-1.27-5.4-30.76m-7.26-70.37c1.77-5.7 4.49-8.92 6.46-10.63 1.74-1.51 3.37-2.22 4.29-2.22.14 0 .26.02.35.05.46.14.99.7 1.45 1.57 2.3 4.26 1.56 10.91.23 15.32-1.62 5.35-4.51 10.93-13.24 20.46l-.48-3.11c-1.24-8.23-.92-15.44.94-21.44m29.97 455.34a28.14 28.14 0 0 0-4.61-10.21c-3.17-4.24-7.14-7.07-11.8-8.4-3.08-.89-6.06-1-8.46-.82-1.03-5.96-2.02-11.8-2.92-17.2 5.4-6.12 9-11.87 11.26-16.14 3.44-6.53 4.58-11.07 4.63-11.27 1.7-5.17 2.06-12.8.97-20.95-1-7.49-3.07-14.15-5.4-17.37-1.03-1.42-2.07-2.14-3.1-2.14-1.21 0-3.7 1.23-6.57 3.98a36.12 36.12 0 0 0-8.06 12c-2.98 7-3.19 16.42-2.84 23.08a102.5 102.5 0 0 0 1.49 12.9l.72 4.14-.71.68c-1.03 1-2.21 2.12-3.58 3.5l-2.8 2.71c-8.37 8.07-21.06 20.3-21.06 39.3 0 4.66.9 9.04 2.66 13.02a31.15 31.15 0 0 0 6.76 9.67c7.67 7.49 18.18 10.67 25.18 10.52 2.93-.07 5.54-.31 7.9-.76 1.82 9.52 2.95 16.5 3 21.8.03 6.45-1.6 10.4-5.47 13.14a15.3 15.3 0 0 1-8.28 2.8c-2.57.13-4.8-.34-6.23-.75 0 0-.3-.08-.3-.27-.01-.18.33-.23.34-.23h.02c1.9-.44 5.45-1.66 7.79-4.93 1.79-2.5 2.65-7.09.82-11-1.1-2.37-3.59-5.3-9.16-5.74a11.04 11.04 0 0 0-11.03 6.18c-2.44 4.66-1.99 10.35 1.12 14.16 2.93 3.59 7.52 5.88 12.9 6.46.85.08 1.69.12 2.53.12 4.4 0 8.76-1.19 12.3-3.38 3.63-2.55 5.74-6.5 6.41-12.08.56-4.6.17-10.47-1.22-18.47l-1.55-8.81c5.7-1.9 9.83-5.45 13.57-11.25a24.33 24.33 0 0 0 2.78-18m-33.93 25.99c-4.6-1.21-9-3.7-12.73-7.17a20.19 20.19 0 0 1-4.61-6.73 24.37 24.37 0 0 1-1.97-10.1c.07-4.65 1.37-9.43 3.86-14.19 2.9-5.53 7.42-11.02 13.43-16.3a95.65 95.65 0 0 0 4.08-3.81l2.45 13.72a21.2 21.2 0 0 0-11.62 9.98c-3.5 6.52-3.37 12-2.65 15.45.94 4.42 3.45 8.15 6.88 10.23.92.55 5.02 2.67 6.84 2.09.37-.12.64-.34.78-.66.5-1.16-.5-1.8-2.06-2.75-.6-.37-1.26-.79-1.98-1.31-3.3-2.47-4.73-6.89-3.67-11.23a12.4 12.4 0 0 1 3.67-6.21 14.13 14.13 0 0 1 6.04-3.26 2449.77 2449.77 0 0 0 6.1 32.51c-4.35.93-8.67.84-12.84-.26m11.23-32.92c10.26-.47 14.5 6.92 15.38 11.7.47 2.52.46 6.92-1.07 11.1-1.16 3.15-3.6 7.19-8.69 9.23l-.23-1.27-5.4-30.76m-7.26-70.37c1.77-5.7 4.49-8.92 6.46-10.64 1.74-1.5 3.37-2.2 4.29-2.2.14 0 .26.01.35.04.46.14.99.7 1.45 1.57 2.3 4.25 1.56 10.91.23 15.32-1.62 5.35-4.51 10.93-13.24 20.46l-.48-3.11c-1.24-8.23-.92-15.44.94-21.44m29.97 455.34a28.14 28.14 0 0 0-4.61-10.21c-3.17-4.24-7.14-7.06-11.8-8.4-3.08-.88-6.06-1-8.46-.82-1.03-5.96-2.02-11.79-2.92-17.2 5.4-6.12 9-11.87 11.26-16.14 3.44-6.52 4.58-11.07 4.63-11.27 1.7-5.16 2.06-12.8.97-20.95-1-7.49-3.07-14.14-5.4-17.37-1.03-1.42-2.07-2.14-3.1-2.14-1.21 0-3.7 1.23-6.57 3.98a36.12 36.12 0 0 0-8.06 12c-2.98 7-3.19 16.42-2.84 23.09a102.5 102.5 0 0 0 1.49 12.9l.72 4.13-.71.68c-1.03 1-2.21 2.13-3.58 3.5-.86.85-1.8 1.75-2.8 2.71-8.37 8.08-21.06 20.3-21.06 39.3 0 4.66.9 9.04 2.66 13.02a31.15 31.15 0 0 0 6.76 9.67c7.67 7.5 18.18 10.68 25.18 10.52 2.93-.07 5.54-.3 7.9-.76 1.82 9.53 2.95 16.5 3 21.8.03 6.46-1.6 10.4-5.47 13.14a15.3 15.3 0 0 1-8.28 2.81c-2.57.12-4.8-.35-6.23-.75 0 0-.3-.08-.3-.28-.01-.18.33-.23.34-.23h.02c1.9-.44 5.45-1.66 7.79-4.93 1.79-2.5 2.65-7.08.82-11-1.1-2.36-3.59-5.29-9.16-5.74a11.04 11.04 0 0 0-11.03 6.18c-2.44 4.67-1.99 10.35 1.12 14.16 2.93 3.6 7.52 5.88 12.9 6.46a23.62 23.62 0 0 0 14.83-3.25c3.63-2.55 5.74-6.5 6.41-12.09.56-4.6.17-10.46-1.22-18.47l-1.55-8.8c5.7-1.91 9.83-5.45 13.57-11.26a24.33 24.33 0 0 0 2.78-18m-33.93 25.99c-4.6-1.21-9-3.7-12.73-7.16a20.19 20.19 0 0 1-4.61-6.74 24.37 24.37 0 0 1-1.97-10.1c.07-4.65 1.37-9.43 3.86-14.18 2.9-5.54 7.42-11.02 13.43-16.31a95.64 95.64 0 0 0 4.08-3.81l2.45 13.72a21.2 21.2 0 0 0-11.62 9.99c-3.5 6.51-3.37 12-2.65 15.44.94 4.43 3.45 8.16 6.88 10.23.92.56 5.02 2.67 6.84 2.1.37-.13.64-.34.78-.67.5-1.16-.5-1.8-2.06-2.75-.6-.37-1.26-.78-1.98-1.3-3.3-2.48-4.73-6.9-3.67-11.24a12.4 12.4 0 0 1 3.67-6.2 14.13 14.13 0 0 1 6.04-3.27c2.03 11.15 4.07 22.2 5.7 30.5.12.69.26 1.35.4 2.02-4.35.92-8.67.83-12.84-.27m11.23-32.92c10.26-.46 14.5 6.92 15.38 11.71.47 2.5.46 6.91-1.07 11.09-1.16 3.15-3.6 7.2-8.69 9.24l-.23-1.27c-1.53-8.7-3.45-19.6-5.4-30.77m-7.26-70.37c1.77-5.7 4.49-8.92 6.46-10.63 1.74-1.51 3.37-2.22 4.29-2.22.14 0 .26.02.35.05.46.14.99.7 1.45 1.57 2.3 4.26 1.56 10.91.23 15.32-1.62 5.36-4.51 10.93-13.24 20.46l-.48-3.11c-1.24-8.22-.92-15.44.94-21.44m29.97 455.32a28.14 28.14 0 0 0-4.61-10.2c-3.17-4.24-7.14-7.06-11.8-8.4-3.08-.88-6.06-1-8.46-.82-1.03-5.96-2.02-11.79-2.92-17.2 5.4-6.12 9-11.87 11.26-16.14 3.44-6.52 4.58-11.07 4.63-11.27 1.7-5.16 2.06-12.8.97-20.95-1-7.49-3.07-14.14-5.4-17.37-1.03-1.42-2.07-2.14-3.1-2.14-1.21 0-3.7 1.23-6.57 3.98a36.12 36.12 0 0 0-8.06 12c-2.98 7-3.19 16.42-2.84 23.09a102.5 102.5 0 0 0 1.49 12.9l.72 4.13-.71.68c-1.03 1-2.21 2.13-3.58 3.5-.86.85-1.8 1.75-2.8 2.71-8.37 8.08-21.06 20.3-21.06 39.3 0 4.66.9 9.04 2.66 13.02a31.15 31.15 0 0 0 6.76 9.67c7.67 7.5 18.18 10.68 25.18 10.52 2.93-.07 5.54-.3 7.9-.76 1.82 9.53 2.95 16.5 3 21.8.03 6.46-1.6 10.4-5.47 13.14a15.3 15.3 0 0 1-8.28 2.81c-2.57.12-4.8-.35-6.23-.75 0 0-.3-.08-.3-.28-.01-.18.33-.23.34-.23h.02c1.9-.44 5.45-1.66 7.79-4.93 1.79-2.5 2.65-7.08.82-11-1.1-2.36-3.59-5.29-9.16-5.74a11.04 11.04 0 0 0-11.03 6.18c-2.44 4.67-1.99 10.35 1.12 14.16 2.93 3.6 7.52 5.88 12.9 6.46a23.62 23.62 0 0 0 14.83-3.25c3.63-2.55 5.74-6.5 6.41-12.09.56-4.6.17-10.46-1.22-18.47l-1.55-8.8c5.7-1.91 9.83-5.45 13.57-11.26a24.33 24.33 0 0 0 2.78-18m-33.93 25.99c-4.6-1.21-9-3.7-12.73-7.16a20.19 20.19 0 0 1-4.61-6.74 24.37 24.37 0 0 1-1.97-10.1c.07-4.65 1.37-9.43 3.86-14.18 2.9-5.54 7.42-11.02 13.43-16.31a95.64 95.64 0 0 0 4.08-3.81l2.45 13.72a21.2 21.2 0 0 0-11.62 9.99c-3.5 6.51-3.37 12-2.65 15.44.94 4.43 3.45 8.16 6.88 10.23.92.56 5.02 2.67 6.84 2.1.37-.13.64-.34.78-.67.5-1.16-.5-1.8-2.06-2.75-.6-.37-1.26-.78-1.98-1.3-3.3-2.48-4.73-6.9-3.67-11.24a12.4 12.4 0 0 1 3.67-6.2 14.13 14.13 0 0 1 6.04-3.27c2.03 11.15 4.07 22.2 5.7 30.5.12.69.26 1.35.4 2.02-4.35.92-8.67.83-12.84-.27m11.23-32.92c10.26-.46 14.5 6.92 15.38 11.7.47 2.52.46 6.92-1.07 11.1-1.16 3.15-3.6 7.2-8.69 9.24l-.23-1.27c-1.53-8.7-3.45-19.6-5.4-30.77M89.55 1187c1.77-5.7 4.49-8.92 6.46-10.63 1.74-1.51 3.37-2.22 4.29-2.22.14 0 .26.02.35.05.46.14.99.7 1.45 1.57 2.3 4.26 1.56 10.91.23 15.32-1.62 5.36-4.51 10.93-13.24 20.46l-.48-3.11c-1.24-8.22-.92-15.44.94-21.44m29.96 455.34a28.14 28.14 0 0 0-4.61-10.21c-3.17-4.24-7.14-7.06-11.8-8.4-3.08-.88-6.06-1-8.46-.82-1.03-5.96-2.02-11.79-2.92-17.2 5.4-6.12 9-11.87 11.26-16.14 3.44-6.52 4.58-11.07 4.63-11.27 1.7-5.16 2.06-12.8.97-20.95-1-7.49-3.07-14.14-5.4-17.37-1.03-1.42-2.07-2.14-3.1-2.14-1.21 0-3.7 1.23-6.57 3.98a36.12 36.12 0 0 0-8.06 12c-2.98 7-3.19 16.42-2.84 23.09a102.5 102.5 0 0 0 1.49 12.9l.72 4.13-.71.68c-1.03 1-2.21 2.13-3.58 3.5-.86.85-1.8 1.75-2.8 2.71-8.37 8.08-21.06 20.3-21.06 39.3 0 4.66.9 9.04 2.66 13.02a31.15 31.15 0 0 0 6.76 9.67c7.67 7.5 18.18 10.68 25.18 10.52 2.93-.07 5.54-.3 7.9-.76 1.82 9.53 2.95 16.5 3 21.8.03 6.46-1.6 10.4-5.47 13.14a15.3 15.3 0 0 1-8.28 2.81c-2.57.12-4.8-.35-6.23-.75 0 0-.3-.08-.3-.28-.01-.18.33-.23.34-.23h.02c1.9-.44 5.45-1.66 7.79-4.93 1.79-2.5 2.65-7.08.82-11-1.1-2.36-3.59-5.29-9.16-5.74a11.04 11.04 0 0 0-11.03 6.18c-2.44 4.67-1.99 10.35 1.12 14.16 2.93 3.6 7.52 5.88 12.9 6.46a23.62 23.62 0 0 0 14.83-3.25c3.63-2.55 5.74-6.5 6.41-12.09.56-4.6.17-10.46-1.22-18.47l-1.55-8.8c5.7-1.91 9.83-5.45 13.57-11.26a24.33 24.33 0 0 0 2.78-18m-33.93 25.99c-4.6-1.21-9-3.7-12.73-7.16a20.19 20.19 0 0 1-4.61-6.74 24.37 24.37 0 0 1-1.97-10.1c.07-4.65 1.37-9.43 3.86-14.18 2.9-5.54 7.42-11.02 13.43-16.31a95.64 95.64 0 0 0 4.08-3.81l2.45 13.72a21.2 21.2 0 0 0-11.62 9.99c-3.5 6.51-3.37 12-2.65 15.44.94 4.43 3.45 8.16 6.88 10.23.92.56 5.02 2.67 6.84 2.1.37-.13.64-.34.78-.67.5-1.16-.5-1.8-2.06-2.75-.6-.37-1.26-.78-1.98-1.3-3.3-2.48-4.73-6.9-3.67-11.24a12.4 12.4 0 0 1 3.67-6.2 14.13 14.13 0 0 1 6.04-3.27c2.03 11.15 4.07 22.2 5.7 30.5.12.69.26 1.35.4 2.02-4.35.92-8.67.83-12.84-.27m11.23-32.92c10.26-.46 14.5 6.92 15.38 11.7.47 2.52.46 6.92-1.07 11.1-1.16 3.15-3.6 7.2-8.69 9.24l-.23-1.27c-1.53-8.7-3.45-19.6-5.4-30.77m-7.26-70.37c1.77-5.7 4.49-8.92 6.46-10.63 1.74-1.51 3.37-2.22 4.29-2.22.14 0 .26.02.35.05.46.14.99.7 1.45 1.57 2.3 4.26 1.56 10.91.23 15.32-1.62 5.36-4.51 10.93-13.24 20.46l-.48-3.11c-1.24-8.22-.92-15.44.94-21.44" class="Clef" style="stroke-width:.992001"/><path d="M167.28 656.76c-.6-3.86-2.98-7.54-8.04-7.54a11.1 11.1 0 0 0-8.33 3.68l.4-31.85c0-.8-.6-1.39-1.4-1.39h-1.18c-.8 0-1.4.6-1.4 1.4l.5 59.61c0 .8.6 1.39 1.4 1.39.19 0 .59-.1.79-.2.4-.2 6.84-3.37 12.2-9.42a20.13 20.13 0 0 0 5.25-13.2c0-.89-.1-1.68-.2-2.48m-6.84 3.87c0 1.5-.4 6.05-2.88 9.82-1.68 2.58-5.05 5.26-6.94 6.75l.3-19.34c.2-.9 1.68-3.77 5.65-3.77 3.57 0 3.87 3.37 3.87 5.45v1.1m31.65 336.96c-.6-3.87-2.98-7.55-8.04-7.55a11.1 11.1 0 0 0-8.33 3.68l.4-31.85c0-.8-.6-1.39-1.4-1.39h-1.18c-.8 0-1.4.6-1.4 1.4l.5 59.61c0 .8.6 1.39 1.4 1.39.19 0 .59-.1.79-.2.4-.2 6.84-3.37 12.2-9.42a20.13 20.13 0 0 0 5.25-13.2c0-.89-.1-1.68-.2-2.48m-6.84 3.87c0 1.5-.4 6.05-2.88 9.82-1.68 2.58-5.05 5.26-6.94 6.75l.3-19.34c.2-.9 1.68-3.77 5.65-3.77 3.57 0 3.87 3.37 3.87 5.45v1.1m-17.95 33.33c-.6-3.87-2.98-7.54-8.04-7.54a11.1 11.1 0 0 0-8.33 3.67l.4-31.85c0-.8-.6-1.39-1.4-1.39h-1.18c-.8 0-1.4.6-1.4 1.4l.5 59.61c0 .8.6 1.39 1.4 1.39.19 0 .59-.1.79-.2.4-.2 6.84-3.37 12.2-9.42a20.13 20.13 0 0 0 5.25-13.2c0-.89-.1-1.68-.2-2.48m-6.84 3.87c0 1.5-.4 6.05-2.88 9.82-1.68 2.58-5.05 5.26-6.94 6.75l.3-19.34c.2-.9 1.68-3.77 5.65-3.77 3.57 0 3.87 3.37 3.87 5.45v1.1m56.45 386.55c-.6-3.86-2.98-7.53-8.04-7.53a11.1 11.1 0 0 0-8.33 3.67l.4-31.85c0-.8-.6-1.39-1.4-1.39h-1.18c-.8 0-1.4.6-1.4 1.4l.5 59.61c0 .8.6 1.39 1.4 1.39.19 0 .59-.1.79-.2.4-.2 6.84-3.37 12.2-9.42a20.13 20.13 0 0 0 5.25-13.2c0-.89-.1-1.68-.2-2.48m-6.84 3.87c0 1.5-.4 6.05-2.88 9.82-1.68 2.58-5.05 5.26-6.94 6.75l.3-19.34c.2-.9 1.68-3.77 5.65-3.77 3.57 0 3.87 3.37 3.87 5.45v1.1m-17.95-53.48c-.6-3.86-2.98-7.53-8.04-7.53a11.1 11.1 0 0 0-8.33 3.67l.4-31.85c0-.8-.6-1.39-1.4-1.39h-1.18c-.8 0-1.4.6-1.4 1.4l.5 59.61c0 .8.6 1.39 1.4 1.39.19 0 .59-.1.79-.2.4-.2 6.84-3.37 12.2-9.42a20.13 20.13 0 0 0 5.25-13.2c0-.89-.1-1.68-.2-2.48m-6.84 3.87c0 1.5-.4 6.05-2.88 9.82-1.68 2.58-5.05 5.26-6.94 6.75l.3-19.34c.2-.9 1.68-3.77 5.65-3.77 3.57 0 3.87 3.37 3.87 5.45v1.1m-17.95 33.32c-.6-3.86-2.98-7.53-8.04-7.53a11.1 11.1 0 0 0-8.33 3.67l.4-31.85c0-.8-.6-1.39-1.4-1.39h-1.18c-.8 0-1.4.6-1.4 1.4l.5 59.61c0 .8.6 1.39 1.4 1.39.19 0 .59-.1.79-.2.4-.2 6.84-3.37 12.2-9.42a20.13 20.13 0 0 0 5.25-13.2c0-.89-.1-1.68-.2-2.48m-6.84 3.87c0 1.5-.4 6.05-2.88 9.82-1.68 2.58-5.05 5.26-6.94 6.75l.3-19.34c.2-.9 1.68-3.77 5.65-3.77 3.57 0 3.87 3.37 3.87 5.45v1.1m81.25 349.35c-.6-3.86-2.98-7.53-8.04-7.53a11.1 11.1 0 0 0-8.33 3.67l.4-31.85c0-.8-.6-1.39-1.4-1.39h-1.18c-.8 0-1.4.6-1.4 1.4l.5 59.61c0 .8.6 1.39 1.4 1.39.19 0 .59-.1.79-.2.4-.2 6.84-3.37 12.2-9.42a20.13 20.13 0 0 0 5.25-13.2c0-.89-.1-1.68-.2-2.48m-6.84 3.87c0 1.5-.4 6.05-2.88 9.82-1.68 2.58-5.05 5.26-6.94 6.75l.3-19.34c.2-.9 1.68-3.77 5.65-3.77 3.57 0 3.87 3.37 3.87 5.45v1.1m-17.95 33.32c-.6-3.86-2.98-7.53-8.04-7.53a11.1 11.1 0 0 0-8.33 3.67l.4-31.85c0-.8-.6-1.39-1.4-1.39h-1.18c-.8 0-1.4.6-1.4 1.4l.5 59.61c0 .8.6 1.39 1.4 1.39.19 0 .59-.1.79-.2.4-.2 6.84-3.37 12.2-9.42a20.13 20.13 0 0 0 5.25-13.2c0-.89-.1-1.68-.2-2.48m-6.84 3.87c0 1.5-.4 6.05-2.88 9.82-1.68 2.58-5.05 5.26-6.94 6.75l.3-19.34c.2-.9 1.68-3.77 5.65-3.77 3.57 0 3.87 3.37 3.87 5.45v1.1m-17.95-53.48c-.6-3.86-2.98-7.54-8.04-7.54a11.1 11.1 0 0 0-8.33 3.68l.4-31.85c0-.8-.6-1.39-1.4-1.39h-1.18c-.8 0-1.4.6-1.4 1.4l.5 59.61c0 .8.6 1.39 1.4 1.39.19 0 .59-.1.79-.2.4-.2 6.84-3.37 12.2-9.42a20.13 20.13 0 0 0 5.25-13.2c0-.89-.1-1.68-.2-2.48m-6.84 3.87c0 1.5-.4 6.05-2.88 9.82-1.68 2.58-5.05 5.26-6.94 6.75l.3-19.34c.2-.9 1.68-3.77 5.65-3.77 3.57 0 3.87 3.37 3.87 5.45v1.1m-17.95 33.32c-.6-3.86-2.98-7.53-8.04-7.53a11.1 11.1 0 0 0-8.33 3.67l.4-31.85c0-.8-.6-1.39-1.4-1.39h-1.18c-.8 0-1.4.6-1.4 1.4l.5 59.61c0 .8.6 1.39 1.4 1.39.19 0 .59-.1.79-.2.4-.2 6.84-3.37 12.2-9.42a20.13 20.13 0 0 0 5.25-13.2c0-.89-.1-1.68-.2-2.48m-6.84 3.87c0 1.5-.4 6.05-2.88 9.82-1.68 2.58-5.05 5.26-6.94 6.75l.3-19.34c.2-.9 1.68-3.77 5.65-3.77 3.57 0 3.87 3.37 3.87 5.45v1.1m6.85-1313.29c-.6-3.87-2.98-7.54-8.04-7.54-4.96 0-7.84 3.08-8.33 3.67l.4-31.84c0-.8-.6-1.39-1.4-1.39h-1.18c-.8 0-1.4.6-1.4 1.39l.5 59.62c0 .8.6 1.39 1.4 1.39.19 0 .59-.1.79-.2.4-.2 6.84-3.37 12.2-9.43a20.13 20.13 0 0 0 5.25-13.19c0-.9-.1-1.69-.2-2.48m-6.84 3.87c0 1.49-.4 6.05-2.88 9.82-1.68 2.58-5.05 5.26-6.94 6.75l.3-19.35c.2-.89 1.68-3.77 5.65-3.77 3.57 0 3.87 3.38 3.87 5.46v1.09m31.65 336.96c-.6-3.86-2.98-7.54-8.04-7.54a11.1 11.1 0 0 0-8.33 3.68l.4-31.85c0-.8-.6-1.39-1.4-1.39h-1.18c-.8 0-1.4.6-1.4 1.4l.5 59.61c0 .8.6 1.39 1.4 1.39.19 0 .59-.1.79-.2.4-.2 6.84-3.37 12.2-9.42a20.13 20.13 0 0 0 5.25-13.2c0-.89-.1-1.68-.2-2.48m-6.84 3.87c0 1.5-.4 6.05-2.88 9.82-1.68 2.58-5.05 5.26-6.94 6.75l.3-19.34c.2-.9 1.68-3.77 5.65-3.77 3.57 0 3.87 3.37 3.87 5.45v1.1m-17.95 33.32c-.6-3.86-2.98-7.54-8.04-7.54a11.1 11.1 0 0 0-8.33 3.68l.4-31.85c0-.8-.6-1.39-1.4-1.39h-1.18c-.8 0-1.4.6-1.4 1.4l.5 59.61c0 .8.6 1.39 1.4 1.39.19 0 .59-.1.79-.2.4-.2 6.84-3.37 12.2-9.42a20.13 20.13 0 0 0 5.25-13.2c0-.89-.1-1.68-.2-2.48m-6.84 3.87c0 1.5-.4 6.05-2.88 9.82-1.68 2.58-5.05 5.26-6.94 6.75l.3-19.34c.2-.9 1.68-3.77 5.65-3.77 3.57 0 3.87 3.37 3.87 5.45v1.1m56.45 386.55c-.6-3.87-2.98-7.55-8.04-7.55a11.1 11.1 0 0 0-8.33 3.68l.4-31.85c0-.8-.6-1.39-1.4-1.39h-1.18c-.8 0-1.4.6-1.4 1.4l.5 59.61c0 .8.6 1.39 1.4 1.39.19 0 .59-.1.79-.2.4-.2 6.84-3.37 12.2-9.42a20.13 20.13 0 0 0 5.25-13.2c0-.89-.1-1.68-.2-2.48m-6.84 3.87c0 1.5-.4 6.05-2.88 9.82-1.68 2.58-5.05 5.26-6.94 6.75l.3-19.34c.2-.9 1.68-3.77 5.65-3.77 3.57 0 3.87 3.37 3.87 5.45v1.1m-17.95-53.47c-.6-3.87-2.98-7.54-8.04-7.54a11.1 11.1 0 0 0-8.33 3.67l.4-31.85c0-.8-.6-1.39-1.4-1.39h-1.18c-.8 0-1.4.6-1.4 1.4l.5 59.61c0 .8.6 1.39 1.4 1.39.19 0 .59-.1.79-.2.4-.2 6.84-3.37 12.2-9.42a20.13 20.13 0 0 0 5.25-13.2c0-.89-.1-1.68-.2-2.48m-6.84 3.87c0 1.5-.4 6.05-2.88 9.82-1.68 2.58-5.05 5.26-6.94 6.75l.3-19.34c.2-.9 1.68-3.77 5.65-3.77 3.57 0 3.87 3.37 3.87 5.45v1.1m-17.95 33.33c-.6-3.87-2.98-7.54-8.04-7.54a11.1 11.1 0 0 0-8.33 3.67l.4-31.85c0-.8-.6-1.39-1.4-1.39h-1.18c-.8 0-1.4.6-1.4 1.4l.5 59.61c0 .8.6 1.39 1.4 1.39.19 0 .59-.1.79-.2.4-.2 6.84-3.37 12.2-9.42a20.13 20.13 0 0 0 5.25-13.2c0-.89-.1-1.68-.2-2.48m-6.84 3.87c0 1.5-.4 6.05-2.88 9.82-1.68 2.58-5.05 5.26-6.94 6.75l.3-19.34c.2-.9 1.68-3.77 5.65-3.77 3.57 0 3.87 3.37 3.87 5.45v1.1m81.25 349.35c-.6-3.86-2.98-7.53-8.04-7.53a11.1 11.1 0 0 0-8.33 3.67l.4-31.85c0-.8-.6-1.39-1.4-1.39h-1.18c-.8 0-1.4.6-1.4 1.4l.5 59.61c0 .8.6 1.39 1.4 1.39.19 0 .59-.1.79-.2.4-.2 6.84-3.37 12.2-9.42a20.13 20.13 0 0 0 5.25-13.2c0-.89-.1-1.68-.2-2.48m-6.84 3.87c0 1.5-.4 6.05-2.88 9.82-1.68 2.58-5.05 5.26-6.94 6.75l.3-19.34c.2-.9 1.68-3.77 5.65-3.77 3.57 0 3.87 3.37 3.87 5.45v1.1m-17.95 33.32c-.6-3.86-2.98-7.54-8.04-7.54a11.1 11.1 0 0 0-8.33 3.68l.4-31.85c0-.8-.6-1.39-1.4-1.39h-1.18c-.8 0-1.4.6-1.4 1.4l.5 59.61c0 .8.6 1.39 1.4 1.39.19 0 .59-.1.79-.2.4-.2 6.84-3.37 12.2-9.42a20.13 20.13 0 0 0 5.25-13.2c0-.89-.1-1.68-.2-2.48m-6.84 3.87c0 1.5-.4 6.05-2.88 9.82-1.68 2.58-5.05 5.26-6.94 6.75l.3-19.34c.2-.9 1.68-3.77 5.65-3.77 3.57 0 3.87 3.37 3.87 5.45v1.1m-17.95-53.48c-.6-3.86-2.98-7.53-8.04-7.53a11.1 11.1 0 0 0-8.33 3.67l.4-31.85c0-.8-.6-1.39-1.4-1.39h-1.18c-.8 0-1.4.6-1.4 1.4l.5 59.61c0 .8.6 1.39 1.4 1.39.19 0 .59-.1.79-.2.4-.2 6.84-3.37 12.2-9.42a20.13 20.13 0 0 0 5.25-13.2c0-.89-.1-1.68-.2-2.48m-6.84 3.87c0 1.5-.4 6.05-2.88 9.82-1.68 2.58-5.05 5.26-6.94 6.75l.3-19.34c.2-.9 1.68-3.77 5.65-3.77 3.57 0 3.87 3.37 3.87 5.45v1.1m-17.95 33.32c-.6-3.86-2.98-7.53-8.04-7.53a11.1 11.1 0 0 0-8.33 3.67l.4-31.85c0-.8-.6-1.39-1.4-1.39h-1.18c-.8 0-1.4.6-1.4 1.4l.5 59.61c0 .8.6 1.39 1.4 1.39.19 0 .59-.1.79-.2.4-.2 6.84-3.37 12.2-9.42a20.13 20.13 0 0 0 5.25-13.2c0-.89-.1-1.68-.2-2.48m-6.84 3.87c0 1.5-.4 6.05-2.88 9.82-1.68 2.58-5.05 5.26-6.94 6.75l.3-19.34c.2-.9 1.68-3.77 5.65-3.77 3.57 0 3.87 3.37 3.87 5.45v1.1" class="KeySig" style="stroke-width:.992001"/><path fill-rule="evenodd" d="m273.18 181.44 227.18-25.1v12.47l-227.18 25.1v-12.47m1795.64-31.61 227.18 25.1v12.48l-227.18-25.1v-12.48M330.52 615.32l223.66-31.38v12.52l-223.66 31.38v-12.52m292.52-55.85 222.13-25.1v12.47l-222.13 25.1v-12.47m1170.11-31.62 222.12 25.11v12.48l-222.12-25.1v-12.49m292.52 49.5 222.13 31.39v12.52l-222.13-31.38v-12.53M358.4 943.7l219.97-25.1v12.47l-219.98 25.11V943.7m288.12-31 221.52-25.1v12.47L646.5 925.18V912.7m1448.32-.62 219.97 25.11v12.48l-219.97-25.1v-12.49M383.2 1296.93l217.92-25.1v12.47l-217.93 25.11v-12.48m1721.61-37.83 216.39 25.11v12.5l-216.4-25.13v-12.48M408 1724.62l215.71-31.4v12.53L408 1737.15v-12.53m283.98-49.66 215.73-25.1v12.47l-215.73 25.12v-12.49m1135.97-37.83 214.19 25.12v12.48l-214.2-25.12v-12.48m284 37.2 215.73 25.12v12.48l-215.73-25.12v-12.48M572.45 151.11l227.19-25.1v12.48l-227.19 25.1V151.1m299.28-64.33 227.18-31.38v12.52L871.73 99.28V86.77m269.77 98.88 227.18-6.28v12.4l-227.18 6.28v-12.4m328.77-136.84 227.19 31.38v12.52l-227.2-31.38V48.81m299.29 48.36 227.18 25.1v12.48l-227.18-25.1V97.17M915.57 509.41l222.12-25.1v12.47L915.57 521.9v-12.48m292.53-51.14h222.12v12.4H1208.1v-12.4m292.52 11.02 222.13 25.1v12.48l-222.13-25.1v-12.49M936.18 861.43l219.97-31.39v12.53l-219.97 31.4v-12.54m289.66-68.52h219.97v12.4h-219.97v-12.4m289.66 18.14 219.97 31.4v12.52l-219.97-31.39v-12.53m289.66 48.45 219.97 25.1v12.48l-219.97-25.1v-12.49M670.13 1248.06l217.93-25.12v12.48l-217.93 25.12v-12.48m285.39-52 219.47-31.39v12.53l-219.47 31.4v-12.54m257.43 98.87 217.93-6.28v12.41l-217.93 6.28v-12.4m316.44-149.16 217.93 25.11v12.48l-217.93-25.1v-12.49m286.94 59.03 217.92 25.12v12.48l-217.92-25.1v-12.5m-840.35 423.13 215.72-25.12v12.5l-215.72 25.11v-12.49m282.45-60.38h215.72v12.4h-215.72v-12.4m283.99 18.14 215.72 31.4v12.53l-215.72-31.4v-12.53" class="Beam"/><path d="M276.58.2h-2.15l-2.7 2.45c-3.3-2-5.55-2.65-9.15-2.65-5.6 0-10.25 1.9-13.85 5.75-3.4 3.6-5.05 8.05-5.05 13.5 0 5.2 1.5 9.3 4.75 12.85 3.45 3.8 7.65 5.5 13.55 5.5 8.85 0 13.9-4.25 15.85-13.25l-3.1-.75c-1.35 6.95-5.35 10.9-11.1 10.9-6.8 0-10-5.15-10-16.15 0-10.4 3.2-15.75 9.35-15.75 5.55 0 9.2 3.85 11.45 12.2l2.65-.3-.5-14.3m-1.98 378.58h-33.1v2.7h.75c2.65 0 3.65.2 4.1.75.35.5.35.65.35 3.75v21.7c0 3.1 0 3.25-.35 3.75-.45.55-1.45.75-4.1.75h-.75v2.7h20v-2.7h-1.3c-2.7 0-3.7-.2-4.15-.75-.35-.5-.35-.65-.35-3.75v-10.1h.85c3.95.05 6.35 2.5 6.9 7.1h2.7v-16.95h-2.7c-.55 4.65-2.95 7.1-6.9 7.1h-.85v-9.05c-.1-3.5.6-4.25 4.3-4.3h.95c6.25.1 9.25 2.85 11.35 10.3h2.6l-.3-13m-34.04 378.03v2.7h.75c2.7 0 3.65.2 4.1.7.35.55.35.7.35 3.8v21.7c0 3.1 0 3.25-.35 3.75-.45.55-1.45.75-4.1.75h-.75v2.7h20.25c5.2 0 7.85-.4 10.45-1.55a8.8 8.8 0 0 0 5.25-7.95c0-3.5-2-6.25-5.7-7.95-1.7-.8-3.15-1.2-5.8-1.55 2.45-.4 3.85-.75 5.25-1.4 3-1.45 4.6-3.85 4.6-6.85a7.8 7.8 0 0 0-3.95-6.85c-2.75-1.55-5.15-2-11.05-2h-19.3m14.2 16.2v-10.6c-.1-2.1.6-2.8 2.8-2.9h1.5c4.4 0 6.75 2.2 6.75 6.35 0 2.45-.85 4.4-2.45 5.65-1.35 1.1-3.05 1.5-6.15 1.5h-2.45m0 2.75h3.45c3.15 0 4.6.3 6 1.2 1.75 1.15 2.75 3.35 2.75 5.95 0 2.4-.9 4.6-2.35 5.8-1.25 1-2.9 1.5-5.3 1.5h-1.5c-2.85-.1-3.15-.4-3.05-3.2v-11.25m40.44 2.4c-.4-2.6-1.94-5-5.34-5s-5.2 2.03-5.53 2.43l.23-21.16c0-.5-.41-.92-.92-.92h-.78c-.2 0-.5.12-.65.27-.14.14-.26.43-.26.63v.02l.35 39.67c0 .5.42.91.92.91.16 0 .4-.08.53-.17.26-.13 4.49-2.2 8.08-6.25 3.06-3.44 3.87-7.48 3.37-10.43m-4.53 2.62c0 .96-.24 4.03-1.91 6.53-1.15 1.72-3.34 3.53-4.6 4.5l.14-12.88c.15-.62 1.14-2.52 3.8-2.5 2.89 0 2.57 3.38 2.57 4.35m-16.57 354.05h-33.55v2.7h.75c2.65 0 3.65.2 4.1.75.35.5.35.65.35 3.75v21.7c0 3.1 0 3.25-.35 3.75-.45.55-1.45.75-4.1.75h-.75v2.7h33.95l.6-13.45h-2.65c-1.9 7.25-5.65 10.7-11.7 10.75h-1.5c-3.65.1-4.55-.6-4.5-3.55v-11.05h.85c3.95 0 6.35 2.5 6.9 7.1h2.7v-16.95h-2.7c-.55 4.6-2.95 7.1-6.9 7.1h-.85v-9.05c-.1-3.5.6-4.25 4.3-4.3h1.4c6.25.15 9.25 2.85 11.35 10.3h2.6l-.3-13m20.19 21.35c-.4-2.6-1.94-5-5.34-5s-5.2 2.04-5.52 2.43l.22-21.15a.92.92 0 0 0-.91-.93h-.78c-.21 0-.5.13-.65.27-.15.15-.27.44-.27.64v.02l.36 39.67a.9.9 0 0 0 1.44.73c.26-.12 4.49-2.2 8.08-6.24 3.07-3.45 3.87-7.49 3.37-10.44m-4.52 2.62c-.01.97-.25 4.04-1.92 6.54-1.14 1.71-3.34 3.52-4.6 4.5l.14-12.89c.15-.62 1.15-2.5 3.8-2.5 2.89.01 2.58 3.4 2.58 4.35m-30.78 350.3-11.35 26.5c-2.3 5.4-4.15 7.35-7.1 7.65v2.7h14.45v-2.7c-3.55-.2-4.95-1.15-4.95-3.45 0-.85.2-1.65.75-2.85l.8-1.9h12.45l1.9 4.9c.55 1.4.6 1.65.6 2.05 0 .9-.7 1.2-2.9 1.2l-.85.05v2.7h17.55v-2.7c-2.85-.1-3.65-.6-4.7-3.15l-12.85-31h-3.8m-1.05 10.65 4.85 11.95h-9.9l5.05-11.95m38.04 11.45c-.4-2.6-1.94-5-5.34-5s-5.2 2.04-5.53 2.43l.23-21.15a.92.92 0 0 0-.92-.93h-.78c-.2.01-.5.13-.65.27a1.1 1.1 0 0 0-.26.64v.02l.35 39.67c0 .5.42.9.92.9a1 1 0 0 0 .53-.17c.26-.12 4.49-2.2 8.08-6.24 3.06-3.45 3.87-7.49 3.37-10.44m-4.53 2.62c0 .97-.24 4.04-1.91 6.54-1.15 1.71-3.34 3.52-4.6 4.5l.14-12.89c.15-.62 1.14-2.5 3.8-2.5 2.89.01 2.57 3.4 2.57 4.35" class="StaffText"/><path fill="none" stroke="#000" stroke-linejoin="bevel" stroke-width="10.91" d="M18.98 43.8v285.43" class="Bracket"/><path d="M61.53 21.77c-.2-.1-.5-.2-.7-.2-.4 0-.85.15-1.09.5-.2.3-10.11 15.57-29.06 15.57H14.9c-.8 0-1.4.5-1.4 1.3v10.31h12.1c30.56 0 36.42-25.48 36.52-25.8.03-.09.1-.29.1-.49 0-.5-.3-.9-.7-1.19m.01 329.48c.4-.3.7-.7.7-1.19 0-.2-.07-.4-.1-.5-.1-.31-5.96-25.79-36.51-25.79h-12.1v10.32c0 .8.6 1.29 1.39 1.29h15.77c18.95 0 28.87 15.28 29.06 15.57.24.35.7.5 1.1.5.2 0 .5-.1.69-.2" class="Bracket" style="stroke-width:.992001"/><path fill="none" stroke="#000" stroke-linecap="square" stroke-linejoin="bevel" stroke-width="2.73" d="M1.37 61.65v249.72m0-249.72H16.5M1.37 311.37H16.5" class="Bracket"/><path fill="none" stroke="#000" stroke-linejoin="bevel" stroke-width="10.91" d="M18.98 421.82v285.44" class="Bracket"/><path d="M61.53 399.8c-.2-.1-.5-.2-.7-.2-.4 0-.85.15-1.09.5-.2.3-10.11 15.57-29.06 15.57H14.9c-.8 0-1.4.5-1.4 1.3v10.31h12.1c30.56 0 36.42-25.48 36.52-25.8.03-.09.1-.3.1-.49 0-.5-.3-.9-.7-1.19m.01 329.48c.4-.3.7-.7.7-1.2 0-.19-.07-.4-.1-.49-.1-.31-5.96-25.79-36.51-25.79h-12.1v10.32c0 .8.6 1.29 1.39 1.29h15.77c18.95 0 28.87 15.27 29.06 15.57.24.35.7.5 1.1.5.2 0 .5-.1.69-.2" class="Bracket" style="stroke-width:.992001"/><path fill="none" stroke="#000" stroke-linecap="square" stroke-linejoin="bevel" stroke-width="2.73" d="M1.37 439.68V689.4m0-249.72H16.5M1.37 689.4H16.5" class="Bracket"/><path fill="none" stroke="#000" stroke-linejoin="bevel" stroke-width="10.91" d="M18.98 799.85v285.43" class="Bracket"/><path d="M61.53 777.83c-.2-.1-.5-.2-.7-.2-.4 0-.85.15-1.09.5-.2.3-10.11 15.57-29.06 15.57H14.9c-.8 0-1.4.5-1.4 1.3v10.32h12.1c30.56 0 36.42-25.49 36.52-25.8.03-.1.1-.3.1-.5 0-.5-.3-.89-.7-1.19m.01 329.47c.4-.29.7-.68.7-1.18 0-.2-.07-.4-.1-.5-.1-.31-5.96-25.79-36.51-25.79h-12.1v10.32c0 .8.6 1.29 1.39 1.29h15.77c18.95 0 28.87 15.27 29.06 15.57.24.35.7.5 1.1.5.2 0 .5-.1.69-.2" class="Bracket" style="stroke-width:.992001"/><path fill="none" stroke="#000" stroke-linecap="square" stroke-linejoin="bevel" stroke-width="2.73" d="M1.37 817.71v249.72m0-249.72H16.5M1.37 1067.43H16.5" class="Bracket"/><path fill="none" stroke="#000" stroke-linejoin="bevel" stroke-width="10.91" d="M18.98 1177.88v285.43" class="Bracket"/><path d="M61.53 1155.85c-.2-.1-.5-.2-.7-.2-.4 0-.85.15-1.09.5-.2.3-10.11 15.57-29.06 15.57H14.9c-.8 0-1.4.5-1.4 1.3v10.32h12.1c30.56 0 36.42-25.49 36.52-25.8.03-.1.1-.3.1-.5 0-.5-.3-.89-.7-1.19m.01 329.49c.4-.3.7-.7.7-1.2 0-.19-.07-.4-.1-.49-.1-.31-5.96-25.79-36.51-25.79h-12.1v10.32c0 .8.6 1.29 1.39 1.29h15.77c18.95 0 28.87 15.27 29.06 15.57.24.35.7.5 1.1.5.2 0 .5-.1.69-.2" class="Bracket" style="stroke-width:.992001"/><path fill="none" stroke="#000" stroke-linecap="square" stroke-linejoin="bevel" stroke-width="2.73" d="M1.37 1195.73v249.73m0-249.73H16.5M1.37 1445.46H16.5" class="Bracket"/><path fill="none" stroke="#000" stroke-linejoin="bevel" stroke-width="10.91" d="M18.98 1555.91v285.44" class="Bracket"/><path d="M61.53 1533.88c-.2-.1-.5-.2-.7-.2-.4 0-.85.15-1.09.5-.2.3-10.11 15.57-29.06 15.57H14.9c-.8 0-1.4.5-1.4 1.3v10.32h12.1c30.56 0 36.42-25.49 36.52-25.8.03-.1.1-.3.1-.5 0-.5-.3-.89-.7-1.19m.01 329.49c.4-.3.7-.7.7-1.2 0-.19-.07-.4-.1-.49-.1-.31-5.96-25.79-36.51-25.79h-12.1v10.32c0 .8.6 1.29 1.39 1.29h15.77c18.95 0 28.87 15.27 29.06 15.57.24.35.7.5 1.1.5.2 0 .5-.1.69-.2" class="Bracket" style="stroke-width:.992001"/><path fill="none" stroke="#000" stroke-linecap="square" stroke-linejoin="bevel" stroke-width="2.73" d="M1.37 1573.76v249.73m0-249.73H16.5M1.37 1823.5H16.5" class="Bracket"/></svg>