<svg xmlns="http://www.w3.org/2000/svg" width="2550.59" height="1847.51" version="1.2"><path fill="none" stroke="#000" stroke-linejoin="bevel" stroke-width="2.73" d="M32.37 62.7h2518.22M32.37 87.5h2518.22M32.37 112.3h2518.22M32.37 137.1h2518.22M32.37 161.9h2518.22M32.37 212.08h2518.22M32.37 236.88h2518.22M32.37 261.68h2518.22M32.37 286.48h2518.22M32.37 311.28h2518.22M32.37 436.74h2518.22M32.37 461.54h2518.22M32.37 486.34h2518.22M32.37 511.14h2518.22M32.37 535.94h2518.22M32.37 586.12h2518.22M32.37 610.92h2518.22M32.37 635.72h2518.22M32.37 660.52h2518.22M32.37 685.32h2518.22M32.37 810.78h2518.22M32.37 835.58h2518.22M32.37 860.38h2518.22M32.37 885.18h2518.22M32.37 909.98h2518.22M32.37 960.16h2518.22M32.37 984.96h2518.22m-2518.22 24.8h2518.22m-2518.22 24.8h2518.22m-2518.22 24.8h2518.22M32.37 1184.8h2518.22M32.37 1209.6h2518.22M32.37 1234.4h2518.22M32.37 1259.2h2518.22M32.37 1284h2518.22M32.37 1334.2h2518.22M32.37 1359h2518.22M32.37 1383.8h2518.22M32.37 1408.6h2518.22M32.37 1433.4h2518.22M32.37 1558.85h2518.22m-2518.22 24.8h2518.22m-2518.22 24.8h2518.22m-2518.22 24.8h2518.22m-2518.22 24.8h2518.22M32.37 1708.24h2518.22m-2518.22 24.8h2518.22m-2518.22 24.8h2518.22m-2518.22 24.8h2518.22m-2518.22 24.8h2518.22" class="StaffLines"/><path fill="none" stroke="#000" stroke-linejoin="bevel" stroke-width="4.46" d="M34.6 210.72v101.93" class="BarLine"/><path fill="none" stroke="#000" stroke-linejoin="bevel" stroke-width="13.64" d="M141.76 210.72v101.93" class="BarLine"/><path fill="none" stroke="#000" stroke-linejoin="bevel" stroke-width="4.46" d="M159.12 210.72v101.93" class="BarLine"/><path d="M181.63 249.28a5.2 5.2 0 0 0-5.16-5.26 5.2 5.2 0 0 0-5.15 5.26 5.2 5.2 0 0 0 5.15 5.25 5.2 5.2 0 0 0 5.16-5.25m0 24.8a5.2 5.2 0 0 0-5.16-5.26 5.2 5.2 0 0 0-5.15 5.26 5.2 5.2 0 0 0 5.15 5.25 5.2 5.2 0 0 0 5.16-5.25m2004.03-24.8a5.2 5.2 0 0 0-5.15-5.26 5.2 5.2 0 0 0-5.16 5.26 5.2 5.2 0 0 0 5.16 5.25 5.2 5.2 0 0 0 5.15-5.25m0 24.8a5.2 5.2 0 0 0-5.15-5.26 5.2 5.2 0 0 0-5.16 5.26 5.2 5.2 0 0 0 5.16 5.25 5.2 5.2 0 0 0 5.15-5.25" class="BarLine" style="stroke-width:.992001"/><path fill="none" stroke="#000" stroke-linejoin="bevel" stroke-width="4.46" d="M2197.86 210.72v101.93" class="BarLine"/><path fill="none" stroke="#000" stroke-linejoin="bevel" stroke-width="13.64" d="M2215.22 210.72v101.93" class="BarLine"/><path fill="none" stroke="#000" stroke-linejoin="bevel" stroke-width="4.46" d="M2534.72 210.72v101.93m13.64-101.93v101.93M34.6 584.76v101.92" class="BarLine"/><path fill="none" stroke="#000" stroke-linejoin="bevel" stroke-width="13.64" d="M199.09 584.76v101.92" class="BarLine"/><path fill="none" stroke="#000" stroke-linejoin="bevel" stroke-width="4.46" d="M216.45 584.76v101.92" class="BarLine"/><path d="M238.97 623.32a5.2 5.2 0 0 0-5.16-5.26 5.2 5.2 0 0 0-5.16 5.26 5.2 5.2 0 0 0 5.16 5.25 5.2 5.2 0 0 0 5.16-5.25m0 24.8a5.2 5.2 0 0 0-5.16-5.26 5.2 5.2 0 0 0-5.16 5.26 5.2 5.2 0 0 0 5.16 5.25 5.2 5.2 0 0 0 5.16-5.25m1952.53-24.8a5.2 5.2 0 0 0-5.15-5.26 5.2 5.2 0 0 0-5.16 5.26 5.2 5.2 0 0 0 5.16 5.25 5.2 5.2 0 0 0 5.15-5.25m0 24.8a5.2 5.2 0 0 0-5.15-5.26 5.2 5.2 0 0 0-5.16 5.26 5.2 5.2 0 0 0 5.16 5.25 5.2 5.2 0 0 0 5.15-5.25" class="BarLine" style="stroke-width:.992001"/><path fill="none" stroke="#000" stroke-linejoin="bevel" stroke-width="4.46" d="M2203.7 584.76v101.92" class="BarLine"/><path fill="none" stroke="#000" stroke-linejoin="bevel" stroke-width="13.64" d="M2221.07 584.76v101.92" class="BarLine"/><path fill="none" stroke="#000" stroke-linejoin="bevel" stroke-width="4.46" d="M2534.72 584.76v101.92m13.64-101.92v101.92M34.6 958.79v101.93" class="BarLine"/><path fill="none" stroke="#000" stroke-linejoin="bevel" stroke-width="13.64" d="M223.89 958.79v101.93" class="BarLine"/><path fill="none" stroke="#000" stroke-linejoin="bevel" stroke-width="4.46" d="M241.25 958.79v101.93" class="BarLine"/><path d="M263.77 997.36a5.2 5.2 0 0 0-5.16-5.26 5.2 5.2 0 0 0-5.16 5.26 5.2 5.2 0 0 0 5.16 5.25 5.2 5.2 0 0 0 5.16-5.25m0 24.8a5.2 5.2 0 0 0-5.16-5.26 5.2 5.2 0 0 0-5.16 5.26 5.2 5.2 0 0 0 5.16 5.25 5.2 5.2 0 0 0 5.16-5.25m1936.83-24.8a5.2 5.2 0 0 0-5.16-5.26 5.2 5.2 0 0 0-5.16 5.26 5.2 5.2 0 0 0 5.16 5.25 5.2 5.2 0 0 0 5.15-5.25m.01 24.8a5.2 5.2 0 0 0-5.16-5.26 5.2 5.2 0 0 0-5.16 5.26 5.2 5.2 0 0 0 5.16 5.25 5.2 5.2 0 0 0 5.15-5.25" class="BarLine" style="stroke-width:.992001"/><path fill="none" stroke="#000" stroke-linejoin="bevel" stroke-width="4.46" d="M2212.79 958.79v101.93" class="BarLine"/><path fill="none" stroke="#000" stroke-linejoin="bevel" stroke-width="13.64" d="M2230.15 958.79v101.93" class="BarLine"/><path fill="none" stroke="#000" stroke-linejoin="bevel" stroke-width="4.46" d="M2534.72 958.79v101.93m13.64-101.93v101.93M34.6 1332.83v101.93" class="BarLine"/><path fill="none" stroke="#000" stroke-linejoin="bevel" stroke-width="13.64" d="M248.69 1332.83v101.93" class="BarLine"/><path fill="none" stroke="#000" stroke-linejoin="bevel" stroke-width="4.46" d="M266.05 1332.83v101.93" class="BarLine"/><path d="M288.57 1371.4a5.2 5.2 0 0 0-5.16-5.26 5.2 5.2 0 0 0-5.16 5.26 5.2 5.2 0 0 0 5.16 5.25 5.2 5.2 0 0 0 5.16-5.25m0 24.8a5.2 5.2 0 0 0-5.16-5.26 5.2 5.2 0 0 0-5.16 5.26 5.2 5.2 0 0 0 5.16 5.25 5.2 5.2 0 0 0 5.16-5.25m1935.53-24.8a5.2 5.2 0 0 0-5.15-5.26 5.2 5.2 0 0 0-5.16 5.26 5.2 5.2 0 0 0 5.16 5.25 5.2 5.2 0 0 0 5.15-5.25m0 24.8a5.2 5.2 0 0 0-5.15-5.26 5.2 5.2 0 0 0-5.16 5.26 5.2 5.2 0 0 0 5.16 5.25 5.2 5.2 0 0 0 5.15-5.25" class="BarLine" style="stroke-width:.992001"/><path fill="none" stroke="#000" stroke-linejoin="bevel" stroke-width="4.46" d="M2236.3 1332.83v101.93" class="BarLine"/><path fill="none" stroke="#000" stroke-linejoin="bevel" stroke-width="13.64" d="M2253.67 1332.83v101.93" class="BarLine"/><path fill="none" stroke="#000" stroke-linejoin="bevel" stroke-width="4.46" d="M2534.72 1332.83v101.93m13.64-101.93v101.93M34.6 1706.87v101.93" class="BarLine"/><path fill="none" stroke="#000" stroke-linejoin="bevel" stroke-width="13.64" d="M273.49 1706.87v101.93" class="BarLine"/><path fill="none" stroke="#000" stroke-linejoin="bevel" stroke-width="4.46" d="M290.86 1706.87v101.93" class="BarLine"/><path d="M313.37 1745.44a5.2 5.2 0 0 0-5.16-5.26 5.2 5.2 0 0 0-5.16 5.26 5.2 5.2 0 0 0 5.16 5.25 5.2 5.2 0 0 0 5.16-5.25m0 24.8a5.2 5.2 0 0 0-5.16-5.26 5.2 5.2 0 0 0-5.16 5.26 5.2 5.2 0 0 0 5.16 5.25 5.2 5.2 0 0 0 5.16-5.25m1902.33-24.8a5.2 5.2 0 0 0-5.16-5.26 5.2 5.2 0 0 0-5.16 5.26 5.2 5.2 0 0 0 5.16 5.25 5.2 5.2 0 0 0 5.15-5.25m.01 24.8a5.2 5.2 0 0 0-5.16-5.26 5.2 5.2 0 0 0-5.16 5.26 5.2 5.2 0 0 0 5.16 5.25 5.2 5.2 0 0 0 5.15-5.25" class="BarLine" style="stroke-width:.992001"/><path fill="none" stroke="#000" stroke-linejoin="bevel" stroke-width="4.46" d="M2227.9 1706.87v101.93" class="BarLine"/><path fill="none" stroke="#000" stroke-linejoin="bevel" stroke-width="13.64" d="M2245.26 1706.87v101.93" class="BarLine"/><path fill="none" stroke="#000" stroke-linejoin="bevel" stroke-width="4.46" d="M2534.72 1706.87v101.93m13.64-101.93v101.93M34.6 61.34v150.74" class="BarLine"/><path fill="none" stroke="#000" stroke-linejoin="bevel" stroke-width="13.64" d="M141.76 61.34v150.74" class="BarLine"/><path fill="none" stroke="#000" stroke-linejoin="bevel" stroke-width="4.46" d="M159.12 61.34v150.74" class="BarLine"/><path d="M181.63 99.9a5.2 5.2 0 0 0-5.16-5.26 5.2 5.2 0 0 0-5.15 5.25 5.2 5.2 0 0 0 5.15 5.26 5.2 5.2 0 0 0 5.16-5.26m0 24.81a5.2 5.2 0 0 0-5.16-5.26 5.2 5.2 0 0 0-5.15 5.25 5.2 5.2 0 0 0 5.15 5.26 5.2 5.2 0 0 0 5.16-5.26M2185.66 99.9a5.2 5.2 0 0 0-5.15-5.26 5.2 5.2 0 0 0-5.16 5.25 5.2 5.2 0 0 0 5.16 5.26 5.2 5.2 0 0 0 5.15-5.26m0 24.81a5.2 5.2 0 0 0-5.15-5.26 5.2 5.2 0 0 0-5.16 5.25 5.2 5.2 0 0 0 5.16 5.26 5.2 5.2 0 0 0 5.15-5.26" class="BarLine" style="stroke-width:.992001"/><path fill="none" stroke="#000" stroke-linejoin="bevel" stroke-width="4.46" d="M2197.86 61.34v150.74" class="BarLine"/><path fill="none" stroke="#000" stroke-linejoin="bevel" stroke-width="13.64" d="M2215.22 61.34v150.74" class="BarLine"/><path fill="none" stroke="#000" stroke-linejoin="bevel" stroke-width="4.46" d="M2534.72 61.34v150.74m13.64-150.74v150.74M34.6 435.37v150.75" class="BarLine"/><path fill="none" stroke="#000" stroke-linejoin="bevel" stroke-width="13.64" d="M199.09 435.37v150.75" class="BarLine"/><path fill="none" stroke="#000" stroke-linejoin="bevel" stroke-width="4.46" d="M216.45 435.37v150.75" class="BarLine"/><path d="M238.97 473.93a5.2 5.2 0 0 0-5.16-5.26 5.2 5.2 0 0 0-5.16 5.26 5.2 5.2 0 0 0 5.16 5.26 5.2 5.2 0 0 0 5.16-5.26m0 24.8a5.2 5.2 0 0 0-5.16-5.26 5.2 5.2 0 0 0-5.16 5.26 5.2 5.2 0 0 0 5.16 5.26 5.2 5.2 0 0 0 5.16-5.26m1952.53-24.8a5.2 5.2 0 0 0-5.15-5.26 5.2 5.2 0 0 0-5.16 5.26 5.2 5.2 0 0 0 5.16 5.26 5.2 5.2 0 0 0 5.15-5.26m0 24.8a5.2 5.2 0 0 0-5.15-5.26 5.2 5.2 0 0 0-5.16 5.26 5.2 5.2 0 0 0 5.16 5.26 5.2 5.2 0 0 0 5.15-5.26" class="BarLine" style="stroke-width:.992001"/><path fill="none" stroke="#000" stroke-linejoin="bevel" stroke-width="4.46" d="M2203.7 435.37v150.75" class="BarLine"/><path fill="none" stroke="#000" stroke-linejoin="bevel" stroke-width="13.64" d="M2221.07 435.37v150.75" class="BarLine"/><path fill="none" stroke="#000" stroke-linejoin="bevel" stroke-width="4.46" d="M2534.72 435.37v150.75m13.64-150.75v150.75M34.6 809.4v150.76" class="BarLine"/><path fill="none" stroke="#000" stroke-linejoin="bevel" stroke-width="13.64" d="M223.89 809.4v150.76" class="BarLine"/><path fill="none" stroke="#000" stroke-linejoin="bevel" stroke-width="4.46" d="M241.25 809.4v150.76" class="BarLine"/><path d="M263.77 847.98a5.2 5.2 0 0 0-5.16-5.26 5.2 5.2 0 0 0-5.16 5.26 5.2 5.2 0 0 0 5.16 5.25 5.2 5.2 0 0 0 5.16-5.25m0 24.8a5.2 5.2 0 0 0-5.16-5.26 5.2 5.2 0 0 0-5.16 5.26 5.2 5.2 0 0 0 5.16 5.25 5.2 5.2 0 0 0 5.16-5.25m1936.83-24.8a5.2 5.2 0 0 0-5.16-5.26 5.2 5.2 0 0 0-5.16 5.26 5.2 5.2 0 0 0 5.16 5.25 5.2 5.2 0 0 0 5.15-5.25m.01 24.8a5.2 5.2 0 0 0-5.16-5.26 5.2 5.2 0 0 0-5.16 5.26 5.2 5.2 0 0 0 5.16 5.25 5.2 5.2 0 0 0 5.15-5.25" class="BarLine" style="stroke-width:.992001"/><path fill="none" stroke="#000" stroke-linejoin="bevel" stroke-width="4.46" d="M2212.79 809.4v150.76" class="BarLine"/><path fill="none" stroke="#000" stroke-linejoin="bevel" stroke-width="13.64" d="M2230.15 809.4v150.76" class="BarLine"/><path fill="none" stroke="#000" stroke-linejoin="bevel" stroke-width="4.46" d="M2534.72 809.4v150.76m13.64-150.76v150.76M34.6 1183.45v150.75" class="BarLine"/><path fill="none" stroke="#000" stroke-linejoin="bevel" stroke-width="13.64" d="M248.69 1183.45v150.75" class="BarLine"/><path fill="none" stroke="#000" stroke-linejoin="bevel" stroke-width="4.46" d="M266.05 1183.45v150.75" class="BarLine"/><path d="M288.57 1222a5.2 5.2 0 0 0-5.16-5.25 5.2 5.2 0 0 0-5.16 5.26 5.2 5.2 0 0 0 5.16 5.25 5.2 5.2 0 0 0 5.16-5.25m0 24.79a5.2 5.2 0 0 0-5.16-5.25 5.2 5.2 0 0 0-5.16 5.26 5.2 5.2 0 0 0 5.16 5.25 5.2 5.2 0 0 0 5.16-5.25M2224.1 1222a5.2 5.2 0 0 0-5.15-5.25 5.2 5.2 0 0 0-5.16 5.26 5.2 5.2 0 0 0 5.16 5.25 5.2 5.2 0 0 0 5.15-5.25m0 24.79a5.2 5.2 0 0 0-5.15-5.25 5.2 5.2 0 0 0-5.16 5.26 5.2 5.2 0 0 0 5.16 5.25 5.2 5.2 0 0 0 5.15-5.25" class="BarLine" style="stroke-width:.992001"/><path fill="none" stroke="#000" stroke-linejoin="bevel" stroke-width="4.46" d="M2236.3 1183.45v150.75" class="BarLine"/><path fill="none" stroke="#000" stroke-linejoin="bevel" stroke-width="13.64" d="M2253.67 1183.45v150.75" class="BarLine"/><path fill="none" stroke="#000" stroke-linejoin="bevel" stroke-width="4.46" d="M2534.72 1183.45v150.75m13.64-150.75v150.75M34.6 1557.49v150.75" class="BarLine"/><path fill="none" stroke="#000" stroke-linejoin="bevel" stroke-width="13.64" d="M273.49 1557.49v150.75" class="BarLine"/><path fill="none" stroke="#000" stroke-linejoin="bevel" stroke-width="4.46" d="M290.86 1557.49v150.75" class="BarLine"/><path d="M313.37 1596.05a5.2 5.2 0 0 0-5.16-5.26 5.2 5.2 0 0 0-5.16 5.26 5.2 5.2 0 0 0 5.16 5.25 5.2 5.2 0 0 0 5.16-5.25m0 24.8a5.2 5.2 0 0 0-5.16-5.26 5.2 5.2 0 0 0-5.16 5.26 5.2 5.2 0 0 0 5.16 5.25 5.2 5.2 0 0 0 5.16-5.25m1902.33-24.8a5.2 5.2 0 0 0-5.16-5.26 5.2 5.2 0 0 0-5.16 5.26 5.2 5.2 0 0 0 5.16 5.25 5.2 5.2 0 0 0 5.15-5.25m.01 24.8a5.2 5.2 0 0 0-5.16-5.26 5.2 5.2 0 0 0-5.16 5.26 5.2 5.2 0 0 0 5.16 5.25 5.2 5.2 0 0 0 5.15-5.25" class="BarLine" style="stroke-width:.992001"/><path fill="none" stroke="#000" stroke-linejoin="bevel" stroke-width="4.46" d="M2227.9 1557.49v150.75" class="BarLine"/><path fill="none" stroke="#000" stroke-linejoin="bevel" stroke-width="13.64" d="M2245.26 1557.49v150.75" class="BarLine"/><path fill="none" stroke="#000" stroke-linejoin="bevel" stroke-width="4.46" d="M2534.72 1557.49v150.75m13.64-150.75v150.75" class="BarLine"/><path fill="none" stroke="#000" stroke-linejoin="bevel" stroke-width="3.97" d="M1844.72 187.28h49.59m-1337.37-.58h49.6m594.29-148.8h49.59m-49.59-24.8h49.59M814.6 560.74h49.6m786.04 0h49.59M1248.6 785.98h52.67M1169.33 1160H1222m50.75 0h52.67m-52.67-24.8h52.67m-52.67-24.8h52.67m50.76 49.6h52.67m-654.26 522.85h49.59m456.77-148.8h52.67m456.76 148.8h49.59" class="LedgerLine"/><path fill="none" stroke="#000" stroke-linejoin="bevel" stroke-width="2.73" d="M274.55 270.9V168.69m107.31 77.41v-89.82m107.32 65.02v-77.42m107.31 39.64V93.7m107.31 65.02V78.2m107.32 55.72V62.7m77.81 40.53v64.87m107.32-89.67v74.17m107.31-98.97v83.47m107.32-120.67V124.7m107.31-71.07v86.57m107.31-61.77v77.27m136.82-58.98V31.7m107.32 102.22V47.2m107.31 111.52V62.7m107.32 121.4v-71.22m107.31 108.42v-92.92M2098.9 246.1V143.89m186.29 127.01v-77.42M331.88 694.55v-83.63m104.46 58.83v-74.33m104.45 49.53v-65.03m104.46 27.83V507.29m104.45 75.66v-88.06m104.45 62.67v-75.07m104.45 37.87v-83.62m104.46 58.82v-74.32m104.46 49.52v-65.02m74.95 34.33v108.27m104.45-71.07v86.57m104.46-61.77v77.27m104.45-52.47v152.26m104.46-115.06v127.46m104.45-102.08v114.48m133.96-96.18v-71.23m104.45 108.43v-92.93m104.45 117.73V567.52m183.44 127.03v-83.63M359.76 1044.48V941.56m101.96 65.02v-80.41m103.48 55.61v-71.22m72.47 47.12v94.78M742.7 925.7v114.08M846.2 900.9v126.38M948.15 870.3v64.48m105.04-95.88v80.26m103.49-105.06v89.68m101.96-120.28v101.68m105.03-71.08v83.57m103.5-58.77v71.08m134.53-39.68v-90.52m101.97 114.62v-96.16m103.49 120.96V816.98m105.04 140.7v-78.12m101.95 102.22v-86.84m103.5 111.64v-96.02m185.55 133.92v-93.62M384.56 1381.32v-90.52m101.89 52.62v-67.9m104.95 56.2v-71.92m103.43 34.13V1191m101.89 65.04v-80.3m104.96 68.59V1160m70.84 47.13v58.28m104.97-89.66v73.93m101.88-92.15v76.88m103.43-114.08v95.48m103.42-58.28v70.59m104.96-52.37v64.86m101.89-33.48v95.48m103.42-58.28V1318m104.97-55.45v71.06m101.88-39.68v114.29m103.43-76.5v88.99m104.96-70.78v83.46m214.97-52.07V1297M409.36 1804.96v-96.72m100.04 58.82v-74.1m103.12 62.4v-78.12m69 40.92v64.32m103.11-96.29v83.7m100.04-101.92v89.7m101.58-126.9v58.28m103.12-89.66v73.93m100.03-92.15v76.88m101.59-114.08v101.68m101.58-64.48v79.87m103.12-61.65v77.26m132.61-45.88v-78.12m101.59 115.32v-99.7m100.04 111.41v-96.03m103.12 134.51v-90.52m101.58 127.72v-108.98m100.04 120.68v-102.22m183.63 140.12v-96.72" class="Stem"/><path d="M274.92 266.04c-1.78-3.27-5.55-5.06-10.11-5.06-3.38 0-7.05 1-10.62 2.88-6.55 3.47-10.51 9.32-10.51 14.38 0 1.4.3 2.78.99 4.07 1.78 3.27 5.55 4.96 10.12 4.96 3.37 0 7.04-.9 10.61-2.78 6.55-3.47 10.52-9.32 10.52-14.38a8.5 8.5 0 0 0-1-4.07m107.32-24.8c-1.79-3.27-5.56-5.06-10.12-5.06-3.37 0-7.04 1-10.61 2.88-6.55 3.47-10.52 9.32-10.52 14.38 0 1.4.3 2.78 1 4.07 1.78 3.27 5.55 4.96 10.11 4.96 3.37 0 7.04-.9 10.62-2.78 6.54-3.47 10.51-9.32 10.51-14.38a8.5 8.5 0 0 0-1-4.07m107.32-24.8c-1.78-3.27-5.55-5.06-10.11-5.06-3.38 0-7.05 1-10.62 2.88-6.55 3.47-10.51 9.32-10.51 14.38 0 1.4.3 2.78.99 4.07 1.78 3.27 5.55 4.96 10.12 4.96 3.37 0 7.04-.9 10.61-2.78 6.55-3.47 10.52-9.32 10.52-14.38a8.5 8.5 0 0 0-1-4.07m107.32-37.78c-1.79-3.27-5.56-5.06-10.12-5.06-3.37 0-7.04 1-10.61 2.88-6.55 3.47-10.52 9.32-10.52 14.38 0 1.39.3 2.78 1 4.07 1.78 3.27 5.55 4.96 10.11 4.96 3.37 0 7.04-.9 10.62-2.78 6.54-3.47 10.51-9.32 10.51-14.38a8.5 8.5 0 0 0-1-4.07m107.32-24.8c-1.78-3.27-5.55-5.06-10.12-5.06-3.37 0-7.04 1-10.61 2.88-6.55 3.47-10.51 9.32-10.51 14.38 0 1.39.3 2.78.99 4.07 1.78 3.27 5.55 4.96 10.12 4.96 3.37 0 7.04-.9 10.61-2.78 6.55-3.47 10.52-9.32 10.52-14.38a8.5 8.5 0 0 0-1-4.07m107.32-24.8c-1.79-3.27-5.56-5.06-10.12-5.06-3.37 0-7.04 1-10.61 2.88-6.55 3.47-10.52 9.32-10.52 14.38 0 1.39.3 2.78 1 4.07 1.78 3.27 5.55 4.96 10.11 4.96 3.37 0 7.04-.9 10.61-2.78 6.55-3.47 10.52-9.32 10.52-14.38a8.5 8.5 0 0 0-1-4.07m107.33-37.2c-1.8-3.27-5.56-5.06-10.12-5.06-3.38 0-7.05 1-10.62 2.88-6.54 3.47-10.51 9.32-10.51 14.38 0 1.39.3 2.78.99 4.07 1.78 3.27 5.55 4.96 10.12 4.96 3.37 0 7.04-.9 10.61-2.78 6.55-3.47 10.52-9.32 10.52-14.38a8.5 8.5 0 0 0-1-4.07m107.32-24.8c-1.8-3.27-5.56-5.06-10.12-5.06-3.38 0-7.05 1-10.62 2.88-6.54 3.47-10.51 9.32-10.51 14.38 0 1.39.3 2.78.99 4.07 1.78 3.27 5.55 4.96 10.12 4.96 3.37 0 7.04-.9 10.61-2.78 6.55-3.47 10.52-9.32 10.52-14.38a8.5 8.5 0 0 0-1-4.07m107.32-24.8c-1.78-3.27-5.55-5.06-10.11-5.06-3.38 0-7.05 1-10.62 2.88-6.55 3.47-10.51 9.32-10.51 14.38 0 1.39.3 2.78.99 4.07 1.78 3.27 5.55 4.96 10.12 4.96 3.37 0 7.04-.9 10.61-2.78 6.55-3.47 10.52-9.32 10.52-14.38a8.5 8.5 0 0 0-1-4.07m107.32-37.2c-1.8-3.27-5.56-5.06-10.12-5.06-3.38 0-7.05 1-10.62 2.88-6.54 3.47-10.51 9.32-10.51 14.38 0 1.39.3 2.78.99 4.07 1.78 3.27 5.55 4.96 10.12 4.96 3.37 0 7.04-.9 10.61-2.78 6.55-3.47 10.52-9.32 10.52-14.38a8.5 8.5 0 0 0-1-4.07m107.33 37.2c-1.8-3.27-5.56-5.06-10.12-5.06-3.38 0-7.05 1-10.62 2.88-6.54 3.47-10.51 9.32-10.51 14.38 0 1.39.3 2.78.99 4.07 1.78 3.27 5.55 4.96 10.12 4.96 3.37 0 7.04-.9 10.61-2.78 6.55-3.47 10.52-9.32 10.52-14.38a8.5 8.5 0 0 0-1-4.07m107.31 24.8c-1.78-3.27-5.55-5.06-10.11-5.06-3.38 0-7.05 1-10.62 2.88-6.55 3.47-10.51 9.32-10.51 14.38 0 1.39.3 2.78.99 4.07 1.78 3.27 5.55 4.96 10.12 4.96 3.37 0 7.04-.9 10.61-2.78 6.55-3.47 10.52-9.32 10.52-14.38a8.5 8.5 0 0 0-1-4.07m107.32 24.8c-1.78-3.27-5.55-5.06-10.11-5.06-3.38 0-7.05 1-10.62 2.88-6.55 3.47-10.51 9.32-10.51 14.38 0 1.39.3 2.78.99 4.07 1.78 3.27 5.55 4.96 10.12 4.96 3.37 0 7.04-.9 10.61-2.78 6.55-3.47 10.52-9.32 10.52-14.38a8.5 8.5 0 0 0-1-4.07m107.32 37.2c-1.8-3.27-5.56-5.06-10.12-5.06-3.38 0-7.05 1-10.62 2.88-6.54 3.47-10.51 9.32-10.51 14.38 0 1.39.3 2.78.99 4.07 1.78 3.27 5.55 4.96 10.12 4.96 3.37 0 7.04-.9 10.61-2.78 6.55-3.47 10.52-9.32 10.52-14.38a8.5 8.5 0 0 0-1-4.07m107.33 24.8c-1.8-3.27-5.56-5.06-10.12-5.06-3.38 0-7.05 1-10.62 2.88-6.54 3.47-10.51 9.32-10.51 14.38 0 1.39.3 2.78.99 4.07 1.78 3.27 5.55 4.96 10.12 4.96 3.37 0 7.04-.9 10.61-2.78 6.55-3.47 10.52-9.32 10.52-14.38a8.5 8.5 0 0 0-1-4.07m107.31 25.38c-1.78-3.27-5.55-5.06-10.11-5.06-3.38 0-7.05 1-10.62 2.88-6.55 3.47-10.51 9.32-10.51 14.38 0 1.4.3 2.78.99 4.07 1.78 3.27 5.55 4.96 10.12 4.96 3.37 0 7.04-.9 10.61-2.78 6.55-3.47 10.52-9.32 10.52-14.38a8.5 8.5 0 0 0-1-4.07m107.32 37.2c-1.78-3.27-5.55-5.06-10.11-5.06-3.38 0-7.05 1-10.62 2.88-6.55 3.47-10.51 9.32-10.51 14.38 0 1.4.3 2.78.99 4.07 1.78 3.27 5.55 4.96 10.12 4.96 3.37 0 7.04-.9 10.61-2.78 6.55-3.47 10.52-9.32 10.52-14.38a8.5 8.5 0 0 0-1-4.07m107.32 24.8c-1.8-3.27-5.56-5.06-10.12-5.06-3.38 0-7.05 1-10.62 2.88-6.54 3.47-10.51 9.32-10.51 14.38 0 1.4.3 2.78.99 4.07 1.78 3.27 5.55 4.96 10.12 4.96 3.37 0 7.04-.9 10.61-2.78 6.55-3.47 10.52-9.32 10.52-14.38a8.5 8.5 0 0 0-1-4.07m186.3 24.8c-1.8-3.27-5.56-5.06-10.12-5.06-3.38 0-7.05 1-10.62 2.88-6.54 3.47-10.51 9.32-10.51 14.38 0 1.4.3 2.78.99 4.07 1.78 3.27 5.55 4.96 10.12 4.96 3.37 0 7.04-.9 10.61-2.78 6.55-3.47 10.52-9.32 10.52-14.38a8.5 8.5 0 0 0-1-4.07m-4.26 6.75c-1.69 1.68-5.06 3.77-8.63 5.75-3.57 1.98-7.14 3.47-9.52 3.97-.5.1-1 .2-1.5.2-1.58 0-2.77-.6-3.46-1.89-.3-.5-.5-1.09-.5-1.68 0-1.1.7-2.39 1.79-3.48 1.68-1.68 4.96-3.77 8.53-5.75 3.57-1.98 7.14-3.47 9.52-3.97.5-.1 1-.2 1.49-.2 1.58 0 2.87.6 3.57 1.89.3.5.4 1.09.4 1.68 0 1.1-.6 2.29-1.7 3.48M332.26 689.68c-1.79-3.27-5.56-5.06-10.12-5.06-3.37 0-7.04 1-10.61 2.88-6.55 3.47-10.52 9.32-10.52 14.38 0 1.4.3 2.78 1 4.07 1.78 3.27 5.55 4.96 10.11 4.96 3.37 0 7.04-.9 10.62-2.78 6.54-3.47 10.51-9.32 10.51-14.38a8.5 8.5 0 0 0-1-4.07m104.46-24.8c-1.78-3.27-5.55-5.06-10.12-5.06-3.37 0-7.04 1-10.61 2.88-6.55 3.47-10.51 9.32-10.51 14.38 0 1.4.3 2.78.99 4.07 1.78 3.27 5.55 4.96 10.12 4.96 3.37 0 7.04-.9 10.61-2.78 6.55-3.47 10.52-9.32 10.52-14.38a8.5 8.5 0 0 0-1-4.07m104.46-24.8c-1.79-3.27-5.56-5.06-10.12-5.06-3.37 0-7.04 1-10.61 2.88-6.55 3.47-10.52 9.32-10.52 14.38 0 1.4.3 2.78 1 4.07 1.78 3.27 5.55 4.96 10.11 4.96 3.37 0 7.04-.9 10.61-2.78 6.55-3.47 10.52-9.32 10.52-14.38a8.5 8.5 0 0 0-1-4.07m104.46-37.2c-1.78-3.27-5.55-5.06-10.12-5.06-3.37 0-7.04 1-10.61 2.88-6.55 3.47-10.52 9.32-10.52 14.38 0 1.4.3 2.78 1 4.07 1.78 3.27 5.55 4.96 10.11 4.96 3.38 0 7.05-.9 10.62-2.78 6.55-3.47 10.51-9.32 10.51-14.38a8.5 8.5 0 0 0-.99-4.07m104.46-24.8c-1.79-3.27-5.56-5.06-10.12-5.06-3.38 0-7.05 1-10.62 2.88-6.54 3.47-10.51 9.32-10.51 14.38 0 1.4.3 2.78.99 4.07 1.79 3.27 5.56 4.96 10.12 4.96 3.37 0 7.04-.9 10.61-2.78 6.55-3.47 10.52-9.32 10.52-14.38a8.5 8.5 0 0 0-1-4.07m104.47-25.38c-1.8-3.28-5.56-5.06-10.12-5.06-3.38 0-7.05 1-10.62 2.88-6.54 3.47-10.51 9.32-10.51 14.38 0 1.39.3 2.78.99 4.07 1.78 3.27 5.55 4.96 10.12 4.96 3.37 0 7.04-.9 10.61-2.78 6.55-3.47 10.52-9.33 10.52-14.38a8.5 8.5 0 0 0-1-4.07m104.46-37.2c-1.8-3.28-5.56-5.06-10.12-5.06-3.38 0-7.05.99-10.62 2.87-6.54 3.48-10.51 9.33-10.51 14.39 0 1.39.3 2.78.99 4.07 1.78 3.27 5.55 4.96 10.12 4.96 3.37 0 7.04-.9 10.61-2.78 6.55-3.47 10.52-9.33 10.52-14.39a8.5 8.5 0 0 0-1-4.06m104.45-24.8c-1.78-3.28-5.55-5.06-10.11-5.06-3.38 0-7.05.99-10.62 2.87-6.55 3.48-10.51 9.33-10.51 14.39 0 1.39.3 2.78.99 4.07 1.78 3.27 5.55 4.96 10.12 4.96 3.37 0 7.04-.9 10.61-2.78 6.55-3.47 10.52-9.33 10.52-14.39a8.5 8.5 0 0 0-1-4.06m104.47-24.8c-1.8-3.28-5.56-5.06-10.12-5.06-3.38 0-7.05.99-10.62 2.87-6.55 3.48-10.51 9.33-10.51 14.39 0 1.39.3 2.78.99 4.07 1.78 3.27 5.55 4.96 10.12 4.96 3.37 0 7.04-.9 10.61-2.78 6.55-3.47 10.52-9.33 10.52-14.39a8.5 8.5 0 0 0-1-4.06m104.46-37.2c-1.8-3.28-5.56-5.06-10.12-5.06-3.38 0-7.05.99-10.62 2.87-6.54 3.48-10.51 9.33-10.51 14.39 0 1.39.3 2.78.99 4.07 1.78 3.27 5.55 4.96 10.12 4.96 3.37 0 7.04-.9 10.61-2.78 6.55-3.47 10.52-9.33 10.52-14.39a8.5 8.5 0 0 0-1-4.06m104.46 37.2c-1.78-3.28-5.55-5.06-10.11-5.06-3.38 0-7.05.99-10.62 2.87-6.54 3.48-10.51 9.33-10.51 14.39 0 1.39.3 2.78.99 4.07 1.78 3.27 5.55 4.96 10.12 4.96 3.37 0 7.04-.9 10.61-2.78 6.55-3.47 10.52-9.33 10.52-14.39a8.5 8.5 0 0 0-1-4.06m104.46 24.8c-1.8-3.28-5.56-5.06-10.12-5.06-3.38 0-7.05.99-10.62 2.87-6.54 3.48-10.51 9.33-10.51 14.39 0 1.39.3 2.78.99 4.07 1.78 3.27 5.55 4.96 10.12 4.96 3.37 0 7.04-.9 10.61-2.78 6.55-3.47 10.52-9.33 10.52-14.39a8.5 8.5 0 0 0-1-4.06m104.46 24.8c-1.78-3.28-5.55-5.06-10.11-5.06-3.38 0-7.05.99-10.62 2.87-6.55 3.48-10.51 9.33-10.51 14.39 0 1.39.3 2.78.99 4.07 1.78 3.27 5.55 4.96 10.12 4.96 3.37 0 7.04-.9 10.61-2.78 6.55-3.47 10.52-9.33 10.52-14.39a8.5 8.5 0 0 0-1-4.06m104.45 37.2c-1.78-3.28-5.55-5.06-10.11-5.06-3.38 0-7.05 1-10.62 2.88-6.55 3.47-10.51 9.32-10.51 14.38 0 1.39.3 2.78.99 4.07 1.78 3.27 5.55 4.96 10.12 4.96 3.37 0 7.04-.9 10.61-2.78 6.55-3.47 10.52-9.33 10.52-14.38a8.5 8.5 0 0 0-1-4.07m104.47 25.38c-1.8-3.27-5.56-5.06-10.12-5.06-3.38 0-7.05 1-10.62 2.88-6.55 3.47-10.51 9.32-10.51 14.38 0 1.4.3 2.78.99 4.07 1.78 3.27 5.55 4.96 10.12 4.96 3.37 0 7.04-.9 10.61-2.78 6.55-3.47 10.52-9.32 10.52-14.38a8.5 8.5 0 0 0-1-4.07m104.46 24.8c-1.8-3.27-5.56-5.06-10.12-5.06-3.38 0-7.05 1-10.62 2.88-6.54 3.47-10.51 9.32-10.51 14.38 0 1.4.3 2.78.99 4.07 1.78 3.27 5.55 4.96 10.12 4.96 3.37 0 7.04-.9 10.61-2.78 6.55-3.47 10.52-9.32 10.52-14.38a8.5 8.5 0 0 0-1-4.07m104.46 37.2c-1.8-3.27-5.56-5.06-10.12-5.06-3.38 0-7.05 1-10.62 2.88-6.54 3.47-10.51 9.32-10.51 14.38 0 1.4.3 2.78.99 4.07 1.78 3.27 5.55 4.96 10.12 4.96 3.37 0 7.04-.9 10.61-2.78 6.55-3.47 10.52-9.32 10.52-14.38a8.5 8.5 0 0 0-1-4.07m104.47 24.8c-1.8-3.27-5.56-5.06-10.12-5.06-3.38 0-7.05 1-10.62 2.88-6.54 3.47-10.51 9.32-10.51 14.38 0 1.4.3 2.78.99 4.07 1.78 3.27 5.55 4.96 10.12 4.96 3.37 0 7.04-.9 10.61-2.78 6.55-3.47 10.52-9.32 10.52-14.38a8.5 8.5 0 0 0-1-4.07m183.43 24.8c-1.78-3.27-5.55-5.06-10.11-5.06-3.38 0-7.05 1-10.62 2.88-6.54 3.47-10.51 9.32-10.51 14.38 0 1.4.3 2.78.99 4.07 1.78 3.27 5.55 4.96 10.12 4.96 3.37 0 7.04-.9 10.61-2.78 6.55-3.47 10.52-9.32 10.52-14.38a8.5 8.5 0 0 0-1-4.07m-4.26 6.75c-1.69 1.68-5.06 3.77-8.63 5.75-3.57 1.98-7.14 3.47-9.52 3.97-.5.1-1 .2-1.5.2-1.58 0-2.77-.6-3.46-1.89-.3-.5-.5-1.09-.5-1.69 0-1.09.7-2.38 1.79-3.47 1.68-1.68 4.96-3.77 8.53-5.75 3.57-1.98 7.14-3.47 9.52-3.97.5-.1 1-.2 1.49-.2 1.58 0 2.87.6 3.57 1.89.3.5.4 1.09.4 1.68 0 1.1-.6 2.29-1.7 3.48M343.57 1022.16l-17.76 24.8h35.32l-17.56-24.8m118.53-20.44c-1.8-3.27-5.56-5.06-10.13-5.06-3.37 0-7.04 1-10.61 2.88-6.55 3.47-10.51 9.32-10.51 14.38 0 1.4.3 2.78.99 4.07 1.78 3.27 5.55 4.96 10.12 4.96 3.37 0 7.04-.9 10.61-2.78 6.55-3.47 10.52-9.32 10.52-14.38a8.5 8.5 0 0 0-1-4.07m103.5-24.8c-1.79-3.27-5.56-5.06-10.12-5.06-3.37 0-7.04 1-10.61 2.88-6.55 3.47-10.52 9.32-10.52 14.38 0 1.4.3 2.78 1 4.07 1.78 3.27 5.55 4.96 10.11 4.96 3.37 0 7.04-.9 10.62-2.78 6.54-3.47 10.51-9.32 10.51-14.38a8.5 8.5 0 0 0-1-4.07m88.47-41.56-17.75 24.8h35.31l-17.56-24.8m118.53-21.02c-1.79-3.27-5.56-5.06-10.12-5.06-3.37 0-7.04 1-10.61 2.88-6.55 3.47-10.52 9.32-10.52 14.38 0 1.4.3 2.78 1 4.07 1.78 3.27 5.55 4.96 10.11 4.96 3.38 0 7.05-.9 10.62-2.78 6.54-3.47 10.51-9.32 10.51-14.38a8.5 8.5 0 0 0-.99-4.07m103.5-24.8c-1.8-3.27-5.56-5.06-10.12-5.06-3.38 0-7.05 1-10.62 2.88-6.54 3.47-10.51 9.32-10.51 14.38 0 1.4.3 2.78.99 4.07 1.78 3.27 5.55 4.96 10.12 4.96 3.37 0 7.04-.9 10.61-2.78 6.55-3.47 10.52-9.32 10.52-14.38a8.5 8.5 0 0 0-1-4.07m88.47-41.56-17.75 24.8h35.31l-17.56-24.8m118.53-20.44c-1.8-3.27-5.56-5.06-10.12-5.06-3.38 0-7.05 1-10.62 2.88-6.54 3.47-10.51 9.32-10.51 14.38 0 1.4.3 2.78.99 4.07 1.78 3.27 5.55 4.96 10.12 4.96 3.37 0 7.04-.9 10.61-2.78 6.55-3.47 10.52-9.32 10.52-14.38a8.5 8.5 0 0 0-1-4.07m103.51-24.8c-1.8-3.27-5.56-5.06-10.12-5.06-3.38 0-7.05 1-10.62 2.88-6.54 3.47-10.51 9.32-10.51 14.38 0 1.4.3 2.78.99 4.07 1.78 3.27 5.55 4.96 10.12 4.96 3.37 0 7.04-.9 10.61-2.78 6.55-3.47 10.52-9.32 10.52-14.38a8.5 8.5 0 0 0-1-4.07m88.47-41.56-17.75 24.8h35.31l-17.56-24.8m118.53 41.56c-1.8-3.27-5.56-5.06-10.12-5.06-3.38 0-7.05 1-10.62 2.88-6.54 3.47-10.51 9.32-10.51 14.38 0 1.4.3 2.78.99 4.07 1.78 3.27 5.55 4.96 10.12 4.96 3.37 0 7.04-.9 10.61-2.78 6.55-3.47 10.52-9.32 10.52-14.38a8.5 8.5 0 0 0-1-4.07m103.51 24.8c-1.8-3.27-5.56-5.06-10.12-5.06-3.38 0-7.05 1-10.62 2.88-6.54 3.47-10.51 9.32-10.51 14.38 0 1.4.3 2.78.99 4.07 1.78 3.27 5.55 4.96 10.12 4.96 3.37 0 7.04-.9 10.61-2.78 6.55-3.47 10.52-9.32 10.52-14.38a8.5 8.5 0 0 0-1-4.07m88.46 20.44-17.75 24.8h35.31l-17.56-24.8m118.54 41.56c-1.8-3.27-5.56-5.06-10.12-5.06-3.38 0-7.05 1-10.62 2.88-6.54 3.47-10.51 9.32-10.51 14.38 0 1.4.3 2.78.99 4.07 1.78 3.27 5.55 4.96 10.12 4.96 3.37 0 7.04-.9 10.61-2.78 6.55-3.47 10.52-9.32 10.52-14.38a8.5 8.5 0 0 0-1-4.07m103.5 24.8c-1.8-3.27-5.56-5.06-10.12-5.06-3.38 0-7.05 1-10.62 2.88-6.54 3.47-10.51 9.32-10.51 14.38 0 1.4.3 2.78.99 4.07 1.78 3.27 5.55 4.96 10.12 4.96 3.37 0 7.04-.9 10.61-2.78 6.55-3.47 10.52-9.32 10.52-14.38a8.5 8.5 0 0 0-1-4.07m88.47 21.02-17.75 24.8h35.31l-17.56-24.8m118.54 41.56c-1.8-3.27-5.56-5.06-10.12-5.06-3.38 0-7.05 1-10.62 2.88-6.54 3.47-10.51 9.32-10.51 14.38 0 1.4.3 2.78.99 4.07 1.78 3.27 5.55 4.96 10.12 4.96 3.37 0 7.04-.9 10.61-2.78 6.55-3.47 10.52-9.32 10.52-14.38a8.5 8.5 0 0 0-1-4.07m103.5 24.8c-1.8-3.27-5.56-5.06-10.12-5.06-3.38 0-7.05 1-10.62 2.88-6.54 3.47-10.51 9.32-10.51 14.38 0 1.4.3 2.78.99 4.07 1.78 3.27 5.55 4.96 10.12 4.96 3.37 0 7.04-.9 10.61-2.78 6.55-3.47 10.52-9.32 10.52-14.38a8.5 8.5 0 0 0-1-4.07m168.99 20.44-17.75 24.8h35.31l-17.56-24.8m10.02 18.94H2277l10.12-13.98 9.92 13.98M368.37 1359l-17.76 24.8h35.32l-17.56-24.8m118.45-20.44c-1.78-3.27-5.55-5.06-10.12-5.06-3.37 0-7.04 1-10.61 2.88-6.55 3.47-10.52 9.32-10.52 14.38 0 1.4.3 2.78 1 4.07 1.78 3.27 5.55 4.96 10.11 4.96 3.38 0 7.05-.9 10.62-2.78 6.55-3.47 10.51-9.32 10.51-14.38a8.5 8.5 0 0 0-.99-4.07m88.4-29.16-17.76 24.8h35.31l-17.55-24.8m103.42-37.8-17.76 24.8h35.32l-17.56-24.8m118.46-20.43c-1.8-3.27-5.56-5.06-10.12-5.06-3.38 0-7.05 1-10.62 2.88-6.55 3.47-10.51 9.32-10.51 14.38 0 1.4.3 2.78.99 4.07 1.78 3.27 5.55 4.96 10.12 4.96 3.37 0 7.04-.9 10.61-2.78 6.55-3.47 10.52-9.32 10.52-14.38a8.5 8.5 0 0 0-1-4.07m88.39-29.17-17.75 24.8h35.31l-17.56-24.8m103.43-37.2-17.75 24.8h35.31l-17.56-24.8m118.46-20.43c-1.8-3.27-5.56-5.06-10.12-5.06-3.38 0-7.05 1-10.62 2.88-6.55 3.47-10.51 9.32-10.51 14.38 0 1.4.3 2.78.99 4.07 1.78 3.27 5.55 4.96 10.12 4.96 3.37 0 7.04-.9 10.61-2.78 6.55-3.47 10.52-9.32 10.52-14.38a8.5 8.5 0 0 0-1-4.07m88.4-29.17-17.75 24.8h35.31l-17.56-24.8m103.42-37.2-17.75 24.8h35.31l-17.56-24.8m103.43 37.2-17.75 24.8h35.31l-17.56-24.8m118.46 29.17c-1.8-3.27-5.56-5.06-10.12-5.06-3.38 0-7.05 1-10.62 2.88-6.54 3.47-10.51 9.32-10.51 14.38 0 1.4.3 2.78.99 4.07 1.78 3.27 5.55 4.96 10.12 4.96 3.37 0 7.04-.9 10.61-2.78 6.55-3.47 10.52-9.32 10.52-14.38a8.5 8.5 0 0 0-1-4.07m88.39 20.43-17.75 24.8h35.3l-17.56-24.8m103.44 37.2-17.75 24.8h35.31l-17.56-24.8m118.46 29.17c-1.8-3.27-5.56-5.06-10.12-5.06-3.38 0-7.05 1-10.62 2.88-6.54 3.47-10.51 9.32-10.51 14.38 0 1.4.3 2.78.99 4.07 1.78 3.27 5.55 4.96 10.12 4.96 3.37 0 7.04-.9 10.61-2.78 6.55-3.47 10.52-9.32 10.52-14.38a8.5 8.5 0 0 0-1-4.07m88.4 20.43-17.75 24.8h35.31l-17.56-24.8m103.42 37.8-17.75 24.8h35.31l-17.56-24.8m118.45 29.16c-1.78-3.27-5.55-5.06-10.11-5.06-3.38 0-7.05 1-10.62 2.88-6.54 3.47-10.51 9.32-10.51 14.38 0 1.4.3 2.78.99 4.07 1.78 3.27 5.55 4.96 10.12 4.96 3.37 0 7.04-.9 10.61-2.78 6.55-3.47 10.52-9.32 10.52-14.38a8.5 8.5 0 0 0-1-4.07m168.92 20.44-17.75 24.8h35.31l-17.56-24.8m10.02 18.94h-20.04l10.12-13.98 9.92 13.98m-1927.37 404.7-17.76 24.8h35.32l-17.56-24.8m116.61-20.44c-1.79-3.27-5.56-5.06-10.12-5.06-3.38 0-7.05 1-10.62 2.88-6.54 3.47-10.51 9.32-10.51 14.38 0 1.4.3 2.78.99 4.07 1.79 3.27 5.56 4.96 10.12 4.96 3.37 0 7.04-.9 10.61-2.78 6.55-3.47 10.52-9.32 10.52-14.38a8.5 8.5 0 0 0-1-4.07m86.56-29.16-17.76 24.8h35.31l-17.55-24.8m101.57-37.2-17.75 24.8h35.31l-17.55-24.8m116.6-21.03c-1.78-3.27-5.55-5.06-10.11-5.06-3.38 0-7.05 1-10.62 2.88-6.55 3.47-10.51 9.32-10.51 14.38 0 1.4.3 2.78.99 4.07 1.78 3.27 5.55 4.96 10.12 4.96 3.37 0 7.04-.9 10.61-2.78 6.55-3.47 10.52-9.32 10.52-14.38a8.5 8.5 0 0 0-1-4.07m86.55-29.16-17.75 24.8h35.31l-17.56-24.8m101.58-37.2-17.75 24.8h35.31l-17.56-24.8m116.62-20.44c-1.8-3.27-5.56-5.06-10.12-5.06-3.38 0-7.05 1-10.62 2.88-6.54 3.47-10.51 9.32-10.51 14.38 0 1.4.3 2.78.99 4.07 1.78 3.27 5.55 4.96 10.12 4.96 3.37 0 7.04-.9 10.61-2.78 6.55-3.47 10.52-9.32 10.52-14.38a8.5 8.5 0 0 0-1-4.07m86.55-29.16-17.75 24.8h35.31l-17.56-24.8m101.58-37.2-17.75 24.8h35.31l-17.56-24.8m101.58 37.2-17.75 24.8h35.31l-17.56-24.8m116.61 29.16c-1.8-3.27-5.56-5.06-10.12-5.06-3.38 0-7.05 1-10.62 2.88-6.54 3.47-10.51 9.32-10.51 14.38 0 1.4.3 2.78.99 4.07 1.78 3.27 5.55 4.96 10.12 4.96 3.37 0 7.04-.9 10.61-2.78 6.55-3.47 10.52-9.32 10.52-14.38a8.5 8.5 0 0 0-1-4.07m86.55 20.44-17.75 24.8h35.31l-17.56-24.8m101.59 37.2-17.76 24.8h35.31l-17.56-24.8m116.61 29.16c-1.78-3.27-5.55-5.06-10.11-5.06-3.38 0-7.05 1-10.62 2.88-6.54 3.47-10.51 9.32-10.51 14.38 0 1.4.3 2.78.99 4.07 1.78 3.27 5.55 4.96 10.12 4.96 3.37 0 7.04-.9 10.61-2.78 6.55-3.47 10.52-9.32 10.52-14.38a8.5 8.5 0 0 0-1-4.07m86.55 21.03-17.75 24.8h35.31l-17.56-24.8m101.58 37.2-17.75 24.8h35.31l-17.56-24.8m116.62 29.16c-1.8-3.27-5.56-5.06-10.12-5.06-3.38 0-7.05 1-10.62 2.88-6.54 3.47-10.51 9.32-10.51 14.38 0 1.4.3 2.78.99 4.07 1.78 3.27 5.55 4.96 10.12 4.96 3.37 0 7.04-.9 10.61-2.78 6.55-3.47 10.52-9.32 10.52-14.38a8.5 8.5 0 0 0-1-4.07m167.07 20.44-17.75 24.8h35.31l-17.56-24.8m10.02 18.94h-20.04l10.12-13.98 9.92 13.98" class="Note" style="stroke-width:.992001"/><path d="M81.87 211.98c-7.54 0-13.6 4.36-13.7 4.36-5.75 4.27-8.03 9.33-8.92 12.8-.5 1.78-.7 3.57-.7 5.26 0 2.38.4 4.56 1.3 6.44 1.18 2.68 3.47 4.57 6.44 5.56a12 12 0 0 0 3.77.6c2.18 0 4.47-.6 6.35-1.7 3.08-1.68 4.96-5.25 4.96-9.12 0-3.47-1.79-6.64-4.76-8.53a10.14 10.14 0 0 0-8.93-1.29c-1 .4-2.68 1.39-3.47 2.08.3-1.88 1.49-4.76 2.58-6.34a16.4 16.4 0 0 1 4.96-4.47c2.48-1.39 5.65-1.98 9.12-1.98 10.12 0 15.08 8.13 15.08 24.8 0 9.22-3.47 18.05-6.45 23.9-3.27 6.55-7.63 12.8-11.5 16.27-10.32 9.43-20.04 13.9-20.14 13.9 0 0-1.49.88-1.1 2.37.3 1 1.2 1.2 1.8 1.2.1 0 .4-.1.49-.1.1 0 11.4-4.67 20.44-11.71a93.44 93.44 0 0 0 13.59-11.9 73.73 73.73 0 0 0 9.12-12.2c4.37-7.45 6.85-15.19 6.85-21.83 0-8.24-2.19-15.08-6.25-19.94-4.67-5.56-11.7-8.43-20.93-8.43m31.14 12.6a4.87 4.87 0 0 0 4.77 4.96 4.87 4.87 0 0 0 4.76-4.96c0-2.78-2.18-5.06-4.76-5.06-2.58 0-4.77 2.28-4.77 5.06m0 24.5c0 2.78 2.19 5.06 4.77 5.06 2.58 0 4.76-2.28 4.76-5.06s-2.18-5.06-4.76-5.06c-2.58 0-4.77 2.28-4.77 5.06M81.87 586.02c-7.54 0-13.6 4.36-13.7 4.36-5.75 4.27-8.03 9.33-8.92 12.8-.5 1.78-.7 3.57-.7 5.26 0 2.38.4 4.56 1.3 6.44 1.18 2.68 3.47 4.57 6.44 5.56a12 12 0 0 0 3.77.6c2.18 0 4.47-.6 6.35-1.7 3.08-1.68 4.96-5.25 4.96-9.12 0-3.47-1.79-6.65-4.76-8.53a10.14 10.14 0 0 0-8.93-1.29c-1 .4-2.68 1.39-3.47 2.08.3-1.88 1.49-4.76 2.58-6.35a16.4 16.4 0 0 1 4.96-4.46c2.48-1.39 5.65-1.98 9.12-1.98 10.12 0 15.08 8.13 15.08 24.8 0 9.22-3.47 18.05-6.45 23.9-3.27 6.55-7.63 12.8-11.5 16.27-10.32 9.43-20.04 13.9-20.14 13.9 0 0-1.49.88-1.1 2.37.3 1 1.2 1.2 1.8 1.2.1 0 .4-.1.49-.1.1 0 11.4-4.67 20.44-11.71a93.44 93.44 0 0 0 13.59-11.9 73.73 73.73 0 0 0 9.12-12.2c4.37-7.45 6.85-15.19 6.85-21.83 0-8.24-2.19-15.08-6.25-19.94-4.67-5.56-11.7-8.43-20.93-8.43m31.14 12.6a4.87 4.87 0 0 0 4.77 4.95 4.87 4.87 0 0 0 4.76-4.96c0-2.77-2.18-5.05-4.76-5.05-2.58 0-4.77 2.28-4.77 5.05m0 24.5c0 2.78 2.19 5.07 4.77 5.07 2.58 0 4.76-2.29 4.76-5.06 0-2.78-2.18-5.06-4.76-5.06-2.58 0-4.77 2.28-4.77 5.06M81.87 960.06c-7.54 0-13.6 4.36-13.7 4.36-5.75 4.27-8.03 9.33-8.92 12.8-.5 1.78-.7 3.57-.7 5.26 0 2.38.4 4.56 1.3 6.44 1.18 2.68 3.47 4.57 6.44 5.56a12 12 0 0 0 3.77.6c2.18 0 4.47-.6 6.35-1.7 3.08-1.68 4.96-5.25 4.96-9.12 0-3.47-1.79-6.65-4.76-8.53a10.14 10.14 0 0 0-8.93-1.29c-1 .4-2.68 1.39-3.47 2.08.3-1.88 1.49-4.76 2.58-6.35a16.4 16.4 0 0 1 4.96-4.46c2.48-1.39 5.65-1.98 9.12-1.98 10.12 0 15.08 8.13 15.08 24.8 0 9.22-3.47 18.05-6.45 23.9-3.27 6.55-7.63 12.8-11.5 16.27-10.32 9.43-20.04 13.9-20.14 13.9 0 0-1.49.88-1.1 2.37.3 1 1.2 1.2 1.8 1.2.1 0 .4-.1.49-.1.1 0 11.4-4.67 20.44-11.71a93.44 93.44 0 0 0 13.59-11.9 73.73 73.73 0 0 0 9.12-12.2c4.37-7.45 6.85-15.19 6.85-21.83 0-8.24-2.19-15.08-6.25-19.94-4.67-5.56-11.7-8.43-20.93-8.43m31.14 12.6a4.87 4.87 0 0 0 4.77 4.95 4.87 4.87 0 0 0 4.76-4.96c0-2.77-2.18-5.05-4.76-5.05-2.58 0-4.77 2.28-4.77 5.05m0 24.5c0 2.78 2.19 5.07 4.77 5.07 2.58 0 4.76-2.29 4.76-5.06 0-2.78-2.18-5.06-4.76-5.06-2.58 0-4.77 2.28-4.77 5.06M81.87 1334.1c-7.54 0-13.6 4.36-13.7 4.36-5.75 4.27-8.03 9.33-8.92 12.8-.5 1.78-.7 3.57-.7 5.26 0 2.38.4 4.56 1.3 6.44 1.18 2.68 3.47 4.57 6.44 5.56a12 12 0 0 0 3.77.6c2.18 0 4.47-.6 6.35-1.7 3.08-1.68 4.96-5.25 4.96-9.12 0-3.47-1.79-6.65-4.76-8.53a10.14 10.14 0 0 0-8.93-1.29c-1 .4-2.68 1.39-3.47 2.08.3-1.88 1.49-4.76 2.58-6.35a16.4 16.4 0 0 1 4.96-4.46c2.48-1.39 5.65-1.98 9.12-1.98 10.12 0 15.08 8.13 15.08 24.8 0 9.22-3.47 18.05-6.45 23.9-3.27 6.55-7.63 12.8-11.5 16.27-10.32 9.43-20.04 13.9-20.14 13.9 0 0-1.49.88-1.1 2.37.3 1 1.2 1.2 1.8 1.2.1 0 .4-.1.49-.1.1 0 11.4-4.67 20.44-11.71a93.44 93.44 0 0 0 13.59-11.9 73.73 73.73 0 0 0 9.12-12.2c4.37-7.45 6.85-15.19 6.85-21.83 0-8.24-2.19-15.08-6.25-19.94-4.67-5.56-11.7-8.43-20.93-8.43m31.14 12.6a4.87 4.87 0 0 0 4.77 4.95 4.87 4.87 0 0 0 4.76-4.96c0-2.77-2.18-5.05-4.76-5.05-2.58 0-4.77 2.28-4.77 5.05m0 24.5c0 2.78 2.19 5.07 4.77 5.07 2.58 0 4.76-2.29 4.76-5.06 0-2.78-2.18-5.06-4.76-5.06-2.58 0-4.77 2.28-4.77 5.06m-31.14 336.94c-7.54 0-13.6 4.36-13.7 4.36-5.75 4.27-8.03 9.33-8.92 12.8-.5 1.78-.7 3.57-.7 5.26 0 2.38.4 4.56 1.3 6.44 1.18 2.68 3.47 4.57 6.44 5.56a12 12 0 0 0 3.77.6c2.18 0 4.47-.6 6.35-1.7 3.08-1.68 4.96-5.25 4.96-9.12 0-3.47-1.79-6.65-4.76-8.53a10.14 10.14 0 0 0-8.93-1.29c-1 .4-2.68 1.39-3.47 2.08.3-1.88 1.49-4.76 2.58-6.35a16.4 16.4 0 0 1 4.96-4.46c2.48-1.39 5.65-1.98 9.12-1.98 10.12 0 15.08 8.13 15.08 24.8 0 9.22-3.47 18.05-6.45 23.9-3.27 6.55-7.63 12.8-11.5 16.27-10.32 9.43-20.04 13.9-20.14 13.9 0 0-1.49.88-1.1 2.37.3 1 1.2 1.2 1.8 1.2.1 0 .4-.1.49-.1.1 0 11.4-4.67 20.44-11.71a93.44 93.44 0 0 0 13.59-11.9 73.73 73.73 0 0 0 9.12-12.2c4.37-7.45 6.85-15.19 6.85-21.83 0-8.24-2.19-15.08-6.25-19.94-4.67-5.56-11.7-8.43-20.93-8.43m31.14 12.6a4.87 4.87 0 0 0 4.77 4.95 4.87 4.87 0 0 0 4.76-4.96c0-2.77-2.18-5.05-4.76-5.05-2.58 0-4.77 2.28-4.77 5.05m0 24.5c0 2.78 2.19 5.07 4.77 5.07 2.58 0 4.76-2.29 4.76-5.06 0-2.78-2.18-5.06-4.76-5.06-2.58 0-4.77 2.28-4.77 5.06m6.5-1613.97a28.14 28.14 0 0 0-4.61-10.2c-3.17-4.24-7.14-7.07-11.8-8.4-3.08-.9-6.06-1-8.46-.82-1.03-5.96-2.02-11.8-2.92-17.2 5.4-6.12 9-11.88 11.26-16.14 3.44-6.53 4.58-11.07 4.63-11.27 1.7-5.17 2.06-12.8.97-20.95-1-7.5-3.07-14.15-5.4-17.37-1.03-1.42-2.07-2.15-3.1-2.15-1.21 0-3.7 1.23-6.57 3.98a36.12 36.12 0 0 0-8.06 12c-2.98 7-3.19 16.42-2.84 23.09a102.5 102.5 0 0 0 1.49 12.9l.72 4.13-.71.69c-1.03.99-2.21 2.12-3.58 3.49-.86.85-1.8 1.75-2.8 2.72-8.37 8.07-21.06 20.3-21.06 39.29 0 4.66.9 9.05 2.66 13.02a31.15 31.15 0 0 0 6.76 9.68c7.67 7.49 18.18 10.67 25.18 10.51 2.93-.07 5.54-.3 7.9-.75 1.82 9.52 2.95 16.5 3 21.8.03 6.45-1.6 10.39-5.47 13.14a15.3 15.3 0 0 1-8.28 2.8c-2.57.12-4.8-.34-6.23-.75 0 0-.3-.08-.3-.28-.01-.18.33-.23.34-.23h.02c1.9-.43 5.45-1.65 7.79-4.93 1.79-2.5 2.65-7.08.82-10.99-1.1-2.37-3.59-5.3-9.16-5.74a11.04 11.04 0 0 0-11.03 6.18c-2.44 4.66-1.99 10.34 1.12 14.15 2.93 3.6 7.52 5.89 12.9 6.46a23.62 23.62 0 0 0 14.83-3.25c3.63-2.55 5.74-6.5 6.41-12.08.56-4.6.17-10.47-1.22-18.48l-1.55-8.8c5.7-1.9 9.83-5.45 13.57-11.25a24.33 24.33 0 0 0 2.78-18m-33.93 25.98a30 30 0 0 1-12.73-7.16 20.19 20.19 0 0 1-4.61-6.74 24.37 24.37 0 0 1-1.97-10.1c.07-4.65 1.37-9.43 3.86-14.18 2.9-5.54 7.42-11.02 13.43-16.3a95.65 95.65 0 0 0 4.08-3.82l2.45 13.72a21.2 21.2 0 0 0-11.62 10c-3.5 6.5-3.37 11.98-2.65 15.44.94 4.42 3.45 8.15 6.88 10.22.92.56 5.02 2.67 6.84 2.1.37-.12.64-.34.78-.67.5-1.16-.5-1.8-2.06-2.75-.6-.36-1.26-.78-1.98-1.3-3.3-2.48-4.73-6.89-3.67-11.23a12.4 12.4 0 0 1 3.67-6.21 14.13 14.13 0 0 1 6.04-3.27 2415.65 2415.65 0 0 0 6.1 32.52c-4.35.92-8.67.83-12.84-.27m11.23-32.91c10.26-.47 14.5 6.91 15.38 11.7.47 2.51.46 6.92-1.07 11.1-1.16 3.15-3.6 7.19-8.69 9.23l-.23-1.27-5.4-30.76m-7.26-70.38c1.77-5.69 4.49-8.91 6.46-10.63 1.74-1.5 3.37-2.21 4.29-2.21.14 0 .26.02.35.05.46.14.99.7 1.45 1.57 2.3 4.25 1.56 10.9.23 15.31-1.62 5.36-4.51 10.93-13.24 20.47l-.48-3.12c-1.24-8.22-.92-15.43.94-21.44m29.97 451.34a28.14 28.14 0 0 0-4.61-10.2c-3.17-4.23-7.14-7.06-11.8-8.4-3.08-.88-6.06-1-8.46-.81-1.03-5.97-2.02-11.8-2.92-17.2 5.4-6.13 9-11.88 11.26-16.15 3.44-6.52 4.58-11.07 4.63-11.26 1.7-5.17 2.06-12.81.97-20.96-1-7.48-3.07-14.14-5.4-17.37-1.03-1.41-2.07-2.14-3.1-2.14-1.21 0-3.7 1.23-6.57 3.98a36.12 36.12 0 0 0-8.06 12c-2.98 7-3.19 16.42-2.84 23.09a102.5 102.5 0 0 0 1.49 12.9l.72 4.13-.71.68c-1.03 1-2.21 2.13-3.58 3.5-.86.85-1.8 1.75-2.8 2.71-8.37 8.08-21.06 20.3-21.06 39.3 0 4.66.9 9.04 2.66 13.02a31.15 31.15 0 0 0 6.76 9.67c7.67 7.5 18.18 10.68 25.18 10.52 2.93-.07 5.54-.3 7.9-.75 1.82 9.52 2.95 16.5 3 21.79.03 6.46-1.6 10.4-5.47 13.14a15.3 15.3 0 0 1-8.28 2.81c-2.57.12-4.8-.35-6.23-.75 0 0-.3-.08-.3-.28-.01-.18.33-.23.34-.23h.02c1.9-.44 5.45-1.66 7.79-4.93 1.79-2.5 2.65-7.08.82-10.99-1.1-2.37-3.59-5.3-9.16-5.74a11.04 11.04 0 0 0-11.03 6.18c-2.44 4.66-1.99 10.34 1.12 14.15 2.93 3.6 7.52 5.88 12.9 6.46a23.62 23.62 0 0 0 14.83-3.25c3.63-2.55 5.74-6.5 6.41-12.09.56-4.6.17-10.46-1.22-18.47l-1.55-8.8c5.7-1.91 9.83-5.45 13.57-11.26a24.33 24.33 0 0 0 2.78-18m-33.93 26c-4.6-1.21-9-3.69-12.73-7.16a20.19 20.19 0 0 1-4.61-6.74 24.37 24.37 0 0 1-1.97-10.1c.07-4.65 1.37-9.43 3.86-14.18 2.9-5.54 7.42-11.02 13.43-16.31a95.65 95.65 0 0 0 4.08-3.81l2.45 13.72a21.2 21.2 0 0 0-11.62 9.99c-3.5 6.52-3.37 12-2.65 15.44.94 4.43 3.45 8.16 6.88 10.23.92.56 5.02 2.67 6.84 2.1.37-.12.64-.34.78-.67.5-1.16-.5-1.8-2.06-2.75-.6-.36-1.26-.78-1.98-1.3-3.3-2.48-4.73-6.9-3.67-11.24a12.4 12.4 0 0 1 3.67-6.2 14.13 14.13 0 0 1 6.04-3.27c2.03 11.15 4.07 22.21 5.7 30.5.12.69.26 1.35.4 2.02-4.35.92-8.67.83-12.84-.27m11.23-32.91c10.26-.47 14.5 6.91 15.38 11.7.47 2.51.46 6.92-1.07 11.1-1.16 3.15-3.6 7.18-8.69 9.23l-.23-1.27-5.4-30.76M89.55 428c1.77-5.7 4.49-8.92 6.46-10.63 1.74-1.5 3.37-2.21 4.29-2.21.14 0 .26.02.35.05.46.13.99.7 1.45 1.56 2.3 4.26 1.56 10.92.23 15.32-1.62 5.36-4.51 10.93-13.24 20.46l-.48-3.11c-1.24-8.22-.92-15.44.94-21.44m29.96 451.35a28.14 28.14 0 0 0-4.61-10.2c-3.17-4.24-7.14-7.07-11.8-8.4-3.08-.89-6.06-1-8.46-.82-1.03-5.96-2.02-11.8-2.92-17.2 5.4-6.12 9-11.88 11.26-16.14 3.44-6.53 4.58-11.07 4.63-11.27 1.7-5.17 2.06-12.8.97-20.95-1-7.5-3.07-14.15-5.4-17.37-1.03-1.42-2.07-2.14-3.1-2.14-1.21 0-3.7 1.23-6.57 3.97a36.12 36.12 0 0 0-8.06 12c-2.98 7.01-3.19 16.42-2.84 23.09a102.5 102.5 0 0 0 1.49 12.9l.72 4.13-.71.69c-1.03.99-2.21 2.12-3.58 3.49-.86.85-1.8 1.75-2.8 2.72-8.37 8.07-21.06 20.3-21.06 39.29 0 4.66.9 9.05 2.66 13.03a31.15 31.15 0 0 0 6.76 9.67c7.67 7.49 18.18 10.67 25.18 10.51 2.93-.07 5.54-.3 7.9-.75 1.82 9.52 2.95 16.5 3 21.8.03 6.45-1.6 10.39-5.47 13.14a15.3 15.3 0 0 1-8.28 2.8c-2.57.12-4.8-.34-6.23-.75 0 0-.3-.08-.3-.28-.01-.18.33-.23.34-.23h.02c1.9-.43 5.45-1.65 7.79-4.93 1.79-2.5 2.65-7.08.82-10.99-1.1-2.37-3.59-5.3-9.16-5.74a11.04 11.04 0 0 0-11.03 6.18c-2.44 4.66-1.99 10.35 1.12 14.16 2.93 3.59 7.52 5.88 12.9 6.45a23.62 23.62 0 0 0 14.83-3.25c3.63-2.55 5.74-6.5 6.41-12.08.56-4.6.17-10.47-1.22-18.47l-1.55-8.81c5.7-1.9 9.83-5.45 13.57-11.25a24.33 24.33 0 0 0 2.78-18m-33.93 25.98a30 30 0 0 1-12.73-7.16 20.19 20.19 0 0 1-4.61-6.73 24.37 24.37 0 0 1-1.97-10.1c.07-4.66 1.37-9.44 3.86-14.19 2.9-5.53 7.42-11.02 13.43-16.3a95.64 95.64 0 0 0 4.08-3.82l2.45 13.72a21.2 21.2 0 0 0-11.62 10c-3.5 6.5-3.37 11.99-2.65 15.44.94 4.42 3.45 8.15 6.88 10.22.92.56 5.02 2.67 6.84 2.1.37-.12.64-.34.78-.67.5-1.16-.5-1.8-2.06-2.74-.6-.37-1.26-.79-1.98-1.31-3.3-2.47-4.73-6.89-3.67-11.23a12.4 12.4 0 0 1 3.67-6.21 14.13 14.13 0 0 1 6.04-3.27 2415.65 2415.65 0 0 0 6.1 32.52c-4.35.92-8.67.83-12.84-.27m11.23-32.91c10.26-.47 14.5 6.91 15.38 11.7.47 2.51.46 6.92-1.07 11.1-1.16 3.15-3.6 7.19-8.69 9.23l-.23-1.27-5.4-30.76m-7.26-70.37c1.77-5.7 4.49-8.92 6.46-10.64 1.74-1.5 3.37-2.21 4.29-2.21.14 0 .26.02.35.05.46.14.99.7 1.45 1.57 2.3 4.25 1.56 10.9.23 15.31-1.62 5.36-4.51 10.94-13.24 20.47l-.48-3.12c-1.24-8.22-.92-15.43.94-21.43m29.97 451.33a28.14 28.14 0 0 0-4.61-10.2c-3.17-4.24-7.14-7.07-11.8-8.4-3.08-.89-6.06-1-8.46-.82-1.03-5.96-2.02-11.8-2.92-17.2 5.4-6.12 9-11.88 11.26-16.14 3.44-6.53 4.58-11.07 4.63-11.27 1.7-5.17 2.06-12.8.97-20.95-1-7.5-3.07-14.15-5.4-17.37-1.03-1.42-2.07-2.14-3.1-2.14-1.21 0-3.7 1.23-6.57 3.97a36.12 36.12 0 0 0-8.06 12c-2.98 7.01-3.19 16.42-2.84 23.09a102.5 102.5 0 0 0 1.49 12.9l.72 4.13-.71.69c-1.03.99-2.21 2.12-3.58 3.49-.86.85-1.8 1.75-2.8 2.72-8.37 8.07-21.06 20.3-21.06 39.29 0 4.66.9 9.05 2.66 13.03a31.15 31.15 0 0 0 6.76 9.67c7.67 7.49 18.18 10.67 25.18 10.51 2.93-.07 5.54-.3 7.9-.75 1.82 9.52 2.95 16.5 3 21.8.03 6.45-1.6 10.39-5.47 13.14a15.3 15.3 0 0 1-8.28 2.8c-2.57.12-4.8-.34-6.23-.75 0 0-.3-.08-.3-.28-.01-.18.33-.23.34-.23h.02c1.9-.43 5.45-1.65 7.79-4.93 1.79-2.5 2.65-7.08.82-10.99-1.1-2.37-3.59-5.3-9.16-5.74a11.04 11.04 0 0 0-11.03 6.18c-2.44 4.66-1.99 10.35 1.12 14.16 2.93 3.59 7.52 5.88 12.9 6.45a23.62 23.62 0 0 0 14.83-3.25c3.63-2.55 5.74-6.5 6.41-12.08.56-4.6.17-10.47-1.22-18.47l-1.55-8.81c5.7-1.9 9.83-5.45 13.57-11.25a24.33 24.33 0 0 0 2.78-18m-33.93 25.98a30 30 0 0 1-12.73-7.16 20.19 20.19 0 0 1-4.61-6.73 24.37 24.37 0 0 1-1.97-10.1c.07-4.66 1.37-9.44 3.86-14.19 2.9-5.53 7.42-11.02 13.43-16.3a95.64 95.64 0 0 0 4.08-3.82l2.45 13.72a21.2 21.2 0 0 0-11.62 10c-3.5 6.5-3.37 11.99-2.65 15.44.94 4.42 3.45 8.15 6.88 10.22.92.56 5.02 2.67 6.84 2.1.37-.12.64-.34.78-.67.5-1.16-.5-1.8-2.06-2.74-.6-.37-1.26-.79-1.98-1.31-3.3-2.47-4.73-6.89-3.67-11.23a12.4 12.4 0 0 1 3.67-6.21 14.13 14.13 0 0 1 6.04-3.27 2415.65 2415.65 0 0 0 6.1 32.52c-4.35.92-8.67.83-12.84-.27m11.23-32.91c10.26-.47 14.5 6.91 15.38 11.7.47 2.51.46 6.92-1.07 11.1-1.16 3.15-3.6 7.19-8.69 9.23l-.23-1.27-5.4-30.76m-7.26-70.37c1.77-5.7 4.49-8.92 6.46-10.64 1.74-1.5 3.37-2.21 4.29-2.21.14 0 .26.02.35.05.46.14.99.7 1.45 1.57 2.3 4.25 1.56 10.9.23 15.31-1.62 5.36-4.51 10.93-13.24 20.47l-.48-3.12c-1.24-8.22-.92-15.43.94-21.43m29.97 451.34a28.14 28.14 0 0 0-4.61-10.2c-3.17-4.24-7.14-7.07-11.8-8.4-3.08-.89-6.06-1-8.46-.82-1.03-5.96-2.02-11.8-2.92-17.2 5.4-6.12 9-11.88 11.26-16.14 3.44-6.53 4.58-11.07 4.63-11.27 1.7-5.17 2.06-12.8.97-20.95-1-7.5-3.07-14.15-5.4-17.37-1.03-1.42-2.07-2.14-3.1-2.14-1.21 0-3.7 1.23-6.57 3.97a36.12 36.12 0 0 0-8.06 12c-2.98 7.01-3.19 16.42-2.84 23.09a102.5 102.5 0 0 0 1.49 12.9l.72 4.13-.71.69c-1.03.99-2.21 2.12-3.58 3.49-.86.85-1.8 1.75-2.8 2.72-8.37 8.07-21.06 20.3-21.06 39.29 0 4.66.9 9.05 2.66 13.03a31.15 31.15 0 0 0 6.76 9.67c7.67 7.49 18.18 10.67 25.18 10.51 2.93-.07 5.54-.3 7.9-.75 1.82 9.52 2.95 16.5 3 21.8.03 6.45-1.6 10.39-5.47 13.14a15.3 15.3 0 0 1-8.28 2.8c-2.57.12-4.8-.34-6.23-.75 0 0-.3-.08-.3-.28-.01-.18.33-.23.34-.23h.02c1.9-.43 5.45-1.65 7.79-4.93 1.79-2.5 2.65-7.08.82-10.99-1.1-2.37-3.59-5.3-9.16-5.74a11.04 11.04 0 0 0-11.03 6.18c-2.44 4.66-1.99 10.35 1.12 14.16 2.93 3.59 7.52 5.88 12.9 6.45a23.62 23.62 0 0 0 14.83-3.25c3.63-2.55 5.74-6.5 6.41-12.08.56-4.6.17-10.47-1.22-18.47l-1.55-8.81c5.7-1.9 9.83-5.45 13.57-11.25a24.33 24.33 0 0 0 2.78-18m-33.93 25.98a30 30 0 0 1-12.73-7.16 20.19 20.19 0 0 1-4.61-6.73 24.37 24.37 0 0 1-1.97-10.1c.07-4.66 1.37-9.44 3.86-14.19 2.9-5.53 7.42-11.02 13.43-16.3a95.64 95.64 0 0 0 4.08-3.82l2.45 13.72a21.2 21.2 0 0 0-11.62 10c-3.5 6.5-3.37 11.99-2.65 15.44.94 4.42 3.45 8.15 6.88 10.22.92.56 5.02 2.67 6.84 2.1.37-.12.64-.34.78-.67.5-1.16-.5-1.8-2.06-2.74-.6-.37-1.26-.79-1.98-1.31-3.3-2.47-4.73-6.89-3.67-11.23a12.4 12.4 0 0 1 3.67-6.21 14.13 14.13 0 0 1 6.04-3.27 2415.65 2415.65 0 0 0 6.1 32.52c-4.35.92-8.67.83-12.84-.27m11.23-32.91c10.26-.47 14.5 6.91 15.38 11.7.47 2.51.46 6.92-1.07 11.1-1.16 3.15-3.6 7.19-8.69 9.23l-.23-1.27-5.4-30.76m-7.26-70.37c1.77-5.7 4.49-8.92 6.46-10.64 1.74-1.5 3.37-2.21 4.29-2.21.14 0 .26.02.35.05.46.14.99.7 1.45 1.57 2.3 4.25 1.56 10.9.23 15.31-1.62 5.36-4.51 10.93-13.24 20.47l-.48-3.12c-1.24-8.22-.92-15.43.94-21.43" class="Clef" style="stroke-width:.992001"/><path d="M167.28 652.68c-.6-3.87-2.98-7.54-8.04-7.54a11.1 11.1 0 0 0-8.33 3.67l.4-31.84c0-.8-.6-1.4-1.4-1.4h-1.18c-.8 0-1.4.6-1.4 1.4l.5 59.62c0 .79.6 1.38 1.4 1.38.19 0 .59-.1.79-.2.4-.2 6.84-3.37 12.2-9.42a20.13 20.13 0 0 0 5.25-13.2c0-.88-.1-1.68-.2-2.47m-6.84 3.87c0 1.49-.4 6.05-2.88 9.82-1.68 2.58-5.05 5.26-6.94 6.74l.3-19.34c.2-.9 1.68-3.77 5.65-3.77 3.57 0 3.87 3.37 3.87 5.46v1.09m31.65 332.97c-.6-3.87-2.98-7.54-8.04-7.54a11.1 11.1 0 0 0-8.33 3.67l.4-31.84c0-.8-.6-1.4-1.4-1.4h-1.18c-.8 0-1.4.6-1.4 1.4l.5 59.62c0 .79.6 1.38 1.4 1.38.19 0 .59-.1.79-.2.4-.2 6.84-3.37 12.2-9.42a20.13 20.13 0 0 0 5.25-13.2c0-.88-.1-1.68-.2-2.47m-6.84 3.87c0 1.49-.4 6.05-2.88 9.82-1.68 2.58-5.05 5.26-6.94 6.74l.3-19.34c.2-.9 1.68-3.77 5.65-3.77 3.57 0 3.87 3.37 3.87 5.46v1.09m-17.95 33.33c-.6-3.87-2.98-7.54-8.04-7.54a11.1 11.1 0 0 0-8.33 3.67l.4-31.84c0-.8-.6-1.4-1.4-1.4h-1.18c-.8 0-1.4.6-1.4 1.4l.5 59.62c0 .79.6 1.38 1.4 1.38.19 0 .59-.1.79-.2.4-.2 6.84-3.37 12.2-9.42a20.13 20.13 0 0 0 5.25-13.2c0-.88-.1-1.68-.2-2.47m-6.84 3.87c0 1.49-.4 6.05-2.88 9.82-1.68 2.58-5.05 5.26-6.94 6.74l.3-19.34c.2-.9 1.68-3.77 5.65-3.77 3.57 0 3.87 3.37 3.87 5.46v1.09m56.45 382.57c-.6-3.87-2.98-7.54-8.04-7.54a11.1 11.1 0 0 0-8.33 3.67l.4-31.84c0-.8-.6-1.4-1.4-1.4h-1.18c-.8 0-1.4.6-1.4 1.4l.5 59.62c0 .79.6 1.38 1.4 1.38.19 0 .59-.1.79-.2.4-.2 6.84-3.37 12.2-9.42a20.13 20.13 0 0 0 5.25-13.2c0-.88-.1-1.68-.2-2.47m-6.84 3.87c0 1.49-.4 6.05-2.88 9.82-1.68 2.58-5.05 5.26-6.94 6.74l.3-19.34c.2-.9 1.68-3.77 5.65-3.77 3.57 0 3.87 3.37 3.87 5.46v1.09m-17.95-53.47c-.6-3.87-2.98-7.54-8.04-7.54a11.1 11.1 0 0 0-8.33 3.67l.4-31.84c0-.8-.6-1.4-1.4-1.4h-1.18c-.8 0-1.4.6-1.4 1.4l.5 59.62c0 .79.6 1.38 1.4 1.38.19 0 .59-.1.79-.2.4-.2 6.84-3.37 12.2-9.42a20.13 20.13 0 0 0 5.25-13.2c0-.88-.1-1.68-.2-2.47m-6.84 3.87c0 1.49-.4 6.05-2.88 9.82-1.68 2.58-5.05 5.26-6.94 6.74l.3-19.34c.2-.9 1.68-3.77 5.65-3.77 3.57 0 3.87 3.37 3.87 5.46v1.09m-17.95 33.33c-.6-3.87-2.98-7.54-8.04-7.54a11.1 11.1 0 0 0-8.33 3.67l.4-31.84c0-.8-.6-1.4-1.4-1.4h-1.18c-.8 0-1.4.6-1.4 1.4l.5 59.62c0 .79.6 1.38 1.4 1.38.19 0 .59-.1.79-.2.4-.2 6.84-3.37 12.2-9.42a20.13 20.13 0 0 0 5.25-13.2c0-.88-.1-1.68-.2-2.47m-6.84 3.87c0 1.49-.4 6.05-2.88 9.82-1.68 2.58-5.05 5.26-6.94 6.74l.3-19.34c.2-.9 1.68-3.77 5.65-3.77 3.57 0 3.87 3.37 3.87 5.46v1.09M241.68 1750c-.6-3.87-2.98-7.54-8.04-7.54a11.1 11.1 0 0 0-8.33 3.67l.4-31.84c0-.8-.6-1.4-1.4-1.4h-1.18c-.8 0-1.4.6-1.4 1.4l.5 59.62c0 .79.6 1.38 1.4 1.38.19 0 .59-.1.79-.2.4-.2 6.84-3.37 12.2-9.42a20.13 20.13 0 0 0 5.25-13.2c0-.88-.1-1.68-.2-2.47m-6.84 3.87c0 1.49-.4 6.05-2.88 9.82-1.68 2.58-5.05 5.26-6.94 6.74l.3-19.34c.2-.9 1.68-3.77 5.65-3.77 3.57 0 3.87 3.37 3.87 5.46v1.09m-17.95 33.33c-.6-3.87-2.98-7.54-8.04-7.54a11.1 11.1 0 0 0-8.33 3.67l.4-31.84c0-.8-.6-1.4-1.4-1.4h-1.18c-.8 0-1.4.6-1.4 1.4l.5 59.62c0 .79.6 1.38 1.4 1.38.19 0 .59-.1.79-.2.4-.2 6.84-3.37 12.2-9.42a20.13 20.13 0 0 0 5.25-13.2c0-.88-.1-1.68-.2-2.47m-6.84 3.87c0 1.49-.4 6.05-2.88 9.82-1.68 2.58-5.05 5.26-6.94 6.74l.3-19.34c.2-.9 1.68-3.77 5.65-3.77 3.57 0 3.87 3.37 3.87 5.46v1.09m-17.95-53.47c-.6-3.87-2.98-7.54-8.04-7.54a11.1 11.1 0 0 0-8.33 3.67l.4-31.84c0-.8-.6-1.4-1.4-1.4h-1.18c-.8 0-1.4.6-1.4 1.4l.5 59.62c0 .79.6 1.38 1.4 1.38.19 0 .59-.1.79-.2.4-.2 6.84-3.37 12.2-9.42a20.13 20.13 0 0 0 5.25-13.2c0-.88-.1-1.68-.2-2.47m-6.84 3.87c0 1.49-.4 6.05-2.88 9.82-1.68 2.58-5.05 5.26-6.94 6.74l.3-19.34c.2-.9 1.68-3.77 5.65-3.77 3.57 0 3.87 3.37 3.87 5.46v1.09m-17.95 33.33c-.6-3.87-2.98-7.54-8.04-7.54a11.1 11.1 0 0 0-8.33 3.67l.4-31.84c0-.8-.6-1.4-1.4-1.4h-1.18c-.8 0-1.4.6-1.4 1.4l.5 59.62c0 .79.6 1.38 1.4 1.38.19 0 .59-.1.79-.2.4-.2 6.84-3.37 12.2-9.42a20.13 20.13 0 0 0 5.25-13.2c0-.88-.1-1.68-.2-2.47m-6.84 3.87c0 1.49-.4 6.05-2.88 9.82-1.68 2.58-5.05 5.26-6.94 6.74l.3-19.34c.2-.9 1.68-3.77 5.65-3.77 3.57 0 3.87 3.37 3.87 5.46v1.09m6.85-1300.17c-.6-3.87-2.98-7.54-8.04-7.54a11.1 11.1 0 0 0-8.33 3.67l.4-31.85c0-.79-.6-1.39-1.4-1.39h-1.18c-.8 0-1.4.6-1.4 1.4l.5 59.61c0 .8.6 1.4 1.4 1.4.19 0 .59-.1.79-.2.4-.2 6.84-3.38 12.2-9.43a20.13 20.13 0 0 0 5.25-13.2c0-.89-.1-1.68-.2-2.47m-6.84 3.86c0 1.5-.4 6.06-2.88 9.83-1.68 2.57-5.05 5.25-6.94 6.74l.3-19.34c.2-.9 1.68-3.77 5.65-3.77 3.57 0 3.87 3.37 3.87 5.45v1.1m31.65 332.97c-.6-3.87-2.98-7.54-8.04-7.54a11.1 11.1 0 0 0-8.33 3.67l.4-31.84c0-.8-.6-1.4-1.4-1.4h-1.18c-.8 0-1.4.6-1.4 1.4l.5 59.62c0 .79.6 1.38 1.4 1.38.19 0 .59-.1.79-.2.4-.2 6.84-3.37 12.2-9.42a20.13 20.13 0 0 0 5.25-13.2c0-.88-.1-1.68-.2-2.47m-6.84 3.87c0 1.49-.4 6.05-2.88 9.82-1.68 2.58-5.05 5.26-6.94 6.74l.3-19.34c.2-.9 1.68-3.77 5.65-3.77 3.57 0 3.87 3.37 3.87 5.46v1.09m-17.95 33.33c-.6-3.87-2.98-7.54-8.04-7.54a11.1 11.1 0 0 0-8.33 3.67l.4-31.84c0-.8-.6-1.4-1.4-1.4h-1.18c-.8 0-1.4.6-1.4 1.4l.5 59.62c0 .79.6 1.38 1.4 1.38.19 0 .59-.1.79-.2.4-.2 6.84-3.37 12.2-9.42a20.13 20.13 0 0 0 5.25-13.2c0-.88-.1-1.68-.2-2.47m-6.84 3.87c0 1.49-.4 6.05-2.88 9.82-1.68 2.58-5.05 5.26-6.94 6.74l.3-19.34c.2-.9 1.68-3.77 5.65-3.77 3.57 0 3.87 3.37 3.87 5.46v1.09m56.45 382.56c-.6-3.87-2.98-7.54-8.04-7.54a11.1 11.1 0 0 0-8.33 3.67l.4-31.84c0-.8-.6-1.4-1.4-1.4h-1.18c-.8 0-1.4.6-1.4 1.4l.5 59.62c0 .79.6 1.38 1.4 1.38.19 0 .59-.1.79-.2.4-.2 6.84-3.37 12.2-9.42a20.13 20.13 0 0 0 5.25-13.2c0-.88-.1-1.68-.2-2.47m-6.84 3.87c0 1.49-.4 6.05-2.88 9.82-1.68 2.58-5.05 5.26-6.94 6.74l.3-19.34c.2-.9 1.68-3.77 5.65-3.77 3.57 0 3.87 3.37 3.87 5.46v1.09m-17.95-53.47c-.6-3.87-2.98-7.54-8.04-7.54a11.1 11.1 0 0 0-8.33 3.67l.4-31.84c0-.8-.6-1.4-1.4-1.4h-1.18c-.8 0-1.4.6-1.4 1.4l.5 59.62c0 .79.6 1.38 1.4 1.38.19 0 .59-.1.79-.2.4-.2 6.84-3.37 12.2-9.42a20.13 20.13 0 0 0 5.25-13.2c0-.88-.1-1.68-.2-2.47m-6.84 3.87c0 1.49-.4 6.05-2.88 9.82-1.68 2.58-5.05 5.26-6.94 6.74l.3-19.34c.2-.9 1.68-3.77 5.65-3.77 3.57 0 3.87 3.37 3.87 5.46v1.09m-17.95 33.33c-.6-3.87-2.98-7.54-8.04-7.54a11.1 11.1 0 0 0-8.33 3.67l.4-31.84c0-.8-.6-1.4-1.4-1.4h-1.18c-.8 0-1.4.6-1.4 1.4l.5 59.62c0 .79.6 1.38 1.4 1.38.19 0 .59-.1.79-.2.4-.2 6.84-3.37 12.2-9.42a20.13 20.13 0 0 0 5.25-13.2c0-.88-.1-1.68-.2-2.47m-6.84 3.87c0 1.49-.4 6.05-2.88 9.82-1.68 2.58-5.05 5.26-6.94 6.74l.3-19.34c.2-.9 1.68-3.77 5.65-3.77 3.57 0 3.87 3.37 3.87 5.46v1.09m81.25 345.36c-.6-3.86-2.98-7.53-8.04-7.53a11.1 11.1 0 0 0-8.33 3.67l.4-31.84c0-.8-.6-1.4-1.4-1.4h-1.18c-.8 0-1.4.6-1.4 1.4l.5 59.62c0 .79.6 1.38 1.4 1.38.19 0 .59-.1.79-.2.4-.2 6.84-3.37 12.2-9.42a20.13 20.13 0 0 0 5.25-13.2c0-.88-.1-1.68-.2-2.47m-6.84 3.87c0 1.49-.4 6.05-2.88 9.82-1.68 2.58-5.05 5.26-6.94 6.74l.3-19.34c.2-.9 1.68-3.77 5.65-3.77 3.57 0 3.87 3.37 3.87 5.46v1.09M216.88 1613c-.6-3.86-2.98-7.53-8.04-7.53a11.1 11.1 0 0 0-8.33 3.67l.4-31.84c0-.8-.6-1.4-1.4-1.4h-1.18c-.8 0-1.4.6-1.4 1.4l.5 59.62c0 .79.6 1.38 1.4 1.38.19 0 .59-.1.79-.2.4-.2 6.84-3.37 12.2-9.42a20.13 20.13 0 0 0 5.25-13.2c0-.88-.1-1.68-.2-2.47m-6.84 3.87c0 1.49-.4 6.05-2.88 9.82-1.68 2.58-5.05 5.26-6.94 6.74l.3-19.34c.2-.9 1.68-3.77 5.65-3.77 3.57 0 3.87 3.37 3.87 5.46v1.09m-17.95-53.48c-.6-3.86-2.98-7.53-8.04-7.53a11.1 11.1 0 0 0-8.33 3.67l.4-31.84c0-.8-.6-1.4-1.4-1.4h-1.18c-.8 0-1.4.6-1.4 1.4l.5 59.62c0 .79.6 1.38 1.4 1.38.19 0 .59-.1.79-.2.4-.2 6.84-3.37 12.2-9.42a20.13 20.13 0 0 0 5.25-13.2c0-.88-.1-1.68-.2-2.47m-6.84 3.87c0 1.49-.4 6.05-2.88 9.82-1.68 2.58-5.05 5.26-6.94 6.74l.3-19.34c.2-.9 1.68-3.77 5.65-3.77 3.57 0 3.87 3.37 3.87 5.46v1.09m-17.95 33.32c-.6-3.86-2.98-7.53-8.04-7.53a11.1 11.1 0 0 0-8.33 3.67l.4-31.84c0-.8-.6-1.4-1.4-1.4h-1.18c-.8 0-1.4.6-1.4 1.4l.5 59.62c0 .79.6 1.38 1.4 1.38.19 0 .59-.1.79-.2.4-.2 6.84-3.37 12.2-9.42a20.13 20.13 0 0 0 5.25-13.2c0-.88-.1-1.68-.2-2.47m-6.84 3.87c0 1.49-.4 6.05-2.88 9.82-1.68 2.58-5.05 5.26-6.94 6.74l.3-19.34c.2-.9 1.68-3.77 5.65-3.77 3.57 0 3.87 3.37 3.87 5.46v1.09" class="KeySig" style="stroke-width:.992001"/><path fill-rule="evenodd" d="m273.18 162.75 217.36-25.11v12.48l-217.36 25.11v-12.48m1609.72-56.53 217.36 31.4v12.52l-217.35-31.4v-12.52M330.52 605.05l211.63-31.4v12.53l-211.63 31.4v-12.53m1566.81-75.21 211.64 31.4v12.54l-211.64-31.4v-12.54M358.4 935.7l208.17-31.41v12.54l-208.18 31.4V935.7m1552.44-62.82 208.18 31.4v12.55l-208.18-31.41v-12.54M383.2 1284.94l209.57-31.41v12.54l-209.58 31.4v-12.53M408 1702.38l205.88-31.42v12.55l-205.89 31.4v-12.53m1523.69-81.55 204.35 37.7v12.6l-204.35-37.7v-12.6M595.13 87.82l217.36-31.4v12.54l-217.36 31.4V87.81m292.44 74.02 217.36-31.4v12.53l-217.36 31.4v-12.53m321.93-43.4 217.37 31.4v12.52l-217.36-31.4v-12.52m351.45-93.39 217.36 31.39v12.53l-217.36-31.4V25.04M643.88 501.37l211.64-25.12v12.48l-211.64 25.13v-12.5m313.36-70.49 211.64-31.4V412l-211.64 31.4v-12.53m283.86 111.2 211.64 31.4V586l-211.64-31.4v-12.53m313.37 130.81 211.63 25.13v12.49l-211.63-25.13v-12.49M636.3 1046.2l211.26-25.5v12.5l-211.26 25.5v-12.5m310.49-117.7 211.26-31.4v12.54l-211.26 31.4V928.5m310.49-49.57 211.25 25.13v12.48l-211.25-25.12v-12.5m343.06-105.94 208.19 37.7v12.6l-208.2-37.7v-12.6m-906.86 412.17 209.57-31.4v12.53l-209.57 31.4v-12.53m277.69 74 209.58-31.41v12.54l-209.58 31.4v-12.53m310.27-49.58 211.12 25.13v12.48l-211.12-25.12v-12.5m310.27 86.79 211.12 31.4v12.54l-211.12-31.41v-12.53m310.28 105.62 211.1 25.5v12.49l-211.1-25.5v-12.5M680.15 1776.23l205.89-25.13v12.49l-205.9 25.14v-12.5m304.75-93.45 205.89-31.41v12.54l-205.9 31.42v-12.55m304.75-43.4 207.42 31.42v12.54l-207.42-31.42v-12.54m337.32-93.42 204.34 31.42v12.55l-204.34-31.42v-12.55" class="Beam"/><path d="M276.58 1.24h-2.15l-2.7 2.45c-3.3-2-5.55-2.65-9.15-2.65-5.6 0-10.25 1.9-13.85 5.75-3.4 3.6-5.05 8.05-5.05 13.5 0 5.2 1.5 9.3 4.75 12.85 3.45 3.8 7.65 5.5 13.55 5.5 8.85 0 13.9-4.25 15.85-13.25l-3.1-.75c-1.35 6.95-5.35 10.9-11.1 10.9-6.8 0-10-5.15-10-16.15 0-10.4 3.2-15.75 9.35-15.75 5.55 0 9.2 3.85 11.45 12.2l2.65-.3-.5-14.3m-1.98 374.59h-33.1v2.7h.75c2.65 0 3.65.2 4.1.75.35.5.35.65.35 3.75v21.7c0 3.1 0 3.25-.35 3.75-.45.55-1.45.75-4.1.75h-.75v2.7h20v-2.7h-1.3c-2.7 0-3.7-.2-4.15-.75-.35-.5-.35-.65-.35-3.75v-10.1h.85c3.95.05 6.35 2.5 6.9 7.1h2.7v-16.95h-2.7c-.55 4.65-2.95 7.1-6.9 7.1h-.85v-9.05c-.1-3.5.6-4.25 4.3-4.3h.95c6.25.1 9.25 2.85 11.35 10.3h2.6l-.3-13m-34.04 374.05v2.7h.75c2.7 0 3.65.2 4.1.7.35.55.35.7.35 3.8v21.7c0 3.1 0 3.25-.35 3.75-.45.55-1.45.75-4.1.75h-.75v2.7h20.25c5.2 0 7.85-.4 10.45-1.55a8.8 8.8 0 0 0 5.25-7.95c0-3.5-2-6.25-5.7-7.95-1.7-.8-3.15-1.2-5.8-1.55 2.45-.4 3.85-.75 5.25-1.4 3-1.45 4.6-3.85 4.6-6.85a7.8 7.8 0 0 0-3.95-6.85c-2.75-1.55-5.15-2-11.05-2h-19.3m14.2 16.2v-10.6c-.1-2.1.6-2.8 2.8-2.9h1.5c4.4 0 6.75 2.2 6.75 6.35 0 2.45-.85 4.4-2.45 5.65-1.35 1.1-3.05 1.5-6.15 1.5h-2.45m0 2.75h3.45c3.15 0 4.6.3 6 1.2 1.75 1.15 2.75 3.35 2.75 5.95 0 2.4-.9 4.6-2.35 5.8-1.25 1-2.9 1.5-5.3 1.5h-1.5c-2.85-.1-3.15-.4-3.05-3.2v-11.25m40.44 2.4c-.4-2.6-1.94-5-5.34-5s-5.2 2.03-5.53 2.43l.23-21.16v-.01c0-.5-.41-.91-.92-.91h-.78c-.2 0-.5.12-.65.27-.14.14-.26.43-.26.63v.02l.35 39.67c0 .5.42.9.92.9.16 0 .4-.07.53-.16.26-.13 4.49-2.21 8.08-6.25 3.06-3.44 3.87-7.48 3.37-10.43m-4.53 2.62c0 .96-.24 4.03-1.91 6.53-1.15 1.72-3.34 3.53-4.6 4.49l.14-12.87c.15-.62 1.14-2.52 3.8-2.51 2.89 0 2.57 3.39 2.57 4.36M274.1 1123.9h-33.55v2.7h.75c2.65 0 3.65.2 4.1.76.35.5.35.65.35 3.75v21.7c0 3.1 0 3.25-.35 3.75-.45.55-1.45.75-4.1.75h-.75v2.7h33.95l.6-13.45h-2.65c-1.9 7.25-5.65 10.7-11.7 10.75h-1.5c-3.65.1-4.55-.6-4.5-3.55v-11.05h.85c3.95 0 6.35 2.5 6.9 7.1h2.7v-16.95h-2.7c-.55 4.6-2.95 7.1-6.9 7.1h-.85v-9.05c-.1-3.5.6-4.25 4.3-4.3h1.4c6.25.15 9.25 2.85 11.35 10.3h2.6l-.3-13m20.19 21.35c-.4-2.6-1.94-5-5.34-5s-5.2 2.04-5.52 2.43l.22-21.15v-.01a.92.92 0 0 0-.91-.92h-.78c-.21 0-.5.13-.65.27-.15.15-.27.44-.27.64v.02l.36 39.67a.9.9 0 0 0 1.44.73c.26-.12 4.49-2.2 8.08-6.24 3.07-3.45 3.87-7.5 3.37-10.44m-4.52 2.62c-.01.97-.25 4.04-1.92 6.54-1.14 1.7-3.34 3.52-4.6 4.49l.14-12.88c.15-.62 1.15-2.51 3.8-2.5 2.89 0 2.58 3.39 2.58 4.35m-30.78 346.32-11.35 26.5c-2.3 5.4-4.15 7.35-7.1 7.65v2.7h14.45v-2.7c-3.55-.2-4.95-1.15-4.95-3.45 0-.85.2-1.65.75-2.85l.8-1.9h12.45l1.9 4.9c.55 1.4.6 1.65.6 2.05 0 .9-.7 1.2-2.9 1.2l-.85.05v2.7h17.55v-2.7c-2.85-.1-3.65-.6-4.7-3.15l-12.85-31h-3.8m-1.05 10.65 4.85 11.95h-9.9l5.05-11.95m38.04 11.45c-.4-2.6-1.94-5-5.34-5s-5.2 2.03-5.53 2.43l.23-21.16v-.01c0-.5-.41-.91-.92-.91h-.78c-.2 0-.5.12-.65.27-.14.14-.26.43-.26.63v.02l.35 39.67c0 .5.42.9.92.9.16 0 .4-.07.53-.16.26-.13 4.49-2.21 8.08-6.25 3.06-3.44 3.87-7.48 3.37-10.43m-4.53 2.62c0 .96-.24 4.03-1.91 6.53-1.15 1.72-3.34 3.53-4.6 4.49l.14-12.87c.15-.62 1.14-2.52 3.8-2.51 2.89 0 2.57 3.39 2.57 4.36" class="StaffText"/><path fill="none" stroke="#000" stroke-linejoin="bevel" stroke-width="10.91" d="M18.98 44.84v284.3" class="Bracket"/><path d="M61.53 22.82c-.2-.1-.5-.2-.7-.2-.4 0-.85.14-1.09.5-.2.3-10.11 15.57-29.06 15.57H14.9c-.8 0-1.4.5-1.4 1.29v10.31h12.1c30.56 0 36.42-25.47 36.52-25.79.03-.1.1-.3.1-.5 0-.49-.3-.89-.7-1.18m.01 328.33c.4-.3.7-.69.7-1.19 0-.2-.07-.4-.1-.5-.1-.3-5.96-25.78-36.51-25.78h-12.1v10.31c0 .8.6 1.3 1.39 1.3h15.77c18.95 0 28.87 15.27 29.06 15.57.24.35.7.5 1.1.5.2 0 .5-.1.69-.2" class="Bracket" style="stroke-width:.992001"/><path fill="none" stroke="#000" stroke-linecap="square" stroke-linejoin="bevel" stroke-width="2.73" d="M1.37 62.7v248.58m0-248.58H16.5M1.37 311.28H16.5" class="Bracket"/><path fill="none" stroke="#000" stroke-linejoin="bevel" stroke-width="10.91" d="M18.98 418.88v284.3" class="Bracket"/><path d="M61.53 396.85c-.2-.1-.5-.2-.7-.2-.4 0-.85.15-1.09.5-.2.3-10.11 15.58-29.06 15.58H14.9c-.8 0-1.4.5-1.4 1.29v10.32h12.1c30.56 0 36.42-25.49 36.52-25.8.03-.1.1-.3.1-.5 0-.5-.3-.89-.7-1.19m.01 328.35c.4-.3.7-.7.7-1.2 0-.2-.07-.4-.1-.5-.1-.3-5.96-25.78-36.51-25.78h-12.1v10.31c0 .8.6 1.3 1.39 1.3h15.77c18.95 0 28.87 15.27 29.06 15.57.24.35.7.5 1.1.5.2 0 .5-.1.69-.2" class="Bracket" style="stroke-width:.992001"/><path fill="none" stroke="#000" stroke-linecap="square" stroke-linejoin="bevel" stroke-width="2.73" d="M1.37 436.74v248.58m0-248.58H16.5M1.37 685.32H16.5" class="Bracket"/><path fill="none" stroke="#000" stroke-linejoin="bevel" stroke-width="10.91" d="M18.98 792.92v284.29" class="Bracket"/><path d="M61.53 770.9c-.2-.1-.5-.2-.7-.2-.4 0-.85.14-1.09.5-.2.3-10.11 15.57-29.06 15.57H14.9c-.8 0-1.4.5-1.4 1.29v10.32h12.1c30.56 0 36.42-25.48 36.52-25.8.03-.1.1-.3.1-.5 0-.49-.3-.89-.7-1.18m.01 328.33c.4-.3.7-.7.7-1.19 0-.2-.07-.4-.1-.5-.1-.3-5.96-25.78-36.51-25.78h-12.1v10.31c0 .8.6 1.3 1.39 1.3h15.77c18.95 0 28.87 15.27 29.06 15.57.24.35.7.5 1.1.5.2 0 .5-.1.69-.2" class="Bracket" style="stroke-width:.992001"/><path fill="none" stroke="#000" stroke-linecap="square" stroke-linejoin="bevel" stroke-width="2.73" d="M1.37 810.78v248.58m0-248.58H16.5M1.37 1059.36H16.5" class="Bracket"/><path fill="none" stroke="#000" stroke-linejoin="bevel" stroke-width="10.91" d="M18.98 1166.96v284.29" class="Bracket"/><path d="M61.53 1144.93c-.2-.1-.5-.2-.7-.2-.4 0-.85.14-1.09.5-.2.3-10.11 15.57-29.06 15.57H14.9c-.8 0-1.4.5-1.4 1.29v10.32h12.1c30.56 0 36.42-25.48 36.52-25.8.03-.1.1-.3.1-.5 0-.49-.3-.89-.7-1.18m.01 328.34c.4-.3.7-.7.7-1.19 0-.2-.07-.4-.1-.5-.1-.3-5.96-25.78-36.51-25.78h-12.1v10.3c0 .8.6 1.3 1.39 1.3h15.77c18.95 0 28.87 15.27 29.06 15.57.24.35.7.5 1.1.5.2 0 .5-.1.69-.2" class="Bracket" style="stroke-width:.992001"/><path fill="none" stroke="#000" stroke-linecap="square" stroke-linejoin="bevel" stroke-width="2.73" d="M1.37 1184.8v248.6m0-248.6H16.5M1.37 1433.4H16.5" class="Bracket"/><path fill="none" stroke="#000" stroke-linejoin="bevel" stroke-width="10.91" d="M18.98 1541v284.29" class="Bracket"/><path d="M61.53 1518.97c-.2-.1-.5-.2-.7-.2-.4 0-.85.14-1.09.5-.2.3-10.11 15.57-29.06 15.57H14.9c-.8 0-1.4.5-1.4 1.29v10.32h12.1c30.56 0 36.42-25.48 36.52-25.8.03-.1.1-.3.1-.5 0-.49-.3-.89-.7-1.18m.01 328.34c.4-.3.7-.7.7-1.19 0-.2-.07-.4-.1-.5-.1-.3-5.96-25.78-36.51-25.78h-12.1v10.31c0 .8.6 1.3 1.39 1.3h15.77c18.95 0 28.87 15.27 29.06 15.57.24.35.7.5 1.1.5.2 0 .5-.1.69-.2" class="Bracket" style="stroke-width:.992001"/><path fill="none" stroke="#000" stroke-linecap="square" stroke-linejoin="bevel" stroke-width="2.73" d="M1.37 1558.85v248.59m0-248.59H16.5M1.37 1807.44H16.5" class="Bracket"/></svg>