<svg xmlns="http://www.w3.org/2000/svg" width="2550.59" height="855.66" version="1.2"><path fill="none" stroke="#000" stroke-linejoin="bevel" stroke-width="2.73" d="M32.37 110.21H2368.8M32.37 135.01H2368.8M32.37 159.81H2368.8M32.37 184.61H2368.8M32.37 209.41H2368.8M32.37 256.8H2368.8M32.37 281.6H2368.8M32.37 306.4H2368.8M32.37 331.2H2368.8M32.37 356H2368.8M32.37 569.21h2518.22M32.37 594.01h2518.22M32.37 618.81h2518.22M32.37 643.61h2518.22M32.37 668.41h2518.22M32.37 716.38h2518.22M32.37 741.18h2518.22M32.37 765.98h2518.22M32.37 790.78h2518.22M32.37 815.58h2518.22" class="StaffLines"/><path fill="none" stroke="#000" stroke-linejoin="bevel" stroke-width="4.46" d="M34.6 255.43v101.93m2331.97-101.93v101.93M34.6 715.01v101.93m2331.19-101.93v101.93m160.61-101.93v101.93" class="BarLine"/><path fill="none" stroke="#000" stroke-linejoin="bevel" stroke-width="13.64" d="M2543.77 715.01v101.93" class="BarLine"/><path fill="none" stroke="#000" stroke-linejoin="bevel" stroke-width="4.46" d="M34.6 108.85V256.8m2331.97-147.95V256.8M34.6 567.85v148.53m2331.19-148.53v148.53m160.61-148.53v148.53" class="BarLine"/><path fill="none" stroke="#000" stroke-linejoin="bevel" stroke-width="13.64" d="M2543.77 567.85v148.53" class="BarLine"/><path fill="none" stroke="#000" stroke-linejoin="bevel" stroke-width="3.97" d="M409.4 234.21H459m183.96 0h49.59m183.95 0h49.6m183.96 0h49.59M2277.8 85.41h49.6m-49.6-24.8h49.6M182.15 544.41h49.59m-49.59-24.8h49.59m1114.36 173.6h49.6m183.2 0h49.59m183.2 0h49.59m183.2 0h49.6" class="LedgerLine"/><path fill="none" stroke="#000" stroke-linejoin="bevel" stroke-width="2.73" d="M2431.13 775.2v-77.42M185.9 322.12v58.47m77.85-83.27v75.01m77.85-99.81v91.54m77.85-126.52V355.8m77.85-58.48v54.38m77.85-79.18v70.91M653 237.54v97.63m77.85-122.43V326.9m77.85-54.38v50.3m77.85-85.28v77m77.85-101.8v93.54m77.85-118.34v110.07m107.35-66.98V110.21m77.86 96.02V99.88m77.84 81.55V89.54m77.86 54.69V79.21M1461 206.23V79.21m77.86 102.22V66.81m77.84 77.42V54.41m77.86 65.02V42.01m48.34 145.93v71.07m77.85-108.27v91.74m77.85-116.54v100m77.86-124.8v108.27m77.84-58.67v64.87m77.86-89.67v79.34M2210 101.14v93.8m77.86-131v120.67M192.19 522.95v97.58m77.6-60.38v70.72m77.59-45.92v56.25m77.6-31.45v41.78m77.6-91.38v108.26m77.6-83.46v100m77.59-75.2v91.73m77.6-54.53v71.06m107.1-139.57v-77.43m77.6 102.23v-89.83m77.6 127.03V525.81m77.6 139.43V538.21m77.59 65.03v-65.03m77.6 102.23v-91.89m77.6 116.69V558.88m77.6 131.16V569.21m48.09 77.74v129.13m77.6-104.33v112.6m77.59-87.8v96.07m77.6-60.51v68.77m77.6-129.13v125.46m77.6-100.66v108.93m77.59-73.37v81.64m77.6-56.84v65.1m77.6-125.46v117.27m77.6-81.71v89.98m77.59-65.18v73.44m77.6-48.64v56.91" class="Stem"/><path d="M2431.5 770.35c-1.78-3.27-5.55-5.06-10.11-5.06-3.38 0-7.05 1-10.62 2.88-6.54 3.47-10.51 9.32-10.51 14.38 0 1.39.3 2.78.99 4.07 1.78 3.27 5.55 4.96 10.12 4.96 3.37 0 7.04-.9 10.61-2.78 6.55-3.47 10.52-9.32 10.52-14.38a8.5 8.5 0 0 0-1-4.07m-4.26 6.74c-1.69 1.7-5.06 3.77-8.63 5.76-3.57 1.98-7.14 3.47-9.52 3.97-.5.1-1 .2-1.5.2-1.58 0-2.77-.6-3.46-1.89-.3-.5-.5-1.1-.5-1.69 0-1.09.7-2.38 1.79-3.47 1.68-1.69 4.96-3.77 8.53-5.75 3.57-1.99 7.14-3.47 9.52-3.97.5-.1 1-.2 1.49-.2 1.58 0 2.87.6 3.57 1.89.3.5.4 1.09.4 1.68 0 1.1-.6 2.28-1.7 3.47M215.79 310.76c-1.8-3.27-5.56-5.06-10.12-5.06-3.38 0-7.05 1-10.62 2.88-6.54 3.47-10.51 9.32-10.51 14.38 0 1.39.3 2.78.99 4.07 1.78 3.27 5.55 4.96 10.12 4.96 3.37 0 7.04-.9 10.61-2.78 6.55-3.47 10.52-9.32 10.52-14.38a8.5 8.5 0 0 0-1-4.07m77.86-24.8c-1.8-3.27-5.56-5.06-10.12-5.06-3.38 0-7.05 1-10.62 2.88-6.54 3.47-10.51 9.32-10.51 14.38 0 1.39.3 2.78.99 4.07 1.78 3.27 5.55 4.96 10.12 4.96 3.37 0 7.04-.9 10.61-2.78 6.55-3.47 10.52-9.32 10.52-14.38a8.5 8.5 0 0 0-1-4.07m77.86-24.8c-1.8-3.27-5.56-5.06-10.12-5.06-3.38 0-7.05 1-10.62 2.88-6.54 3.47-10.51 9.32-10.51 14.38 0 1.39.3 2.78.99 4.07 1.78 3.27 5.55 4.96 10.12 4.96 3.37 0 7.04-.9 10.61-2.78 6.55-3.47 10.52-9.32 10.52-14.38a8.5 8.5 0 0 0-1-4.07m77.86-34.98c-1.8-3.28-5.56-5.06-10.12-5.06-3.38 0-7.05 1-10.62 2.88-6.54 3.47-10.51 9.32-10.51 14.38 0 1.39.3 2.78.99 4.07 1.78 3.27 5.55 4.96 10.12 4.96 3.37 0 7.04-.9 10.61-2.78 6.55-3.47 10.52-9.33 10.52-14.38a8.5 8.5 0 0 0-1-4.07m77.86 59.78c-1.8-3.27-5.56-5.06-10.12-5.06-3.38 0-7.05 1-10.62 2.88-6.54 3.47-10.51 9.32-10.51 14.38 0 1.39.3 2.78.99 4.07 1.78 3.27 5.55 4.96 10.12 4.96 3.37 0 7.04-.9 10.61-2.78 6.55-3.47 10.52-9.32 10.52-14.38a8.5 8.5 0 0 0-1-4.07m77.86-24.8c-1.8-3.27-5.56-5.06-10.12-5.06-3.38 0-7.05 1-10.62 2.88-6.54 3.47-10.51 9.32-10.51 14.38 0 1.39.3 2.78.99 4.07 1.78 3.27 5.55 4.96 10.12 4.96 3.37 0 7.04-.9 10.61-2.78 6.55-3.47 10.52-9.32 10.52-14.38a8.5 8.5 0 0 0-1-4.07m77.86-34.98c-1.8-3.28-5.56-5.06-10.12-5.06-3.38 0-7.05 1-10.62 2.88-6.54 3.47-10.51 9.32-10.51 14.38 0 1.39.3 2.78.99 4.07 1.78 3.27 5.55 4.96 10.12 4.96 3.37 0 7.04-.9 10.61-2.78 6.55-3.47 10.52-9.33 10.52-14.38a8.5 8.5 0 0 0-1-4.07m77.86-24.8c-1.8-3.28-5.56-5.06-10.12-5.06-3.38 0-7.05 1-10.62 2.88-6.54 3.47-10.51 9.32-10.51 14.38 0 1.39.3 2.78.99 4.07 1.78 3.27 5.55 4.96 10.12 4.96 3.37 0 7.04-.9 10.61-2.78 6.55-3.47 10.52-9.33 10.52-14.38a8.5 8.5 0 0 0-1-4.07m77.86 59.78c-1.8-3.27-5.56-5.06-10.12-5.06-3.38 0-7.05 1-10.62 2.88-6.54 3.47-10.51 9.32-10.51 14.38 0 1.39.3 2.78.99 4.07 1.78 3.27 5.55 4.96 10.12 4.96 3.37 0 7.04-.9 10.61-2.78 6.55-3.47 10.52-9.32 10.52-14.38a8.5 8.5 0 0 0-1-4.07m77.86-34.98c-1.8-3.28-5.56-5.06-10.12-5.06-3.38 0-7.05 1-10.62 2.88-6.54 3.47-10.51 9.32-10.51 14.38 0 1.39.3 2.78.99 4.07 1.78 3.27 5.55 4.96 10.12 4.96 3.37 0 7.04-.9 10.61-2.78 6.55-3.47 10.52-9.33 10.52-14.38a8.5 8.5 0 0 0-1-4.07m77.86-24.8c-1.8-3.28-5.56-5.06-10.12-5.06-3.38 0-7.05 1-10.62 2.88-6.54 3.47-10.51 9.32-10.51 14.38 0 1.39.3 2.78.99 4.07 1.78 3.27 5.55 4.96 10.12 4.96 3.37 0 7.04-.9 10.61-2.78 6.55-3.47 10.52-9.33 10.52-14.38a8.5 8.5 0 0 0-1-4.07m77.85-24.8c-1.78-3.28-5.55-5.06-10.11-5.06-3.38 0-7.05 1-10.62 2.88-6.55 3.47-10.51 9.32-10.51 14.38 0 1.39.3 2.78.99 4.07 1.78 3.27 5.55 4.96 10.12 4.96 3.37 0 7.04-.9 10.61-2.78 6.55-3.47 10.52-9.33 10.52-14.38a8.5 8.5 0 0 0-1-4.07m77.85 49.6c-1.78-3.28-5.55-5.06-10.11-5.06-3.38 0-7.05 1-10.62 2.88-6.55 3.47-10.51 9.32-10.51 14.38 0 1.39.3 2.78.99 4.07 1.78 3.27 5.55 4.96 10.12 4.96 3.37 0 7.04-.9 10.61-2.78 6.55-3.47 10.52-9.33 10.52-14.38a8.5 8.5 0 0 0-1-4.07m77.86-24.8c-1.8-3.28-5.56-5.06-10.12-5.06-3.38 0-7.05 1-10.62 2.88-6.54 3.47-10.51 9.32-10.51 14.38 0 1.39.3 2.78.99 4.07 1.78 3.27 5.55 4.96 10.12 4.96 3.37 0 7.04-.9 10.61-2.78 6.55-3.47 10.52-9.33 10.52-14.38a8.5 8.5 0 0 0-1-4.07m77.85-24.8c-1.78-3.28-5.55-5.06-10.11-5.06-3.38 0-7.05 1-10.62 2.88-6.55 3.47-10.51 9.32-10.51 14.38 0 1.39.3 2.78.99 4.07 1.78 3.27 5.55 4.96 10.12 4.96 3.37 0 7.04-.9 10.61-2.78 6.55-3.47 10.52-9.33 10.52-14.38a8.5 8.5 0 0 0-1-4.07m77.86-37.2c-1.8-3.28-5.56-5.06-10.12-5.06-3.38 0-7.05 1-10.62 2.88-6.54 3.47-10.51 9.32-10.51 14.38 0 1.39.3 2.78.99 4.07 1.78 3.27 5.55 4.96 10.12 4.96 3.37 0 7.04-.9 10.61-2.78 6.55-3.47 10.52-9.33 10.52-14.38a8.5 8.5 0 0 0-1-4.07m77.85 62c-1.78-3.28-5.55-5.06-10.11-5.06-3.38 0-7.05 1-10.62 2.88-6.55 3.47-10.51 9.32-10.51 14.38 0 1.39.3 2.78.99 4.07 1.78 3.27 5.55 4.96 10.12 4.96 3.37 0 7.04-.9 10.61-2.78 6.55-3.47 10.52-9.33 10.52-14.38a8.5 8.5 0 0 0-1-4.07m77.85-24.8c-1.78-3.28-5.55-5.06-10.11-5.06-3.38 0-7.05 1-10.62 2.88-6.55 3.47-10.51 9.32-10.51 14.38 0 1.39.3 2.78.99 4.07 1.78 3.27 5.55 4.96 10.12 4.96 3.37 0 7.04-.9 10.61-2.78 6.55-3.47 10.52-9.33 10.52-14.38a8.5 8.5 0 0 0-1-4.07m77.86-37.2c-1.8-3.28-5.56-5.06-10.12-5.06-3.38 0-7.05 1-10.62 2.88-6.54 3.47-10.51 9.32-10.51 14.38 0 1.39.3 2.78.99 4.07 1.78 3.27 5.55 4.96 10.12 4.96 3.37 0 7.04-.9 10.61-2.78 6.55-3.47 10.52-9.33 10.52-14.38a8.5 8.5 0 0 0-1-4.07m77.85-24.8c-1.78-3.28-5.55-5.06-10.11-5.06-3.38 0-7.05 1-10.62 2.88-6.55 3.47-10.51 9.32-10.51 14.38 0 1.39.3 2.78.99 4.07 1.78 3.27 5.55 4.96 10.12 4.96 3.37 0 7.04-.9 10.61-2.78 6.55-3.47 10.52-9.33 10.52-14.38a8.5 8.5 0 0 0-1-4.07m77.86 62c-1.8-3.28-5.56-5.06-10.12-5.06-3.38 0-7.05 1-10.62 2.88-6.54 3.47-10.51 9.32-10.51 14.38 0 1.39.3 2.78.99 4.07 1.78 3.27 5.55 4.96 10.12 4.96 3.37 0 7.04-.9 10.61-2.78 6.55-3.47 10.52-9.33 10.52-14.38a8.5 8.5 0 0 0-1-4.07m77.85-37.2c-1.78-3.28-5.55-5.06-10.11-5.06-3.38 0-7.05 1-10.62 2.88-6.55 3.47-10.51 9.32-10.51 14.38 0 1.39.3 2.78.99 4.07 1.78 3.27 5.55 4.96 10.12 4.96 3.37 0 7.04-.9 10.61-2.78 6.55-3.47 10.52-9.33 10.52-14.38a8.5 8.5 0 0 0-1-4.07m77.85-24.8c-1.78-3.28-5.55-5.06-10.11-5.06-3.38 0-7.05 1-10.62 2.88-6.55 3.47-10.51 9.32-10.51 14.38 0 1.39.3 2.78.99 4.07 1.78 3.27 5.55 4.96 10.12 4.96 3.37 0 7.04-.9 10.61-2.78 6.55-3.47 10.52-9.33 10.52-14.38a8.5 8.5 0 0 0-1-4.07m77.86-24.8c-1.8-3.28-5.56-5.06-10.12-5.06-3.38 0-7.05 1-10.62 2.88-6.54 3.47-10.51 9.32-10.51 14.38 0 1.39.3 2.78.99 4.07 1.78 3.27 5.55 4.96 10.12 4.96 3.37 0 7.04-.9 10.61-2.78 6.55-3.47 10.52-9.33 10.52-14.38a8.5 8.5 0 0 0-1-4.07m77.85 49.6c-1.78-3.28-5.55-5.06-10.11-5.06-3.38 0-7.05 1-10.62 2.88-6.54 3.47-10.51 9.32-10.51 14.38 0 1.39.3 2.78.99 4.07 1.78 3.27 5.55 4.96 10.12 4.96 3.37 0 7.04-.9 10.61-2.78 6.55-3.47 10.52-9.33 10.52-14.38a8.5 8.5 0 0 0-1-4.07m77.85-24.8c-1.78-3.28-5.55-5.06-10.11-5.06-3.38 0-7.05 1-10.62 2.88-6.55 3.47-10.51 9.32-10.51 14.38 0 1.39.3 2.78.99 4.07 1.78 3.27 5.55 4.96 10.12 4.96 3.37 0 7.04-.9 10.61-2.78 6.55-3.47 10.52-9.33 10.52-14.38a8.5 8.5 0 0 0-1-4.07m77.86-24.8c-1.8-3.28-5.56-5.06-10.12-5.06-3.38 0-7.05 1-10.62 2.88-6.54 3.47-10.51 9.32-10.51 14.38 0 1.39.3 2.78.99 4.07 1.78 3.27 5.55 4.96 10.12 4.96 3.37 0 7.04-.9 10.61-2.78 6.55-3.47 10.52-9.33 10.52-14.38a8.5 8.5 0 0 0-1-4.07m77.86-37.2c-1.8-3.28-5.56-5.06-10.12-5.06-3.38 0-7.05 1-10.62 2.88-6.54 3.47-10.51 9.32-10.51 14.38 0 1.39.3 2.78.99 4.07 1.78 3.27 5.55 4.96 10.12 4.96 3.37 0 7.04-.9 10.61-2.78 6.55-3.47 10.52-9.33 10.52-14.38a8.5 8.5 0 0 0-1-4.07m-2095.66 459c-1.79-3.27-5.56-5.06-10.12-5.06-3.37 0-7.04 1-10.61 2.88-6.55 3.47-10.52 9.32-10.52 14.38 0 1.4.3 2.78 1 4.07 1.78 3.27 5.55 4.96 10.11 4.96 3.38 0 7.05-.9 10.62-2.78 6.54-3.47 10.51-9.32 10.51-14.38a8.5 8.5 0 0 0-.99-4.07m77.6 37.2c-1.79-3.27-5.56-5.06-10.12-5.06-3.37 0-7.04 1-10.61 2.88-6.55 3.47-10.52 9.32-10.52 14.38 0 1.4.3 2.78 1 4.07 1.78 3.27 5.55 4.96 10.11 4.96 3.37 0 7.04-.9 10.61-2.78 6.55-3.47 10.52-9.32 10.52-14.38a8.5 8.5 0 0 0-1-4.07m77.61 24.8c-1.8-3.27-5.56-5.06-10.12-5.06-3.38 0-7.05 1-10.62 2.88-6.54 3.47-10.51 9.32-10.51 14.38 0 1.4.3 2.78.99 4.07 1.78 3.27 5.55 4.96 10.12 4.96 3.37 0 7.04-.9 10.61-2.78 6.55-3.47 10.52-9.32 10.52-14.38a8.5 8.5 0 0 0-1-4.07m77.6 24.8c-1.78-3.27-5.55-5.06-10.12-5.06-3.37 0-7.04 1-10.61 2.88-6.55 3.47-10.52 9.32-10.52 14.38 0 1.4.3 2.78 1 4.07 1.78 3.27 5.55 4.96 10.11 4.96 3.38 0 7.05-.9 10.62-2.78 6.55-3.47 10.51-9.32 10.51-14.38a8.5 8.5 0 0 0-.99-4.07m77.6-49.6c-1.79-3.27-5.56-5.06-10.12-5.06-3.37 0-7.04 1-10.61 2.88-6.55 3.47-10.52 9.32-10.52 14.38 0 1.4.3 2.78 1 4.07 1.78 3.27 5.55 4.96 10.11 4.96 3.38 0 7.05-.9 10.62-2.78 6.54-3.47 10.51-9.32 10.51-14.38a8.5 8.5 0 0 0-.99-4.07m77.6 24.8c-1.79-3.27-5.56-5.06-10.12-5.06-3.37 0-7.04 1-10.62 2.88-6.54 3.47-10.51 9.32-10.51 14.38 0 1.4.3 2.78 1 4.07 1.78 3.27 5.55 4.96 10.1 4.96 3.38 0 7.05-.9 10.62-2.78 6.55-3.47 10.52-9.32 10.52-14.38a8.5 8.5 0 0 0-1-4.07m77.61 24.8c-1.8-3.27-5.56-5.06-10.12-5.06-3.38 0-7.05 1-10.62 2.88-6.54 3.47-10.51 9.32-10.51 14.38 0 1.4.3 2.78.99 4.07 1.78 3.27 5.55 4.96 10.12 4.96 3.37 0 7.04-.9 10.61-2.78 6.55-3.47 10.52-9.32 10.52-14.38a8.5 8.5 0 0 0-1-4.07m77.6 37.2c-1.78-3.27-5.55-5.06-10.12-5.06-3.37 0-7.04 1-10.61 2.88-6.55 3.47-10.52 9.32-10.52 14.38 0 1.4.3 2.78 1 4.07 1.78 3.27 5.55 4.96 10.11 4.96 3.38 0 7.05-.9 10.62-2.78 6.55-3.47 10.51-9.32 10.51-14.38a8.5 8.5 0 0 0-.99-4.07m77.6-62c-1.8-3.27-5.56-5.06-10.12-5.06-3.38 0-7.05 1-10.62 2.88-6.54 3.47-10.51 9.32-10.51 14.38 0 1.4.3 2.78.99 4.07 1.78 3.27 5.55 4.96 10.12 4.96 3.37 0 7.04-.9 10.61-2.78 6.55-3.47 10.52-9.32 10.52-14.38a8.5 8.5 0 0 0-1-4.07m77.61 24.8c-1.8-3.27-5.56-5.06-10.12-5.06-3.38 0-7.05 1-10.62 2.88-6.54 3.47-10.51 9.32-10.51 14.38 0 1.4.3 2.78.99 4.07 1.78 3.27 5.55 4.96 10.12 4.96 3.37 0 7.04-.9 10.61-2.78 6.55-3.47 10.52-9.32 10.52-14.38a8.5 8.5 0 0 0-1-4.07m77.61 37.2c-1.8-3.27-5.56-5.06-10.12-5.06-3.38 0-7.05 1-10.62 2.88-6.54 3.47-10.51 9.32-10.51 14.38 0 1.4.3 2.78.99 4.07 1.78 3.27 5.55 4.96 10.12 4.96 3.37 0 7.04-.9 10.61-2.78 6.55-3.47 10.52-9.32 10.52-14.38a8.5 8.5 0 0 0-1-4.07m77.6 24.8c-1.78-3.27-5.55-5.06-10.11-5.06-3.38 0-7.05 1-10.62 2.88-6.55 3.47-10.51 9.32-10.51 14.38 0 1.4.3 2.78.99 4.07 1.78 3.27 5.55 4.96 10.12 4.96 3.37 0 7.04-.9 10.61-2.78 6.55-3.47 10.52-9.32 10.52-14.38a8.5 8.5 0 0 0-1-4.07m77.59-62c-1.78-3.27-5.55-5.06-10.11-5.06-3.38 0-7.05 1-10.62 2.88-6.55 3.47-10.51 9.32-10.51 14.38 0 1.4.3 2.78.99 4.07 1.78 3.27 5.55 4.96 10.12 4.96 3.37 0 7.04-.9 10.61-2.78 6.55-3.47 10.52-9.32 10.52-14.38a8.5 8.5 0 0 0-1-4.07m77.61 37.2c-1.8-3.27-5.56-5.06-10.12-5.06-3.38 0-7.05 1-10.62 2.88-6.54 3.47-10.51 9.32-10.51 14.38 0 1.4.3 2.78.99 4.07 1.78 3.27 5.55 4.96 10.12 4.96 3.37 0 7.04-.9 10.61-2.78 6.55-3.47 10.52-9.32 10.52-14.38a8.5 8.5 0 0 0-1-4.07m77.6 24.8c-1.78-3.27-5.55-5.06-10.11-5.06-3.38 0-7.05 1-10.62 2.88-6.55 3.47-10.51 9.32-10.51 14.38 0 1.4.3 2.78.99 4.07 1.78 3.27 5.55 4.96 10.12 4.96 3.37 0 7.04-.9 10.61-2.78 6.55-3.47 10.52-9.32 10.52-14.38a8.5 8.5 0 0 0-1-4.07m77.61 24.8c-1.8-3.27-5.56-5.06-10.12-5.06-3.38 0-7.05 1-10.62 2.88-6.54 3.47-10.51 9.32-10.51 14.38 0 1.4.3 2.78.99 4.07 1.78 3.27 5.55 4.96 10.12 4.96 3.37 0 7.04-.9 10.61-2.78 6.55-3.47 10.52-9.32 10.52-14.38a8.5 8.5 0 0 0-1-4.07m77.6-49.6c-1.8-3.27-5.56-5.06-10.12-5.06-3.38 0-7.05 1-10.62 2.88-6.55 3.47-10.51 9.32-10.51 14.38 0 1.4.3 2.78.99 4.07 1.78 3.27 5.55 4.96 10.12 4.96 3.37 0 7.04-.9 10.61-2.78 6.55-3.47 10.52-9.32 10.52-14.38a8.5 8.5 0 0 0-1-4.07m77.6 24.8c-1.78-3.27-5.55-5.06-10.11-5.06-3.38 0-7.05 1-10.62 2.88-6.55 3.47-10.51 9.32-10.51 14.38 0 1.4.3 2.78.99 4.07 1.78 3.27 5.55 4.96 10.12 4.96 3.37 0 7.04-.9 10.61-2.78 6.55-3.47 10.52-9.32 10.52-14.38a8.5 8.5 0 0 0-1-4.07m77.61 24.8c-1.8-3.27-5.56-5.06-10.12-5.06-3.38 0-7.05 1-10.62 2.88-6.54 3.47-10.51 9.32-10.51 14.38 0 1.4.3 2.78.99 4.07 1.78 3.27 5.55 4.96 10.12 4.96 3.37 0 7.04-.9 10.61-2.78 6.55-3.47 10.52-9.32 10.52-14.38a8.5 8.5 0 0 0-1-4.07m77.6 35.57c-1.78-3.27-5.55-5.06-10.11-5.06-3.38 0-7.05 1-10.62 2.88-6.55 3.47-10.51 9.32-10.51 14.38 0 1.39.3 2.78.99 4.07 1.78 3.27 5.55 4.96 10.12 4.96 3.37 0 7.04-.9 10.61-2.78 6.55-3.47 10.52-9.32 10.52-14.38a8.5 8.5 0 0 0-1-4.07m77.6-60.37c-1.8-3.27-5.56-5.06-10.12-5.06-3.38 0-7.05 1-10.62 2.88-6.54 3.47-10.51 9.32-10.51 14.38 0 1.4.3 2.78.99 4.07 1.78 3.27 5.55 4.96 10.12 4.96 3.37 0 7.04-.9 10.61-2.78 6.55-3.47 10.52-9.32 10.52-14.38a8.5 8.5 0 0 0-1-4.07m77.61 24.8c-1.8-3.27-5.56-5.06-10.12-5.06-3.38 0-7.05 1-10.62 2.88-6.55 3.47-10.51 9.32-10.51 14.38 0 1.4.3 2.78.99 4.07 1.78 3.27 5.55 4.96 10.12 4.96 3.37 0 7.04-.9 10.61-2.78 6.55-3.47 10.52-9.32 10.52-14.38a8.5 8.5 0 0 0-1-4.07m77.6 35.57c-1.78-3.27-5.55-5.06-10.11-5.06-3.38 0-7.05 1-10.62 2.88-6.55 3.47-10.51 9.32-10.51 14.38 0 1.39.3 2.78.99 4.07 1.78 3.27 5.55 4.96 10.12 4.96 3.37 0 7.04-.9 10.61-2.78 6.55-3.47 10.52-9.32 10.52-14.38a8.5 8.5 0 0 0-1-4.07m77.61 24.8c-1.8-3.27-5.56-5.06-10.12-5.06-3.38 0-7.05 1-10.62 2.88-6.54 3.47-10.51 9.32-10.51 14.38 0 1.39.3 2.78.99 4.07 1.78 3.27 5.55 4.96 10.12 4.96 3.37 0 7.04-.9 10.61-2.78 6.55-3.47 10.52-9.32 10.52-14.38a8.5 8.5 0 0 0-1-4.07m77.59-60.37c-1.78-3.27-5.55-5.06-10.11-5.06-3.38 0-7.05 1-10.62 2.88-6.54 3.47-10.51 9.32-10.51 14.38 0 1.4.3 2.78.99 4.07 1.78 3.27 5.55 4.96 10.12 4.96 3.37 0 7.04-.9 10.61-2.78 6.55-3.47 10.52-9.32 10.52-14.38a8.5 8.5 0 0 0-1-4.07m77.6 35.57c-1.78-3.27-5.55-5.06-10.11-5.06-3.38 0-7.05 1-10.62 2.88-6.54 3.47-10.51 9.32-10.51 14.38 0 1.39.3 2.78.99 4.07 1.78 3.27 5.55 4.96 10.12 4.96 3.37 0 7.04-.9 10.61-2.78 6.55-3.47 10.52-9.32 10.52-14.38a8.5 8.5 0 0 0-1-4.07m77.6 24.8c-1.78-3.27-5.55-5.06-10.11-5.06-3.38 0-7.05 1-10.62 2.88-6.54 3.47-10.51 9.32-10.51 14.38 0 1.39.3 2.78.99 4.07 1.78 3.27 5.55 4.96 10.12 4.96 3.37 0 7.04-.9 10.61-2.78 6.55-3.47 10.52-9.32 10.52-14.38a8.5 8.5 0 0 0-1-4.07m77.6 24.8c-1.78-3.27-5.55-5.06-10.11-5.06-3.38 0-7.05 1-10.62 2.88-6.54 3.47-10.51 9.32-10.51 14.38 0 1.39.3 2.78.99 4.07 1.78 3.27 5.55 4.96 10.12 4.96 3.37 0 7.04-.9 10.61-2.78 6.55-3.47 10.52-9.32 10.52-14.38a8.5 8.5 0 0 0-1-4.07" class="Note" style="stroke-width:.992001"/><path d="M81.87 256.7c-7.54 0-13.6 4.36-13.7 4.36-5.75 4.27-8.03 9.33-8.92 12.8-.5 1.78-.7 3.57-.7 5.26 0 2.38.4 4.56 1.3 6.44 1.18 2.68 3.47 4.57 6.44 5.56a12 12 0 0 0 3.77.6c2.18 0 4.47-.6 6.35-1.7 3.08-1.68 4.96-5.25 4.96-9.12 0-3.47-1.79-6.65-4.76-8.53a10.14 10.14 0 0 0-8.93-1.29c-1 .4-2.68 1.39-3.47 2.08.3-1.88 1.49-4.76 2.58-6.35a16.4 16.4 0 0 1 4.96-4.46c2.48-1.39 5.65-1.98 9.12-1.98 10.12 0 15.08 8.13 15.08 24.8 0 9.22-3.47 18.05-6.45 23.9-3.27 6.55-7.63 12.8-11.5 16.27-10.32 9.43-20.04 13.89-20.14 13.89 0 0-1.49.9-1.1 2.38.3 1 1.2 1.2 1.8 1.2.1 0 .4-.1.49-.1.1 0 11.4-4.67 20.44-11.71a93.44 93.44 0 0 0 13.59-11.9 73.73 73.73 0 0 0 9.12-12.2c4.37-7.45 6.85-15.19 6.85-21.83 0-8.24-2.19-15.08-6.25-19.94-4.67-5.56-11.7-8.43-20.93-8.43M113 269.3a4.87 4.87 0 0 0 4.77 4.95 4.87 4.87 0 0 0 4.76-4.96c0-2.77-2.18-5.06-4.76-5.06-2.58 0-4.77 2.29-4.77 5.06m0 24.5c0 2.78 2.19 5.07 4.77 5.07 2.58 0 4.76-2.29 4.76-5.06 0-2.78-2.18-5.06-4.76-5.06-2.58 0-4.77 2.28-4.77 5.06M81.87 716.28c-7.54 0-13.6 4.37-13.7 4.37-5.75 4.27-8.03 9.32-8.92 12.8-.5 1.78-.7 3.57-.7 5.25 0 2.38.4 4.57 1.3 6.45 1.18 2.68 3.47 4.57 6.44 5.56a12 12 0 0 0 3.77.6c2.18 0 4.47-.6 6.35-1.7 3.08-1.68 4.96-5.25 4.96-9.12 0-3.47-1.79-6.65-4.76-8.53a10.14 10.14 0 0 0-8.93-1.3c-1 .4-2.68 1.4-3.47 2.1.3-1.9 1.49-4.77 2.58-6.36a16.4 16.4 0 0 1 4.96-4.46c2.48-1.39 5.65-1.98 9.12-1.98 10.12 0 15.08 8.13 15.08 24.8 0 9.22-3.47 18.05-6.45 23.9-3.27 6.55-7.63 12.8-11.5 16.27-10.32 9.43-20.04 13.89-20.14 13.89 0 0-1.49.9-1.1 2.38.3 1 1.2 1.2 1.8 1.2.1 0 .4-.1.49-.1.1 0 11.4-4.67 20.44-11.71a93.44 93.44 0 0 0 13.59-11.9 73.73 73.73 0 0 0 9.12-12.21c4.37-7.44 6.85-15.18 6.85-21.82 0-8.24-2.19-15.08-6.25-19.94-4.67-5.56-11.7-8.44-20.93-8.44m31.14 12.6a4.87 4.87 0 0 0 4.77 4.96 4.87 4.87 0 0 0 4.76-4.96c0-2.77-2.18-5.06-4.76-5.06-2.58 0-4.77 2.29-4.77 5.06m0 24.5c0 2.78 2.19 5.07 4.77 5.07 2.58 0 4.76-2.29 4.76-5.06 0-2.78-2.18-5.06-4.76-5.06-2.58 0-4.77 2.28-4.77 5.06m6.5-574.6a28.14 28.14 0 0 0-4.61-10.2c-3.17-4.24-7.14-7.07-11.8-8.41-3.08-.88-6.06-1-8.46-.81-1.03-5.97-2.02-11.8-2.92-17.2 5.4-6.13 9-11.88 11.26-16.14 3.44-6.53 4.58-11.08 4.63-11.27 1.7-5.17 2.06-12.81.97-20.95-1-7.5-3.07-14.15-5.4-17.37-1.03-1.42-2.07-2.15-3.1-2.15-1.21 0-3.7 1.23-6.57 3.98a36.12 36.12 0 0 0-8.06 12c-2.98 7-3.19 16.42-2.84 23.09a102.5 102.5 0 0 0 1.49 12.9l.72 4.13-.71.68c-1.03 1-2.21 2.13-3.58 3.5-.86.85-1.8 1.75-2.8 2.71-8.37 8.08-21.06 20.3-21.06 39.3 0 4.66.9 9.04 2.66 13.02a31.15 31.15 0 0 0 6.76 9.67c7.67 7.5 18.18 10.68 25.18 10.52 2.93-.07 5.54-.3 7.9-.75 1.82 9.52 2.95 16.5 3 21.79.03 6.46-1.6 10.4-5.47 13.14a15.3 15.3 0 0 1-8.28 2.81c-2.57.12-4.8-.35-6.23-.75 0 0-.3-.08-.3-.28-.01-.18.33-.23.34-.23h.02c1.9-.43 5.45-1.65 7.79-4.93 1.79-2.5 2.65-7.08.82-10.99-1.1-2.37-3.59-5.3-9.16-5.74a11.04 11.04 0 0 0-11.03 6.18c-2.44 4.66-1.99 10.34 1.12 14.15 2.93 3.6 7.52 5.89 12.9 6.46a23.62 23.62 0 0 0 14.83-3.25c3.63-2.55 5.74-6.5 6.41-12.09.56-4.6.17-10.46-1.22-18.47l-1.55-8.8c5.7-1.91 9.83-5.45 13.57-11.26a24.33 24.33 0 0 0 2.78-17.99m-33.93 25.98c-4.6-1.21-9-3.69-12.73-7.16a20.19 20.19 0 0 1-4.61-6.74 24.37 24.37 0 0 1-1.97-10.1c.07-4.65 1.37-9.43 3.86-14.18 2.9-5.54 7.42-11.02 13.43-16.31a95.65 95.65 0 0 0 4.08-3.8l2.45 13.71a21.2 21.2 0 0 0-11.62 9.99c-3.5 6.52-3.37 12-2.65 15.44.94 4.43 3.45 8.16 6.88 10.23.92.56 5.02 2.67 6.84 2.1.37-.12.64-.34.78-.67.5-1.16-.5-1.8-2.06-2.75-.6-.36-1.26-.78-1.98-1.3-3.3-2.48-4.73-6.9-3.67-11.24a12.4 12.4 0 0 1 3.67-6.2 14.13 14.13 0 0 1 6.04-3.27c2.03 11.15 4.07 22.21 5.7 30.5.12.69.26 1.35.4 2.02-4.35.92-8.67.83-12.84-.27m11.23-32.91c10.26-.47 14.5 6.91 15.38 11.7.47 2.51.46 6.92-1.07 11.1-1.16 3.15-3.6 7.18-8.69 9.23l-.23-1.27-5.4-30.76m-7.26-70.38c1.77-5.7 4.49-8.91 6.46-10.63 1.74-1.5 3.37-2.21 4.29-2.21.14 0 .26.02.35.05.46.14.99.7 1.45 1.56 2.3 4.26 1.56 10.92.23 15.32-1.62 5.36-4.51 10.93-13.24 20.47l-.48-3.12c-1.24-8.22-.92-15.44.94-21.44m29.97 536.32a28.14 28.14 0 0 0-4.61-10.21c-3.17-4.24-7.14-7.07-11.8-8.4-3.08-.89-6.06-1-8.46-.82-1.03-5.96-2.02-11.8-2.92-17.2 5.4-6.12 9-11.88 11.26-16.14 3.44-6.53 4.58-11.07 4.63-11.27 1.7-5.17 2.06-12.8.97-20.95-1-7.5-3.07-14.15-5.4-17.37-1.03-1.42-2.07-2.14-3.1-2.14-1.21 0-3.7 1.23-6.57 3.97a36.12 36.12 0 0 0-8.06 12c-2.98 7.01-3.19 16.42-2.84 23.1a102.5 102.5 0 0 0 1.49 12.9l.72 4.12-.71.69c-1.03.99-2.21 2.12-3.58 3.49-.86.85-1.8 1.76-2.8 2.72-8.37 8.07-21.06 20.3-21.06 39.3 0 4.65.9 9.04 2.66 13.02a31.15 31.15 0 0 0 6.76 9.67c7.67 7.49 18.18 10.67 25.18 10.51 2.93-.07 5.54-.3 7.9-.75 1.82 9.52 2.95 16.5 3 21.8.03 6.45-1.6 10.39-5.47 13.14a15.3 15.3 0 0 1-8.28 2.8c-2.57.12-4.8-.34-6.23-.75 0 0-.3-.08-.3-.28-.01-.18.33-.23.34-.23h.02c1.9-.43 5.45-1.65 7.79-4.93 1.79-2.5 2.65-7.08.82-10.99-1.1-2.37-3.59-5.3-9.16-5.74a11.04 11.04 0 0 0-11.03 6.18c-2.44 4.66-1.99 10.35 1.12 14.16 2.93 3.59 7.52 5.88 12.9 6.45a23.62 23.62 0 0 0 14.83-3.25c3.63-2.55 5.74-6.5 6.41-12.08.56-4.6.17-10.47-1.22-18.47l-1.55-8.81c5.7-1.9 9.83-5.45 13.57-11.25a24.33 24.33 0 0 0 2.78-18m-33.93 25.98a30 30 0 0 1-12.73-7.16 20.19 20.19 0 0 1-4.61-6.73 24.37 24.37 0 0 1-1.97-10.1c.07-4.66 1.37-9.44 3.86-14.19 2.9-5.53 7.42-11.02 13.43-16.3a95.65 95.65 0 0 0 4.08-3.82l2.45 13.72a21.2 21.2 0 0 0-11.62 10c-3.5 6.51-3.37 11.99-2.65 15.44.94 4.42 3.45 8.15 6.88 10.23.92.55 5.02 2.66 6.84 2.09.37-.12.64-.34.78-.67.5-1.16-.5-1.8-2.06-2.74-.6-.37-1.26-.79-1.98-1.31-3.3-2.47-4.73-6.89-3.67-11.23a12.4 12.4 0 0 1 3.67-6.21 14.13 14.13 0 0 1 6.04-3.27 2415.65 2415.65 0 0 0 6.1 32.52c-4.35.92-8.67.83-12.84-.27m11.23-32.91c10.26-.47 14.5 6.91 15.38 11.7.47 2.51.46 6.92-1.07 11.1-1.16 3.15-3.6 7.19-8.69 9.23l-.23-1.27-5.4-30.76m-7.26-70.37c1.77-5.7 4.49-8.92 6.46-10.64 1.74-1.5 3.37-2.21 4.29-2.21.14 0 .26.02.35.05.46.14.99.7 1.45 1.57 2.3 4.25 1.56 10.9.23 15.31-1.62 5.36-4.51 10.94-13.24 20.47l-.48-3.12c-1.24-8.22-.92-15.43.94-21.43" class="Clef" style="stroke-width:.992001"/><path fill-rule="evenodd" d="m184.54 374.36 236.28-25.09v12.47l-236.28 25.1v-12.48m311.4-28.89 236.28-25.09v12.47l-236.28 25.09v-12.47m311.4-28.89 236.28-25.1v12.48l-236.28 25.09v-12.47m340.9-212.26 236.28-31.36v12.5l-236.28 31.37v-12.51m311.4-30.95 236.28-37.64V48.3l-236.28 37.64V73.37m281.9 179.31 236.28-50.18v12.67l-236.28 50.18v-12.67m311.4-43.32L2289.22 178v12.5l-236.28 31.37v-12.51M190.82 614.28l235.52 31.37v12.5L190.82 626.8v-12.5m310.39 47.78 235.52 50.18v12.67l-235.52-50.17v-12.68M841.1 494.3l235.53 37.64v12.55L841.1 506.86V494.3m310.4 37.3 235.52 31.36v12.51l-235.52-31.36V531.6m280.88 238.25 235.52 25.1v12.46l-235.52-25.09v-12.47m310.39 21.13 235.52 25.1v12.46l-235.52-25.09v-12.47m310.39 16.62 235.52 25.07v12.48l-235.52-25.09V807.6" class="Beam"/><path d="M215.09 82.75h-2.2c-1.65 9-3.9 11.2-11.65 11.35h-2.1c-3-.1-3.75-.6-3.6-2.4V66.5c0-2.5 0-2.65.3-3.1.4-.5 1.35-.65 4.2-.7h.9v-2.35h-16.4v2.35h.9c2.85.05 3.8.2 4.2.7.3.45.3.55.3 3.1v23.8c0 2.55 0 2.65-.3 3.1-.4.5-1.35.7-4.2.7h-.9v2.35h29.5l1.05-13.7m58.3-4.55h2.9c5.05.2 7.05 2.25 7.6 7.75l.25 2.55c.6 5.65 2.45 7.95 6.4 7.95 4.1 0 6.05-2.75 6.2-8.75h-2.1c-.2 3.45-.8 4.95-2.15 4.95-1.15 0-1.65-.85-2.5-4.3l-.8-3.15c-1.1-4.6-3.05-6.7-6.95-7.7 7.2-1 10.65-3.9 10.65-8.95 0-5.7-4.8-8.95-13.2-8.95h-17.3v2.35h.9c2.85.05 3.8.2 4.2.7.3.45.3.55.3 3.1V89.6c0 2.5 0 2.6-.3 3.1-.4.5-1.35.65-4.2.65h-.9v2.35h16.4v-2.35h-.9c-2.85 0-3.8-.15-4.2-.65-.3-.5-.3-.6-.3-3.1V78.2m0-2.35v-11c-.1-2.75.15-2.95 3.45-2.9h2.7c4.95 0 7.2 2.1 7.2 6.65 0 2.55-.65 4.5-1.95 5.55-1.25 1.05-3.5 1.7-5.9 1.7h-5.5m97.4 6.9h-2.2c-1.65 9-3.9 11.2-11.65 11.35h-2.1c-3-.1-3.75-.6-3.6-2.4V66.5c0-2.5 0-2.65.3-3.1.4-.5 1.35-.65 4.2-.7h.9v-2.35h-16.4v2.35h.9c2.85.05 3.8.2 4.2.7.3.45.3.55.3 3.1v23.8c0 2.55 0 2.65-.3 3.1-.4.5-1.35.7-4.2.7h-.9v2.35h29.5l1.05-13.7m58.3-4.55h2.9c5.05.2 7.05 2.25 7.6 7.75l.25 2.55c.6 5.65 2.45 7.95 6.4 7.95 4.1 0 6.05-2.75 6.2-8.75h-2.1c-.2 3.45-.8 4.95-2.15 4.95-1.15 0-1.65-.85-2.5-4.3l-.8-3.15c-1.1-4.6-3.05-6.7-6.95-7.7 7.2-1 10.65-3.9 10.65-8.95 0-5.7-4.8-8.95-13.2-8.95h-17.3v2.35h.9c2.85.05 3.8.2 4.2.7.3.45.3.55.3 3.1V89.6c0 2.5 0 2.6-.3 3.1-.4.5-1.35.65-4.2.65h-.9v2.35h16.4v-2.35h-.9c-2.85 0-3.8-.15-4.2-.65-.3-.5-.3-.6-.3-3.1V78.2m0-2.35v-11c-.1-2.75.15-2.95 3.45-2.9h2.7c4.95 0 7.2 2.1 7.2 6.65 0 2.55-.65 4.5-1.95 5.55-1.25 1.05-3.5 1.7-5.9 1.7h-5.5m97.4 6.9h-2.2c-1.65 9-3.9 11.2-11.65 11.35h-2.1c-3-.1-3.75-.6-3.6-2.4V66.5c0-2.5 0-2.65.3-3.1.4-.5 1.35-.65 4.2-.7h.9v-2.35h-16.4v2.35h.9c2.85.05 3.8.2 4.2.7.3.45.3.55.3 3.1v23.8c0 2.55 0 2.65-.3 3.1-.4.5-1.35.7-4.2.7h-.9v2.35h29.5l1.05-13.7m58.3-4.55h2.9c5.05.2 7.05 2.25 7.6 7.75l.25 2.55c.6 5.65 2.45 7.95 6.4 7.95 4.1 0 6.05-2.75 6.2-8.75h-2.1c-.2 3.45-.8 4.95-2.15 4.95-1.15 0-1.65-.85-2.5-4.3l-.8-3.15c-1.1-4.6-3.05-6.7-6.95-7.7 7.2-1 10.65-3.9 10.65-8.95 0-5.7-4.8-8.95-13.2-8.95h-17.3v2.35h.9c2.85.05 3.8.2 4.2.7.3.45.3.55.3 3.1V89.6c0 2.5 0 2.6-.3 3.1-.4.5-1.35.65-4.2.65h-.9v2.35h16.4v-2.35h-.9c-2.85 0-3.8-.15-4.2-.65-.3-.5-.3-.6-.3-3.1V78.2m0-2.35v-11c-.1-2.75.15-2.95 3.45-2.9h2.7c4.95 0 7.2 2.1 7.2 6.65 0 2.55-.65 4.5-1.95 5.55-1.25 1.05-3.5 1.7-5.9 1.7h-5.5m97.4 6.9h-2.2c-1.65 9-3.9 11.2-11.65 11.35h-2.1c-3-.1-3.75-.6-3.6-2.4V66.5c0-2.5 0-2.65.3-3.1.4-.5 1.35-.65 4.2-.7h.9v-2.35h-16.4v2.35h.9c2.85.05 3.8.2 4.2.7.3.45.3.55.3 3.1v23.8c0 2.55 0 2.65-.3 3.1-.4.5-1.35.7-4.2.7h-.9v2.35h29.5l1.05-13.7m58.3-4.55h2.9c5.05.2 7.05 2.25 7.6 7.75l.25 2.55c.6 5.65 2.45 7.95 6.4 7.95 4.1 0 6.05-2.75 6.2-8.75h-2.1c-.2 3.45-.8 4.95-2.15 4.95-1.15 0-1.65-.85-2.5-4.3l-.8-3.15c-1.1-4.6-3.05-6.7-6.95-7.7 7.2-1 10.65-3.9 10.65-8.95 0-5.7-4.8-8.95-13.2-8.95h-17.3v2.35h.9c2.85.05 3.8.2 4.2.7.3.45.3.55.3 3.1V89.6c0 2.5 0 2.6-.3 3.1-.4.5-1.35.65-4.2.65h-.9v2.35h16.4v-2.35h-.9c-2.85 0-3.8-.15-4.2-.65-.3-.5-.3-.6-.3-3.1V78.2m0-2.35v-11c-.1-2.75.15-2.95 3.45-2.9h2.7c4.95 0 7.2 2.1 7.2 6.65 0 2.55-.65 4.5-1.95 5.55-1.25 1.05-3.5 1.7-5.9 1.7h-5.5m1343-53.45h-2.2c-1.65 9-3.9 11.2-11.65 11.35h-2.1c-3-.1-3.75-.6-3.6-2.4V6.15c0-2.5 0-2.65.3-3.1.4-.5 1.35-.65 4.2-.7h.9V0h-16.4v2.35h.9c2.85.05 3.8.2 4.2.7.3.45.3.55.3 3.1v23.8c0 2.55 0 2.65-.3 3.1-.4.5-1.35.7-4.2.7h-.9v2.35h29.5l1.05-13.7m58.3-3.8h2.9c5.05.2 7.05 2.25 7.6 7.75l.25 2.55c.6 5.65 2.45 7.95 6.4 7.95 4.1 0 6.05-2.75 6.2-8.75h-2.1c-.2 3.45-.8 4.95-2.15 4.95-1.15 0-1.65-.85-2.5-4.3l-.8-3.15c-1.1-4.6-3.05-6.7-6.95-7.7 7.2-1 10.65-3.9 10.65-8.95 0-5.7-4.8-8.95-13.2-8.95h-17.3v2.35h.9c2.85.05 3.8.2 4.2.7.3.45.3.55.3 3.1V30c0 2.5 0 2.6-.3 3.1-.4.5-1.35.65-4.2.65h-.9v2.35h16.4v-2.35h-.9c-2.85 0-3.8-.15-4.2-.65-.3-.5-.3-.6-.3-3.1V18.6m0-2.35v-11c-.1-2.75.15-2.95 3.45-2.9h2.7c4.95 0 7.2 2.1 7.2 6.65 0 2.55-.65 4.5-1.95 5.55-1.25 1.05-3.5 1.7-5.9 1.7h-5.5m97.4 6.15h-2.2c-1.65 9-3.9 11.2-11.65 11.35h-2.1c-3-.1-3.75-.6-3.6-2.4V6.15c0-2.5 0-2.65.3-3.1.4-.5 1.35-.65 4.2-.7h.9V0h-16.4v2.35h.9c2.85.05 3.8.2 4.2.7.3.45.3.55.3 3.1v23.8c0 2.55 0 2.65-.3 3.1-.4.5-1.35.7-4.2.7h-.9v2.35h29.5l1.05-13.7m58.3-3.8h2.9c5.05.2 7.05 2.25 7.6 7.75l.25 2.55c.6 5.65 2.45 7.95 6.4 7.95 4.1 0 6.05-2.75 6.2-8.75h-2.1c-.2 3.45-.8 4.95-2.15 4.95-1.15 0-1.65-.85-2.5-4.3l-.8-3.15c-1.1-4.6-3.05-6.7-6.95-7.7 7.2-1 10.65-3.9 10.65-8.95 0-5.7-4.8-8.95-13.2-8.95h-17.3v2.35h.9c2.85.05 3.8.2 4.2.7.3.45.3.55.3 3.1V30c0 2.5 0 2.6-.3 3.1-.4.5-1.35.65-4.2.65h-.9v2.35h16.4v-2.35h-.9c-2.85 0-3.8-.15-4.2-.65-.3-.5-.3-.6-.3-3.1V18.6m0-2.35v-11c-.1-2.75.15-2.95 3.45-2.9h2.7c4.95 0 7.2 2.1 7.2 6.65 0 2.55-.65 4.5-1.95 5.55-1.25 1.05-3.5 1.7-5.9 1.7h-5.5M201.83 477.6h2.9c5.05.2 7.05 2.25 7.6 7.75l.25 2.55c.6 5.65 2.45 7.95 6.4 7.95 4.1 0 6.05-2.75 6.2-8.75h-2.1c-.2 3.45-.8 4.95-2.15 4.95-1.15 0-1.65-.85-2.5-4.3l-.8-3.15c-1.1-4.6-3.05-6.7-6.95-7.7 7.2-1 10.65-3.9 10.65-8.95 0-5.7-4.8-8.95-13.2-8.95h-17.3v2.35h.9c2.85.05 3.8.2 4.2.7.3.45.3.55.3 3.1V489c0 2.5 0 2.6-.3 3.1-.4.5-1.35.65-4.2.65h-.9v2.35h16.4v-2.35h-.9c-2.85 0-3.8-.15-4.2-.65-.3-.5-.3-.6-.3-3.1v-11.4m0-2.35v-11c-.1-2.75.15-2.95 3.45-2.9h2.7c4.95 0 7.2 2.1 7.2 6.65 0 2.55-.65 4.5-1.95 5.55-1.25 1.05-3.5 1.7-5.9 1.7h-5.5m97.14 6.15h-2.2c-1.65 9-3.9 11.2-11.65 11.35h-2.1c-3-.1-3.75-.6-3.6-2.4v-25.2c0-2.5 0-2.65.3-3.1.4-.5 1.35-.65 4.2-.7h.9V459h-16.4v2.35h.9c2.85.05 3.8.2 4.2.7.3.45.3.55.3 3.1v23.8c0 2.55 0 2.65-.3 3.1-.4.5-1.35.7-4.2.7h-.9v2.35h29.5l1.05-13.7m58.05-3.8h2.9c5.05.2 7.05 2.25 7.6 7.75l.25 2.55c.6 5.65 2.45 7.95 6.4 7.95 4.1 0 6.05-2.75 6.2-8.75h-2.1c-.2 3.45-.8 4.95-2.15 4.95-1.15 0-1.65-.85-2.5-4.3l-.8-3.15c-1.1-4.6-3.05-6.7-6.95-7.7 7.2-1 10.65-3.9 10.65-8.95 0-5.7-4.8-8.95-13.2-8.95h-17.3v2.35h.9c2.85.05 3.8.2 4.2.7.3.45.3.55.3 3.1V489c0 2.5 0 2.6-.3 3.1-.4.5-1.35.65-4.2.65h-.9v2.35h16.4v-2.35h-.9c-2.85 0-3.8-.15-4.2-.65-.3-.5-.3-.6-.3-3.1v-11.4m0-2.35v-11c-.1-2.75.15-2.95 3.45-2.9h2.7c4.95 0 7.2 2.1 7.2 6.65 0 2.55-.65 4.5-1.95 5.55-1.25 1.05-3.5 1.7-5.9 1.7h-5.5m97.14 6.15h-2.2c-1.65 9-3.9 11.2-11.65 11.35h-2.1c-3-.1-3.75-.6-3.6-2.4v-25.2c0-2.5 0-2.65.3-3.1.4-.5 1.35-.65 4.2-.7h.9V459h-16.4v2.35h.9c2.85.05 3.8.2 4.2.7.3.45.3.55.3 3.1v23.8c0 2.55 0 2.65-.3 3.1-.4.5-1.35.7-4.2.7h-.9v2.35h29.5l1.05-13.7m58.06-3.8h2.9c5.05.2 7.05 2.25 7.6 7.75l.25 2.55c.6 5.65 2.45 7.95 6.4 7.95 4.1 0 6.05-2.75 6.2-8.75h-2.1c-.2 3.45-.8 4.95-2.15 4.95-1.15 0-1.65-.85-2.5-4.3l-.8-3.15c-1.1-4.6-3.05-6.7-6.95-7.7 7.2-1 10.65-3.9 10.65-8.95 0-5.7-4.8-8.95-13.2-8.95h-17.3v2.35h.9c2.85.05 3.8.2 4.2.7.3.45.3.55.3 3.1V489c0 2.5 0 2.6-.3 3.1-.4.5-1.35.65-4.2.65h-.9v2.35h16.4v-2.35h-.9c-2.85 0-3.8-.15-4.2-.65-.3-.5-.3-.6-.3-3.1v-11.4m0-2.35v-11c-.1-2.75.15-2.95 3.45-2.9h2.7c4.95 0 7.2 2.1 7.2 6.65 0 2.55-.65 4.5-1.95 5.55-1.25 1.05-3.5 1.7-5.9 1.7h-5.5m97.14 6.15h-2.2c-1.65 9-3.9 11.2-11.65 11.35h-2.1c-3-.1-3.75-.6-3.6-2.4v-25.2c0-2.5 0-2.65.3-3.1.4-.5 1.35-.65 4.2-.7h.9V459h-16.4v2.35h.9c2.85.05 3.8.2 4.2.7.3.45.3.55.3 3.1v23.8c0 2.55 0 2.65-.3 3.1-.4.5-1.35.7-4.2.7h-.9v2.35h29.5l1.05-13.7m58.05-3.8h2.9c5.05.2 7.05 2.25 7.6 7.75l.25 2.55c.6 5.65 2.45 7.95 6.4 7.95 4.1 0 6.05-2.75 6.2-8.75h-2.1c-.2 3.45-.8 4.95-2.15 4.95-1.15 0-1.65-.85-2.5-4.3l-.8-3.15c-1.1-4.6-3.05-6.7-6.95-7.7 7.2-1 10.65-3.9 10.65-8.95 0-5.7-4.8-8.95-13.2-8.95h-17.3v2.35h.9c2.85.05 3.8.2 4.2.7.3.45.3.55.3 3.1V489c0 2.5 0 2.6-.3 3.1-.4.5-1.35.65-4.2.65h-.9v2.35h16.4v-2.35h-.9c-2.85 0-3.8-.15-4.2-.65-.3-.5-.3-.6-.3-3.1v-11.4m0-2.35v-11c-.1-2.75.15-2.95 3.45-2.9h2.7c4.95 0 7.2 2.1 7.2 6.65 0 2.55-.65 4.5-1.95 5.55-1.25 1.05-3.5 1.7-5.9 1.7h-5.5m97.14 6.15h-2.2c-1.65 9-3.9 11.2-11.65 11.35h-2.1c-3-.1-3.75-.6-3.6-2.4v-25.2c0-2.5 0-2.65.3-3.1.4-.5 1.35-.65 4.2-.7h.9V459H734v2.35h.9c2.85.05 3.8.2 4.2.7.3.45.3.55.3 3.1v23.8c0 2.55 0 2.65-.3 3.1-.4.5-1.35.7-4.2.7h-.9v2.35h29.5l1.05-13.7m1299.62 55.8h2.9c5.05.2 7.05 2.25 7.6 7.75l.25 2.55c.6 5.65 2.45 7.95 6.4 7.95 4.1 0 6.05-2.75 6.2-8.75h-2.1c-.2 3.45-.8 4.95-2.15 4.95-1.15 0-1.65-.85-2.5-4.3l-.8-3.15c-1.1-4.6-3.05-6.7-6.95-7.7 7.2-1 10.65-3.9 10.65-8.95 0-5.7-4.8-8.95-13.2-8.95h-17.3v2.35h.9c2.85.05 3.8.2 4.2.7.3.45.3.55.3 3.1v23.85c0 2.5 0 2.6-.3 3.1-.4.5-1.35.65-4.2.65h-.9v2.35h16.4v-2.35h-.9c-2.85 0-3.8-.15-4.2-.65-.3-.5-.3-.6-.3-3.1v-11.4m0-2.35v-11c-.1-2.75.15-2.95 3.45-2.9h2.7c4.95 0 7.2 2.1 7.2 6.65 0 2.55-.65 4.5-1.95 5.55-1.25 1.05-3.5 1.7-5.9 1.7h-5.5m97.13 6.9h-2.2c-1.64 9-3.9 11.2-11.64 11.35h-2.1c-3-.1-3.75-.6-3.6-2.4v-25.2c0-2.5 0-2.65.3-3.1.4-.5 1.35-.65 4.2-.7h.9v-2.35h-16.4v2.35h.9c2.85.05 3.8.2 4.2.7.3.45.3.55.3 3.1v23.8c0 2.55 0 2.65-.3 3.1-.4.5-1.35.7-4.2.7h-.9v2.35h29.5l1.05-13.7m58.05-4.55h2.9c5.05.2 7.05 2.25 7.6 7.75l.25 2.55c.6 5.65 2.45 7.95 6.4 7.95 4.1 0 6.05-2.75 6.2-8.75h-2.1c-.2 3.45-.8 4.95-2.15 4.95-1.15 0-1.65-.85-2.5-4.3l-.8-3.15c-1.1-4.6-3.05-6.7-6.95-7.7 7.2-1 10.65-3.9 10.65-8.95 0-5.7-4.8-8.95-13.2-8.95h-17.3v2.35h.9c2.85.05 3.8.2 4.2.7.3.45.3.55.3 3.1v23.85c0 2.5 0 2.6-.3 3.1-.4.5-1.35.65-4.2.65h-.9v2.35h16.4v-2.35h-.9c-2.85 0-3.8-.15-4.2-.65-.3-.5-.3-.6-.3-3.1v-11.4m0-2.35v-11c-.1-2.75.15-2.95 3.45-2.9h2.7c4.95 0 7.2 2.1 7.2 6.65 0 2.55-.65 4.5-1.95 5.55-1.25 1.05-3.5 1.7-5.9 1.7h-5.5m97.14 6.9h-2.2c-1.64 9-3.9 11.2-11.64 11.35h-2.1c-3-.1-3.75-.6-3.6-2.4v-25.2c0-2.5 0-2.65.3-3.1.4-.5 1.35-.65 4.2-.7h.9v-2.35h-16.4v2.35h.9c2.85.05 3.8.2 4.2.7.3.45.3.55.3 3.1v23.8c0 2.55 0 2.65-.3 3.1-.4.5-1.35.7-4.2.7h-.9v2.35h29.5l1.05-13.7m114.29 0h-2.2c-1.64 9-3.9 11.2-11.64 11.35h-2.1c-3-.1-3.75-.6-3.6-2.4v-25.2c0-2.5 0-2.65.3-3.1.4-.5 1.35-.65 4.2-.7h.9v-2.35h-16.4v2.35h.9c2.85.05 3.8.2 4.2.7.3.45.3.55.3 3.1v23.8c0 2.55 0 2.65-.3 3.1-.4.5-1.35.7-4.2.7h-.9v2.35h29.5l1.05-13.7" class="StaffText"/><path fill="none" stroke="#000" stroke-linejoin="bevel" stroke-width="10.91" d="M18.98 92.35v281.5" class="Bracket"/><path d="M61.53 70.33c-.2-.1-.5-.2-.7-.2-.4 0-.85.15-1.09.5-.2.3-10.11 15.58-29.06 15.58H14.9c-.8 0-1.4.5-1.4 1.29v10.32h12.1c30.56 0 36.42-25.49 36.52-25.8.03-.1.1-.3.1-.5 0-.5-.3-.89-.7-1.19m.01 325.54c.4-.3.7-.7.7-1.19 0-.2-.07-.4-.1-.5-.1-.3-5.96-25.78-36.51-25.78h-12.1v10.3c0 .8.6 1.3 1.39 1.3h15.77c18.95 0 28.87 15.27 29.06 15.57.24.35.7.5 1.1.5.2 0 .5-.1.69-.2" class="Bracket" style="stroke-width:.992001"/><path fill="none" stroke="#000" stroke-linecap="square" stroke-linejoin="bevel" stroke-width="2.73" d="M1.37 110.21V356m0-245.79H16.5M1.37 356H16.5" class="Bracket"/><path fill="none" stroke="#000" stroke-linejoin="bevel" stroke-width="10.91" d="M18.98 551.36v282.07" class="Bracket"/><path d="M61.53 529.34c-.2-.1-.5-.2-.7-.2-.4 0-.85.15-1.09.5-.2.3-10.11 15.57-29.06 15.57H14.9c-.8 0-1.4.5-1.4 1.29v10.32h12.1c30.56 0 36.42-25.48 36.52-25.8.03-.1.1-.3.1-.5 0-.49-.3-.88-.7-1.18m.01 326.12c.4-.3.7-.7.7-1.19 0-.2-.07-.4-.1-.5-.1-.3-5.96-25.79-36.51-25.79h-12.1v10.32c0 .8.6 1.29 1.39 1.29h15.77c18.95 0 28.87 15.28 29.06 15.57.24.36.7.5 1.1.5.2 0 .5-.1.69-.2" class="Bracket" style="stroke-width:.992001"/><path fill="none" stroke="#000" stroke-linecap="square" stroke-linejoin="bevel" stroke-width="2.73" d="M1.37 569.21v246.37m0-246.37H16.5M1.37 815.58H16.5" class="Bracket"/></svg>