<svg xmlns="http://www.w3.org/2000/svg" width="2551.18" height="1306.01" version="1.2"><path fill="none" stroke="#000" stroke-linejoin="bevel" stroke-width="2.73" d="M0 61.65h2551.18M0 86.45h2551.18M0 111.25h2551.18M0 136.05h2551.18M0 160.85h2551.18M0 312.85h2551.18M0 337.65h2551.18M0 362.45h2551.18M0 387.25h2551.18M0 412.05h2551.18M0 560.85h2551.18M0 585.65h2551.18M0 610.45h2551.18M0 635.25h2551.18M0 660.05h2551.18M0 808.85h2551.18M0 833.65h2551.18M0 858.45h2551.18M0 883.25h2551.18M0 908.05h2551.18M0 1165.44h2551.18M0 1190.24h2551.18M0 1215.04h2551.18M0 1239.84h2551.18M0 1264.64h2551.18" class="StaffLines"/><path d="M1258.94 1007.24a4.7 4.7 0 1 0 0 9.4 4.7 4.7 0 0 0 0-9.4m16.65 0a4.7 4.7 0 1 0 0 9.4 4.7 4.7 0 0 0 0-9.4m16.65 0a4.7 4.7 0 1 0 0 9.4 4.7 4.7 0 0 0 0-9.4" class="Text"/><path fill="none" stroke="#000" stroke-linejoin="bevel" stroke-width="4.46" d="M1373.08 60.28v101.93M2535.31 60.28v101.93m13.64-101.93v101.93M1395.14 311.48v101.93m1140.17-101.93v101.93m13.64-101.93v101.93M1359.97 559.48v101.93m1175.34-101.93v101.93m13.64-101.93v101.93M1370.34 807.48v101.93m1164.97-101.93v101.93m13.64-101.93v101.93m-1391.99 254.66V1266m1249.24-101.93V1266m120.8-101.93V1266" class="BarLine"/><path fill="none" stroke="#000" stroke-linejoin="bevel" stroke-width="13.64" d="M2544.36 1164.07V1266" class="BarLine"/><path fill="none" stroke="#000" stroke-linejoin="bevel" stroke-width="3.97" d="M200.2 185.65h49.58m531.4 0h49.6m120.5 954.99h49.6m13.07 0h49.6m13.07 0h49.6m-49.6-24.8h49.6m65.21 24.8h49.6m-49.6-24.8h49.6m25.64 24.8h49.6m-49.6-24.8h49.6m25.64 24.8h49.6m25.64 0h49.6m100.89 0h49.6m25.64 0h49.6m25.64 0h49.6m-49.6-24.8h49.6m25.64 24.8h49.6m-49.6-24.8h49.6m25.64 24.8h49.6m-49.6-24.8h49.6m25.64 24.8h49.6m25.64 0h49.6" class="LedgerLine"/><path fill="none" stroke="#000" stroke-linejoin="bevel" stroke-width="2.73" d="M239.74 182.47v-71.22m72.62 58.82v-69.15m72.62 56.75V90.58m72.63 54.69V80.25m72.62 52.62V61.65m72.63 83.62V71.98m72.62 85.69V82.32m72.62 87.75V92.65m72.63 89.82v-71.22m72.62 58.82v-69.15m72.62 56.75V90.58m72.63 54.69V80.25m72.62 52.62V43.05m72.63 77.42V34.78m72.62 73.29V26.52m72.63 69.15V18.25m79.82 71.53v77.27m70.34-64.87v73.14m70.35-60.74v69m70.34-56.6v64.87m99.85-58.98V43.05m70.35 77.42V34.78m70.35 73.29V26.52m70.34 69.15V18.25m40.84 71.53v77.27m70.34-64.87v73.14m70.35-60.74v69m70.34-56.6v64.87m99.85-58.98V61.65m70.35 83.62V71.98m70.34 85.69V82.32m70.35 87.75V92.65M320.31 421.27v-77.42m68.94 65.02v-75.36m68.93 62.96v-73.29m68.94 60.89v-71.22m68.94 58.82v-65.02M665 384.07v-67.09m68.93 79.49v-69.16m68.93 81.56v-71.22m68.94 83.62v-77.42m68.93 65.02v-75.36m68.94 62.96v-73.29m68.93 60.89v-71.22m39.43 65.33v64.87m68.94-77.27v69m68.93-81.4v73.13m68.94-85.53v77.27m106.14-89.67v77.27m68.93-64.87v75.2m68.94-62.8v73.13m68.93-60.73v71.07m68.94-58.67v64.87m68.93-77.27v69m68.95-81.4v73.13m68.92-85.53v77.27m68.94-89.67v77.27m68.94-64.87v75.2m68.93-62.8v73.13m68.94-60.73v71.07m98.44-65.18v-65.02m68.93 77.42v-67.09m68.94 79.49v-69.16m68.93 81.56v-71.22M249.98 669.27v-77.42m71.17 65.02v-75.36m71.16 62.96v-73.29m71.17 60.89v-71.22m71.16 58.82v-65.02m71.16 77.42v-67.09m71.17 79.49v-69.16m71.16 81.56v-71.22m71.17 83.62v-77.42m71.16 65.02v-75.36m71.17 62.96v-73.29m71.17 60.89v-71.22m41.65 65.33v64.87m71.16-77.27v69m71.17-81.4v73.13m71.16-85.53v77.27m107.87-89.67v77.27m71.17-64.87v75.2m71.16-62.8v73.13m71.16-60.73v71.07m71.17-58.67v64.87m71.16-77.27v69m71.17-81.4v73.13m71.16-85.53v77.27m71.17-89.67v77.27m71.17-64.87v75.2m71.15-62.8v73.13m71.17-60.73v71.07m100.68-65.18v-65.02m71.15 77.42v-67.09m71.17 79.49v-69.16m71.16 81.56v-71.22M270.71 904.87v-71.22m70.52 58.82v-69.16m70.52 56.76v-67.09m70.51 54.69v-65.02m70.52 52.62v-71.22m70.52 83.62v-73.29m70.51 85.69v-75.36m70.52 87.76v-77.42m70.52 89.82v-71.22m70.51 58.82v-69.16m70.52 56.76v-67.09m70.52 54.69v-65.02m41.01 59.13v71.07m70.51-83.47v73.13m70.52-85.53v75.2m70.52-87.6v77.27m107.22-89.67v83.47m70.52-71.07v81.4m70.51-69v79.33m70.52-66.93v77.27m70.51-64.87v71.07m70.52-83.47v73.13m70.52-85.53v75.2m70.52-87.6v77.27m70.51-89.67v83.47m70.51-71.07v81.4m70.52-69v79.33m70.52-66.93v77.27m100.02-71.38v-71.22m70.52 83.62v-73.29m70.51 85.69v-75.36m70.52 87.76v-77.42M146.68 1205.97v64.87m62.66-77.27v66.93m62.67-79.33v69m62.66-81.4v71.07m62.67-83.47v77.27m62.66-64.87v75.2m62.67-62.8v73.13m62.67-60.73v71.07m62.66-58.67v64.87m62.67-77.27v66.93m62.66-79.33v69m62.67-81.4v71.07m62.66-83.47v64.87m62.67-77.27v73.13m62.67-85.53v81.4m62.66-93.8v89.67m114.82-102.07v89.67m75.24-77.27v81.4m75.24-69v73.13m75.24-60.73v64.87m75.24-52.47v64.87m75.24-77.27v73.13m75.24-85.53v81.4m75.24-93.8v89.67m75.24-102.07v89.67m75.24-77.27v81.4m75.24-69v73.13m75.24-60.73v64.87m75.24-52.47v77.27m75.24-64.87v75.2m75.24-62.8v73.13m75.24-60.73v71.07m111.95-58.67v77.27" class="Stem"/><path d="M240.12 177.61c-1.79-3.27-5.56-5.05-10.12-5.05-3.37 0-7.04.99-10.61 2.87-6.55 3.47-10.52 9.33-10.52 14.39 0 1.39.3 2.77 1 4.06 1.78 3.28 5.55 4.96 10.11 4.96 3.37 0 7.04-.89 10.62-2.77 6.54-3.48 10.51-9.33 10.51-14.39a8.5 8.5 0 0 0-1-4.07m72.63-12.4c-1.78-3.27-5.55-5.05-10.12-5.05-3.37 0-7.04.99-10.61 2.87-6.55 3.47-10.52 9.33-10.52 14.39 0 1.39.3 2.77 1 4.06 1.78 3.28 5.55 4.96 10.11 4.96 3.38 0 7.05-.89 10.62-2.77 6.55-3.48 10.51-9.33 10.51-14.39a8.5 8.5 0 0 0-.99-4.07m72.63-12.4c-1.79-3.27-5.56-5.05-10.12-5.05-3.38 0-7.05.99-10.62 2.87-6.54 3.47-10.51 9.33-10.51 14.39 0 1.39.3 2.77.99 4.06 1.79 3.28 5.56 4.96 10.12 4.96 3.37 0 7.04-.89 10.61-2.77 6.55-3.48 10.52-9.33 10.52-14.39a8.5 8.5 0 0 0-1-4.07m72.63-12.4c-1.79-3.27-5.56-5.05-10.12-5.05-3.37 0-7.04.99-10.61 2.87-6.55 3.47-10.52 9.33-10.52 14.39 0 1.39.3 2.77 1 4.06 1.78 3.28 5.55 4.96 10.11 4.96 3.38 0 7.05-.89 10.62-2.77 6.54-3.48 10.51-9.33 10.51-14.39a8.5 8.5 0 0 0-.99-4.07m72.62-12.4c-1.78-3.27-5.55-5.05-10.11-5.05-3.38 0-7.05.99-10.62 2.87-6.55 3.47-10.51 9.33-10.51 14.39 0 1.39.3 2.77.99 4.06 1.78 3.28 5.55 4.96 10.12 4.96 3.37 0 7.04-.89 10.61-2.77 6.55-3.48 10.52-9.33 10.52-14.39a8.5 8.5 0 0 0-1-4.07m72.63 12.4c-1.79-3.27-5.56-5.05-10.12-5.05-3.37 0-7.04.99-10.62 2.87-6.54 3.47-10.51 9.33-10.51 14.39 0 1.39.3 2.77 1 4.06 1.78 3.28 5.55 4.96 10.1 4.96 3.38 0 7.05-.89 10.62-2.77 6.55-3.48 10.52-9.33 10.52-14.39a8.5 8.5 0 0 0-1-4.07m72.63 12.4c-1.78-3.27-5.55-5.05-10.12-5.05-3.37 0-7.04.99-10.61 2.87-6.55 3.47-10.52 9.33-10.52 14.39 0 1.39.3 2.77 1 4.06 1.78 3.28 5.55 4.96 10.11 4.96 3.38 0 7.05-.89 10.62-2.77 6.54-3.48 10.51-9.33 10.51-14.39a8.5 8.5 0 0 0-.99-4.07m72.63 12.4c-1.8-3.27-5.56-5.05-10.12-5.05-3.38 0-7.05.99-10.62 2.87-6.54 3.47-10.51 9.33-10.51 14.39 0 1.39.3 2.77.99 4.06 1.78 3.28 5.55 4.96 10.12 4.96 3.37 0 7.04-.89 10.61-2.77 6.55-3.48 10.52-9.33 10.52-14.39a8.5 8.5 0 0 0-1-4.07m72.63 12.4c-1.79-3.27-5.56-5.05-10.12-5.05-3.37 0-7.04.99-10.61 2.87-6.55 3.47-10.52 9.33-10.52 14.39 0 1.39.3 2.77 1 4.06 1.78 3.28 5.55 4.96 10.11 4.96 3.38 0 7.05-.89 10.62-2.77 6.54-3.48 10.51-9.33 10.51-14.39a8.5 8.5 0 0 0-.99-4.07m72.62-12.4c-1.79-3.27-5.56-5.05-10.12-5.05-3.37 0-7.04.99-10.61 2.87-6.55 3.47-10.52 9.33-10.52 14.39 0 1.39.3 2.77 1 4.06 1.78 3.28 5.55 4.96 10.11 4.96 3.38 0 7.05-.89 10.62-2.77 6.54-3.48 10.51-9.33 10.51-14.39a8.5 8.5 0 0 0-.99-4.07m72.63-12.4c-1.79-3.27-5.56-5.05-10.12-5.05-3.37 0-7.04.99-10.61 2.87-6.55 3.47-10.52 9.33-10.52 14.39 0 1.39.3 2.77 1 4.06 1.78 3.28 5.55 4.96 10.11 4.96 3.38 0 7.05-.89 10.62-2.77 6.54-3.48 10.51-9.33 10.51-14.39a8.5 8.5 0 0 0-.99-4.07m72.62-12.4c-1.79-3.27-5.56-5.05-10.12-5.05-3.37 0-7.04.99-10.61 2.87-6.55 3.47-10.52 9.33-10.52 14.39 0 1.39.3 2.77 1 4.06 1.78 3.28 5.55 4.96 10.11 4.96 3.38 0 7.05-.89 10.62-2.77 6.54-3.48 10.51-9.33 10.51-14.39a8.5 8.5 0 0 0-.99-4.07m72.62-12.4c-1.79-3.27-5.56-5.05-10.12-5.05-3.37 0-7.04.99-10.61 2.87-6.55 3.47-10.52 9.33-10.52 14.39 0 1.39.3 2.77 1 4.06 1.78 3.28 5.55 4.96 10.11 4.96 3.38 0 7.05-.89 10.62-2.77 6.54-3.48 10.51-9.33 10.51-14.39a8.5 8.5 0 0 0-.99-4.07m72.63-12.4c-1.79-3.27-5.56-5.05-10.12-5.05-3.37 0-7.04.99-10.61 2.87-6.55 3.47-10.52 9.33-10.52 14.39 0 1.39.3 2.77 1 4.06 1.78 3.28 5.55 4.96 10.11 4.96 3.38 0 7.05-.89 10.62-2.77 6.54-3.48 10.51-9.33 10.51-14.39a8.5 8.5 0 0 0-.99-4.07m72.62-12.4c-1.79-3.27-5.56-5.05-10.12-5.05-3.37 0-7.04.99-10.61 2.87-6.55 3.47-10.52 9.33-10.52 14.39 0 1.39.3 2.77 1 4.06 1.78 3.28 5.55 4.96 10.11 4.96 3.38 0 7.05-.89 10.62-2.77 6.54-3.48 10.51-9.33 10.51-14.39a8.5 8.5 0 0 0-.99-4.07m72.62-12.4c-1.79-3.27-5.56-5.05-10.12-5.05-3.37 0-7.04.99-10.61 2.87-6.55 3.47-10.52 9.33-10.52 14.39 0 1.39.3 2.77 1 4.06 1.78 3.28 5.55 4.96 10.11 4.96 3.38 0 7.05-.89 10.62-2.77 6.54-3.48 10.51-9.33 10.51-14.39a8.5 8.5 0 0 0-.99-4.07m109.33-12.4c-1.79-3.27-5.56-5.05-10.12-5.05-3.37 0-7.04.99-10.61 2.87-6.55 3.47-10.52 9.33-10.52 14.39 0 1.39.3 2.77 1 4.06 1.78 3.28 5.55 4.96 10.11 4.96 3.38 0 7.05-.89 10.62-2.77 6.54-3.48 10.51-9.33 10.51-14.39a8.5 8.5 0 0 0-.99-4.07m70.35 12.4c-1.79-3.27-5.56-5.05-10.12-5.05-3.37 0-7.04.99-10.61 2.87-6.55 3.47-10.52 9.33-10.52 14.39 0 1.39.3 2.77 1 4.06 1.78 3.28 5.55 4.96 10.11 4.96 3.38 0 7.05-.89 10.62-2.77 6.54-3.48 10.51-9.33 10.51-14.39a8.5 8.5 0 0 0-.99-4.07m70.34 12.4c-1.79-3.27-5.56-5.05-10.12-5.05-3.37 0-7.04.99-10.61 2.87-6.55 3.47-10.52 9.33-10.52 14.39 0 1.39.3 2.77 1 4.06 1.78 3.28 5.55 4.96 10.11 4.96 3.38 0 7.05-.89 10.62-2.77 6.54-3.48 10.51-9.33 10.51-14.39a8.5 8.5 0 0 0-.99-4.07m70.35 12.4c-1.79-3.27-5.56-5.05-10.12-5.05-3.37 0-7.04.99-10.61 2.87-6.55 3.47-10.52 9.33-10.52 14.39 0 1.39.3 2.77 1 4.06 1.78 3.28 5.55 4.96 10.11 4.96 3.38 0 7.05-.89 10.62-2.77 6.54-3.48 10.51-9.33 10.51-14.39a8.5 8.5 0 0 0-.99-4.07m70.34 12.4c-1.79-3.27-5.56-5.05-10.12-5.05-3.37 0-7.04.99-10.61 2.87-6.55 3.47-10.52 9.33-10.52 14.39 0 1.39.3 2.77 1 4.06 1.78 3.28 5.55 4.96 10.11 4.96 3.38 0 7.05-.89 10.62-2.77 6.54-3.48 10.51-9.33 10.51-14.39a8.5 8.5 0 0 0-.99-4.07m70.35-12.4c-1.79-3.27-5.56-5.05-10.12-5.05-3.37 0-7.04.99-10.61 2.87-6.55 3.47-10.52 9.33-10.52 14.39 0 1.39.3 2.77 1 4.06 1.78 3.28 5.55 4.96 10.11 4.96 3.38 0 7.05-.89 10.62-2.77 6.54-3.48 10.51-9.33 10.51-14.39a8.5 8.5 0 0 0-.99-4.07m70.34-12.4c-1.79-3.27-5.56-5.05-10.12-5.05-3.37 0-7.04.99-10.61 2.87-6.55 3.47-10.52 9.33-10.52 14.39 0 1.39.3 2.77 1 4.06 1.78 3.28 5.55 4.96 10.11 4.96 3.38 0 7.05-.89 10.62-2.77 6.54-3.48 10.51-9.33 10.51-14.39a8.5 8.5 0 0 0-.99-4.07m70.35-12.4c-1.79-3.27-5.56-5.05-10.12-5.05-3.37 0-7.04.99-10.61 2.87-6.55 3.47-10.52 9.33-10.52 14.39 0 1.39.3 2.77 1 4.06 1.78 3.28 5.55 4.96 10.11 4.96 3.38 0 7.05-.89 10.62-2.77 6.54-3.48 10.51-9.33 10.51-14.39a8.5 8.5 0 0 0-.99-4.07m70.34-12.4c-1.79-3.27-5.56-5.05-10.12-5.05-3.37 0-7.04.99-10.61 2.87-6.55 3.47-10.52 9.33-10.52 14.39 0 1.39.3 2.77 1 4.06 1.78 3.28 5.55 4.96 10.11 4.96 3.38 0 7.05-.89 10.62-2.77 6.54-3.48 10.51-9.33 10.51-14.39a8.5 8.5 0 0 0-.99-4.07m70.35 12.4c-1.79-3.27-5.56-5.05-10.12-5.05-3.37 0-7.04.99-10.61 2.87-6.55 3.47-10.52 9.33-10.52 14.39 0 1.39.3 2.77 1 4.06 1.78 3.28 5.55 4.96 10.11 4.96 3.38 0 7.05-.89 10.62-2.77 6.54-3.48 10.51-9.33 10.51-14.39a8.5 8.5 0 0 0-.99-4.07m70.34 12.4c-1.79-3.27-5.56-5.05-10.12-5.05-3.37 0-7.04.99-10.61 2.87-6.55 3.47-10.52 9.33-10.52 14.39 0 1.39.3 2.77 1 4.06 1.78 3.28 5.55 4.96 10.11 4.96 3.38 0 7.05-.89 10.62-2.77 6.54-3.48 10.51-9.33 10.51-14.39a8.5 8.5 0 0 0-.99-4.07m70.35 12.4c-1.79-3.27-5.56-5.05-10.12-5.05-3.37 0-7.04.99-10.61 2.87-6.55 3.47-10.52 9.33-10.52 14.39 0 1.39.3 2.77 1 4.06 1.78 3.28 5.55 4.96 10.11 4.96 3.38 0 7.05-.89 10.62-2.77 6.54-3.48 10.51-9.33 10.51-14.39a8.5 8.5 0 0 0-.99-4.07m70.34 12.4c-1.79-3.27-5.56-5.05-10.12-5.05-3.37 0-7.04.99-10.61 2.87-6.55 3.47-10.52 9.33-10.52 14.39 0 1.39.3 2.77 1 4.06 1.78 3.28 5.55 4.96 10.11 4.96 3.38 0 7.05-.89 10.62-2.77 6.54-3.48 10.51-9.33 10.51-14.39a8.5 8.5 0 0 0-.99-4.07m70.35 12.4c-1.79-3.27-5.56-5.05-10.12-5.05-3.37 0-7.04.99-10.61 2.87-6.55 3.47-10.52 9.33-10.52 14.39 0 1.39.3 2.77 1 4.06 1.78 3.28 5.55 4.96 10.11 4.96 3.38 0 7.05-.89 10.62-2.77 6.54-3.48 10.51-9.33 10.51-14.39a8.5 8.5 0 0 0-.99-4.07m70.35 12.4c-1.79-3.27-5.56-5.05-10.12-5.05-3.37 0-7.04.99-10.61 2.87-6.55 3.47-10.52 9.33-10.52 14.39 0 1.39.3 2.77 1 4.06 1.78 3.28 5.55 4.96 10.11 4.96 3.38 0 7.05-.89 10.62-2.77 6.54-3.48 10.51-9.33 10.51-14.39a8.5 8.5 0 0 0-.99-4.07m70.34 12.4c-1.79-3.27-5.56-5.05-10.12-5.05-3.37 0-7.04.99-10.61 2.87-6.55 3.47-10.52 9.33-10.52 14.39 0 1.39.3 2.77 1 4.06 1.78 3.28 5.55 4.96 10.11 4.96 3.38 0 7.05-.89 10.62-2.77 6.54-3.48 10.51-9.33 10.51-14.39a8.5 8.5 0 0 0-.99-4.07M320.7 416.41c-1.8-3.27-5.56-5.06-10.12-5.06-3.38 0-7.05 1-10.62 2.88-6.54 3.47-10.51 9.33-10.51 14.39 0 1.38.3 2.77.99 4.06 1.78 3.28 5.55 4.96 10.12 4.96 3.37 0 7.04-.89 10.61-2.77 6.55-3.48 10.52-9.33 10.52-14.39a8.5 8.5 0 0 0-1-4.07m68.94-12.4c-1.78-3.27-5.55-5.06-10.12-5.06-3.37 0-7.04 1-10.61 2.88-6.55 3.47-10.52 9.33-10.52 14.39 0 1.38.3 2.77 1 4.06 1.78 3.28 5.55 4.96 10.11 4.96 3.38 0 7.05-.89 10.62-2.77 6.54-3.48 10.51-9.33 10.51-14.39a8.5 8.5 0 0 0-.99-4.07m68.94-12.4c-1.79-3.27-5.56-5.06-10.12-5.06-3.38 0-7.05 1-10.62 2.88-6.54 3.47-10.51 9.33-10.51 14.39 0 1.38.3 2.77.99 4.06 1.79 3.28 5.56 4.96 10.12 4.96 3.37 0 7.04-.89 10.61-2.77 6.55-3.48 10.52-9.33 10.52-14.39a8.5 8.5 0 0 0-1-4.07m68.94-12.4c-1.78-3.27-5.55-5.06-10.12-5.06-3.37 0-7.04 1-10.61 2.88-6.55 3.47-10.52 9.33-10.52 14.39 0 1.38.3 2.77 1 4.06 1.78 3.28 5.55 4.96 10.11 4.96 3.38 0 7.05-.89 10.62-2.77 6.55-3.48 10.51-9.33 10.51-14.39a8.5 8.5 0 0 0-.99-4.07m68.94-12.4c-1.79-3.27-5.56-5.06-10.12-5.06-3.37 0-7.04 1-10.62 2.88-6.54 3.47-10.51 9.33-10.51 14.39 0 1.38.3 2.77 1 4.06 1.78 3.28 5.55 4.96 10.1 4.96 3.38 0 7.05-.89 10.62-2.77 6.55-3.48 10.52-9.33 10.52-14.39a8.5 8.5 0 0 0-1-4.07m68.94 12.4c-1.78-3.27-5.55-5.06-10.12-5.06-3.37 0-7.04 1-10.61 2.88-6.55 3.47-10.52 9.33-10.52 14.39 0 1.38.3 2.77 1 4.06 1.78 3.28 5.55 4.96 10.11 4.96 3.38 0 7.05-.89 10.62-2.77 6.55-3.48 10.51-9.33 10.51-14.39a8.5 8.5 0 0 0-.99-4.07m68.93 12.4c-1.78-3.27-5.55-5.06-10.11-5.06-3.37 0-7.04 1-10.61 2.88-6.55 3.47-10.52 9.33-10.52 14.39 0 1.38.3 2.77 1 4.06 1.78 3.28 5.55 4.96 10.11 4.96 3.37 0 7.04-.89 10.61-2.77 6.55-3.48 10.52-9.33 10.52-14.39a8.5 8.5 0 0 0-1-4.07m68.94 12.4c-1.78-3.27-5.55-5.06-10.12-5.06-3.37 0-7.04 1-10.61 2.88-6.55 3.47-10.51 9.33-10.51 14.39 0 1.38.3 2.77.99 4.06 1.78 3.28 5.55 4.96 10.12 4.96 3.37 0 7.04-.89 10.61-2.77 6.55-3.48 10.51-9.33 10.51-14.39a8.5 8.5 0 0 0-.99-4.07m68.94 12.4c-1.79-3.27-5.56-5.06-10.12-5.06-3.37 0-7.04 1-10.61 2.88-6.55 3.47-10.52 9.33-10.52 14.39 0 1.38.3 2.77 1 4.06 1.78 3.28 5.55 4.96 10.11 4.96 3.38 0 7.05-.89 10.62-2.77 6.54-3.48 10.51-9.33 10.51-14.39a8.5 8.5 0 0 0-.99-4.07m68.93-12.4c-1.79-3.27-5.56-5.06-10.12-5.06-3.37 0-7.04 1-10.61 2.88-6.55 3.47-10.52 9.33-10.52 14.39 0 1.38.3 2.77 1 4.06 1.78 3.28 5.55 4.96 10.11 4.96 3.38 0 7.05-.89 10.62-2.77 6.54-3.48 10.51-9.33 10.51-14.39a8.5 8.5 0 0 0-.99-4.07m68.94-12.4c-1.79-3.27-5.56-5.06-10.12-5.06-3.37 0-7.04 1-10.61 2.88-6.55 3.47-10.52 9.33-10.52 14.39 0 1.38.3 2.77 1 4.06 1.78 3.28 5.55 4.96 10.11 4.96 3.38 0 7.05-.89 10.62-2.77 6.54-3.48 10.51-9.33 10.51-14.39a8.5 8.5 0 0 0-.99-4.07m68.93-12.4c-1.79-3.27-5.56-5.06-10.12-5.06-3.37 0-7.04 1-10.61 2.88-6.55 3.47-10.52 9.33-10.52 14.39 0 1.38.3 2.77 1 4.06 1.78 3.28 5.55 4.96 10.11 4.96 3.38 0 7.05-.89 10.62-2.77 6.54-3.48 10.51-9.33 10.51-14.39a8.5 8.5 0 0 0-.99-4.07m68.94-12.4c-1.79-3.27-5.56-5.06-10.12-5.06-3.37 0-7.04 1-10.61 2.88-6.55 3.47-10.52 9.33-10.52 14.39 0 1.38.3 2.77 1 4.06 1.78 3.28 5.55 4.96 10.11 4.96 3.38 0 7.05-.89 10.62-2.77 6.54-3.48 10.51-9.33 10.51-14.39a8.5 8.5 0 0 0-.99-4.07m68.94-12.4c-1.79-3.27-5.56-5.06-10.12-5.06-3.37 0-7.04 1-10.61 2.88-6.55 3.47-10.52 9.33-10.52 14.39 0 1.38.3 2.77 1 4.06 1.78 3.28 5.55 4.96 10.11 4.96 3.38 0 7.05-.89 10.62-2.77 6.54-3.48 10.51-9.33 10.51-14.39a8.5 8.5 0 0 0-.99-4.07m68.93-12.4c-1.79-3.27-5.56-5.06-10.12-5.06-3.37 0-7.04 1-10.61 2.88-6.55 3.47-10.52 9.33-10.52 14.39 0 1.38.3 2.77 1 4.06 1.78 3.28 5.55 4.96 10.11 4.96 3.38 0 7.05-.89 10.62-2.77 6.54-3.48 10.51-9.33 10.51-14.39a8.5 8.5 0 0 0-.99-4.07m68.94-12.4c-1.79-3.27-5.56-5.06-10.12-5.06-3.37 0-7.04 1-10.61 2.88-6.55 3.47-10.52 9.33-10.52 14.39 0 1.38.3 2.77 1 4.06 1.78 3.28 5.55 4.96 10.11 4.96 3.38 0 7.05-.89 10.62-2.77 6.54-3.48 10.51-9.33 10.51-14.39a8.5 8.5 0 0 0-.99-4.07m106.13-12.4c-1.79-3.27-5.56-5.06-10.12-5.06-3.37 0-7.04 1-10.61 2.88-6.55 3.47-10.52 9.33-10.52 14.39 0 1.38.3 2.77 1 4.06 1.78 3.28 5.55 4.96 10.11 4.96 3.38 0 7.05-.89 10.62-2.77 6.54-3.48 10.51-9.33 10.51-14.39a8.5 8.5 0 0 0-.99-4.07m68.94 12.4c-1.79-3.27-5.56-5.06-10.12-5.06-3.37 0-7.04 1-10.61 2.88-6.55 3.47-10.52 9.33-10.52 14.39 0 1.38.3 2.77 1 4.06 1.78 3.28 5.55 4.96 10.11 4.96 3.38 0 7.05-.89 10.62-2.77 6.54-3.48 10.51-9.33 10.51-14.39a8.5 8.5 0 0 0-.99-4.07m68.93 12.4c-1.79-3.27-5.56-5.06-10.12-5.06-3.37 0-7.04 1-10.61 2.88-6.55 3.47-10.52 9.33-10.52 14.39 0 1.38.3 2.77 1 4.06 1.78 3.28 5.55 4.96 10.11 4.96 3.38 0 7.05-.89 10.62-2.77 6.54-3.48 10.51-9.33 10.51-14.39a8.5 8.5 0 0 0-.99-4.07m68.94 12.4c-1.79-3.27-5.56-5.06-10.12-5.06-3.37 0-7.04 1-10.61 2.88-6.55 3.47-10.52 9.33-10.52 14.39 0 1.38.3 2.77 1 4.06 1.78 3.28 5.55 4.96 10.11 4.96 3.38 0 7.05-.89 10.62-2.77 6.54-3.48 10.51-9.33 10.51-14.39a8.5 8.5 0 0 0-.99-4.07m68.93 12.4c-1.79-3.27-5.56-5.06-10.12-5.06-3.37 0-7.04 1-10.61 2.88-6.55 3.47-10.52 9.33-10.52 14.39 0 1.38.3 2.77 1 4.06 1.78 3.28 5.55 4.96 10.11 4.96 3.38 0 7.05-.89 10.62-2.77 6.54-3.48 10.51-9.33 10.51-14.39a8.5 8.5 0 0 0-.99-4.07m68.94-12.4c-1.79-3.27-5.56-5.06-10.12-5.06-3.37 0-7.04 1-10.61 2.88-6.55 3.47-10.52 9.33-10.52 14.39 0 1.38.3 2.77 1 4.06 1.78 3.28 5.55 4.96 10.11 4.96 3.38 0 7.05-.89 10.62-2.77 6.54-3.48 10.51-9.33 10.51-14.39a8.5 8.5 0 0 0-.99-4.07m68.93-12.4c-1.79-3.27-5.56-5.06-10.12-5.06-3.37 0-7.04 1-10.61 2.88-6.55 3.47-10.52 9.33-10.52 14.39 0 1.38.3 2.77 1 4.06 1.78 3.28 5.55 4.96 10.11 4.96 3.38 0 7.05-.89 10.62-2.77 6.54-3.48 10.51-9.33 10.51-14.39a8.5 8.5 0 0 0-.99-4.07m68.94-12.4c-1.79-3.27-5.56-5.06-10.12-5.06-3.37 0-7.04 1-10.61 2.88-6.55 3.47-10.52 9.33-10.52 14.39 0 1.38.3 2.77 1 4.06 1.78 3.28 5.55 4.96 10.11 4.96 3.38 0 7.05-.89 10.62-2.77 6.54-3.48 10.51-9.33 10.51-14.39a8.5 8.5 0 0 0-.99-4.07m68.94-12.4c-1.79-3.27-5.56-5.06-10.12-5.06-3.37 0-7.04 1-10.61 2.88-6.55 3.47-10.52 9.33-10.52 14.39 0 1.38.3 2.77 1 4.06 1.78 3.28 5.55 4.96 10.11 4.96 3.38 0 7.05-.89 10.62-2.77 6.54-3.48 10.51-9.33 10.51-14.39a8.5 8.5 0 0 0-.99-4.07m68.93 12.4c-1.79-3.27-5.56-5.06-10.12-5.06-3.37 0-7.04 1-10.61 2.88-6.55 3.47-10.52 9.33-10.52 14.39 0 1.38.3 2.77 1 4.06 1.78 3.28 5.55 4.96 10.11 4.96 3.38 0 7.05-.89 10.62-2.77 6.54-3.48 10.51-9.33 10.51-14.39a8.5 8.5 0 0 0-.99-4.07m68.94 12.4c-1.79-3.27-5.56-5.06-10.12-5.06-3.37 0-7.04 1-10.61 2.88-6.55 3.47-10.52 9.33-10.52 14.39 0 1.38.3 2.77 1 4.06 1.78 3.28 5.55 4.96 10.11 4.96 3.38 0 7.05-.89 10.62-2.77 6.54-3.48 10.51-9.33 10.51-14.39a8.5 8.5 0 0 0-.99-4.07m68.93 12.4c-1.79-3.27-5.56-5.06-10.12-5.06-3.37 0-7.04 1-10.61 2.88-6.55 3.47-10.52 9.33-10.52 14.39 0 1.38.3 2.77 1 4.06 1.78 3.28 5.55 4.96 10.11 4.96 3.38 0 7.05-.89 10.62-2.77 6.54-3.48 10.51-9.33 10.51-14.39a8.5 8.5 0 0 0-.99-4.07m68.94 12.4c-1.79-3.27-5.56-5.06-10.12-5.06-3.37 0-7.04 1-10.61 2.88-6.55 3.47-10.52 9.33-10.52 14.39 0 1.38.3 2.77 1 4.06 1.78 3.28 5.55 4.96 10.11 4.96 3.38 0 7.05-.89 10.62-2.77 6.54-3.48 10.51-9.33 10.51-14.39a8.5 8.5 0 0 0-.99-4.07m68.93 12.4c-1.79-3.27-5.56-5.06-10.12-5.06-3.37 0-7.04 1-10.61 2.88-6.55 3.47-10.52 9.33-10.52 14.39 0 1.38.3 2.77 1 4.06 1.78 3.28 5.55 4.96 10.11 4.96 3.38 0 7.05-.89 10.62-2.77 6.54-3.48 10.51-9.33 10.51-14.39a8.5 8.5 0 0 0-.99-4.07m68.94 12.4c-1.79-3.27-5.56-5.06-10.12-5.06-3.37 0-7.04 1-10.61 2.88-6.55 3.47-10.52 9.33-10.52 14.39 0 1.38.3 2.77 1 4.06 1.78 3.28 5.55 4.96 10.11 4.96 3.38 0 7.05-.89 10.62-2.77 6.54-3.48 10.51-9.33 10.51-14.39a8.5 8.5 0 0 0-.99-4.07m68.93 12.4c-1.79-3.27-5.56-5.06-10.12-5.06-3.37 0-7.04 1-10.61 2.88-6.55 3.47-10.52 9.33-10.52 14.39 0 1.38.3 2.77 1 4.06 1.78 3.28 5.55 4.96 10.11 4.96 3.38 0 7.05-.89 10.62-2.77 6.54-3.48 10.51-9.33 10.51-14.39a8.5 8.5 0 0 0-.99-4.07M250.36 664.41c-1.78-3.27-5.55-5.06-10.11-5.06-3.38 0-7.05 1-10.62 2.88-6.55 3.47-10.51 9.33-10.51 14.39 0 1.38.3 2.77.99 4.06 1.78 3.28 5.55 4.96 10.12 4.96 3.37 0 7.04-.89 10.61-2.77 6.55-3.48 10.52-9.33 10.52-14.39a8.5 8.5 0 0 0-1-4.07m71.17-12.4c-1.79-3.27-5.56-5.06-10.12-5.06-3.37 0-7.04 1-10.61 2.88-6.55 3.47-10.52 9.33-10.52 14.39 0 1.38.3 2.77 1 4.06 1.78 3.28 5.55 4.96 10.11 4.96 3.37 0 7.04-.89 10.61-2.78 6.55-3.47 10.52-9.32 10.52-14.38a8.5 8.5 0 0 0-1-4.07m71.18-12.4c-1.8-3.27-5.56-5.06-10.13-5.06-3.37 0-7.04 1-10.61 2.88-6.55 3.47-10.51 9.33-10.51 14.39 0 1.38.3 2.77.99 4.06 1.78 3.28 5.55 4.96 10.12 4.96 3.37 0 7.04-.89 10.61-2.78 6.55-3.47 10.51-9.32 10.51-14.38a8.5 8.5 0 0 0-.99-4.07m71.17-12.4c-1.79-3.27-5.56-5.06-10.12-5.06-3.37 0-7.04 1-10.62 2.88-6.54 3.47-10.51 9.33-10.51 14.39 0 1.38.3 2.77 1 4.06 1.78 3.28 5.55 4.96 10.1 4.96 3.38 0 7.05-.89 10.62-2.78 6.55-3.47 10.52-9.32 10.52-14.38a8.5 8.5 0 0 0-1-4.07m71.17-12.4c-1.78-3.27-5.55-5.06-10.12-5.06-3.37 0-7.04 1-10.61 2.88-6.55 3.47-10.52 9.33-10.52 14.39 0 1.38.3 2.77 1 4.06 1.78 3.28 5.55 4.96 10.11 4.96 3.38 0 7.05-.89 10.62-2.77 6.54-3.48 10.51-9.33 10.51-14.39a8.5 8.5 0 0 0-.99-4.07m71.17 12.4c-1.79-3.27-5.56-5.06-10.12-5.06-3.38 0-7.05 1-10.62 2.88-6.54 3.47-10.51 9.33-10.51 14.39 0 1.38.3 2.77.99 4.06 1.79 3.28 5.56 4.96 10.12 4.96 3.37 0 7.04-.89 10.61-2.78 6.55-3.47 10.52-9.32 10.52-14.38a8.5 8.5 0 0 0-1-4.07m71.17 12.4c-1.79-3.27-5.56-5.06-10.12-5.06-3.37 0-7.04 1-10.61 2.88-6.55 3.47-10.52 9.33-10.52 14.39 0 1.38.3 2.77 1 4.06 1.78 3.28 5.55 4.96 10.11 4.96 3.38 0 7.05-.89 10.62-2.78 6.54-3.47 10.51-9.32 10.51-14.38a8.5 8.5 0 0 0-.99-4.07m71.16 12.4c-1.78-3.27-5.55-5.06-10.11-5.06-3.38 0-7.05 1-10.62 2.88-6.55 3.47-10.51 9.33-10.51 14.39 0 1.38.3 2.77.99 4.06 1.78 3.28 5.55 4.96 10.12 4.96 3.37 0 7.04-.89 10.61-2.78 6.55-3.47 10.52-9.32 10.52-14.38a8.5 8.5 0 0 0-1-4.07m71.17 12.4c-1.79-3.27-5.56-5.06-10.12-5.06-3.37 0-7.04 1-10.61 2.88-6.55 3.47-10.52 9.33-10.52 14.39 0 1.38.3 2.77 1 4.06 1.78 3.28 5.55 4.96 10.11 4.96 3.38 0 7.05-.89 10.62-2.77 6.54-3.48 10.51-9.33 10.51-14.39a8.5 8.5 0 0 0-.99-4.07m71.16-12.4c-1.79-3.27-5.56-5.06-10.12-5.06-3.37 0-7.04 1-10.61 2.88-6.55 3.47-10.52 9.33-10.52 14.39 0 1.38.3 2.77 1 4.06 1.78 3.28 5.55 4.96 10.11 4.96 3.38 0 7.05-.89 10.62-2.78 6.54-3.47 10.51-9.32 10.51-14.38a8.5 8.5 0 0 0-.99-4.07m71.17-12.4c-1.79-3.27-5.56-5.06-10.12-5.06-3.37 0-7.04 1-10.61 2.88-6.55 3.47-10.52 9.33-10.52 14.39 0 1.38.3 2.77 1 4.06 1.78 3.28 5.55 4.96 10.11 4.96 3.38 0 7.05-.89 10.62-2.78 6.54-3.47 10.51-9.32 10.51-14.38a8.5 8.5 0 0 0-.99-4.07m71.16-12.4c-1.79-3.27-5.56-5.06-10.12-5.06-3.37 0-7.04 1-10.61 2.88-6.55 3.47-10.52 9.33-10.52 14.39 0 1.38.3 2.77 1 4.06 1.78 3.28 5.55 4.96 10.11 4.96 3.38 0 7.05-.89 10.62-2.78 6.54-3.47 10.51-9.32 10.51-14.38a8.5 8.5 0 0 0-.99-4.07m71.17-12.4c-1.79-3.27-5.56-5.06-10.12-5.06-3.37 0-7.04 1-10.61 2.88-6.55 3.47-10.52 9.33-10.52 14.39 0 1.38.3 2.77 1 4.06 1.78 3.28 5.55 4.96 10.11 4.96 3.38 0 7.05-.89 10.62-2.77 6.54-3.48 10.51-9.33 10.51-14.39a8.5 8.5 0 0 0-.99-4.07m71.16-12.4c-1.79-3.27-5.56-5.06-10.12-5.06-3.37 0-7.04 1-10.61 2.88-6.55 3.47-10.52 9.33-10.52 14.39 0 1.38.3 2.77 1 4.06 1.78 3.28 5.55 4.96 10.11 4.96 3.38 0 7.05-.89 10.62-2.77 6.54-3.48 10.51-9.33 10.51-14.39a8.5 8.5 0 0 0-.99-4.07m71.16-12.4c-1.79-3.27-5.56-5.06-10.12-5.06-3.37 0-7.04 1-10.61 2.88-6.55 3.47-10.52 9.33-10.52 14.39 0 1.38.3 2.77 1 4.06 1.78 3.28 5.55 4.96 10.11 4.96 3.38 0 7.05-.89 10.62-2.78 6.54-3.47 10.51-9.32 10.51-14.38a8.5 8.5 0 0 0-.99-4.07m71.17-12.4c-1.79-3.27-5.56-5.06-10.12-5.06-3.37 0-7.04 1-10.61 2.88-6.55 3.47-10.52 9.33-10.52 14.39 0 1.38.3 2.77 1 4.06 1.78 3.28 5.55 4.96 10.11 4.96 3.38 0 7.05-.89 10.62-2.78 6.54-3.47 10.51-9.32 10.51-14.38a8.5 8.5 0 0 0-.99-4.07m107.87-12.4c-1.79-3.27-5.56-5.06-10.12-5.06-3.37 0-7.04 1-10.61 2.88-6.55 3.47-10.52 9.33-10.52 14.39 0 1.38.3 2.77 1 4.06 1.78 3.28 5.55 4.96 10.11 4.96 3.38 0 7.05-.89 10.62-2.78 6.54-3.47 10.51-9.32 10.51-14.38a8.5 8.5 0 0 0-.99-4.07m71.16 12.4c-1.79-3.27-5.56-5.06-10.12-5.06-3.37 0-7.04 1-10.61 2.88-6.55 3.47-10.52 9.33-10.52 14.39 0 1.38.3 2.77 1 4.06 1.78 3.28 5.55 4.96 10.11 4.96 3.38 0 7.05-.89 10.62-2.78 6.54-3.47 10.51-9.32 10.51-14.38a8.5 8.5 0 0 0-.99-4.07m71.17 12.4c-1.79-3.27-5.56-5.06-10.12-5.06-3.37 0-7.04 1-10.61 2.88-6.55 3.47-10.52 9.33-10.52 14.39 0 1.38.3 2.77 1 4.06 1.78 3.28 5.55 4.96 10.11 4.96 3.38 0 7.05-.89 10.62-2.78 6.54-3.47 10.51-9.32 10.51-14.38a8.5 8.5 0 0 0-.99-4.07m71.16 12.4c-1.79-3.27-5.56-5.06-10.12-5.06-3.37 0-7.04 1-10.61 2.88-6.55 3.47-10.52 9.33-10.52 14.39 0 1.38.3 2.77 1 4.06 1.78 3.28 5.55 4.96 10.11 4.96 3.38 0 7.05-.89 10.62-2.77 6.54-3.48 10.51-9.33 10.51-14.39a8.5 8.5 0 0 0-.99-4.07m71.16 12.4c-1.79-3.27-5.56-5.06-10.12-5.06-3.37 0-7.04 1-10.61 2.88-6.55 3.47-10.52 9.33-10.52 14.39 0 1.38.3 2.77 1 4.06 1.78 3.28 5.55 4.96 10.11 4.96 3.38 0 7.05-.89 10.62-2.77 6.54-3.48 10.51-9.33 10.51-14.39a8.5 8.5 0 0 0-.99-4.07m71.17-12.4c-1.79-3.27-5.56-5.06-10.12-5.06-3.37 0-7.04 1-10.61 2.88-6.55 3.47-10.52 9.33-10.52 14.39 0 1.38.3 2.77 1 4.06 1.78 3.28 5.55 4.96 10.11 4.96 3.38 0 7.05-.89 10.62-2.77 6.54-3.48 10.51-9.33 10.51-14.39a8.5 8.5 0 0 0-.99-4.07m71.16-12.4c-1.79-3.27-5.56-5.06-10.12-5.06-3.37 0-7.04 1-10.61 2.88-6.55 3.47-10.52 9.33-10.52 14.39 0 1.38.3 2.77 1 4.06 1.78 3.28 5.55 4.96 10.11 4.96 3.38 0 7.05-.89 10.62-2.78 6.54-3.47 10.51-9.32 10.51-14.38a8.5 8.5 0 0 0-.99-4.07m71.17-12.4c-1.79-3.27-5.56-5.06-10.12-5.06-3.37 0-7.04 1-10.61 2.88-6.55 3.47-10.52 9.33-10.52 14.39 0 1.38.3 2.77 1 4.06 1.78 3.28 5.55 4.96 10.11 4.96 3.38 0 7.05-.89 10.62-2.78 6.54-3.47 10.51-9.32 10.51-14.38a8.5 8.5 0 0 0-.99-4.07m71.16-12.4c-1.79-3.27-5.56-5.06-10.12-5.06-3.37 0-7.04 1-10.61 2.88-6.55 3.47-10.52 9.33-10.52 14.39 0 1.38.3 2.77 1 4.06 1.78 3.28 5.55 4.96 10.11 4.96 3.38 0 7.05-.89 10.62-2.78 6.54-3.47 10.51-9.32 10.51-14.38a8.5 8.5 0 0 0-.99-4.07m71.17 12.4c-1.79-3.27-5.56-5.06-10.12-5.06-3.37 0-7.04 1-10.61 2.88-6.55 3.47-10.52 9.33-10.52 14.39 0 1.38.3 2.77 1 4.06 1.78 3.28 5.55 4.96 10.11 4.96 3.38 0 7.05-.89 10.62-2.78 6.54-3.47 10.51-9.32 10.51-14.38a8.5 8.5 0 0 0-.99-4.07m71.16 12.4c-1.79-3.27-5.56-5.06-10.12-5.06-3.37 0-7.04 1-10.61 2.88-6.55 3.47-10.52 9.33-10.52 14.39 0 1.38.3 2.77 1 4.06 1.78 3.28 5.55 4.96 10.11 4.96 3.38 0 7.05-.89 10.62-2.78 6.54-3.47 10.51-9.32 10.51-14.38a8.5 8.5 0 0 0-.99-4.07m71.16 12.4c-1.79-3.27-5.56-5.06-10.12-5.06-3.37 0-7.04 1-10.61 2.88-6.55 3.47-10.52 9.33-10.52 14.39 0 1.38.3 2.77 1 4.06 1.78 3.28 5.55 4.96 10.11 4.96 3.38 0 7.05-.89 10.62-2.77 6.54-3.48 10.51-9.33 10.51-14.39a8.5 8.5 0 0 0-.99-4.07m71.17 12.4c-1.79-3.27-5.56-5.06-10.12-5.06-3.37 0-7.04 1-10.61 2.88-6.55 3.47-10.52 9.33-10.52 14.39 0 1.38.3 2.77 1 4.06 1.78 3.28 5.55 4.96 10.11 4.96 3.38 0 7.05-.89 10.62-2.77 6.54-3.48 10.51-9.33 10.51-14.39a8.5 8.5 0 0 0-.99-4.07m71.16 12.4c-1.79-3.27-5.56-5.06-10.12-5.06-3.37 0-7.04 1-10.61 2.88-6.55 3.47-10.52 9.33-10.52 14.39 0 1.38.3 2.77 1 4.06 1.78 3.28 5.55 4.96 10.11 4.96 3.38 0 7.05-.89 10.62-2.78 6.54-3.47 10.51-9.32 10.51-14.38a8.5 8.5 0 0 0-.99-4.07m71.17 12.4c-1.79-3.27-5.56-5.06-10.12-5.06-3.37 0-7.04 1-10.61 2.88-6.55 3.47-10.52 9.33-10.52 14.39 0 1.38.3 2.77 1 4.06 1.78 3.28 5.55 4.96 10.11 4.96 3.38 0 7.05-.89 10.62-2.78 6.54-3.47 10.51-9.32 10.51-14.38a8.5 8.5 0 0 0-.99-4.07m71.16 12.4c-1.79-3.27-5.56-5.06-10.12-5.06-3.37 0-7.04 1-10.61 2.88-6.55 3.47-10.52 9.33-10.52 14.39 0 1.38.3 2.77 1 4.06 1.78 3.28 5.55 4.96 10.11 4.96 3.38 0 7.05-.89 10.62-2.78 6.54-3.47 10.51-9.32 10.51-14.38a8.5 8.5 0 0 0-.99-4.07M271.1 900.02c-1.8-3.28-5.56-5.06-10.12-5.06-3.38 0-7.05.99-10.62 2.87-6.54 3.48-10.51 9.33-10.51 14.39 0 1.39.3 2.78.99 4.07 1.78 3.27 5.55 4.96 10.12 4.96 3.37 0 7.04-.9 10.61-2.78 6.55-3.47 10.52-9.33 10.52-14.39a8.5 8.5 0 0 0-1-4.06m70.52-12.4c-1.78-3.28-5.55-5.06-10.12-5.06-3.37 0-7.04.99-10.61 2.87-6.55 3.48-10.52 9.33-10.52 14.39 0 1.39.3 2.78 1 4.07 1.78 3.27 5.55 4.96 10.11 4.96 3.38 0 7.05-.9 10.62-2.78 6.55-3.47 10.51-9.33 10.51-14.39a8.5 8.5 0 0 0-.99-4.06m70.52-12.4c-1.79-3.28-5.56-5.06-10.12-5.06-3.37 0-7.04.99-10.61 2.87-6.55 3.48-10.52 9.33-10.52 14.39 0 1.39.3 2.78 1 4.07 1.78 3.27 5.55 4.96 10.11 4.96 3.37 0 7.04-.9 10.61-2.78 6.55-3.47 10.52-9.33 10.52-14.39a8.5 8.5 0 0 0-1-4.06m70.52-12.4c-1.78-3.28-5.55-5.06-10.11-5.06-3.38 0-7.05.99-10.62 2.87-6.55 3.48-10.51 9.33-10.51 14.39 0 1.39.3 2.78.99 4.07 1.78 3.27 5.55 4.96 10.12 4.96 3.37 0 7.04-.9 10.61-2.78 6.55-3.47 10.52-9.33 10.52-14.39a8.5 8.5 0 0 0-1-4.06m70.52-12.4c-1.78-3.28-5.55-5.06-10.12-5.06-3.37 0-7.04.99-10.61 2.87-6.55 3.48-10.52 9.33-10.52 14.39 0 1.39.3 2.78 1 4.07 1.78 3.27 5.55 4.96 10.11 4.96 3.38 0 7.05-.9 10.62-2.78 6.54-3.47 10.51-9.33 10.51-14.39a8.5 8.5 0 0 0-.99-4.06m70.52 12.4c-1.79-3.28-5.56-5.06-10.12-5.06-3.37 0-7.04.99-10.61 2.87-6.55 3.48-10.52 9.33-10.52 14.39 0 1.39.3 2.78 1 4.07 1.78 3.27 5.55 4.96 10.11 4.96 3.37 0 7.04-.9 10.61-2.78 6.55-3.47 10.52-9.33 10.52-14.39a8.5 8.5 0 0 0-1-4.06m70.53 12.4c-1.8-3.28-5.56-5.06-10.12-5.06-3.38 0-7.05.99-10.62 2.87-6.55 3.48-10.51 9.33-10.51 14.39 0 1.39.3 2.78.99 4.07 1.78 3.27 5.55 4.96 10.12 4.96 3.37 0 7.04-.9 10.61-2.78 6.55-3.47 10.52-9.33 10.52-14.39a8.5 8.5 0 0 0-1-4.06m70.52 12.4c-1.78-3.28-5.55-5.06-10.12-5.06-3.37 0-7.04.99-10.61 2.87-6.55 3.48-10.52 9.33-10.52 14.39 0 1.39.3 2.78 1 4.07 1.78 3.27 5.55 4.96 10.11 4.96 3.38 0 7.05-.9 10.62-2.78 6.54-3.47 10.51-9.33 10.51-14.39a8.5 8.5 0 0 0-.99-4.06m70.52 12.4c-1.79-3.28-5.56-5.06-10.12-5.06-3.37 0-7.04.99-10.61 2.87-6.55 3.48-10.52 9.33-10.52 14.39 0 1.39.3 2.78 1 4.07 1.78 3.27 5.55 4.96 10.11 4.96 3.38 0 7.05-.9 10.62-2.78 6.54-3.47 10.51-9.33 10.51-14.39a8.5 8.5 0 0 0-.99-4.06m70.51-12.4c-1.79-3.28-5.56-5.06-10.12-5.06-3.37 0-7.04.99-10.61 2.87-6.55 3.48-10.52 9.33-10.52 14.39 0 1.39.3 2.78 1 4.07 1.78 3.27 5.55 4.96 10.11 4.96 3.38 0 7.05-.9 10.62-2.78 6.54-3.47 10.51-9.33 10.51-14.39a8.5 8.5 0 0 0-.99-4.06m70.52-12.4c-1.79-3.28-5.56-5.06-10.12-5.06-3.37 0-7.04.99-10.61 2.87-6.55 3.48-10.52 9.33-10.52 14.39 0 1.39.3 2.78 1 4.07 1.78 3.27 5.55 4.96 10.11 4.96 3.38 0 7.05-.9 10.62-2.78 6.54-3.47 10.51-9.33 10.51-14.39a8.5 8.5 0 0 0-.99-4.06m70.52-12.4c-1.79-3.28-5.56-5.06-10.12-5.06-3.37 0-7.04.99-10.61 2.87-6.55 3.48-10.52 9.33-10.52 14.39 0 1.39.3 2.78 1 4.07 1.78 3.27 5.55 4.96 10.11 4.96 3.38 0 7.05-.9 10.62-2.78 6.54-3.47 10.51-9.33 10.51-14.39a8.5 8.5 0 0 0-.99-4.06m70.51-12.4c-1.79-3.28-5.56-5.06-10.12-5.06-3.37 0-7.04.99-10.61 2.87-6.55 3.48-10.52 9.33-10.52 14.39 0 1.39.3 2.78 1 4.07 1.78 3.27 5.55 4.96 10.11 4.96 3.38 0 7.05-.9 10.62-2.78 6.54-3.47 10.51-9.33 10.51-14.39a8.5 8.5 0 0 0-.99-4.06m70.52-12.4c-1.79-3.28-5.56-5.06-10.12-5.06-3.37 0-7.04.99-10.61 2.87-6.55 3.48-10.52 9.33-10.52 14.39 0 1.39.3 2.78 1 4.07 1.78 3.27 5.55 4.96 10.11 4.96 3.38 0 7.05-.9 10.62-2.78 6.54-3.47 10.51-9.33 10.51-14.39a8.5 8.5 0 0 0-.99-4.06m70.52-12.4c-1.79-3.28-5.56-5.06-10.12-5.06-3.37 0-7.04.99-10.61 2.87-6.55 3.48-10.52 9.33-10.52 14.39 0 1.39.3 2.78 1 4.07 1.78 3.27 5.55 4.96 10.11 4.96 3.38 0 7.05-.9 10.62-2.78 6.54-3.47 10.51-9.33 10.51-14.39a8.5 8.5 0 0 0-.99-4.06m70.51-12.4c-1.79-3.28-5.56-5.06-10.12-5.06-3.37 0-7.04.99-10.61 2.87-6.55 3.48-10.52 9.33-10.52 14.39 0 1.39.3 2.78 1 4.07 1.78 3.27 5.55 4.96 10.11 4.96 3.38 0 7.05-.9 10.62-2.78 6.54-3.47 10.51-9.33 10.51-14.39a8.5 8.5 0 0 0-.99-4.06m107.22-12.4c-1.79-3.28-5.56-5.06-10.12-5.06-3.37 0-7.04.99-10.61 2.87-6.55 3.48-10.52 9.33-10.52 14.39 0 1.39.3 2.78 1 4.07 1.78 3.27 5.55 4.96 10.11 4.96 3.38 0 7.05-.9 10.62-2.78 6.54-3.47 10.51-9.33 10.51-14.39a8.5 8.5 0 0 0-.99-4.06m70.52 12.4c-1.79-3.28-5.56-5.06-10.12-5.06-3.37 0-7.04.99-10.61 2.87-6.55 3.48-10.52 9.33-10.52 14.39 0 1.39.3 2.78 1 4.07 1.78 3.27 5.55 4.96 10.11 4.96 3.38 0 7.05-.9 10.62-2.78 6.54-3.47 10.51-9.33 10.51-14.39a8.5 8.5 0 0 0-.99-4.06m70.52 12.4c-1.79-3.28-5.56-5.06-10.12-5.06-3.37 0-7.04.99-10.61 2.87-6.55 3.48-10.52 9.33-10.52 14.39 0 1.39.3 2.78 1 4.07 1.78 3.27 5.55 4.96 10.11 4.96 3.38 0 7.05-.9 10.62-2.78 6.54-3.47 10.51-9.33 10.51-14.39a8.5 8.5 0 0 0-.99-4.06m70.51 12.4c-1.79-3.28-5.56-5.06-10.12-5.06-3.37 0-7.04.99-10.61 2.87-6.55 3.48-10.52 9.33-10.52 14.39 0 1.39.3 2.78 1 4.07 1.78 3.27 5.55 4.96 10.11 4.96 3.38 0 7.05-.9 10.62-2.78 6.54-3.47 10.51-9.33 10.51-14.39a8.5 8.5 0 0 0-.99-4.06m70.52 12.4c-1.79-3.28-5.56-5.06-10.12-5.06-3.37 0-7.04.99-10.61 2.87-6.55 3.48-10.52 9.33-10.52 14.39 0 1.39.3 2.78 1 4.07 1.78 3.27 5.55 4.96 10.11 4.96 3.38 0 7.05-.9 10.62-2.78 6.54-3.47 10.51-9.33 10.51-14.39a8.5 8.5 0 0 0-.99-4.06m70.51-12.4c-1.79-3.28-5.56-5.06-10.12-5.06-3.37 0-7.04.99-10.61 2.87-6.55 3.48-10.52 9.33-10.52 14.39 0 1.39.3 2.78 1 4.07 1.78 3.27 5.55 4.96 10.11 4.96 3.38 0 7.05-.9 10.62-2.78 6.54-3.47 10.51-9.33 10.51-14.39a8.5 8.5 0 0 0-.99-4.06m70.52-12.4c-1.79-3.28-5.56-5.06-10.12-5.06-3.37 0-7.04.99-10.61 2.87-6.55 3.48-10.52 9.33-10.52 14.39 0 1.39.3 2.78 1 4.07 1.78 3.27 5.55 4.96 10.11 4.96 3.38 0 7.05-.9 10.62-2.78 6.54-3.47 10.51-9.33 10.51-14.39a8.5 8.5 0 0 0-.99-4.06m70.52-12.4c-1.79-3.28-5.56-5.06-10.12-5.06-3.37 0-7.04.99-10.61 2.87-6.55 3.48-10.52 9.33-10.52 14.39 0 1.39.3 2.78 1 4.07 1.78 3.27 5.55 4.96 10.11 4.96 3.38 0 7.05-.9 10.62-2.78 6.54-3.47 10.51-9.33 10.51-14.39a8.5 8.5 0 0 0-.99-4.06m70.51-12.4c-1.79-3.28-5.56-5.06-10.12-5.06-3.37 0-7.04.99-10.61 2.87-6.55 3.48-10.52 9.33-10.52 14.39 0 1.39.3 2.78 1 4.07 1.78 3.27 5.55 4.96 10.11 4.96 3.38 0 7.05-.9 10.62-2.78 6.54-3.47 10.51-9.33 10.51-14.39a8.5 8.5 0 0 0-.99-4.06m70.52 12.4c-1.79-3.28-5.56-5.06-10.12-5.06-3.37 0-7.04.99-10.61 2.87-6.55 3.48-10.52 9.33-10.52 14.39 0 1.39.3 2.78 1 4.07 1.78 3.27 5.55 4.96 10.11 4.96 3.38 0 7.05-.9 10.62-2.78 6.54-3.47 10.51-9.33 10.51-14.39a8.5 8.5 0 0 0-.99-4.06m70.52 12.4c-1.79-3.28-5.56-5.06-10.12-5.06-3.37 0-7.04.99-10.61 2.87-6.55 3.48-10.52 9.33-10.52 14.39 0 1.39.3 2.78 1 4.07 1.78 3.27 5.55 4.96 10.11 4.96 3.38 0 7.05-.9 10.62-2.78 6.54-3.47 10.51-9.33 10.51-14.39a8.5 8.5 0 0 0-.99-4.06m70.51 12.4c-1.79-3.28-5.56-5.06-10.12-5.06-3.37 0-7.04.99-10.61 2.87-6.55 3.48-10.52 9.33-10.52 14.39 0 1.39.3 2.78 1 4.07 1.78 3.27 5.55 4.96 10.11 4.96 3.38 0 7.05-.9 10.62-2.78 6.54-3.47 10.51-9.33 10.51-14.39a8.5 8.5 0 0 0-.99-4.06m70.52 12.4c-1.79-3.28-5.56-5.06-10.12-5.06-3.37 0-7.04.99-10.61 2.87-6.55 3.48-10.52 9.33-10.52 14.39 0 1.39.3 2.78 1 4.07 1.78 3.27 5.55 4.96 10.11 4.96 3.38 0 7.05-.9 10.62-2.78 6.54-3.47 10.51-9.33 10.51-14.39a8.5 8.5 0 0 0-.99-4.06m70.52 12.4c-1.79-3.28-5.56-5.06-10.12-5.06-3.37 0-7.04.99-10.61 2.87-6.55 3.48-10.52 9.33-10.52 14.39 0 1.39.3 2.78 1 4.07 1.78 3.27 5.55 4.96 10.11 4.96 3.38 0 7.05-.9 10.62-2.78 6.54-3.47 10.51-9.33 10.51-14.39a8.5 8.5 0 0 0-.99-4.06m70.51 12.4c-1.79-3.28-5.56-5.06-10.12-5.06-3.37 0-7.04.99-10.61 2.87-6.55 3.48-10.52 9.33-10.52 14.39 0 1.39.3 2.78 1 4.07 1.78 3.27 5.55 4.96 10.11 4.96 3.38 0 7.05-.9 10.62-2.78 6.54-3.47 10.51-9.33 10.51-14.39a8.5 8.5 0 0 0-.99-4.06m70.52 12.4c-1.79-3.28-5.56-5.06-10.12-5.06-3.37 0-7.04.99-10.61 2.87-6.55 3.48-10.52 9.33-10.52 14.39 0 1.39.3 2.78 1 4.07 1.78 3.27 5.55 4.96 10.11 4.96 3.38 0 7.05-.9 10.62-2.78 6.54-3.47 10.51-9.33 10.51-14.39a8.5 8.5 0 0 0-.99-4.06M176.56 1194.6c-1.78-3.27-5.55-5.05-10.12-5.05-3.37 0-7.04.99-10.61 2.87-6.55 3.48-10.52 9.33-10.52 14.39 0 1.39.3 2.78 1 4.07 1.78 3.27 5.55 4.96 10.11 4.96 3.38 0 7.05-.9 10.62-2.78 6.55-3.47 10.51-9.33 10.51-14.39a8.5 8.5 0 0 0-.99-4.06m62.67-12.41c-1.79-3.27-5.56-5.05-10.12-5.05-3.37 0-7.04.99-10.62 2.87-6.54 3.48-10.51 9.33-10.51 14.39 0 1.39.3 2.78 1 4.07 1.78 3.27 5.55 4.96 10.1 4.96 3.38 0 7.05-.9 10.62-2.78 6.55-3.47 10.52-9.33 10.52-14.39a8.5 8.5 0 0 0-1-4.06m62.68-12.41c-1.8-3.27-5.56-5.05-10.13-5.05-3.37 0-7.04.99-10.61 2.87-6.55 3.48-10.52 9.33-10.52 14.39 0 1.39.3 2.78 1 4.07 1.78 3.27 5.55 4.96 10.11 4.96 3.38 0 7.05-.9 10.62-2.78 6.55-3.47 10.51-9.33 10.51-14.39a8.5 8.5 0 0 0-.99-4.06m62.67-12.41c-1.79-3.27-5.56-5.05-10.12-5.05-3.37 0-7.04.99-10.61 2.87-6.55 3.48-10.52 9.33-10.52 14.39 0 1.39.3 2.78 1 4.07 1.78 3.27 5.55 4.96 10.11 4.96 3.37 0 7.04-.9 10.61-2.78 6.55-3.47 10.52-9.33 10.52-14.39a8.5 8.5 0 0 0-1-4.06m62.67-12.41c-1.78-3.27-5.55-5.05-10.11-5.05-3.38 0-7.05.99-10.62 2.87-6.55 3.48-10.51 9.33-10.51 14.39 0 1.39.3 2.78.99 4.07 1.78 3.27 5.55 4.96 10.12 4.96 3.37 0 7.04-.9 10.61-2.78 6.55-3.47 10.52-9.33 10.52-14.39a8.5 8.5 0 0 0-1-4.06m62.67 12.39c-1.79-3.27-5.56-5.05-10.12-5.05-3.37 0-7.04.99-10.61 2.87-6.55 3.48-10.52 9.33-10.52 14.39 0 1.39.3 2.78 1 4.07 1.78 3.27 5.55 4.96 10.11 4.96 3.37 0 7.04-.9 10.62-2.78 6.54-3.47 10.51-9.33 10.51-14.39a8.5 8.5 0 0 0-1-4.06m62.67 12.39c-1.78-3.27-5.55-5.05-10.11-5.05-3.38 0-7.05.99-10.62 2.87-6.55 3.48-10.51 9.33-10.51 14.39 0 1.39.3 2.78.99 4.07 1.78 3.27 5.55 4.96 10.12 4.96 3.37 0 7.04-.9 10.61-2.78 6.55-3.47 10.52-9.33 10.52-14.39a8.5 8.5 0 0 0-1-4.06m62.67 12.39c-1.78-3.27-5.55-5.05-10.12-5.05-3.37 0-7.04.99-10.61 2.87-6.55 3.48-10.52 9.33-10.52 14.39 0 1.39.3 2.78 1 4.07 1.78 3.27 5.55 4.96 10.11 4.96 3.38 0 7.05-.9 10.62-2.78 6.54-3.47 10.51-9.33 10.51-14.39a8.5 8.5 0 0 0-.99-4.06m62.67 12.39c-1.79-3.27-5.56-5.05-10.12-5.05-3.38 0-7.05.99-10.62 2.87-6.54 3.48-10.51 9.33-10.51 14.39 0 1.39.3 2.78.99 4.07 1.79 3.27 5.56 4.96 10.12 4.96 3.37 0 7.04-.9 10.61-2.78 6.55-3.47 10.52-9.33 10.52-14.39a8.5 8.5 0 0 0-1-4.06m62.67-12.41c-1.78-3.27-5.55-5.05-10.12-5.05-3.37 0-7.04.99-10.61 2.87-6.55 3.48-10.52 9.33-10.52 14.39 0 1.39.3 2.78 1 4.07 1.78 3.27 5.55 4.96 10.11 4.96 3.38 0 7.05-.9 10.62-2.78 6.55-3.47 10.51-9.33 10.51-14.39a8.5 8.5 0 0 0-.99-4.06m62.67-12.41c-1.79-3.27-5.56-5.05-10.12-5.05-3.37 0-7.04.99-10.61 2.87-6.55 3.48-10.52 9.33-10.52 14.39 0 1.39.3 2.78 1 4.07 1.78 3.27 5.55 4.96 10.11 4.96 3.37 0 7.04-.9 10.61-2.78 6.55-3.47 10.52-9.33 10.52-14.39a8.5 8.5 0 0 0-1-4.06m62.67-12.41c-1.79-3.27-5.56-5.05-10.12-5.05-3.37 0-7.04.99-10.61 2.87-6.55 3.48-10.52 9.33-10.52 14.39 0 1.39.3 2.78 1 4.07 1.78 3.27 5.55 4.96 10.11 4.96 3.38 0 7.05-.9 10.62-2.78 6.54-3.47 10.51-9.33 10.51-14.39a8.5 8.5 0 0 0-.99-4.06m62.67-12.41c-1.79-3.27-5.56-5.05-10.12-5.05-3.37 0-7.04.99-10.61 2.87-6.55 3.48-10.52 9.33-10.52 14.39 0 1.39.3 2.78 1 4.07 1.78 3.27 5.55 4.96 10.11 4.96 3.38 0 7.05-.9 10.62-2.78 6.54-3.47 10.51-9.33 10.51-14.39a8.5 8.5 0 0 0-.99-4.06m62.66-12.41c-1.79-3.27-5.56-5.05-10.12-5.05-3.37 0-7.04.99-10.61 2.87-6.55 3.48-10.52 9.33-10.52 14.39 0 1.39.3 2.78 1 4.07 1.78 3.27 5.55 4.96 10.11 4.96 3.38 0 7.05-.9 10.62-2.78 6.54-3.47 10.51-9.33 10.51-14.39a8.5 8.5 0 0 0-.99-4.06m62.67-12.41c-1.79-3.27-5.56-5.05-10.12-5.05-3.37 0-7.04.99-10.61 2.87-6.55 3.48-10.52 9.33-10.52 14.39 0 1.39.3 2.78 1 4.07 1.78 3.27 5.55 4.96 10.11 4.96 3.38 0 7.05-.9 10.62-2.78 6.54-3.47 10.51-9.33 10.51-14.39a8.5 8.5 0 0 0-.99-4.06m62.67-12.41c-1.79-3.27-5.56-5.05-10.12-5.05-3.37 0-7.04.99-10.61 2.87-6.55 3.48-10.52 9.33-10.52 14.39 0 1.39.3 2.78 1 4.07 1.78 3.27 5.55 4.96 10.11 4.96 3.38 0 7.05-.9 10.62-2.78 6.54-3.47 10.51-9.33 10.51-14.39a8.5 8.5 0 0 0-.99-4.06m114.81-12.41c-1.79-3.27-5.56-5.05-10.12-5.05-3.37 0-7.04.99-10.61 2.87-6.55 3.48-10.52 9.33-10.52 14.39 0 1.39.3 2.78 1 4.07 1.78 3.27 5.55 4.96 10.11 4.96 3.38 0 7.05-.9 10.62-2.78 6.54-3.47 10.51-9.33 10.51-14.39a8.5 8.5 0 0 0-.99-4.06m75.24 12.39c-1.79-3.27-5.56-5.05-10.12-5.05-3.37 0-7.04.99-10.61 2.87-6.55 3.48-10.52 9.33-10.52 14.39 0 1.39.3 2.78 1 4.07 1.78 3.27 5.55 4.96 10.11 4.96 3.38 0 7.05-.9 10.62-2.78 6.54-3.47 10.51-9.33 10.51-14.39a8.5 8.5 0 0 0-.99-4.06m75.24 12.39c-1.79-3.27-5.56-5.05-10.12-5.05-3.37 0-7.04.99-10.61 2.87-6.55 3.48-10.52 9.33-10.52 14.39 0 1.39.3 2.78 1 4.07 1.78 3.27 5.55 4.96 10.11 4.96 3.38 0 7.05-.9 10.62-2.78 6.54-3.47 10.51-9.33 10.51-14.39a8.5 8.5 0 0 0-.99-4.06m75.24 12.39c-1.79-3.27-5.56-5.05-10.12-5.05-3.37 0-7.04.99-10.61 2.87-6.55 3.48-10.52 9.33-10.52 14.39 0 1.39.3 2.78 1 4.07 1.78 3.27 5.55 4.96 10.11 4.96 3.38 0 7.05-.9 10.62-2.78 6.54-3.47 10.51-9.33 10.51-14.39a8.5 8.5 0 0 0-.99-4.06m75.24 12.39c-1.79-3.27-5.56-5.05-10.12-5.05-3.37 0-7.04.99-10.61 2.87-6.55 3.48-10.52 9.33-10.52 14.39 0 1.39.3 2.78 1 4.07 1.78 3.27 5.55 4.96 10.11 4.96 3.38 0 7.05-.9 10.62-2.78 6.54-3.47 10.51-9.33 10.51-14.39a8.5 8.5 0 0 0-.99-4.06m75.25-12.41c-1.79-3.27-5.56-5.05-10.12-5.05-3.37 0-7.04.99-10.61 2.87-6.55 3.48-10.52 9.33-10.52 14.39 0 1.39.3 2.78 1 4.07 1.78 3.27 5.55 4.96 10.11 4.96 3.38 0 7.05-.9 10.62-2.78 6.54-3.47 10.51-9.33 10.51-14.39a8.5 8.5 0 0 0-.99-4.06m75.24-12.41c-1.79-3.27-5.56-5.05-10.12-5.05-3.37 0-7.04.99-10.61 2.87-6.55 3.48-10.52 9.33-10.52 14.39 0 1.39.3 2.78 1 4.07 1.78 3.27 5.55 4.96 10.11 4.96 3.38 0 7.05-.9 10.62-2.78 6.54-3.47 10.51-9.33 10.51-14.39a8.5 8.5 0 0 0-.99-4.06m75.24-12.41c-1.79-3.27-5.56-5.05-10.12-5.05-3.37 0-7.04.99-10.61 2.87-6.55 3.48-10.52 9.33-10.52 14.39 0 1.39.3 2.78 1 4.07 1.78 3.27 5.55 4.96 10.11 4.96 3.38 0 7.05-.9 10.62-2.78 6.54-3.47 10.51-9.33 10.51-14.39a8.5 8.5 0 0 0-.99-4.06m75.24-12.41c-1.79-3.27-5.56-5.05-10.12-5.05-3.37 0-7.04.99-10.61 2.87-6.55 3.48-10.52 9.33-10.52 14.39 0 1.39.3 2.78 1 4.07 1.78 3.27 5.55 4.96 10.11 4.96 3.38 0 7.05-.9 10.62-2.78 6.54-3.47 10.51-9.33 10.51-14.39a8.5 8.5 0 0 0-.99-4.06m75.24 12.39c-1.79-3.27-5.56-5.05-10.12-5.05-3.37 0-7.04.99-10.61 2.87-6.55 3.48-10.52 9.33-10.52 14.39 0 1.39.3 2.78 1 4.07 1.78 3.27 5.55 4.96 10.11 4.96 3.38 0 7.05-.9 10.62-2.78 6.54-3.47 10.51-9.33 10.51-14.39a8.5 8.5 0 0 0-.99-4.06m75.24 12.39c-1.79-3.27-5.56-5.05-10.12-5.05-3.37 0-7.04.99-10.61 2.87-6.55 3.48-10.52 9.33-10.52 14.39 0 1.39.3 2.78 1 4.07 1.78 3.27 5.55 4.96 10.11 4.96 3.38 0 7.05-.9 10.62-2.78 6.54-3.47 10.51-9.33 10.51-14.39a8.5 8.5 0 0 0-.99-4.06m75.24 12.39c-1.79-3.27-5.56-5.05-10.12-5.05-3.37 0-7.04.99-10.61 2.87-6.55 3.48-10.52 9.33-10.52 14.39 0 1.39.3 2.78 1 4.07 1.78 3.27 5.55 4.96 10.11 4.96 3.38 0 7.05-.9 10.62-2.78 6.54-3.47 10.51-9.33 10.51-14.39a8.5 8.5 0 0 0-.99-4.06m75.24 12.39c-1.79-3.27-5.56-5.05-10.12-5.05-3.37 0-7.04.99-10.61 2.87-6.55 3.48-10.52 9.33-10.52 14.39 0 1.39.3 2.78 1 4.07 1.78 3.27 5.55 4.96 10.11 4.96 3.38 0 7.05-.9 10.62-2.78 6.54-3.47 10.51-9.33 10.51-14.39a8.5 8.5 0 0 0-.99-4.06m75.24 12.39c-1.79-3.27-5.56-5.05-10.12-5.05-3.37 0-7.04.99-10.61 2.87-6.55 3.48-10.52 9.33-10.52 14.39 0 1.39.3 2.78 1 4.07 1.78 3.27 5.55 4.96 10.11 4.96 3.38 0 7.05-.9 10.62-2.78 6.54-3.47 10.51-9.33 10.51-14.39a8.5 8.5 0 0 0-.99-4.06m75.24 12.39c-1.79-3.27-5.56-5.05-10.12-5.05-3.37 0-7.04.99-10.61 2.87-6.55 3.48-10.52 9.33-10.52 14.39 0 1.39.3 2.78 1 4.07 1.78 3.27 5.55 4.96 10.11 4.96 3.38 0 7.05-.9 10.62-2.78 6.54-3.47 10.51-9.33 10.51-14.39a8.5 8.5 0 0 0-.99-4.06m75.24 12.39c-1.79-3.27-5.56-5.05-10.12-5.05-3.37 0-7.04.99-10.61 2.87-6.55 3.48-10.52 9.33-10.52 14.39 0 1.39.3 2.78 1 4.07 1.78 3.27 5.55 4.96 10.11 4.96 3.38 0 7.05-.9 10.62-2.78 6.54-3.47 10.51-9.33 10.51-14.39a8.5 8.5 0 0 0-.99-4.06m111.95 12.39c-1.79-3.27-5.56-5.05-10.12-5.05-3.37 0-7.04.99-10.61 2.87-6.55 3.48-10.52 9.33-10.52 14.39 0 1.39.3 2.78 1 4.07 1.78 3.27 5.55 4.96 10.11 4.96 3.38 0 7.05-.9 10.62-2.78 6.54-3.47 10.51-9.33 10.51-14.39a8.5 8.5 0 0 0-.99-4.06m-4.27 6.74c-1.68 1.69-5.05 3.77-8.63 5.76-3.57 1.98-7.14 3.47-9.52 3.96-.5.1-1 .2-1.49.2-1.58 0-2.77-.6-3.47-1.88-.3-.5-.5-1.1-.5-1.69 0-1.09.7-2.38 1.79-3.47 1.69-1.69 4.96-3.77 8.53-5.75 3.57-1.99 7.14-3.48 9.52-3.97.5-.1 1-.2 1.5-.2 1.58 0 2.87.6 3.56 1.88.3.5.4 1.1.4 1.69 0 1.1-.6 2.28-1.69 3.47" class="Note" style="stroke-width:.992"/><path d="M82.68 130.23a28.14 28.14 0 0 0-4.61-10.21 22.23 22.23 0 0 0-20.26-9.22c-1.03-5.96-2.02-11.8-2.92-17.2 5.4-6.12 9-11.87 11.26-16.14 3.44-6.52 4.58-11.07 4.63-11.27 1.7-5.16 2.06-12.8.97-20.95-1-7.49-3.07-14.14-5.4-17.37-1.03-1.42-2.07-2.14-3.1-2.14-1.21 0-3.7 1.23-6.57 3.98a36.12 36.12 0 0 0-8.06 12c-2.98 7-3.19 16.42-2.84 23.08a102.5 102.5 0 0 0 1.49 12.91l.72 4.13-.71.68c-1.03 1-2.21 2.12-3.58 3.5-.86.85-1.8 1.75-2.79 2.71-8.38 8.08-21.07 20.3-21.07 39.3 0 4.66.9 9.04 2.66 13.02a31.15 31.15 0 0 0 6.76 9.67c7.67 7.5 18.18 10.68 25.18 10.52 2.93-.07 5.54-.31 7.9-.76 1.82 9.53 2.95 16.5 3 21.8.03 6.46-1.6 10.4-5.47 13.14a15.3 15.3 0 0 1-8.28 2.8c-2.57.13-4.8-.34-6.23-.75 0 0-.3-.07-.3-.27-.01-.18.33-.23.34-.23h.02c1.9-.44 5.45-1.66 7.8-4.93 1.78-2.5 2.64-7.08.81-11-1.1-2.36-3.59-5.29-9.16-5.74a11.04 11.04 0 0 0-11.03 6.18c-2.44 4.67-1.99 10.35 1.12 14.16 2.93 3.6 7.52 5.88 12.9 6.46a23.62 23.62 0 0 0 14.83-3.25c3.63-2.56 5.74-6.5 6.41-12.09.56-4.6.17-10.46-1.22-18.47-.35-2.07-.89-5.08-1.55-8.8 5.7-1.91 9.84-5.45 13.58-11.26a24.33 24.33 0 0 0 2.77-18m-33.93 25.99c-4.6-1.21-9-3.7-12.73-7.16a20.19 20.19 0 0 1-4.61-6.74 24.37 24.37 0 0 1-1.97-10.1c.07-4.65 1.37-9.43 3.86-14.18 2.9-5.54 7.42-11.03 13.43-16.31a95.64 95.64 0 0 0 4.08-3.81l2.45 13.72a21.2 21.2 0 0 0-11.62 9.99c-3.5 6.51-3.37 11.99-2.64 15.44.93 4.43 3.44 8.16 6.87 10.23.92.55 5.02 2.67 6.84 2.1.37-.13.64-.34.78-.67.5-1.16-.5-1.8-2.05-2.75-.6-.37-1.26-.78-1.99-1.3-3.3-2.48-4.73-6.9-3.67-11.24a12.4 12.4 0 0 1 3.67-6.2 14.13 14.13 0 0 1 6.04-3.27c2.03 11.15 4.07 22.2 5.7 30.5l.4 2.02c-4.35.92-8.67.83-12.84-.27m11.23-32.92c10.26-.46 14.5 6.92 15.38 11.7.47 2.52.46 6.92-1.07 11.1-1.16 3.15-3.6 7.2-8.69 9.23l-.23-1.27-5.4-30.76m-7.26-70.37c1.77-5.7 4.49-8.92 6.46-10.63 1.74-1.51 3.38-2.22 4.29-2.22.14 0 .26.02.36.05.45.14.98.7 1.44 1.57 2.3 4.26 1.56 10.91.23 15.32-1.62 5.35-4.51 10.93-13.24 20.46l-.48-3.11c-1.24-8.23-.92-15.44.94-21.44m29.97 328.51a28.14 28.14 0 0 0-4.61-10.21A22.23 22.23 0 0 0 57.81 362c-1.03-5.96-2.02-11.8-2.92-17.2 5.4-6.12 9-11.87 11.26-16.14 3.44-6.53 4.58-11.07 4.63-11.27 1.7-5.17 2.06-12.8.97-20.95-1-7.49-3.07-14.14-5.4-17.37-1.03-1.42-2.07-2.14-3.1-2.14-1.21 0-3.7 1.23-6.57 3.98a36.12 36.12 0 0 0-8.06 12c-2.98 7-3.19 16.42-2.84 23.08a102.5 102.5 0 0 0 1.49 12.91l.72 4.13-.71.68c-1.03 1-2.21 2.12-3.58 3.5-.86.85-1.8 1.75-2.79 2.71-8.38 8.08-21.07 20.3-21.07 39.3 0 4.66.9 9.04 2.66 13.02a31.15 31.15 0 0 0 6.76 9.67c7.67 7.49 18.18 10.67 25.18 10.52 2.93-.07 5.54-.31 7.9-.76 1.82 9.53 2.95 16.5 3 21.8.03 6.45-1.6 10.4-5.47 13.14a15.3 15.3 0 0 1-8.28 2.8c-2.57.13-4.8-.34-6.23-.75 0 0-.3-.08-.3-.27-.01-.18.33-.23.34-.23h.02c1.9-.44 5.45-1.66 7.8-4.93 1.78-2.5 2.64-7.09.81-11-1.1-2.36-3.59-5.3-9.16-5.74a11.04 11.04 0 0 0-11.03 6.18c-2.44 4.67-1.99 10.35 1.12 14.16 2.93 3.59 7.52 5.88 12.9 6.46a23.62 23.62 0 0 0 14.83-3.25c3.63-2.56 5.74-6.5 6.41-12.09.56-4.6.17-10.47-1.22-18.47-.35-2.07-.89-5.08-1.55-8.81 5.7-1.9 9.84-5.45 13.58-11.25a24.33 24.33 0 0 0 2.77-18m-33.93 25.99c-4.6-1.21-9-3.7-12.73-7.17a20.19 20.19 0 0 1-4.61-6.73 24.37 24.37 0 0 1-1.97-10.1c.07-4.65 1.37-9.43 3.86-14.19 2.9-5.53 7.42-11.02 13.43-16.3a95.64 95.64 0 0 0 4.08-3.81l2.45 13.72a21.2 21.2 0 0 0-11.62 9.99c-3.5 6.51-3.37 11.99-2.64 15.44.93 4.43 3.44 8.16 6.87 10.23.92.55 5.02 2.67 6.84 2.1.37-.13.64-.35.78-.67.5-1.16-.5-1.8-2.05-2.75-.6-.37-1.26-.78-1.99-1.31-3.3-2.47-4.73-6.88-3.67-11.23a12.4 12.4 0 0 1 3.67-6.21 14.13 14.13 0 0 1 6.04-3.26c2.03 11.15 4.07 22.2 5.7 30.5l.4 2.01c-4.35.93-8.67.84-12.84-.26m11.23-32.92c10.26-.46 14.5 6.92 15.38 11.7.47 2.52.46 6.92-1.07 11.1-1.16 3.15-3.6 7.19-8.69 9.23l-.23-1.27-5.4-30.76m-7.26-70.37c1.77-5.7 4.49-8.92 6.46-10.63 1.74-1.51 3.38-2.22 4.29-2.22.14 0 .26.02.36.05.45.14.98.7 1.44 1.57 2.3 4.26 1.56 10.91.23 15.32-1.62 5.35-4.51 10.93-13.24 20.46l-.48-3.11c-1.24-8.23-.92-15.44.94-21.44m29.97 325.31a28.14 28.14 0 0 0-4.61-10.21A22.23 22.23 0 0 0 57.81 610c-1.03-5.96-2.02-11.8-2.92-17.2 5.4-6.12 9-11.87 11.26-16.14 3.44-6.53 4.58-11.07 4.63-11.27 1.7-5.17 2.06-12.8.97-20.95-1-7.49-3.07-14.14-5.4-17.37-1.03-1.42-2.07-2.14-3.1-2.14-1.21 0-3.7 1.23-6.57 3.98a36.12 36.12 0 0 0-8.06 12c-2.98 7-3.19 16.42-2.84 23.08a102.5 102.5 0 0 0 1.49 12.91l.72 4.13-.71.68c-1.03 1-2.21 2.12-3.58 3.5-.86.85-1.8 1.75-2.79 2.71-8.38 8.08-21.07 20.3-21.07 39.3 0 4.66.9 9.04 2.66 13.02a31.15 31.15 0 0 0 6.76 9.67c7.67 7.49 18.18 10.67 25.18 10.52 2.93-.07 5.54-.31 7.9-.76 1.82 9.53 2.95 16.5 3 21.8.03 6.45-1.6 10.4-5.47 13.14a15.3 15.3 0 0 1-8.28 2.8c-2.57.13-4.8-.34-6.23-.75 0 0-.3-.08-.3-.27-.01-.18.33-.23.34-.23h.02c1.9-.44 5.45-1.66 7.8-4.93 1.78-2.5 2.64-7.09.81-11-1.1-2.36-3.59-5.3-9.16-5.74a11.04 11.04 0 0 0-11.03 6.18c-2.44 4.67-1.99 10.35 1.12 14.16 2.93 3.59 7.52 5.88 12.9 6.46a23.62 23.62 0 0 0 14.83-3.25c3.63-2.56 5.74-6.5 6.41-12.09.56-4.6.17-10.47-1.22-18.47-.35-2.07-.89-5.08-1.55-8.81 5.7-1.9 9.84-5.45 13.58-11.25a24.33 24.33 0 0 0 2.77-18m-33.93 25.99c-4.6-1.21-9-3.7-12.73-7.17a20.19 20.19 0 0 1-4.61-6.73 24.37 24.37 0 0 1-1.97-10.1c.07-4.65 1.37-9.43 3.86-14.19 2.9-5.53 7.42-11.02 13.43-16.3a95.64 95.64 0 0 0 4.08-3.81l2.45 13.72a21.2 21.2 0 0 0-11.62 9.99c-3.5 6.51-3.37 11.99-2.64 15.44.93 4.43 3.44 8.16 6.87 10.23.92.55 5.02 2.67 6.84 2.1.37-.13.64-.35.78-.67.5-1.16-.5-1.8-2.05-2.75-.6-.37-1.26-.78-1.99-1.31-3.3-2.47-4.73-6.88-3.67-11.23a12.4 12.4 0 0 1 3.67-6.21 14.13 14.13 0 0 1 6.04-3.26c2.03 11.15 4.07 22.2 5.7 30.5l.4 2.01c-4.35.93-8.67.84-12.84-.26m11.23-32.92c10.26-.46 14.5 6.92 15.38 11.7.47 2.52.46 6.92-1.07 11.1-1.16 3.15-3.6 7.19-8.69 9.23l-.23-1.27-5.4-30.76m-7.26-70.37c1.77-5.7 4.49-8.92 6.46-10.63 1.74-1.51 3.38-2.22 4.29-2.22.14 0 .26.02.36.05.45.14.98.7 1.44 1.57 2.3 4.26 1.56 10.91.23 15.32-1.62 5.35-4.51 10.93-13.24 20.46l-.48-3.11c-1.24-8.23-.92-15.44.94-21.44m29.97 325.31a28.14 28.14 0 0 0-4.61-10.2c-3.16-4.24-7.14-7.07-11.8-8.41-3.08-.88-6.06-1-8.46-.81-1.03-5.97-2.02-11.8-2.92-17.2 5.4-6.13 9-11.88 11.26-16.15 3.44-6.52 4.58-11.07 4.63-11.26 1.7-5.17 2.06-12.81.97-20.96-1-7.49-3.07-14.14-5.4-17.37-1.03-1.41-2.07-2.14-3.1-2.14-1.21 0-3.7 1.23-6.57 3.98a36.12 36.12 0 0 0-8.06 12c-2.98 7-3.19 16.42-2.84 23.09a102.5 102.5 0 0 0 1.49 12.9l.72 4.13-.71.68c-1.03 1-2.21 2.13-3.58 3.5-.86.85-1.8 1.75-2.79 2.71-8.38 8.08-21.07 20.3-21.07 39.3 0 4.66.9 9.04 2.66 13.02a31.15 31.15 0 0 0 6.76 9.67c7.67 7.5 18.18 10.68 25.18 10.52 2.93-.07 5.54-.3 7.9-.75 1.82 9.52 2.95 16.5 3 21.79.03 6.46-1.6 10.4-5.47 13.14a15.3 15.3 0 0 1-8.28 2.81c-2.57.12-4.8-.35-6.23-.75 0 0-.3-.08-.3-.28-.01-.18.33-.23.34-.23h.02c1.9-.44 5.45-1.66 7.8-4.93 1.78-2.5 2.64-7.08.81-11-1.1-2.36-3.59-5.29-9.16-5.73a11.04 11.04 0 0 0-11.03 6.18c-2.44 4.66-1.99 10.34 1.12 14.15 2.93 3.6 7.52 5.88 12.9 6.46a23.62 23.62 0 0 0 14.83-3.25c3.63-2.55 5.74-6.5 6.41-12.09.56-4.6.17-10.46-1.22-18.47-.35-2.07-.89-5.08-1.55-8.8 5.7-1.91 9.84-5.45 13.58-11.26a24.33 24.33 0 0 0 2.77-18m-33.93 25.99c-4.6-1.21-9-3.7-12.73-7.16a20.2 20.2 0 0 1-4.61-6.74 24.37 24.37 0 0 1-1.97-10.1c.07-4.65 1.37-9.43 3.86-14.18 2.9-5.54 7.42-11.02 13.43-16.31a95.64 95.64 0 0 0 4.08-3.81l2.45 13.72a21.2 21.2 0 0 0-11.62 9.99c-3.5 6.52-3.37 12-2.64 15.44.93 4.43 3.44 8.16 6.87 10.23.92.56 5.02 2.67 6.84 2.1.37-.12.64-.34.78-.67.5-1.16-.5-1.8-2.05-2.75-.6-.36-1.26-.78-1.99-1.3-3.3-2.48-4.73-6.9-3.67-11.24a12.4 12.4 0 0 1 3.67-6.2 14.13 14.13 0 0 1 6.04-3.27c2.03 11.15 4.07 22.21 5.7 30.5l.4 2.02c-4.35.92-8.67.83-12.84-.27m11.23-32.92c10.26-.46 14.5 6.92 15.38 11.71.47 2.51.46 6.91-1.07 11.1-1.16 3.15-3.6 7.18-8.69 9.23l-.23-1.27c-1.53-8.7-3.45-19.6-5.4-30.77m-7.26-70.37c1.77-5.7 4.49-8.92 6.46-10.63 1.74-1.51 3.38-2.21 4.29-2.21.14 0 .26.02.36.05.45.13.98.7 1.44 1.56 2.3 4.26 1.56 10.92.23 15.32-1.62 5.36-4.51 10.93-13.24 20.46l-.48-3.11c-1.24-8.22-.92-15.44.94-21.44m29.97 433.9a28.14 28.14 0 0 0-4.61-10.2c-3.16-4.24-7.14-7.07-11.8-8.41-3.08-.88-6.06-1-8.46-.81-1.03-5.97-2.02-11.8-2.92-17.2 5.4-6.13 9-11.88 11.26-16.15 3.44-6.52 4.58-11.07 4.63-11.26 1.7-5.17 2.06-12.81.97-20.96-1-7.49-3.07-14.14-5.4-17.37-1.03-1.41-2.07-2.14-3.1-2.14-1.21 0-3.7 1.23-6.57 3.98a36.12 36.12 0 0 0-8.06 12c-2.98 7-3.19 16.42-2.84 23.09a102.5 102.5 0 0 0 1.49 12.9l.72 4.13-.71.68c-1.03 1-2.21 2.13-3.58 3.5-.86.85-1.8 1.75-2.79 2.71-8.38 8.08-21.07 20.3-21.07 39.3 0 4.66.9 9.04 2.66 13.02a31.15 31.15 0 0 0 6.76 9.67c7.67 7.5 18.18 10.68 25.18 10.52 2.93-.07 5.54-.3 7.9-.75 1.82 9.52 2.95 16.5 3 21.79.03 6.46-1.6 10.4-5.47 13.14a15.3 15.3 0 0 1-8.28 2.81c-2.57.12-4.8-.35-6.23-.75 0 0-.3-.08-.3-.28-.01-.18.33-.23.34-.23h.02c1.9-.44 5.45-1.66 7.8-4.93 1.78-2.5 2.64-7.08.81-11-1.1-2.36-3.59-5.29-9.16-5.73a11.04 11.04 0 0 0-11.03 6.18c-2.44 4.66-1.99 10.34 1.12 14.15 2.93 3.6 7.52 5.88 12.9 6.46a23.62 23.62 0 0 0 14.83-3.25c3.63-2.55 5.74-6.5 6.41-12.09.56-4.6.17-10.46-1.22-18.47-.35-2.07-.89-5.08-1.55-8.8 5.7-1.91 9.84-5.45 13.58-11.26a24.33 24.33 0 0 0 2.77-18M48.75 1260c-4.6-1.21-9-3.7-12.73-7.16a20.2 20.2 0 0 1-4.61-6.74 24.37 24.37 0 0 1-1.97-10.1c.07-4.65 1.37-9.43 3.86-14.18 2.9-5.54 7.42-11.02 13.43-16.31a95.64 95.64 0 0 0 4.08-3.81l2.45 13.72a21.2 21.2 0 0 0-11.62 9.99c-3.5 6.52-3.37 12-2.64 15.44.93 4.43 3.44 8.16 6.87 10.23.92.56 5.02 2.67 6.84 2.1.37-.12.64-.34.78-.67.5-1.16-.5-1.8-2.05-2.75-.6-.36-1.26-.78-1.99-1.3-3.3-2.48-4.73-6.9-3.67-11.24a12.4 12.4 0 0 1 3.67-6.2 14.13 14.13 0 0 1 6.04-3.27c2.03 11.15 4.07 22.21 5.7 30.5l.4 2.02c-4.35.92-8.67.83-12.84-.27m11.23-32.92c10.26-.46 14.5 6.92 15.38 11.71.47 2.51.46 6.91-1.07 11.1-1.16 3.15-3.6 7.18-8.69 9.23l-.23-1.27c-1.53-8.7-3.45-19.6-5.4-30.77m-7.26-70.37c1.77-5.7 4.49-8.92 6.46-10.63 1.74-1.51 3.38-2.21 4.29-2.21.14 0 .26.02.36.05.45.13.98.7 1.44 1.56 2.3 4.26 1.56 10.92.23 15.32-1.62 5.36-4.51 10.93-13.24 20.46l-.48-3.11c-1.24-8.22-.92-15.44.94-21.44" class="Clef" style="stroke-width:.992"/><path d="M227.25 379.41c-.6-3.87-2.97-7.54-8.03-7.54-4.96 0-7.84 3.08-8.34 3.67l.4-31.84c0-.8-.6-1.39-1.39-1.39h-1.19c-.8 0-1.39.6-1.39 1.39l.5 59.62c0 .8.6 1.39 1.39 1.39.2 0 .6-.1.8-.2.39-.2 6.84-3.37 12.2-9.42a20.13 20.13 0 0 0 5.25-13.2c0-.9-.1-1.68-.2-2.48m-6.84 3.87c0 1.49-.4 6.05-2.88 9.82-1.69 2.58-5.06 5.26-6.94 6.75l.3-19.35c.2-.89 1.68-3.77 5.65-3.77 3.57 0 3.87 3.38 3.87 5.46v1.1m-17.96-53.48c-.6-3.87-2.97-7.54-8.03-7.54-4.96 0-7.84 3.08-8.34 3.67l.4-31.84c0-.8-.6-1.39-1.39-1.39h-1.19c-.8 0-1.39.6-1.39 1.39l.5 59.62c0 .8.6 1.39 1.39 1.39.2 0 .6-.1.8-.2.39-.2 6.84-3.37 12.2-9.42a20.13 20.13 0 0 0 5.25-13.2c0-.9-.1-1.68-.2-2.48m-6.84 3.87c0 1.49-.4 6.05-2.88 9.82-1.69 2.58-5.06 5.26-6.94 6.75l.3-19.35c.2-.89 1.68-3.77 5.65-3.77 3.57 0 3.87 3.38 3.87 5.46v1.1m-17.96 33.32c-.6-3.87-2.97-7.54-8.03-7.54-4.96 0-7.84 3.08-8.34 3.67l.4-31.84c0-.8-.6-1.39-1.39-1.39h-1.19c-.8 0-1.39.6-1.39 1.39l.5 59.62c0 .8.6 1.39 1.39 1.39.2 0 .6-.1.8-.2.39-.2 6.84-3.37 12.2-9.42a20.13 20.13 0 0 0 5.25-13.2c0-.9-.1-1.68-.2-2.48m-6.84 3.87c0 1.49-.4 6.05-2.88 9.82-1.69 2.58-5.06 5.26-6.94 6.75l.3-19.35c.2-.89 1.68-3.77 5.65-3.77 3.57 0 3.87 3.38 3.87 5.46v1.1m-17.96-53.48c-.6-3.87-2.97-7.54-8.03-7.54-4.96 0-7.84 3.08-8.34 3.67l.4-31.84c0-.8-.6-1.39-1.39-1.39h-1.19c-.8 0-1.39.6-1.39 1.39l.5 59.62c0 .8.6 1.39 1.39 1.39.2 0 .6-.1.8-.2.39-.2 6.84-3.37 12.2-9.42a20.13 20.13 0 0 0 5.25-13.2c0-.9-.1-1.68-.2-2.48m-6.84 3.87c0 1.49-.4 6.05-2.88 9.82-1.69 2.58-5.06 5.26-6.94 6.75l.3-19.35c.2-.89 1.68-3.77 5.65-3.77 3.57 0 3.87 3.38 3.87 5.46v1.1m-17.96 33.32c-.6-3.87-2.97-7.54-8.03-7.54-4.96 0-7.84 3.08-8.34 3.67l.4-31.84c0-.8-.6-1.39-1.39-1.39h-1.19c-.8 0-1.39.6-1.39 1.39l.5 59.62c0 .8.6 1.39 1.39 1.39.2 0 .6-.1.8-.2.39-.2 6.84-3.37 12.2-9.42a20.13 20.13 0 0 0 5.25-13.2c0-.9-.1-1.68-.2-2.48m-6.84 3.87c0 1.49-.4 6.05-2.88 9.82-1.69 2.58-5.06 5.26-6.94 6.75l.3-19.35c.2-.89 1.68-3.77 5.65-3.77 3.57 0 3.87 3.38 3.87 5.46v1.1m34.82 229.04c.6-.1 1.09-.79 1.09-1.38v-5.86c0-.8-.6-1.39-1.4-1.39h-.19l-3.27.7v-14.78h-2.78v15.37l-8.83 1.79v-13.99h-2.78v14.58l-3.87.8c-.6.1-1.09.8-1.09 1.39v5.95-.2c0 .8.6 1.39 1.4 1.39h.29l3.27-.7v16.37l-3.87.8c-.6.1-1.09.79-1.09 1.38v5.76c0 .8.6 1.39 1.4 1.39h.29l3.27-.7v14.78h2.78v-15.37l8.83-1.79v13.99h2.78v-14.58l3.77-.7c.6-.1 1.09-.8 1.09-1.39v-5.85c0-.8-.6-1.39-1.4-1.39h-.19l-3.27.7v-16.37l3.77-.7m-15.38 19.55V590.6l8.83-1.79v16.37l-8.83 1.89m-9.42-56.74c.6-.1 1.09-.79 1.09-1.39v-5.85c0-.8-.6-1.39-1.4-1.39h-.19l-3.27.7v-14.78h-2.78v15.37l-8.83 1.79v-13.99h-2.78v14.58l-3.87.8c-.6.1-1.09.8-1.09 1.39v5.95-.2c0 .8.6 1.39 1.4 1.39h.29l3.27-.7v16.37l-3.87.8c-.6.1-1.09.79-1.09 1.38v5.76c0 .8.6 1.39 1.4 1.39h.29l3.27-.7v14.78h2.78v-15.37l8.83-1.79v13.99h2.78v-14.58l3.77-.7c.6-.1 1.09-.8 1.09-1.39v-5.85c0-.8-.6-1.39-1.4-1.39h-.19l-3.27.7v-16.37l3.77-.7m-15.38 19.55V553.4l8.83-1.79V568l-8.83 1.89m61.8 293.13c-.6-3.87-2.97-7.54-8.03-7.54-4.96 0-7.84 3.07-8.34 3.67l.4-31.85c0-.79-.6-1.39-1.39-1.39h-1.19c-.8 0-1.39.6-1.39 1.4l.5 59.61c0 .8.6 1.4 1.39 1.4.2 0 .6-.1.8-.2.39-.2 6.84-3.38 12.2-9.43a20.13 20.13 0 0 0 5.25-13.2c0-.89-.1-1.68-.2-2.47m-6.84 3.86c0 1.5-.4 6.06-2.88 9.82-1.69 2.58-5.06 5.26-6.94 6.75l.3-19.34c.2-.9 1.68-3.77 5.65-3.77 3.57 0 3.87 3.37 3.87 5.45v1.1m-17.96-53.47c-.6-3.87-2.97-7.54-8.03-7.54-4.96 0-7.84 3.07-8.34 3.67l.4-31.85c0-.79-.6-1.39-1.39-1.39h-1.19c-.8 0-1.39.6-1.39 1.4l.5 59.61c0 .8.6 1.4 1.39 1.4.2 0 .6-.1.8-.2.39-.2 6.84-3.38 12.2-9.43a20.13 20.13 0 0 0 5.25-13.2c0-.89-.1-1.68-.2-2.47m-6.84 3.86c0 1.5-.4 6.06-2.88 9.82-1.69 2.58-5.06 5.26-6.94 6.75l.3-19.34c.2-.9 1.68-3.77 5.65-3.77 3.57 0 3.87 3.37 3.87 5.45v1.1m-17.96 33.33c-.6-3.87-2.97-7.54-8.03-7.54-4.96 0-7.84 3.07-8.34 3.67l.4-31.85c0-.79-.6-1.39-1.39-1.39h-1.19c-.8 0-1.39.6-1.39 1.4l.5 59.61c0 .8.6 1.4 1.39 1.4.2 0 .6-.1.8-.2.39-.2 6.84-3.38 12.2-9.43a20.13 20.13 0 0 0 5.25-13.2c0-.89-.1-1.68-.2-2.47m-6.84 3.86c0 1.5-.4 6.06-2.88 9.82-1.69 2.58-5.06 5.26-6.94 6.75l.3-19.34c.2-.9 1.68-3.77 5.65-3.77 3.57 0 3.87 3.37 3.87 5.45v1.1" class="KeySig" style="stroke-width:.992"/><path d="M110.31 99.13h17.04v7.36h-8.16c-.77 0-1.4.63-1.4 1.4v1.9c0 .77.63 1.4 1.4 1.4h30c.78 0 1.4-.63 1.4-1.4v-1.9c0-.77-.62-1.4-1.4-1.4h-8.86v-7.36h8.87c.77 0 1.4-.62 1.4-1.4v-1.9c0-.77-.63-1.4-1.4-1.4h-8.87V78.62c0-.54-.3-1.02-.78-1.25l-1.2-.6a1.4 1.4 0 0 0-1.57.23l-8.98 8.25a1.4 1.4 0 0 0-.46 1.03v8.17h-11.42s11.04-11.94 22.78-27.58c.86-1.14.37-2.18.18-2.37l-2.15-2.2c-.27-.25-.63-.4-1-.4-.59 0-14.03.02-14.75 0-.71-.02-1.25.6-1.32 1.21 0 0-.53 7.3-3.11 15.37-2.58 8.05-5.5 13-8.13 16.6 0 0-.54.98-.18 1.71a30 30 0 0 0 .97 1.83s.26.52 1.1.52m33.64 40.28c-.8 2.19-2.78 9.33-7.64 9.33-6.45 0-7.84-3.97-13.2-3.97-.79 0-1.58.1-2.58.3 0 0 2.48-3.77 13-7.05 10.51-3.27 13.2-8.43 13.2-14.38 0-4.17-1.9-12.4-16.87-12.4-14.98 0-17.76 9.03-17.76 13.59a7.4 7.4 0 0 0 7.44 7.34 7.32 7.32 0 0 0 7.34-7.34c0-2.78-1.98-5.85-4.56-6.84-.3-.1-.7-.6-.7-1.1 0-.6.5-1.29 2.29-1.78.5-.2 1.88-.5 3.37-.5 1.39 0 2.98.3 4.17 1.1 1.88 1.18 2.58 2.97 2.58 7.43 0 11.61-13.8 14.09-19.55 22.72 0 0-2.97 4.17-2.97 8.83s2.38 4.96 3.57 4.96c1.59 0 3.27-1.29 3.27-3.08 0-.4-.1-.79-.3-1.29a8.5 8.5 0 0 1-.79-3.27c0-.3 0-.6.1-.9.1-.59.9-1.58 3.27-1.58 2.88 0 3.97 3.37 5.76 5.95a9.34 9.34 0 0 0 7.73 4.17c3.18 0 7.44-2.28 9.23-5.95 1.79-3.67 4.07-11.11 4.07-13.8 0-1.28-.8-1.88-1.69-1.88-.7 0-1.39.4-1.78 1.4" class="TimeSig" style="stroke-width:.992"/><path fill-rule="evenodd" d="m238.38 105.38 220.6-31.4v12.53l-220.6 31.4v-12.53M528.87 55l220.6 31.39V98.9l-220.6-31.38V55m290.49 50.38 220.6-31.4v12.53l-220.6 31.4v-12.53m290.5-68.26 220.6-25.11v12.48l-220.6 25.11V37.12m297.69 123.68 213.77 25.13v12.48l-213.77-25.12v-12.48m310.89-123.68L1932.2 12v12.48L1718.44 49.6V37.13m251.87 123.67 213.77 25.13v12.48l-213.77-25.12v-12.48M2281.2 54.98l213.76 31.4v12.54l-213.76-31.4V54.98M318.95 337.99l209.54-31.41v12.54l-209.54 31.4V338m275.75-38.03 209.53 31.4v12.55L594.7 312.5v-12.54m275.73 38.03 209.54-31.41v12.54l-209.54 31.4V338m246.24 98.8 209.53-25.12v12.49l-209.53 25.12V436.8m312.94-37.22 209.54 31.4v12.55l-209.54-31.41v-12.54m275.74 37.22 209.54-25.12v12.49l-209.54 25.12V436.8m275.75-37.22 209.53 31.4v12.55l-209.53-31.41v-12.54m305.24-99.61 209.54 31.4v12.55l-209.54-31.41v-12.54M248.62 585.98l216.22-31.4v12.53l-216.22 31.4v-12.53m284.66-37.99 216.22 31.4v12.52l-216.22-31.4V548m284.65 37.98 216.22-31.4v12.53l-216.22 31.4v-12.53m255.17 98.82 216.21-25.11v12.48L1073.1 697.3v-12.5m321.35-37.22 216.22 31.4v12.53l-216.22-31.4v-12.53m284.65 37.22 216.22-25.11v12.48L1679.1 697.3v-12.5m284.66-37.22 216.22 31.4v12.53l-216.22-31.4v-12.53m314.16-99.59 216.22 31.4v12.52l-216.22-31.4V548M269.35 827.78l214.28-31.4v12.53l-214.28 31.4v-12.53m282.07-50.4 214.28 31.4v12.53l-214.28-31.4v-12.53m282.06 50.4 214.28-31.4v12.53l-214.28 31.4v-12.53m252.56 98.8 214.28-31.4v12.53l-214.28 31.4v-12.53m318.77-37.2 214.28 31.4v12.53l-214.28-31.4v-12.53m282.07 37.2 214.28-31.4v12.53l-214.28 31.4v-12.53m282.06-37.2 214.28 31.4v12.53l-214.28-31.4v-12.53m311.57-112 214.28 31.4v12.53l-214.28-31.4v-12.53m-2135.2 487.17 190.73-31.45v12.57l-190.73 31.45v-12.57m250.67-37.2 190.72 31.45v12.57l-190.72-31.45v-12.57m250.66 37.2 190.72-31.45v12.57l-190.72 31.45v-12.57m250.66-49.53 190.72-12.58v12.43l-190.72 12.58v-12.43m302.81-24.79 228.45 12.55v12.42l-228.45-12.55v-12.42m300.96 24.8 228.45-12.55v12.42l-228.45 12.55v-12.42m300.97-24.8 228.45 12.55v12.42l-228.45-12.55v-12.42m300.96 37.15 228.45 31.37v12.52L2103 1239.9v-12.52" class="Beam"/><path d="M241.77.2h-2.15l-2.7 2.45c-3.3-2-5.55-2.65-9.15-2.65-5.6 0-10.25 1.9-13.85 5.75-3.4 3.6-5.05 8.05-5.05 13.5 0 5.2 1.5 9.3 4.75 12.85 3.45 3.8 7.65 5.5 13.55 5.5 8.85 0 13.9-4.25 15.85-13.25l-3.1-.75c-1.35 6.95-5.35 10.9-11.1 10.9-6.8 0-10-5.15-10-16.15 0-10.4 3.2-15.75 9.35-15.75 5.55 0 9.2 3.85 11.45 12.2l2.65-.3-.5-14.3m-34.15 287.85h18.4c6.3 0 10.3-.9 13.4-3.1 4.45-3.1 6.9-8.5 6.9-15.35 0-6.75-2.45-11.85-7.15-14.95-3.05-2-6.7-2.7-13.75-2.7h-17.8v2.7h.75c2.65 0 3.65.2 4.1.75.35.5.35.65.35 3.75v21.7c0 3.1 0 3.25-.35 3.75-.45.55-1.45.75-4.1.75h-.75v2.7m17.2-2.7c-2.55-.05-3-.55-3-3.25v-24.45c-.1-2.3.5-2.9 3-3h1.25c6.95 0 10.3 4.85 10.3 14.85 0 5.35-1.05 10.2-2.65 12.45-1.55 2.1-4.5 3.4-7.85 3.4h-1.05m40.1-12.05c-.4-2.6-1.95-5-5.35-5a7.1 7.1 0 0 0-5.52 2.43l.22-21.16a.9.9 0 0 0-.91-.92h-.78c-.21 0-.5.12-.65.27a1.03 1.03 0 0 0-.27.65l.36 39.67c0 .5.41.9.91.9.16 0 .4-.07.53-.16.26-.13 4.5-2.2 8.08-6.25 3.07-3.44 3.87-7.48 3.37-10.43m-4.52 2.62c0 .96-.25 4.03-1.92 6.53-1.14 1.72-3.34 3.53-4.6 4.5l.14-12.88c.15-.62 1.15-2.52 3.8-2.5 2.9 0 2.58 3.38 2.58 4.35m-53.66 260.13h18.4c6.3 0 10.3-.9 13.4-3.1 4.45-3.1 6.9-8.5 6.9-15.35 0-6.75-2.45-11.85-7.15-14.95-3.05-2-6.7-2.7-13.75-2.7h-17.8v2.7h.75c2.65 0 3.65.2 4.1.75.35.5.35.65.35 3.75v21.7c0 3.1 0 3.25-.35 3.75-.45.55-1.45.75-4.1.75h-.75v2.7m17.2-2.7c-2.55-.05-3-.55-3-3.25v-24.45c-.1-2.3.5-2.9 3-3h1.25c6.95 0 10.3 4.85 10.3 14.85 0 5.35-1.05 10.2-2.65 12.45-1.55 2.1-4.5 3.4-7.85 3.4h-1.05m14.75 214.6h-33.55v2.7h.75c2.65 0 3.65.2 4.1.75.35.5.35.65.35 3.75v21.7c0 3.1 0 3.25-.35 3.75-.45.55-1.45.75-4.1.75h-.75v2.7h33.95l.6-13.45h-2.65c-1.9 7.25-5.65 10.7-11.7 10.75h-1.5c-3.65.1-4.55-.6-4.5-3.55v-11.05h.85c3.95 0 6.35 2.5 6.9 7.1h2.7V756.9h-2.7c-.55 4.6-2.95 7.1-6.9 7.1h-.85v-9.05c-.1-3.5.6-4.25 4.3-4.3h1.4c6.25.15 9.25 2.85 11.35 10.3h2.6l-.3-13m20.19 21.35c-.4-2.6-1.94-5-5.34-5s-5.2 2.03-5.53 2.43l.23-21.16c0-.5-.41-.92-.92-.92h-.78c-.2 0-.5.12-.65.27-.14.14-.26.43-.26.63v.02l.35 39.67c0 .5.42.91.92.91.16 0 .4-.08.53-.17.26-.13 4.49-2.2 8.08-6.25 3.06-3.44 3.87-7.48 3.37-10.43m-4.53 2.62c0 .96-.24 4.03-1.91 6.53-1.15 1.72-3.34 3.53-4.6 4.5l.14-12.88c.15-.62 1.14-2.52 3.8-2.5 2.89 0 2.57 3.38 2.57 4.35M178.21 1104h-2.15l-2.7 2.44c-3.3-2-5.55-2.65-9.15-2.65-5.6 0-10.25 1.9-13.85 5.75-3.4 3.6-5.05 8.05-5.05 13.5 0 5.2 1.5 9.3 4.75 12.85 3.45 3.8 7.65 5.5 13.55 5.5 8.85 0 13.9-4.25 15.85-13.25l-3.1-.75c-1.35 6.95-5.35 10.9-11.1 10.9-6.8 0-10-5.15-10-16.15 0-10.4 3.2-15.75 9.35-15.75 5.55 0 9.2 3.85 11.45 12.2l2.65-.3-.5-14.3" class="StaffText"/></svg>