<svg xmlns="http://www.w3.org/2000/svg" width="478.85" height="115.99" viewBox="0 0 126.7 30.69"><g style="fill:#000;fill-opacity:0;stroke:#000;stroke-width:.1524;stroke-linecap:round;stroke-linejoin:round;stroke-opacity:1"><g style="fill:#ffffc2;fill-opacity:1;stroke:#ffffc2;stroke-width:0;stroke-linecap:round;stroke-linejoin:round;stroke-opacity:1"><path stroke="none" d="m298.45 43.81 10.16 5.08-10.16 5.08z" style="fill:#ffffc2;fill-opacity:1;fill-rule:evenodd;stroke:#ffffc2;stroke-width:0;stroke-linecap:round;stroke-linejoin:round;stroke-opacity:1" transform="translate(-213.84 -30.98)"/></g><g style="fill:#840000;fill-opacity:0;stroke:#840000;stroke-width:.254;stroke-linecap:round;stroke-linejoin:round;stroke-opacity:1"><path d="m298.45 43.81 10.16 5.08-10.16 5.08z" style="fill:none;fill-opacity:0;stroke:#840000;stroke-width:.254;stroke-linecap:round;stroke-linejoin:round;stroke-opacity:1" transform="translate(-213.84 -30.98)"/></g><path fill="none" d="M298.45 46.35h-2.54" style="fill:#840000;fill-opacity:0;stroke:#840000;stroke-width:.1524;stroke-linecap:round;stroke-linejoin:round;stroke-opacity:1" transform="translate(-213.84 -30.98)"/><path fill="none" d="M298.98 46.45h.97m-.49.48v-.96" class="stroked-text" style="fill:#006464;fill-opacity:0;stroke:#006464;stroke-width:.1524;stroke-linecap:round;stroke-linejoin:round;stroke-opacity:1" transform="translate(-213.84 -30.98)"/><path fill="none" d="M297.48 44.67h-.6m0 0-.06.6m0 0 .06-.06m0 0 .12-.06m0 0h.3m0 0 .12.06m0 0 .06.06m0 0 .06.12m0 .01v.3m0 0-.06.12m0 0-.06.06m0 0-.12.06m0 0h-.3m0 0-.12-.06m0 0-.06-.06" class="stroked-text" style="fill:#a90000;fill-opacity:0;stroke:#a90000;stroke-width:.1524;stroke-linecap:round;stroke-linejoin:round;stroke-opacity:1" transform="translate(-213.84 -30.98)"/><path fill="none" d="M298.45 51.44h-2.54" style="fill:#840000;fill-opacity:0;stroke:#840000;stroke-width:.1524;stroke-linecap:round;stroke-linejoin:round;stroke-opacity:1" transform="translate(-213.84 -30.98)"/><path fill="none" d="M298.98 51.53h.97" class="stroked-text" style="fill:#006464;fill-opacity:0;stroke:#006464;stroke-width:.1524;stroke-linecap:round;stroke-linejoin:round;stroke-opacity:1" transform="translate(-213.84 -30.98)"/><path fill="none" d="M297.42 49.75h-.24m0 0-.12.06m0-.01-.06.07m0 0-.12.18m0 0-.06.24m0 .01v.48m0 0 .06.12m0 0 .06.06m0 0 .12.06m0 0h.24m0 0 .12-.06m0 0 .06-.06m0 0 .06-.12m0 0v-.3m0-.01-.06-.12m0 0-.06-.06m0 .01-.12-.07m0 0h-.24m0 0-.12.06m0 .01-.06.05m0 0-.06.12" class="stroked-text" style="fill:#a90000;fill-opacity:0;stroke:#a90000;stroke-width:.1524;stroke-linecap:round;stroke-linejoin:round;stroke-opacity:1" transform="translate(-213.84 -30.98)"/><path fill="none" d="M308.61 48.9h2.54" style="fill:#840000;fill-opacity:0;stroke:#840000;stroke-width:.1524;stroke-linecap:round;stroke-linejoin:round;stroke-opacity:1" transform="translate(-213.84 -30.98)"/><path fill="none" d="M309.46 47.2h.84m0 0-.54 1.28" class="stroked-text" style="fill:#a90000;fill-opacity:0;stroke:#a90000;stroke-width:.1524;stroke-linecap:round;stroke-linejoin:round;stroke-opacity:1" transform="translate(-213.84 -30.98)"/><path fill="none" d="M300.05 48.2v1.03m0 0 .06.12m0 0 .06.06m0 0 .12.06m.01 0h.24m0 0 .12-.06m0 0 .06-.06m0 0 .06-.12m0 0V48.2m1.27 1.27h-.73m.37 0V48.2m0 0-.13.19m0 0-.12.12m0-.01-.12.07m1.51-.37h.13m0 0 .12.07m0 0 .06.06m0 0 .06.12m0 0 .06.24m0 0v.3m0 .01-.06.23m0 0-.06.12m0 0-.06.06m0 0-.12.06m0 0h-.13m0 0-.12-.06m0 0-.06-.06m0 0-.06-.12m.01 0-.07-.24m0 .01v-.31m0 0 .06-.24m.01 0 .05-.12m0 0 .06-.07m0 .01.12-.07m1.4.6.18.07m-.01 0 .07.06m0 0 .06.12m0 0v.18m0 0-.06.12m0 0-.06.06m-.01 0-.11.06m0 0h-.49m0 0V48.2m0 0h.43m0 0 .12.07m0 0 .06.06m-.01 0 .07.12m0 0v.12m0 0-.06.12m-.01 0-.05.06m0 0-.12.06m0-.01h-.43" class="stroked-text" style="fill:#006464;fill-opacity:0;stroke:#006464;stroke-width:.1524;stroke-linecap:round;stroke-linejoin:round;stroke-opacity:1" transform="translate(-213.84 -30.98)"/></g><g style="fill:#006464;fill-opacity:0;stroke:#006464;stroke-width:.1524;stroke-linecap:round;stroke-linejoin:round;stroke-opacity:1"><g style="fill:#840000;fill-opacity:0;stroke:#840000;stroke-width:.1524;stroke-linecap:round;stroke-linejoin:round;stroke-opacity:1"><path d="M321.94 53.98v1.27h1.27l-1.27 1.27-1.27-1.27h1.27" style="fill:none;fill-opacity:0;stroke:#840000;stroke-width:.1524;stroke-linecap:round;stroke-linejoin:round;stroke-opacity:1" transform="translate(-213.84 -30.98)"/></g></g><g style="fill:#840000;fill-opacity:0;stroke:#840000;stroke-width:.1524;stroke-linecap:round;stroke-linejoin:round;stroke-opacity:1"><g transform="translate(-213.84 -30.98)"><rect width=".51" height="4.57" x="315.85" y="46.61" fill="none" rx="0"/><path d="M314.58 50.67v-1.01m-.51.5h1.02" style="fill:none;fill-opacity:0;stroke:#840000;stroke-width:.1524;stroke-linecap:round;stroke-linejoin:round;stroke-opacity:1"/></g><rect width=".51" height="4.57" x="317.37" y="46.61" rx="0" style="fill:#840000;fill-opacity:1;stroke:#840000;stroke-width:.1524;stroke-linecap:round;stroke-linejoin:round;stroke-opacity:1" transform="translate(-213.84 -30.98)"/><path fill="none" d="M102.01 17.91h-2.8m4.83 0h2.8" style="fill:#840000;fill-opacity:0;stroke:#840000;stroke-width:.1524;stroke-linecap:round;stroke-linejoin:round;stroke-opacity:1"/><path fill="none" d="m102.21 12.02-.06.06m0 0-.18.06m-.01 0h-.11m0 0-.19-.06m0 0-.12-.12m0 0-.06-.12m0 0-.06-.24m0 0v-.18m0 0 .06-.24m0 0 .06-.12m0 0 .12-.12m0-.01.19-.06m0 0h.12m-.01 0 .19.07m0-.01.06.07m.48 0 .06-.07m.01 0 .11-.06m0 0h.3m.01 0 .12.07m0-.01.06.07m0 0 .06.12m0 0v.12m0 0-.06.18m0 0-.73.72m0 0h.79m.42-1.27h.85m0 0-.55 1.27M101 14.68h-.73m.37 0v-1.26m0 0-.12.18m0 0-.13.12m0 0-.12.06m1.52-.36h.12m0 0 .12.06m0-.01.06.07m0 0 .06.12m0 0 .06.24m0 0v.3m0 0-.06.24m0 0-.06.12m0 0-.06.06m0 0-.12.06m0 0h-.12m0 0-.13-.06m0 0-.06-.06m0 0-.06-.12m0 0-.06-.24m0 0v-.3m0 0 .06-.24m0 0 .06-.12m0 0 .06-.07m0 0 .13-.06m1.2.01h.13m0 0 .12.06m0-.01.06.07m0 0 .06.12m0 0 .06.24m0 0v.3m0 0-.06.24m0 0-.06.12m0 0-.06.06m0 0-.12.06m0 0h-.13m0 0-.12-.06m0 0-.06-.06m0 0-.06-.12m.01 0-.07-.24m0 0v-.3m0 0 .06-.24m.01 0 .05-.12m0 0 .06-.07m0 0 .12-.06m1.21.01h.13m0 0 .12.06m0-.01.06.07m0 0 .06.12m-.01 0 .07.24m0 0v.3m0 0-.06.24m-.01 0-.05.12m0 0-.06.06m0 0-.12.06m0 0h-.13m0 0-.12-.06m0 0-.06-.06m0 0-.06-.12m0 0-.06-.24m0 0v-.3m0 0 .06-.24m0 0 .06-.12m0 0 .06-.07m0 0 .12-.06m1.52.43v.84m-.55-.84v.66m0 0 .06.12m0 0 .12.06m.01 0h.17m0 0 .13-.06m0 0 .06-.06" class="stroked-text" style="fill:#006464;fill-opacity:0;stroke:#006464;stroke-width:.1524;stroke-linecap:round;stroke-linejoin:round;stroke-opacity:1"/></g><g style="fill:#006464;fill-opacity:0;stroke:#006464;stroke-width:.1524;stroke-linecap:round;stroke-linejoin:round;stroke-opacity:1"><g style="fill:#840000;fill-opacity:0;stroke:#840000;stroke-width:.254;stroke-linecap:round;stroke-linejoin:round;stroke-opacity:1" transform="translate(-213.84 -30.98)"><rect width="3.56" height="5.08" x="325.75" y="47.63" fill="none" rx="0"/><path d="m329.31 47.63 2.54-2.55v10.17l-2.54-2.54" style="fill:none;fill-opacity:0;stroke:#840000;stroke-width:.254;stroke-linecap:round;stroke-linejoin:round;stroke-opacity:1"/></g><path fill="none" d="M325.75 48.9h-2.54" style="fill:#840000;fill-opacity:0;stroke:#840000;stroke-width:.1524;stroke-linecap:round;stroke-linejoin:round;stroke-opacity:1" transform="translate(-213.84 -30.98)"/><path fill="none" d="M324.85 50.47h-.73m.37 0V49.2m0 0-.13.18m0 0-.12.12m0 0-.12.06" class="stroked-text" style="fill:#a90000;fill-opacity:0;stroke:#a90000;stroke-width:.1524;stroke-linecap:round;stroke-linejoin:round;stroke-opacity:1" transform="translate(-213.84 -30.98)"/><path fill="none" d="M325.75 51.44h-2.54" style="fill:#840000;fill-opacity:0;stroke:#840000;stroke-width:.1524;stroke-linecap:round;stroke-linejoin:round;stroke-opacity:1" transform="translate(-213.84 -30.98)"/><path fill="none" d="m324.12 51.86.06-.06m0 0 .12-.06m0 0h.3m0 0 .13.06m0 0 .06.06m0 0 .06.12m0 0v.12m0 0-.06.19m0 0-.73.72m0 0h.79" class="stroked-text" style="fill:#a90000;fill-opacity:0;stroke:#a90000;stroke-width:.1524;stroke-linecap:round;stroke-linejoin:round;stroke-opacity:1" transform="translate(-213.84 -30.98)"/><path fill="none" d="M119.92 18.49h-.6m-.01 0v-1.27m.97 1.21.18.06m0 0h.3m0 0 .13-.06m0 0 .06-.06m0 0 .06-.12m0 0v-.12m0 0-.06-.12m0 .01-.06-.07m0 0-.13-.06m0 0-.24-.06m0-.01-.12-.05m0 0-.06-.06m0 0-.06-.12m0 0v-.12m0 0 .06-.12m0 0 .06-.07m0 .01.12-.07m0 0h.3m.01 0 .18.07m1.21 1.2h-.73m.37 0v-1.27m0 0-.13.19m0 0-.12.12m0-.01-.12.07m-2.23 3.38.17.06m0 0h.3m.01 0 .12-.06m0 0 .06-.06m0 .01.06-.13m0 0v-.12m0 0-.06-.12m0 0-.06-.06m0 0-.12-.06m0 0-.25-.06m0 0-.12-.06m0 0-.06-.06m0 0-.06-.12m.01-.01v-.1m0-.01.05-.12m0 0 .06-.06m0-.01.13-.06m-.01 0h.3m.01 0 .18.07m.54.36v1.27m0-1.21.12-.06m0 0h.25m0 0 .12.06m0 0 .06.06m-.01 0 .07.12m0 0v.36m0 0-.06.12m-.01.01-.05.05m0 0-.12.06m0 0h-.25m0 0-.12-.06m1.64 0-.13.06m0 0h-.24m0 0-.12-.06m0 0-.06-.12m0 0v-.48m0 0 .06-.12m0 0 .12-.06m0 0h.24m0 0 .13.06m0 0 .06.12m0 0v.12m0 0-.6.12m1.68.42v-.66m0 0-.06-.12m0 0-.12-.06m0 0h-.24m0 0-.12.06m.54.72-.12.06m0 0h-.3m0 0-.12-.06m0 0-.06-.12m0 0v-.12m0 0 .06-.12m0 .01.12-.07m0 0h.3m0 0 .12-.06m.61.54v-1.27m.12.79.36.48m0-.84-.48.48m1.51.3-.12.06m0 0h-.24m0 0-.12-.06m0 0-.06-.12m0 0v-.48m0 0 .06-.12m0 0 .12-.06m0 0h.24m0 0 .12.06m0 0 .06.12m0 0v.12m0 0-.6.12m1.15.42v-.84m0 .24.06-.12m0 0 .06-.06m0 0 .12-.06m-.01 0h.13" class="stroked-text" style="fill:#006464;fill-opacity:0;stroke:#006464;stroke-width:.1524;stroke-linecap:round;stroke-linejoin:round;stroke-opacity:1"/></g><g fill="none" style="fill:#006464;fill-opacity:0;stroke:#006464;stroke-width:.1524;stroke-linecap:round;stroke-linejoin:round;stroke-opacity:1"><path d="M289.56 52.7v3.81" style="fill:#840000;fill-opacity:0;stroke:#840000;stroke-width:.1524;stroke-linecap:round;stroke-linejoin:round;stroke-opacity:1" transform="translate(-213.84 -30.98)"/><path d="m288.87 52.36 1.27-.43m0 0-1.27-.42m.79-.42v-.97" class="stroked-text" style="fill:#006464;fill-opacity:0;stroke:#006464;stroke-width:.1524;stroke-linecap:round;stroke-linejoin:round;stroke-opacity:1" transform="translate(-213.84 -30.98)"/><path d="M288.3 54.37h.84m-1.33.3.9.3m.01 0v-.78" class="stroked-text" style="fill:#a90000;fill-opacity:0;stroke:#a90000;stroke-width:.1524;stroke-linecap:round;stroke-linejoin:round;stroke-opacity:1" transform="translate(-213.84 -30.98)"/><path d="M289.56 45.09v-3.82" style="fill:#840000;fill-opacity:0;stroke:#840000;stroke-width:.1524;stroke-linecap:round;stroke-linejoin:round;stroke-opacity:1" transform="translate(-213.84 -30.98)"/><path d="m288.87 47.85 1.27-.42m0 0-1.27-.42m.79-.43v-.97m.48.49h-.97" class="stroked-text" style="fill:#006464;fill-opacity:0;stroke:#006464;stroke-width:.1524;stroke-linecap:round;stroke-linejoin:round;stroke-opacity:1" transform="translate(-213.84 -30.98)"/><path d="m288.42 43.3-.06.12m0 0-.06.06m0 0-.13.06m0 0h-.06m0 0-.12-.06m.01 0-.07-.06m0 0-.06-.12m0 0v-.24m0 0 .06-.12m0 0 .06-.06m.01 0 .11-.06m0 0h.06m0 0 .13.06m0 0 .06.06m0 0 .06.12m0 0v.24m0 0 .06.12m0 0 .06.06m0 0 .12.06m0 0h.24m0 0 .12-.06m0 0 .06-.06m0 0 .06-.12m0 0v-.24m0 0-.06-.12m0 0-.06-.06m0 0-.12-.06m0 0h-.24m0 0-.12.06m0 0-.06.06m0 0-.06.12" class="stroked-text" style="fill:#a90000;fill-opacity:0;stroke:#a90000;stroke-width:.1524;stroke-linecap:round;stroke-linejoin:round;stroke-opacity:1" transform="translate(-213.84 -30.98)"/><path d="M290.77 55.47h1.03m0 0 .12-.06m0-.01.06-.05m0 0 .06-.13m0 0v-.24m0 0-.06-.12m0 0-.06-.06m0 0-.12-.06m0 0h-1.03m1.27-1.27v.73m0-.37h-1.27m0 0 .19.12m0 0 .12.13m0 0 .06.12m-.37-1.52v-.12m0 0 .07-.12m-.01 0 .07-.06m0 0 .12-.06m0 0 .24-.06m0 0h.3m0 0 .24.06m0 0 .12.06m0 0 .06.06m0 0 .06.12m0 0v.12m0 0-.06.13m0-.01-.06.07m0 0-.12.06m0 0-.24.06m0 0h-.3m0 0-.24-.06m0 0-.12-.06m0 0-.06-.06m-.01-.01-.06-.12m1.15-1.68.06.05m0 0 .06.18m0 0v.12m0 0-.06.19m0 0-.12.12m0 0-.12.06m0 0-.24.06m0 0h-.18m0 0-.24-.06m0 0-.12-.06m0 0-.12-.12m-.01 0-.06-.19m0 0v-.12m0 0 .07-.18m-.01 0 .07-.06" class="stroked-text" style="fill:#006464;fill-opacity:0;stroke:#006464;stroke-width:.1524;stroke-linecap:round;stroke-linejoin:round;stroke-opacity:1" transform="translate(-213.84 -30.98)"/></g><g style="fill:#006464;fill-opacity:0;stroke:#006464;stroke-width:.1524;stroke-linecap:round;stroke-linejoin:round;stroke-opacity:1"><g style="fill:#840000;fill-opacity:0;stroke:#840000;stroke-width:.508;stroke-linecap:round;stroke-linejoin:round;stroke-opacity:1"><path d="M263.02 50.93v-4.07m-1.52 4.07v-4.07" style="fill:none;fill-opacity:0;stroke:#840000;stroke-width:.508;stroke-linecap:round;stroke-linejoin:round;stroke-opacity:1" transform="translate(-213.84 -30.98)"/></g><path fill="none" d="M47.4 17.91h-2.8m4.83 0h2.8" style="fill:#840000;fill-opacity:0;stroke:#840000;stroke-width:.1524;stroke-linecap:round;stroke-linejoin:round;stroke-opacity:1"/><path fill="none" d="m47.6 12.02-.06.06m0 0-.18.06m0 0h-.12m0 0-.19-.06m.01 0-.13-.12m0 0-.06-.12m0 0-.06-.24m0 0v-.18m0 0 .06-.24m0 0 .06-.12m0 0 .12-.12m.01-.01.18-.06m0 0h.12m0 0 .18.07m0-.01.06.07m.48 0 .06-.07m0 0 .12-.06m0 0h.3m0 0 .13.07m0-.01.06.07m0 0 .06.12m0 0v.12m0 0-.06.18m0 0-.73.72m0 0h.79m1.09-1.27h-.25m.01 0-.13.07m0-.01-.06.07m0 0-.12.18m.01 0-.07.24m0 0v.48m0 0 .06.12m.01 0 .05.06m0 0 .12.06m0 0h.25m0 0 .12-.06m0 0 .06-.06m0 0 .06-.12m0 0v-.3m0 0-.06-.12m0 0-.06-.06m0 0-.12-.06m0 0h-.25m0 0-.12.06m0 0-.06.06m.01 0-.07.12m-1.69 3.08h-.73m.37 0v-1.26m0 0-.13.18m0 0-.12.12m0 0-.12.06m1.51-.36h.13m0 0 .12.06m0-.01.06.07m0 0 .06.12m0 0 .06.24m0 0v.3m0 0-.06.24m0 0-.06.12m0 0-.06.06m0 0-.12.06m0 0h-.13m0 0-.12-.06m0 0-.06-.06m0 0-.06-.12m0 0-.06-.24m0 0v-.3m0 0 .06-.24m0 0 .06-.12m0 0 .06-.07m0 0 .12-.06m1.52.43v.84m-.54-.84v.66m0 0 .05.12m0 0 .12.06m0 0h.19m0 0 .12-.06m0 0 .06-.06" class="stroked-text" style="fill:#006464;fill-opacity:0;stroke:#006464;stroke-width:.1524;stroke-linecap:round;stroke-linejoin:round;stroke-opacity:1"/></g><g style="fill:#006464;fill-opacity:0;stroke:#006464;stroke-width:.1524;stroke-linecap:round;stroke-linejoin:round;stroke-opacity:1"><g style="fill:#ffffc2;fill-opacity:1;stroke:#ffffc2;stroke-width:0;stroke-linecap:round;stroke-linejoin:round;stroke-opacity:1"><path stroke="none" d="m253.37 48.9-7.62-7.62H230.5v15.24h15.24z" style="fill:#ffffc2;fill-opacity:1;fill-rule:evenodd;stroke:#ffffc2;stroke-width:0;stroke-linecap:round;stroke-linejoin:round;stroke-opacity:1" transform="translate(-213.84 -30.98)"/></g><g style="fill:#840000;fill-opacity:0;stroke:#840000;stroke-width:.254;stroke-linecap:round;stroke-linejoin:round;stroke-opacity:1"><path d="m253.37 48.9-7.62-7.62H230.5v15.24h15.24z" style="fill:none;fill-opacity:0;stroke:#840000;stroke-width:.254;stroke-linecap:round;stroke-linejoin:round;stroke-opacity:1" transform="translate(-213.84 -30.98)"/></g><path fill="none" d="M238.13 41.27v-2.54" style="fill:#840000;fill-opacity:0;stroke:#840000;stroke-width:.1524;stroke-linecap:round;stroke-linejoin:round;stroke-opacity:1" transform="translate(-213.84 -30.98)"/><path fill="none" d="m237.43 45.66 1.27-.43m0 0-1.27-.42m1.27-.97h-1.27m1.21 0 .06.12m0 0v.25m0-.01-.06.13m0 0-.06.06m0 0-.12.06m0 0h-.36m0 0-.12-.06m0 0-.06-.06m0 0-.06-.12m0-.01v-.24m0 0 .06-.12m.78-1.14h-1.27m1.21 0 .06.11m0 0v.25m0 0-.06.12m0 0-.06.06m0 0-.12.06m0 0h-.36m0 0-.12-.06m0 0-.06-.06m0 0-.06-.12m0 0v-.25m0 0 .06-.12" class="stroked-text" style="fill:#006464;fill-opacity:0;stroke:#006464;stroke-width:.1524;stroke-linecap:round;stroke-linejoin:round;stroke-opacity:1" transform="translate(-213.84 -30.98)"/><path fill="none" d="M237.7 39.64v.73m0-.37h-1.26m0 0 .18.13m0 0 .12.12m0 0 .06.12" class="stroked-text" style="fill:#a90000;fill-opacity:0;stroke:#a90000;stroke-width:.1524;stroke-linecap:round;stroke-linejoin:round;stroke-opacity:1" transform="translate(-213.84 -30.98)"/><path fill="none" d="M230.5 48.9h-2.54" style="fill:#840000;fill-opacity:0;stroke:#840000;stroke-width:.1524;stroke-linecap:round;stroke-linejoin:round;stroke-opacity:1" transform="translate(-213.84 -30.98)"/><path fill="none" d="m232.65 49.35-.06.06m0 0-.18.06m-.01 0h-.11m0 0-.19-.06m0 0-.12-.12m0 .01-.06-.13m0 0-.06-.24m0 0v-.18m0 0 .06-.24m0-.01.06-.11m0 0 .13-.12m-.01 0 .19-.07m0 0h.12m-.01 0 .19.07m0 0 .06.06m.48 1.08.18.06m0 0h.3m.01 0 .12-.06m0 0 .06-.06m0 0 .06-.12m0 0v-.12m0 0-.06-.12m0 .01-.06-.07m0 0-.12-.06m0 0-.25-.06m.01-.01-.13-.05m0 0-.06-.06m.01 0-.07-.12m0 0v-.12m0 0 .06-.12m.01 0 .05-.06m0 0 .12-.07m.01 0h.3m0 0 .18.07m-2.11-.42h2.22" class="stroked-text" style="fill:#006464;fill-opacity:0;stroke:#006464;stroke-width:.1524;stroke-linecap:round;stroke-linejoin:round;stroke-opacity:1" transform="translate(-213.84 -30.98)"/><path fill="none" d="m228.87 47.33.06-.06m0 0 .12-.06m0-.01h.3m.01 0 .12.07m0 0 .06.06m0 0 .06.12m0 0v.12m0 0-.06.18m0 0-.73.73m0 0h.79" class="stroked-text" style="fill:#a90000;fill-opacity:0;stroke:#a90000;stroke-width:.1524;stroke-linecap:round;stroke-linejoin:round;stroke-opacity:1" transform="translate(-213.84 -30.98)"/><path fill="none" d="M16.67 20.45h-2.54m2.54.64 1.27-.64-1.27-.63" style="fill:#840000;fill-opacity:0;stroke:#840000;stroke-width:.1524;stroke-linecap:round;stroke-linejoin:round;stroke-opacity:1"/><path fill="none" d="m231.86 51.95.18.06m0 0h.3m.01 0 .12-.06m0 0 .06-.06m0 .01.06-.13m0 0v-.12m0 0-.06-.12m0 0-.06-.06m0 0-.12-.06m0 0-.25-.06m0 0-.12-.06m0 0-.06-.06m0 0-.06-.12m0-.01V51m0-.01.06-.12m0 0 .06-.06m0-.01.13-.06m-.01 0h.3m0 0 .19.07m1.27 1.09-.06.05m0 0-.18.06m0 0h-.12m0 0-.19-.06m0 0-.12-.12m.01 0-.07-.12m0 0-.06-.24m0 0v-.18m0 0 .06-.24m0 0 .06-.12m.01 0 .11-.12m0-.01.19-.06m0 0h.12m0 0 .18.07m0-.01.06.07m.54 1.14v-1.27m.73 1.27-.55-.72m.55-.55-.73.73" class="stroked-text" style="fill:#006464;fill-opacity:0;stroke:#006464;stroke-width:.1524;stroke-linecap:round;stroke-linejoin:round;stroke-opacity:1" transform="translate(-213.84 -30.98)"/><path fill="none" d="M228.81 49.75h.79m0 0-.43.48m0 0h.19m0 0 .12.06m0 .01.06.05m0 0 .06.12m0 0v.3m0 .01-.06.12m0 0-.06.06m0 0-.12.06m0 0h-.37m.01 0-.13-.06m0 0-.06-.06" class="stroked-text" style="fill:#a90000;fill-opacity:0;stroke:#a90000;stroke-width:.1524;stroke-linecap:round;stroke-linejoin:round;stroke-opacity:1" transform="translate(-213.84 -30.98)"/><path fill="none" d="M230.5 53.98h-2.54" style="fill:#840000;fill-opacity:0;stroke:#840000;stroke-width:.1524;stroke-linecap:round;stroke-linejoin:round;stroke-opacity:1" transform="translate(-213.84 -30.98)"/><path fill="none" d="m231.86 54.5.18.05m0 0h.3m.01 0 .12-.06m0 .01.06-.07m0 0 .06-.12m0 0v-.12m0 .01-.06-.13m0 0-.06-.06m0 0-.12-.06m0 0-.25-.06m0 0-.12-.06m0 0-.06-.06m0 0-.06-.12m0 0v-.12m0 0 .06-.12m0-.01.06-.05m0-.01.13-.06m-.01 0h.3m0 0 .19.07m.54 1.2v-1.27m0 0h.3m.01 0 .18.07m0-.01.12.13m0 0 .06.12m0 0 .06.24m0 0V54m0 .01-.06.24m0 0-.06.12m0 0-.12.12m0 .01-.18.05m0 0h-.3m1.26 0v-1.27" class="stroked-text" style="fill:#006464;fill-opacity:0;stroke:#006464;stroke-width:.1524;stroke-linecap:round;stroke-linejoin:round;stroke-opacity:1" transform="translate(-213.84 -30.98)"/><path fill="none" d="M229.48 52.71v.85m-.31-1.33-.3.9m0 0h.79" class="stroked-text" style="fill:#a90000;fill-opacity:0;stroke:#a90000;stroke-width:.1524;stroke-linecap:round;stroke-linejoin:round;stroke-opacity:1" transform="translate(-213.84 -30.98)"/><path fill="none" d="M230.5 46.35h-2.54" style="fill:#840000;fill-opacity:0;stroke:#840000;stroke-width:.1524;stroke-linecap:round;stroke-linejoin:round;stroke-opacity:1" transform="translate(-213.84 -30.98)"/><path fill="none" d="M232.53 46.93h-.6m-.01 0v-1.27m1.03 1.27v-1.27m0 0h.3m0 0 .19.07m0 0 .12.12m0 0 .06.12m0 0 .06.24m0-.01v.19m0 0-.06.24m0 0-.06.12m0 0-.12.12m0 0-.19.06m0 0h-.3m1.21-.36h.6m-.72.36.42-1.27m0 0 .43 1.27m1.15-.12-.06.06m0 0-.19.06m.01 0h-.13m0 0-.18-.06m.01 0-.13-.12m0 0-.06-.12m0 0-.06-.24m0 0v-.18m0-.01.06-.23m0 0 .06-.12m0 0 .12-.13m.01.01.17-.07m0 0h.12m.01 0 .18.07m0 0 .06.06m-4.29-.48h4.4" class="stroked-text" style="fill:#006464;fill-opacity:0;stroke:#006464;stroke-width:.1524;stroke-linecap:round;stroke-linejoin:round;stroke-opacity:1" transform="translate(-213.84 -30.98)"/><path fill="none" d="M229.54 44.67h-.6m-.01 0-.06.6m0 0 .06-.06m0 0 .12-.06m0 0h.3m.01 0 .12.06m0 0 .06.06m0 0 .06.12m0 .01v.3m0 0-.06.12m0 0-.06.06m0 0-.12.06m0 0h-.3m-.01 0-.12-.06m0 0-.06-.06" class="stroked-text" style="fill:#a90000;fill-opacity:0;stroke:#a90000;stroke-width:.1524;stroke-linecap:round;stroke-linejoin:round;stroke-opacity:1" transform="translate(-213.84 -30.98)"/><path fill="none" d="M243.2 41.27v-2.54" style="fill:#840000;fill-opacity:0;stroke:#840000;stroke-width:.1524;stroke-linecap:round;stroke-linejoin:round;stroke-opacity:1" transform="translate(-213.84 -30.98)"/><path fill="none" d="m242.51 45.96 1.27-.42m0 0-1.27-.43m1.27-.42h-.84m.24 0-.12-.06m0 0-.06-.06m0 0-.06-.12m0 0v-.12m.78-.91.06.12m0 0v.24m0 0-.06.12m0 0-.12.06m0 0h-.48m0 0-.12-.06m0 0-.06-.12m0 0v-.24m0 0 .06-.12m0 0 .12-.06m0 0h.12m0 0 .12.6m-.42-.96v-.49m.84.3h-1.08m0 0-.13-.06m0 0-.06-.12m0 0v-.12" class="stroked-text" style="fill:#006464;fill-opacity:0;stroke:#006464;stroke-width:.1524;stroke-linecap:round;stroke-linejoin:round;stroke-opacity:1" transform="translate(-213.84 -30.98)"/><path fill="none" d="M241.52 39.76V40m0 0 .06.13m0 0 .06.06m0 0 .18.12m0-.01.24.07m0 0h.49m0 0 .12-.06m0-.01.06-.05m0 0 .06-.12m0 0v-.25m0 0-.06-.12m0 0-.06-.06m0 0-.12-.06m0 0h-.3m-.01 0-.12.06m0 0-.06.06m0 0-.06.12m0 0v.25m0 0 .06.12m0 0 .06.06m0-.01.12.07" class="stroked-text" style="fill:#a90000;fill-opacity:0;stroke:#a90000;stroke-width:.1524;stroke-linecap:round;stroke-linejoin:round;stroke-opacity:1" transform="translate(-213.84 -30.98)"/><path fill="none" d="M238.13 56.52v2.53" style="fill:#840000;fill-opacity:0;stroke:#840000;stroke-width:.1524;stroke-linecap:round;stroke-linejoin:round;stroke-opacity:1" transform="translate(-213.84 -30.98)"/><path fill="none" d="m237.43 55.28 1.27-.43m0 0-1.27-.42m1.21-.36.06-.12m0 0v-.24m0-.01-.06-.12m0 0-.12-.06m0 0h-.06m0 0-.12.06m0 0-.06.13m0-.01v.19m0 0-.06.12m0-.01-.12.07m0 0h-.06m0 0-.12-.06m0-.01-.06-.11m0 0v-.18m0-.01.06-.12m.72-.54.06-.12m0 0v-.24m0 0-.06-.12m0 0-.12-.06m0 0h-.06m0 0-.12.06m0 0-.06.12m0 0v.18m0 0-.06.12m0 0-.12.06m0 0h-.06m0 0-.12-.06m0 0-.06-.12m0 0v-.18m0 0 .06-.12" class="stroked-text" style="fill:#006464;fill-opacity:0;stroke:#006464;stroke-width:.1524;stroke-linecap:round;stroke-linejoin:round;stroke-opacity:1" transform="translate(-213.84 -30.98)"/><path fill="none" d="M236.44 58.2v-.84m0 0 1.27.55" class="stroked-text" style="fill:#a90000;fill-opacity:0;stroke:#a90000;stroke-width:.1524;stroke-linecap:round;stroke-linejoin:round;stroke-opacity:1" transform="translate(-213.84 -30.98)"/><path fill="none" d="M253.37 48.9h2.54" style="fill:#840000;fill-opacity:0;stroke:#840000;stroke-width:.1524;stroke-linecap:round;stroke-linejoin:round;stroke-opacity:1" transform="translate(-213.84 -30.98)"/><path fill="none" d="m248.26 48.2.42 1.27m0 0 .42-1.27m.6 1.27-.11-.06m0 0-.06-.06m0 0-.06-.12m0 0v-.36m0 0 .06-.12m0 0 .06-.06m0 0 .12-.06m-.01 0h.19m0 0 .12.06m0 0 .06.06m0 0 .06.12m0 0v.36m0 0-.06.12m0 0-.06.06m0 0-.12.06m0 0h-.18m1.51-.84v.84m-.54-.84v.66m0 .01.06.11m0 0 .12.06m0 0h.18m0 0 .12-.06m0 0 .06-.06m.42-.72h.49m-.3-.43v1.1m0 0 .06.11m0 0 .12.06m-.01 0h.13" class="stroked-text" style="fill:#006464;fill-opacity:0;stroke:#006464;stroke-width:.1524;stroke-linecap:round;stroke-linejoin:round;stroke-opacity:1" transform="translate(-213.84 -30.98)"/><path fill="none" d="m254.51 47.75-.12-.06m.01.01-.07-.07m0 0-.06-.12m0 0v-.06m0 0 .06-.12m0 0 .06-.06m.01 0 .11-.06m0-.01h.25m0 0 .12.07m0 0 .06.06m0 0 .06.12m0 0v.06m0 0-.06.12m0 0-.06.06m0 .01-.12.05m0 0h-.25m0 0-.12.06m.01 0-.07.06m0 0-.06.12m0 .01v.24m0 0 .06.12m0 0 .06.06m.01 0 .11.06m0 0h.25m0 0 .12-.06m0 0 .06-.06m0 0 .06-.12m0 0v-.25m0 .01-.06-.13m0 0-.06-.06m0 0-.12-.06" class="stroked-text" style="fill:#a90000;fill-opacity:0;stroke:#a90000;stroke-width:.1524;stroke-linecap:round;stroke-linejoin:round;stroke-opacity:1" transform="translate(-213.84 -30.98)"/><path fill="none" d="M36.66 5.16v1.03m0 0 .05.12m0 0 .06.06m0 0 .12.06m0 0h.25m0 0 .12-.06m0 0 .06-.06m0 0 .06-.12m0 0V5.16m.66 1.27h.25m0 0 .12-.06m0 0 .06-.06m-.01 0 .13-.18m0-.01.06-.23m0 0V5.4m0 0-.06-.12m0 0-.06-.06m0 0-.12-.06m0 0h-.25m0 0-.12.06m0 0-.06.06m0 0-.06.12m0 0v.3m0 0 .06.12m0 0 .06.07m0 0 .12.06m0 0h.25m0 0 .12-.06m0 0 .06-.07m0 0 .06-.12m-5.14 3.27V7.7m0 0 .42.9m0 .01.42-.91m.01 0v1.27m1.32-.12-.06.06m0 0-.18.06m0 0h-.12m0 0-.18-.06m0 0-.12-.12m0 0-.06-.12m0 0-.06-.24m0-.01v-.18m0 0 .06-.24m0 0 .06-.12m0 0 .12-.12m0 0 .18-.06m0 0h.12m0 0 .18.06m0 0 .06.06m.55 1.15V7.7m0 0h.48m0 0 .12.06m0 0 .06.06m0 0 .06.12m.01 0v.18m0 0-.07.12m0 0-.06.06m0 0-.12.06m0 0h-.48m1.81-.24v.85m-.3-1.33-.3.9m0 .01h.78m.54.42h.25m0 0 .12-.06m0 0 .06-.06m0 0 .12-.18m0 0 .06-.24m0-.01v-.48m0 0-.06-.12m0 0-.06-.06m.01 0-.13-.06m0 0h-.24m0 0-.12.06m-.01 0-.05.06m0 0-.06.12m0 0v.3m0 0 .06.12m0 0 .06.07m-.01-.01.13.07m0 0h.24m0 0 .12-.06m.01-.01.05-.06m0 0 .06-.12m.49-.42.06-.06m0 0 .12-.06m0 0h.3m0 0 .12.06m0 0 .06.06m0 0 .06.12m0 0v.12m0 0-.06.18m0 0-.72.73m0 0h.78m1.21 0h-.72m.36 0V7.7m0 0-.12.18m0 0-.12.12m0 0-.12.06" class="stroked-text" style="fill:#006464;fill-opacity:0;stroke:#006464;stroke-width:.1524;stroke-linecap:round;stroke-linejoin:round;stroke-opacity:1"/></g><g style="fill:#006464;fill-opacity:0;stroke:#006464;stroke-width:.1524;stroke-linecap:round;stroke-linejoin:round;stroke-opacity:1"><g style="fill:#840000;fill-opacity:0;stroke:#840000;stroke-width:.1524;stroke-linecap:round;stroke-linejoin:round;stroke-opacity:1"><path d="M238.13 59.05v1.28h1.27l-1.27 1.27-1.27-1.27h1.26" style="fill:none;fill-opacity:0;stroke:#840000;stroke-width:.1524;stroke-linecap:round;stroke-linejoin:round;stroke-opacity:1" transform="translate(-213.84 -30.98)"/></g></g><g style="fill:#840000;fill-opacity:0;stroke:#840000;stroke-width:.1524;stroke-linecap:round;stroke-linejoin:round;stroke-opacity:1"><path d="M289.56 56.52v1.26h1.27l-1.27 1.28-1.27-1.27h1.27" style="fill:none;fill-opacity:0;stroke:#840000;stroke-width:.1524;stroke-linecap:round;stroke-linejoin:round;stroke-opacity:1" transform="translate(-213.84 -30.98)"/></g><g style="fill:#840000;fill-opacity:0;stroke:#840000;stroke-width:.1524;stroke-linecap:round;stroke-linejoin:round;stroke-opacity:1"><g style="fill:#ffffc2;fill-opacity:1;stroke:#ffffc2;stroke-width:0;stroke-linecap:round;stroke-linejoin:round;stroke-opacity:1"><path stroke="none" d="m281.94 43.81 10.16 5.08-10.16 5.08z" style="fill:#ffffc2;fill-opacity:1;fill-rule:evenodd;stroke:#ffffc2;stroke-width:0;stroke-linecap:round;stroke-linejoin:round;stroke-opacity:1" transform="translate(-213.84 -30.98)"/></g><g style="fill:#840000;fill-opacity:0;stroke:#840000;stroke-width:.254;stroke-linecap:round;stroke-linejoin:round;stroke-opacity:1"><path d="m281.94 43.81 10.16 5.08-10.16 5.08z" style="fill:none;fill-opacity:0;stroke:#840000;stroke-width:.254;stroke-linecap:round;stroke-linejoin:round;stroke-opacity:1" transform="translate(-213.84 -30.98)"/></g><path fill="none" d="M292.1 48.9h2.54" style="fill:#840000;fill-opacity:0;stroke:#840000;stroke-width:.1524;stroke-linecap:round;stroke-linejoin:round;stroke-opacity:1" transform="translate(-213.84 -30.98)"/><path fill="none" d="M293.73 48.48h-.72m.36 0V47.2m0 0-.12.19m0 0-.12.12m0 0-.12.06" class="stroked-text" style="fill:#a90000;fill-opacity:0;stroke:#a90000;stroke-width:.1524;stroke-linecap:round;stroke-linejoin:round;stroke-opacity:1" transform="translate(-213.84 -30.98)"/><path fill="none" d="M281.94 51.44h-2.54" style="fill:#840000;fill-opacity:0;stroke:#840000;stroke-width:.1524;stroke-linecap:round;stroke-linejoin:round;stroke-opacity:1" transform="translate(-213.84 -30.98)"/><path fill="none" d="M282.47 51.53h.97" class="stroked-text" style="fill:#006464;fill-opacity:0;stroke:#006464;stroke-width:.1524;stroke-linecap:round;stroke-linejoin:round;stroke-opacity:1" transform="translate(-213.84 -30.98)"/><path fill="none" d="m280.3 49.87.07-.06m0-.01.12-.05m0 0h.3m.01 0 .11.06m0-.01.06.07m0 0 .06.12m0 0v.12m0 0-.06.18m0 .01-.72.72m0 0h.78" class="stroked-text" style="fill:#a90000;fill-opacity:0;stroke:#a90000;stroke-width:.1524;stroke-linecap:round;stroke-linejoin:round;stroke-opacity:1" transform="translate(-213.84 -30.98)"/><path fill="none" d="M281.94 46.35h-2.54" style="fill:#840000;fill-opacity:0;stroke:#840000;stroke-width:.1524;stroke-linecap:round;stroke-linejoin:round;stroke-opacity:1" transform="translate(-213.84 -30.98)"/><path fill="none" d="M282.47 46.45h.97m-.49.48v-.96" class="stroked-text" style="fill:#006464;fill-opacity:0;stroke:#006464;stroke-width:.1524;stroke-linecap:round;stroke-linejoin:round;stroke-opacity:1" transform="translate(-213.84 -30.98)"/><path fill="none" d="M280.25 44.67h.78m0 0-.42.48m0 0h.18m.01 0 .11.06m0 0 .06.06m0 0 .06.12m0 .01v.3m0 0-.06.12m0 0-.06.06m0 0-.12.06m.01 0h-.37m0 0-.12-.06m-.01 0-.05-.06" class="stroked-text" style="fill:#a90000;fill-opacity:0;stroke:#a90000;stroke-width:.1524;stroke-linecap:round;stroke-linejoin:round;stroke-opacity:1" transform="translate(-213.84 -30.98)"/><path fill="none" d="M69.79 17.22v1.03m0 0 .06.12m.01 0 .05.06m0 0 .13.06m0 0h.24m0 0 .12-.06m0 0 .06-.06m0 0 .06-.12m0 0v-1.03m1.27 1.27h-.73m.37 0v-1.27m0 0-.12.19m0 0-.13.12m0-.01-.12.07m1.52-.37h.12m0 0 .12.07m0 0 .06.06m0 0 .06.12m0 0 .06.24m0 0v.3m0 .01-.06.23m0 0-.06.12m0 0-.06.06m0 0-.12.06m0 0h-.12m0 0-.13-.06m.01 0-.07-.06m0 0-.06-.12m0 0-.06-.24m0 .01v-.31m0 0 .06-.24m0 0 .06-.12m0 0 .06-.07m.01.01.12-.07m.9.91h.6m-.72.36.42-1.27m0 0 .43 1.27M65.32 9.6h.72m-.36 1.27V9.6m.73 1.22.18.05m0 0h.3m0 0 .12-.06m0 .01.06-.07m0 0 .06-.12m0 0v-.12m0 .01-.06-.13m0 0-.06-.06m0 0-.12-.06m0 0-.24-.06m0 0-.12-.06m0 0-.06-.06m-.01 0-.05-.12m0 0v-.12m0 0 .06-.12m-.01-.01.07-.06m0 .01.12-.07m0 0h.3m.01 0 .17.07m.61 1.2h.24m0 0 .12-.06m0 .01.06-.07m0 0 .12-.18m0 0 .06-.24m0 0v-.48m0 0-.06-.12m0-.01-.06-.05m0 0-.12-.07m0 0h-.24m0 0-.12.07m0 0-.06.06m0-.01-.06.13m0 0v.3m0 0 .06.12m0 0 .06.06m0 0 .12.06m0 0h.24m0 0 .12-.06m0 0 .06-.06m0 0 .06-.12m.49-.43.06-.06m0 .01.12-.07m0 0h.3m0 0 .12.07m0 0 .06.06m0-.01.06.13m.01 0v.12m0 0-.07.18m0 0-.72.72m-.01 0h.8m.48-1.15.06-.06m0 .01.12-.07m0 0h.3m0 0 .12.07m0 0 .06.06m0-.01.06.13m0 0v.12m0 0-.06.18m0 0-.73.72m0 0h.8" class="stroked-text" style="fill:#006464;fill-opacity:0;stroke:#006464;stroke-width:.1524;stroke-linecap:round;stroke-linejoin:round;stroke-opacity:1"/></g><g style="fill:#006464;fill-opacity:0;stroke:#006464;stroke-width:.1524;stroke-linecap:round;stroke-linejoin:round;stroke-opacity:1"><g style="fill:#840000;fill-opacity:0;stroke:#840000;stroke-width:.1524;stroke-linecap:round;stroke-linejoin:round;stroke-opacity:1"><path d="m288.8 40 .76-1.26m0 2.53v-2.54m0 0 .76 1.28" style="fill:none;fill-opacity:0;stroke:#840000;stroke-width:.1524;stroke-linecap:round;stroke-linejoin:round;stroke-opacity:1" transform="translate(-213.84 -30.98)"/></g><path fill="none" d="M286.48 36.3h.96m-.48.47v-.96m.97-.31h.78m0 0-.42.49m0 0h.18m0 0 .12.06m.01 0 .05.06m0-.01.06.13m0 0v.3m0 0-.06.12m0 0-.06.06m.01 0-.13.06m0 0h-.36m-.01 0-.11-.06m0 0-.06-.06m1.33 0 .06.06m0 0-.06.06m0 0-.06-.06m0 0 .06-.06m0 0v.12m.48-1.27h.79m0 0-.43.49m0 0h.19m0 0 .12.06m-.01 0 .07.06m0-.01.06.13m0 0v.3m0 0-.06.12m0 0-.06.06m-.01 0-.11.06m0 0h-.37m0 0-.12-.06m0 0-.06-.06m1.15-1.15.42 1.27m0 0 .43-1.27m.36.91h.6m-.72.36.42-1.27m0 0 .43 1.27" class="stroked-text" style="fill:#006464;fill-opacity:0;stroke:#006464;stroke-width:.1524;stroke-linecap:round;stroke-linejoin:round;stroke-opacity:1" transform="translate(-213.84 -30.98)"/></g><g fill="none" style="fill:#006464;fill-opacity:0;stroke:#006464;stroke-width:.1524;stroke-linecap:round;stroke-linejoin:round;stroke-opacity:1"><rect width="2.03" height="5.08" x="268.86" y="51.44" rx="0" style="fill:#840000;fill-opacity:0;stroke:#840000;stroke-width:.254;stroke-linecap:round;stroke-linejoin:round;stroke-opacity:1" transform="translate(-213.84 -30.98)"/><path d="M56.04 20.45v-1.27m0 6.35v1.27" style="fill:#840000;fill-opacity:0;stroke:#840000;stroke-width:.1524;stroke-linecap:round;stroke-linejoin:round;stroke-opacity:1"/><path d="m59.08 22.3-.42-.6m-.3.6v-1.27m0 0h.48m0 0 .12.07m0 0 .06.06m0 0 .06.12m0 0v.18m0 0-.06.12m0 0-.06.06m0 0-.12.06m0 0h-.49m1.94.6h-.73m.37 0v-1.27m0 0-.13.19m0 0-.12.12m0 0-.12.06m1.15-.37h.79m0 0-.43.49m0 0h.19m0 0 .12.06m0 0 .06.06m0 0 .06.12m0 0v.3m0 0-.06.12m0 0-.06.06m0 0-.12.06m0 0h-.37m0 0-.12-.06m0 0-.06-.06m-1.69 2.66h-.73m.37 0v-1.27m0 0-.13.19m.01 0-.13.12m0 0-.12.06m1.51-.37h.13m0 0 .12.07m0 0 .06.06m0 0 .06.12m-.01 0 .07.24m0 0v.3m0 0-.06.24m-.01 0-.05.12m0 0-.06.06m0 0-.12.06m0 0h-.13m0 0-.12-.06m0 0-.06-.06m0 0-.06-.12m0 0-.06-.24m0 0v-.3m0 0 .06-.24m0 0 .06-.12m0 0 .06-.06m0 0 .12-.07m.97 1.27v-1.27m.12.79.37.48m0-.84-.49.48" class="stroked-text" style="fill:#006464;fill-opacity:0;stroke:#006464;stroke-width:.1524;stroke-linecap:round;stroke-linejoin:round;stroke-opacity:1"/></g><g style="fill:#006464;fill-opacity:0;stroke:#006464;stroke-width:.1524;stroke-linecap:round;stroke-linejoin:round;stroke-opacity:1"><g style="fill:#840000;fill-opacity:0;stroke:#840000;stroke-width:.1524;stroke-linecap:round;stroke-linejoin:round;stroke-opacity:1"><path d="M269.88 59.05v1.28h1.27l-1.27 1.27-1.27-1.27h1.27" style="fill:none;fill-opacity:0;stroke:#840000;stroke-width:.1524;stroke-linecap:round;stroke-linejoin:round;stroke-opacity:1" transform="translate(-213.84 -30.98)"/></g></g><g style="fill:#840000;fill-opacity:0;stroke:#840000;stroke-width:.1524;stroke-linecap:round;stroke-linejoin:round;stroke-opacity:1"><path d="M227.33 46.35h-1.27v1.27l-1.27-1.26 1.27-1.28v1.27" style="fill:none;fill-opacity:0;stroke:#840000;stroke-width:.1524;stroke-linecap:round;stroke-linejoin:round;stroke-opacity:1" transform="translate(-213.84 -30.98)"/></g><g style="fill:#840000;fill-opacity:0;stroke:#840000;stroke-width:.1524;stroke-linecap:round;stroke-linejoin:round;stroke-opacity:1"><path d="M224.16 39.37v1.27h1.27l-1.27 1.27-1.27-1.27h1.27" style="fill:none;fill-opacity:0;stroke:#840000;stroke-width:.1524;stroke-linecap:round;stroke-linejoin:round;stroke-opacity:1" transform="translate(-213.84 -30.98)"/></g><g style="fill:#840000;fill-opacity:0;stroke:#840000;stroke-width:.1524;stroke-linecap:round;stroke-linejoin:round;stroke-opacity:1"><g style="fill:#840000;fill-opacity:0;stroke:#840000;stroke-width:.508;stroke-linecap:round;stroke-linejoin:round;stroke-opacity:1"><path d="M231.27 40.13v-4.06m-1.53 4.06v-4.06" style="fill:none;fill-opacity:0;stroke:#840000;stroke-width:.508;stroke-linecap:round;stroke-linejoin:round;stroke-opacity:1" transform="translate(-213.84 -30.98)"/></g><path fill="none" d="M15.65 7.12h-2.8m4.83 0h2.8" style="fill:#840000;fill-opacity:0;stroke:#840000;stroke-width:.1524;stroke-linecap:round;stroke-linejoin:round;stroke-opacity:1"/><path fill="none" d="m15.85 1.22-.06.07m0 0-.18.06m0 0h-.12m0 0-.19-.06m0 0-.12-.12m0 0-.06-.12m0 0-.06-.24m0 0V.62m0 0 .06-.24m0 0 .06-.12m0 0 .12-.12m0 0 .19-.06m0 0h.12m0 0 .18.06m0 0 .06.06m.48 0 .06-.06m0 0 .12-.06m0 0h.3m.01 0 .12.06m0 0L17 .2m0 0 .06.12m0 0v.12m0 0L17 .62m0 0-.73.73m0 0h.79M18.21.08h-.6m-.01 0-.06.6m0 0 .06-.06m0 0 .12-.06m0 0h.3m.01 0 .12.06m0 0 .06.06m0 0 .06.13m-.01 0v.3m0 0-.05.12m0-.01-.06.07m0 0-.12.06m0 0h-.3m-.01 0-.12-.06m0 0-.06-.06m-2.3 2.66h-.72m.36 0V2.62m0 0-.12.18m0 0-.12.12m0 0-.12.06m1.51-.36h.12m.01 0 .11.06m0 0 .06.06m0 0 .06.12m0 0 .06.24m.01 0v.3m0 .01-.07.24m0 0-.06.12m0 0-.06.06m0-.01-.12.07m.01 0h-.13m0 0-.12-.06m0-.01-.06-.05m0 0-.06-.12m0 0-.06-.24m0 0v-.3m0-.01.06-.24m0 0 .06-.12m0 0 .06-.06m0 0 .12-.06m1.21 0h.12m0 0 .12.06m0 0 .06.06m0 0 .06.12m0 0 .06.24m0 0v.3m0 .01-.06.24m0 0-.06.12m0 0-.06.06m0-.01-.12.07m0 0h-.12m0 0-.12-.06m0-.01-.06-.05m0 0L17 3.65m0 0-.06-.24m0 0v-.3m0-.01.06-.24m0 0 .06-.12m0 0 .06-.06m0 0 .12-.06m.97.42v.85m0-.73.06-.06m-.01 0 .13-.06m0 0h.18m0 0 .12.06m0 0 .06.12m.01 0v.67" class="stroked-text" style="fill:#006464;fill-opacity:0;stroke:#006464;stroke-width:.1524;stroke-linecap:round;stroke-linejoin:round;stroke-opacity:1"/></g><g style="fill:#006464;fill-opacity:0;stroke:#006464;stroke-width:.1524;stroke-linecap:round;stroke-linejoin:round;stroke-opacity:1"><g style="fill:#840000;fill-opacity:0;stroke:#840000;stroke-width:.1524;stroke-linecap:round;stroke-linejoin:round;stroke-opacity:1"><path d="m237.36 36.2.76-1.28m.01 2.55v-2.54m0-.01.76 1.27" style="fill:none;fill-opacity:0;stroke:#840000;stroke-width:.1524;stroke-linecap:round;stroke-linejoin:round;stroke-opacity:1" transform="translate(-213.84 -30.98)"/></g><path fill="none" d="M235.04 32.48h.97m-.49.48V32m.98-.3h.78m0 0-.43.48m0 0h.19m0 0 .12.06m0 0 .06.06m0 0 .06.12m0 0v.3m0 0-.06.12m0 0-.06.06m0 0-.12.06m0 0h-.37m0 0-.12-.06m0 0-.06-.06m1.33 0 .06.06m0 0-.06.06m0 0-.06-.06m0 0 .06-.06m0 0v.12m.48-1.26h.8m0 0-.43.48m0 0h.18m0 0 .12.06m0 0 .06.06m0 0 .06.12m.01 0v.3m0 0-.07.12m0 0-.06.06m0 0-.12.06m0 0h-.36m0 0-.12-.06m0 0-.06-.06m1.15-1.14.42 1.26m0 0 .42-1.27m.36.91h.61m-.73.36.43-1.27m0 .01.42 1.26" class="stroked-text" style="fill:#006464;fill-opacity:0;stroke:#006464;stroke-width:.1524;stroke-linecap:round;stroke-linejoin:round;stroke-opacity:1" transform="translate(-213.84 -30.98)"/></g><g style="fill:#840000;fill-opacity:0;stroke:#840000;stroke-width:.1524;stroke-linecap:round;stroke-linejoin:round;stroke-opacity:1"><path fill="none" d="m5.91 18.46-.06.06m.01 0-.19.07m0 0h-.12m0 0-.18-.07m-.01 0-.11-.12m0 0-.06-.12m0 0-.06-.24m0 0v-.18m0 0 .06-.24m0 0 .06-.12m0 0 .12-.12m-.01 0 .2-.06m-.01 0h.12m0 0 .18.06m.01 0 .05.06m.49 1.08.18.07m0 0h.3m0 0 .12-.07m0 0 .06-.06m0 0 .06-.12m0 0v-.12m0 0-.06-.12m0 0L7 18.04m0 0-.12-.06m0 0-.24-.06m0 0-.12-.06m0 0-.06-.06m0 0-.06-.12m0 0v-.12m0 0 .06-.12m0 0 .06-.06m0 0 .12-.06m0 0h.3m0 0 .18.06m.24 1.33h.97m.3-.12v-1.27m0 0h.3m.01 0 .18.06m0 0 .12.12m0 0 .06.12m0 0 .06.24m0 0v.18m0 0-.06.24m0 0-.06.12m0 0-.12.12m0 0-.18.07m0 0h-.3m1.2-.37h.6m-.72.37.43-1.27m0 0 .42 1.27m1.15-.13-.06.06m0 0-.18.07m0 0h-.12m0 0-.19-.07m0 0-.12-.12m.01 0-.07-.12m0 0-.06-.24m0 0v-.18m0 0 .06-.24m0 0 .06-.12m.01 0 .11-.12m0 0 .19-.06m0 0h.12m0 0 .18.06m0 0 .06.06" class="stroked-text"/><path d="m227.33 48.9-1.11-1.28h-8.41l-1.11 1.28 1.1 1.27h8.42z" style="fill:none;fill-opacity:0;stroke:#840000;stroke-width:.1524;stroke-linecap:round;stroke-linejoin:round;stroke-opacity:1" transform="translate(-213.84 -30.98)"/></g><g style="fill:#840000;fill-opacity:0;stroke:#840000;stroke-width:.1524;stroke-linecap:round;stroke-linejoin:round;stroke-opacity:1"><path fill="none" d="m3.19 21.06.18.07m0-.01h.3m.01 0 .12-.06m0 0 .06-.06m0 0 .06-.12m0 0v-.12m0 0-.06-.12m0 0-.06-.06m0 0-.12-.06m0 0-.25-.06m0 0-.12-.06m0 0-.06-.06m.01 0-.07-.12m0 0v-.12m0 0 .06-.12m.01 0 .05-.06m0 0 .12-.06m0 0h.3m.01 0 .18.06m.54 1.2v-1.26m0 0h.49m0 0 .12.06m-.01 0 .07.06m0 0 .06.12m0 0v.18m0 0-.06.12m0 0-.06.06m-.01 0-.11.06m0 0h-.49m1.27.6v-1.26M7 21.12h-.72m.36 0v-1.26m0 0-.12.18m0 0-.12.12m0 0-.12.06m.96 1.03h.97m.25-.19.17.07m0-.01h.3m.01 0 .12-.06m0 0 .06-.06m0 0 .06-.12m0 0v-.12m0 0-.06-.12m0 0-.06-.06m0 0-.12-.06m0 0-.24-.06m0 0-.13-.06m0 0-.06-.06m0 0-.06-.12m.01 0v-.12m0 0 .05-.12m0 0 .06-.06m0 0 .13-.06m0 0H9m0 0 .18.06M10.45 21l-.06.06m0 0-.18.07m0-.01h-.12m0 0-.19-.06m0 0-.12-.12m0 0-.06-.12m0 0-.06-.24m0 0v-.18m0 0 .06-.24m0 0 .06-.12m0 0 .12-.12m0 0 .19-.06m0 0h.12m0 0 .18.06m0 0 .06.06m.54 1.14v-1.26m.73 1.26-.55-.72m.55-.54-.73.72" class="stroked-text"/><path d="m227.33 51.44-1.11-1.28h-10.35l-1.1 1.28 1.1 1.27h10.35z" style="fill:none;fill-opacity:0;stroke:#840000;stroke-width:.1524;stroke-linecap:round;stroke-linejoin:round;stroke-opacity:1" transform="translate(-213.84 -30.98)"/></g><g style="fill:#840000;fill-opacity:0;stroke:#840000;stroke-width:.1524;stroke-linecap:round;stroke-linejoin:round;stroke-opacity:1"><path fill="none" d="m2.35 23.6.18.07m0 0h.3m0 0 .12-.07m0 0 .06-.06m0 0 .06-.12m0 0v-.12m0 0-.06-.12m0 0-.06-.06m0 0-.12-.06m0 0L2.59 23m0 0-.12-.06m-.01 0-.05-.06m0 0-.06-.12m0 0v-.12m0 0 .06-.12m0 0 .06-.06m-.01 0 .13-.06m0 0h.3m0 0 .18.06m.55 1.21V22.4m0 0h.48m0 0 .12.06m0 0 .06.06m0 0 .06.12m0 0v.18m0 0-.06.12m0 0-.06.06m0 0-.12.06m0 0h-.48m1.27.61V22.4m1.27 1.27h-.73m.36 0V22.4m0 0-.12.18m0 0-.12.12m0 0-.12.06m.97 1.03h.96m.3-.12V22.4m0 0 .43.9m0 0 .42-.9m0 0v1.27m.85-1.27h.24m0 0 .12.06m0 0 .12.12m0 0 .06.24m0 0v.42m0 0-.06.24m0 0-.12.12m0 0-.12.07m0 0h-.24m0 0-.12-.07m0 0-.12-.12m0 0-.06-.24m0 0v-.42m0 0 .06-.24m0 0 .12-.12m0 0 .12-.06m1.03 1.2.18.07m0 0h.3m0 0 .12-.07m0 0 .06-.06m.01 0 .05-.12m0 0v-.12m0 0-.06-.12m.01 0-.07-.06m0 0-.12-.06m0 0-.24-.06m0 0-.12-.06m0 0-.06-.06m0 0-.06-.12m0 0v-.12m0 0 .06-.12m0 0 .06-.06m0 0 .12-.06m0 0h.3m0 0 .18.06m.55 1.21V22.4" class="stroked-text"/><path d="m227.33 53.98-1.11-1.28h-11.2l-1.1 1.27 1.1 1.28h11.2z" style="fill:none;fill-opacity:0;stroke:#840000;stroke-width:.1524;stroke-linecap:round;stroke-linejoin:round;stroke-opacity:1" transform="translate(-213.84 -30.98)"/></g><path fill="none" d="M20.48 7.12h3.8m-13.96 0h2.54m11.43-.64v.64M10.32 8.39V7.12m41.91 10.79h3.8m.01-5.08h9.52m-9.52 0v5.08M13.5 15.37h.63m10.16-8.25v.63M65.56 23H80.8m-15.24-2.55V23M29.37 7.12h-5.08m17.78 10.79h2.54M29.37 7.75v-.63m36.19 5.71v2.54m0-2.54h16.51M56.04 26.8v1.27M80.8 23h1.27m0-2.55V23m-1.27-5.09V23m27.3-2.55h1.28m-2.54-2.54h2.54m-1.28 2.54V23m-10.79-5.09h1.9M97.31 23v-5.1m-41.27.01v1.27M13.5 20.45h.63m-.63-2.54h.63M82.07 23h15.24M13.5 23h.63m67.94-10.17v2.54" style="fill:#009600;fill-opacity:0;stroke:#009600;stroke-width:.1524;stroke-linecap:round;stroke-linejoin:round;stroke-opacity:1"/><path fill="none" d="M36.66 5.16v1.03m0 0 .05.12m0 0 .06.06m0 0 .12.06m0 0h.25m0 0 .12-.06m0 0 .06-.06m0 0 .06-.12m0 0V5.16m.66 1.27h.25m0 0 .12-.06m0 0 .06-.06m-.01 0 .13-.18m0-.01.06-.23m0 0V5.4m0 0-.06-.12m0 0-.06-.06m0 0-.12-.06m0 0h-.25m0 0-.12.06m0 0-.06.06m0 0-.06.12m0 0v.3m0 0 .06.12m0 0 .06.07m0 0 .12.06m0 0h.25m0 0 .12-.06m0 0 .06-.07m0 0 .06-.12m-5.14 3.27V7.7m0 0 .42.9m0 .01.42-.91m.01 0v1.27m1.32-.12-.06.06m0 0-.18.06m0 0h-.12m0 0-.18-.06m0 0-.12-.12m0 0-.06-.12m0 0-.06-.24m0-.01v-.18m0 0 .06-.24m0 0 .06-.12m0 0 .12-.12m0 0 .18-.06m0 0h.12m0 0 .18.06m0 0 .06.06m.55 1.15V7.7m0 0h.48m0 0 .12.06m0 0 .06.06m0 0 .06.12m.01 0v.18m0 0-.07.12m0 0-.06.06m0 0-.12.06m0 0h-.48m1.81-.24v.85m-.3-1.33-.3.9m0 .01h.78m.54.42h.25m0 0 .12-.06m0 0 .06-.06m0 0 .12-.18m0 0 .06-.24m0-.01v-.48m0 0-.06-.12m0 0-.06-.06m.01 0-.13-.06m0 0h-.24m0 0-.12.06m-.01 0-.05.06m0 0-.06.12m0 0v.3m0 0 .06.12m0 0 .06.07m-.01-.01.13.07m0 0h.24m0 0 .12-.06m.01-.01.05-.06m0 0 .06-.12m.49-.42.06-.06m0 0 .12-.06m0 0h.3m0 0 .12.06m0 0 .06.06m0 0 .06.12m0 0v.12m0 0-.06.18m0 0-.72.73m0 0h.78m1.21 0h-.72m.36 0V7.7m0 0-.12.18m0 0-.12.12m0 0-.12.06" class="stroked-text" style="fill:#006464;fill-opacity:0;stroke:#006464;stroke-width:.1524;stroke-linecap:round;stroke-linejoin:round;stroke-opacity:1"/><path fill="none" d="M238.13 41.27v-2.54" style="fill:#840000;fill-opacity:0;stroke:#840000;stroke-width:.1524;stroke-linecap:round;stroke-linejoin:round;stroke-opacity:1" transform="translate(-213.84 -30.98)"/><path fill="none" d="m237.43 45.66 1.27-.43m0 0-1.27-.42m1.27-.97h-1.27m1.21 0 .06.12m0 0v.25m0-.01-.06.13m0 0-.06.06m0 0-.12.06m0 0h-.36m0 0-.12-.06m0 0-.06-.06m0 0-.06-.12m0-.01v-.24m0 0 .06-.12m.78-1.14h-1.27m1.21 0 .06.11m0 0v.25m0 0-.06.12m0 0-.06.06m0 0-.12.06m0 0h-.36m0 0-.12-.06m0 0-.06-.06m0 0-.06-.12m0 0v-.25m0 0 .06-.12" class="stroked-text" style="fill:#006464;fill-opacity:0;stroke:#006464;stroke-width:.1524;stroke-linecap:round;stroke-linejoin:round;stroke-opacity:1" transform="translate(-213.84 -30.98)"/><path fill="none" d="M237.7 39.64v.73m0-.37h-1.26m0 0 .18.13m0 0 .12.12m0 0 .06.12" class="stroked-text" style="fill:#a90000;fill-opacity:0;stroke:#a90000;stroke-width:.1524;stroke-linecap:round;stroke-linejoin:round;stroke-opacity:1" transform="translate(-213.84 -30.98)"/><path fill="none" d="M230.5 48.9h-2.54" style="fill:#840000;fill-opacity:0;stroke:#840000;stroke-width:.1524;stroke-linecap:round;stroke-linejoin:round;stroke-opacity:1" transform="translate(-213.84 -30.98)"/><path fill="none" d="m232.65 49.35-.06.06m0 0-.18.06m-.01 0h-.11m0 0-.19-.06m0 0-.12-.12m0 .01-.06-.13m0 0-.06-.24m0 0v-.18m0 0 .06-.24m0-.01.06-.11m0 0 .13-.12m-.01 0 .19-.07m0 0h.12m-.01 0 .19.07m0 0 .06.06m.48 1.08.18.06m0 0h.3m.01 0 .12-.06m0 0 .06-.06m0 0 .06-.12m0 0v-.12m0 0-.06-.12m0 .01-.06-.07m0 0-.12-.06m0 0-.25-.06m.01-.01-.13-.05m0 0-.06-.06m.01 0-.07-.12m0 0v-.12m0 0 .06-.12m.01 0 .05-.06m0 0 .12-.07m.01 0h.3m0 0 .18.07m-2.11-.42h2.22" class="stroked-text" style="fill:#006464;fill-opacity:0;stroke:#006464;stroke-width:.1524;stroke-linecap:round;stroke-linejoin:round;stroke-opacity:1" transform="translate(-213.84 -30.98)"/><path fill="none" d="m228.87 47.33.06-.06m0 0 .12-.06m0-.01h.3m.01 0 .12.07m0 0 .06.06m0 0 .06.12m0 0v.12m0 0-.06.18m0 0-.73.73m0 0h.79" class="stroked-text" style="fill:#a90000;fill-opacity:0;stroke:#a90000;stroke-width:.1524;stroke-linecap:round;stroke-linejoin:round;stroke-opacity:1" transform="translate(-213.84 -30.98)"/><path fill="none" d="M16.67 20.45h-2.54m2.54.64 1.27-.64-1.27-.63" style="fill:#840000;fill-opacity:0;stroke:#840000;stroke-width:.1524;stroke-linecap:round;stroke-linejoin:round;stroke-opacity:1"/><path fill="none" d="m231.86 51.95.18.06m0 0h.3m.01 0 .12-.06m0 0 .06-.06m0 .01.06-.13m0 0v-.12m0 0-.06-.12m0 0-.06-.06m0 0-.12-.06m0 0-.25-.06m0 0-.12-.06m0 0-.06-.06m0 0-.06-.12m0-.01V51m0-.01.06-.12m0 0 .06-.06m0-.01.13-.06m-.01 0h.3m0 0 .19.07m1.27 1.09-.06.05m0 0-.18.06m0 0h-.12m0 0-.19-.06m0 0-.12-.12m.01 0-.07-.12m0 0-.06-.24m0 0v-.18m0 0 .06-.24m0 0 .06-.12m.01 0 .11-.12m0-.01.19-.06m0 0h.12m0 0 .18.07m0-.01.06.07m.54 1.14v-1.27m.73 1.27-.55-.72m.55-.55-.73.73" class="stroked-text" style="fill:#006464;fill-opacity:0;stroke:#006464;stroke-width:.1524;stroke-linecap:round;stroke-linejoin:round;stroke-opacity:1" transform="translate(-213.84 -30.98)"/><path fill="none" d="M228.81 49.75h.79m0 0-.43.48m0 0h.19m0 0 .12.06m0 .01.06.05m0 0 .06.12m0 0v.3m0 .01-.06.12m0 0-.06.06m0 0-.12.06m0 0h-.37m.01 0-.13-.06m0 0-.06-.06" class="stroked-text" style="fill:#a90000;fill-opacity:0;stroke:#a90000;stroke-width:.1524;stroke-linecap:round;stroke-linejoin:round;stroke-opacity:1" transform="translate(-213.84 -30.98)"/><path fill="none" d="M230.5 53.98h-2.54" style="fill:#840000;fill-opacity:0;stroke:#840000;stroke-width:.1524;stroke-linecap:round;stroke-linejoin:round;stroke-opacity:1" transform="translate(-213.84 -30.98)"/><path fill="none" d="m231.86 54.5.18.05m0 0h.3m.01 0 .12-.06m0 .01.06-.07m0 0 .06-.12m0 0v-.12m0 .01-.06-.13m0 0-.06-.06m0 0-.12-.06m0 0-.25-.06m0 0-.12-.06m0 0-.06-.06m0 0-.06-.12m0 0v-.12m0 0 .06-.12m0-.01.06-.05m0-.01.13-.06m-.01 0h.3m0 0 .19.07m.54 1.2v-1.27m0 0h.3m.01 0 .18.07m0-.01.12.13m0 0 .06.12m0 0 .06.24m0 0V54m0 .01-.06.24m0 0-.06.12m0 0-.12.12m0 .01-.18.05m0 0h-.3m1.26 0v-1.27" class="stroked-text" style="fill:#006464;fill-opacity:0;stroke:#006464;stroke-width:.1524;stroke-linecap:round;stroke-linejoin:round;stroke-opacity:1" transform="translate(-213.84 -30.98)"/><path fill="none" d="M229.48 52.71v.85m-.31-1.33-.3.9m0 0h.79" class="stroked-text" style="fill:#a90000;fill-opacity:0;stroke:#a90000;stroke-width:.1524;stroke-linecap:round;stroke-linejoin:round;stroke-opacity:1" transform="translate(-213.84 -30.98)"/><path fill="none" d="M230.5 46.35h-2.54" style="fill:#840000;fill-opacity:0;stroke:#840000;stroke-width:.1524;stroke-linecap:round;stroke-linejoin:round;stroke-opacity:1" transform="translate(-213.84 -30.98)"/><path fill="none" d="M232.53 46.93h-.6m-.01 0v-1.27m1.03 1.27v-1.27m0 0h.3m0 0 .19.07m0 0 .12.12m0 0 .06.12m0 0 .06.24m0-.01v.19m0 0-.06.24m0 0-.06.12m0 0-.12.12m0 0-.19.06m0 0h-.3m1.21-.36h.6m-.72.36.42-1.27m0 0 .43 1.27m1.15-.12-.06.06m0 0-.19.06m.01 0h-.13m0 0-.18-.06m.01 0-.13-.12m0 0-.06-.12m0 0-.06-.24m0 0v-.18m0-.01.06-.23m0 0 .06-.12m0 0 .12-.13m.01.01.17-.07m0 0h.12m.01 0 .18.07m0 0 .06.06m-4.29-.48h4.4" class="stroked-text" style="fill:#006464;fill-opacity:0;stroke:#006464;stroke-width:.1524;stroke-linecap:round;stroke-linejoin:round;stroke-opacity:1" transform="translate(-213.84 -30.98)"/><path fill="none" d="M229.54 44.67h-.6m-.01 0-.06.6m0 0 .06-.06m0 0 .12-.06m0 0h.3m.01 0 .12.06m0 0 .06.06m0 0 .06.12m0 .01v.3m0 0-.06.12m0 0-.06.06m0 0-.12.06m0 0h-.3m-.01 0-.12-.06m0 0-.06-.06" class="stroked-text" style="fill:#a90000;fill-opacity:0;stroke:#a90000;stroke-width:.1524;stroke-linecap:round;stroke-linejoin:round;stroke-opacity:1" transform="translate(-213.84 -30.98)"/><path fill="none" d="M243.2 41.27v-2.54" style="fill:#840000;fill-opacity:0;stroke:#840000;stroke-width:.1524;stroke-linecap:round;stroke-linejoin:round;stroke-opacity:1" transform="translate(-213.84 -30.98)"/><path fill="none" d="m242.51 45.96 1.27-.42m0 0-1.27-.43m1.27-.42h-.84m.24 0-.12-.06m0 0-.06-.06m0 0-.06-.12m0 0v-.12m.78-.91.06.12m0 0v.24m0 0-.06.12m0 0-.12.06m0 0h-.48m0 0-.12-.06m0 0-.06-.12m0 0v-.24m0 0 .06-.12m0 0 .12-.06m0 0h.12m0 0 .12.6m-.42-.96v-.49m.84.3h-1.08m0 0-.13-.06m0 0-.06-.12m0 0v-.12" class="stroked-text" style="fill:#006464;fill-opacity:0;stroke:#006464;stroke-width:.1524;stroke-linecap:round;stroke-linejoin:round;stroke-opacity:1" transform="translate(-213.84 -30.98)"/><path fill="none" d="M241.52 39.76V40m0 0 .06.13m0 0 .06.06m0 0 .18.12m0-.01.24.07m0 0h.49m0 0 .12-.06m0-.01.06-.05m0 0 .06-.12m0 0v-.25m0 0-.06-.12m0 0-.06-.06m0 0-.12-.06m0 0h-.3m-.01 0-.12.06m0 0-.06.06m0 0-.06.12m0 0v.25m0 0 .06.12m0 0 .06.06m0-.01.12.07" class="stroked-text" style="fill:#a90000;fill-opacity:0;stroke:#a90000;stroke-width:.1524;stroke-linecap:round;stroke-linejoin:round;stroke-opacity:1" transform="translate(-213.84 -30.98)"/><path fill="none" d="M238.13 56.52v2.53" style="fill:#840000;fill-opacity:0;stroke:#840000;stroke-width:.1524;stroke-linecap:round;stroke-linejoin:round;stroke-opacity:1" transform="translate(-213.84 -30.98)"/><path fill="none" d="m237.43 55.28 1.27-.43m0 0-1.27-.42m1.21-.36.06-.12m0 0v-.24m0-.01-.06-.12m0 0-.12-.06m0 0h-.06m0 0-.12.06m0 0-.06.13m0-.01v.19m0 0-.06.12m0-.01-.12.07m0 0h-.06m0 0-.12-.06m0-.01-.06-.11m0 0v-.18m0-.01.06-.12m.72-.54.06-.12m0 0v-.24m0 0-.06-.12m0 0-.12-.06m0 0h-.06m0 0-.12.06m0 0-.06.12m0 0v.18m0 0-.06.12m0 0-.12.06m0 0h-.06m0 0-.12-.06m0 0-.06-.12m0 0v-.18m0 0 .06-.12" class="stroked-text" style="fill:#006464;fill-opacity:0;stroke:#006464;stroke-width:.1524;stroke-linecap:round;stroke-linejoin:round;stroke-opacity:1" transform="translate(-213.84 -30.98)"/><path fill="none" d="M236.44 58.2v-.84m0 0 1.27.55" class="stroked-text" style="fill:#a90000;fill-opacity:0;stroke:#a90000;stroke-width:.1524;stroke-linecap:round;stroke-linejoin:round;stroke-opacity:1" transform="translate(-213.84 -30.98)"/><path fill="none" d="M253.37 48.9h2.54" style="fill:#840000;fill-opacity:0;stroke:#840000;stroke-width:.1524;stroke-linecap:round;stroke-linejoin:round;stroke-opacity:1" transform="translate(-213.84 -30.98)"/><path fill="none" d="m248.26 48.2.42 1.27m0 0 .42-1.27m.6 1.27-.11-.06m0 0-.06-.06m0 0-.06-.12m0 0v-.36m0 0 .06-.12m0 0 .06-.06m0 0 .12-.06m-.01 0h.19m0 0 .12.06m0 0 .06.06m0 0 .06.12m0 0v.36m0 0-.06.12m0 0-.06.06m0 0-.12.06m0 0h-.18m1.51-.84v.84m-.54-.84v.66m0 .01.06.11m0 0 .12.06m0 0h.18m0 0 .12-.06m0 0 .06-.06m.42-.72h.49m-.3-.43v1.1m0 0 .06.11m0 0 .12.06m-.01 0h.13" class="stroked-text" style="fill:#006464;fill-opacity:0;stroke:#006464;stroke-width:.1524;stroke-linecap:round;stroke-linejoin:round;stroke-opacity:1" transform="translate(-213.84 -30.98)"/><path fill="none" d="m254.51 47.75-.12-.06m.01.01-.07-.07m0 0-.06-.12m0 0v-.06m0 0 .06-.12m0 0 .06-.06m.01 0 .11-.06m0-.01h.25m0 0 .12.07m0 0 .06.06m0 0 .06.12m0 0v.06m0 0-.06.12m0 0-.06.06m0 .01-.12.05m0 0h-.25m0 0-.12.06m.01 0-.07.06m0 0-.06.12m0 .01v.24m0 0 .06.12m0 0 .06.06m.01 0 .11.06m0 0h.25m0 0 .12-.06m0 0 .06-.06m0 0 .06-.12m0 0v-.25m0 .01-.06-.13m0 0-.06-.06m0 0-.12-.06" class="stroked-text" style="fill:#a90000;fill-opacity:0;stroke:#a90000;stroke-width:.1524;stroke-linecap:round;stroke-linejoin:round;stroke-opacity:1" transform="translate(-213.84 -30.98)"/><path fill="none" d="M21.2 1.5h.97m-.49.48v-.96m.98-.3h.78m0 0-.43.48m0 0h.19m0 0 .12.06m0 0 .06.06m0 0 .06.12m0 0v.3m0 0-.06.12m0 0-.06.06m0 0-.12.06m0 0h-.37m0 0-.12-.06m0 0-.06-.06m1.33 0 .06.06m0 0-.06.06m0 0-.06-.06m0 0 .06-.06m0 0v.12m.48-1.26h.8m0 0-.43.48m0 0h.18m0 0 .12.06m0 0 .06.06m0 0 .06.12m.01 0v.3m0 0-.07.12m0 0-.06.06m0 0-.12.06m0 0h-.36m0 0-.12-.06m0 0-.06-.06M25.62.72l.42 1.26m0 0 .42-1.27m.36.91h.61m-.73.36.43-1.27m0 .01.42 1.26m-11.7-.76-.06.07m0 0-.18.06m0 0h-.12m0 0-.19-.06m0 0-.12-.12m0 0-.06-.12m0 0-.06-.24m0 0V.62m0 0 .06-.24m0 0 .06-.12m0 0 .12-.12m0 0 .19-.06m0 0h.12m0 0 .18.06m0 0 .06.06m.48 0 .06-.06m0 0 .12-.06m0 0h.3m.01 0 .12.06m0 0L17 .2m0 0 .06.12m0 0v.12m0 0L17 .62m0 0-.73.73m0 0h.79M18.21.08h-.6m-.01 0-.06.6m0 0 .06-.06m0 0 .12-.06m0 0h.3m.01 0 .12.06m0 0 .06.06m0 0 .06.13m-.01 0v.3m0 0-.05.12m0-.01-.06.07m0 0-.12.06m0 0h-.3m-.01 0-.12-.06m0 0-.06-.06m-2.3 2.66h-.72m.36 0V2.62m0 0-.12.18m0 0-.12.12m0 0-.12.06m1.51-.36h.12m.01 0 .11.06m0 0 .06.06m0 0 .06.12m0 0 .06.24m.01 0v.3m0 .01-.07.24m0 0-.06.12m0 0-.06.06m0-.01-.12.07m.01 0h-.13m0 0-.12-.06m0-.01-.06-.05m0 0-.06-.12m0 0-.06-.24m0 0v-.3m0-.01.06-.24m0 0 .06-.12m0 0 .06-.06m0 0 .12-.06m1.21 0h.12m0 0 .12.06m0 0 .06.06m0 0 .06.12m0 0 .06.24m0 0v.3m0 .01-.06.24m0 0-.06.12m0 0-.06.06m0-.01-.12.07m0 0h-.12m0 0-.12-.06m0-.01-.06-.05m0 0L17 3.65m0 0-.06-.24m0 0v-.3m0-.01.06-.24m0 0 .06-.12m0 0 .06-.06m0 0 .12-.06m.97.42v.85m0-.73.06-.06m-.01 0 .13-.06m0 0h.18m0 0 .12.06m0 0 .06.12m.01 0v.67" class="stroked-text" style="fill:#006464;fill-opacity:0;stroke:#006464;stroke-width:.1524;stroke-linecap:round;stroke-linejoin:round;stroke-opacity:1"/><path fill="none" d="M15.65 7.12h-2.8m4.83 0h2.8" style="fill:#840000;fill-opacity:0;stroke:#840000;stroke-width:.1524;stroke-linecap:round;stroke-linejoin:round;stroke-opacity:1"/><path fill="none" d="M72.64 5.32h.96m-.48.47v-.96m.97-.31h.78m0 0-.42.49m0 0h.18m0 0 .12.06m.01 0 .05.06m0-.01.06.13m0 0v.3m0 0-.06.12m0 0-.06.06m.01 0-.13.06m0 0h-.36m-.01 0-.11-.06m0 0-.06-.06m1.33 0 .06.06m0 0-.06.06m0 0-.06-.06m0 0 .06-.06m0 0v.12m.48-1.27h.79m0 0-.43.49m0 0h.19m0 0 .12.06m-.01 0 .07.06m0-.01.06.13m0 0v.3m0 0-.06.12m0 0-.06.06m-.01 0-.11.06m0 0h-.37m0 0-.12-.06m0 0-.06-.06m1.15-1.15.42 1.27m0 0 .43-1.27m.36.91h.6m-.72.36.42-1.27m0 0 .43 1.27m-9.2 11.43v1.03m0 0 .06.12m.01 0 .05.06m0 0 .13.06m0 0h.24m0 0 .12-.06m0 0 .06-.06m0 0 .06-.12m0 0v-1.03m1.27 1.27h-.73m.37 0v-1.27m0 0-.12.19m0 0-.13.12m0-.01-.12.07m1.52-.37h.12m0 0 .12.07m0 0 .06.06m0 0 .06.12m0 0 .06.24m0 0v.3m0 .01-.06.23m0 0-.06.12m0 0-.06.06m0 0-.12.06m0 0h-.12m0 0-.13-.06m.01 0-.07-.06m0 0-.06-.12m0 0-.06-.24m0 .01v-.31m0 0 .06-.24m0 0 .06-.12m0 0 .06-.07m.01.01.12-.07m.9.91h.6m-.72.36.42-1.27m0 0 .43 1.27M65.32 9.6h.72m-.36 1.27V9.6m.73 1.22.18.05m0 0h.3m0 0 .12-.06m0 .01.06-.07m0 0 .06-.12m0 0v-.12m0 .01-.06-.13m0 0-.06-.06m0 0-.12-.06m0 0-.24-.06m0 0-.12-.06m0 0-.06-.06m-.01 0-.05-.12m0 0v-.12m0 0 .06-.12m-.01-.01.07-.06m0 .01.12-.07m0 0h.3m.01 0 .17.07m.61 1.2h.24m0 0 .12-.06m0 .01.06-.07m0 0 .12-.18m0 0 .06-.24m0 0v-.48m0 0-.06-.12m0-.01-.06-.05m0 0-.12-.07m0 0h-.24m0 0-.12.07m0 0-.06.06m0-.01-.06.13m0 0v.3m0 0 .06.12m0 0 .06.06m0 0 .12.06m0 0h.24m0 0 .12-.06m0 0 .06-.06m0 0 .06-.12m.49-.43.06-.06m0 .01.12-.07m0 0h.3m0 0 .12.07m0 0 .06.06m0-.01.06.13m.01 0v.12m0 0-.07.18m0 0-.72.72m-.01 0h.8m.48-1.15.06-.06m0 .01.12-.07m0 0h.3m0 0 .12.07m0 0 .06.06m0-.01.06.13m0 0v.12m0 0-.06.18m0 0-.73.72m0 0h.8" class="stroked-text" style="fill:#006464;fill-opacity:0;stroke:#006464;stroke-width:.1524;stroke-linecap:round;stroke-linejoin:round;stroke-opacity:1"/><path fill="none" d="M292.1 48.9h2.54" style="fill:#840000;fill-opacity:0;stroke:#840000;stroke-width:.1524;stroke-linecap:round;stroke-linejoin:round;stroke-opacity:1" transform="translate(-213.84 -30.98)"/><path fill="none" d="M293.73 48.48h-.72m.36 0V47.2m0 0-.12.19m0 0-.12.12m0 0-.12.06" class="stroked-text" style="fill:#a90000;fill-opacity:0;stroke:#a90000;stroke-width:.1524;stroke-linecap:round;stroke-linejoin:round;stroke-opacity:1" transform="translate(-213.84 -30.98)"/><path fill="none" d="M281.94 51.44h-2.54" style="fill:#840000;fill-opacity:0;stroke:#840000;stroke-width:.1524;stroke-linecap:round;stroke-linejoin:round;stroke-opacity:1" transform="translate(-213.84 -30.98)"/><path fill="none" d="M282.47 51.53h.97" class="stroked-text" style="fill:#006464;fill-opacity:0;stroke:#006464;stroke-width:.1524;stroke-linecap:round;stroke-linejoin:round;stroke-opacity:1" transform="translate(-213.84 -30.98)"/><path fill="none" d="m280.3 49.87.07-.06m0-.01.12-.05m0 0h.3m.01 0 .11.06m0-.01.06.07m0 0 .06.12m0 0v.12m0 0-.06.18m0 .01-.72.72m0 0h.78" class="stroked-text" style="fill:#a90000;fill-opacity:0;stroke:#a90000;stroke-width:.1524;stroke-linecap:round;stroke-linejoin:round;stroke-opacity:1" transform="translate(-213.84 -30.98)"/><path fill="none" d="M281.94 46.35h-2.54" style="fill:#840000;fill-opacity:0;stroke:#840000;stroke-width:.1524;stroke-linecap:round;stroke-linejoin:round;stroke-opacity:1" transform="translate(-213.84 -30.98)"/><path fill="none" d="M282.47 46.45h.97m-.49.48v-.96" class="stroked-text" style="fill:#006464;fill-opacity:0;stroke:#006464;stroke-width:.1524;stroke-linecap:round;stroke-linejoin:round;stroke-opacity:1" transform="translate(-213.84 -30.98)"/><path fill="none" d="M280.25 44.67h.78m0 0-.42.48m0 0h.18m.01 0 .11.06m0 0 .06.06m0 0 .06.12m0 .01v.3m0 0-.06.12m0 0-.06.06m0 0-.12.06m.01 0h-.37m0 0-.12-.06m-.01 0-.05-.06" class="stroked-text" style="fill:#a90000;fill-opacity:0;stroke:#a90000;stroke-width:.1524;stroke-linecap:round;stroke-linejoin:round;stroke-opacity:1" transform="translate(-213.84 -30.98)"/><path fill="none" d="M290.77 55.47h1.03m0 0 .12-.06m0-.01.06-.05m0 0 .06-.13m0 0v-.24m0 0-.06-.12m0 0-.06-.06m0 0-.12-.06m0 0h-1.03m1.27-1.27v.73m0-.37h-1.27m0 0 .19.12m0 0 .12.13m0 0 .06.12m-.37-1.52v-.12m0 0 .07-.12m-.01 0 .07-.06m0 0 .12-.06m0 0 .24-.06m0 0h.3m0 0 .24.06m0 0 .12.06m0 0 .06.06m0 0 .06.12m0 0v.12m0 0-.06.13m0-.01-.06.07m0 0-.12.06m0 0-.24.06m0 0h-.3m0 0-.24-.06m0 0-.12-.06m0 0-.06-.06m-.01-.01-.06-.12m1.15-1.68.06.05m0 0 .06.18m0 0v.12m0 0-.06.19m0 0-.12.12m0 0-.12.06m0 0-.24.06m0 0h-.18m0 0-.24-.06m0 0-.12-.06m0 0-.12-.12m-.01 0-.06-.19m0 0v-.12m0 0 .07-.18m-.01 0 .07-.06" class="stroked-text" style="fill:#006464;fill-opacity:0;stroke:#006464;stroke-width:.1524;stroke-linecap:round;stroke-linejoin:round;stroke-opacity:1" transform="translate(-213.84 -30.98)"/><path fill="none" d="M289.56 52.7v3.81" style="fill:#840000;fill-opacity:0;stroke:#840000;stroke-width:.1524;stroke-linecap:round;stroke-linejoin:round;stroke-opacity:1" transform="translate(-213.84 -30.98)"/><path fill="none" d="m288.87 52.36 1.27-.43m0 0-1.27-.42m.79-.42v-.97" class="stroked-text" style="fill:#006464;fill-opacity:0;stroke:#006464;stroke-width:.1524;stroke-linecap:round;stroke-linejoin:round;stroke-opacity:1" transform="translate(-213.84 -30.98)"/><path fill="none" d="M288.3 54.37h.84m-1.33.3.9.3m.01 0v-.78" class="stroked-text" style="fill:#a90000;fill-opacity:0;stroke:#a90000;stroke-width:.1524;stroke-linecap:round;stroke-linejoin:round;stroke-opacity:1" transform="translate(-213.84 -30.98)"/><path fill="none" d="M289.56 45.09v-3.82" style="fill:#840000;fill-opacity:0;stroke:#840000;stroke-width:.1524;stroke-linecap:round;stroke-linejoin:round;stroke-opacity:1" transform="translate(-213.84 -30.98)"/><path fill="none" d="m288.87 47.85 1.27-.42m0 0-1.27-.42m.79-.43v-.97m.48.49h-.97" class="stroked-text" style="fill:#006464;fill-opacity:0;stroke:#006464;stroke-width:.1524;stroke-linecap:round;stroke-linejoin:round;stroke-opacity:1" transform="translate(-213.84 -30.98)"/><path fill="none" d="m288.42 43.3-.06.12m0 0-.06.06m0 0-.13.06m0 0h-.06m0 0-.12-.06m.01 0-.07-.06m0 0-.06-.12m0 0v-.24m0 0 .06-.12m0 0 .06-.06m.01 0 .11-.06m0 0h.06m0 0 .13.06m0 0 .06.06m0 0 .06.12m0 0v.24m0 0 .06.12m0 0 .06.06m0 0 .12.06m0 0h.24m0 0 .12-.06m0 0 .06-.06m0 0 .06-.12m0 0v-.24m0 0-.06-.12m0 0-.06-.06m0 0-.12-.06m0 0h-.24m0 0-.12.06m0 0-.06.06m0 0-.06.12" class="stroked-text" style="fill:#a90000;fill-opacity:0;stroke:#a90000;stroke-width:.1524;stroke-linecap:round;stroke-linejoin:round;stroke-opacity:1" transform="translate(-213.84 -30.98)"/><path fill="none" d="M119.92 18.49h-.6m-.01 0v-1.27m.97 1.21.18.06m0 0h.3m0 0 .13-.06m0 0 .06-.06m0 0 .06-.12m0 0v-.12m0 0-.06-.12m0 .01-.06-.07m0 0-.13-.06m0 0-.24-.06m0-.01-.12-.05m0 0-.06-.06m0 0-.06-.12m0 0v-.12m0 0 .06-.12m0 0 .06-.07m0 .01.12-.07m0 0h.3m.01 0 .18.07m1.21 1.2h-.73m.37 0v-1.27m0 0-.13.19m0 0-.12.12m0-.01-.12.07m-2.23 3.38.17.06m0 0h.3m.01 0 .12-.06m0 0 .06-.06m0 .01.06-.13m0 0v-.12m0 0-.06-.12m0 0-.06-.06m0 0-.12-.06m0 0-.25-.06m0 0-.12-.06m0 0-.06-.06m0 0-.06-.12m.01-.01v-.1m0-.01.05-.12m0 0 .06-.06m0-.01.13-.06m-.01 0h.3m.01 0 .18.07m.54.36v1.27m0-1.21.12-.06m0 0h.25m0 0 .12.06m0 0 .06.06m-.01 0 .07.12m0 0v.36m0 0-.06.12m-.01.01-.05.05m0 0-.12.06m0 0h-.25m0 0-.12-.06m1.64 0-.13.06m0 0h-.24m0 0-.12-.06m0 0-.06-.12m0 0v-.48m0 0 .06-.12m0 0 .12-.06m0 0h.24m0 0 .13.06m0 0 .06.12m0 0v.12m0 0-.6.12m1.68.42v-.66m0 0-.06-.12m0 0-.12-.06m0 0h-.24m0 0-.12.06m.54.72-.12.06m0 0h-.3m0 0-.12-.06m0 0-.06-.12m0 0v-.12m0 0 .06-.12m0 .01.12-.07m0 0h.3m0 0 .12-.06m.61.54v-1.27m.12.79.36.48m0-.84-.48.48m1.51.3-.12.06m0 0h-.24m0 0-.12-.06m0 0-.06-.12m0 0v-.48m0 0 .06-.12m0 0 .12-.06m0 0h.24m0 0 .12.06m0 0 .06.12m0 0v.12m0 0-.6.12m1.15.42v-.84m0 .24.06-.12m0 0 .06-.06m0 0 .12-.06m-.01 0h.13" class="stroked-text" style="fill:#006464;fill-opacity:0;stroke:#006464;stroke-width:.1524;stroke-linecap:round;stroke-linejoin:round;stroke-opacity:1"/><path fill="none" d="M325.75 48.9h-2.54" style="fill:#840000;fill-opacity:0;stroke:#840000;stroke-width:.1524;stroke-linecap:round;stroke-linejoin:round;stroke-opacity:1" transform="translate(-213.84 -30.98)"/><path fill="none" d="M324.85 50.47h-.73m.37 0V49.2m0 0-.13.18m0 0-.12.12m0 0-.12.06" class="stroked-text" style="fill:#a90000;fill-opacity:0;stroke:#a90000;stroke-width:.1524;stroke-linecap:round;stroke-linejoin:round;stroke-opacity:1" transform="translate(-213.84 -30.98)"/><path fill="none" d="M325.75 51.44h-2.54" style="fill:#840000;fill-opacity:0;stroke:#840000;stroke-width:.1524;stroke-linecap:round;stroke-linejoin:round;stroke-opacity:1" transform="translate(-213.84 -30.98)"/><path fill="none" d="m324.12 51.86.06-.06m0 0 .12-.06m0 0h.3m0 0 .13.06m0 0 .06.06m0 0 .06.12m0 0v.12m0 0-.06.19m0 0-.73.72m0 0h.79" class="stroked-text" style="fill:#a90000;fill-opacity:0;stroke:#a90000;stroke-width:.1524;stroke-linecap:round;stroke-linejoin:round;stroke-opacity:1" transform="translate(-213.84 -30.98)"/><g style="fill:#009600;fill-opacity:1;stroke:#009600;stroke-width:.1524;stroke-linecap:round;stroke-linejoin:round;stroke-opacity:1" transform="translate(-213.84 -30.98)"><circle cx="238.13" cy="38.1" r=".46"/><circle cx="269.88" cy="48.9" r=".46"/><circle cx="279.4" cy="43.81" r=".46"/><circle cx="295.91" cy="53.97" r=".46"/><circle cx="294.64" cy="53.97" r=".46"/><circle cx="311.15" cy="48.9" r=".46"/></g></svg>