<svg xmlns="http://www.w3.org/2000/svg" width="4000" height="2500" version="1.2"><path fill="none" stroke="#000" stroke-linejoin="bevel" stroke-width="2.7" d="M128 206.2h3748.9M128 231h3748.9M128 255.8h3748.9M128 280.6h3748.9M128 305.4h3748.9M128 453.9h3748.9M128 478.7h3748.9M128 503.5h3748.9M128 528.3h3748.9M128 553.1h3748.9M128 724.4h3748.9M128 749.2h3748.9M128 774h3748.9M128 798.8h3748.9M128 823.6h3748.9M128 986.9h3748.9M128 1011.7h3748.9M128 1036.5h3748.9M128 1061.3h3748.9M128 1086.1h3748.9M128 1457.3h3748.9M128 1482.1h3748.9M128 1506.9h3748.9M128 1531.7h3748.9M128 1556.5h3748.9M128 1705h3748.9M128 1729.8h3748.9M128 1754.6h3748.9M128 1779.4h3748.9M128 1804.2h3748.9M128 1973h3748.9M128 1997.8h3748.9M128 2022.6h3748.9M128 2047.4h3748.9M128 2072.2h3748.9M128 2235.6h3748.9M128 2260.4h3748.9M128 2285.2h3748.9M128 2310h3748.9M128 2334.8h3748.9"/><path d="M132.4 1392.4c-1.3.7-1.6 1.2-1.6 2s.6 1.3 1.4 1.3c1 0 1.6-.7 1.8-2.2a6 6 0 0 1 4.1-1.4c3 0 4.6 1.8 4.6 5.1 0 5.2-3.3 9.5-7.5 9.5-2.3 0-4.2-1.2-4.2-2.5 0-.2 0-.3.2-.4l1.3-.7c.7-.5 1-1.2 1-2 0-1.3-1-2.3-2.4-2.3-1.7 0-3 1.5-3 3.4 0 3.5 3 6.1 7.3 6.1 6.4 0 11.7-5.2 11.7-11.6 0-4-3.1-6.8-7.5-6.8-1.7 0-3 .3-5 1.3l2.2-7.6c2.2.5 3.8.7 5.3.7 2.6 0 5-.9 6.3-2.3.7-.8 1-1.5 1-2 0-.2 0-.5-.2-.5l-.4.2c-1.4.6-3 1-4.6 1a34 34 0 0 1-8.2-1.2l-3.6 12.9"/><path fill-rule="evenodd" stroke="#000" stroke-linecap="round" stroke-linejoin="round" stroke-width="1.7" d="M756.3 2316.2c21.5 12.8 86.1 12.8 107.6 0-21.5 19.8-86 19.8-107.6 0m631.9 49.6c35.4 23.4 141.6 23.4 177 0-35.4 30.4-141.6 30.4-177 0m770.2 0c30.5 19.7 122 19.7 152.4 0-30.5 26.6-122 26.6-152.4 0m897.6 12.4c30.8 20 123.4 20 154.3 0-30.9 26.9-123.5 26.9-154.4 0m-882.3-370.7c24.4 15 97.6 15 122 0-24.4 22-97.6 22-122 0m897.5 12.4c24.8 15.4 99.2 15.4 124 0-24.8 22.3-99.2 22.3-124 0m-2299.6-9.7c15.4 8.3 61.8 8.3 77.3 0-15.5 15.2-61.9 15.2-77.3 0m-29.5-49.6c15.4 8.3 61.8 8.3 77.3 0-15.5 15.2-61.9 15.2-77.3 0m29.5-22.1c15.4-15.2 61.8-15.2 77.3 0-15.5-8.2-61.9-8.2-77.3 0m631.9 106.2c29.3 18.8 117.4 18.8 146.7 0-29.3 25.8-117.4 25.8-146.7 0m0-44.2c29.3-25.7 117.4-25.7 146.7 0-29.3-18.8-117.4-18.8-146.7 0m0-37.2c29.3-25.7 117.4-25.7 146.7 0-29.3-18.8-117.4-18.8-146.7 0m770.2-86.8c26.1-23.3 104.6-23.3 130.8 0-26.2-16.4-104.7-16.4-130.8 0m897.5 37.2c26.6-23.6 106.2-23.6 132.8 0-26.6-16.7-106.3-16.7-132.8 0M479.8 601.4c173 28.8 691.9 28.8 864.8 0-173 35.7-691.9 35.7-864.8 0m0-109c173-35.7 691.9-35.7 864.8 0-173-28.8-691.9-28.8-864.8 0m910.7 109c173 28.8 692 28.8 864.9 0-173 35.7-692 35.7-864.9 0m0-109c173-35.7 692-35.7 864.9 0-173-28.8-692-28.8-864.9 0m-619 1238.4c15.4 8.3 61.8 8.3 77.3 0-15.5 15.2-61.9 15.2-77.3 0m0-47.8c15.4-15.3 61.8-15.3 77.3 0-15.5-8.4-61.9-8.4-77.3 0m631.9 93.7c29.3 18.8 117.4 18.8 146.7 0-29.3 25.8-117.4 25.8-146.7 0m0-44.2c29.3-25.8 117.4-25.8 146.7 0-29.3-18.8-117.4-18.8-146.7 0m0-37.2c29.3-25.8 117.4-25.8 146.7 0-29.3-18.8-117.4-18.8-146.7 0M884 200c95.7-35.7 383-35.7 478.7 0-95.7-28.8-383-28.8-478.8 0m1821.5-24.8c94.7-35.7 379-35.7 473.7 0-94.8-28.8-379-28.8-473.7 0M771.5 1483c15.4 8.4 61.8 8.4 77.3 0-15.5 15.3-61.9 15.3-77.3 0m0-109.8c15.4-15.2 61.8-15.2 77.3 0-15.5-8.3-61.9-8.3-77.3 0m616.7 40.7c35.4-30.4 141.6-30.4 177 0-35.4-23.4-141.6-23.4-177 0m770.2 0c30.5-26.6 122-26.6 152.4 0-30.5-19.7-122-19.7-152.4 0m897.6 37.2c30.8-27 123.4-27 154.3 0-30.9-20-123.5-20-154.4 0"/><path stroke="#000" stroke-linejoin="bevel" stroke-width="4.5" d="M130.3 985.5v102m1157.2-102v102m910.7-102v102m910.8-102v102m765.6-102v102M130.3 2234.2v101.9m1193.8-101.9v101.9m932.3-101.9v101.9m899.5-101.9v101.9m696.8-101.9v101.9"/><path stroke="#000" stroke-linejoin="bevel" stroke-width="13.6" d="M3870 2234.2v101.9"/><path stroke="#000" stroke-linejoin="bevel" stroke-width="4.5" d="M130.3 723v263.9M1287.5 723v263.9M2198.2 723v263.9M3109 723v263.9M3874.6 723v263.9M130.3 1971.7v263.9m1193.8-263.9v263.9m932.3-263.9v263.9m899.5-263.9v263.9m696.8-263.9v263.9"/><path stroke="#000" stroke-linejoin="bevel" stroke-width="13.6" d="M3870 1971.7v263.9"/><path stroke="#000" stroke-linejoin="bevel" stroke-width="4.5" d="M130.3 452.5v271.9m1157.2-271.9v271.9m910.7-271.9v271.9M3109 452.5v271.9m765.6-271.9v271.9M130.3 1703.6V1973m1193.8-269.4V1973m932.3-269.4V1973m899.5-269.4V1973m696.8-269.4V1973"/><path stroke="#000" stroke-linejoin="bevel" stroke-width="13.6" d="M3870 1703.6V1973"/><path stroke="#000" stroke-linejoin="bevel" stroke-width="4.5" d="M130.3 204.9v249m1157.2-249v249m910.7-249v249m910.8-249v249m765.6-249v249m-3744.3 1002V1705m1193.8-249.1V1705m932.3-249.1V1705m899.5-249.1V1705m696.8-249.1V1705"/><path stroke="#000" stroke-linejoin="bevel" stroke-width="13.6" d="M3870 1455.9V1705"/><path d="M3152.7 691.7c-.6-3.8-3-7.5-8-7.5s-7.9 3-8.4 3.7l.4-31.9c0-.8-.6-1.4-1.4-1.4h-1.1c-.8 0-1.4.6-1.4 1.4l.5 59.6c0 .8.6 1.4 1.4 1.4.2 0 .6 0 .7-.2.4-.2 6.9-3.3 12.3-9.4a20.1 20.1 0 0 0 5-15.7m-6.8 3.9c0 1.5-.4 6-3 9.8a34 34 0 0 1-6.9 6.8l.3-19.4c.2-.9 1.7-3.7 5.7-3.7 3.6 0 3.9 3.3 3.9 5.4v1.1m6.8-125.6c-.6-3.8-3-7.5-8-7.5s-7.9 3.1-8.4 3.7l.4-31.8c0-.8-.6-1.4-1.4-1.4h-1.1c-.8 0-1.4.6-1.4 1.4l.5 59.6c0 .8.6 1.4 1.4 1.4l.7-.2c.4-.2 6.9-3.4 12.3-9.4a20.1 20.1 0 0 0 5-15.7m-6.8 3.9c0 1.4-.4 6-3 9.8a34 34 0 0 1-6.9 6.7l.3-19.3c.2-1 1.7-3.8 5.7-3.8 3.6 0 3.9 3.4 3.9 5.5v1m6.8-90.6c-.6-3.9-3-7.6-8-7.6s-7.9 3.1-8.4 3.7l.4-31.8c0-.8-.6-1.4-1.4-1.4h-1.1c-.8 0-1.4.6-1.4 1.4l.5 59.6c0 .8.6 1.4 1.4 1.4l.7-.2c.4-.2 6.9-3.4 12.3-9.5a20.1 20.1 0 0 0 5-15.6m-6.8 3.8a19 19 0 0 1-3 9.9 34 34 0 0 1-6.9 6.7l.3-19.3c.2-1 1.7-3.8 5.7-3.8 3.6 0 3.9 3.4 3.9 5.5v1" style="stroke-width:.992126"/><path stroke="#000" stroke-linejoin="bevel" stroke-width="4" d="M432 1110.9h49.6m161.6 0h49.6m372.6 0h49.6m-36.4 1273.5h49.6m-49.6-24.8h49.6m1542.3 24.8h49.6m-49.6-24.8h49.6m306.2 0h49.6m114.4 0h49.6m-80.8-1660h49.6m157.6 0h49.6m116.2 0h49.6m116.2 0h49.6M374.8 1948.2h49.6m302.3 0h49.6m67.7 0h49.6m185 0h49.6m650.5 0h49.6m67.1 0h49.6m67.1 0h49.6m-49.6-24.8h49.6m67.1 24.8h49.6m-49.6-24.8h49.6m-49.6-24.8h49.6m112.5 49.6h49.6m-49.6-24.8h49.6m-49.6-24.8h49.6m140.2 49.6h49.6m-49.6-24.8h49.6m-49.6-24.8h49.6m140.2 49.6h49.6m69 0h49.6m-49.6-24.8h49.6m69 24.8h49.6m-49.6-24.8h49.6m69 24.8h49.6m-49.6-24.8h49.6m114.4 24.8h49.6m-49.6-24.8h49.6M429.7 577.9H484m856.4 0h54.4m856.3 0h54.4m853.6 0h49.6m489.2-148.8h49.6M374.8 1680.2h49.6M3697.9 181.4h49.6M374.8 1432.5h49.6m67.7 0h49.6m-49.6-24.8h49.6m67.7 24.8H659m-49.6-24.8H659m67.7 24.8h49.6m-49.6-24.8h49.6m-49.6-24.8h49.6m67.7 49.6h49.6m-49.6-24.8h49.6m-49.6-24.8h49.6m67.7 49.6h49.6m-49.6-24.8h49.6m347.7 24.8h49.6m137.1 0h49.6m533.9 0h49.6m112.5 0h49.6"/><path stroke="#000" stroke-linejoin="bevel" stroke-width="2.7" d="M471.6 1107.8v-83.7m211.1 83.7v-83.7m422.3 83.7v-83.7m277.3 71.2v-83.6m211.2 83.6v-83.6m422.2 83.6v-83.6m277.4 71.2v-83.6m211.1 83.6v-83.6m422.3 83.6v-83.6m272.2 71.2v-83.6m207.2 83.6v-83.6m165.8 83.6v-83.6m165.8 83.6v-83.6M414.3 2331.6V2248m351.9 46.4v-77.5m117.3 77.5v-77.5m234.6 164.3v-96m280 58.8v-83.6m186.8 83.6v-83.6m233.3 58.8v-83.6m233.4 96v-71.2m116.7 83.6v-77.4m162.1 77.4v-83.6m189.8 83.6v-83.6m189.8 133.2v-108.4m355.9 71.2v-83.6m164 83.6v-83.6m-1441.2-296.4v83.4m233.4-71v77.2m116.7-64.8v71m162.1-71v80.3m189.8-80.3v80.3m189.8-30.7v67.9m355.9-105.1v83.4m164-83.4v83.4M442.1 715.3v133.1m316.7-133.1v133.1m211.1-133.1v126.9M1181 715.3v133.1m171.8-133.1v133.1m316.7-133.1v133.1m211.2-133.1v136.2m211.1-136.2v145.5m171.8-145.5V836m316.7-120.7v133.1m211.1-133.1v126.9m211.1-126.9v133.1m166.7-145.5v145.5m207.2-145.5v139.3m165.8-139.3v139.3M3708 702.9v139.3M384.8 1939.1v142.4m351.9-130V2097M854 1951.5v139.3m234.6-139.3v157.9m280-133v133m186.7-133v145.4m262.9-176.8v-89.8m116.7 77.4v-87.7m116.7 75.3v-85.7m116.7 48.5v-58.8m162.1 58.8v-52.6m189.8 65v-52.6m189.8 89.8V1849m118.6 71.2V1849m118.7 58.8V1849m118.6 71.2V1849m164 71.2V1849m-31.2-1274.3v-158m177.7 40.5v114.5m165.8-126.9v126.9M3708 432.4v139.3M384.8 1671.1v161m351.9-136.2v108.3M854 1695.9v108.3m234.6-83.5v102.1m280-114.5v133.1m186.7-133.1v145.5M442.1 259.2v74.1M864.3 222v83.4m488.5-83.4v83.4m211.2-71v71m105.5-83.4v77.2m105.6-89.6V293m211.1-46.2v64.8m105.6-77.2v71m171.8-46.2v74.1m422.2-136.1v83.4m483.4-83.4v83.4m207.2-71v151.6m165.8-164v154.7M3708 184.8v157.8M384.8 1423.4v157.9M502.1 1411v160m117.3-172.4v162.1m117.3-174.5v164.1M854 1386.2v151.7M971.3 1411v126.9m117.3-89.7v89.7m117.3-64.9v64.9m162.7-102.1v83.5m186.7-83.5v83.5m233.4-21.5v64.9m116.7-77.3v67m116.7-79.4v69.1m116.7-106.3v95.9m162.1-95.9v83.5m189.8-71.1v83.5m189.8-46.3v71.1m118.6-83.5v81.5m118.6-93.9v91.8m118.7-79.4v77.3m164-77.3v83.5"/><path d="M472 1102.9c-1.8-3.3-5.6-5-10.1-5-3.4 0-7 1-10.7 2.8-6.5 3.5-10.5 9.3-10.5 14.4a8 8 0 0 0 1 4c1.8 3.3 5.6 5 10.1 5 3.4 0 7-.9 10.6-2.8 6.6-3.4 10.6-9.3 10.6-14.3 0-1.4-.3-2.8-1-4.1m211.1 0c-1.8-3.3-5.6-5-10.1-5-3.4 0-7 1-10.6 2.8-6.6 3.5-10.6 9.3-10.6 14.4a8 8 0 0 0 1 4c1.8 3.3 5.6 5 10.2 5 3.3 0 7-.9 10.6-2.8 6.5-3.4 10.5-9.3 10.5-14.3 0-1.4-.3-2.8-1-4.1m422.3 0c-1.8-3.3-5.6-5-10.2-5-3.3 0-7 1-10.6 2.8-6.5 3.5-10.5 9.3-10.5 14.4a8 8 0 0 0 1 4c1.8 3.3 5.6 5 10.1 5 3.4 0 7-.9 10.6-2.8 6.6-3.4 10.6-9.3 10.6-14.3 0-1.4-.3-2.8-1-4.1m277.3-12.4c-1.8-3.3-5.5-5-10.1-5-3.4 0-7 1-10.6 2.8-6.6 3.5-10.5 9.3-10.5 14.4a8 8 0 0 0 1 4c1.7 3.3 5.5 5 10 5 3.4 0 7.1-.9 10.7-2.8 6.5-3.4 10.5-9.3 10.5-14.3 0-1.4-.3-2.8-1-4.1m211.1 0c-1.7-3.3-5.5-5-10-5a24 24 0 0 0-10.7 2.8c-6.5 3.5-10.5 9.3-10.5 14.4a8 8 0 0 0 1 4c1.8 3.3 5.5 5 10.1 5 3.4 0 7-.9 10.6-2.8 6.6-3.4 10.5-9.3 10.5-14.3 0-1.4-.3-2.8-1-4.1m422.3 0c-1.8-3.3-5.6-5-10.1-5-3.4 0-7 1-10.6 2.8-6.6 3.5-10.6 9.3-10.6 14.4a8 8 0 0 0 1 4c1.8 3.3 5.6 5 10.2 5 3.3 0 7-.9 10.6-2.8 6.5-3.4 10.5-9.3 10.5-14.3 0-1.4-.3-2.8-1-4.1m277.4-12.5c-1.8-3.2-5.6-5-10.2-5-3.3 0-7 1-10.6 2.9-6.5 3.5-10.5 9.3-10.5 14.4a8 8 0 0 0 1 4c1.8 3.3 5.5 5 10.1 5 3.4 0 7-.9 10.6-2.8 6.6-3.4 10.5-9.3 10.5-14.3 0-1.4-.3-2.8-1-4.1m211.2-.1c-1.8-3.2-5.6-5-10.1-5-3.4 0-7 1-10.7 2.9-6.5 3.5-10.5 9.3-10.5 14.4a8 8 0 0 0 1 4c1.8 3.3 5.6 5 10.1 5 3.4 0 7-.9 10.7-2.8 6.5-3.4 10.5-9.3 10.5-14.3 0-1.4-.3-2.8-1-4.1m422.2-.1c-1.7-3.2-5.5-5-10-5a23 23 0 0 0-10.7 2.9c-6.5 3.5-10.5 9.3-10.5 14.4a8 8 0 0 0 1 4c1.8 3.3 5.5 5 10.1 5 3.4 0 7-.9 10.6-2.8 6.6-3.4 10.5-9.3 10.5-14.3 0-1.4-.3-2.8-1-4.1m272.2-12.4c-1.7-3.3-5.5-5-10-5a24 24 0 0 0-10.7 2.8c-6.5 3.5-10.5 9.3-10.5 14.4a8 8 0 0 0 1 4c1.8 3.3 5.5 5 10.1 5 3.4 0 7-.9 10.6-2.8 6.6-3.4 10.5-9.3 10.5-14.3 0-1.4-.3-2.8-1-4.1m207.3 0c-1.8-3.3-5.6-5-10.1-5-3.4 0-7 1-10.7 2.8-6.5 3.5-10.5 9.3-10.5 14.4a8 8 0 0 0 1 4c1.8 3.3 5.6 5 10.1 5 3.4 0 7-.9 10.6-2.8 6.6-3.4 10.6-9.3 10.6-14.3 0-1.4-.3-2.8-1-4.1m165.7 0c-1.7-3.3-5.5-5-10-5-3.4 0-7.1 1-10.7 2.8-6.5 3.5-10.5 9.3-10.5 14.4a8 8 0 0 0 1 4c1.8 3.3 5.6 5 10.1 5 3.4 0 7-.9 10.6-2.8 6.6-3.4 10.6-9.3 10.6-14.3 0-1.4-.3-2.8-1-4.1m165.8 0c-1.8-3.3-5.6-5-10.2-5-3.3 0-7 1-10.6 2.8-6.5 3.5-10.5 9.3-10.5 14.4a8 8 0 0 0 1 4c1.8 3.3 5.5 5 10.1 5 3.4 0 7-.9 10.6-2.8 6.6-3.4 10.5-9.3 10.5-14.3 0-1.4-.3-2.8-1-4.1m-3323.1 1261c-1.8-3.3-5.6-5-10.1-5-3.4 0-7 1-10.6 2.8-6.6 3.5-10.5 9.4-10.5 14.4a7 7 0 0 0 1 4c1.7 3.4 5.5 5 10 5a23 23 0 0 0 10.7-2.7c6.5-3.5 10.5-9.3 10.5-14.4a8 8 0 0 0-1-4m351.9-37.3c-1.8-3.3-5.5-5-10.1-5-3.4 0-7 1-10.6 2.8-6.6 3.5-10.5 9.4-10.5 14.4a8 8 0 0 0 1 4c1.7 3.4 5.5 5 10 5a23 23 0 0 0 10.7-2.7c6.5-3.5 10.5-9.4 10.5-14.4a8 8 0 0 0-1-4m117.4-.1c-1.9-3.3-5.6-5-10.2-5-3.4 0-7 1-10.6 2.8-6.6 3.5-10.5 9.4-10.5 14.4a8 8 0 0 0 1 4c1.7 3.4 5.5 5 10 5a23 23 0 0 0 10.7-2.7c6.5-3.5 10.5-9.4 10.5-14.4a8 8 0 0 0-1-4m234.6 86.7c-1.8-3.2-5.5-5-10.1-5-3.4 0-7 1-10.6 2.9-6.6 3.4-10.5 9.3-10.5 14.3 0 1.4.3 2.8 1 4.1 1.7 3.3 5.5 5 10 5 3.5 0 7.1-1 10.7-2.8 6.5-3.5 10.5-9.3 10.5-14.4a8 8 0 0 0-1-4m280-37.3c-1.8-3.3-5.5-5-10.1-5-3.4 0-7 1-10.6 2.8-6.6 3.5-10.5 9.4-10.5 14.4a8 8 0 0 0 1 4c1.7 3.4 5.5 5 10 5a23 23 0 0 0 10.7-2.7c6.5-3.5 10.5-9.3 10.5-14.4a8 8 0 0 0-1-4m186.7-.1c-1.8-3.3-5.5-5-10.1-5-3.4 0-7 1-10.6 2.8-6.6 3.5-10.5 9.4-10.5 14.4a8 8 0 0 0 1 4c1.7 3.4 5.5 5 10 5 3.5 0 7.1-.8 10.7-2.7 6.5-3.5 10.5-9.3 10.5-14.4a8 8 0 0 0-1-4m233.4-24.9c-1.8-3.3-5.5-5-10.1-5-3.4 0-7 1-10.6 2.8-6.6 3.5-10.5 9.4-10.5 14.4a8 8 0 0 0 1 4c1.7 3.4 5.5 5 10 5a23 23 0 0 0 10.7-2.7c6.5-3.5 10.5-9.3 10.5-14.4a8 8 0 0 0-1-4m233.4 12.3c-1.8-3.3-5.6-5-10.1-5-3.4 0-7 1-10.6 2.8-6.6 3.5-10.6 9.4-10.6 14.4a8 8 0 0 0 1 4c1.8 3.4 5.6 5 10.2 5 3.3 0 7-.8 10.6-2.7 6.5-3.5 10.5-9.3 10.5-14.4a8 8 0 0 0-1-4m116.7 12.3c-1.8-3.3-5.6-5-10.1-5-3.4 0-7 1-10.6 2.8-6.6 3.5-10.6 9.4-10.6 14.4a8 8 0 0 0 1 4c1.8 3.4 5.6 5 10.2 5 3.3 0 7-.8 10.6-2.7 6.5-3.5 10.5-9.3 10.5-14.4a8 8 0 0 0-1-4m162.1-.1c-1.8-3.3-5.6-5-10.1-5-3.4 0-7 1-10.7 2.8-6.5 3.5-10.5 9.4-10.5 14.4a8 8 0 0 0 1 4c1.8 3.4 5.6 5 10.1 5 3.4 0 7-.8 10.7-2.7 6.5-3.5 10.5-9.3 10.5-14.4a8 8 0 0 0-1-4m189.8-.1c-1.8-3.3-5.6-5-10.1-5-3.4 0-7 1-10.7 2.8-6.5 3.5-10.5 9.4-10.5 14.4a8 8 0 0 0 1 4c1.8 3.4 5.6 5 10.1 5 3.4 0 7-.8 10.7-2.7 6.5-3.5 10.5-9.3 10.5-14.4a8 8 0 0 0-1-4m189.8 49.5c-1.8-3.2-5.6-5-10.1-5-3.4 0-7 1-10.7 2.9-6.5 3.4-10.5 9.3-10.5 14.3 0 1.4.3 2.8 1 4.1 1.8 3.3 5.6 5 10.1 5 3.4 0 7-1 10.7-2.8 6.5-3.5 10.5-9.3 10.5-14.4a8 8 0 0 0-1-4m355.9-37.3c-1.8-3.3-5.6-5-10.2-5-3.3 0-7 1-10.6 2.8-6.5 3.5-10.5 9.4-10.5 14.4a8 8 0 0 0 1 4c1.8 3.4 5.5 5 10.1 5 3.4 0 7-.8 10.6-2.7 6.6-3.5 10.5-9.3 10.5-14.4a8 8 0 0 0-1-4m164.1-.1c-1.8-3.3-5.6-5-10.2-5-3.3 0-7 1-10.6 2.8-6.5 3.5-10.5 9.4-10.5 14.4a8 8 0 0 0 1 4c1.8 3.4 5.6 5 10.1 5 3.4 0 7-.8 10.6-2.7 6.6-3.5 10.6-9.3 10.6-14.4a8 8 0 0 0-1-4M1818.6 1965c-1.8-3.3-5.5-5-10.1-5-3.4 0-7 1-10.6 2.8-6.6 3.5-10.5 9.3-10.5 14.4a8 8 0 0 0 1 4c1.7 3.3 5.5 5 10 5 3.4 0 7.1-.9 10.7-2.8 6.5-3.4 10.5-9.3 10.5-14.4 0-1.3-.3-2.7-1-4m233.4 12.4c-1.8-3.3-5.6-5-10.1-5-3.4 0-7 1-10.6 2.8-6.6 3.5-10.6 9.3-10.6 14.4a8 8 0 0 0 1 4c1.8 3.3 5.6 5 10.2 5 3.3 0 7-.9 10.6-2.8 6.5-3.4 10.5-9.3 10.5-14.4 0-1.3-.3-2.7-1-4m116.7 12.4c-1.8-3.3-5.6-5-10.1-5-3.4 0-7 1-10.6 2.8-6.6 3.5-10.6 9.3-10.6 14.4a8 8 0 0 0 1 4c1.8 3.3 5.6 5 10.2 5 3.3 0 7-.9 10.6-2.8 6.5-3.4 10.5-9.3 10.5-14.3 0-1.4-.3-2.8-1-4.1m162.1 0c-1.8-3.3-5.6-5-10.1-5-3.4 0-7 1-10.7 2.8-6.5 3.5-10.5 9.3-10.5 14.4a8 8 0 0 0 1 4c1.8 3.3 5.6 5 10.1 5 3.4 0 7-.9 10.7-2.8 6.5-3.4 10.5-9.3 10.5-14.3 0-1.4-.3-2.8-1-4.1m189.8 0c-1.8-3.3-5.6-5-10.1-5-3.4 0-7 1-10.7 2.8-6.5 3.5-10.5 9.3-10.5 14.4a8 8 0 0 0 1 4c1.8 3.3 5.6 5 10.1 5 3.4 0 7-.9 10.7-2.8 6.5-3.4 10.5-9.3 10.5-14.3 0-1.4-.3-2.8-1-4.1m189.8 49.6c-1.8-3.3-5.6-5-10.1-5-3.4 0-7 1-10.7 2.8-6.5 3.5-10.5 9.3-10.5 14.4a8 8 0 0 0 1 4c1.8 3.3 5.6 5 10.1 5 3.4 0 7-.9 10.7-2.8 6.5-3.4 10.5-9.3 10.5-14.3 0-1.4-.3-2.8-1-4.1m355.9-37.2c-1.8-3.3-5.6-5-10.2-5-3.3 0-7 1-10.6 2.8-6.5 3.5-10.5 9.3-10.5 14.4a8 8 0 0 0 1 4c1.8 3.3 5.5 5 10.1 5 3.4 0 7-.9 10.6-2.8 6.6-3.4 10.5-9.3 10.5-14.3 0-1.4-.3-2.8-1-4.1m164.1 0c-1.8-3.3-5.6-5-10.2-5-3.3 0-7 1-10.6 2.8-6.5 3.5-10.5 9.3-10.5 14.4a8 8 0 0 0 1 4c1.8 3.3 5.6 5 10.1 5 3.4 0 7-.9 10.6-2.8 6.6-3.4 10.6-9.3 10.6-14.3 0-1.4-.3-2.8-1-4.1M472 753.5c-1.8-3.2-5.6-5-10.1-5-3.4 0-7 1-10.7 2.9-6.5 3.4-10.5 9.3-10.5 14.3 0 1.4.3 2.8 1 4.1 1.8 3.3 5.6 5 10.1 5 3.4 0 7-1 10.6-2.8 6.6-3.5 10.6-9.3 10.6-14.4a8 8 0 0 0-1-4" style="stroke-width:.992126"/><path d="M472 728.7c-1.8-3.2-5.6-5-10.1-5-3.4 0-7 1-10.7 2.9-6.5 3.4-10.5 9.3-10.5 14.3 0 1.4.3 2.8 1 4.1 1.8 3.3 5.6 5 10.1 5 3.4 0 7-1 10.6-2.8 6.6-3.5 10.6-9.3 10.6-14.4a8 8 0 0 0-1-4" style="stroke-width:.992126"/><path d="M472 704c-1.8-3.3-5.6-5.1-10.1-5.1-3.4 0-7 1-10.7 2.9-6.5 3.4-10.5 9.3-10.5 14.3 0 1.4.3 2.8 1 4.1 1.8 3.3 5.6 5 10.1 5 3.4 0 7-1 10.6-2.8C469 718.9 473 713 473 708a8 8 0 0 0-1-4m316.7 49.5c-1.8-3.2-5.6-5-10.2-5-3.3 0-7 1-10.6 2.9-6.5 3.4-10.5 9.3-10.5 14.3 0 1.4.3 2.8 1 4.1 1.8 3.3 5.6 5 10.1 5 3.4 0 7-1 10.6-2.8 6.6-3.5 10.6-9.3 10.6-14.4a8 8 0 0 0-1-4" style="stroke-width:.992126"/><path d="M788.7 728.7c-1.8-3.2-5.6-5-10.2-5-3.3 0-7 1-10.6 2.9-6.5 3.4-10.5 9.3-10.5 14.3 0 1.4.3 2.8 1 4.1 1.8 3.3 5.6 5 10.1 5 3.4 0 7-1 10.6-2.8 6.6-3.5 10.6-9.3 10.6-14.4a8 8 0 0 0-1-4" style="stroke-width:.992126"/><path d="M788.7 704c-1.8-3.3-5.6-5.1-10.2-5.1-3.3 0-7 1-10.6 2.9-6.5 3.4-10.5 9.3-10.5 14.3 0 1.4.3 2.8 1 4.1 1.8 3.3 5.6 5 10.1 5 3.4 0 7-1 10.6-2.8 6.6-3.5 10.6-9.3 10.6-14.4a8 8 0 0 0-1-4m211.1 49.5c-1.8-3.2-5.6-5-10.1-5-3.4 0-7 1-10.6 2.9-6.6 3.4-10.6 9.3-10.6 14.3 0 1.4.3 2.8 1 4.1 1.8 3.3 5.6 5 10.2 5 3.3 0 7-1 10.6-2.8 6.5-3.5 10.5-9.3 10.5-14.4a8 8 0 0 0-1-4" style="stroke-width:.992126"/><path d="M999.8 728.7c-1.8-3.2-5.6-5-10.1-5-3.4 0-7 1-10.6 2.9-6.6 3.4-10.6 9.3-10.6 14.3 0 1.4.3 2.8 1 4.1 1.8 3.3 5.6 5 10.2 5 3.3 0 7-1 10.6-2.8 6.5-3.5 10.5-9.3 10.5-14.4a8 8 0 0 0-1-4" style="stroke-width:.992126"/><path d="M999.8 704c-1.8-3.3-5.6-5.1-10.1-5.1-3.4 0-7 1-10.6 2.9-6.6 3.4-10.6 9.3-10.6 14.3 0 1.4.3 2.8 1 4.1 1.8 3.3 5.6 5 10.2 5 3.3 0 7-1 10.6-2.8 6.5-3.5 10.5-9.3 10.5-14.4a8 8 0 0 0-1-4m211.2 49.5c-1.9-3.2-5.6-5-10.2-5-3.4 0-7 1-10.6 2.9-6.6 3.4-10.5 9.3-10.5 14.3 0 1.4.3 2.8 1 4.1 1.8 3.3 5.5 5 10 5 3.5 0 7.1-1 10.7-2.8 6.6-3.5 10.5-9.3 10.5-14.4a8 8 0 0 0-1-4" style="stroke-width:.992126"/><path d="M1211 728.7c-1.9-3.2-5.6-5-10.2-5-3.4 0-7 1-10.6 2.9-6.6 3.4-10.5 9.3-10.5 14.3 0 1.4.3 2.8 1 4.1 1.8 3.3 5.5 5 10 5 3.5 0 7.1-1 10.7-2.8 6.6-3.5 10.5-9.3 10.5-14.4a8 8 0 0 0-1-4" style="stroke-width:.992126"/><path d="M1211 704c-1.9-3.3-5.6-5.1-10.2-5.1-3.4 0-7 1-10.6 2.9-6.6 3.4-10.5 9.3-10.5 14.3 0 1.4.3 2.8 1 4.1 1.8 3.3 5.5 5 10 5 3.5 0 7.1-1 10.7-2.8 6.6-3.5 10.5-9.3 10.5-14.4a8 8 0 0 0-1-4m171.8 49.5c-1.8-3.2-5.5-5-10.1-5-3.4 0-7 1-10.6 2.9-6.6 3.4-10.5 9.3-10.5 14.3 0 1.4.3 2.8 1 4.1 1.7 3.3 5.5 5 10 5 3.4 0 7.1-1 10.7-2.8 6.5-3.5 10.5-9.3 10.5-14.4a8 8 0 0 0-1-4m-29.5-37.3c-1.8-3.2-5.6-5-10.1-5-3.4 0-7 1-10.6 2.9-6.6 3.4-10.6 9.3-10.6 14.3 0 1.4.3 2.8 1 4.1 1.8 3.3 5.6 5 10.2 5 3.3 0 7-1 10.6-2.8 6.5-3.5 10.5-9.3 10.5-14.4a8 8 0 0 0-1-4" style="stroke-width:.992126"/><path d="M1382.7 704c-1.8-3.3-5.5-5.1-10.1-5.1-3.4 0-7 1-10.6 2.9-6.6 3.4-10.5 9.3-10.5 14.3 0 1.4.3 2.8 1 4.1 1.7 3.3 5.5 5 10 5 3.4 0 7.1-1 10.7-2.8 6.5-3.5 10.5-9.3 10.5-14.4a8 8 0 0 0-1-4m316.7 49.5c-1.8-3.2-5.5-5-10.1-5-3.4 0-7 1-10.6 2.9-6.6 3.4-10.5 9.3-10.5 14.3 0 1.4.3 2.8 1 4.1 1.7 3.3 5.5 5 10 5 3.4 0 7.1-1 10.7-2.8 6.5-3.5 10.5-9.3 10.5-14.4a8 8 0 0 0-1-4m-29.5-37.3c-1.8-3.2-5.6-5-10.1-5-3.4 0-7 1-10.6 2.9-6.6 3.4-10.6 9.3-10.6 14.3 0 1.4.3 2.8 1 4.1 1.8 3.3 5.6 5 10.2 5 3.3 0 7-1 10.6-2.8 6.5-3.5 10.5-9.3 10.5-14.4a8 8 0 0 0-1-4" style="stroke-width:.992126"/><path d="M1699.4 704c-1.8-3.3-5.5-5.1-10.1-5.1-3.4 0-7 1-10.6 2.9-6.6 3.4-10.5 9.3-10.5 14.3 0 1.4.3 2.8 1 4.1 1.7 3.3 5.5 5 10 5 3.4 0 7.1-1 10.7-2.8 6.5-3.5 10.5-9.3 10.5-14.4a8 8 0 0 0-1-4m211.1 62c-1.7-3.3-5.5-5.1-10-5.1a23 23 0 0 0-10.7 2.9c-6.5 3.4-10.5 9.3-10.5 14.3 0 1.4.3 2.8 1 4.1 1.8 3.3 5.5 5 10.1 5 3.4 0 7-1 10.6-2.8 6.6-3.5 10.5-9.3 10.5-14.4a8 8 0 0 0-1-4m-29.5-49.7c-1.8-3.2-5.5-5-10-5a23 23 0 0 0-10.7 2.9c-6.6 3.4-10.5 9.3-10.5 14.3 0 1.4.3 2.8 1 4.1 1.8 3.3 5.5 5 10 5 3.5 0 7.1-1 10.7-2.8 6.6-3.5 10.5-9.3 10.5-14.4a8 8 0 0 0-1-4" style="stroke-width:.992126"/><path d="M1910.5 704c-1.7-3.3-5.5-5.1-10-5.1a23 23 0 0 0-10.7 2.9c-6.5 3.4-10.5 9.3-10.5 14.3 0 1.4.3 2.8 1 4.1 1.8 3.3 5.5 5 10.1 5 3.4 0 7-1 10.6-2.8 6.6-3.5 10.5-9.3 10.5-14.4a8 8 0 0 0-1-4m211.2 62c-1.8-3.3-5.6-5.1-10.1-5.1-3.4 0-7 1-10.7 2.9-6.5 3.4-10.5 9.3-10.5 14.3 0 1.4.3 2.8 1 4.1 1.8 3.3 5.6 5 10.1 5 3.4 0 7-1 10.6-2.8 6.6-3.5 10.6-9.3 10.6-14.4a8 8 0 0 0-1-4m-29.5-49.7c-1.8-3.2-5.6-5-10.2-5-3.3 0-7 1-10.6 2.9-6.5 3.4-10.5 9.3-10.5 14.3 0 1.4.3 2.8 1 4.1 1.8 3.3 5.6 5 10.1 5 3.4 0 7-1 10.6-2.8 6.6-3.5 10.6-9.3 10.6-14.4a8 8 0 0 0-1-4" style="stroke-width:.992126"/><path d="M2121.7 704c-1.8-3.3-5.6-5.1-10.1-5.1-3.4 0-7 1-10.7 2.9-6.5 3.4-10.5 9.3-10.5 14.3 0 1.4.3 2.8 1 4.1 1.8 3.3 5.6 5 10.1 5 3.4 0 7-1 10.6-2.8 6.6-3.5 10.6-9.3 10.6-14.4a8 8 0 0 0-1-4m142.3 37.1c-1.8-3.2-5.6-5-10.2-5-3.4 0-7 1-10.6 2.9-6.5 3.4-10.5 9.3-10.5 14.3 0 1.4.3 2.8 1 4.1 1.8 3.3 5.5 5 10.1 5 3.4 0 7-1 10.6-2.8 6.6-3.5 10.5-9.3 10.5-14.4a8 8 0 0 0-1-4" style="stroke-width:.992126"/><path d="M2293.5 728.7c-1.8-3.2-5.6-5-10.2-5-3.3 0-7 1-10.6 2.9-6.5 3.4-10.5 9.3-10.5 14.3 0 1.4.3 2.8 1 4.1 1.8 3.3 5.5 5 10.1 5 3.4 0 7-1 10.6-2.8 6.6-3.5 10.5-9.3 10.5-14.4a8 8 0 0 0-1-4" style="stroke-width:.992126"/><path d="M2293.5 704c-1.8-3.3-5.6-5.1-10.2-5.1-3.3 0-7 1-10.6 2.9-6.5 3.4-10.5 9.3-10.5 14.3 0 1.4.3 2.8 1 4.1 1.8 3.3 5.5 5 10.1 5 3.4 0 7-1 10.6-2.8 6.6-3.5 10.5-9.3 10.5-14.4a8 8 0 0 0-1-4m316.8 49.5c-1.8-3.2-5.6-5-10.2-5-3.3 0-7 1-10.6 2.9-6.5 3.4-10.5 9.3-10.5 14.3 0 1.4.3 2.8 1 4.1 1.8 3.3 5.5 5 10.1 5 3.4 0 7-1 10.6-2.8 6.6-3.5 10.5-9.3 10.5-14.4a8 8 0 0 0-1-4" style="stroke-width:.992126"/><path d="M2610.2 728.7c-1.8-3.2-5.6-5-10.2-5-3.3 0-7 1-10.6 2.9-6.5 3.4-10.5 9.3-10.5 14.3 0 1.4.3 2.8 1 4.1 1.8 3.3 5.5 5 10.1 5 3.4 0 7-1 10.6-2.8 6.6-3.5 10.5-9.3 10.5-14.4a8 8 0 0 0-1-4" style="stroke-width:.992126"/><path d="M2610.2 704c-1.8-3.3-5.6-5.1-10.2-5.1-3.3 0-7 1-10.6 2.9-6.5 3.4-10.5 9.3-10.5 14.3 0 1.4.3 2.8 1 4.1 1.8 3.3 5.5 5 10.1 5 3.4 0 7-1 10.6-2.8 6.6-3.5 10.5-9.3 10.5-14.4a8 8 0 0 0-1-4m211.2 49.5c-1.8-3.2-5.6-5-10.1-5-3.4 0-7 1-10.7 2.9-6.5 3.4-10.5 9.3-10.5 14.3 0 1.4.3 2.8 1 4.1 1.8 3.3 5.6 5 10.1 5 3.4 0 7-1 10.7-2.8 6.5-3.5 10.5-9.3 10.5-14.4a8 8 0 0 0-1-4" style="stroke-width:.992126"/><path d="M2821.3 728.7c-1.8-3.2-5.6-5-10.1-5-3.4 0-7 1-10.7 2.9-6.5 3.4-10.5 9.3-10.5 14.3 0 1.4.3 2.8 1 4.1 1.8 3.3 5.6 5 10.1 5 3.4 0 7-1 10.7-2.8 6.5-3.5 10.5-9.3 10.5-14.4a8 8 0 0 0-1-4" style="stroke-width:.992126"/><path d="M2821.3 704c-1.8-3.3-5.6-5.1-10.1-5.1-3.4 0-7 1-10.7 2.9-6.5 3.4-10.5 9.3-10.5 14.3 0 1.4.3 2.8 1 4.1 1.8 3.3 5.6 5 10.1 5 3.4 0 7-1 10.7-2.8 6.5-3.5 10.5-9.3 10.5-14.4a8 8 0 0 0-1-4m211.1 49.5c-1.8-3.2-5.5-5-10.1-5-3.4 0-7 1-10.6 2.9-6.6 3.4-10.5 9.3-10.5 14.3 0 1.4.3 2.8 1 4.1 1.7 3.3 5.5 5 10 5 3.4 0 7.1-1 10.7-2.8 6.5-3.5 10.5-9.3 10.5-14.4a8 8 0 0 0-1-4" style="stroke-width:.992126"/><path d="M3032.4 728.7c-1.8-3.2-5.5-5-10.1-5-3.4 0-7 1-10.6 2.9-6.6 3.4-10.5 9.3-10.5 14.3 0 1.4.3 2.8 1 4.1 1.7 3.3 5.5 5 10 5 3.4 0 7.1-1 10.7-2.8 6.5-3.5 10.5-9.3 10.5-14.4a8 8 0 0 0-1-4" style="stroke-width:.992126"/><path d="M3032.4 704c-1.8-3.3-5.5-5.1-10.1-5.1-3.4 0-7 1-10.6 2.9-6.6 3.4-10.5 9.3-10.5 14.3 0 1.4.3 2.8 1 4.1 1.7 3.3 5.5 5 10 5 3.4 0 7.1-1 10.7-2.8 6.5-3.5 10.5-9.3 10.5-14.4a8 8 0 0 0-1-4m166.6 49.5c-1.7-3.2-5.5-5-10-5a23 23 0 0 0-10.7 2.9c-6.5 3.4-10.5 9.3-10.5 14.3 0 1.4.3 2.8 1 4.1 1.8 3.3 5.5 5 10.1 5 3.4 0 7-1 10.6-2.8 6.6-3.5 10.5-9.3 10.5-14.4a8 8 0 0 0-1-4m0-37.3c-1.7-3.2-5.5-5-10-5a23 23 0 0 0-10.7 2.9c-6.5 3.4-10.5 9.3-10.5 14.3 0 1.4.3 2.8 1 4.1 1.8 3.3 5.5 5 10.1 5 3.4 0 7-1 10.6-2.8 6.6-3.5 10.5-9.3 10.5-14.4a8 8 0 0 0-1-4" style="stroke-width:.992126"/><path d="M3199 691.5c-1.7-3.2-5.5-5-10-5a24 24 0 0 0-10.7 2.8c-6.5 3.5-10.5 9.4-10.5 14.4 0 1.4.3 2.8 1 4.1 1.8 3.3 5.5 5 10.1 5 3.4 0 7-1 10.6-2.8 6.6-3.5 10.5-9.3 10.5-14.4a8 8 0 0 0-1-4m207.3 61.9c-1.8-3.2-5.6-5-10.1-5-3.4 0-7 1-10.7 2.9-6.5 3.4-10.5 9.3-10.5 14.3 0 1.4.3 2.8 1 4.1 1.8 3.3 5.6 5 10.1 5 3.4 0 7-1 10.6-2.8 6.6-3.5 10.6-9.3 10.6-14.4a8 8 0 0 0-1-4m0-37.3c-1.8-3.2-5.6-5-10.1-5-3.4 0-7 1-10.7 2.9-6.5 3.4-10.5 9.3-10.5 14.3 0 1.4.3 2.8 1 4.1 1.8 3.3 5.6 5 10.1 5 3.4 0 7-1 10.6-2.8 6.6-3.5 10.6-9.3 10.6-14.4a8 8 0 0 0-1-4" style="stroke-width:.992126"/><path d="M3406.3 691.5c-1.8-3.2-5.6-5-10.1-5-3.4 0-7 1-10.7 2.8-6.5 3.5-10.5 9.4-10.5 14.4 0 1.4.3 2.8 1 4.1 1.8 3.3 5.6 5 10.1 5 3.4 0 7-1 10.6-2.8 6.6-3.5 10.6-9.3 10.6-14.4a8 8 0 0 0-1-4m165.7 61.9c-1.7-3.2-5.5-5-10-5-3.4 0-7.1 1-10.7 2.9-6.5 3.4-10.5 9.3-10.5 14.3 0 1.4.3 2.8 1 4.1 1.8 3.3 5.6 5 10.1 5 3.4 0 7-1 10.6-2.8 6.6-3.5 10.6-9.3 10.6-14.4a8 8 0 0 0-1-4m-.1-37.3c-1.7-3.2-5.5-5-10-5-3.4 0-7.1 1-10.7 2.9-6.5 3.4-10.5 9.3-10.5 14.3 0 1.4.3 2.8 1 4.1 1.8 3.3 5.6 5 10.1 5 3.4 0 7-1 10.6-2.8 6.6-3.5 10.6-9.3 10.6-14.4a8 8 0 0 0-1-4" style="stroke-width:.992126"/><path d="M3572 691.5c-1.7-3.2-5.5-5-10-5-3.4 0-7.1 1-10.7 2.8-6.5 3.5-10.5 9.4-10.5 14.4 0 1.4.3 2.8 1 4.1 1.8 3.3 5.6 5 10.1 5 3.4 0 7-1 10.6-2.8 6.6-3.5 10.6-9.3 10.6-14.4a8 8 0 0 0-1-4m165.8 61.9c-1.8-3.2-5.6-5-10.2-5-3.3 0-7 1-10.6 2.9-6.5 3.4-10.5 9.3-10.5 14.3 0 1.4.3 2.8 1 4.1 1.8 3.3 5.5 5 10.1 5 3.4 0 7-1 10.6-2.8 6.6-3.5 10.5-9.3 10.5-14.4a8 8 0 0 0-1-4m.1-37.3c-1.8-3.2-5.6-5-10.2-5-3.3 0-7 1-10.6 2.9-6.5 3.4-10.5 9.3-10.5 14.3 0 1.4.3 2.8 1 4.1 1.8 3.3 5.5 5 10.1 5 3.4 0 7-1 10.6-2.8 6.6-3.5 10.5-9.3 10.5-14.4a8 8 0 0 0-1-4" style="stroke-width:.992126"/><path d="M3737.9 691.5c-1.8-3.2-5.6-5-10.2-5-3.3 0-7 1-10.6 2.8-6.5 3.5-10.5 9.4-10.5 14.4 0 1.4.3 2.8 1 4.1 1.8 3.3 5.5 5 10.1 5 3.4 0 7-1 10.6-2.8 6.6-3.5 10.5-9.3 10.5-14.4a8 8 0 0 0-1-4M414.7 1989.8c-1.8-3.3-5.6-5-10.1-5-3.4 0-7 1-10.6 2.8-6.6 3.5-10.5 9.3-10.5 14.4a7 7 0 0 0 1 4c1.7 3.3 5.5 5 10 5 3.4 0 7.1-.9 10.7-2.8 6.5-3.4 10.5-9.3 10.5-14.3 0-1.4-.3-2.8-1-4.1m0-37.2c-1.8-3.3-5.6-5-10.1-5-3.4 0-7 1-10.6 2.8-6.6 3.5-10.5 9.3-10.5 14.4a7 7 0 0 0 1 4c1.7 3.3 5.5 5 10 5 3.4 0 7.1-.9 10.7-2.8 6.5-3.4 10.5-9.3 10.5-14.4 0-1.3-.3-2.7-1-4" style="stroke-width:.992126"/><path d="M414.7 1927.8c-1.8-3.3-5.6-5-10.1-5-3.4 0-7 1-10.6 2.8-6.6 3.5-10.5 9.3-10.5 14.4a7 7 0 0 0 1 4c1.7 3.3 5.5 5 10 5 3.4 0 7.1-.9 10.7-2.8 6.5-3.4 10.5-9.3 10.5-14.4 0-1.3-.3-2.7-1-4m351.9 74.4c-1.8-3.3-5.5-5-10.1-5-3.4 0-7 1-10.6 2.8-6.6 3.5-10.5 9.3-10.5 14.4a8 8 0 0 0 1 4c1.7 3.3 5.5 5 10 5 3.4 0 7.1-.9 10.7-2.8 6.5-3.4 10.5-9.3 10.5-14.3 0-1.4-.3-2.8-1-4.1m-29.5-49.6c-1.8-3.3-5.6-5-10.1-5-3.4 0-7 1-10.6 2.8-6.6 3.5-10.5 9.3-10.5 14.4a7 7 0 0 0 1 4c1.7 3.3 5.5 5 10 5 3.4 0 7.1-.9 10.7-2.8 6.5-3.4 10.5-9.3 10.5-14.4 0-1.3-.3-2.7-1-4" style="stroke-width:.992126"/><path d="M766.6 1940.2c-1.8-3.3-5.5-5-10.1-5-3.4 0-7 1-10.6 2.8-6.6 3.5-10.5 9.3-10.5 14.4a8 8 0 0 0 1 4c1.7 3.3 5.5 5 10 5 3.4 0 7.1-.9 10.7-2.8 6.5-3.4 10.5-9.3 10.5-14.4 0-1.3-.3-2.7-1-4m117.4 62c-1.9-3.3-5.6-5-10.2-5-3.4 0-7 1-10.6 2.8-6.6 3.5-10.5 9.3-10.5 14.4a8 8 0 0 0 1 4c1.7 3.3 5.5 5 10 5 3.4 0 7.1-.9 10.7-2.8 6.5-3.4 10.5-9.3 10.5-14.3 0-1.4-.3-2.8-1-4.1m-29.5-49.6c-1.8-3.3-5.6-5-10.1-5-3.4 0-7 1-10.6 2.8-6.6 3.5-10.5 9.3-10.5 14.4a7 7 0 0 0 1 4c1.7 3.3 5.5 5 10 5 3.4 0 7.1-.9 10.7-2.8 6.5-3.4 10.5-9.3 10.5-14.4 0-1.3-.3-2.7-1-4" style="stroke-width:.992126"/><path d="M884 1940.2c-1.9-3.3-5.6-5-10.2-5-3.4 0-7 1-10.6 2.8-6.6 3.5-10.5 9.3-10.5 14.4a8 8 0 0 0 1 4c1.7 3.3 5.5 5 10 5 3.4 0 7.1-.9 10.7-2.8 6.5-3.4 10.5-9.3 10.5-14.4 0-1.3-.3-2.7-1-4m234.6 86.8c-1.8-3.3-5.5-5-10.1-5-3.4 0-7 1-10.6 2.8-6.6 3.5-10.5 9.3-10.5 14.4a8 8 0 0 0 1 4c1.7 3.3 5.5 5 10 5 3.5 0 7.1-.9 10.7-2.8 6.5-3.4 10.5-9.3 10.5-14.3 0-1.4-.3-2.8-1-4.1m0-49.6c-1.8-3.3-5.5-5-10.1-5-3.4 0-7 1-10.6 2.8-6.6 3.5-10.5 9.3-10.5 14.4a8 8 0 0 0 1 4c1.7 3.3 5.5 5 10 5 3.5 0 7.1-.9 10.7-2.8 6.5-3.4 10.5-9.3 10.5-14.4 0-1.3-.3-2.7-1-4m0-37.2c-1.8-3.3-5.5-5-10.1-5-3.4 0-7 1-10.6 2.8-6.6 3.5-10.5 9.3-10.5 14.4a8 8 0 0 0 1 4c1.7 3.3 5.5 5 10 5 3.5 0 7.1-.9 10.7-2.8 6.5-3.4 10.5-9.3 10.5-14.4 0-1.3-.3-2.7-1-4m280 86.8c-1.8-3.3-5.5-5-10.1-5-3.4 0-7 1-10.6 2.8-6.6 3.5-10.5 9.3-10.5 14.4a8 8 0 0 0 1 4c1.7 3.3 5.5 5 10 5 3.4 0 7.1-.9 10.7-2.8 6.5-3.4 10.5-9.3 10.5-14.3 0-1.4-.3-2.8-1-4.1" style="stroke-width:.992126"/><path d="M1398.5 2002.2c-1.8-3.3-5.5-5-10.1-5-3.4 0-7 1-10.6 2.8-6.6 3.5-10.5 9.3-10.5 14.4a8 8 0 0 0 1 4c1.7 3.3 5.5 5 10 5 3.4 0 7.1-.9 10.7-2.8 6.5-3.4 10.5-9.3 10.5-14.3 0-1.4-.3-2.8-1-4.1m0-37.2c-1.8-3.3-5.5-5-10.1-5-3.4 0-7 1-10.6 2.8-6.6 3.5-10.5 9.3-10.5 14.4a8 8 0 0 0 1 4c1.7 3.3 5.5 5 10 5 3.4 0 7.1-.9 10.7-2.8 6.5-3.4 10.5-9.3 10.5-14.4 0-1.3-.3-2.7-1-4m186.7 62c-1.8-3.3-5.5-5-10.1-5-3.4 0-7 1-10.6 2.8-6.6 3.5-10.5 9.3-10.5 14.4a8 8 0 0 0 1 4c1.7 3.3 5.5 5 10 5 3.5 0 7.1-.9 10.7-2.8 6.5-3.4 10.5-9.3 10.5-14.3 0-1.4-.3-2.8-1-4.1" style="stroke-width:.992126"/><path d="M1585.2 2002.2c-1.8-3.3-5.5-5-10.1-5-3.4 0-7 1-10.6 2.8-6.6 3.5-10.5 9.3-10.5 14.4a8 8 0 0 0 1 4c1.7 3.3 5.5 5 10 5 3.5 0 7.1-.9 10.7-2.8 6.5-3.4 10.5-9.3 10.5-14.3 0-1.4-.3-2.8-1-4.1m0-37.2c-1.8-3.3-5.5-5-10.1-5-3.4 0-7 1-10.6 2.8-6.6 3.5-10.5 9.3-10.5 14.4a8 8 0 0 0 1 4c1.7 3.3 5.5 5 10 5 3.5 0 7.1-.9 10.7-2.8 6.5-3.4 10.5-9.3 10.5-14.4 0-1.3-.3-2.7-1-4m233.4-24.8c-1.8-3.3-5.5-5-10.1-5-3.4 0-7 1-10.6 2.8-6.6 3.5-10.5 9.3-10.5 14.4a8 8 0 0 0 1 4c1.7 3.3 5.5 5 10 5 3.4 0 7.1-.9 10.7-2.8 6.5-3.4 10.5-9.3 10.5-14.4 0-1.3-.3-2.7-1-4m116.7-12.4c-1.8-3.3-5.5-5-10.1-5-3.4 0-7 1-10.6 2.8-6.6 3.5-10.5 9.3-10.5 14.4a8 8 0 0 0 1 4c1.7 3.3 5.5 5 10 5 3.4 0 7.1-.9 10.7-2.8 6.5-3.4 10.5-9.3 10.5-14.4 0-1.3-.3-2.7-1-4m116.7-12.4c-1.8-3.3-5.6-5-10.1-5-3.4 0-7 1-10.6 2.8-6.6 3.5-10.6 9.3-10.6 14.4a8 8 0 0 0 1 4c1.8 3.3 5.6 5 10.2 5 3.3 0 7-.9 10.6-2.8 6.5-3.4 10.5-9.3 10.5-14.4 0-1.3-.3-2.7-1-4m116.7-37.2c-1.8-3.3-5.6-5.1-10.1-5.1-3.4 0-7 1-10.6 2.9-6.6 3.5-10.6 9.3-10.6 14.4 0 1.4.3 2.7 1 4 1.8 3.3 5.6 5 10.2 5 3.3 0 7-.9 10.6-2.8 6.5-3.5 10.5-9.3 10.5-14.4 0-1.4-.3-2.7-1-4m162.1 0c-1.8-3.3-5.6-5.1-10.1-5.1-3.4 0-7 1-10.7 2.9-6.5 3.5-10.5 9.3-10.5 14.4 0 1.4.3 2.7 1 4 1.8 3.3 5.6 5 10.1 5 3.4 0 7-.9 10.7-2.8 6.5-3.5 10.5-9.3 10.5-14.4 0-1.4-.3-2.7-1-4m189.8 12.4c-1.8-3.3-5.6-5.1-10.1-5.1-3.4 0-7 1-10.7 2.9-6.5 3.5-10.5 9.3-10.5 14.4 0 1.4.3 2.7 1 4 1.8 3.3 5.6 5 10.1 5 3.4 0 7-.9 10.7-2.8 6.5-3.5 10.5-9.3 10.5-14.4 0-1.4-.3-2.7-1-4m189.8 37.2c-1.8-3.3-5.6-5-10.1-5-3.4 0-7 1-10.7 2.8-6.5 3.5-10.5 9.3-10.5 14.4a8 8 0 0 0 1 4c1.8 3.3 5.6 5 10.1 5 3.4 0 7-.9 10.7-2.8 6.5-3.4 10.5-9.3 10.5-14.4 0-1.3-.3-2.7-1-4m118.6-12.4c-1.8-3.3-5.6-5-10.1-5-3.4 0-7 1-10.6 2.8-6.6 3.5-10.6 9.3-10.6 14.4a8 8 0 0 0 1 4c1.8 3.3 5.6 5 10.2 5 3.3 0 7-.9 10.6-2.8 6.5-3.4 10.5-9.3 10.5-14.4 0-1.3-.3-2.7-1-4m118.6-12.4c-1.8-3.3-5.5-5.1-10-5.1a23 23 0 0 0-10.7 2.9c-6.6 3.5-10.5 9.3-10.5 14.4 0 1.4.3 2.7 1 4 1.8 3.3 5.5 5 10 5 3.5 0 7.1-.9 10.7-2.8 6.6-3.5 10.5-9.3 10.5-14.4 0-1.4-.3-2.7-1-4m118.7 12.4c-1.8-3.3-5.6-5-10.2-5-3.3 0-7 1-10.6 2.8-6.5 3.5-10.5 9.3-10.5 14.4a8 8 0 0 0 1 4c1.8 3.3 5.5 5 10.1 5 3.4 0 7-.9 10.6-2.8 6.6-3.4 10.5-9.3 10.5-14.4 0-1.3-.3-2.7-1-4m164.1 0c-1.8-3.3-5.6-5-10.2-5-3.3 0-7 1-10.6 2.8-6.5 3.5-10.5 9.3-10.5 14.4a8 8 0 0 0 1 4c1.8 3.3 5.6 5 10.1 5 3.4 0 7-.9 10.6-2.8 6.6-3.4 10.6-9.3 10.6-14.4 0-1.3-.3-2.7-1-4M456.9 576.8c-13.7 0-18.6 7-18.6 13.4 0 6.5 4.9 13.4 18.6 13.4 13.7 0 18.4-7 18.4-13.4s-4.7-13.4-18.4-13.4m-8.2 9-.1-1.1c0-.8.2-1.6.5-2.3.7-1 2-1.7 3.4-2 1.3-.3 2-.5 4.6-.5 4 0 5.3 3.7 6.4 7.4l.3 1a23 23 0 0 1 1.2 6.5 7 7 0 0 1-.6 3c-.6 1.2-1.6 1.8-3.2 2.2l-2.4.3-1.3.1c-3.2 0-5.2-1.1-6.6-5.4-1.2-3.7-1.4-4.8-2.2-9.1m8.2-95.9c-13.7 0-18.6 7-18.6 13.4 0 6.5 4.9 13.4 18.6 13.4 13.7 0 18.4-7 18.4-13.4S470.6 490 457 490m-8.2 9-.1-1.1c0-.8.2-1.6.5-2.3.7-1 2-1.7 3.4-2 1.3-.3 2-.5 4.6-.5 4 0 5.3 3.7 6.4 7.4l.3 1a23 23 0 0 1 1.2 6.5 7 7 0 0 1-.6 3c-.6 1.1-1.6 1.8-3.2 2.2l-2.4.3-1.3.1c-3.2 0-5.2-1.2-6.6-5.4-1.2-3.7-1.4-4.8-2.2-9.2m918.8 77.8c-13.7 0-18.5 7-18.5 13.4 0 6.5 4.8 13.4 18.5 13.4s18.5-7 18.5-13.4-4.8-13.4-18.5-13.4m-8.2 9-.1-1.1c0-.8.2-1.6.6-2.3.7-1 1.9-1.7 3.4-2 1.3-.3 2-.5 4.5-.5h.1c4 0 5.3 3.7 6.4 7.4l.3 1a23 23 0 0 1 1.2 6.5 7 7 0 0 1-.6 3c-.6 1.2-1.6 1.8-3.3 2.2l-2.4.3-1.3.1c-3.1 0-5.1-1.1-6.5-5.4-1.2-3.7-1.4-4.8-2.3-9.1m8.2-95.9c-13.7 0-18.5 7-18.5 13.4 0 6.5 4.8 13.4 18.5 13.4s18.5-7 18.5-13.4-4.8-13.4-18.5-13.4m-8.2 9-.1-1.1c0-.8.2-1.6.6-2.3.7-1 1.9-1.7 3.4-2 1.3-.3 2-.5 4.5-.5h.1c4 0 5.3 3.7 6.4 7.4l.3 1a23 23 0 0 1 1.2 6.5 7 7 0 0 1-.6 3c-.6 1.1-1.6 1.8-3.3 2.2l-2.4.3-1.3.1c-3.1 0-5.1-1.2-6.5-5.4-1.2-3.7-1.4-4.8-2.3-9.2m919 77.8c-13.7 0-18.6 7-18.6 13.4 0 6.5 4.9 13.4 18.6 13.4 13.7 0 18.4-7 18.4-13.4s-4.7-13.4-18.4-13.4m-8.3 9v-1.1c0-.8.1-1.6.5-2.3.7-1 2-1.7 3.4-2 1.3-.3 2-.5 4.6-.5 4 0 5.3 3.7 6.4 7.4l.3 1a23 23 0 0 1 1.2 6.5 7 7 0 0 1-.6 3c-.6 1.2-1.6 1.8-3.3 2.2l-2.3.3-1.3.1c-3.2 0-5.2-1.1-6.6-5.4-1.2-3.7-1.4-4.8-2.3-9.1m8.3-95.9c-13.7 0-18.6 7-18.6 13.4 0 6.5 4.9 13.4 18.6 13.4 13.7 0 18.4-7 18.4-13.4s-4.7-13.4-18.4-13.4m-8.3 9v-1c0-.8.1-1.6.5-2.3.7-1 2-1.7 3.4-2 1.3-.3 2-.5 4.6-.5 4 0 5.3 3.7 6.4 7.4l.3 1a23 23 0 0 1 1.2 6.5 7 7 0 0 1-.6 3c-.6 1.1-1.6 1.8-3.3 2.2l-2.3.3-1.3.1c-3.2 0-5.2-1.2-6.6-5.4-1.2-3.7-1.4-4.8-2.3-9.2m928.9 70.8c-1.7-3.3-5.5-5-10-5a24 24 0 0 0-10.7 2.8c-6.5 3.5-10.5 9.3-10.5 14.4a8 8 0 0 0 1 4c1.8 3.3 5.5 5 10.1 5 3.4 0 7-.9 10.6-2.8 6.6-3.4 10.5-9.3 10.5-14.3 0-1.4-.3-2.8-1-4.1m0-86.9c-1.7-3.2-5.5-5-10-5a23 23 0 0 0-10.7 2.9c-6.5 3.5-10.5 9.3-10.5 14.4a8 8 0 0 0 1 4c1.8 3.3 5.5 5 10.1 5 3.4 0 7-.9 10.6-2.8 6.6-3.4 10.5-9.3 10.5-14.4 0-1.3-.3-2.7-1-4m207.3-.1c-1.8-3.2-5.6-5-10.1-5-3.4 0-7 1-10.7 2.9-6.5 3.5-10.5 9.3-10.5 14.4a8 8 0 0 0 1 4c1.8 3.3 5.6 5 10.1 5 3.4 0 7-.9 10.6-2.8 6.6-3.4 10.6-9.3 10.6-14.4 0-1.3-.3-2.7-1-4m-29.5-24.8c-1.8-3.3-5.6-5-10.2-5-3.3 0-7 1-10.6 2.8-6.5 3.5-10.5 9.3-10.5 14.4a8 8 0 0 0 1 4c1.8 3.3 5.6 5 10.1 5 3.4 0 7-.9 10.6-2.8 6.6-3.4 10.6-9.3 10.6-14.4 0-1.3-.3-2.7-1-4" style="stroke-width:.992126"/><path d="M3406.3 445.9c-1.8-3.3-5.6-5-10.1-5-3.4 0-7 .9-10.7 2.8-6.5 3.5-10.5 9.3-10.5 14.4a8 8 0 0 0 1 4c1.8 3.3 5.6 5 10.1 5 3.4 0 7-.9 10.6-2.8 6.6-3.4 10.6-9.3 10.6-14.4 0-1.4-.3-2.7-1-4M3572 483c-1.7-3.2-5.5-5-10-5-3.4 0-7.1 1-10.7 2.9-6.5 3.5-10.5 9.3-10.5 14.4a8 8 0 0 0 1 4c1.8 3.3 5.6 5 10.1 5 3.4 0 7-.9 10.6-2.8 6.6-3.4 10.6-9.3 10.6-14.4 0-1.3-.3-2.7-1-4" style="stroke-width:.992126"/><path d="M3572 458.3c-1.7-3.3-5.5-5-10-5-3.4 0-7.1 1-10.7 2.8-6.5 3.5-10.5 9.3-10.5 14.4a8 8 0 0 0 1 4c1.8 3.3 5.6 5 10.1 5 3.4 0 7-.9 10.6-2.8 6.6-3.4 10.6-9.3 10.6-14.4 0-1.3-.3-2.7-1-4" style="stroke-width:.992126"/><path d="M3572 433.5c-1.7-3.3-5.5-5-10-5-3.4 0-7.1.9-10.7 2.8-6.5 3.5-10.5 9.3-10.5 14.4 0 1.4.3 2.7 1 4 1.8 3.3 5.6 5 10.1 5 3.4 0 7-.9 10.6-2.8 6.6-3.5 10.6-9.3 10.6-14.4 0-1.4-.3-2.7-1-4m165.8 49.5c-1.8-3.2-5.6-5-10.2-5-3.3 0-7 1-10.6 2.9-6.5 3.5-10.5 9.3-10.5 14.4a8 8 0 0 0 1 4c1.8 3.3 5.5 5 10.1 5 3.4 0 7-.9 10.6-2.8 6.6-3.4 10.5-9.3 10.5-14.4 0-1.3-.3-2.7-1-4m-29.5-24.8c-1.7-3.3-5.5-5-10-5a24 24 0 0 0-10.7 2.8c-6.5 3.5-10.5 9.3-10.5 14.4a8 8 0 0 0 1 4c1.8 3.3 5.5 5 10.1 5 3.4 0 7-.9 10.6-2.8 6.6-3.4 10.5-9.3 10.5-14.4 0-1.3-.3-2.7-1-4" style="stroke-width:.992126"/><path d="M3737.9 445.9c-1.8-3.3-5.6-5-10.2-5-3.3 0-7 .9-10.6 2.8-6.5 3.5-10.5 9.3-10.5 14.4a8 8 0 0 0 1 4c1.8 3.3 5.5 5 10.1 5 3.4 0 7-.9 10.6-2.8 6.6-3.4 10.5-9.3 10.5-14.4 0-1.4-.3-2.7-1-4" style="stroke-width:.992126"/><path d="M3737.9 421c-1.8-3.2-5.6-5-10.2-5-3.3 0-7 1-10.6 2.9-6.5 3.5-10.5 9.3-10.5 14.4 0 1.4.3 2.7 1 4 1.8 3.3 5.5 5 10.1 5 3.4 0 7-.9 10.6-2.8 6.6-3.5 10.5-9.3 10.5-14.4 0-1.4-.3-2.7-1-4M414.7 1746.6c-1.8-3.3-5.6-5.1-10.1-5.1-3.4 0-7 1-10.6 2.9-6.6 3.5-10.5 9.3-10.5 14.4 0 1.4.2 2.7 1 4 1.7 3.3 5.5 5 10 5 3.4 0 7.1-.9 10.7-2.8 6.5-3.5 10.5-9.3 10.5-14.4 0-1.4-.3-2.7-1-4" style="stroke-width:.992126"/><path d="M414.7 1721.8c-1.8-3.3-5.6-5.1-10.1-5.1-3.4 0-7 1-10.6 2.9-6.6 3.4-10.5 9.3-10.5 14.4 0 1.3.2 2.7 1 4 1.7 3.3 5.5 5 10 5 3.4 0 7.1-1 10.7-2.8 6.5-3.5 10.5-9.3 10.5-14.4a8 8 0 0 0-1-4m0-62.1c-1.8-3.2-5.6-5-10.1-5-3.4 0-7 1-10.6 2.9-6.6 3.4-10.5 9.3-10.5 14.3 0 1.4.2 2.8 1 4.1 1.7 3.3 5.5 5 10 5 3.4 0 7.1-1 10.7-2.8 6.5-3.5 10.5-9.3 10.5-14.4a8 8 0 0 0-1-4m351.9 49.6c-1.8-3.3-5.5-5.1-10.1-5.1-3.4 0-7 1-10.6 2.9-6.6 3.4-10.5 9.3-10.5 14.4 0 1.3.3 2.7 1 4 1.7 3.3 5.5 5 10 5 3.4 0 7.1-1 10.7-2.8 6.5-3.5 10.5-9.3 10.5-14.4a8 8 0 0 0-1-4" style="stroke-width:.992126"/><path d="M766.6 1684.6c-1.8-3.3-5.5-5.1-10.1-5.1-3.4 0-7 1-10.6 2.9-6.6 3.4-10.5 9.3-10.5 14.4 0 1.3.3 2.7 1 4 1.7 3.3 5.5 5 10 5 3.4 0 7.1-1 10.7-2.8 6.5-3.5 10.5-9.3 10.5-14.4a8 8 0 0 0-1-4m117.4 24.8c-1.9-3.3-5.6-5.1-10.2-5.1-3.4 0-7 1-10.6 2.9-6.6 3.4-10.5 9.3-10.5 14.4 0 1.3.3 2.7 1 4 1.7 3.3 5.5 5 10 5 3.4 0 7.1-1 10.7-2.8 6.5-3.5 10.5-9.3 10.5-14.4a8 8 0 0 0-1-4" style="stroke-width:.992126"/><path d="M884 1684.6c-1.9-3.3-5.6-5.1-10.2-5.1-3.4 0-7 1-10.6 2.9-6.6 3.4-10.5 9.3-10.5 14.4 0 1.3.3 2.7 1 4 1.7 3.3 5.5 5 10 5 3.4 0 7.1-1 10.7-2.8 6.5-3.5 10.5-9.3 10.5-14.4a8 8 0 0 0-1-4m234.6 49.6c-1.8-3.3-5.5-5.1-10.1-5.1-3.4 0-7 1-10.6 2.9-6.6 3.4-10.5 9.3-10.5 14.4 0 1.3.3 2.7 1 4 1.7 3.3 5.5 5 10 5 3.5 0 7.1-1 10.7-2.8 6.5-3.5 10.5-9.3 10.5-14.4a8 8 0 0 0-1-4" style="stroke-width:.992126"/><path d="M1118.5 1709.4c-1.8-3.3-5.5-5.1-10.1-5.1-3.4 0-7 1-10.6 2.9-6.6 3.4-10.5 9.3-10.5 14.4 0 1.3.3 2.7 1 4 1.7 3.3 5.5 5 10 5 3.5 0 7.1-1 10.7-2.8 6.5-3.5 10.5-9.3 10.5-14.4a8 8 0 0 0-1-4m280 49.6c-1.8-3.3-5.5-5.1-10.1-5.1-3.4 0-7 1-10.6 2.9-6.6 3.5-10.5 9.3-10.5 14.4 0 1.4.3 2.7 1 4 1.7 3.3 5.5 5 10 5 3.4 0 7.1-.9 10.7-2.8 6.5-3.5 10.5-9.3 10.5-14.4 0-1.4-.3-2.7-1-4" style="stroke-width:.992126"/><path d="M1398.5 1734.2c-1.8-3.3-5.5-5.1-10.1-5.1-3.4 0-7 1-10.6 2.9-6.6 3.4-10.5 9.3-10.5 14.4 0 1.3.3 2.7 1 4 1.7 3.3 5.5 5 10 5 3.4 0 7.1-1 10.7-2.8 6.5-3.5 10.5-9.3 10.5-14.4a8 8 0 0 0-1-4m0-37.2c-1.8-3.3-5.5-5.1-10.1-5.1-3.4 0-7 1-10.6 2.9-6.6 3.4-10.5 9.3-10.5 14.4 0 1.3.3 2.7 1 4 1.7 3.3 5.5 5 10 5 3.4 0 7.1-1 10.7-2.8 6.5-3.5 10.5-9.3 10.5-14.4a8 8 0 0 0-1-4m186.7 62c-1.8-3.3-5.5-5.1-10.1-5.1-3.4 0-7 1-10.6 2.9-6.6 3.5-10.5 9.3-10.5 14.4 0 1.4.3 2.7 1 4 1.7 3.3 5.5 5 10 5 3.5 0 7.1-.9 10.7-2.8 6.5-3.5 10.5-9.3 10.5-14.4 0-1.4-.3-2.7-1-4" style="stroke-width:.992126"/><path d="M1585.2 1734.2c-1.8-3.3-5.5-5.1-10.1-5.1-3.4 0-7 1-10.6 2.9-6.6 3.4-10.5 9.3-10.5 14.4 0 1.3.3 2.7 1 4 1.7 3.3 5.5 5 10 5 3.5 0 7.1-1 10.7-2.8 6.5-3.5 10.5-9.3 10.5-14.4a8 8 0 0 0-1-4m0-37.2c-1.8-3.3-5.5-5.1-10.1-5.1-3.4 0-7 1-10.6 2.9-6.6 3.4-10.5 9.3-10.5 14.4 0 1.3.3 2.7 1 4 1.7 3.3 5.5 5 10 5 3.5 0 7.1-1 10.7-2.8 6.5-3.5 10.5-9.3 10.5-14.4a8 8 0 0 0-1-4M472 247.8c-1.8-3.3-5.6-5-10.1-5-3.4 0-7 1-10.7 2.8-6.5 3.5-10.5 9.3-10.5 14.4a8 8 0 0 0 1 4c1.8 3.3 5.6 5 10.1 5 3.4 0 7-.9 10.6-2.8C469 262.8 473 257 473 252c0-1.4-.3-2.8-1-4.1m-4.3 6.7c-1.7 1.7-5 3.8-8.6 5.8-3.6 2-7.2 3.5-9.6 4l-1.4.2c-1.6 0-2.8-.6-3.5-2-.3-.4-.5-1-.5-1.6 0-1.1.7-2.4 1.8-3.5 1.7-1.7 5-3.8 8.5-5.7 3.6-2 7.2-3.5 9.5-4l1.5-.2c1.6 0 2.9.6 3.6 1.9.3.5.4 1 .4 1.7 0 1-.6 2.2-1.7 3.4m426.5-44c-1.8-3.3-5.5-5-10-5a24 24 0 0 0-10.7 2.8c-6.6 3.5-10.5 9.3-10.5 14.4a8 8 0 0 0 1 4c1.8 3.3 5.5 5 10 5 3.5 0 7.1-.9 10.7-2.8 6.6-3.4 10.5-9.3 10.5-14.3 0-1.4-.3-2.8-1-4.1m-4.2 6.7c-1.7 1.7-5 3.8-8.7 5.8-3.5 2-7.1 3.5-9.5 4l-1.5.2c-1.6 0-2.8-.6-3.5-2-.2-.4-.4-1-.4-1.6 0-1.1.6-2.4 1.7-3.5 1.7-1.7 5-3.8 8.6-5.7 3.5-2 7.1-3.5 9.5-4l1.5-.2c1.6 0 2.9.6 3.6 1.9.3.5.4 1 .4 1.7 0 1-.6 2.2-1.7 3.4m492.7-6.7c-1.8-3.3-5.5-5-10.1-5-3.4 0-7 1-10.6 2.8-6.6 3.5-10.5 9.3-10.5 14.4a8 8 0 0 0 1 4c1.7 3.3 5.5 5 10 5 3.4 0 7.1-.9 10.7-2.8 6.5-3.4 10.5-9.3 10.5-14.3 0-1.4-.3-2.8-1-4.1m211.1 12.4c-1.7-3.3-5.5-5-10-5a24 24 0 0 0-10.7 2.8c-6.5 3.5-10.5 9.3-10.5 14.4a8 8 0 0 0 1 4c1.8 3.3 5.5 5 10.1 5 3.4 0 7-.9 10.6-2.8 6.6-3.4 10.5-9.3 10.5-14.3 0-1.4-.3-2.8-1-4.1m105.6-12.4c-1.8-3.3-5.5-5-10.1-5-3.4 0-7 1-10.6 2.8-6.6 3.5-10.5 9.3-10.5 14.4a8 8 0 0 0 1 4c1.7 3.3 5.5 5 10 5 3.4 0 7.1-.9 10.7-2.8 6.5-3.4 10.5-9.3 10.5-14.3 0-1.4-.3-2.8-1-4.1m105.6-12.4c-1.8-3.3-5.6-5-10.1-5-3.4 0-7 1-10.7 2.8-6.5 3.5-10.5 9.3-10.5 14.4a8 8 0 0 0 1 4c1.8 3.3 5.6 5 10.1 5 3.4 0 7-.9 10.6-2.8 6.6-3.4 10.6-9.3 10.6-14.3 0-1.4-.3-2.8-1-4.1m211.1 37.2c-1.8-3.3-5.6-5-10.1-5-3.4 0-7 1-10.6 2.8-6.6 3.5-10.6 9.3-10.6 14.4a8 8 0 0 0 1 4c1.8 3.3 5.6 5 10.2 5 3.3 0 7-.9 10.6-2.8 6.5-3.4 10.5-9.3 10.5-14.3 0-1.4-.3-2.8-1-4.1m105.6-12.4c-1.8-3.3-5.6-5-10.1-5-3.4 0-7 1-10.7 2.8-6.5 3.5-10.5 9.3-10.5 14.4a8 8 0 0 0 1 4c1.8 3.3 5.6 5 10.1 5 3.4 0 7-.9 10.6-2.8 6.6-3.4 10.6-9.3 10.6-14.3 0-1.4-.3-2.8-1-4.1m171.8 24.8c-1.8-3.3-5.6-5-10.2-5-3.3 0-7 1-10.6 2.8-6.5 3.5-10.5 9.3-10.5 14.4a8 8 0 0 0 1 4c1.8 3.3 5.5 5 10.1 5 3.4 0 7-.9 10.6-2.8 6.6-3.4 10.5-9.3 10.5-14.3 0-1.4-.3-2.8-1-4.1m-4.2 6.7c-1.7 1.7-5 3.8-8.6 5.8-3.6 2-7.2 3.5-9.6 4l-1.5.2c-1.5 0-2.7-.6-3.4-2-.3-.4-.5-1-.5-1.6 0-1.1.7-2.4 1.8-3.5 1.6-1.7 5-3.8 8.5-5.7 3.6-2 7.1-3.5 9.5-4l1.5-.2c1.6 0 2.9.6 3.6 1.9.3.5.4 1 .4 1.7 0 1-.6 2.2-1.7 3.4m426.5-68.7c-1.8-3.3-5.5-5-10.1-5-3.4 0-7 1-10.6 2.8-6.6 3.5-10.5 9.3-10.5 14.4a8 8 0 0 0 1 4c1.7 3.3 5.5 5 10 5 3.4 0 7.1-.9 10.7-2.8 6.5-3.4 10.5-9.3 10.5-14.3 0-1.4-.3-2.8-1-4.1m-4.3 6.7c-1.6 1.7-5 3.8-8.6 5.8-3.6 2-7.1 3.5-9.5 4l-1.5.2c-1.6 0-2.8-.6-3.5-2-.3-.4-.5-1-.5-1.6 0-1.1.7-2.4 1.8-3.5 1.7-1.7 5-3.8 8.6-5.7 3.5-2 7-3.5 9.5-4l1.5-.2c1.6 0 2.8.6 3.5 1.9.3.5.4 1 .4 1.7 0 1-.6 2.2-1.7 3.4m487.6-6.7c-1.7-3.3-5.5-5-10-5a24 24 0 0 0-10.7 2.8c-6.5 3.5-10.5 9.3-10.5 14.4a8 8 0 0 0 1 4c1.8 3.3 5.5 5 10.1 5 3.4 0 7-.9 10.6-2.8 6.6-3.4 10.5-9.3 10.5-14.3 0-1.4-.3-2.8-1-4.1m207.3 99.2c-1.8-3.3-5.6-5-10.1-5-3.4 0-7 1-10.7 2.8-6.5 3.5-10.5 9.3-10.5 14.4a8 8 0 0 0 1 4c1.8 3.3 5.6 5 10.1 5 3.4 0 7-.9 10.6-2.8 6.6-3.4 10.6-9.3 10.6-14.3 0-1.4-.3-2.8-1-4.1m0-86.8c-1.8-3.3-5.6-5-10.1-5-3.4 0-7 1-10.7 2.8-6.5 3.5-10.5 9.3-10.5 14.4a8 8 0 0 0 1 4c1.8 3.3 5.6 5 10.1 5 3.4 0 7-.9 10.6-2.8 6.6-3.4 10.6-9.3 10.6-14.3 0-1.4-.3-2.8-1-4.1m165.7 74.4c-1.7-3.3-5.5-5-10-5-3.4 0-7.1 1-10.7 2.8-6.5 3.5-10.5 9.3-10.5 14.4a8 8 0 0 0 1 4c1.8 3.3 5.6 5 10.1 5 3.4 0 7-.9 10.6-2.8 6.6-3.4 10.6-9.3 10.6-14.3 0-1.4-.3-2.8-1-4.1m-.1-86.8c-1.7-3.3-5.5-5-10-5-3.4 0-7.1 1-10.7 2.8-6.5 3.5-10.5 9.3-10.5 14.4a8 8 0 0 0 1 4c1.8 3.3 5.6 5 10.1 5 3.4 0 7-.9 10.6-2.8 6.6-3.4 10.6-9.3 10.6-14.3 0-1.4-.3-2.8-1-4.1m165.8 74.4c-1.8-3.3-5.6-5-10.2-5-3.3 0-7 1-10.6 2.8-6.5 3.5-10.5 9.3-10.5 14.4a8 8 0 0 0 1 4c1.8 3.3 5.5 5 10.1 5 3.4 0 7-.9 10.6-2.8 6.6-3.4 10.5-9.3 10.5-14.3 0-1.4-.3-2.8-1-4.1m.1-86.8c-1.8-3.3-5.6-5-10.2-5-3.3 0-7 1-10.6 2.8-6.5 3.5-10.5 9.3-10.5 14.4a8 8 0 0 0 1 4c1.8 3.3 5.5 5 10.1 5 3.4 0 7-.9 10.6-2.8 6.6-3.4 10.5-9.3 10.5-14.4 0-1.3-.3-2.7-1-4M414.7 1498.9c-1.8-3.3-5.6-5-10.1-5-3.4 0-7 1-10.6 2.8-6.6 3.5-10.5 9.3-10.5 14.4a7 7 0 0 0 1 4c1.7 3.3 5.5 5 10 5 3.4 0 7.1-.9 10.7-2.8 6.5-3.4 10.5-9.3 10.5-14.4 0-1.3-.3-2.7-1-4m0-86.9c-1.8-3.2-5.6-5-10.1-5-3.4 0-7 1-10.6 2.9-6.6 3.5-10.5 9.3-10.5 14.4 0 1.4.2 2.7 1 4 1.7 3.3 5.5 5 10 5 3.4 0 7.1-.9 10.7-2.8 6.5-3.5 10.5-9.3 10.5-14.4 0-1.4-.3-2.7-1-4m117.3 74.4c-1.8-3.3-5.6-5-10.1-5-3.4 0-7 1-10.6 2.8-6.6 3.5-10.5 9.3-10.5 14.4a7 7 0 0 0 1 4c1.7 3.3 5.5 5 10 5 3.4 0 7.1-.9 10.7-2.8 6.5-3.4 10.5-9.3 10.5-14.4 0-1.3-.3-2.7-1-4m0-86.8c-1.8-3.3-5.6-5.1-10.1-5.1-3.4 0-7 1-10.6 2.9-6.6 3.5-10.5 9.3-10.5 14.4 0 1.4.2 2.7 1 4 1.7 3.3 5.5 5 10 5 3.4 0 7.1-.9 10.7-2.8 6.5-3.5 10.5-9.3 10.5-14.4 0-1.4-.3-2.7-1-4m117.3 74.3c-1.8-3.2-5.5-5-10.1-5-3.4 0-7 1-10.6 2.9-6.6 3.5-10.5 9.3-10.5 14.4a8 8 0 0 0 1 4c1.7 3.3 5.5 5 10 5 3.4 0 7.1-.9 10.7-2.8 6.5-3.4 10.5-9.3 10.5-14.4 0-1.3-.3-2.7-1-4m0-86.8c-1.8-3.3-5.5-5.1-10.1-5.1-3.4 0-7 1-10.6 2.9-6.6 3.4-10.5 9.3-10.5 14.4 0 1.3.3 2.7 1 4 1.7 3.3 5.5 5 10 5 3.4 0 7.1-1 10.7-2.8 6.5-3.5 10.5-9.3 10.5-14.4a8 8 0 0 0-1-4m117.3 74.4c-1.8-3.3-5.5-5.1-10.1-5.1-3.4 0-7 1-10.6 2.9-6.6 3.5-10.5 9.3-10.5 14.4 0 1.4.3 2.7 1 4 1.7 3.3 5.5 5 10 5 3.4 0 7.1-.9 10.7-2.8 6.5-3.5 10.5-9.3 10.5-14.4 0-1.4-.3-2.7-1-4m0-86.8c-1.8-3.3-5.5-5.1-10.1-5.1-3.4 0-7 1-10.6 2.9-6.6 3.4-10.5 9.3-10.5 14.4 0 1.3.3 2.7 1 4 1.7 3.3 5.5 5 10 5 3.4 0 7.1-1 10.7-2.8 6.5-3.5 10.5-9.3 10.5-14.4a8 8 0 0 0-1-4m117.4 86.8c-1.9-3.3-5.6-5.1-10.2-5.1-3.4 0-7 1-10.6 2.9-6.6 3.5-10.5 9.3-10.5 14.4 0 1.4.3 2.7 1 4 1.7 3.3 5.5 5 10 5 3.4 0 7.1-.9 10.7-2.8 6.5-3.5 10.5-9.3 10.5-14.4 0-1.4-.3-2.7-1-4m.1-86.8c-1.9-3.3-5.6-5.1-10.2-5.1-3.4 0-7 1-10.6 2.9-6.6 3.4-10.5 9.3-10.5 14.4 0 1.3.3 2.7 1 4 1.7 3.3 5.5 5 10 5 3.4 0 7.1-1 10.7-2.8 6.5-3.5 10.5-9.3 10.5-14.4a8 8 0 0 0-1-4m117.3 24.8c-1.8-3.3-5.5-5.1-10.1-5.1-3.4 0-7 1-10.6 2.9-6.6 3.5-10.5 9.3-10.5 14.4 0 1.4.3 2.7 1 4 1.7 3.3 5.5 5 10 5 3.4 0 7.1-.9 10.7-2.8 6.5-3.5 10.5-9.3 10.5-14.4 0-1.4-.3-2.7-1-4m117.3 37.2c-1.8-3.3-5.5-5.1-10.1-5.1-3.4 0-7 1-10.6 2.9-6.6 3.5-10.5 9.3-10.5 14.4 0 1.4.3 2.7 1 4 1.7 3.3 5.5 5 10 5 3.5 0 7.1-.9 10.7-2.8 6.5-3.5 10.5-9.3 10.5-14.4 0-1.4-.3-2.7-1-4m117.3 24.8c-1.8-3.3-5.5-5.1-10.1-5.1-3.4 0-7 1-10.6 2.9-6.6 3.5-10.5 9.3-10.5 14.4 0 1.4.3 2.7 1 4 1.7 3.3 5.5 5 10 5 3.5 0 7.1-.9 10.7-2.8 6.5-3.5 10.5-9.3 10.5-14.4 0-1.4-.3-2.7-1-4m162.7-37.2c-1.8-3.3-5.5-5.1-10.1-5.1-3.4 0-7 1-10.6 2.9-6.6 3.5-10.5 9.3-10.5 14.4 0 1.4.3 2.7 1 4 1.7 3.3 5.5 5 10 5 3.4 0 7.1-.9 10.7-2.8 6.5-3.5 10.5-9.3 10.5-14.4 0-1.4-.3-2.7-1-4m186.7 0c-1.8-3.3-5.5-5.1-10.1-5.1-3.4 0-7 1-10.6 2.9-6.6 3.5-10.5 9.3-10.5 14.4 0 1.4.3 2.7 1 4 1.7 3.3 5.5 5 10 5 3.5 0 7.1-.9 10.7-2.8 6.5-3.5 10.5-9.3 10.5-14.4 0-1.4-.3-2.7-1-4m233.4 62c-1.8-3.3-5.5-5-10.1-5-3.4 0-7 1-10.6 2.8-6.6 3.5-10.5 9.3-10.5 14.4a8 8 0 0 0 1 4c1.7 3.3 5.5 5 10 5 3.4 0 7.1-.9 10.7-2.8 6.5-3.4 10.5-9.3 10.5-14.4 0-1.3-.3-2.7-1-4m116.7-12.5c-1.8-3.2-5.5-5-10.1-5-3.4 0-7 1-10.6 2.9-6.6 3.5-10.5 9.3-10.5 14.4a8 8 0 0 0 1 4c1.7 3.3 5.5 5 10 5 3.4 0 7.1-.9 10.7-2.8 6.5-3.4 10.5-9.3 10.5-14.4 0-1.3-.3-2.7-1-4m116.7-12.4c-1.8-3.3-5.6-5.1-10.1-5.1-3.4 0-7 1-10.6 2.9-6.6 3.5-10.6 9.3-10.6 14.4 0 1.4.3 2.7 1 4 1.8 3.3 5.6 5 10.2 5 3.3 0 7-.9 10.6-2.8 6.5-3.5 10.5-9.3 10.5-14.4 0-1.4-.3-2.7-1-4m116.7-37.2c-1.8-3.3-5.6-5.1-10.1-5.1-3.4 0-7 1-10.6 2.9-6.6 3.5-10.6 9.3-10.6 14.4 0 1.4.3 2.7 1 4 1.8 3.3 5.6 5 10.2 5 3.3 0 7-.9 10.6-2.8 6.5-3.5 10.5-9.3 10.5-14.4 0-1.4-.3-2.7-1-4m162.1 0c-1.8-3.3-5.6-5.1-10.1-5.1-3.4 0-7 1-10.7 2.9-6.5 3.5-10.5 9.3-10.5 14.4 0 1.4.3 2.7 1 4 1.8 3.3 5.6 5 10.1 5 3.4 0 7-.9 10.7-2.8 6.5-3.5 10.5-9.3 10.5-14.4 0-1.4-.3-2.7-1-4m189.8 12.4c-1.8-3.3-5.6-5.1-10.1-5.1-3.4 0-7 1-10.7 2.9-6.5 3.5-10.5 9.3-10.5 14.4 0 1.4.3 2.7 1 4 1.8 3.3 5.6 5 10.1 5 3.4 0 7-.9 10.7-2.8 6.5-3.5 10.5-9.3 10.5-14.4 0-1.4-.3-2.7-1-4m189.8 37.1c-1.8-3.2-5.6-5-10.1-5-3.4 0-7 1-10.7 2.9-6.5 3.5-10.5 9.3-10.5 14.4a8 8 0 0 0 1 4c1.8 3.3 5.6 5 10.1 5 3.4 0 7-.9 10.7-2.8 6.5-3.4 10.5-9.3 10.5-14.4 0-1.3-.3-2.7-1-4m118.6-12.4c-1.8-3.3-5.6-5.1-10.1-5.1-3.4 0-7 1-10.6 2.9-6.6 3.5-10.6 9.3-10.6 14.4 0 1.4.3 2.7 1 4 1.8 3.3 5.6 5 10.2 5 3.3 0 7-.9 10.6-2.8 6.5-3.5 10.5-9.3 10.5-14.4 0-1.4-.3-2.7-1-4m118.6-12.4c-1.8-3.3-5.5-5.1-10-5.1a23 23 0 0 0-10.7 2.9c-6.6 3.5-10.5 9.3-10.5 14.4 0 1.4.3 2.7 1 4 1.8 3.3 5.5 5 10 5 3.5 0 7.1-.9 10.7-2.8 6.6-3.5 10.5-9.3 10.5-14.4 0-1.4-.3-2.7-1-4m118.7 12.4c-1.8-3.3-5.6-5.1-10.2-5.1-3.3 0-7 1-10.6 2.9-6.5 3.5-10.5 9.3-10.5 14.4 0 1.4.3 2.7 1 4 1.8 3.3 5.5 5 10.1 5 3.4 0 7-.9 10.6-2.8 6.6-3.5 10.5-9.3 10.5-14.4 0-1.4-.3-2.7-1-4m164.1 0c-1.8-3.3-5.6-5.1-10.2-5.1-3.3 0-7 1-10.6 2.9-6.5 3.5-10.5 9.3-10.5 14.4 0 1.4.3 2.7 1 4 1.8 3.3 5.6 5 10.1 5 3.4 0 7-.9 10.6-2.8 6.6-3.5 10.6-9.3 10.6-14.4 0-1.4-.3-2.7-1-4" style="stroke-width:.992126"/><path d="M177.5 986.8c-7.5 0-13.6 4.4-13.7 4.4a23 23 0 0 0-9.6 18c0 2.4.4 4.6 1.3 6.5 1.2 2.7 3.5 4.5 6.5 5.5 1.2.4 2.4.6 3.7.6a13 13 0 0 0 6.4-1.7c3-1.6 5-5.2 5-9a10 10 0 0 0-4.8-8.6 10.1 10.1 0 0 0-9-1.3 19 19 0 0 0-3.4 2c.3-1.8 1.5-4.7 2.6-6.3 1-1.6 3.2-3.5 5-4.4 2.4-1.4 5.6-2 9-2 10.2 0 15.1 8.1 15.1 24.8 0 9.2-3.4 18-6.4 23.9a58.6 58.6 0 0 1-11.5 16.3 84.3 84.3 0 0 1-20.2 13.9s-1.5.8-1 2.3c.2 1 1.1 1.2 1.7 1.2h.5a98 98 0 0 0 20.5-11.8c5-3.7 9.6-7.6 13.6-11.9 3.5-3.9 6.6-8 9-12.2a45 45 0 0 0 7-21.8 31 31 0 0 0-6.3-20c-4.7-5.5-11.7-8.4-21-8.4m31.2 12.6a5 5 0 0 0 4.8 5c2.5 0 4.7-2.2 4.7-5s-2.2-5-4.7-5a5 5 0 0 0-4.8 5m0 24.5a5 5 0 0 0 4.8 5c2.5 0 4.7-2.2 4.7-5s-2.2-5-4.7-5a5 5 0 0 0-4.8 5m-31.2 1211.5c-7.5 0-13.6 4.4-13.7 4.4a23 23 0 0 0-9.6 18c0 2.5.4 4.6 1.3 6.5 1.2 2.7 3.5 4.6 6.5 5.6 1.2.4 2.4.6 3.7.6a13 13 0 0 0 6.4-1.7c3-1.7 5-5.3 5-9.1a10 10 0 0 0-4.8-8.6 10.1 10.1 0 0 0-9-1.3c-1 .4-2.6 1.4-3.4 2.1.3-1.9 1.5-4.7 2.6-6.3 1-1.6 3.2-3.6 5-4.5 2.4-1.4 5.6-2 9-2 10.2 0 15.1 8.2 15.1 24.8 0 9.2-3.4 18-6.4 24a58.6 58.6 0 0 1-11.5 16.2 84.3 84.3 0 0 1-20.2 13.9s-1.5.9-1 2.4c.2 1 1.1 1.2 1.7 1.2l.5-.1a100.4 100.4 0 0 0 34.1-23.7c3.5-3.8 6.6-8 9-12.2a45 45 0 0 0 7-21.8c0-8.2-2.3-15-6.3-20-4.7-5.5-11.7-8.4-21-8.4m31.2 12.6a5 5 0 0 0 4.8 5c2.5 0 4.7-2.2 4.7-5 0-2.7-2.2-5-4.7-5a5 5 0 0 0-4.8 5m0 24.6a5 5 0 0 0 4.8 5c2.5 0 4.7-2.3 4.7-5 0-2.8-2.2-5.1-4.7-5.1a5 5 0 0 0-4.8 5M177.5 724.3c-7.5 0-13.6 4.3-13.7 4.3a23 23 0 0 0-9.6 18c0 2.5.4 4.7 1.3 6.5 1.2 2.7 3.5 4.6 6.5 5.6 1.2.4 2.4.6 3.7.6a13 13 0 0 0 6.4-1.7c3-1.7 5-5.3 5-9.1a10 10 0 0 0-4.8-8.6 10.1 10.1 0 0 0-9-1.2c-1 .4-2.6 1.3-3.4 2 .3-1.8 1.5-4.7 2.6-6.3 1-1.6 3.2-3.6 5-4.5 2.4-1.4 5.6-2 9-2 10.2 0 15.1 8.2 15.1 24.8 0 9.3-3.4 18.1-6.4 24a58.6 58.6 0 0 1-11.5 16.2 84.3 84.3 0 0 1-20.2 14s-1.5.8-1 2.3c.2 1 1.1 1.2 1.7 1.2l.5-.1a100.4 100.4 0 0 0 34.1-23.7c3.5-3.8 6.6-8 9-12.1a45 45 0 0 0 7-21.9 31 31 0 0 0-6.3-19.9c-4.7-5.6-11.7-8.4-21-8.4m31.2 12.6a5 5 0 0 0 4.8 5c2.5 0 4.7-2.3 4.7-5 0-2.8-2.2-5-4.7-5a5 5 0 0 0-4.8 5m0 24.5a5 5 0 0 0 4.8 5c2.5 0 4.7-2.2 4.7-5s-2.2-5-4.7-5a5 5 0 0 0-4.8 5M177.5 1973c-7.5 0-13.6 4.3-13.7 4.3a23 23 0 0 0-9.6 18c0 2.4.4 4.6 1.3 6.5a10 10 0 0 0 6.5 5.5c1.2.4 2.4.6 3.7.6a13 13 0 0 0 6.4-1.6c3-1.7 5-5.3 5-9.2a10 10 0 0 0-4.8-8.5 10.1 10.1 0 0 0-9-1.3 19 19 0 0 0-3.4 2c.3-1.8 1.5-4.7 2.6-6.3 1-1.6 3.2-3.5 5-4.4 2.4-1.4 5.6-2 9-2 10.2 0 15.1 8.1 15.1 24.8 0 9.2-3.4 18-6.4 23.9a58.6 58.6 0 0 1-11.5 16.3 84.3 84.3 0 0 1-20.2 13.9s-1.5.9-1 2.3c.2 1 1.1 1.2 1.7 1.2h.5a98 98 0 0 0 20.5-11.8 92 92 0 0 0 13.6-11.9c3.5-3.8 6.6-8 9-12.2a45 45 0 0 0 7-21.8c0-8.2-2.3-15-6.3-20-4.7-5.5-11.7-8.4-21-8.4m31.2 12.6a5 5 0 0 0 4.8 5c2.5 0 4.7-2.2 4.7-5s-2.2-5-4.7-5a5 5 0 0 0-4.8 5m0 24.5a5 5 0 0 0 4.8 5c2.5 0 4.7-2.2 4.7-5s-2.2-5-4.7-5a5 5 0 0 0-4.8 5m6.5-1487.5a28.1 28.1 0 0 0-4.6-10.2 22.3 22.3 0 0 0-20.3-9.2l-3-17.2a84 84 0 0 0 11.4-16.2c3.4-6.5 4.5-11 4.6-11.2a50 50 0 0 0 1-21 43 43 0 0 0-5.5-17.4c-1-1.4-2-2.1-3-2.1-1.3 0-3.7 1.2-6.6 4a34 34 0 0 0-8 12 56 56 0 0 0-3 23c.5 7.3 1.6 13 1.6 13l.7 4-.7.8-3.6 3.5-2.8 2.7c-8.4 8-21 20.3-21 39.3a31.9 31.9 0 0 0 9.4 22.7 37.4 37.4 0 0 0 33 9.7c1.9 9.6 3 16.5 3 21.8 0 6.5-1.6 10.4-5.4 13.2a15.3 15.3 0 0 1-8.3 2.8c-2.6.1-4.8-.4-6.2-.8 0 0-.3 0-.3-.2s.3-.3.3-.3c2-.4 5.5-1.6 7.8-4.9 1.8-2.5 2.7-7 .8-11-1-2.4-3.6-5.3-9.1-5.7a11 11 0 0 0-11 6.1 13 13 0 0 0 1 14.2 19 19 0 0 0 13 6.5 24 24 0 0 0 14.8-3.3c3.6-2.5 5.7-6.5 6.4-12 .6-4.7.2-10.5-1.2-18.5l-1.6-8.9a25.1 25.1 0 0 0 16.4-29.2m-34 26a30 30 0 0 1-12.7-7.2 20.2 20.2 0 0 1-4.6-6.7 25 25 0 0 1-2-10.1c.1-4.7 1.4-9.5 3.9-14.2a59 59 0 0 1 13.4-16.3l4.1-3.8 2.5 13.7a21.2 21.2 0 0 0-11.7 10c-3.5 6.5-3.3 12-2.6 15.4 1 4.5 3.4 8.2 6.9 10.3.9.5 5 2.6 6.8 2 .4 0 .7-.3.8-.6.5-1.2-.5-1.8-2-2.8a10.7 10.7 0 0 1-5.7-12.5 13.5 13.5 0 0 1 9.7-9.5c2 11.2 4 22.2 5.7 30.5l.4 2c-4.4 1-8.7.9-12.9-.2m11.3-33c10.2-.4 14.5 7 15.4 11.8.4 2.5.4 6.9-1.1 11a15.3 15.3 0 0 1-8.7 9.3l-.2-1.3-5.4-30.7m-7.3-70.4c1.8-5.7 4.5-9 6.5-10.7 1.7-1.5 3.3-2.2 4.3-2.2h.3c.5.2 1 .8 1.5 1.6 2.3 4.3 1.5 11 .2 15.4a51.5 51.5 0 0 1-13.2 20.4l-.5-3c-1.3-8.3-1-15.5 1-21.5m29.9 1328.4a28.1 28.1 0 0 0-4.6-10.2 22.3 22.3 0 0 0-20.3-9.2l-3-17.3a84 84 0 0 0 11.4-16.1c3.4-6.5 4.5-11 4.6-11.3a50 50 0 0 0 1-21 43 43 0 0 0-5.5-17.3c-1-1.4-2-2.1-3-2.1-1.3 0-3.7 1.2-6.6 4a34 34 0 0 0-8 12 56 56 0 0 0-3 23c.5 7.2 1.6 12.9 1.6 13l.7 4-.7.8-3.6 3.4-2.8 2.8c-8.4 8-21 20.3-21 39.3a31.9 31.9 0 0 0 9.4 22.7 37.4 37.4 0 0 0 33 9.7c1.9 9.6 3 16.5 3 21.8 0 6.5-1.6 10.4-5.4 13.2a15.3 15.3 0 0 1-8.3 2.8c-2.6.1-4.8-.4-6.2-.8 0 0-.3 0-.3-.3l.3-.2c2-.4 5.5-1.6 7.8-5 1.8-2.4 2.7-7 .8-11-1-2.3-3.6-5.2-9.1-5.7a11 11 0 0 0-11 6.2 13 13 0 0 0 1 14.2 19 19 0 0 0 13 6.4 24 24 0 0 0 14.8-3.2c3.6-2.6 5.7-6.5 6.4-12a64 64 0 0 0-1.2-18.6l-1.6-8.8a25.1 25.1 0 0 0 16.4-29.2m-34 26a30 30 0 0 1-12.7-7.2 20.2 20.2 0 0 1-4.6-6.7 25 25 0 0 1-2-10.1c.1-4.7 1.4-9.5 3.9-14.2 2.9-5.6 7.4-11 13.4-16.3l4.1-3.8 2.5 13.7a21.2 21.2 0 0 0-11.7 10c-3.5 6.5-3.3 12-2.6 15.4 1 4.4 3.4 8.2 6.9 10.2.9.6 5 2.7 6.8 2.1.4 0 .7-.3.8-.6.5-1.2-.5-1.8-2-2.8-.7-.3-1.3-.8-2-1.3a10.7 10.7 0 0 1-3.7-11.2 12 12 0 0 1 3.7-6.2c1.6-1.6 3.6-2.7 6-3.3 2 11.2 4 22.2 5.7 30.5l.4 2c-4.4 1-8.7.9-12.9-.2m11.3-33c10.2-.4 14.5 7 15.4 11.7.4 2.6.4 7-1.1 11.1a15.3 15.3 0 0 1-8.7 9.3l-.2-1.3-5.4-30.8m-7.3-70.3c1.8-5.7 4.5-9 6.5-10.7 1.7-1.5 3.3-2.2 4.3-2.2h.3c.5.2 1 .8 1.5 1.6 2.3 4.3 1.5 11 .2 15.3a51 51 0 0 1-13.2 20.5l-.5-3.1c-1.3-8.2-1-15.4 1-21.4m29.9-1421.5a28.1 28.1 0 0 0-4.6-10.2 22.3 22.3 0 0 0-20.3-9.2l-3-17.2a84 84 0 0 0 11.4-16.2c3.4-6.5 4.5-11 4.6-11.2a50 50 0 0 0 1-21 43 43 0 0 0-5.5-17.4c-1-1.4-2-2.1-3-2.1-1.3 0-3.7 1.2-6.6 4a35 35 0 0 0-8 12 56 56 0 0 0-3 23c.5 7.3 1.6 13 1.6 13l.7 4.1-.7.7-3.6 3.5-2.8 2.7c-8.4 8-21 20.3-21 39.3a31.9 31.9 0 0 0 9.4 22.7 37.4 37.4 0 0 0 33 9.8c1.9 9.5 3 16.5 3 21.8 0 6.4-1.6 10.4-5.4 13.1a15.3 15.3 0 0 1-8.3 2.8c-2.6.1-4.8-.3-6.2-.7 0 0-.3-.1-.3-.3 0-.2.3-.3.3-.3 2-.4 5.5-1.6 7.8-4.9 1.8-2.5 2.7-7 .8-11-1-2.3-3.6-5.3-9.1-5.7a11 11 0 0 0-11 6.2 13 13 0 0 0 1 14.1 19 19 0 0 0 13 6.5 24 24 0 0 0 14.8-3.3c3.6-2.5 5.7-6.5 6.4-12 .6-4.7.2-10.5-1.2-18.5l-1.6-8.8a25.1 25.1 0 0 0 16.4-29.3m-34 26a30 30 0 0 1-12.7-7.2 20.2 20.2 0 0 1-4.6-6.7c-1.4-3.1-2-6.5-2-10.1a32 32 0 0 1 3.9-14.2 59 59 0 0 1 13.4-16.3l4.1-3.8 2.5 13.7a21.2 21.2 0 0 0-11.7 10c-3.5 6.5-3.3 12-2.6 15.4 1 4.5 3.4 8.2 6.9 10.3.9.5 5 2.6 6.8 2 .4 0 .7-.3.8-.6.5-1.2-.5-1.8-2-2.7l-2-1.4a10.7 10.7 0 0 1-3.7-11.2 12 12 0 0 1 3.7-6.2c1.6-1.5 3.6-2.6 6-3.3 2 11.2 4 22.2 5.7 30.5l.4 2c-4.4 1-8.7.9-12.9-.2m11.3-33c10.2-.4 14.5 7 15.4 11.8.4 2.5.4 6.9-1.1 11a15.3 15.3 0 0 1-8.7 9.3l-.2-1.3-5.4-30.7m-7.3-70.4c1.8-5.7 4.5-9 6.5-10.6 1.7-1.6 3.4-2.3 4.3-2.3h.3c.5.2 1 .8 1.5 1.7 2.3 4.2 1.5 10.9.2 15.3-1.6 5.3-4.5 11-13.2 20.4l-.5-3c-1.3-8.3-1-15.5 1-21.5m29.9 1328.4a28.1 28.1 0 0 0-4.6-10.2 22.3 22.3 0 0 0-20.3-9.2l-3-17.2a84 84 0 0 0 11.4-16.2c3.4-6.5 4.5-11 4.6-11.3a50 50 0 0 0 1-21 43 43 0 0 0-5.5-17.3c-1-1.4-2-2.1-3-2.1-1.3 0-3.7 1.2-6.6 4a34 34 0 0 0-8 12 56 56 0 0 0-3 23c.5 7.3 1.6 12.9 1.6 13l.7 4-.7.8-3.6 3.5-2.8 2.7c-8.4 8-21 20.3-21 39.3a31.9 31.9 0 0 0 9.4 22.7 37.4 37.4 0 0 0 33 9.7c1.9 9.6 3 16.5 3 21.8 0 6.5-1.6 10.4-5.4 13.2a15.3 15.3 0 0 1-8.3 2.8c-2.6.1-4.8-.4-6.2-.8 0 0-.3 0-.3-.2s.3-.3.3-.3c2-.4 5.5-1.6 7.8-4.9 1.8-2.5 2.7-7 .8-11-1-2.4-3.6-5.3-9.1-5.7a11 11 0 0 0-11 6.1 13 13 0 0 0 1 14.2 19 19 0 0 0 13 6.5 24 24 0 0 0 14.8-3.3c3.6-2.5 5.7-6.5 6.4-12 .6-4.7.2-10.5-1.2-18.6l-1.6-8.8a25.1 25.1 0 0 0 16.4-29.2m-34 26a30 30 0 0 1-12.7-7.2 20.2 20.2 0 0 1-4.6-6.7 25 25 0 0 1-2-10.1c.1-4.7 1.4-9.5 3.9-14.2 2.9-5.6 7.4-11 13.4-16.3l4.1-3.8 2.5 13.7a21.2 21.2 0 0 0-11.7 10c-3.5 6.5-3.3 12-2.6 15.4 1 4.4 3.4 8.2 6.9 10.3.9.5 5 2.6 6.8 2 .4 0 .7-.3.8-.6.5-1.2-.5-1.8-2-2.8-.7-.3-1.3-.8-2-1.3a10.7 10.7 0 0 1-3.7-11.2 13.5 13.5 0 0 1 9.7-9.5c2 11.2 4 22.2 5.7 30.5l.4 2c-4.4 1-8.7.9-12.9-.2m11.3-33c10.2-.4 14.5 7 15.4 11.8.4 2.5.4 6.9-1.1 11a15.3 15.3 0 0 1-8.7 9.3l-.2-1.3-5.4-30.7m-7.3-70.4c1.8-5.7 4.5-9 6.5-10.7 1.7-1.5 3.3-2.2 4.3-2.2h.3c.5.2 1 .8 1.5 1.6 2.3 4.3 1.5 11 .2 15.4a51.5 51.5 0 0 1-13.2 20.4l-.5-3c-1.3-8.3-1-15.5 1-21.5" style="stroke-width:.992126"/><path d="M312.6 1065.9c-.6-3.9-3-7.6-8-7.6s-8 3.1-8.4 3.7l.4-31.8c0-.8-.6-1.4-1.4-1.4H294c-.8 0-1.4.6-1.4 1.4l.5 59.6c0 .8.6 1.4 1.4 1.4l.8-.2c.4-.2 6.8-3.4 12.2-9.4a20.1 20.1 0 0 0 5-15.7m-6.8 3.9c0 1.4-.4 6-2.9 9.8a34 34 0 0 1-6.9 6.7l.3-19.3c.2-1 1.7-3.8 5.7-3.8 3.5 0 3.8 3.4 3.8 5.5v1m-17.9-53.4c-.6-3.9-3-7.6-8-7.6s-8 3.1-8.4 3.7l.4-31.8c0-.8-.6-1.4-1.4-1.4h-1.2c-.8 0-1.4.6-1.4 1.4l.5 59.6c0 .8.6 1.4 1.4 1.4l.8-.2c.4-.2 6.8-3.4 12.2-9.5a20.1 20.1 0 0 0 5-15.6m-6.8 3.8c0 1.5-.4 6-2.9 9.9a34 34 0 0 1-7 6.7l.4-19.3c.2-1 1.7-3.8 5.6-3.8 3.6 0 4 3.4 4 5.5v1m-18 33.4c-.6-3.9-3-7.6-8-7.6s-8 3.1-8.4 3.7l.4-31.8c0-.8-.6-1.4-1.4-1.4h-1.2c-.8 0-1.4.6-1.4 1.4l.5 59.6c0 .8.6 1.4 1.4 1.4l.8-.2c.4-.2 6.8-3.4 12.2-9.5a20.1 20.1 0 0 0 5-15.6m-6.8 3.8c0 1.5-.4 6-2.9 9.9a34 34 0 0 1-7 6.7l.4-19.3c.2-1 1.7-3.8 5.6-3.8 3.6 0 4 3.4 4 5.5v1m56.4 1257.2c-.6-3.8-3-7.5-8-7.5s-8 3-8.4 3.7l.4-31.9c0-.8-.6-1.4-1.4-1.4H294c-.8 0-1.4.6-1.4 1.4l.5 59.6c0 .8.6 1.4 1.4 1.4.2 0 .6 0 .8-.2.4-.2 6.8-3.4 12.2-9.4a20.1 20.1 0 0 0 5-15.7m-6.8 3.9c0 1.5-.4 6-2.9 9.8a34 34 0 0 1-6.9 6.8l.3-19.4c.2-.9 1.7-3.8 5.7-3.8 3.5 0 3.8 3.4 3.8 5.5v1m-17.9-53.3c-.6-4-3-7.6-8-7.6s-8 3-8.4 3.6l.4-31.8c0-.8-.6-1.4-1.4-1.4h-1.2c-.8 0-1.4.6-1.4 1.4l.5 59.6c0 .8.6 1.4 1.4 1.4.2 0 .6 0 .8-.2.4-.2 6.8-3.4 12.2-9.4a20.1 20.1 0 0 0 5-15.7m-6.8 3.9c0 1.5-.4 6-2.9 9.8a34 34 0 0 1-7 6.7l.4-19.3c.2-.9 1.7-3.8 5.6-3.8 3.6 0 4 3.4 4 5.5v1m-18 33.4c-.6-3.8-3-7.5-8-7.5s-8 3-8.4 3.7l.4-31.9c0-.8-.6-1.4-1.4-1.4h-1.2c-.8 0-1.4.6-1.4 1.4l.5 59.6c0 .8.6 1.4 1.4 1.4.2 0 .6 0 .8-.2.4-.2 6.8-3.4 12.2-9.4a20.1 20.1 0 0 0 5-15.7m-6.8 3.9c0 1.5-.4 6-2.9 9.8a34 34 0 0 1-7 6.8l.4-19.4c.2-.9 1.7-3.8 5.6-3.8 3.6 0 4 3.4 4 5.5v1m56.4-1502.6c-.6-3.8-3-7.5-8-7.5s-8 3-8.4 3.7l.4-31.9c0-.8-.6-1.4-1.4-1.4H294c-.8 0-1.4.6-1.4 1.4l.5 59.7c0 .7.6 1.3 1.4 1.3.2 0 .6 0 .8-.2.4-.2 6.8-3.3 12.2-9.4a20.1 20.1 0 0 0 5-15.7m-6.8 4c0 1.4-.4 6-2.9 9.7a34 34 0 0 1-6.9 6.8l.3-19.4c.2-.9 1.7-3.7 5.7-3.7 3.5 0 3.8 3.3 3.8 5.4v1.1m-17.9-53.5c-.6-3.8-3-7.5-8-7.5s-8 3-8.4 3.7l.4-31.9c0-.8-.6-1.4-1.4-1.4h-1.2c-.8 0-1.4.6-1.4 1.4l.5 59.6c0 .8.6 1.4 1.4 1.4.2 0 .6 0 .8-.2.4-.2 6.8-3.3 12.2-9.4a20.1 20.1 0 0 0 5-15.7m-6.8 4c0 1.4-.4 6-2.9 9.7a34 34 0 0 1-7 6.8l.4-19.4c.2-.9 1.7-3.7 5.6-3.7 3.6 0 4 3.3 4 5.4v1.1M263 791c-.6-4-3-7.6-8-7.6s-8 3-8.4 3.7l.4-31.9c0-.8-.6-1.4-1.4-1.4h-1.2c-.8 0-1.4.6-1.4 1.4l.5 59.7c0 .7.6 1.3 1.4 1.3.2 0 .6 0 .8-.2.4-.2 6.8-3.3 12.2-9.4a20.1 20.1 0 0 0 5-15.7m-6.8 4c0 1.4-.4 6-2.9 9.7a34 34 0 0 1-7 6.8l.4-19.4c.2-.9 1.7-3.7 5.6-3.7 3.6 0 4 3.3 4 5.4v1.1M312.6 2052c-.6-3.9-3-7.6-8-7.6s-8 3.1-8.4 3.7l.4-31.8c0-.8-.6-1.4-1.4-1.4H294c-.8 0-1.4.6-1.4 1.4l.5 59.6c0 .8.6 1.4 1.4 1.4l.8-.2c.4-.2 6.8-3.4 12.2-9.4a20.1 20.1 0 0 0 5-15.7m-6.8 3.9c0 1.4-.4 6-2.9 9.8a34 34 0 0 1-6.9 6.7l.3-19.3c.2-1 1.7-3.8 5.7-3.8 3.5 0 3.8 3.4 3.8 5.5v1m-17.9-53.4c-.6-3.9-3-7.6-8-7.6s-8 3.1-8.4 3.7l.4-31.8c0-.8-.6-1.4-1.4-1.4h-1.2c-.8 0-1.4.6-1.4 1.4l.5 59.6c0 .8.6 1.4 1.4 1.4l.8-.2c.4-.2 6.8-3.4 12.2-9.4a20.1 20.1 0 0 0 5-15.7m-6.8 3.9c0 1.4-.4 6-2.9 9.8a34 34 0 0 1-7 6.7l.4-19.3c.2-1 1.7-3.8 5.6-3.8 3.6 0 4 3.4 4 5.5v1m-18 33.4c-.6-3.9-3-7.6-8-7.6s-8 3.1-8.4 3.7l.4-31.8c0-.8-.6-1.4-1.4-1.4h-1.2c-.8 0-1.4.6-1.4 1.4l.5 59.6c0 .8.6 1.4 1.4 1.4l.8-.2c.4-.2 6.8-3.4 12.2-9.4a20.1 20.1 0 0 0 5-15.7m-6.8 3.9c0 1.4-.4 6-2.9 9.8a34 34 0 0 1-7 6.7l.4-19.3c.2-1 1.7-3.8 5.6-3.8 3.6 0 4 3.4 4 5.5v1M312.6 508c-.6-3.8-3-7.5-8-7.5s-8 3.1-8.4 3.7l.4-31.8c0-.8-.6-1.4-1.4-1.4H294c-.8 0-1.4.6-1.4 1.4l.5 59.6c0 .8.6 1.4 1.4 1.4l.8-.2c.4-.2 6.8-3.4 12.2-9.4a20.1 20.1 0 0 0 5-15.7m-6.8 3.8c0 1.5-.4 6.1-2.9 9.9a34 34 0 0 1-6.9 6.7l.3-19.3c.2-1 1.7-3.8 5.7-3.8 3.5 0 3.8 3.4 3.8 5.5v1m-17.9-53.4c-.6-3.9-3-7.6-8-7.6s-8 3.1-8.4 3.7l.4-31.8c0-.8-.6-1.4-1.4-1.4h-1.2c-.8 0-1.4.6-1.4 1.4l.5 59.6c0 .8.6 1.4 1.4 1.4l.8-.2c.4-.2 6.8-3.4 12.2-9.5a20.1 20.1 0 0 0 5-15.6m-6.8 3.8c0 1.5-.4 6-2.9 9.9a34 34 0 0 1-7 6.7l.4-19.3c.2-1 1.7-3.8 5.6-3.8 3.6 0 4 3.4 4 5.4v1.1m-18 33.4c-.6-3.9-3-7.6-8-7.6s-8 3.1-8.4 3.7l.4-31.8c0-.8-.6-1.4-1.4-1.4h-1.2c-.8 0-1.4.6-1.4 1.4l.5 59.6c0 .8.6 1.4 1.4 1.4l.8-.2c.4-.2 6.8-3.4 12.2-9.4a20.1 20.1 0 0 0 5-15.7m-6.8 3.8c0 1.5-.4 6.1-2.9 9.9a34 34 0 0 1-7 6.7l.4-19.3c.2-1 1.7-3.8 5.6-3.8 3.6 0 4 3.4 4 5.5v1m56.4 1259.7c-.6-4-3-7.6-8-7.6s-8 3.1-8.4 3.7l.4-31.9c0-.7-.6-1.3-1.4-1.3H294c-.8 0-1.4.6-1.4 1.3l.5 59.7c0 .8.6 1.4 1.4 1.4l.8-.2c.4-.2 6.8-3.4 12.2-9.5a20.1 20.1 0 0 0 5-15.6m-6.8 3.8c0 1.5-.4 6-2.9 9.9a34 34 0 0 1-6.9 6.7l.3-19.3c.2-1 1.7-3.8 5.7-3.8 3.5 0 3.8 3.4 3.8 5.4v1.1m-17.9-53.4c-.6-4-3-7.6-8-7.6s-8 3-8.4 3.7l.4-31.9c0-.8-.6-1.4-1.4-1.4h-1.2c-.8 0-1.4.6-1.4 1.4l.5 59.7c0 .8.6 1.4 1.4 1.4l.8-.2c.4-.2 6.8-3.4 12.2-9.5a20.1 20.1 0 0 0 5-15.6m-6.8 3.8c0 1.5-.4 6-2.9 9.8a34 34 0 0 1-7 6.8l.4-19.4c.2-.8 1.7-3.7 5.6-3.7 3.6 0 4 3.3 4 5.4v1.1m-18 33.4c-.6-4-3-7.6-8-7.6s-8 3.1-8.4 3.7l.4-31.9c0-.7-.6-1.3-1.4-1.3h-1.2c-.8 0-1.4.6-1.4 1.3l.5 59.7c0 .8.6 1.4 1.4 1.4l.8-.2c.4-.2 6.8-3.4 12.2-9.5a20.1 20.1 0 0 0 5-15.6m-6.8 3.8c0 1.5-.4 6-2.9 9.9a34 34 0 0 1-7 6.7l.4-19.3c.2-1 1.7-3.8 5.6-3.8 3.6 0 4 3.4 4 5.4v1.1m56.4-1490.2c-.6-3.9-3-7.5-8-7.5s-8 3-8.4 3.6l.4-31.8c0-.8-.6-1.4-1.4-1.4H294c-.8 0-1.4.6-1.4 1.4l.5 59.6c0 .8.6 1.4 1.4 1.4l.8-.2c.4-.2 6.8-3.4 12.2-9.4a20.1 20.1 0 0 0 5-15.7m-6.8 3.9c0 1.4-.4 6-2.9 9.8a34 34 0 0 1-6.9 6.7l.3-19.3c.2-1 1.7-3.8 5.7-3.8 3.5 0 3.8 3.4 3.8 5.5v1m-17.9-53.4c-.6-3.9-3-7.6-8-7.6s-8 3.1-8.4 3.7l.4-31.8c0-.8-.6-1.4-1.4-1.4h-1.2c-.8 0-1.4.6-1.4 1.4l.5 59.6c0 .8.6 1.4 1.4 1.4l.8-.2c.4-.2 6.8-3.4 12.2-9.4a20.1 20.1 0 0 0 5-15.7m-6.8 3.9c0 1.4-.4 6-2.9 9.8a34 34 0 0 1-7 6.7l.4-19.3c.2-1 1.7-3.8 5.6-3.8 3.6 0 4 3.4 4 5.5v1M263 248c-.6-3.9-3-7.6-8-7.6s-8 3.1-8.4 3.7l.4-31.8c0-.8-.6-1.4-1.4-1.4h-1.2c-.8 0-1.4.6-1.4 1.4l.5 59.6c0 .8.6 1.4 1.4 1.4l.8-.2c.4-.2 6.8-3.4 12.2-9.4a20.1 20.1 0 0 0 5-15.7m-6.8 3.9c0 1.4-.4 6-2.9 9.8a34 34 0 0 1-7 6.7l.4-19.3c.2-1 1.7-3.8 5.6-3.8 3.6 0 4 3.4 4 5.5v1m56.4 1259.7c-.6-3.9-3-7.6-8-7.6s-8 3.1-8.4 3.7l.4-31.8c0-.8-.6-1.4-1.4-1.4H294c-.8 0-1.4.6-1.4 1.4l.5 59.6c0 .8.6 1.4 1.4 1.4l.8-.2c.4-.2 6.8-3.4 12.2-9.5a20.1 20.1 0 0 0 5-15.6m-6.8 3.8c0 1.5-.4 6-2.9 9.9a34 34 0 0 1-6.9 6.7l.3-19.3c.2-1 1.7-3.8 5.7-3.8 3.5 0 3.8 3.4 3.8 5.5v1m-17.9-53.4c-.6-4-3-7.6-8-7.6s-8 3.1-8.4 3.7l.4-31.9c0-.7-.6-1.3-1.4-1.3h-1.2c-.8 0-1.4.6-1.4 1.3l.5 59.7c0 .8.6 1.4 1.4 1.4l.8-.2c.4-.2 6.8-3.4 12.2-9.5a20.1 20.1 0 0 0 5-15.6m-6.8 3.8c0 1.5-.4 6-2.9 9.9a34 34 0 0 1-7 6.7l.4-19.3c.2-1 1.7-3.8 5.6-3.8 3.6 0 4 3.4 4 5.4v1.1m-18 33.3c-.6-3.8-3-7.5-8-7.5s-8 3.1-8.4 3.7l.4-31.8c0-.8-.6-1.4-1.4-1.4h-1.2c-.8 0-1.4.6-1.4 1.4l.5 59.6c0 .8.6 1.4 1.4 1.4l.8-.2c.4-.2 6.8-3.4 12.2-9.5a20.1 20.1 0 0 0 5-15.6m-6.8 3.8c0 1.5-.4 6-2.9 9.9a34 34 0 0 1-7 6.7l.4-19.3c.2-1 1.7-3.8 5.6-3.8 3.6 0 4 3.4 4 5.5v1" style="stroke-width:.992126"/><path d="M339.8 1024.4h17v7.4h-8.2c-.7 0-1.4.6-1.4 1.4v1.8c0 .8.7 1.4 1.4 1.4h30c.8 0 1.5-.6 1.5-1.4v-1.8c0-.8-.7-1.4-1.4-1.4h-9v-7.4h9c.7 0 1.4-.6 1.4-1.4v-1.9c0-.8-.7-1.4-1.4-1.4h-9v-15.8c0-.6-.2-1-.7-1.3l-1.2-.6c-.5-.2-1.1-.2-1.6.2l-9 8.3c-.2.3-.4.6-.4 1v8.2h-11.4s11-12 22.8-27.6c.8-1.1.3-2.2.1-2.4l-2.1-2.1c-.3-.3-.6-.5-1-.5h-14.8c-.7 0-1.2.6-1.3 1.3 0 0-.5 7.3-3.1 15.3s-5.5 13-8.1 16.6c0 0-.6 1-.2 1.7.3.8 1 1.9 1 1.9s.2.5 1 .5m.1 49.3h17v7.4h-8.2c-.7 0-1.4.6-1.4 1.4v1.9c0 .8.7 1.4 1.4 1.4h30c.8 0 1.5-.6 1.5-1.4v-2c0-.7-.7-1.3-1.4-1.3h-9v-7.4h9c.7 0 1.4-.6 1.4-1.4v-1.9c0-.7-.7-1.4-1.4-1.4h-9v-15.8c0-.5-.2-1-.7-1.2l-1.2-.6c-.5-.3-1.1-.2-1.6.2l-9 8.2c-.2.3-.4.7-.4 1v8.2h-11.4s11-11.9 22.8-27.5c.8-1.2.3-2.2.1-2.4l-2.1-2.2c-.3-.3-.6-.4-1-.4h-14.8c-.7 0-1.2.6-1.3 1.2 0 0-.5 7.3-3.1 15.4-2.6 8-5.5 13-8.1 16.6 0 0-.6 1-.2 1.7l1 1.8s.2.5 1 .5m.1-311.8h17v7.3h-8.2c-.7 0-1.4.6-1.4 1.4v2c0 .7.7 1.3 1.4 1.3h30c.8 0 1.5-.6 1.5-1.4v-1.9c0-.8-.7-1.4-1.4-1.4h-9V762h9c.7 0 1.4-.7 1.4-1.4v-2c0-.7-.7-1.3-1.4-1.3h-9v-15.9c0-.5-.2-1-.7-1.2l-1.2-.6c-.5-.3-1.1-.2-1.6.2l-9 8.3c-.2.2-.4.6-.4 1v8.2h-11.4s11-12 22.8-27.6c.8-1.2.3-2.2.1-2.4l-2.1-2.2c-.3-.2-.6-.4-1-.4h-14.8c-.7 0-1.2.6-1.3 1.2 0 0-.5 7.3-3.1 15.4-2.6 8-5.5 13-8.1 16.6 0 0-.6 1-.2 1.7l1 1.8s.2.6 1 .6m.1 49.2h17v7.4h-8.2c-.7 0-1.4.6-1.4 1.4v1.9c0 .7.7 1.4 1.4 1.4h30c.8 0 1.5-.7 1.5-1.4v-2c0-.7-.7-1.3-1.4-1.3h-9v-7.4h9c.7 0 1.4-.6 1.4-1.4v-1.9c0-.8-.7-1.4-1.4-1.4h-9v-15.8c0-.6-.2-1-.7-1.3l-1.2-.6c-.5-.2-1.1-.1-1.6.3l-9 8.2c-.2.3-.4.6-.4 1v8.2h-11.4s11-12 22.8-27.6c.8-1.1.3-2.2.1-2.3l-2.1-2.2c-.3-.3-.6-.4-1-.4h-14.8c-.7 0-1.2.6-1.3 1.2 0 0-.5 7.3-3.1 15.3s-5.5 13-8.1 16.6c0 0-.6 1-.2 1.7.3.8 1 1.9 1 1.9s.2.5 1 .5m.1-319.8h17v7.4h-8.2c-.7 0-1.4.6-1.4 1.4v1.8c0 .8.7 1.4 1.4 1.4h30c.8 0 1.5-.6 1.5-1.4v-1.8c0-.8-.7-1.4-1.4-1.4h-9v-7.4h9c.7 0 1.4-.6 1.4-1.4v-2c0-.8-.7-1.4-1.4-1.4h-9v-15.8c0-.6-.2-1-.7-1.3l-1.2-.6c-.5-.2-1.1-.1-1.6.2l-9 8.3c-.2.3-.4.6-.4 1v8.2h-11.4s11-12 22.8-27.6c.8-1.1.3-2.2.1-2.4l-2.1-2.1c-.3-.3-.6-.5-1-.5h-14.8c-.7 0-1.2.6-1.3 1.3 0 0-.5 7.3-3.1 15.3s-5.5 13-8.1 16.6c0 0-.6 1-.2 1.7.3.8 1 1.9 1 1.9s.2.5 1 .5m.1 49.4h17v7.4h-8.2c-.7 0-1.4.6-1.4 1.4v1.9c0 .8.7 1.4 1.4 1.4h30c.8 0 1.5-.6 1.5-1.4v-1.9c0-.8-.7-1.4-1.4-1.4h-9v-7.4h9c.7 0 1.4-.6 1.4-1.4v-1.9c0-.7-.7-1.4-1.4-1.4h-9v-15.8c0-.5-.2-1-.7-1.2l-1.2-.6c-.5-.3-1.1-.2-1.6.2l-9 8.2c-.2.3-.4.7-.4 1v8.2h-11.4s11-11.9 22.8-27.5c.8-1.2.3-2.2.1-2.4l-2.1-2.2c-.3-.3-.6-.4-1-.4h-14.8c-.7 0-1.2.6-1.3 1.2 0 0-.5 7.3-3.1 15.4-2.6 8-5.5 13-8.1 16.6 0 0-.6 1-.2 1.7l1 1.8s.2.5 1 .5m.1-297h17v7.4h-8.2c-.7 0-1.4.6-1.4 1.4v1.9c0 .7.7 1.4 1.4 1.4h30c.8 0 1.5-.7 1.5-1.4v-2c0-.7-.7-1.3-1.4-1.3h-9v-7.4h9c.7 0 1.4-.6 1.4-1.4v-1.9c0-.8-.7-1.4-1.4-1.4h-9v-15.8c0-.6-.2-1-.7-1.3l-1.2-.6c-.5-.2-1.1-.1-1.6.3l-9 8.2c-.2.3-.4.7-.4 1v8.2h-11.4s11-12 22.8-27.6c.8-1.1.3-2.2.1-2.3l-2.1-2.2c-.3-.3-.6-.4-1-.4h-14.8c-.7 0-1.2.6-1.3 1.2 0 0-.5 7.3-3.1 15.3-2.6 8.1-5.5 13-8.1 16.6 0 0-.6 1-.2 1.8l1 1.8s.2.5 1 .5m.1 49.3h17v7.4h-8.2c-.7 0-1.4.6-1.4 1.4v1.9c0 .8.7 1.4 1.4 1.4h30c.8 0 1.5-.6 1.5-1.4v-1.9c0-.8-.7-1.4-1.4-1.4h-9V293h9c.7 0 1.4-.6 1.4-1.4v-1.8c0-.8-.7-1.4-1.4-1.4h-9v-15.9c0-.5-.2-1-.7-1.2l-1.2-.6c-.5-.3-1.1-.2-1.6.2l-9 8.3c-.2.2-.4.6-.4 1v8.2h-11.4s11-12 22.8-27.6c.8-1.2.3-2.2.1-2.4l-2.1-2.2c-.3-.2-.6-.4-1-.4h-14.8c-.7 0-1.2.6-1.3 1.2 0 0-.5 7.3-3.1 15.4-2.6 8-5.5 13-8.1 16.6 0 0-.6 1-.2 1.7l1 1.8s.2.5 1 .5" style="stroke-width:.992126"/><path d="M572.8 1016.4c-.7-.3-1.4 0-1.7.7-.4.6-3.5 6.5-8 9.7-1.3 1-2.9 1.6-4.4 2a7 7 0 1 0-8 1.9 14.5 14.5 0 0 0 14-1.6c1.4-1 2.5-2.2 3.6-3.4L557 1061l2.6.8 14-43.7c.2-.7 0-1.4-.8-1.7m211.2 0c-.8-.3-1.5 0-1.8.7-.3.6-3.5 6.5-7.9 9.7-1.4 1-3 1.6-4.5 2a7 7 0 1 0-8 1.9 14.5 14.5 0 0 0 14-1.6 24 24 0 0 0 3.7-3.4L768 1061l2.7.8 14-43.7c.2-.7-.1-1.4-.9-1.7m102.2 36.9-.2-.3a6 6 0 0 1-.6-.7l-11.4-14.1c-.3-.3-.2-1 0-1.5l10.1-15.3.2-.7v-.9c0-.3 0-.6-.3-.8l-16-21.7s-.9-1.2-1.8-.3c-1 .8-.2 2.1-.2 2.1l7.5 10.3c.4.6.4 1.8 0 2.4l-10 15.3-.2.8v.9c0 .3 0 .6.3.8l11 13.8c-.3-.1-1.2-.3-2.4-.3a8 8 0 0 0-5.6 2 10 10 0 0 0-3.4 7.2c0 1.4.3 2.8 1 3.9 2.2 3.1 9.6 12.6 9.6 12.6s.9 1 1.8.4c.9-.7.7-1.6.4-2.1l-3.5-6.3s-.7-1.4-.7-3.2c0-1.2.4-2.8 1.7-4.1a5.3 5.3 0 0 1 3.9-1.6 6 6 0 0 1 3.1.9l4 2.5s1.1.6 1.7-.3c.5-.8.3-1.2 0-1.7m320.2-36.9c-.7-.3-1.4 0-1.7.7-.4.6-3.5 6.5-8 9.7-1.3 1-2.9 1.6-4.4 2a7 7 0 1 0-8 1.9 14.5 14.5 0 0 0 14-1.6c1.4-1 2.5-2.2 3.6-3.4l-11.3 35.3 2.6.8 14-43.7c.2-.7 0-1.4-.8-1.7m277.3 0c-.7-.3-1.4 0-1.7.7-.3.6-3.5 6.5-7.9 9.7-1.4 1-3 1.6-4.5 2a7 7 0 1 0-8 1.9 14.5 14.5 0 0 0 14-1.6 24 24 0 0 0 3.7-3.4l-11.3 35.3 2.6.8 14-43.7c.2-.7-.1-1.4-.9-1.7m211.2 0c-.8-.3-1.4 0-1.8.7-.3.6-3.4 6.5-7.8 9.7-1.4 1-3 1.6-4.5 2a7 7 0 1 0-8 1.9 14.5 14.5 0 0 0 14-1.6 29 29 0 0 0 3.6-3.4l-11.3 35.3 2.6.8 14-43.7c.2-.7 0-1.4-.8-1.7m102 36.9-.2-.3-.6-.7-11.4-14.1c-.3-.3-.2-1 0-1.5l10.2-15.3.2-.7v-.9c0-.3-.1-.6-.3-.8l-16.1-21.7s-.8-1.2-1.8-.3c-1 .8-.2 2.1-.2 2.1l7.5 10.3c.4.6.4 1.8 0 2.4l-10 15.3-.2.8v.9c0 .3.1.6.3.8l11.1 13.8c-.4-.1-1.3-.3-2.5-.3-1.6 0-3.8.4-5.6 2a10 10 0 0 0-3.4 7.2c0 1.4.3 2.8 1.1 3.9a319 319 0 0 0 9.5 12.6s1 1 1.8.4c1-.7.7-1.6.4-2.1l-3.5-6.3s-.6-1.4-.6-3.2c0-1.2.3-2.8 1.6-4.1a5.3 5.3 0 0 1 4-1.6 6 6 0 0 1 3 .9l4 2.5s1.1.6 1.7-.3c.5-.8.3-1.2 0-1.7m320.3-36.9c-.8-.3-1.5 0-1.8.7-.3.6-3.5 6.5-7.9 9.7-1.4 1-3 1.6-4.5 2a7 7 0 1 0-8 1.9 14.5 14.5 0 0 0 14-1.6 24 24 0 0 0 3.7-3.4l-11.3 35.3 2.6.8 14-43.7c.2-.7-.1-1.4-.9-1.7m277.4 0c-.7-.3-1.4 0-1.7.7-.4.6-3.5 6.5-8 9.7-1.3 1-2.9 1.6-4.4 2a7 7 0 1 0-8 1.9 14.5 14.5 0 0 0 14-1.6 29 29 0 0 0 3.6-3.4l-11.3 35.3 2.6.8 14-43.7c.2-.7 0-1.4-.8-1.7m211.1 0c-.7-.3-1.4 0-1.7.7-.3.6-3.5 6.5-7.9 9.7-1.4 1-3 1.6-4.5 2a7 7 0 1 0-8 1.9 14.5 14.5 0 0 0 14-1.6c1.4-1 2.6-2.2 3.6-3.4l-11.3 35.3 2.7.8 14-43.7c.1-.7-.1-1.4-.9-1.7m102.1 36.9-.2-.3-.6-.7-11.4-14.1c-.3-.3-.2-1 0-1.5l10-15.3c.2-.2.3-.5.3-.7v-.9c0-.3-.1-.6-.3-.8l-16-21.7s-.9-1.2-1.9-.3c-1 .8-.2 2.1-.2 2.1l7.6 10.3c.4.6.4 1.8 0 2.4l-10 15.3-.2.8v.9c0 .3 0 .6.3.8l11 13.8c-.3-.1-1.2-.3-2.4-.3-1.7 0-3.9.4-5.7 2-2.1 2-3.3 4.7-3.3 7.2 0 1.4.3 2.8 1 3.9a319 319 0 0 0 9.6 12.6s.9 1 1.8.4c.9-.7.7-1.6.4-2.1l-3.5-6.3s-.7-1.4-.7-3.2c0-1.2.4-2.8 1.7-4.1a5.3 5.3 0 0 1 3.8-1.6 6 6 0 0 1 3.2.9l3.9 2.5s1.2.6 1.8-.3c.5-.8.3-1.2 0-1.7m320.2-36.9c-.8-.3-1.4 0-1.8.7-.3.6-3.4 6.5-7.8 9.7-1.4 1-3 1.6-4.5 2a7 7 0 1 0-8 1.9 14.5 14.5 0 0 0 14-1.6 29 29 0 0 0 3.6-3.4l-11.3 35.3 2.6.8 14-43.7c.2-.7 0-1.4-.8-1.7m270.3 0c-.8-.3-1.5 0-1.8.7-.3.6-3.5 6.5-7.9 9.7-1.4 1-3 1.6-4.5 2a7 7 0 1 0-8 1.9 14.5 14.5 0 0 0 14-1.6c1.4-1 2.6-2.2 3.6-3.4l-11.3 35.3 2.7.8 14-43.7c.2-.7-.1-1.4-.9-1.7M1697.2 2265c-.7-.2-1.4.1-1.7.7-.4.6-3.5 6.5-8 9.7a11 11 0 0 1-4.4 2 7 7 0 1 0-8 1.9 14.5 14.5 0 0 0 14-1.6 29 29 0 0 0 3.6-3.4l-11.3 35.3 2.6.9 14-43.8c.2-.7 0-1.4-.8-1.7m1640.6 0c-.7-.2-1.4.1-1.7.7-.3.6-3.5 6.5-7.9 9.7-1.3 1-3 1.7-4.5 2a7 7 0 1 0-8 1.9 14.5 14.5 0 0 0 14-1.6 24 24 0 0 0 3.7-3.4l-11.3 35.3 2.6.9 14-43.8c.2-.7-.1-1.4-.9-1.7m108.9 37-.2-.4-.6-.7-11.4-14c-.3-.4-.2-1.2 0-1.6l10-15.2c.2-.2.3-.5.3-.7v-1a1 1 0 0 0-.3-.7l-16.1-21.7s-.8-1.2-1.8-.3c-1 .8-.2 2-.2 2l7.6 10.4c.4.6.4 1.8 0 2.3l-10 15.3c-.2.2-.3.6-.3.8v1c0 .2.1.5.3.7l11.1 13.8c-.3-.1-1.2-.3-2.4-.3-1.7 0-3.9.4-5.7 2a10 10 0 0 0-3.4 7.2c0 1.4.3 2.8 1.1 3.9a319 319 0 0 0 9.6 12.6s.8 1 1.7.4c1-.7.7-1.6.4-2l-3.4-6.3s-.7-1.4-.7-3.2c0-1.3.4-2.9 1.7-4.2a5.3 5.3 0 0 1 3.8-1.6 6 6 0 0 1 3.2 1l3.9 2.4s1.2.6 1.8-.3c.5-.8.3-1.2 0-1.7m156.6-28.5v10.8c0 1.3 0 1.3 1.4 1.3h29.5c1.4 0 1.4 0 1.4-1.3v-10.8c0-1.3 0-1.3-1.4-1.3h-29.5c-1.4 0-1.4 0-1.4 1.3m-265.5-221.3c-.7-.3-1.4 0-1.7.7-.3.6-3.5 6.5-7.9 9.7a13 13 0 0 1-4.5 2 7 7 0 1 0-8 1.9 14.5 14.5 0 0 0 14-1.6 24 24 0 0 0 3.7-3.4l-11.3 35.3 2.6.9 14-43.8c.2-.7-.1-1.4-.9-1.7m108.9 36.9-.2-.3-.6-.7-11.4-14c-.3-.4-.2-1.2 0-1.6l10-15.3c.2-.2.3-.5.3-.7v-.8c0-.3-.1-.6-.3-.8l-16.1-21.8s-.8-1.2-1.8-.3c-1 .8-.2 2.1-.2 2.1l7.6 10.3c.4.6.4 1.8 0 2.4l-10 15.3c-.2.2-.3.6-.3.8v.9c0 .3.1.6.3.8l11.1 13.8c-.3-.1-1.2-.3-2.4-.3-1.7 0-3.9.4-5.7 2a10 10 0 0 0-3.4 7.2c0 1.4.3 2.8 1.1 3.9a319 319 0 0 0 9.6 12.6s.8 1 1.7.4c1-.7.7-1.6.4-2.1l-3.4-6.3s-.7-1.4-.7-3.1c0-1.3.4-3 1.7-4.2a5.3 5.3 0 0 1 3.8-1.6 6 6 0 0 1 3.2.9l3.9 2.5s1.2.6 1.8-.3c.5-.8.3-1.2 0-1.7m156.6-28.5v10.7c0 1.4 0 1.4 1.4 1.4h29.5c1.4 0 1.4 0 1.4-1.4v-10.7c0-1.4 0-1.4-1.4-1.4h-29.5c-1.4 0-1.4 0-1.4 1.4M572.8 753.9c-.7-.3-1.4 0-1.7.6-.4.6-3.5 6.5-8 9.8-1.3 1-2.9 1.6-4.4 2a7 7 0 1 0-8 1.9c1.6.6 3.5 1 5.5 1 2.8 0 6-.7 8.6-2.7 1.3-1 2.4-2.1 3.5-3.4L557 798.5l2.6.8 14-43.7c.2-.8 0-1.4-.8-1.7m105.6 0c-.8-.3-1.4 0-1.8.6-.3.6-3.5 6.5-7.8 9.8-1.4 1-3 1.6-4.5 2a7 7 0 1 0-8 1.9c1.5.6 3.4 1 5.5 1 2.8 0 5.9-.7 8.6-2.7 1.2-1 2.4-2.1 3.5-3.4l-11.3 35.4 2.6.8 14-43.7c.2-.8-.1-1.4-.8-1.7m211.1 0c-.7-.3-1.4 0-1.7.6-.4.6-3.5 6.5-8 9.8-1.3 1-2.9 1.6-4.4 2a7 7 0 1 0-8 1.9c1.6.6 3.5 1 5.5 1 2.8 0 6-.7 8.6-2.7 1.3-1 2.4-2.1 3.5-3.4l-11.3 35.4 2.6.8 14-43.7c.2-.8 0-1.4-.8-1.7m594 0c-.7-.3-1.4 0-1.7.6-.3.6-3.5 6.5-7.9 9.8-1.4 1-3 1.6-4.5 2a7 7 0 1 0-8 1.9c1.6.6 3.5 1 5.5 1 2.9 0 6-.7 8.6-2.7a23 23 0 0 0 3.6-3.4l-11.3 35.4 2.6.8 14-43.7c.2-.8-.1-1.4-.9-1.7m105.6 0c-.7-.3-1.4 0-1.7.6-.4.6-3.5 6.5-7.9 9.8-1.4 1-3 1.6-4.5 2a7 7 0 1 0-8 1.9c1.6.6 3.5 1 5.5 1 2.8 0 6-.7 8.6-2.7 1.3-1 2.5-2.1 3.5-3.4l-11.3 35.4 2.6.8 14-43.7c.2-.8 0-1.4-.8-1.7m211.1 0c-.7-.3-1.4 0-1.7.6-.3.6-3.5 6.5-7.9 9.8-1.4 1-3 1.6-4.5 2a7 7 0 1 0-8 1.9c1.6.6 3.5 1 5.5 1 2.9 0 6-.7 8.6-2.7a23 23 0 0 0 3.6-3.4l-11.3 35.4 2.6.8 14-43.7c.2-.8-.1-1.4-.9-1.7m594.1 0c-.7-.3-1.4 0-1.7.6-.4.6-3.5 6.5-8 9.8-1.3 1-2.9 1.6-4.4 2a7 7 0 1 0-8 1.9c1.6.6 3.5 1 5.5 1 2.8 0 5.9-.7 8.6-2.7 1.2-1 2.4-2.1 3.5-3.4l-11.3 35.4 2.6.8 14-43.7c.2-.8 0-1.4-.8-1.7m105.5 0c-.7-.3-1.4 0-1.7.6-.3.6-3.5 6.5-7.9 9.8a13 13 0 0 1-4.5 2 7 7 0 1 0-8 1.9c1.6.6 3.5 1 5.6 1 2.8 0 5.9-.7 8.6-2.7 1.2-1 2.4-2.1 3.5-3.4l-11.3 35.4 2.6.8 14-43.7c.2-.8-.1-1.4-.9-1.7m211.2 0c-.8-.3-1.4 0-1.8.6a32 32 0 0 1-7.8 9.8c-1.4 1-3 1.6-4.5 2a7 7 0 1 0-8 1.9 15.4 15.4 0 0 0 14.1-1.7c1.2-1 2.4-2.1 3.5-3.4l-11.3 35.4 2.6.8 14-43.7c.2-.8 0-1.4-.8-1.7m587 0c-.8-.3-1.5 0-1.8.6-.3.6-3.5 6.5-7.9 9.8-1.4 1-3 1.6-4.5 2a7 7 0 1 0-8 1.9c1.6.6 3.5 1 5.5 1 2.9 0 6-.7 8.6-2.7 1.3-1 2.5-2.1 3.5-3.4l-11.3 35.4 2.7.8 14-43.7c.2-.8-.1-1.4-.9-1.7M1697.2 2002.5c-.7-.3-1.4 0-1.7.7-.4.6-3.5 6.5-8 9.7-1.3 1-2.9 1.6-4.4 2a7 7 0 1 0-8 1.9 14.5 14.5 0 0 0 14-1.6 29 29 0 0 0 3.6-3.4l-11.3 35.3 2.6.9 14-43.8c.2-.7 0-1.4-.8-1.7m1640.6-49.5c-.7-.4-1.4 0-1.7.6-.3.6-3.5 6.5-7.9 9.7a13 13 0 0 1-4.5 2 7 7 0 1 0-8 1.9 14.5 14.5 0 0 0 14-1.6 24 24 0 0 0 3.7-3.4l-11.3 35.3 2.6.8 14-43.7c.2-.7-.1-1.4-.9-1.7m108.9 36.9-.2-.3-.6-.7-11.4-14.1c-.3-.3-.2-1 0-1.5l10-15.3c.2-.2.3-.5.3-.7v-.9c0-.3-.1-.6-.3-.8l-16.1-21.7s-.8-1.2-1.8-.3c-1 .8-.2 2.1-.2 2.1l7.6 10.3c.4.6.4 1.8 0 2.4l-10 15.3c-.2.2-.3.6-.3.8v.9c0 .3.1.6.3.8l11.1 13.8c-.3-.1-1.2-.3-2.4-.3-1.7 0-3.9.4-5.7 2a10 10 0 0 0-3.4 7.2c0 1.4.3 2.8 1.1 3.9a319 319 0 0 0 9.6 12.6s.8 1 1.7.4c1-.7.7-1.6.4-2.1l-3.4-6.3s-.7-1.4-.7-3.2c0-1.2.4-2.8 1.7-4.1a5.3 5.3 0 0 1 3.8-1.6 6 6 0 0 1 3.2.9l3.9 2.5s1.2.6 1.8-.3c.5-.8.3-1.2 0-1.7m156.6-28.5v10.7c0 1.4 0 1.4 1.4 1.4h29.5c1.4 0 1.4 0 1.4-1.4v-10.7c0-1.4 0-1.4-1.4-1.4h-29.5c-1.4 0-1.4 0-1.4 1.4M3298 483.4c-.8-.3-1.5 0-1.8.7-.3.6-3.5 6.5-7.9 9.7-1.4 1-3 1.6-4.5 2a7 7 0 1 0-8 1.9 14.5 14.5 0 0 0 14-1.6c1.4-1 2.6-2.2 3.6-3.4l-11.3 35.3 2.7.9 14-43.8c.2-.7-.1-1.4-.9-1.7M1697.2 1734.5c-.7-.3-1.4 0-1.7.7-.4.6-3.5 6.4-8 9.7-1.3 1-2.9 1.6-4.4 2a7 7 0 1 0-8 1.9 14.5 14.5 0 0 0 14-1.6c1.3-1 2.5-2.2 3.6-3.5l-11.3 35.4 2.6.8 14-43.7c.2-.7 0-1.4-.8-1.7m90.2 8.4v10.7c0 1.4 0 1.4 1.3 1.4h29.5c1.4 0 1.4 0 1.4-1.4V1743c0-1.4 0-1.4-1.4-1.4h-29.5c-1.3 0-1.3 0-1.3 1.4m933.5-13.7h-29.5c-.8 0-1.4.6-1.4 1.4v10.7c0 .8.6 1.4 1.4 1.4h29.5c.7 0 1.3-.6 1.3-1.4v-10.7c0-.8-.6-1.4-1.3-1.4m798.1 0h-29.5c-.8 0-1.4.6-1.4 1.4v10.7c0 .8.6 1.4 1.4 1.4h29.5c.8 0 1.4-.6 1.4-1.4v-10.7c0-.8-.6-1.4-1.4-1.4M3298 235.7c-.8-.3-1.5 0-1.8.7-.3.6-3.5 6.5-7.9 9.7a12 12 0 0 1-4.5 2 7 7 0 1 0-8 1.9 14.5 14.5 0 0 0 14-1.6c1.4-1 2.6-2.2 3.6-3.4l-11.3 35.3 2.7.9 14-43.8c.2-.7-.1-1.4-.9-1.7M1697.2 1486.8c-.7-.3-1.4 0-1.7.7-.4.6-3.5 6.5-8 9.7-1.3 1-2.9 1.6-4.4 2a7 7 0 1 0-8 1.9 14.5 14.5 0 0 0 14-1.6 29 29 0 0 0 3.6-3.4l-11.3 35.3 2.6.8 14-43.7c.2-.7 0-1.4-.8-1.7m1640.6 0c-.7-.3-1.4 0-1.7.7-.3.6-3.5 6.5-7.9 9.7a13 13 0 0 1-4.5 2 7 7 0 1 0-8 1.9 14.5 14.5 0 0 0 14-1.6 24 24 0 0 0 3.7-3.4l-11.3 35.3 2.6.8 14-43.7c.2-.7-.1-1.4-.9-1.7m108.9 36.9-.2-.3-.6-.7-11.4-14.1c-.3-.3-.2-1 0-1.5l10-15.3c.2-.2.3-.5.3-.7v-.9c0-.3-.1-.6-.3-.8l-16.1-21.7s-.8-1.2-1.8-.3c-1 .8-.2 2.1-.2 2.1l7.6 10.3c.4.6.4 1.8 0 2.4l-10 15.3c-.2.2-.3.6-.3.8v.9c0 .3.1.6.3.8l11.1 13.8c-.3-.1-1.2-.3-2.4-.3-1.7 0-3.9.4-5.7 2a10 10 0 0 0-3.4 7.2c0 1.4.3 2.8 1.1 3.9a319 319 0 0 0 9.6 12.6s.8 1 1.7.4c1-.7.7-1.6.4-2.1l-3.4-6.3s-.7-1.4-.7-3.2c0-1.2.4-2.8 1.7-4.1a5.3 5.3 0 0 1 3.8-1.6 6 6 0 0 1 3.2.9l3.9 2.5s1.2.6 1.8-.3c.5-.8.3-1.2 0-1.7m156.6-28.5v10.7c0 1.4 0 1.4 1.4 1.4h29.5c1.4 0 1.4 0 1.4-1.4v-10.7c0-1.4 0-1.4-1.4-1.4h-29.5c-1.4 0-1.4 0-1.4 1.4" style="stroke-width:.992126"/><path d="M514.1 1385.6a3.9 3.9 0 1 0 5.5-5.4 3.9 3.9 0 0 0-5.5 5.4m117.3-12.4a3.9 3.9 0 1 0 5.5-5.4 3.9 3.9 0 0 0-5.5 5.4" style="stroke-width:.992126"/><path d="M450.4 1181.2H474v-2.2h-8l6.2-16.8.3.7s1 2.5 4.6 3.3c.6.2 1.3.3 2 .3 5.7 0 11.6-6 13.7-14.4.6-2.3.8-4.2.8-5.9 0-7-4.3-8.8-5.9-9.2l-1.4-.1c-3.2 0-6.5 2.7-8.3 4.4l-.3.4-.1-.4s-2.2-4-6-4.5h-1c-3.5 0-7.2 2.3-10.1 11l1.8.8a27 27 0 0 1 2.8-6.3 5 5 0 0 1 2.8-2c.5 0 .9 0 1.2.3.4.2.6.8.6 1.6 0 2.5-1.9 7-2.4 8L457 1179h-6.5v2.2m26.4-18.3a4 4 0 0 1-.8-.1c-1.5-.6-2-2.4-2-4.5 0-3.2 1.2-7 1.3-7.3 1-4 3.9-8.3 6.6-9.9a4 4 0 0 1 2-.6l.9.1c.4.1.8.5 1 1 .3.6.4 1.4.4 2.3a32 32 0 0 1-1.7 8.5c-1.3 4-3.9 9-6.5 10.2l-1.2.3m-20.6-3.4c-.5.9-1 1.1-1.5 1.1h-.6c-.6-.3-.8-.7-.8-1.3 0-.9.5-2 .9-3.3l.9-3.3a37.7 37.7 0 0 0 1.3-10.4c-.5-2.8-1.8-4.2-4-4.2-2.7 0-5.6 2-7 3.8l-.2.4-.2-.5s-1.7-3.7-4.5-3.7a8 8 0 0 0-6.8 3.6l-.3.4-.2-.5c0-.1-1.3-3-4-3.5l-1.4-.2a6.5 6.5 0 0 0-4.9 2.4c-.6.7-2.1 3.2-2.8 5.5l1.5.9s1.8-5.6 4.1-5.6h.5c.6.3.9.8.9 1.6 0 1.5-.9 4-2 7.3l-4.2 12.6v1.2c.3.3.6.4 1 .4h5.5c.2 0 .7 0 1.1-1.7a65 65 0 0 1 1.5-5.5c.4-1.6 4.2-15.3 7.8-15.3.2 0 .5.1.6.3.2.3.3.6.3 1.1 0 1.9-1 5.2-2.3 9.4l-3 10c0 .3-.2 1 .1 1.4.2.2.5.3.9.3h5.7c.5 0 1-.2 1.1-1.3l.1-.6c2.1-14.6 5.5-19 8-20.1h.5c.3 0 .5.5.5 1 0 1-.6 5.2-2.8 10.8a12 12 0 0 0-1 4.5c0 1.5.4 2.9 1.1 3.9.8 1.2 2.7 1.9 4.1 1.9 4.7 0 6.5-3.8 7.8-7.5l.3-.5-1.7-.8s-1.2 2.8-2 4m-13.8-252.9h23.4v-2.1H458l6.1-16.8.3.7s1.1 2.4 4.6 3.3c.7.2 1.3.2 2 .2 5.7 0 11.6-6 13.8-14.3.6-2.4.8-4.3.8-6 0-7-4.4-8.7-6-9.1l-1.3-.2c-3.3 0-6.6 2.7-8.3 4.5l-.3.3-.2-.4s-2.2-3.9-5.9-4.4l-1.1-.1c-3.5 0-7.1 2.4-10 11l1.8.9c.4-1.4 1.6-4.7 2.8-6.3.6-1 1.7-1.8 2.7-2 .5-.1 1 0 1.2.2.4.3.6.8.6 1.6 0 2.5-1.8 7-2.3 8l-10.4 28.9h-6.4v2m26.3-18.2h-.8c-1.5-.7-2-2.5-2-4.5 0-3.3 1.3-7 1.3-7.3 1-4 4-8.4 6.7-10a4 4 0 0 1 2-.5h.8c.5.2.8.6 1 1 .4.6.5 1.4.5 2.4a32 32 0 0 1-1.7 8.4c-1.4 4.1-4 9-6.6 10.3l-1.2.2m-20.6-3.3c-.5.8-1 1-1.5 1h-.6c-.6-.2-.8-.6-.8-1.2 0-1 .5-2.1.9-3.4l1-3.2a37.9 37.9 0 0 0 1.3-10.4c-.5-2.8-1.9-4.2-4-4.2-2.8 0-5.6 2-7 3.7l-.3.5-.2-.5s-1.6-3.8-4.4-3.8a8 8 0 0 0-6.9 3.6l-.3.4-.2-.5s-1.3-3-4-3.5l-1.4-.1a6.5 6.5 0 0 0-4.8 2.4 19 19 0 0 0-2.9 5.4l1.5 1s1.9-5.7 4.2-5.7l.5.1c.6.2.8.7.8 1.6 0 1.4-.8 4-2 7.3l-4.2 12.6.1 1.2c.2.2.5.4 1 .4h5.5c.1 0 .7-.1 1-1.7.6-2.4 1-4.2 1.5-5.6.4-1.5 4.3-15.3 7.9-15.3l.6.3.2 1.2c0 1.8-1 5.1-2.2 9.3l-3 10.1c-.1.2-.3 1 0 1.3.2.2.5.4.9.4h5.7c.5 0 1-.2 1.2-1.3v-.7c2.2-14.6 5.5-19 8-20.1h.6c.2.1.4.5.4 1 0 1-.6 5.2-2.8 10.8-.6 1.7-.9 3.2-.9 4.6 0 1.5.3 2.8 1 3.8.9 1.3 2.7 2 4.2 2 4.6 0 6.4-3.9 7.8-7.5l.2-.6-1.7-.8s-1.2 2.9-1.9 4m1.9-212.3a5.7 5.7 0 0 0-5.4 5.5c0 5.5 3.7 8.5 8.5 8.5a11 11 0 0 0 8.4-3.7c4.6-4.6 9.6-20.2 12.2-29.1l2.6-9v-.3h7.6c.6 0 1.1-.5 1.1-1v-2.3c0-.6-.5-1.1-1.1-1.1h-6.3l.1-.4c3-10.8 3.8-12.6 5.4-13.8a3 3 0 0 1 2-.8h.6c.5.1.8.5 1 1l.1.5c0 .5-.2 1-.6 1.2-1 .8-1.6 2.1-1.6 3.5 0 .5 0 1 .2 1.6.3 1 1.1 1.9 2.2 2.3.5.3 1 .4 1.8.4s1.6-.1 2.6-.7a4.7 4.7 0 0 0 2.5-3c.2-.6.2-1.2.2-1.8 0-1.3-.4-2.7-1-4-.9-1.5-3.4-3.3-6.7-3.9l-1.8-.2c-2.5 0-5.8 1-9.2 4-2.7 2.5-5.1 7-7.5 13.9v.2h-8a1 1 0 0 0-1 1v2.3c0 .6.5 1.1 1 1.1h6.6v.4a219 219 0 0 0-2.7 11.2l-3 12.8-.3 1.2c-2.2 8.5-2.9 11.7-5.4 13.3a3 3 0 0 1-1.8.6c-.5 0-1-.2-1.4-.5-.3-.2-.7-.7-.6-1.2 0-.5.4-.8.9-1 2-.8 2.6-2.8 2.6-4.5 0-1.5-1-4.2-4.8-4.2m5.4-11.3c-.5.8-1 1-1.5 1h-.6c-.6-.3-.8-.7-.8-1.3 0-.8.5-2 .9-3.3.2-.7.7-2.7 1-3.3a37.8 37.8 0 0 0 1.2-10.4c-.5-2.8-1.8-4.1-4-4.1-2.7 0-5.5 1.9-7 3.7l-.2.4-.2-.4c0-.1-1.7-3.8-4.5-3.8a8 8 0 0 0-6.8 3.6l-.3.4-.2-.5s-1.3-3-4-3.5l-1.4-.2a6.5 6.5 0 0 0-4.9 2.5 19 19 0 0 0-2.8 5.4l1.5.9s1.8-5.6 4.1-5.6h.5c.6.3 1 .8 1 1.6 0 1.5-1 4-2.1 7.3l-4.2 12.6c-.1.5-.1 1 .1 1.3.2.2.5.3.9.3h5.5c.2 0 .8 0 1.1-1.7.5-2.3 1-4 1.5-5.5.4-1.6 4.3-15.3 7.8-15.3.3 0 .5.2.6.3.2.3.3.6.3 1.2 0 1.8-1 5-2.2 9.3l-3.1 10c0 .3-.2 1 .1 1.4.2.2.5.3.9.3h5.7c.5 0 1-.1 1.1-1.2l.2-.7c2-14.6 5.4-19 7.8-20.1h.6c.3 0 .5.5.5 1 0 1-.6 5.2-2.8 10.8a12 12 0 0 0-1 4.6c0 1.5.4 2.8 1.1 3.8a5.5 5.5 0 0 0 4.2 1.9c4.6 0 6.4-3.8 7.8-7.4l.2-.6-1.7-.8s-1.2 2.9-1.9 4m-26.1-263.5a5.7 5.7 0 0 0-5.4 5.4c0 5.5 3.7 8.6 8.5 8.6a11 11 0 0 0 8.4-3.8c4.6-4.5 9.6-20.2 12.2-29l2.6-9.1v-.3h7.6c.6 0 1-.4 1-1v-2.3c0-.6-.4-1-1-1H457l.1-.4c3-10.8 3.8-12.6 5.4-13.8.8-.7 1.6-.9 2-.9h.6c.4.2.8.6 1 1l.1.6c0 .5-.2 1-.6 1.2-1 .8-1.6 2-1.6 3.4 0 .5 0 1 .2 1.6.3 1 1.1 2 2.2 2.4.5.2 1 .4 1.8.4s1.6-.2 2.6-.7a5 5 0 0 0 2.5-3c.2-.6.2-1.2.2-1.8 0-1.3-.4-2.8-1-4-.9-1.5-3.4-3.4-6.7-4l-1.8-.1c-2.5 0-5.8.9-9.2 4-2.7 2.5-5.1 7-7.5 13.8v.2h-8c-.5 0-1 .5-1 1.1v2.3c0 .6.5 1.1 1 1.1h6.6l-.1.3-2.6 11.3-3 12.7-.3 1.2c-2.2 8.6-2.9 11.7-5.4 13.4-.5.3-1.2.5-1.8.5-.5 0-1-.1-1.4-.5-.3-.2-.7-.6-.6-1.2 0-.4.4-.7.9-1 2-.8 2.6-2.8 2.6-4.4 0-1.5-1-4.2-4.8-4.2"/><path fill-rule="evenodd" d="m2050.3 2254 119.4 6.3v12.5l-119.4-6.4V2254m-29.5-194.2 119.4 6.4v12.4l-119.4-6.4v-12.4m-203.9-210.6 352.8-31.2v12.4l-352.8 31.3v-12.5m891.7-6.4h358.6v12.4h-358.6v-12.4m-1146-1543.6 108.3-6.3v12.4l-108.3 6.3v-12.4m422.2 6.2 108.3-6.3v12.4l-108.2 6.3v-12.4M383.4 1575l354.7-31.2v12.5l-354.7 31.2v-12.4m469.3-43.4h354.6v12.4H852.7v-12.4m934.7 24.8 352.8-31.2v12.4l-352.8 31.2v-12.4m891.7-6.2 358.6-6.2v12.4l-358.6 6.2v-12.4"/><path d="m473.7 1027.6-1-4c0-.4-.7-.7-1.2-.7-.7 0-1.3.6-1.3 1.3v22.4c0 .5.4 1 .8 1.1a39.7 39.7 0 0 1 19.3 17.8c1.8 3 4.6 7.2 4.6 15.6 0 7.1-1 14.6-2.8 21.6-.3 1-.6 2 .4 2.5 1.1.4 1.5-.4 2-1.4a65.3 65.3 0 0 0 4.4-24v-2c-.5-12.7-7.8-22.1-7.8-22.1.3 0-9.2-12.2-11.8-16.4a50.2 50.2 0 0 1-5.6-11.7m211.1 0-1-4c0-.4-.7-.7-1.2-.7-.6 0-1.2.6-1.2 1.3v22.4c0 .5.4 1 .8 1.1a39.7 39.7 0 0 1 19.2 17.8c1.8 3 4.7 7.2 4.7 15.6a84 84 0 0 1-3 21.6c-.2 1-.5 2 .6 2.5 1 .4 1.5-.4 1.9-1.4a65.3 65.3 0 0 0 4.4-24v-2c-.5-12.7-7.8-22.1-7.8-22.1.3 0-9.1-12.2-11.8-16.4a50.2 50.2 0 0 1-5.6-11.7m422.2 0-.9-4c-.1-.4-.7-.7-1.2-.7-.7 0-1.3.6-1.3 1.3v22.4c0 .5.4 1 .8 1.1a39.7 39.7 0 0 1 19.3 17.8c1.7 3 4.6 7.2 4.6 15.6 0 7.1-1 14.6-2.9 21.6-.3 1-.5 2 .5 2.5 1.1.4 1.5-.4 2-1.4a65.4 65.4 0 0 0 4.4-24v-2c-.5-12.7-7.8-22.1-7.8-22.1.3 0-9.2-12.2-11.9-16.4a50.2 50.2 0 0 1-5.5-11.7m277.3-12.4-1-4c0-.4-.6-.7-1.1-.7-.7 0-1.3.6-1.3 1.3v22.4c0 .5.4 1 .8 1.1a39.7 39.7 0 0 1 19.2 17.8c1.8 3 4.7 7.2 4.7 15.6 0 7.1-1.1 14.6-2.9 21.6-.3 1-.6 2 .5 2.5 1 .4 1.5-.4 1.9-1.4a65.4 65.4 0 0 0 4.4-24v-2c-.5-12.7-7.8-22.1-7.8-22.1.3 0-9.1-12.2-11.8-16.4a50.2 50.2 0 0 1-5.6-11.7m211.2 0-1-4c-.1-.4-.7-.7-1.2-.7-.7 0-1.3.6-1.3 1.3v22.4c0 .5.4 1 .8 1.1a39.7 39.7 0 0 1 19.2 17.8c1.8 3 4.7 7.2 4.7 15.6 0 7.1-1 14.6-2.9 21.6-.3 1-.6 2 .5 2.5 1.1.4 1.5-.4 2-1.4a65.4 65.4 0 0 0 4.4-24v-2c-.5-12.7-7.9-22.1-7.9-22.1.3 0-9-12.2-11.8-16.4a50.2 50.2 0 0 1-5.5-11.7m422.2 0-1-4c0-.4-.7-.7-1.2-.7-.6 0-1.2.6-1.2 1.3v22.4c0 .5.4 1 .8 1.1a39.7 39.7 0 0 1 19.2 17.8c1.8 3 4.7 7.2 4.7 15.6a84 84 0 0 1-3 21.6c-.2 1-.5 2 .6 2.5 1 .4 1.5-.4 1.9-1.4a65.4 65.4 0 0 0 4.4-24v-2c-.5-12.7-7.8-22.1-7.8-22.1.3 0-9.1-12.2-11.8-16.4a50.2 50.2 0 0 1-5.6-11.7m277.4-12.4-1-4c-.1-.4-.7-.7-1.2-.7-.7 0-1.3.6-1.3 1.3v22.4c0 .5.4 1 .8 1.1a39.7 39.7 0 0 1 19.3 17.8c1.7 3 4.6 7.2 4.6 15.6 0 7.1-1 14.6-2.9 21.6-.3 1-.6 2 .5 2.5 1.1.4 1.5-.4 2-1.4a65.4 65.4 0 0 0 4.4-24v-2c-.5-12.7-7.9-22.1-7.9-22.1.3 0-9-12.2-11.8-16.4a50.2 50.2 0 0 1-5.5-11.7m211.1 0-1-4c0-.4-.7-.7-1.2-.7-.7 0-1.3.6-1.3 1.3v22.4c0 .5.4 1 .8 1.1a39.7 39.7 0 0 1 19.3 17.8c1.8 3 4.6 7.2 4.6 15.6 0 7.1-1 14.6-2.8 21.6-.3 1-.6 2 .5 2.5 1 .4 1.5-.4 1.8-1.4a65.4 65.4 0 0 0 4.5-24v-2c-.5-12.7-7.8-22.1-7.8-22.1.3 0-9.2-12.2-11.8-16.4a50.2 50.2 0 0 1-5.6-11.7m422.3 0-1-4c-.1-.4-.7-.7-1.2-.7-.7 0-1.3.6-1.3 1.3v22.4c0 .5.4 1 .8 1.1a39.7 39.7 0 0 1 19.2 17.8c1.8 3 4.7 7.2 4.7 15.6 0 7.1-1 14.6-2.9 21.6-.3 1-.6 2 .5 2.5 1.1.4 1.5-.4 2-1.4a65.4 65.4 0 0 0 4.4-24v-2c-.5-12.7-7.9-22.1-7.9-22.1.3 0-9-12.2-11.8-16.4a50.2 50.2 0 0 1-5.5-11.7m272.2-12.4-1-4c-.1-.4-.7-.7-1.2-.7-.7 0-1.3.6-1.3 1.3v22.4c0 .5.4 1 .8 1.1a39.7 39.7 0 0 1 19.2 17.8c1.8 3 4.7 7.2 4.7 15.6 0 7.1-1 14.6-2.9 21.6-.3 1-.6 2 .5 2.5 1.1.4 1.5-.4 2-1.4a65.4 65.4 0 0 0 4.4-24v-2c-.5-12.7-7.9-22.1-7.9-22.1.3 0-9-12.2-11.8-16.4a50.2 50.2 0 0 1-5.5-11.7m-2432.5 1230-1-4c0-.4-.6-.7-1.1-.7-.7 0-1.3.6-1.3 1.3v22.5c0 .5.4.9.8 1a39.7 39.7 0 0 1 19.2 17.8c1.8 3 4.7 7.3 4.7 15.6 0 7.1-1.1 14.7-3 21.6-.2 1.1-.5 2.1.6 2.5 1 .4 1.5-.4 1.9-1.4a65.3 65.3 0 0 0 4.4-24v-1.9c-.5-12.8-7.8-22.2-7.8-22.2.3 0-9.1-12.2-11.8-16.4a50.2 50.2 0 0 1-5.6-11.7m818.7 43.4-1-4c-.1-.3-.7-.6-1.2-.6-.7 0-1.3.6-1.3 1.2v22.5c0 .5.4.9.8 1a39.7 39.7 0 0 1 19.2 17.8c1.8 3.1 4.7 7.3 4.7 15.6 0 7.1-1.1 14.7-2.9 21.6-.3 1.1-.6 2.1.5 2.5 1 .4 1.5-.4 1.9-1.4a65.4 65.4 0 0 0 4.5-24v-1.9c-.5-12.8-7.9-22.2-7.9-22.2.3 0-9.1-12.2-11.8-16.4a50.2 50.2 0 0 1-5.5-11.7m1481 12.4-1-4c-.1-.3-.7-.6-1.2-.6-.7 0-1.3.6-1.3 1.2v22.5c0 .5.4.9.8 1a39.7 39.7 0 0 1 19.3 17.8c1.7 3.1 4.6 7.3 4.6 15.6 0 7.1-1 14.7-2.9 21.6-.3 1.1-.6 2.1.5 2.5 1.1.4 1.5-.4 2-1.4a65.4 65.4 0 0 0 4.4-24v-1.9c-.5-12.8-7.9-22.2-7.9-22.2.3 0-9-12.2-11.8-16.4a50.2 50.2 0 0 1-5.5-11.7m164 0-1-4c-.1-.3-.7-.6-1.2-.6-.7 0-1.3.6-1.3 1.2v22.5c0 .5.4.9.8 1a39.7 39.7 0 0 1 19.3 17.8c1.7 3.1 4.6 7.3 4.6 15.6 0 7.1-1 14.7-2.9 21.6-.3 1.1-.5 2.1.5 2.5 1.1.4 1.5-.4 2-1.4a65.4 65.4 0 0 0 4.4-24v-1.9c-.5-12.8-7.8-22.2-7.8-22.2.3 0-9.2-12.2-11.9-16.4a50.2 50.2 0 0 1-5.5-11.7m-194.5-178.8 1-3.8c0-.4 1.9-6 5.5-11.7 2.7-4.2 12.1-16.4 11.8-16.4 0 0 7.4-9.4 7.9-22.2v-2.3c0-6-.8-14.6-4.3-23.2-.4-1-.8-2-1.9-1.6-1 .4-.8 1.6-.5 2.7a84 84 0 0 1 2.8 21.2c0 8.3-3 12.5-4.8 15.6-6.5 11-15 16.3-19.2 17.7-.5.2-.8.6-.8 1.1v22.4c0 .7.6 1.3 1.3 1.3.5 0 1-.4 1.2-.8m164 0 1-3.8c0-.4 1.9-6 5.5-11.7 2.7-4.2 12.1-16.4 11.8-16.4 0 0 7.4-9.4 7.9-22.2v-2.3c0-6-.8-14.6-4.3-23.2-.4-1-.8-2-1.9-1.6-1 .4-.8 1.6-.5 2.7a84 84 0 0 1 2.8 21.2c0 8.3-3 12.5-4.7 15.6a40.7 40.7 0 0 1-19.3 17.7c-.5.2-.8.6-.8 1.1v22.4c0 .7.6 1.3 1.3 1.3.5 0 1-.4 1.2-.8M443.2 848.8l1-3.9c0-.4 1.9-6 5.5-11.7 2.7-4.2 12.2-16.4 11.9-16.4 0 0 7.3-9.4 7.8-22.2v-2.3c0-6-.8-14.5-4.3-23.2-.4-1-.8-2-1.9-1.6-1 .4-.8 1.6-.5 2.7 1.8 7 2.8 14.1 2.8 21.2 0 8.4-3 12.5-4.7 15.6a41 41 0 0 1-19.3 17.8c-.5.2-.8.6-.8 1v22.5c0 .7.6 1.3 1.3 1.3.5 0 1.1-.4 1.2-.8m316.7 0 1-3.9c0-.4 1.9-6 5.5-11.7 2.7-4.2 12.1-16.4 11.8-16.4 0 0 7.4-9.4 7.9-22.2v-2.3c0-6-.8-14.5-4.3-23.2-.4-1-.8-2-1.9-1.6-1 .4-.8 1.6-.5 2.7 1.8 7 2.8 14.1 2.8 21.2 0 8.4-3 12.5-4.7 15.6a41 41 0 0 1-19.3 17.8c-.5.2-.8.6-.8 1v22.5c0 .7.6 1.3 1.3 1.3.5 0 1.1-.4 1.2-.8m422.3 0 1-3.9c0-.4 1.8-6 5.5-11.7 2.7-4.2 12.1-16.4 11.8-16.4 0 0 7.4-9.4 7.9-22.2v-2.3c0-6-.8-14.5-4.3-23.2-.4-1-.8-2-1.9-1.6-1 .4-.8 1.6-.5 2.7 1.8 7 2.8 14.1 2.8 21.2 0 8.4-3 12.5-4.8 15.6-6.5 11-15 16.4-19.2 17.8-.5.2-.8.6-.8 1v22.5c0 .7.6 1.3 1.3 1.3.5 0 1-.4 1.2-.8m171.8 0a50.2 50.2 0 0 1 6.5-15.6c2.7-4.2 12-16.4 11.8-16.4 0 0 7.3-9.4 7.8-22.2v-2.3c0-6-.8-14.5-4.2-23.2-.4-1-.8-2-2-1.6-1 .4-.7 1.6-.4 2.7 1.8 7 2.8 14.1 2.8 21.2 0 8.4-3 12.5-4.8 15.6-6.5 11-15 16.4-19.2 17.8-.5.2-.8.6-.8 1v22.5c0 .7.6 1.3 1.2 1.3.5 0 1.1-.4 1.2-.8m316.7 0 1-3.9c.1-.4 2-6 5.6-11.7 2.7-4.2 12-16.4 11.8-16.4 0 0 7.3-9.4 7.8-22.2v-2.3c0-6-.8-14.5-4.2-23.2-.4-1-.8-2-2-1.6-1 .4-.7 1.6-.4 2.7 1.8 7 2.8 14.1 2.8 21.2 0 8.4-3 12.5-4.8 15.6-6.5 11-15 16.4-19.2 17.8-.5.2-.8.6-.8 1v22.5c0 .7.6 1.3 1.2 1.3.5 0 1.1-.4 1.2-.8m422.3 12.4 1-3.9c0-.4 1.9-6 5.5-11.7 2.7-4.2 12.2-16.4 11.9-16.4 0 0 7.3-9.4 7.8-22.2v-2.3c0-6-.8-14.5-4.3-23.2-.4-1-.8-2-1.9-1.6-1 .4-.8 1.6-.5 2.7 1.8 7 2.8 14.1 2.8 21.2 0 8.4-3 12.5-4.7 15.6a41 41 0 0 1-19.3 17.8c-.5.2-.8.6-.8 1v22.5c0 .7.6 1.3 1.3 1.3.5 0 1.1-.4 1.2-.8m171.8-24.8 1-3.9c0-.4 1.9-6 5.5-11.7 2.7-4.2 12.1-16.4 11.8-16.4 0 0 7.4-9.4 7.9-22.2V780c0-6-.8-14.5-4.3-23.2-.4-1-.8-2-1.9-1.6-1 .4-.8 1.6-.5 2.7 1.8 7 2.8 14.1 2.8 21.2 0 8.4-3 12.5-4.8 15.6-6.5 11-15 16.4-19.2 17.8-.5.2-.8.6-.8 1V836c0 .7.6 1.3 1.3 1.3.5 0 1-.4 1.2-.8m316.7 12.3 1-3.9c0-.4 1.9-6 5.5-11.7 2.7-4.2 12.1-16.4 11.8-16.4 0 0 7.4-9.4 7.9-22.2v-2.3c0-6-.8-14.5-4.3-23.2-.4-1-.8-2-1.9-1.6-1 .4-.8 1.6-.5 2.7 1.8 7 2.8 14.1 2.8 21.2 0 8.4-3 12.5-4.8 15.6-6.5 11-15 16.4-19.2 17.8-.5.2-.8.6-.8 1v22.5c0 .7.6 1.3 1.3 1.3.5 0 1-.4 1.2-.8m422.2 0 1-3.9c.1-.4 2-6 5.6-11.7 2.7-4.2 12-16.4 11.8-16.4 0 0 7.3-9.4 7.8-22.2v-2.3c0-6-.8-14.5-4.2-23.2-.4-1-.8-2-2-1.6-1 .4-.7 1.6-.4 2.7 1.8 7 2.8 14.1 2.8 21.2 0 8.4-3 12.5-4.8 15.6-6.5 11-15 16.4-19.2 17.8-.5.2-.8.6-.8 1v22.5c0 .7.6 1.3 1.2 1.3.5 0 1.1-.4 1.2-.8m166.7 0 1-3.9c0-.4 1.8-6 5.5-11.7 2.7-4.2 12.1-16.4 11.8-16.4 0 0 7.4-9.4 7.9-22.2v-2.3c0-6-.8-14.5-4.3-23.2-.4-1-.8-2-1.9-1.6-1 .4-.8 1.6-.5 2.7 1.8 7 2.8 14.1 2.8 21.2 0 8.4-3 12.5-4.8 15.6-6.5 11-15 16.4-19.2 17.8-.5.2-.8.6-.8 1v22.5c0 .7.6 1.3 1.3 1.3.5 0 1-.4 1.2-.8M737.8 2097.4l1-3.8c.1-.4 2-6 5.6-11.7 2.7-4.2 12-16.4 11.8-16.4 0 0 7.3-9.4 7.8-22.2v-2.3c0-6-.8-14.6-4.2-23.2-.4-1-.8-2-2-1.6-1 .4-.7 1.6-.4 2.7a84 84 0 0 1 2.8 21.2c0 8.3-3 12.5-4.8 15.6-6.5 11-15 16.3-19.2 17.7-.5.2-.8.6-.8 1.1v22.4c0 .7.6 1.3 1.2 1.3.5 0 1.1-.4 1.2-.8m818.7 24.8a50.2 50.2 0 0 1 6.5-15.6c2.7-4.1 12.1-16.3 11.8-16.3 0 0 7.3-9.4 7.8-22.2v-2.3c0-6-.8-14.6-4.2-23.2-.4-1-.8-2-2-1.6-1 .4-.7 1.6-.4 2.7a84 84 0 0 1 2.8 21.2c0 8.3-3 12.5-4.8 15.6-6.5 11-15 16.3-19.2 17.7-.5.2-.8.6-.8 1.1v22.4c0 .7.6 1.3 1.3 1.3.5 0 1-.4 1.2-.8M3232 1852.5l-1-4c-.1-.4-.7-.7-1.2-.7-.7 0-1.3.6-1.3 1.3v22.4c0 .5.4 1 .8 1.1a39.7 39.7 0 0 1 19.3 17.8c1.7 3 4.6 7.2 4.6 15.5a84 84 0 0 1-2.9 21.7c-.3 1-.5 2 .5 2.5 1.1.4 1.5-.4 2-1.4a65.4 65.4 0 0 0 4.4-24v-2a43 43 0 0 0-7.8-22.2c.3 0-9.2-12.2-11.9-16.3a50.2 50.2 0 0 1-5.5-11.7m-31.2-1432.3-1-4c-.1-.4-.7-.7-1.2-.7-.7 0-1.3.6-1.3 1.3v22.4c0 .5.4 1 .8 1.1a39.7 39.7 0 0 1 19.2 17.8c1.8 3 4.7 7.2 4.7 15.6 0 7-1 14.6-2.9 21.6-.3 1-.6 2 .5 2.5 1.1.4 1.5-.4 2-1.4a65.4 65.4 0 0 0 4.4-24v-2c-.5-12.7-7.9-22.1-7.9-22.1.3 0-9-12.3-11.8-16.4a50.2 50.2 0 0 1-5.5-11.7m-2463 1384.4 1-3.9c.1-.4 2-6 5.6-11.7 2.7-4.1 12-16.3 11.8-16.3 0 0 7.3-9.5 7.8-22.3v-2.3c0-6-.8-14.5-4.2-23.2-.4-1-.8-2-2-1.6-1 .4-.7 1.6-.4 2.7 1.8 7 2.8 14.1 2.8 21.3 0 8.3-3 12.5-4.8 15.5-6.5 11-15 16.4-19.2 17.8-.5.2-.8.6-.8 1v22.5c0 .7.6 1.3 1.2 1.3.5 0 1.1-.4 1.2-.8m818.7 49.6a50.2 50.2 0 0 1 6.5-15.6c2.7-4.1 12.1-16.3 11.8-16.3 0 0 7.3-9.5 7.8-22.3v-2.2c0-6.1-.8-14.6-4.2-23.3-.4-1-.8-2-2-1.5-1 .3-.7 1.5-.4 2.6 1.8 7 2.8 14.1 2.8 21.3 0 8.3-3 12.5-4.8 15.5-6.5 11-15 16.4-19.2 17.8-.5.2-.8.6-.8 1v22.5c0 .7.6 1.3 1.3 1.3.5 0 1-.4 1.2-.8M3170.3 281l1-3.8c0-.4 1.8-6 5.5-11.7 2.7-4.2 12.1-16.4 11.8-16.4 0 0 7.4-9.4 7.9-22.2v-2.3c0-6-.8-14.6-4.3-23.2-.4-1-.8-2-1.9-1.6-1 .4-.8 1.6-.5 2.7a84 84 0 0 1 2.8 21.2c0 8.3-3 12.5-4.8 15.6-6.5 11-15 16.3-19.2 17.7-.5.2-.8.6-.8 1.1v22.4c0 .7.6 1.3 1.3 1.3.5 0 1-.4 1.2-.8M1556.5 1519.7a50.2 50.2 0 0 1 6.5-15.6c2.7-4.1 12.1-16.3 11.8-16.3 0 0 7.3-9.5 7.8-22.3v-2.2c0-6.1-.8-14.6-4.2-23.3-.4-1-.8-2-2-1.5-1 .3-.7 1.5-.4 2.6 1.8 7 2.8 14.1 2.8 21.3 0 8.3-3 12.5-4.8 15.5-6.5 11-15 16.4-19.2 17.8-.5.2-.8.6-.8 1v22.5c0 .7.6 1.3 1.3 1.3.5 0 1-.4 1.2-.8m1645 37.3 1-4c0-.3 1.9-6 5.5-11.7 2.7-4.1 12.1-16.3 11.8-16.3 0 0 7.4-9.5 7.9-22.3v-2.2c0-6-.8-14.6-4.3-23.3-.4-1-.8-2-1.9-1.5-1 .4-.8 1.5-.5 2.6 1.8 7 2.8 14.1 2.8 21.3 0 8.3-3 12.5-4.7 15.5a41 41 0 0 1-19.3 17.8c-.5.2-.8.6-.8 1.1v22.4c0 .7.6 1.3 1.3 1.3.5 0 1-.4 1.2-.8" style="stroke-width:.992126"/><path d="M362.1 98.8h-3.3v45a10 10 0 0 0-5.4-1.4c-2.7 0-5.7.8-8.4 2.3a17.3 17.3 0 0 0-7.2 6.9c-1.4 2.8-1.6 5.5-.4 7.6 1.4 2.6 4.4 4 8 4a18 18 0 0 0 8.4-2.3c5.1-2.8 8.3-7.4 8.3-11.4V98.8m22.3 52.2h30.2v-6.8h-30.2v6.9m0-12.4h30.2v-6.9h-30.2v7m72.8-24.7H455c-3.8 2.9-8 4-15.2 4.2v3.3h2.5c5.3 0 5.4.2 5.3 5V148c0 3.7 0 3.9-.4 4.5-.5.6-1.7.9-5 .9h-1.9v3.2h24v-3.2h-2c-3.1 0-4.3-.3-4.8-1-.4-.5-.4-.8-.4-4.4v-34m17.1 19.7c-1.4 1.5-1.5 1.8-1.5 2.7 0 1.3 1 2.2 2.2 2.2 1.3 0 2.4-1 2.4-2.4v-1c1.8-1.4 4-2.2 6.6-2.2 4.5 0 6.8 3.3 6.8 9.8 0 7.3-2.6 11.1-7.4 11.1-2.7 0-5.3-1.2-5.3-2.5 0-.3.2-.5.7-.8 2.4-1.2 3.3-2.3 3.3-4.3 0-3-2-5-5.1-5-3.5 0-5.8 2.4-5.8 6.2 0 6 5.4 9.9 13.7 9.9 9.8 0 16.5-6 16.5-15 0-7.7-6.3-13.5-14.9-13.5-2.8 0-4.6.5-8.6 2.3l.9-7.7c2.8.6 5.2.9 7.5.9 5 0 9.1-1.7 11.4-4.7a10 10 0 0 0 2-5c0-.4-.2-.7-.5-.7a51.8 51.8 0 0 1-11.8 1c-5 0-8-.2-11.7-1l-1 15.4-.4 4.3m58.1 6.9-.7 3c-.5 2.4-.9 3.1-1.3 3.4-.6.5-.8.5-4.5.5h-11.6c2-1.8 3.6-3 6-4.5a44.6 44.6 0 0 0 12-9 15 15 0 0 0 3.2-8.7c0-6.4-6.3-11.3-14.8-11.3-8.2 0-14.5 5.3-14.5 12.2 0 4.2 2.4 6.9 6 6.9 3.1 0 5-2 5-5.1 0-2.6-1-4.1-3.8-5.4-.7-.3-1-.7-1-1.2 0-2 3.3-4 6.3-4 4.2 0 6.6 2.6 6.6 7 0 5-2 8.6-8.3 15.4-6.7 7.1-9 9.8-12 14.1v2.9l3-.3h22.6c1.1 0 1.9 0 3.7.3l1.3-16.2h-3.2"/><path d="M428 2322.4a5 5 0 1 0 10 0 5 5 0 0 0-10 0m2295.8 74.4a5 5 0 1 0 9.9 0 5 5 0 0 0-10 0m.1-337a5 5 0 1 0 9.9 0 5 5 0 0 0-10 0M428 1985.4a5 5 0 1 0 10 0 5 5 0 0 0-10 0m0-24.8a5 5 0 1 0 10 0 5 5 0 0 0-10 0m0-24.8a5 5 0 1 0 10 0 5 5 0 0 0-10 0m0-193.6a5 5 0 1 0 10 0 5 5 0 0 0-10 0m0-24.8a5 5 0 1 0 10 0 5 5 0 0 0-10 0m0-49.6a5 5 0 1 0 10 0 5 5 0 0 0-10 0" style="stroke-width:.992126"/></svg>